<svg width="102" height="111" viewBox="0 0 102 111" fill="none" xmlns="http://www.w3.org/2000/svg">
<path d="M56.1996 53.8735H19.1505C18.1326 53.8735 17.293 54.595 17.293 55.4939C17.293 56.3818 18.12 57.1143 19.1505 57.1143H56.2127C57.2305 57.1143 58.0702 56.3929 58.0702 55.4939C58.0574 54.606 57.2301 53.8735 56.1996 53.8735Z" fill="#009CDE"/>
<path d="M56.1996 47.4136H19.1505C18.1326 47.4136 17.293 48.135 17.293 49.034C17.293 49.9219 18.12 50.6544 19.1505 50.6544H56.2127C57.2305 50.6544 58.0702 49.9329 58.0702 49.034C58.0574 48.135 57.2301 47.4136 56.1996 47.4136Z" fill="#009CDE"/>
<path d="M56.1996 40.9438H19.1505C18.1326 40.9438 17.293 41.6653 17.293 42.5642C17.293 43.4632 18.12 44.1846 19.1505 44.1846H56.2127C57.2305 44.1846 58.0702 43.4632 58.0702 42.5642C58.0702 41.6652 57.2301 40.9438 56.1996 40.9438Z" fill="#009CDE"/>
<path d="M46.3275 63.5753C47.3453 63.5753 48.185 62.8538 48.185 61.9549C48.185 61.067 47.358 60.3345 46.3275 60.3345H19.1505C18.1326 60.3345 17.293 61.0559 17.293 61.9549C17.293 62.8428 18.12 63.5753 19.1505 63.5753H46.3275Z" fill="#009CDE"/>
<path d="M54.2372 84.1847L47.354 86.8152L46.7051 85.4057C46.2216 84.3402 45.1529 83.6077 43.8552 83.4412C42.5574 83.2747 41.2979 83.7075 40.4709 84.5955L39.3004 85.9828L39.1986 85.8052C38.677 84.8951 37.6719 84.2513 36.5269 84.085C35.3818 83.9185 34.1858 84.2514 33.3589 84.9729L31.8448 86.3047C31.5395 85.4834 31.4504 84.5067 31.5268 83.5077C34.8729 81.9983 37.8119 80.1669 38.5498 78.1803C38.957 77.0704 38.728 75.9495 37.9137 74.9949C36.6287 73.4966 34.7203 73.0748 32.9517 73.8961C30.7889 74.9061 28.8296 78.0027 28.1042 81.3435C25.5469 82.3757 22.6079 83.3524 19.8216 84.1181C18.842 84.3845 18.2949 85.2946 18.6002 86.1382C18.9056 86.9928 19.9489 87.4589 20.9159 87.2037C22.3281 86.8152 24.9872 86.0494 27.8244 85.0061C27.9008 85.8829 28.0789 86.7263 28.397 87.5033C28.8041 88.5133 29.771 89.2569 30.9669 89.501C32.2138 89.7452 33.4861 89.4233 34.3895 88.6464L35.878 87.2479L35.9798 87.4255C36.5396 88.4022 37.6084 89.0459 38.8552 89.1681C40.0893 89.2791 41.3107 88.8462 42.0868 87.9916L43.2573 86.5931L43.9062 88.0027C44.2752 88.8018 44.9749 89.4344 45.8911 89.7564C46.3364 89.9228 46.8198 90.0005 47.2906 90.0005C47.7741 90.0005 48.2703 89.9117 48.7283 89.7452L55.6877 87.1482C56.6292 86.793 57.0617 85.8496 56.6673 85.0283C56.2729 84.2069 55.1787 83.8296 54.2372 84.1847ZM33.2828 78.2247C34.0462 77.0593 34.6823 76.7374 34.6951 76.7041C34.6951 76.7041 34.7968 76.7485 34.9622 76.9372C35.0767 77.0704 35.064 77.1037 35.0386 77.1925C34.8223 77.7585 33.9953 78.4467 32.7612 79.1681C32.9139 78.824 33.092 78.5132 33.2828 78.2247Z" fill="#009CDE"/>
<path d="M90.1674 42.0862V1.62039C90.1674 0.732488 89.3404 0 88.3099 0H1.85751C0.839673 0 0 0.721421 0 1.62039V109.38C0 110.268 0.826986 111 1.85751 111H88.3229C89.3407 111 90.1804 110.279 90.1804 109.38V93.7524L92.4833 95.5061C92.8268 95.7725 93.2594 95.9056 93.7047 95.9056C93.9592 95.9056 94.2264 95.8613 94.4681 95.7614C95.1297 95.495 95.5495 94.929 95.5495 94.2852V69.4351C99.4937 66.4606 102 62.0766 102 57.182C101.987 50.323 97.0763 44.4628 90.1677 42.0876L90.1674 42.0862ZM86.4651 107.759H3.70296V3.22999H86.4651V41.1884C85.46 41.0441 84.4294 40.9442 83.3735 40.9442C83.1699 40.9442 82.9663 40.9664 82.75 40.9664V8.08115C82.75 7.19325 81.9231 6.46076 80.8925 6.46076H9.26309C8.24525 6.46076 7.40558 7.18218 7.40558 8.08115V102.91C7.40558 103.798 8.23257 104.53 9.26309 104.53H80.9056C81.9234 104.53 82.7631 103.809 82.7631 102.91V89.0361L83.3865 88.5699L86.4781 90.9228V107.76L86.4651 107.759ZM72.3045 95.7608C72.9661 96.0272 73.7422 95.9273 74.2893 95.5055L79.0605 91.8651V101.288H11.1196V9.70008H79.0605V41.409C70.8797 43.1182 64.7727 49.5334 64.7727 57.1811C64.7727 62.0756 67.2791 66.4596 71.2231 69.4342V94.2842C71.2104 94.9168 71.6429 95.4944 72.3045 95.7608ZM91.8339 90.7219L84.5945 85.1947C83.8948 84.662 82.8515 84.662 82.1517 85.1947L74.9124 90.7219V71.6213C77.457 72.7533 80.3196 73.4082 83.3731 73.4082C86.4266 73.4082 89.2893 72.7533 91.8339 71.6213V90.7219ZM83.3731 70.1779C75.1541 70.1779 68.4746 64.3509 68.4746 57.1812C68.4746 50.0115 75.1543 44.1845 83.3731 44.1845C91.5922 44.1845 98.2716 50.0115 98.2716 57.1812C98.2716 64.3509 91.592 70.1779 83.3731 70.1779Z" fill="#009CDE"/>
<path d="M83.3723 47.7134C77.3924 47.7134 72.5195 51.9643 72.5195 57.1807C72.5195 62.3972 77.3924 66.6481 83.3723 66.6481C89.3521 66.6481 94.225 62.3972 94.225 57.1807C94.225 51.9643 89.3648 47.7134 83.3723 47.7134ZM83.3723 64.0736C79.0083 64.0736 75.4585 60.977 75.4585 57.1812C75.4585 53.3742 79.0083 50.2777 83.3723 50.2777C87.7362 50.2777 91.286 53.3742 91.286 57.1812C91.286 60.9881 87.7362 64.0736 83.3723 64.0736Z" fill="#009CDE"/>
<path d="M19.1505 31.2555H71.034C72.0518 31.2555 72.8915 30.5341 72.8915 29.6351V14.552C72.8915 13.6641 72.0645 12.9316 71.034 12.9316H19.1505C18.1326 12.9316 17.293 13.6531 17.293 14.552V29.6351C17.293 30.523 18.12 31.2555 19.1505 31.2555ZM20.9953 16.1611H69.1641V28.0147H20.9953V16.1611Z" fill="#009CDE"/>
</svg>
