<svg width="102" height="101" viewBox="0 0 102 101" fill="none" xmlns="http://www.w3.org/2000/svg">
<path d="M41.4211 62.7529C38.5797 62.7619 35.7655 62.1668 33.17 61.0125C26.763 58.1448 22.3051 52.2065 21.381 45.3083L20.2608 36.7729H20.2563C20.1424 35.79 20.8437 34.9017 21.8318 34.7709C22.82 34.6447 23.7307 35.3255 23.8719 36.3039L24.9966 44.8439H24.9921C26.0576 53.0276 33.0929 59.1513 41.4218 59.1513C49.7549 59.1513 56.7861 53.0281 57.8516 44.8439L58.9581 36.4842V36.4887C59.0173 36.0108 59.2677 35.5779 59.6502 35.2848C60.0328 34.9917 60.52 34.861 61.0027 34.9241C61.4809 34.9872 61.918 35.2352 62.214 35.6185C62.5055 35.9972 62.633 36.4797 62.5692 36.9577L61.4627 45.3083C60.5383 52.207 56.0803 58.1452 49.6737 61.009C47.0781 62.1678 44.2686 62.7584 41.4226 62.7539L41.4211 62.7529Z" fill="#009CDE"/>
<path d="M41.4194 54.4021C39.343 54.3615 37.3211 53.6987 35.6271 52.5038C34.7938 51.9447 34.5752 50.822 35.1399 49.9968C35.7 49.1717 36.8338 48.9553 37.6672 49.5098C39.8711 51.2233 42.9721 51.2233 45.1761 49.5098C46.0094 48.9552 47.1432 49.1717 47.7034 49.9968C48.268 50.822 48.0494 51.9447 47.2116 52.5038C45.5222 53.6987 43.5004 54.3615 41.4194 54.4021Z" fill="#009CDE"/>
<path d="M67.0894 101.002H1.82264C1.28986 101.002 0.779859 100.768 0.43379 100.367C0.0877089 99.9653 -0.0625535 99.4287 0.0239668 98.9102C0.0922714 98.4909 1.78165 88.5757 8.08846 82.0645C14.5728 75.3913 27.9326 70.278 32.0954 68.7993V59.3666C32.0954 58.3701 32.9105 57.563 33.9169 57.563C34.9232 57.563 35.7383 58.3701 35.7383 59.3666V70.0798C35.7383 70.8553 35.2374 71.5407 34.4952 71.7887C34.3313 71.8428 17.6644 77.4024 10.7167 84.5575C7.49278 88.2458 5.22054 92.6465 4.09119 97.3944H67.0906C68.0969 97.3944 68.912 98.2015 68.912 99.198C68.912 100.194 68.0969 101.002 67.0906 101.002L67.0894 101.002Z" fill="#009CDE"/>
<path d="M61.2747 77.0056C60.9924 77.0056 60.7146 76.938 60.4596 76.8162C56.5344 74.8909 52.4863 73.2091 48.3512 71.7842C47.6044 71.5407 47.1035 70.8509 47.1035 70.0753V59.3666C47.1035 58.3701 47.9186 57.563 48.925 57.563C49.9313 57.563 50.7464 58.3701 50.7464 59.3666V68.7993C54.6124 70.1836 58.401 71.7842 62.085 73.5878C62.8545 73.9575 63.2598 74.8007 63.064 75.6258C62.8727 76.4464 62.1259 77.0235 61.2744 77.0145L61.2747 77.0056Z" fill="#009CDE"/>
<path d="M24.699 52.1246C24.6398 52.1291 24.5806 52.1291 24.5168 52.1246C17.3221 51.4032 13.0234 47.6924 13.0234 42.2049C13.0234 39.2605 14.945 34.9004 19.0616 34.9004C20.0679 34.9004 20.883 35.7075 20.883 36.704C20.883 37.7004 20.0679 38.5076 19.0616 38.5076C17.4678 38.5076 16.6663 40.8793 16.6663 42.2049C16.6663 46.9978 21.8165 48.2289 24.8856 48.54C25.851 48.6347 26.5705 49.4643 26.5203 50.4247C26.4748 51.3851 25.6734 52.1381 24.7034 52.1381L24.699 52.1246Z" fill="#009CDE"/>
<path d="M58.1399 52.1248C57.17 52.1248 56.3686 51.3718 56.3185 50.4114C56.2729 49.451 56.9924 48.6213 57.9577 48.5267C61.0268 48.2201 66.177 46.9846 66.177 42.1916C66.177 40.866 65.3756 38.4943 63.7818 38.4943V38.4988C62.7754 38.4988 61.9603 37.6917 61.9603 36.6952C61.9603 35.6987 62.7754 34.8916 63.7818 34.8916C67.9438 34.8916 69.8199 39.1616 69.8199 42.1961C69.8199 47.688 65.5213 51.3944 58.3265 52.1158L58.322 52.1113C58.2628 52.1203 58.2037 52.1248 58.1399 52.1248Z" fill="#009CDE"/>
<path d="M34.8712 84.3331C34.7983 84.3331 34.73 84.3286 34.6617 84.3196C34.0378 84.2475 33.496 83.8642 33.2227 83.3051L27.9815 72.4295V72.434C27.6263 71.5502 28.0225 70.5448 28.8877 70.1344C29.7529 69.7241 30.7911 70.0487 31.2601 70.8784L35.2491 79.1479L38.6689 74.8914L32.9951 71.645C32.1572 71.1309 31.884 70.0533 32.3758 69.2101C32.8676 68.3624 33.9514 68.0603 34.8166 68.5202L42.321 72.8218C42.7763 73.0833 43.0996 73.5342 43.1953 74.0482C43.2954 74.5623 43.1588 75.0943 42.831 75.5046L36.2738 83.6568C35.9322 84.0806 35.4176 84.3286 34.8712 84.3331Z" fill="#009CDE"/>
<path d="M47.9728 84.333C47.4173 84.333 46.8936 84.0805 46.5475 83.6522L39.9903 75.5C39.6624 75.0897 39.5258 74.5576 39.626 74.0436C39.7216 73.5251 40.0449 73.0787 40.5003 72.8172L48.0046 68.5156C48.4236 68.2586 48.9336 68.1819 49.4071 68.2991C49.8853 68.4209 50.2951 68.7275 50.541 69.1468C50.7869 69.5707 50.8506 70.0757 50.7186 70.5446C50.582 71.0135 50.2632 71.4058 49.8261 71.6402L44.1522 74.8867L47.5766 79.1431L51.5701 70.8828C52.0391 70.0532 53.0819 69.7285 53.9472 70.1388C54.8123 70.5491 55.2085 71.5547 54.8488 72.4384L49.603 83.314L49.6076 83.3095C49.3343 83.8731 48.7925 84.2564 48.1686 84.324C48.1048 84.3331 48.0366 84.333 47.9728 84.333Z" fill="#009CDE"/>
<path d="M41.4191 101.002C40.4128 101.002 39.5977 100.195 39.5977 99.1987V74.3768C39.5977 73.3803 40.4128 72.5732 41.4191 72.5732C42.4255 72.5732 43.2406 73.3803 43.2406 74.3768V99.1987C43.2406 99.6767 43.0493 100.137 42.7078 100.475C42.3663 100.813 41.9018 101.002 41.4191 101.002Z" fill="#009CDE"/>
<path d="M19.3934 101.003C19.3297 101.003 19.2705 100.998 19.2113 100.994C18.7286 100.948 18.2869 100.714 17.9773 100.344C17.6722 99.9745 17.5219 99.501 17.572 99.0231L18.5146 89.5272V89.5227C18.5601 89.0493 18.7969 88.6119 19.1703 88.3098C19.5482 88.0077 20.0264 87.8634 20.509 87.9085C21.5063 88.0077 22.2394 88.896 22.1392 89.8834L21.2057 99.3793C21.1101 100.299 20.3269 101.003 19.3934 101.003Z" fill="#009CDE"/>
<path d="M63.4497 101.002C62.5117 101.002 61.7329 100.299 61.6374 99.3793L60.6948 89.8834C60.5946 88.8914 61.3232 88.0077 62.3249 87.9085C63.3267 87.8094 64.2192 88.5308 64.3193 89.5227L65.2619 99.0186C65.3075 99.4965 65.1618 99.97 64.8567 100.34C64.547 100.709 64.1053 100.944 63.6226 100.989C63.5634 100.998 63.5044 101.002 63.4497 101.002Z" fill="#009CDE"/>
<path d="M71.2078 27.7278C65.9256 19.6343 53.4036 13.7632 41.4176 13.7632C29.4316 13.7632 16.9059 19.6338 11.6321 27.7278C11.2633 28.2959 11.2451 29.0174 11.5821 29.599L15.0838 35.6726C15.9034 37.1064 17.2877 38.1389 18.9088 38.5177C19.3778 38.6304 19.8605 38.6845 20.3432 38.6845C21.559 38.6845 22.7475 38.3328 23.7675 37.679C29.7965 33.7923 36.5637 31.38 41.4224 31.38C46.2857 31.38 53.0479 33.7923 59.0902 37.679C60.5292 38.6079 62.2869 38.9099 63.9535 38.5177C65.5655 38.1299 66.9407 37.1018 67.7558 35.6726L71.2575 29.599C71.5944 29.0174 71.5766 28.296 71.2078 27.7278Z" fill="#009CDE"/>
<path d="M69.6742 30.5097C68.7772 30.5097 68.0167 29.8649 67.8755 28.9857C67.1014 24.1296 64.31 10.7825 60.7173 7.40621C56.5735 3.51047 45.754 3.58262 42.2253 3.60963H40.6179C37.0752 3.58257 26.2737 3.50141 22.126 7.39709C18.5332 10.7788 15.7418 24.1205 14.9677 28.9766C14.8129 29.964 13.8794 30.6359 12.8867 30.4826C11.8894 30.3248 11.2109 29.4004 11.3658 28.4174C11.6708 26.5057 14.4805 9.61056 19.6169 4.79024C24.2251 0.448139 33.2594 -0.0298535 40.6408 0.00177412H42.1981C49.6159 -0.0342975 58.6138 0.443648 63.2266 4.78574C68.3585 9.61933 71.1727 26.5141 71.4778 28.4256C71.5506 28.8991 71.4322 29.3815 71.1499 29.7693C70.863 30.1526 70.435 30.4141 69.9614 30.4863C69.8658 30.4998 69.7699 30.5097 69.6742 30.5097Z" fill="#009CDE"/>
<path d="M83.908 65.1607C79.1085 65.1561 74.5048 67.0454 71.1084 70.4046C67.7113 73.7638 65.8034 78.3224 65.7988 83.0753C65.7988 87.8322 67.7068 92.3907 71.0993 95.754C74.4918 99.1132 79.0955 101.002 83.899 101.002C88.6985 101.007 93.3022 99.1177 96.6986 95.754C100.091 92.3948 101.999 87.8363 101.999 83.0799C101.995 78.3319 100.087 73.7734 96.6986 70.4138C93.3061 67.0546 88.7079 65.1652 83.908 65.1607ZM94.3905 84.8829H91.3897C91.6948 86.2311 92.355 87.4755 93.2976 88.4901C93.9807 89.2205 93.9351 90.3658 93.1974 91.0421C92.4598 91.7184 91.3077 91.6733 90.6247 90.9429C89.0491 89.2566 88.02 87.1418 87.6648 84.8738H85.7295V93.4544C85.7295 94.4509 84.9144 95.258 83.908 95.258C82.9017 95.258 82.0866 94.4509 82.0866 93.4544V84.8828H80.1512C79.8006 87.1508 78.7715 89.2656 77.2005 90.9519C76.5129 91.6823 75.3609 91.7274 74.6232 91.0511C73.8855 90.3747 73.84 89.2295 74.523 88.4991C75.4656 87.4845 76.1259 86.2401 76.431 84.8919H73.4302C72.4238 84.8919 71.6087 84.0848 71.6087 83.0883C71.6087 82.0918 72.4238 81.2847 73.4302 81.2847H76.4355H76.431C76.1259 79.9365 75.4656 78.6966 74.523 77.6776C74.1906 77.3259 74.0176 76.8614 74.0358 76.379C74.0495 75.901 74.2589 75.4456 74.6141 75.121C75.3518 74.4402 76.5084 74.4808 77.2006 75.2112C78.7717 76.8975 79.8008 79.0078 80.1513 81.2758H82.0866V72.6952C82.0866 71.6987 82.9017 70.8916 83.9081 70.8916C84.9144 70.8916 85.7295 71.6987 85.7295 72.6952V81.2758H87.6649C88.0201 79.0078 89.0492 76.8975 90.6248 75.2112C90.9526 74.8595 91.408 74.6521 91.8906 74.6341C92.3733 74.616 92.8423 74.7874 93.1975 75.112C93.9352 75.7884 93.9808 76.9291 93.2977 77.664C92.3551 78.6786 91.6948 79.923 91.3898 81.2712H94.3951H94.3906C95.3969 81.2712 96.212 82.0783 96.212 83.0748C96.212 84.0713 95.3969 84.8784 94.3906 84.8784L94.3905 84.8829Z" fill="#009CDE"/>
</svg>
