<svg width="102" height="102" viewBox="0 0 102 102" fill="none" xmlns="http://www.w3.org/2000/svg">
<path d="M87.0687 14.931C86.5059 14.3683 85.9432 13.8055 85.3276 13.2779C85.31 13.2603 85.2925 13.2251 85.2749 13.2075C85.1869 13.1196 85.0814 13.0317 84.9935 12.9613C75.6201 4.60793 63.5559 0 50.9997 0C38.4435 0 26.3792 4.6076 17.0059 12.9613C16.918 13.0317 16.8124 13.1196 16.7245 13.2075C16.6894 13.2427 16.6718 13.2603 16.6542 13.2955C6.0674 22.9678 0 36.7026 0 50.9999V86.172C0 91.0257 3.93929 94.965 8.79305 94.965H14.2448C15.0538 98.9746 18.6062 101.999 22.8619 101.999H29.8964C32.798 101.999 35.1722 99.6253 35.1722 96.7236V61.5515C35.1722 58.6499 32.798 56.2757 29.8964 56.2757H22.8619C18.6062 56.2757 15.0537 59.3005 14.2448 63.3101H10.5518V50.9994C10.5518 40.2191 14.7549 30.0548 22.4045 22.4047C22.7035 22.0882 23.0376 21.7717 23.3542 21.4727C25.4821 22.3344 27.9266 22.0706 29.8434 20.7165C36.0865 16.3727 43.4024 14.069 50.9996 14.069C58.5968 14.069 65.9127 16.3728 72.1559 20.7165C73.3517 21.543 74.741 21.9651 76.1303 21.9651C76.9744 21.9651 77.8361 21.8069 78.6275 21.4903C86.7875 29.105 91.4482 39.7978 91.4482 50.9999V63.3107H87.7552C86.9462 59.3011 83.3939 56.2763 79.1381 56.2763H72.1036C69.202 56.2763 66.8278 58.6505 66.8278 61.5521V96.7242C66.8278 99.6259 69.202 102 72.1036 102H79.1381C83.3939 102 86.9463 98.9752 87.7552 94.9656H93.207C98.0607 94.9656 102 91.0263 102 86.1726V51.0005C102 37.3886 96.6886 24.5856 87.0687 14.931ZM31.6553 61.5517V96.7238C31.6553 97.691 30.8639 98.4824 29.8967 98.4824H26.3795V59.7931H29.8967C30.8639 59.7931 31.6553 60.5845 31.6553 61.5517ZM14.0692 91.4474H8.79336C5.89168 91.4474 3.51753 89.0733 3.51753 86.1716V72.1028C3.51753 69.2011 5.89168 66.827 8.79336 66.827H14.0692V91.4474ZM74.1613 17.8326C67.3379 13.0667 59.3181 10.5519 51.0006 10.5519C42.683 10.5519 34.6627 13.0667 27.8398 17.8326C26.6967 18.6239 25.2018 18.6415 23.9533 17.8326C23.7774 17.7446 23.6016 17.5864 23.4081 17.3929L20.5592 14.544C29.1061 7.42173 39.8336 3.51758 51.0009 3.51758C62.1682 3.51758 72.8955 7.42173 81.4426 14.544L78.5937 17.3929C78.4003 17.5864 78.2244 17.7447 77.9782 17.8853C77.943 17.9029 77.9254 17.9205 77.8903 17.9381C76.7296 18.6415 75.2693 18.6064 74.1613 17.8326ZM70.3452 96.7238V61.5517C70.3452 60.5845 71.1365 59.7931 72.1038 59.7931H75.621V98.4824H72.1038C71.1365 98.4824 70.3452 97.691 70.3452 96.7238ZM98.4829 86.1722C98.4829 89.0739 96.1088 91.448 93.2071 91.448H87.9313V66.8275H93.2071C96.1088 66.8275 98.4829 69.2017 98.4829 72.1034V86.1722Z" fill="#009CDE"/>
</svg>
