<svg width="102" height="84" viewBox="0 0 102 84" fill="none" xmlns="http://www.w3.org/2000/svg">
<path fill-rule="evenodd" clip-rule="evenodd" d="M70.3516 59.4007C78.5362 54.7934 85.4034 48.0356 90.235 39.8671C95.0917 31.6568 97.8875 22.0111 97.8875 11.6798C97.8875 10.0937 97.8241 8.52871 97.6932 7.00129C97.613 6.00533 97.5032 5.02607 97.3765 4.06782H43.3363C43.2054 5.02611 43.0998 6.00532 43.0196 6.99711C42.8929 8.52871 42.8295 10.0937 42.8295 11.6798C42.8295 19.6809 44.5062 27.2721 47.5215 34.1058C47.5511 34.1602 47.5722 34.2188 47.6018 34.2857C48.4633 36.2191 49.422 38.0771 50.482 39.868C55.3135 48.0365 62.1801 54.7952 70.3655 59.4016L70.3516 59.4007ZM60.0807 60.9365C60.6466 61.9073 60.313 63.1502 59.3332 63.7152C58.3534 64.2759 57.0991 63.9453 56.5289 62.9745C55.2745 60.8236 53.2601 59.3798 51.0133 58.7856C48.7666 58.1913 46.2959 58.4424 44.1252 59.6811C41.9545 60.9197 40.4974 62.92 39.8977 65.1463C39.298 67.3726 39.5514 69.8248 40.8015 71.9715C41.3674 72.9423 41.0337 74.1852 40.0539 74.7502C39.0742 75.3109 37.8199 74.9803 37.2497 74.0095C35.4252 70.8835 35.0578 67.3224 35.9277 64.096C36.8019 60.8655 38.9178 57.9654 42.0726 56.1661C45.2273 54.3584 48.8213 53.9943 52.0774 54.8563C55.3377 55.7225 58.2645 57.819 60.0804 60.945L60.0807 60.9365ZM22.0588 55.0905C22.6079 55.8856 22.5234 56.9778 21.8139 57.6809C21.0115 58.476 19.7107 58.476 18.9083 57.6809C18.7225 57.4968 18.5789 57.2875 18.4818 57.0657C17.4682 55.2119 17.2739 53.1279 17.7849 51.2323C18.2959 49.3409 19.5165 47.6335 21.3282 46.5288C21.4464 46.4367 21.5816 46.3656 21.7125 46.307C23.5834 45.3027 25.6908 45.1102 27.5997 45.6165C29.5803 46.1396 31.3584 47.416 32.4648 49.3158C33.0308 50.2866 32.6971 51.5294 31.7173 52.0944C30.7375 52.6552 29.4832 52.3246 28.913 51.3537C28.3725 50.4247 27.5067 49.8054 26.5354 49.546C25.564 49.2907 24.4998 49.3953 23.5664 49.9268C22.6373 50.4582 22.0081 51.3203 21.7504 52.2827C21.5055 53.1992 21.5899 54.2035 22.0629 55.0906L22.0588 55.0905ZM66.6649 61.966C66.1539 65.1673 65.3768 68.3099 64.3421 71.3647C62.9654 75.4197 61.1324 79.3198 58.8646 82.9773C58.5183 83.559 57.8848 83.9565 57.1542 83.9774C46.6215 84.2745 36.1053 81.634 26.8226 76.4032C17.8947 71.3691 10.094 63.9325 4.51525 54.396L4.44346 54.283C3.59037 52.8142 2.80487 51.3287 2.09109 49.8348C1.37736 48.3367 0.722792 46.7926 0.127295 45.2149C-0.214792 44.3027 0.148411 43.2523 1.02684 42.746L39.399 20.7977C38.9429 17.8266 38.7064 14.7843 38.7064 11.6877C38.7064 10.0097 38.7782 8.33579 38.9175 6.67029C39.0484 5.06338 39.2554 3.44811 39.5214 1.83702C39.6228 0.803412 40.5012 0 41.5697 0H99.1409C100.125 0 100.995 0.707212 101.164 1.70311C101.443 3.36026 101.654 5.0216 101.789 6.67029C101.928 8.33579 102 10.0055 102 11.6877C102 22.7475 98.9931 33.096 93.7731 41.9298C88.38 51.0565 80.6134 58.5474 71.3609 63.5063C70.7654 63.8327 70.0263 63.8662 69.3844 63.5272C68.468 63.0334 67.56 62.5145 66.6689 61.9747L66.6649 61.966ZM79.4278 33.9875C79.4278 32.8618 80.3485 31.9496 81.4845 31.9496C82.6205 31.9496 83.5412 32.8619 83.5412 33.9875C83.5412 37.5947 82.063 40.863 79.6769 43.2273C77.2908 45.5916 73.9925 47.0562 70.352 47.0562C66.7116 47.0562 63.4132 45.5957 61.0271 43.2273C58.641 40.863 57.1629 37.5947 57.1629 33.9875C57.1629 32.8618 58.0835 31.9496 59.2196 31.9496C60.3556 31.9496 61.2762 32.8619 61.2762 33.9875C61.2762 36.4732 62.2898 38.7204 63.9326 40.3482C65.5754 41.976 67.8433 42.9803 70.3519 42.9803C72.8605 42.9803 75.1284 41.976 76.767 40.3482C78.4098 38.7204 79.4278 36.4732 79.4278 33.9875ZM91.2535 21.2662C91.2535 22.3918 90.3328 23.304 89.1968 23.304C88.0608 23.304 87.1401 22.3918 87.1401 21.2662C87.1401 20.1949 86.7051 19.2241 85.9998 18.5294C85.2903 17.8305 84.3147 17.3995 83.2378 17.3995C82.1567 17.3995 81.1811 17.8347 80.4758 18.5335C79.7705 19.2324 79.3313 20.2032 79.3313 21.2703C79.3313 22.396 78.4106 23.3082 77.2746 23.3082C76.1386 23.3082 75.218 22.396 75.218 21.2703C75.218 19.0734 76.1175 17.0899 77.5661 15.6545C79.0146 14.2192 81.0207 13.3278 83.2337 13.3278C85.4509 13.3278 87.4527 14.2191 88.9013 15.6629C90.3542 17.1024 91.2537 19.0859 91.2537 21.2745L91.2535 21.2662ZM53.5614 21.2662C53.5614 22.3918 52.6407 23.304 51.5047 23.304C50.3687 23.304 49.448 22.3918 49.448 21.2662C49.448 19.0692 50.3476 17.0857 51.7962 15.6503C53.2447 14.215 55.255 13.3236 57.4638 13.3236C59.681 13.3236 61.6827 14.215 63.1314 15.6503C63.1736 15.6922 63.2116 15.734 63.2496 15.78C64.6306 17.207 65.4795 19.1403 65.4795 21.2703C65.4795 22.396 64.5588 23.3082 63.4228 23.3082C62.2868 23.3082 61.3662 22.396 61.3662 21.2703C61.3662 20.2409 60.965 19.3077 60.3103 18.6172L60.2217 18.5335C59.5164 17.8347 58.5366 17.3995 57.4596 17.3995C56.3785 17.3995 55.4072 17.8347 54.6976 18.5335C53.9924 19.2323 53.5531 20.2032 53.5531 21.2703L53.5614 21.2662Z" fill="#009CDE"/>
</svg>
