<svg width="102" height="136" viewBox="0 0 102 136" fill="none" xmlns="http://www.w3.org/2000/svg">
<path d="M32.0109 52.1621C32.0109 51.1753 32.7861 50.3743 33.7412 50.3743C34.6963 50.3743 35.4716 51.1753 35.4716 52.1621V54.2779H36.2714V52.1621C36.2714 51.1753 37.0466 50.3743 38.0017 50.3743C38.9568 50.3743 39.732 51.1753 39.732 52.1621V54.2779H39.9037C40.2443 54.2779 40.5522 54.1358 40.7702 53.9105C40.995 53.6783 41.1326 53.3601 41.1326 53.0082V51.4977C41.1326 51.005 41.3261 50.5573 41.6395 50.2336L44.4789 47.2999C44.8263 46.9409 45.0852 46.5566 45.2446 46.1568C45.4067 45.75 45.4899 45.2882 45.4899 44.7786V38.8183C45.4899 35.4848 44.1669 32.4484 42.0373 30.2481C39.9078 28.0478 36.9703 26.6809 33.7426 26.6809C30.5149 26.6809 27.5774 28.0478 25.4479 30.2481C23.3183 32.4484 21.9954 35.4834 21.9954 38.8183V44.7786C21.9954 45.2882 22.0785 45.75 22.2406 46.1568C22.4 46.5566 22.6589 46.9409 23.0063 47.2999L25.8457 50.2336C26.1822 50.5827 26.3512 51.0402 26.3512 51.4977L26.3526 53.0082C26.3526 53.3545 26.4915 53.6726 26.715 53.9035C26.9384 54.1344 27.2463 54.2779 27.5829 54.2779H27.7518V52.1621C27.7518 51.1753 28.5271 50.3743 29.4822 50.3743C30.4372 50.3743 31.2125 51.1753 31.2125 52.1621V54.2779H32.0109V52.1621ZM20.4067 31.287C19.6887 30.7549 19.1042 30.0961 18.6696 29.3472C18.1259 28.4054 17.818 27.3228 17.784 26.1601C17.7771 25.9362 17.7213 25.7026 17.6246 25.4844C17.5346 25.2816 17.4025 25.093 17.2349 24.9368C16.9079 24.6327 16.4978 24.4821 16.0945 24.4835C15.698 24.4849 15.2947 24.6397 14.9786 24.9424C14.6666 25.2267 14.4827 25.6406 14.45 26.0672C14.4159 26.4853 14.5263 26.9202 14.7865 27.2679C15.3683 28.0464 15.2293 29.167 14.4759 29.7681C14.0957 30.0707 13.6325 30.1848 13.1911 30.1228C12.7646 30.0651 12.3491 30.1791 12.0152 30.417C11.6842 30.6592 11.4307 31.0238 11.3354 31.4587C11.2359 31.8599 11.319 32.3273 11.5166 32.6835C11.7182 33.0621 12.0548 33.3465 12.454 33.4788C12.6815 33.552 12.9063 33.5774 13.1161 33.5591C13.3368 33.5394 13.5589 33.4676 13.7579 33.3564C14.747 32.8073 15.8138 32.5455 16.8752 32.5624C17.784 32.5765 18.6873 32.8003 19.5361 33.2254C19.7841 32.5568 20.0756 31.9092 20.4067 31.287ZM18.6614 36.7954L18.2404 36.5448C17.788 36.2732 17.3016 36.131 16.8207 36.1239C16.3479 36.1169 15.8574 36.2408 15.3928 36.4984C14.7974 36.8292 14.1216 37.0418 13.4268 37.1065C12.7483 37.1671 12.0548 37.0967 11.3926 36.8743C10.1814 36.4646 9.20447 35.6284 8.58727 34.5754C7.86379 33.3676 7.70302 32.0429 7.97006 30.662C8.26572 29.3274 9.03007 28.2154 10.0451 27.4861C10.3585 27.2665 10.6868 27.0821 11.0329 26.9357C10.9811 26.55 10.9716 26.1601 11.0029 25.7744C11.101 24.5539 11.6147 23.3615 12.5207 22.4423C13.4404 21.4681 14.7715 20.9304 16.0809 20.9219C17.3194 20.9163 18.5647 21.3696 19.5456 22.2818C20.0716 22.7717 20.4789 23.3573 20.761 23.9894C21.0484 24.6313 21.2092 25.3394 21.231 26.0474C21.246 26.5965 21.3863 27.0962 21.6289 27.5171C21.8196 27.8451 22.0785 28.1393 22.3973 28.38C22.5921 28.1548 22.7938 27.9338 23.0009 27.7198C25.7558 24.8734 29.5598 23.1053 33.7426 23.1053C37.9254 23.1053 41.7294 24.8734 44.4843 27.7198C44.6914 27.9338 44.8917 28.1534 45.0879 28.38C45.4054 28.1393 45.6642 27.8451 45.8536 27.5185C46.0975 27.0962 46.2365 26.5965 46.2515 26.0545C46.2733 25.3394 46.434 24.6313 46.7215 23.9894C47.0035 23.3573 47.4109 22.7717 47.9369 22.2818C48.9151 21.3696 50.1631 20.9163 51.4016 20.9219C52.6428 20.9304 53.8868 21.3991 54.8555 22.3297C55.801 23.332 56.3651 24.354 56.4809 25.7744C56.5122 26.1587 56.5014 26.5472 56.4496 26.9329C56.7997 27.0793 57.1308 27.2651 57.4374 27.4861C58.4524 28.2154 59.2168 29.3274 59.5124 30.662C59.7726 32.0049 59.6309 33.2564 58.9661 34.4572C58.2644 35.6284 57.3733 36.4407 56.0899 36.8729C55.4277 37.0967 54.7369 37.1685 54.0639 37.1065C53.369 37.0432 52.6973 36.832 52.0965 36.5012C51.6251 36.2422 51.1346 36.1183 50.6618 36.1225C50.1795 36.1296 49.6903 36.2732 49.2353 36.5434L48.8238 36.7898C48.9069 37.4556 48.9505 38.1314 48.9505 38.8183V44.2367L49.2421 44.4112C49.7026 44.6857 50.1877 44.8293 50.6604 44.8363C51.1318 44.8434 51.621 44.7167 52.0897 44.4563C52.6701 44.1339 53.3227 43.927 53.9985 43.8566C54.7002 43.782 55.4114 43.858 56.0831 44.0818C57.3474 44.5013 58.3529 45.3896 58.9661 46.5031C59.5792 47.6124 59.8026 48.9553 59.5097 50.2885C59.2154 51.63 58.4511 52.7435 57.4387 53.4713C57.1254 53.6909 56.7956 53.8753 56.4482 54.0217C56.5014 54.4089 56.5109 54.7988 56.4809 55.1845C56.3787 56.4585 55.8269 57.7015 54.8487 58.6349C53.8731 59.5597 52.6347 60.0299 51.3989 60.0355C50.159 60.044 48.9165 59.5893 47.9369 58.6757C47.4096 58.1745 46.9981 57.5917 46.7202 56.9667C46.4313 56.322 46.2733 55.6167 46.2515 54.91C46.2365 54.3624 46.0961 53.8627 45.8523 53.4418C45.6084 53.0194 45.2446 52.6548 44.7855 52.3803L44.5933 52.2663V53.0082C44.5933 54.3343 44.0674 55.5435 43.2186 56.4233C42.3602 57.3088 41.1885 57.8536 39.9037 57.8536C35.7972 57.8536 31.6894 57.8536 27.5829 57.8536C26.2912 57.8536 25.1168 57.3088 24.268 56.4318C23.4191 55.5548 22.8919 54.3413 22.8919 53.0082V52.2579L22.6957 52.3747C22.2352 52.6548 21.8714 53.0166 21.6302 53.4347C21.385 53.8641 21.246 54.3638 21.231 54.903C21.2092 55.6167 21.0512 56.322 20.7623 56.9667C20.4844 57.5917 20.0729 58.1745 19.5456 58.6686C18.566 59.5893 17.3234 60.044 16.0836 60.0355C14.8478 60.0299 13.6093 59.5597 12.6365 58.6306C11.6556 57.7015 11.1038 56.4585 11.0016 55.1831C10.9702 54.7974 10.9798 54.4074 11.0315 54.0217C10.6855 53.8753 10.3571 53.6909 10.0506 53.4713C9.03143 52.7435 8.26708 51.63 7.97279 50.2885C7.68122 48.9568 7.9033 47.6138 8.51642 46.5017C9.13089 45.3882 10.1364 44.5013 11.3994 44.0818C12.0643 43.8594 12.7551 43.7904 13.4213 43.8509C14.1175 43.9157 14.7879 44.1254 15.386 44.4563C15.8615 44.7167 16.3506 44.8434 16.8207 44.8363C17.2989 44.8293 17.7853 44.6885 18.2418 44.4168L18.5347 44.2409V38.8183C18.5347 38.1328 18.5783 37.4585 18.6614 36.7954ZM47.0758 49.6691C47.7897 50.1998 48.3769 50.8586 48.8116 51.6117C49.3538 52.5507 49.6645 53.6346 49.6985 54.7974C49.7053 55.0198 49.7598 55.2535 49.8566 55.4717C49.9492 55.6786 50.0814 55.8701 50.2449 56.0249C50.5732 56.3234 50.9833 56.4754 51.3853 56.474C51.7872 56.4726 52.1946 56.3177 52.5107 56.0151C52.8227 55.7096 53.0012 55.3056 53.0339 54.8917C53.0666 54.4722 52.9562 54.0372 52.696 53.6895C52.1142 52.911 52.2532 51.7905 53.0066 51.1894C53.3867 50.8867 53.85 50.7727 54.2914 50.8347C54.7179 50.8924 55.1348 50.7783 55.4686 50.5404C55.7983 50.2983 56.0504 49.9365 56.1444 49.5058C56.2398 49.068 56.1662 48.6259 55.9659 48.2627C55.7683 47.9024 55.4386 47.6138 55.0285 47.4772C54.8051 47.4026 54.5762 47.3787 54.3623 47.3984C54.1388 47.4181 53.9236 47.4885 53.7246 47.5983C52.7368 48.1473 51.6727 48.4148 50.6059 48.3979C49.8143 48.3852 49.0255 48.2149 48.272 47.8883C47.9682 48.5358 47.5676 49.1313 47.0758 49.6691ZM47.9491 33.2226C48.7966 32.7989 49.6999 32.5751 50.6073 32.561C51.6741 32.5455 52.7382 32.8102 53.7246 33.3592C53.9195 33.469 54.1388 33.5394 54.3609 33.5591C54.5721 33.5774 54.7996 33.5534 55.0217 33.4788C55.4127 33.3507 55.7261 33.0875 55.9277 32.7553C56.1457 32.3442 56.2466 31.9754 56.158 31.5024C56.0654 31.0815 55.8092 30.6676 55.4645 30.4198C55.1334 30.1819 54.7165 30.0665 54.2928 30.1242C53.8513 30.1848 53.3881 30.0707 53.008 29.7681C52.2545 29.167 52.1156 28.0464 52.6973 27.2679C52.9576 26.9202 53.0666 26.4853 53.0339 26.0672C53.0025 25.6758 52.8445 25.2957 52.5733 25.0057C52.215 24.6791 51.8812 24.4849 51.388 24.4835C50.9847 24.4821 50.5732 24.6341 50.2476 24.9368C50.08 25.093 49.9479 25.2816 49.8579 25.4844C49.7612 25.7026 49.7053 25.9362 49.6985 26.1601C49.6645 27.3214 49.3565 28.4068 48.8129 29.3486C48.3797 30.0961 47.7938 30.7549 47.0771 31.2856C47.4082 31.9078 47.7011 32.5539 47.9491 33.2226ZM19.2132 47.8869C18.4543 48.2149 17.6668 48.3852 16.8752 48.3979C15.8111 48.4148 14.7456 48.1473 13.7579 47.5983C13.5644 47.4885 13.3423 47.4195 13.1175 47.3984C12.9022 47.3787 12.6747 47.404 12.454 47.4772C12.0439 47.6138 11.7155 47.901 11.5166 48.2613C11.3163 48.6245 11.2427 49.068 11.3381 49.5058C11.4321 49.9365 11.6842 50.2983 12.0166 50.5376C12.3477 50.7783 12.7646 50.8924 13.1911 50.8333C13.6325 50.7727 14.0957 50.8867 14.4759 51.1894C15.2293 51.7905 15.3683 52.911 14.7865 53.6895C14.5249 54.0386 14.4146 54.4708 14.4486 54.8903C14.4813 55.3056 14.6598 55.7096 14.9718 56.0081C15.2879 56.3178 15.6953 56.4726 16.0972 56.474C16.4991 56.4754 16.9093 56.3234 17.2349 56.0207C17.4011 55.8701 17.5333 55.6786 17.6259 55.4717C17.7226 55.2535 17.7771 55.0198 17.784 54.7974C17.818 53.6374 18.1259 52.5521 18.6709 51.6117C19.111 50.8558 19.6955 50.1955 20.4067 49.6662C19.9162 49.1271 19.5157 48.533 19.2132 47.8869ZM30.598 45.6219C29.9236 44.9278 29.9195 43.7974 30.5912 43.1006C31.2629 42.4038 32.357 42.3996 33.0314 43.0936L33.7385 43.8242L34.4456 43.0936C35.1201 42.3968 36.2182 42.3968 36.8926 43.0936C37.5671 43.7904 37.5671 44.925 36.8926 45.6219L34.9661 47.6124C34.2903 48.3022 33.199 48.305 32.5259 47.6124L30.598 45.6219ZM36.4676 41.4846C35.3422 40.6653 34.5628 39.2533 34.5628 37.3895C34.5655 36.5125 35.1909 35.7467 36.0561 35.6228L42.1695 34.7387C42.3602 34.712 42.5592 34.7176 42.7581 34.7599C43.69 34.9598 44.2895 35.9057 44.096 36.8686C43.5797 39.3997 42.3262 40.982 40.9256 41.7323C40.2075 42.1265 39.3928 42.3109 38.5807 42.2546C37.8218 42.2025 37.0902 41.9378 36.4676 41.4846ZM32.921 37.3895C32.9224 39.2561 32.1431 40.6681 31.0177 41.4846C30.3923 41.9378 29.6634 42.2025 28.9045 42.2546C28.0924 42.3109 27.2777 42.1265 26.5596 41.7323C25.159 40.982 23.9056 39.3997 23.3892 36.8686C23.1957 35.9057 23.7952 34.9598 24.7271 34.7599C24.926 34.7176 25.125 34.712 25.3157 34.7401L31.4291 35.6228C32.2943 35.7467 32.9197 36.5125 32.921 37.3895Z" fill="#009CDE"/>
<path d="M54.3501 0.44873H12.618C5.91491 0.44873 0.292969 6.03398 0.292969 13.1831V79.9827C0.292969 86.9084 5.69868 92.7171 12.618 92.7171H54.3501C61.0532 92.7171 66.6751 86.9084 66.6751 79.9827V13.1831C66.4589 6.03398 61.0532 0.44873 54.3501 0.44873ZM62.1343 72.6102H4.61754V13.1831C4.61754 8.7149 8.29342 4.91693 12.618 4.91693H54.3501C58.6746 4.91693 62.3505 8.49149 62.3505 13.1831V72.6102H62.1343ZM24.5106 81.5466C24.5106 80.2061 25.5917 79.3125 26.6728 79.3125H40.079C41.1601 79.3125 42.2413 80.2061 42.2413 81.5466C42.2413 82.6636 41.1601 83.7807 40.079 83.7807H26.6728C25.5917 83.7807 24.5106 82.6636 24.5106 81.5466Z" fill="#009CDE"/>
<rect x="39.9355" y="47.8057" width="58.8462" height="69.3077" fill="white"/>
<path d="M33.7766 126.913L29.6937 124.182C27.4667 122.816 24.6829 124.377 24.6829 127.108V127.889H19.3009C10.764 127.889 3.71172 120.67 3.71172 111.501V105.258C3.71172 104.088 2.96937 103.308 1.85586 103.308C0.742343 103.308 0 104.088 0 105.258V111.501C0 122.621 8.53694 131.79 19.3009 131.79H24.6829V132.571C24.6829 135.302 27.4667 136.863 29.6937 135.497L33.7766 132.766C35.8181 131.205 35.8181 128.279 33.7766 126.913Z" fill="#009CDE"/>
<path d="M92.6058 37.5117L89.7822 32.9269C88.3704 30.4262 89.9838 27.3002 92.8075 27.3002L93.4125 27.3002L93.4125 21.6735C93.4125 12.0872 85.9501 4.16813 76.4708 4.16813L70.0169 4.16813C68.8068 4.16813 68 3.33454 68 2.08416C68 0.833778 68.8068 0.000188957 70.0169 0.000188903L76.4708 0.000188611C87.967 0.000188092 97.4462 9.58646 97.4462 21.6735L97.4462 27.3002L98.4547 27.3002C101.278 27.3002 102.892 30.4262 101.48 32.9269L98.6564 37.5117C97.0429 39.804 94.0176 39.804 92.6058 37.5117Z" fill="#009CDE"/>
<path d="M89.3657 43.1523H47.6336C40.9305 43.1523 35.3086 48.7376 35.3086 55.8867V122.686C35.3086 129.612 40.7143 135.421 47.6336 135.421H89.3657C96.0688 135.421 101.691 129.835 101.691 122.686V55.8867C101.691 48.961 96.285 43.1523 89.3657 43.1523ZM97.3662 115.314H39.8494V55.8867C39.8494 51.4185 43.309 47.6205 47.8498 47.6205H89.5819C93.9065 47.6205 97.5824 51.1951 97.5824 55.8867V115.314H97.3662ZM59.7424 124.25C59.7424 122.91 60.6073 122.016 61.9047 122.016H75.3108C76.6082 122.016 77.4731 122.91 77.4731 124.25C77.4731 125.367 76.6082 126.484 75.3108 126.484H61.9047C60.6073 126.484 59.7424 125.591 59.7424 124.25Z" fill="#009CDE"/>
<path d="M71.6124 97.9388H67.0996C66.9543 99.3046 67.0905 100.67 67.49 101.965C67.8714 103.204 68.5025 104.396 69.356 105.469C70.2096 104.396 70.8361 103.204 71.2221 101.965C71.6216 100.67 71.7577 99.3046 71.6124 97.9388ZM65.4333 93.719H76.7473C77.778 87.2575 77.5464 80.6739 76.1662 74.4853C75.8575 73.1102 75.4988 71.7538 75.0766 70.4257C74.5862 70.6659 74.0823 70.8731 73.5692 71.0521C72.2299 71.5136 70.8088 71.7585 69.3515 71.7585C67.8986 71.7585 66.473 71.5136 65.1337 71.0521C64.6207 70.8731 64.1213 70.6706 63.6264 70.4257C63.2087 71.7538 62.8455 73.1102 62.5367 74.4853C61.1565 80.6737 60.9205 87.258 61.9556 93.719H65.4333ZM63.6264 103.251C63.0952 101.537 62.8818 99.7424 63.018 97.9435H60.2757C59.2224 97.9435 58.3553 97.1099 58.2554 96.0503L58.0964 95.1931L50.5008 97.2418C50.2874 97.3218 50.0558 97.3642 49.8152 97.3642C48.6938 97.3642 47.7812 96.4223 47.7812 95.2543V90.1491C47.7812 87.6954 48.6757 85.2324 50.1149 83.2543C51.5632 81.2669 53.5926 79.7221 55.84 79.1146L57.7105 78.6059C57.9285 76.8963 58.219 75.2056 58.5913 73.5432C60.2212 66.2245 63.3494 59.4009 67.7942 53.8007C68.507 52.9059 69.7827 52.7787 70.6453 53.5134C70.7588 53.6076 70.8542 53.7112 70.9404 53.8242C75.3761 59.4145 78.4952 66.2291 80.125 73.5426C80.4973 75.2051 80.7924 76.9006 81.0058 78.6054L82.8764 79.114C85.1237 79.7215 87.1532 81.2615 88.597 83.2537C90.0407 85.2317 90.9351 87.6901 90.9351 90.1486V95.2538C90.9351 96.417 90.0271 97.3637 88.9011 97.3637C88.6605 97.3637 88.4289 97.3213 88.2156 97.2412L80.6199 95.1926L80.4247 96.2428C80.234 97.2412 79.385 97.9335 78.4361 97.9335L75.6939 97.9429C75.8256 99.742 75.6167 101.536 75.0855 103.251C74.3001 105.78 72.82 108.125 70.7134 110.037C69.9643 110.739 68.8066 110.762 68.0256 110.056C65.9145 108.139 64.4208 105.789 63.6354 103.251L63.6264 103.251ZM57.5244 91.0018C57.2657 88.3503 57.2021 85.6941 57.3201 83.0615L56.8434 83.1886C55.5041 83.5513 54.2646 84.5215 53.343 85.7836C52.4123 87.0693 51.8357 88.6282 51.8357 90.1493V92.5324L57.5199 90.9971L57.5244 91.0018ZM69.3517 58.5952C67.6719 61.0253 66.2372 63.6767 65.0704 66.4743C65.4971 66.7004 65.9466 66.8935 66.4051 67.0489C67.3358 67.3691 68.3301 67.5387 69.3517 67.5387C70.3733 67.5387 71.3675 67.3691 72.2983 67.0489C72.7568 66.8887 73.2063 66.7004 73.633 66.4743C72.4662 63.6768 71.0315 61.0254 69.3517 58.5952ZM81.3835 83.0662C81.5016 85.6988 81.438 88.355 81.1792 91.0065L86.8634 92.5417V90.1586C86.8634 88.6375 86.2868 87.0786 85.3561 85.8023C84.439 84.5307 83.1949 83.5605 81.8557 83.1978L81.3789 83.0707L81.3835 83.0662ZM69.3517 77.6031C71.0634 77.6031 72.6206 78.3284 73.7465 79.4964C74.8815 80.6738 75.5807 82.2891 75.5807 84.0647C75.5807 85.8496 74.8815 87.465 73.7555 88.633C72.6251 89.8057 71.0723 90.5262 69.3516 90.5262C67.6399 90.5262 66.0827 89.801 64.9568 88.633L64.9477 88.6236C63.8218 87.4509 63.1226 85.8402 63.1226 84.0648C63.1226 82.2798 63.8218 80.6645 64.9477 79.4965C66.0737 78.3284 67.631 77.6031 69.3517 77.6031ZM70.8862 82.4776C70.5003 82.0773 69.9555 81.8277 69.3517 81.8277C68.7524 81.8277 68.2121 82.082 67.8217 82.4823C67.4312 82.8873 67.1906 83.4477 67.1906 84.0694C67.1906 84.6911 67.4312 85.2562 67.8171 85.6565C68.2121 86.0663 68.7524 86.3112 69.3562 86.3112C69.9555 86.3112 70.4958 86.0568 70.8862 85.6565C71.2721 85.2562 71.5173 84.6911 71.5173 84.0694C71.5173 83.4477 71.2767 82.8826 70.8908 82.4776L70.8862 82.4776Z" fill="#009CDE"/>
</svg>
