<svg width="205" height="205" viewBox="0 0 205 205" fill="none" xmlns="http://www.w3.org/2000/svg">
<circle cx="102.5" cy="102.5" r="102.5" fill="white"/>
<path fill-rule="evenodd" clip-rule="evenodd" d="M56.6748 42H148.791C152.548 42 155.967 43.5385 158.444 46.0137C160.927 48.4991 162.466 51.9161 162.466 55.6731V124.839C162.466 128.596 160.927 132.013 158.452 134.49C155.967 136.974 152.548 138.512 148.791 138.512H56.6748C52.9178 138.512 49.4991 136.974 47.0222 134.499C44.5385 132.013 43 128.596 43 124.839V55.6731C43 51.9161 44.5385 48.4991 47.0137 46.0222C49.4991 43.5385 52.9178 42 56.6748 42ZM137.1 61.1845C141.719 61.1845 145.462 64.9279 145.462 69.5468C145.462 74.1657 141.719 77.9091 137.1 77.9091C132.481 77.9091 128.738 74.1657 128.738 69.5468C128.738 64.9279 132.481 61.1845 137.1 61.1845ZM123.146 82.5382L151.407 118.082C154.107 121.472 152.373 127.67 147.655 127.67H57.8087C53.1405 127.67 51.3181 121.516 54.0568 118.082L72.2502 95.1998C75.3476 91.3102 80.6669 91.1912 83.8578 95.1998L92.6655 106.279L111.539 82.5382C114.636 78.6486 119.956 78.5296 123.146 82.5382Z" fill="url(#paint0_linear_2136_13)"/>
<path d="M106.54 142.933L107.305 144.26C110.175 149.232 115.041 152.041 120.78 152.041H127.687V147.545C127.687 145.976 128.565 144.577 129.979 143.895C131.386 143.216 133.037 143.386 134.276 144.381H134.275L151.188 157.839H151.189C152.168 158.618 152.719 159.76 152.719 161.01C152.719 162.259 152.168 163.402 151.189 164.181H151.188L134.267 177.646L134.259 177.652C133.113 178.556 131.604 178.783 130.249 178.243L129.979 178.125C128.565 177.443 127.687 176.044 127.687 174.475V169.979H119.703C110.524 169.979 102.314 166.348 96.4111 159.81L90.6162 162.437L94.9697 155.436C95.1521 155.142 95.335 154.836 95.5195 154.52L102.209 142.932L104.376 139.179L106.54 142.933ZM130.246 98.6592C131.511 98.1553 132.909 98.3193 134.021 99.0781L134.256 99.25L134.265 99.2568L151.153 112.695L152.529 111.602L152.344 114.189C152.586 114.713 152.716 115.29 152.716 115.893C152.716 117.142 152.165 118.284 151.187 119.063L146.73 122.609V122.604L134.272 132.517L134.273 132.518C133.034 133.513 131.384 133.682 129.978 133.004C128.563 132.321 127.685 130.923 127.685 129.354V124.857H120.778C115.039 124.857 110.173 127.666 107.303 132.639L94.876 154.161V154.162C89.0818 164.197 79.0736 169.978 67.4844 169.978H67.4834L59.3271 169.974V169.973C56.6589 169.972 54.5 167.804 54.5 165.146V156.872C54.5 154.203 56.669 152.044 59.3281 152.044H66.4062C72.1459 152.044 77.0114 149.235 79.8818 144.263L92.3086 122.74C98.1027 112.705 108.111 106.924 119.7 106.924H127.685V102.428C127.685 100.858 128.562 99.4597 129.978 98.7773L130.246 98.6592ZM67.4854 106.911C77.3421 106.911 86.0835 111.096 92.0488 118.575L93.1504 119.955L92.2178 121.454C92.0373 121.744 91.8553 122.047 91.6729 122.359L91.6738 122.36L84.9785 133.958L82.8115 137.712L80.6475 133.957L79.8818 132.629V132.628C77.0113 127.657 72.1459 124.85 66.4072 124.85H59.3291C56.6701 124.85 54.5011 122.69 54.501 120.021V111.748C54.501 109.089 56.6604 106.92 59.3291 106.92H65.1943L65.1953 106.911H67.4854Z" fill="url(#paint1_linear_2136_13)" stroke="white" stroke-width="5"/>
<defs>
<linearGradient id="paint0_linear_2136_13" x1="40" y1="124.448" x2="130.447" y2="19.439" gradientUnits="userSpaceOnUse">
<stop stop-color="#00A7B5"/>
<stop offset="1" stop-color="#64A70B"/>
</linearGradient>
<linearGradient id="paint1_linear_2136_13" x1="54.6591" y1="165.079" x2="125.077" y2="83.1652" gradientUnits="userSpaceOnUse">
<stop stop-color="#00A7B5"/>
<stop offset="1" stop-color="#64A70B"/>
</linearGradient>
</defs>
</svg>
