<svg width="107" height="106" viewBox="0 0 107 106" fill="none" xmlns="http://www.w3.org/2000/svg">
<path d="M11.9511 82.0977C8.76417 82.0977 5.70999 83.2928 3.45255 85.5503C1.19511 87.8077 0 90.8619 0 94.0489C0 97.2358 1.19511 100.29 3.45255 102.547C5.84278 104.938 8.89696 106 11.9511 106C15.0053 106 18.0595 104.805 20.4497 102.547C24.699 98.2982 25.0974 91.7914 21.7776 87.1438L28.1516 80.7698C34.7911 86.7454 43.5553 90.3307 53.1162 90.3307C62.6771 90.3307 71.4413 86.7454 78.0808 80.7698L84.4547 87.1438C83.1268 89.1356 82.3301 91.5258 82.3301 94.0489C82.3301 97.2358 83.5252 100.29 85.9154 102.547C88.3057 104.938 91.3598 106 94.414 106C97.4682 106 100.522 104.805 102.913 102.547C107.56 97.8998 107.56 90.3307 102.913 85.5503C100.655 83.2928 97.601 82.0977 94.414 82.0977C91.891 82.0977 89.5008 82.8945 87.5089 84.3552L81.135 77.9812C87.1106 71.3417 90.6959 62.5775 90.6959 53.0166C90.6959 43.4557 87.1106 34.6915 81.135 28.052L87.5089 21.678C89.5008 23.1387 91.891 23.9355 94.414 23.9355C97.601 23.9355 100.655 22.7404 102.913 20.4829C107.56 15.8353 107.56 8.26621 102.913 3.48575C98.265 -1.16192 90.6959 -1.16192 85.9154 3.48575C83.658 5.74319 82.3301 8.79737 82.3301 11.9843C82.3301 14.5074 83.1268 16.8976 84.5875 18.8894L78.2136 25.2634C71.5741 19.2878 62.8099 15.7025 53.249 15.7025C43.6881 15.7025 34.9239 19.2878 28.2844 25.2634L21.9104 18.8894C25.2302 14.2418 24.8318 7.60225 20.5825 3.48575C15.9349 -1.16192 8.3658 -1.16192 3.58534 3.48575C1.3279 5.74319 0.132791 8.79737 0.132791 11.9843C0.132791 15.1713 1.3279 18.2255 3.58534 20.4829C5.84278 22.7404 8.89696 23.9355 12.0839 23.9355C14.607 23.9355 16.9972 23.1387 18.989 21.678L25.363 28.052C19.3874 34.6915 15.8021 43.4557 15.8021 53.0166C15.8021 62.5775 19.3874 71.3417 25.363 77.9812L18.989 84.3552C16.8644 82.7617 14.4742 82.0977 11.9511 82.0977ZM40.3683 50.4936C38.5092 47.9706 37.4469 44.7836 37.4469 41.4638C37.4469 32.8324 44.4848 25.7946 53.1162 25.7946C61.7476 25.7946 68.7855 32.8324 68.7855 41.4638C68.7855 44.7836 67.7231 47.9706 65.8641 50.4936C72.1052 54.4773 76.3545 61.3824 76.7529 69.217C76.7529 69.7482 76.6201 70.1466 76.3545 70.5449C70.7773 77.8484 62.2787 82.0977 53.1162 82.0977C43.9536 82.0977 35.4551 77.8484 29.8779 70.5449C29.6123 70.1466 29.4795 69.7482 29.4795 69.217C29.8779 61.3824 34.1272 54.4773 40.3683 50.4936Z" fill="#009CDE"/>
<path d="M53.1179 78.1141C60.8197 78.1141 67.8576 74.6615 72.6381 68.8188C72.1069 62.312 68.3888 56.7348 63.0771 53.5479C60.4213 55.8053 56.836 57.1332 53.1179 57.1332C49.2669 57.1332 45.8144 55.8053 43.1586 53.5479C37.847 56.7348 34.1288 62.312 33.5977 68.8188C38.3781 74.6615 45.416 78.1141 53.1179 78.1141Z" fill="#009CDE"/>
<path d="M53.1152 53.1499C59.569 53.1499 64.8008 47.9181 64.8008 41.4644C64.8008 35.0106 59.569 29.7788 53.1152 29.7788C46.6615 29.7788 41.4297 35.0106 41.4297 41.4644C41.4297 47.9181 46.6615 53.1499 53.1152 53.1499Z" fill="#009CDE"/>
</svg>
