<svg width="2677" height="1800" viewBox="0 0 2677 1800" fill="none" xmlns="http://www.w3.org/2000/svg">
<rect x="1" y="0.00537109" width="2661" height="1800" fill="white"/>
<path d="M1965.64 173.005H1950.02L1943.31 155.625H1908.22L1901.62 173.005H1886L1918.56 91.6054H1933.19L1965.64 173.005ZM1938.14 141.875L1925.82 109.535L1913.39 141.875H1938.14ZM1995.19 161.565V173.555C1993.65 173.995 1991.56 174.435 1989.36 174.435C1979.35 174.435 1973.85 168.935 1973.85 159.035V91.6054H1987.38V155.955C1987.38 159.475 1988.37 161.675 1993.1 161.675C1993.54 161.675 1994.42 161.675 1995.19 161.565ZM2067.04 173.005H2053.62L2041.85 139.675L2030.52 173.005H2016.44L1997.85 120.755H2013.03L2023.59 155.075L2035.91 120.755H2047.79L2059.89 155.075L2070.56 120.755H2085.85L2067.04 173.005ZM2146.61 173.005H2133.08V169.595C2128.9 173.005 2123.95 174.435 2118.56 174.435C2103.16 174.435 2090.84 162.115 2090.84 147.045C2090.84 131.865 2103.16 119.765 2118.56 119.765C2123.84 119.765 2128.79 121.195 2133.08 124.605V120.755H2146.61V173.005ZM2133.08 147.045C2133.08 139.345 2126.59 132.745 2118.56 132.745C2110.64 132.745 2104.15 139.345 2104.15 147.045C2104.15 154.855 2110.64 161.455 2118.56 161.455C2126.59 161.455 2133.08 154.855 2133.08 147.045ZM2181.39 200.835H2168.19L2177.65 174.435L2155.98 120.755H2170.94L2184.03 156.835L2197.01 120.755H2210.32L2181.39 200.835ZM2214.35 167.065L2221.5 156.725C2226.34 160.905 2232.17 162.115 2235.91 162.115C2240.75 162.115 2242.29 160.135 2242.29 158.265C2242.29 150.455 2215.78 155.295 2215.78 136.485C2215.78 126.915 2222.6 119.765 2234.26 119.765C2238.88 119.765 2247.35 120.865 2253.29 126.365L2246.14 136.045C2241.52 132.855 2237.23 132.085 2234.37 132.085C2229.86 132.085 2228.98 134.065 2228.98 135.385C2228.98 142.755 2255.16 139.235 2255.16 157.825C2255.16 167.395 2248.23 174.435 2235.03 174.435C2225.35 174.435 2219.08 170.695 2214.35 167.065ZM1946.39 290.005H1894.8V208.605H1946.39V222.465H1909.21V240.615H1938.47V254.475H1909.21V276.145H1946.39V290.005ZM2007.11 290.005H1992.59L1981.15 273.285L1969.71 290.005H1955.19L1973.78 262.615L1956.95 237.755H1971.58L1981.15 251.835L1990.72 237.755H2005.35L1988.41 262.615L2007.11 290.005ZM2029.49 317.835H2015.96V237.755H2029.49V241.605C2033.67 238.195 2038.62 236.765 2044.01 236.765C2059.41 236.765 2071.73 248.865 2071.73 264.045C2071.73 279.115 2059.41 291.435 2044.01 291.435C2038.62 291.435 2033.67 290.005 2029.49 286.595V317.835ZM2029.49 263.495V264.705C2029.82 272.185 2036.2 278.455 2044.01 278.455C2051.93 278.455 2058.42 271.855 2058.42 264.045C2058.42 256.345 2051.93 249.745 2044.01 249.745C2036.2 249.745 2029.82 256.125 2029.49 263.495ZM2105.19 278.565V290.555C2103.65 290.995 2101.56 291.435 2099.36 291.435C2089.35 291.435 2083.85 285.935 2083.85 276.035V208.605H2097.38V272.955C2097.38 276.475 2098.37 278.675 2103.1 278.675C2103.54 278.675 2104.42 278.675 2105.19 278.565ZM2166.15 264.045C2166.15 279.115 2153.83 291.435 2138.32 291.435C2122.92 291.435 2110.6 279.115 2110.6 264.045C2110.6 248.865 2122.92 236.765 2138.32 236.765C2153.83 236.765 2166.15 248.865 2166.15 264.045ZM2152.84 264.045C2152.84 256.345 2146.35 249.745 2138.32 249.745C2130.4 249.745 2123.91 256.345 2123.91 264.045C2123.91 271.855 2130.4 278.455 2138.32 278.455C2146.35 278.455 2152.84 271.855 2152.84 264.045ZM2191.8 290.005H2178.27V237.755H2191.8V241.605C2196.86 237.865 2201.81 236.765 2211.93 236.765V249.745C2194.66 249.745 2191.8 254.585 2191.8 263.605V290.005ZM2236.6 290.005H2223.07V237.755H2236.6V290.005ZM2229.89 229.065C2225.05 229.065 2221.31 225.325 2221.31 220.485C2221.31 215.645 2225.05 212.015 2229.89 212.015C2234.73 212.015 2238.36 215.645 2238.36 220.485C2238.36 225.325 2234.73 229.065 2229.89 229.065ZM2301.87 290.005H2288.34V262.065C2288.34 251.945 2282.95 249.745 2277.56 249.745C2272.17 249.745 2266.78 251.835 2266.78 261.845V290.005H2253.25V237.755H2266.78V241.605C2269.75 239.405 2273.38 236.765 2280.53 236.765C2291.97 236.765 2301.87 243.475 2301.87 259.865V290.005ZM2355.12 288.905V286.595C2350.94 290.005 2345.99 291.435 2340.6 291.435C2325.2 291.435 2312.88 279.115 2312.88 264.045C2312.88 248.865 2325.2 236.765 2340.6 236.765C2345.88 236.765 2350.83 238.195 2355.12 241.605V237.755H2368.65V286.265C2368.65 314.205 2350.83 317.835 2340.6 317.835C2330.59 317.835 2321.9 312.665 2317.06 304.965L2329.49 299.575C2332.13 302.765 2336.2 304.855 2340.6 304.855C2348.63 304.855 2355.12 300.895 2355.12 288.905ZM2355.12 264.045C2355.12 256.345 2348.63 249.745 2340.6 249.745C2332.68 249.745 2326.19 256.345 2326.19 264.045C2326.19 271.855 2332.68 278.455 2340.6 278.455C2348.63 278.455 2355.12 271.855 2355.12 264.045Z" fill="#242424"/>
<path d="M96.02 313.005H76.88L44.21 278.465V313.005H29.8V231.605H44.21V267.575L75.01 231.605H93.16L56.75 272.305L96.02 313.005ZM152.85 291.335H113.03C114.57 297.715 119.74 302.225 127.55 302.225C132.28 302.225 137.34 300.465 140.42 296.395L149.66 303.765C144.93 310.475 136.57 314.435 127.66 314.435C111.93 314.435 99.8305 302.665 99.8305 287.375C99.8305 272.525 110.28 259.765 126.89 259.765C142.29 259.765 153.18 272.305 153.18 287.045C153.18 288.475 153.07 290.015 152.85 291.335ZM113.47 281.435H139.54C138.77 276.155 133.27 272.085 126.78 272.085C120.51 272.085 115.45 275.825 113.47 281.435ZM213.866 291.335H174.046C175.586 297.715 180.756 302.225 188.566 302.225C193.296 302.225 198.356 300.465 201.436 296.395L210.676 303.765C205.946 310.475 197.586 314.435 188.676 314.435C172.946 314.435 160.846 302.665 160.846 287.375C160.846 272.525 171.296 259.765 187.906 259.765C203.306 259.765 214.196 272.305 214.196 287.045C214.196 288.475 214.086 290.015 213.866 291.335ZM174.486 281.435H200.556C199.786 276.155 194.286 272.085 187.796 272.085C181.526 272.085 176.466 275.825 174.486 281.435ZM274.882 313.005H261.352V285.065C261.352 274.945 255.962 272.745 250.572 272.745C245.182 272.745 239.792 274.835 239.792 284.845V313.005H226.262V260.755H239.792V264.605C242.762 262.405 246.392 259.765 253.542 259.765C264.982 259.765 274.882 266.475 274.882 282.865V313.005ZM372.074 313.005H320.484V231.605H372.074V245.465H334.894V263.615H364.154V277.475H334.894V299.145H372.074V313.005ZM404.043 340.835H390.843L400.303 314.435L378.633 260.755H393.593L406.683 296.835L419.663 260.755H432.973L404.043 340.835ZM490.907 291.335H451.087C452.627 297.715 457.797 302.225 465.607 302.225C470.337 302.225 475.397 300.465 478.477 296.395L487.717 303.765C482.987 310.475 474.627 314.435 465.717 314.435C449.987 314.435 437.887 302.665 437.887 287.375C437.887 272.525 448.337 259.765 464.947 259.765C480.347 259.765 491.237 272.305 491.237 287.045C491.237 288.475 491.127 290.015 490.907 291.335ZM451.527 281.435H477.597C476.827 276.155 471.327 272.085 464.837 272.085C458.567 272.085 453.507 275.825 451.527 281.435ZM498.56 307.065L505.71 296.725C510.55 300.905 516.38 302.115 520.12 302.115C524.96 302.115 526.5 300.135 526.5 298.265C526.5 290.455 499.99 295.295 499.99 276.485C499.99 266.915 506.81 259.765 518.47 259.765C523.09 259.765 531.56 260.865 537.5 266.365L530.35 276.045C525.73 272.855 521.44 272.085 518.58 272.085C514.07 272.085 513.19 274.065 513.19 275.385C513.19 282.755 539.37 279.235 539.37 297.825C539.37 307.395 532.44 314.435 519.24 314.435C509.56 314.435 503.29 310.695 498.56 307.065Z" fill="#242424"/>
<path d="M2044.16 1171H2028.98L1984.21 1109.07V1171H1969.8V1089.6H1987.95L2029.86 1147.46V1089.6H2044.16V1171ZM2112.35 1145.04C2112.35 1160.11 2100.03 1172.43 2084.52 1172.43C2069.12 1172.43 2056.8 1160.11 2056.8 1145.04C2056.8 1129.86 2069.12 1117.76 2084.52 1117.76C2100.03 1117.76 2112.35 1129.86 2112.35 1145.04ZM2099.04 1145.04C2099.04 1137.34 2092.55 1130.74 2084.52 1130.74C2076.6 1130.74 2070.11 1137.34 2070.11 1145.04C2070.11 1152.85 2076.6 1159.45 2084.52 1159.45C2092.55 1159.45 2099.04 1152.85 2099.04 1145.04ZM2151.56 1159.12V1171.11C2151.56 1171.11 2147.6 1172.43 2141.11 1172.43C2130.88 1172.43 2125.6 1165.72 2125.6 1155.49V1131.73H2117.35V1118.75H2125.6V1101.04H2139.13V1118.75H2152.99V1131.73H2139.13V1152.63C2139.13 1156.26 2140.12 1159.67 2144.96 1159.67C2148.37 1159.67 2151.56 1159.12 2151.56 1159.12ZM2265.58 1171H2249.96L2243.25 1153.62H2208.16L2201.56 1171H2185.94L2218.5 1089.6H2233.13L2265.58 1171ZM2238.08 1139.87L2225.76 1107.53L2213.33 1139.87H2238.08ZM2286.18 1171H2272.65V1131.73H2264.95V1118.75H2272.65V1106.54C2272.65 1096.31 2277.49 1089.6 2288.82 1089.6C2291.79 1089.6 2296.3 1090.04 2298.94 1090.92V1102.91C2298.94 1102.91 2295.09 1102.36 2292.56 1102.36C2288.38 1102.36 2286.18 1103.9 2286.18 1109.4V1118.75H2297.84V1131.73H2286.18V1171ZM2323.52 1171H2309.99V1118.75H2323.52V1122.6C2328.58 1118.86 2333.53 1117.76 2343.65 1117.76V1130.74C2326.38 1130.74 2323.52 1135.58 2323.52 1144.6V1171ZM2404.44 1171H2390.91V1167.59C2386.73 1171 2381.78 1172.43 2376.39 1172.43C2360.99 1172.43 2348.67 1160.11 2348.67 1145.04C2348.67 1129.86 2360.99 1117.76 2376.39 1117.76C2381.67 1117.76 2386.62 1119.19 2390.91 1122.6V1118.75H2404.44V1171ZM2390.91 1145.04C2390.91 1137.34 2384.42 1130.74 2376.39 1130.74C2368.47 1130.74 2361.98 1137.34 2361.98 1145.04C2361.98 1152.85 2368.47 1159.45 2376.39 1159.45C2384.42 1159.45 2390.91 1152.85 2390.91 1145.04ZM2434.6 1171H2421.07V1118.75H2434.6V1171ZM2427.89 1110.06C2423.05 1110.06 2419.31 1106.32 2419.31 1101.48C2419.31 1096.64 2423.05 1093.01 2427.89 1093.01C2432.73 1093.01 2436.36 1096.64 2436.36 1101.48C2436.36 1106.32 2432.73 1110.06 2427.89 1110.06ZM2502.62 1171H2489.09V1167.59C2484.91 1171 2479.96 1172.43 2474.57 1172.43C2459.17 1172.43 2446.85 1160.11 2446.85 1145.04C2446.85 1129.86 2459.17 1117.76 2474.57 1117.76C2479.85 1117.76 2484.8 1119.19 2489.09 1122.6V1089.6H2502.62V1171ZM2489.09 1145.04C2489.09 1137.34 2482.6 1130.74 2474.57 1130.74C2466.65 1130.74 2460.16 1137.34 2460.16 1145.04C2460.16 1152.85 2466.65 1159.45 2474.57 1159.45C2482.6 1159.45 2489.09 1152.85 2489.09 1145.04ZM2576.95 1159.12V1171.11C2576.95 1171.11 2572.99 1172.43 2566.5 1172.43C2556.27 1172.43 2550.99 1165.72 2550.99 1155.49V1131.73H2542.74V1118.75H2550.99V1101.04H2564.52V1118.75H2578.38V1131.73H2564.52V1152.63C2564.52 1156.26 2565.51 1159.67 2570.35 1159.67C2573.76 1159.67 2576.95 1159.12 2576.95 1159.12ZM2643.23 1145.04C2643.23 1160.11 2630.91 1172.43 2615.4 1172.43C2600 1172.43 2587.68 1160.11 2587.68 1145.04C2587.68 1129.86 2600 1117.76 2615.4 1117.76C2630.91 1117.76 2643.23 1129.86 2643.23 1145.04ZM2629.92 1145.04C2629.92 1137.34 2623.43 1130.74 2615.4 1130.74C2607.48 1130.74 2600.99 1137.34 2600.99 1145.04C2600.99 1152.85 2607.48 1159.45 2615.4 1159.45C2623.43 1159.45 2629.92 1152.85 2629.92 1145.04ZM2044.27 1241.03V1250.38C2044.27 1271.28 2031.95 1289.43 2007.53 1289.43C1983.11 1289.43 1964.3 1271.17 1964.3 1247.52C1964.3 1224.2 1982.56 1205.17 2006.76 1205.17C2018.97 1205.17 2029.75 1210.01 2037.45 1217.82L2028.76 1227.72C2022.82 1220.9 2014.57 1218.37 2007.31 1218.37C1990.59 1218.37 1978.6 1231.79 1978.6 1247.52C1978.6 1263.47 1990.81 1276.23 2007.64 1276.23C2019.52 1276.23 2028.65 1269.85 2029.97 1254.89H2004.34V1241.03H2044.27ZM2072.8 1288H2059.27V1235.75H2072.8V1288ZM2066.09 1227.06C2061.25 1227.06 2057.51 1223.32 2057.51 1218.48C2057.51 1213.64 2061.25 1210.01 2066.09 1210.01C2070.93 1210.01 2074.56 1213.64 2074.56 1218.48C2074.56 1223.32 2070.93 1227.06 2066.09 1227.06ZM2117.51 1288H2103.32L2082.31 1235.75H2097.05L2110.36 1271.17L2123.78 1235.75H2138.52L2117.51 1288ZM2196.51 1266.33H2156.69C2158.23 1272.71 2163.4 1277.22 2171.21 1277.22C2175.94 1277.22 2181 1275.46 2184.08 1271.39L2193.32 1278.76C2188.59 1285.47 2180.23 1289.43 2171.32 1289.43C2155.59 1289.43 2143.49 1277.66 2143.49 1262.37C2143.49 1247.52 2153.94 1234.76 2170.55 1234.76C2185.95 1234.76 2196.84 1247.3 2196.84 1262.04C2196.84 1263.47 2196.73 1265.01 2196.51 1266.33ZM2157.13 1256.43H2183.2C2182.43 1251.15 2176.93 1247.08 2170.44 1247.08C2164.17 1247.08 2159.11 1250.82 2157.13 1256.43ZM2252.2 1288H2238.67V1235.75H2252.2V1288ZM2245.49 1227.06C2240.65 1227.06 2236.91 1223.32 2236.91 1218.48C2236.91 1213.64 2240.65 1210.01 2245.49 1210.01C2250.33 1210.01 2253.96 1213.64 2253.96 1218.48C2253.96 1223.32 2250.33 1227.06 2245.49 1227.06ZM2297.01 1276.12V1288.11C2297.01 1288.11 2293.05 1289.43 2286.56 1289.43C2276.33 1289.43 2271.05 1282.72 2271.05 1272.49V1248.73H2262.8V1235.75H2271.05V1218.04H2284.58V1235.75H2298.44V1248.73H2284.58V1269.63C2284.58 1273.26 2285.57 1276.67 2290.41 1276.67C2293.82 1276.67 2297.01 1276.12 2297.01 1276.12ZM2393.16 1288H2379.63V1284.59C2375.45 1288 2370.5 1289.43 2365.11 1289.43C2349.71 1289.43 2337.39 1277.11 2337.39 1262.04C2337.39 1246.86 2349.71 1234.76 2365.11 1234.76C2370.39 1234.76 2375.34 1236.19 2379.63 1239.6V1235.75H2393.16V1288ZM2379.63 1262.04C2379.63 1254.34 2373.14 1247.74 2365.11 1247.74C2357.19 1247.74 2350.7 1254.34 2350.7 1262.04C2350.7 1269.85 2357.19 1276.45 2365.11 1276.45C2373.14 1276.45 2379.63 1269.85 2379.63 1262.04ZM2514.35 1241.03V1250.38C2514.35 1271.28 2502.03 1289.43 2477.61 1289.43C2453.19 1289.43 2434.38 1271.17 2434.38 1247.52C2434.38 1224.2 2452.64 1205.17 2476.84 1205.17C2489.05 1205.17 2499.83 1210.01 2507.53 1217.82L2498.84 1227.72C2492.9 1220.9 2484.65 1218.37 2477.39 1218.37C2460.67 1218.37 2448.68 1231.79 2448.68 1247.52C2448.68 1263.47 2460.89 1276.23 2477.72 1276.23C2489.6 1276.23 2498.73 1269.85 2500.05 1254.89H2474.42V1241.03H2514.35ZM2580.39 1262.04C2580.39 1277.11 2568.07 1289.43 2552.56 1289.43C2537.16 1289.43 2524.84 1277.11 2524.84 1262.04C2524.84 1246.86 2537.16 1234.76 2552.56 1234.76C2568.07 1234.76 2580.39 1246.86 2580.39 1262.04ZM2567.08 1262.04C2567.08 1254.34 2560.59 1247.74 2552.56 1247.74C2544.64 1247.74 2538.15 1254.34 2538.15 1262.04C2538.15 1269.85 2544.64 1276.45 2552.56 1276.45C2560.59 1276.45 2567.08 1269.85 2567.08 1262.04Z" fill="#242424"/>
<path d="M61.94 1200H9.8V1118.6H24.21V1186.14H61.94V1200ZM123.247 1200H109.717V1196.59C105.537 1200 100.587 1201.43 95.197 1201.43C79.797 1201.43 67.477 1189.11 67.477 1174.04C67.477 1158.86 79.797 1146.76 95.197 1146.76C100.477 1146.76 105.427 1148.19 109.717 1151.6V1147.75H123.247V1200ZM109.717 1174.04C109.717 1166.34 103.227 1159.74 95.197 1159.74C87.277 1159.74 80.787 1166.34 80.787 1174.04C80.787 1181.85 87.277 1188.45 95.197 1188.45C103.227 1188.45 109.717 1181.85 109.717 1174.04ZM188.388 1200H174.858V1172.06C174.858 1161.94 169.468 1159.74 164.078 1159.74C158.688 1159.74 153.298 1161.83 153.298 1171.84V1200H139.768V1147.75H153.298V1151.6C156.268 1149.4 159.898 1146.76 167.048 1146.76C178.488 1146.76 188.388 1153.47 188.388 1169.86V1200ZM255.161 1200H241.631V1196.59C237.451 1200 232.501 1201.43 227.111 1201.43C211.711 1201.43 199.391 1189.11 199.391 1174.04C199.391 1158.86 211.711 1146.76 227.111 1146.76C232.391 1146.76 237.341 1148.19 241.631 1151.6V1118.6H255.161V1200ZM241.631 1174.04C241.631 1166.34 235.141 1159.74 227.111 1159.74C219.191 1159.74 212.701 1166.34 212.701 1174.04C212.701 1181.85 219.191 1188.45 227.111 1188.45C235.141 1188.45 241.631 1181.85 241.631 1174.04ZM352.48 1174.04C352.48 1189.11 340.16 1201.43 324.65 1201.43C309.25 1201.43 296.93 1189.11 296.93 1174.04C296.93 1158.86 309.25 1146.76 324.65 1146.76C340.16 1146.76 352.48 1158.86 352.48 1174.04ZM339.17 1174.04C339.17 1166.34 332.68 1159.74 324.65 1159.74C316.73 1159.74 310.24 1166.34 310.24 1174.04C310.24 1181.85 316.73 1188.45 324.65 1188.45C332.68 1188.45 339.17 1181.85 339.17 1174.04ZM413.222 1200H399.692V1172.06C399.692 1161.94 394.302 1159.74 388.912 1159.74C383.522 1159.74 378.132 1161.83 378.132 1171.84V1200H364.602V1147.75H378.132V1151.6C381.102 1149.4 384.732 1146.76 391.882 1146.76C403.322 1146.76 413.222 1153.47 413.222 1169.86V1200ZM44.3658 1317H29.9558V1280.92L0.475781 1235.6H17.1958L37.1058 1267.39L57.1258 1235.6H73.8458L44.3658 1280.81V1317ZM133.769 1291.04C133.769 1306.11 121.449 1318.43 105.939 1318.43C90.5391 1318.43 78.2191 1306.11 78.2191 1291.04C78.2191 1275.86 90.5391 1263.76 105.939 1263.76C121.449 1263.76 133.769 1275.86 133.769 1291.04ZM120.459 1291.04C120.459 1283.34 113.969 1276.74 105.939 1276.74C98.0191 1276.74 91.5291 1283.34 91.5291 1291.04C91.5291 1298.85 98.0191 1305.45 105.939 1305.45C113.969 1305.45 120.459 1298.85 120.459 1291.04ZM180.321 1291.81V1264.75H193.851V1295.44C193.851 1311.83 184.061 1318.43 169.321 1318.43C154.581 1318.43 144.791 1311.83 144.791 1295.44V1264.75H158.321V1291.81C158.321 1300.61 160.081 1305.45 169.321 1305.45C178.561 1305.45 180.321 1300.61 180.321 1291.81ZM222.8 1317H209.27V1264.75H222.8V1268.6C227.86 1264.86 232.81 1263.76 242.93 1263.76V1276.74C225.66 1276.74 222.8 1281.58 222.8 1290.6V1317ZM298.565 1317H284.155V1235.6H334.645V1249.46H298.565V1267.61H326.725V1281.47H298.565V1317ZM394.315 1295.33H354.495C356.035 1301.71 361.205 1306.22 369.015 1306.22C373.745 1306.22 378.805 1304.46 381.885 1300.39L391.125 1307.76C386.395 1314.47 378.035 1318.43 369.125 1318.43C353.395 1318.43 341.295 1306.66 341.295 1291.37C341.295 1276.52 351.745 1263.76 368.355 1263.76C383.755 1263.76 394.645 1276.3 394.645 1291.04C394.645 1292.47 394.535 1294.01 394.315 1295.33ZM354.935 1285.43H381.005C380.235 1280.15 374.735 1276.08 368.245 1276.08C361.975 1276.08 356.915 1279.82 354.935 1285.43ZM455.331 1295.33H415.511C417.051 1301.71 422.221 1306.22 430.031 1306.22C434.761 1306.22 439.821 1304.46 442.901 1300.39L452.141 1307.76C447.411 1314.47 439.051 1318.43 430.141 1318.43C414.411 1318.43 402.311 1306.66 402.311 1291.37C402.311 1276.52 412.761 1263.76 429.371 1263.76C444.771 1263.76 455.661 1276.3 455.661 1291.04C455.661 1292.47 455.551 1294.01 455.331 1295.33ZM415.951 1285.43H442.021C441.251 1280.15 435.751 1276.08 429.261 1276.08C422.991 1276.08 417.931 1279.82 415.951 1285.43ZM494.812 1305.12V1317.11C494.812 1317.11 490.852 1318.43 484.362 1318.43C474.132 1318.43 468.852 1311.72 468.852 1301.49V1277.73H460.602V1264.75H468.852V1247.04H482.382V1264.75H496.242V1277.73H482.382V1298.63C482.382 1302.26 483.372 1305.67 488.212 1305.67C491.622 1305.67 494.812 1305.12 494.812 1305.12Z" fill="#242424"/>
<path d="M1410.72 619.426L1299.22 673.82L1296.05 688.522L1410.72 632.659L1410.72 619.426Z" fill="#D9D9D9"/>
<path d="M1907.19 1228.32L1555.22 1109.67C1554.99 1109.6 1554.75 1109.6 1554.52 1109.54C1553.81 1109.35 1553.03 1109.29 1552.33 1109.17C1551.32 1109.04 1550.38 1108.92 1549.36 1108.98C1549.13 1108.98 1548.89 1108.92 1548.66 1108.92L838.483 1181.87C832.078 1182.49 827.313 1186.87 827.313 1192V1682.35H814.035V1184.44C814.035 1179.32 818.799 1174.81 825.361 1174.13L887.614 1167.63V438.596L584.075 523.239V1682.42C577.046 1682.42 571.266 1686.98 571.266 1692.67C571.266 1698.3 576.968 1702.93 584.075 1702.93H1897.33C1898.19 1702.93 1898.97 1702.68 1899.75 1702.55C1900.53 1702.68 1901.31 1702.93 1902.17 1702.93C1909.2 1702.93 1914.98 1698.36 1914.98 1692.67V1237.83C1914.98 1233.7 1911.94 1230.01 1907.17 1228.39L1907.19 1228.32ZM1889.46 1682.41H1563.04V1134.55L1889.46 1244.58V1682.41ZM852.868 1383.92L1537.41 1352.97V1439.18L852.868 1461.06V1383.92ZM1537.41 1332.47L852.868 1363.41V1294.96L1537.41 1243.2V1332.47ZM852.868 1481.56L1537.41 1459.68V1551.51H852.868V1481.56ZM1537.41 1130.74V1222.69L852.868 1274.45V1201.07L1537.41 1130.74ZM852.868 1571.95H1537.41V1682.34L852.868 1682.41V1571.95ZM1804.86 1184.36L1608.1 1117.04V661.137L1804.86 763.096V1184.36ZM1176.16 1137.6L913.716 1164.98V443.092L1176.16 579.12V1137.6ZM1548.67 1098.72L1353.63 1119.04V720.268L1582.1 656.566V1108.04L1557.42 1099.6C1555.62 1098.85 1553.59 1098.41 1551.41 1098.41C1550.47 1098.41 1549.53 1098.47 1548.67 1098.66L1548.67 1098.72Z" fill="#64A70B"/>
<path d="M976.77 780.965C988.255 804.35 1015.09 816.983 1046.79 823.232L1046.74 823.278C1062.73 851.486 1084.55 875.928 1110.74 895.086C1134.12 913.417 1160.86 927.108 1189.39 935.423C1191.14 939.053 1192.97 942.636 1194.99 946.128C1196.19 960.416 1197.71 975.577 1199.27 991.336C1207.67 1074.12 1215.48 1141.15 1243.92 1138.3C1269.56 1135.68 1285.23 1078.99 1281.92 1007.23H1281.96C1291.47 1009.2 1301.12 1010.49 1310.82 1010.99C1402.84 1016.09 1406.47 946.673 1388.96 879.138C1389.47 879.046 1389.93 879 1390.43 878.908C1421.95 871.052 1448.73 850.377 1464.35 821.939C1480.57 791.847 1492.06 759.458 1498.44 725.919C1514.71 658.338 1524.68 634.632 1572.82 634.541H1572.96V634.495C1582.7 634.081 1592.07 638.124 1598.41 645.521C1602.73 650.299 1604.8 656.639 1604.2 662.979C1600.85 681.127 1612.79 698.538 1630.89 701.892C1649 705.292 1666.41 693.393 1669.81 675.246C1674.13 649.335 1666.73 622.826 1649.73 602.795C1630.62 580.283 1602.46 567.419 1572.96 567.741H1572.64C1467.75 568.016 1448 650.252 1433.53 710.298C1428.57 737.128 1419.7 763.132 1407.2 787.389C1404.68 791.616 1401.78 795.567 1398.57 799.242C1408.26 739.149 1412.21 678.231 1410.33 617.355C1475.43 596.313 1537 539.437 1563.82 505.716C1606.46 452.193 1633.56 307.61 1582.8 295.025C1548.07 286.434 1565.43 345.608 1511.77 426.692V426.738C1488.62 460.643 1451.22 482.19 1410.24 485.269C1460.04 457.657 1492.8 410.797 1492.8 357.683C1492.7 335.815 1487.1 314.36 1476.58 295.202C1477.41 293.226 1478.28 291.251 1479.06 289.229V289.275C1500.19 231.985 1496.56 168.488 1469 114.057C1421.86 132.434 1382.31 166.156 1356.67 209.8C1347.44 207.641 1338.02 206.079 1328.55 205.16C1322.08 158.391 1301.54 114.7 1269.7 79.8799C1228.08 119.849 1202.95 173.969 1199.27 231.541C1150.85 259.336 1119.1 305.415 1119.1 357.703C1119.1 427.627 1175.84 486.57 1253.49 505.224L1253.44 505.361C1250.73 505.729 1145.94 518.868 1091.63 460.476C1033.05 397.489 1052.53 353.43 1014.13 358.163C975.672 362.895 1007.05 480.879 1053.54 522.455H1053.5C1093.28 558.566 1139.92 586.407 1190.63 604.232C1171.98 624.262 1152.18 643.145 1131.28 660.833C1092.5 643.558 1050.69 636.438 1017.98 659.546C1017.29 657.387 1016.6 655.182 1015.92 653.022C989.728 574.001 946.498 517.263 919.346 526.272C892.194 535.277 912.454 599.642 938.641 678.662C954.492 726.442 962.941 758.867 976.77 780.965Z" fill="black"/>
<circle cx="1356.33" cy="365.089" r="64.6866" fill="#D9D9D9"/>
<circle cx="1212.25" cy="332.745" r="64.6866" fill="#D9D9D9"/>
<path d="M1341.62 334.215C1348.81 334.215 1355.69 338.18 1360.94 345.332C1366.18 352.48 1369.56 362.57 1369.56 373.91C1369.56 385.249 1366.18 395.339 1360.94 402.488C1355.69 409.639 1348.81 413.604 1341.62 413.604C1334.44 413.604 1327.55 409.639 1322.31 402.488C1317.07 395.339 1313.69 385.249 1313.69 373.91C1313.69 362.57 1317.07 352.48 1322.31 345.332C1327.55 338.18 1334.44 334.215 1341.62 334.215Z" fill="#64A70B" stroke="black" stroke-width="8.8209"/>
<path d="M1200.49 301.872C1207.68 301.872 1214.56 305.836 1219.81 312.988C1225.05 320.137 1228.42 330.226 1228.42 341.566C1228.42 352.906 1225.05 362.995 1219.81 370.144C1214.56 377.295 1207.68 381.26 1200.49 381.26C1193.3 381.26 1186.42 377.296 1181.18 370.144C1175.94 362.995 1172.56 352.906 1172.56 341.566C1172.56 330.226 1175.94 320.137 1181.18 312.988C1186.42 305.836 1193.3 301.872 1200.49 301.872Z" fill="#64A70B" stroke="black" stroke-width="8.8209"/>
<path d="M1268.66 432.302C1265.81 434.263 1261.9 433.359 1260.2 430.35L1252.3 416.348C1249.78 411.895 1253.76 406.578 1258.74 407.728L1279.88 412.606C1284.86 413.756 1286.11 420.277 1281.9 423.178L1268.66 432.302Z" fill="#D9D9D9"/>
<path d="M1262.24 438.596C1251.23 453.059 1243.76 453.059 1243.76 453.059C1243.76 453.059 1231.67 455.966 1226.95 441.489" stroke="#908F8F" stroke-width="5.8806" stroke-linecap="round"/>
<path d="M1267.53 440.212C1276.88 457.057 1284.47 458.54 1284.47 458.54C1284.47 458.54 1296.39 463.887 1303.03 450.149" stroke="#908F8F" stroke-width="5.8806" stroke-linecap="round"/>
<path d="M1445.2 471.606C1449.11 470.761 1452.12 473.228 1453.43 475.584C1454.78 478.002 1455.26 481.849 1452.61 484.826C1439.3 499.757 1430.98 520.161 1431.3 544.388C1431.42 553.383 1434.71 564.269 1438.76 574.245C1442.77 584.121 1447.35 592.662 1449.71 596.835C1451.8 600.548 1450.35 605.296 1446.46 607.16L1415.08 622.222C1414.89 633.149 1414.21 674.706 1414.16 705.708C1414.15 709.659 1411.03 712.879 1407.1 713.037L1288.04 717.836C1284.89 717.963 1282.01 716.07 1280.88 713.13L1274.59 696.782C1274.09 695.482 1273.97 694.066 1274.24 692.701L1295.94 584.232L1296 583.943C1296.35 582.506 1297.12 581.205 1298.23 580.213L1406.27 482.838L1406.6 482.556C1407.39 481.923 1408.31 481.46 1409.29 481.197L1444.82 471.697L1445.2 471.606ZM1251.83 500.348C1254.46 500.442 1256.84 501.94 1258.07 504.273L1258.19 504.509L1293.7 578.385C1294.41 579.852 1294.61 581.511 1294.27 583.103L1271.21 691.184C1270.8 693.101 1269.64 694.775 1268 695.834L1250.1 707.339C1247.6 708.949 1244.37 708.89 1241.92 707.188L1154.56 646.33C1151.46 644.172 1150.51 640.011 1152.35 636.719L1153.37 634.918C1163.01 617.876 1170.11 608.173 1174.24 603.145L1137.66 584.856C1132.18 582.117 1132.33 574.489 1137.34 571.613L1138.46 570.959C1144.29 567.536 1153.14 561.764 1160.67 554.504C1168.65 546.802 1175.12 540.067 1178.72 533.061C1182.16 526.388 1183.01 519.459 1179.46 510.922C1177.55 506.324 1180.56 500.343 1186.34 500.343L1251.56 500.343L1251.83 500.348Z" fill="#FE5000" stroke="black" stroke-width="8.8209"/>
<path d="M1174.91 602.083C1176.53 599.94 1179.5 599.826 1181.34 601.4L1181.52 601.564L1185.06 604.937C1202.38 621.387 1214.45 631.659 1226.94 639.998C1240.26 648.892 1254.19 655.684 1275.78 665.375L1275.96 665.463C1277.78 666.38 1278.83 668.499 1278.24 670.618L1278.17 670.83L1276.72 675.184C1275.86 677.772 1273.04 678.821 1270.78 677.871C1248.83 668.613 1234.87 661.884 1221.04 652.567C1207.27 643.292 1193.74 631.533 1172.56 612.426C1171.01 611.024 1170.56 608.587 1171.84 606.664L1174.76 602.303L1174.91 602.083Z" fill="#D9D9D9" stroke="black" stroke-width="8.8209"/>
<path d="M1161.67 622.669C1163.3 620.5 1166.34 620.397 1168.18 622.046C1208.35 658.108 1221 666.453 1267.27 691.992C1269.69 693.328 1270.49 696.797 1268.27 699.019L1265.37 701.916C1263.93 703.358 1261.77 703.583 1260.1 702.675C1213.96 677.535 1196.29 665.538 1159.37 633.044C1157.76 631.63 1157.33 629.166 1158.61 627.247L1161.52 622.885L1161.67 622.669Z" fill="#D9D9D9" stroke="black" stroke-width="8.8209"/>
<path d="M1277.07 671.281L1275.6 677.161L1273.85 684.148L1280.87 682.528C1318.97 673.734 1371.47 661.505 1413.27 631.842L1415.13 630.524L1415.13 628.245L1415.13 619.425L1415.13 611.06L1408.23 615.785C1367.48 643.682 1324.3 656.332 1280.21 668.089L1277.7 668.758L1277.07 671.281Z" fill="#D9D9D9" stroke="black" stroke-width="8.8209"/>
<path d="M1275.6 699.213L1274.13 705.094L1272.46 711.778L1279.23 710.497C1306.46 705.345 1332.57 699.75 1355.52 692.478C1378.44 685.218 1398.52 676.19 1413.5 664.006L1415.13 662.682L1415.13 660.583L1415.13 653.237L1415.13 644.595L1408.13 649.667C1369.58 677.615 1330.83 682.627 1278.78 696.011L1276.24 696.665L1275.6 699.213Z" fill="#D9D9D9" stroke="black" stroke-width="8.8209"/>
<path d="M1436.18 613.078C1438.41 611.972 1439.19 609.314 1438.18 607.218L1438.08 607.01L1436.76 604.579C1423.35 579.599 1416.94 558.796 1417.13 539.574C1417.33 519.833 1424.49 501.195 1439.28 480.888C1441.5 477.834 1438.97 472.93 1434.64 474.012L1422.88 476.952C1421.8 477.222 1420.89 477.881 1420.3 478.764C1406.54 499.145 1400.06 518.299 1400.36 540.096C1400.65 561.689 1407.59 585.506 1419.88 615.229C1420.74 617.308 1423.25 618.648 1425.7 617.595L1435.95 613.184L1436.18 613.078Z" fill="#D9D9D9" stroke="black" stroke-width="8.8209"/>
<path d="M1194.61 504.864C1195.2 528.127 1195 536.813 1189.54 544.96C1186.72 549.167 1182.36 553.416 1175.29 559.25C1168.2 565.101 1158.91 572.139 1146.29 582.161L1141.32 586.115L1146.76 589.393L1154.1 593.807L1156.76 595.408L1159.16 593.444C1172.58 582.484 1182.54 573.986 1189.9 566.808C1197.25 559.63 1202.2 553.588 1205.41 547.498C1211.86 535.261 1210.81 523.454 1210.78 504.747L1210.78 500.346L1206.38 500.344L1199.02 500.342L1194.49 500.34L1194.61 504.864Z" fill="#D9D9D9" stroke="black" stroke-width="8.8209"/>
<mask id="mask0_2038_1536" style="mask-type:alpha" maskUnits="userSpaceOnUse" x="1083" y="102" width="310" height="206">
<path d="M1223 156.5C896.811 443.656 1242.15 228.34 1269.59 253.358C1353.68 274.646 1329.85 231.909 1381.31 175.473C1416.74 136.61 1358.44 139.519 1331 114.501C1303.56 89.482 1269.03 106.012 1223 156.5Z" fill="#D9D9D9"/>
</mask>
<g mask="url(#mask0_2038_1536)">
<path d="M1239.68 172.557C1237.58 177.421 1235.69 179.921 1232.89 190.208C1239.44 201.618 1256.8 209.756 1267.81 203.446C1278.82 197.137 1282.44 182.772 1275.89 171.362C1269.35 159.952 1250.69 166.248 1239.68 172.557Z" fill="#FFCD00"/>
<path d="M1314.38 127.949C1335.52 130.146 1354.98 140.443 1368.69 156.68C1382.41 172.925 1389.29 193.852 1387.91 215.068L1387.79 216.907L1388.95 218.338L1399.8 231.71L1399.8 231.711C1400.19 232.194 1400.43 232.781 1400.49 233.4C1400.55 234.018 1400.43 234.64 1400.13 235.189L1400.13 235.19C1399.84 235.739 1399.4 236.19 1398.85 236.487C1398.3 236.784 1397.68 236.915 1397.06 236.861L1349.21 232.709L1332.29 231.24L1346.05 241.206L1365.51 255.306C1365.85 255.551 1366.13 255.859 1366.34 256.212C1366.56 256.568 1366.71 256.965 1366.77 257.377C1366.84 257.79 1366.82 258.213 1366.72 258.619C1366.62 259.025 1366.45 259.408 1366.2 259.746C1365.95 260.084 1365.64 260.371 1365.29 260.589C1364.93 260.807 1364.53 260.952 1364.12 261.017C1363.71 261.082 1363.29 261.064 1362.88 260.966C1362.47 260.868 1362.09 260.691 1361.75 260.445L1361.74 260.437L1324.58 233.535L1324.57 233.53L1324.56 233.526L1324.43 233.427C1324.14 233.189 1323.89 232.897 1323.7 232.566L1322.48 230.425L1320.02 230.211L1284.51 227.124L1284.51 227.124C1257.7 224.756 1197.39 226.361 1193.06 226.482L1192.54 226.448C1191.85 226.402 1191.19 226.13 1190.66 225.674C1190.14 225.218 1189.78 224.602 1189.64 223.923C1189.51 223.243 1189.59 222.536 1189.89 221.911C1190.2 221.286 1190.69 220.777 1191.31 220.463L1224.57 203.595L1226.77 202.478L1227.1 200.032C1227.6 196.366 1228.33 192.737 1229.29 189.167L1258.88 191.115C1262.21 191.334 1265.49 190.221 1267.99 188.023C1270.5 185.825 1272.03 182.72 1272.25 179.392C1272.47 176.063 1271.36 172.785 1269.16 170.276C1266.96 167.768 1263.86 166.236 1260.53 166.016L1240.29 164.684C1244.49 158.281 1249.55 152.474 1255.35 147.437L1255.37 147.42C1263.4 140.366 1272.77 135.006 1282.92 131.661C1293.05 128.322 1303.75 127.06 1314.38 127.949Z" fill="#FFCD00" stroke="black" stroke-width="9.40896"/>
</g>
<ellipse cx="1259.54" cy="180.9" rx="44.2406" ry="21.1846" transform="rotate(122.101 1259.54 180.9)" fill="#FFCD00"/>
<rect x="1261.29" y="168.089" width="52.9254" height="38.2239" rx="5.8806" transform="rotate(2.99777 1261.29 168.089)" fill="black"/>
<line x1="1270.99" y1="182.944" x2="1303.29" y2="184.635" stroke="#FBFF00" stroke-width="2.9403"/>
<line x1="1270.38" y1="194.689" x2="1302.68" y2="196.381" stroke="#ED1818" stroke-width="2.9403"/>
<path d="M1198 1130.23L1114.34 1107.84L1136.78 1191.48L1198 1130.23ZM524 1311.01L525.943 1318.25L1134.75 1154.96L1132.8 1147.72L1130.86 1140.47L522.057 1303.76L524 1311.01Z" fill="#ED1818"/>
<path d="M1432 976.232L1483.64 1045.76L1518.03 966.277L1432 976.232ZM1926 1190L1928.98 1183.12L1496.93 996.156L1493.95 1003.04L1490.97 1009.92L1923.02 1196.88L1926 1190Z" fill="#ED1818"/>
<path d="M1671 604.232L1743.26 556.496L1665.79 517.786L1671 604.232ZM1851 244L1844.29 240.648L1694.46 540.498L1701.17 543.85L1707.88 547.203L1857.71 247.352L1851 244Z" fill="#ED1818"/>
<path d="M1091 300.232L1017.47 254.471L1014.61 341.026L1091 300.232ZM571 283.005L570.752 290.501L1023.29 305.493L1023.54 297.997L1023.79 290.501L571.248 275.509L571 283.005Z" fill="#ED1818"/>
<path d="M1936.59 391.557L1942.09 397.051C1936.35 402.627 1928.89 406.071 1920.19 406.071C1902.97 406.071 1888.62 392.377 1888.62 374.665C1888.62 357.281 1902.48 343.341 1920.28 343.341C1929.21 343.341 1937.17 346.867 1942.99 352.853L1937 358.101C1932.66 353.509 1926.75 350.967 1920.44 350.967C1907.32 350.967 1896.99 362.119 1896.99 374.747C1896.99 387.621 1907.65 398.445 1920.19 398.445C1926.59 398.445 1932.41 395.657 1936.59 391.557ZM1977.99 386.965V366.055H1985.86V389.179C1985.86 401.397 1979.06 406.071 1968.15 406.071C1957.25 406.071 1950.44 401.397 1950.44 389.179V366.055H1958.39V386.965C1958.39 394.263 1960.12 398.691 1968.15 398.691C1976.27 398.691 1977.99 394.263 1977.99 386.965ZM2006.22 405.005H1998.34V366.055H2006.22V370.729C2009.99 366.219 2013.84 365.317 2021.39 365.317V372.861C2008.51 372.861 2006.22 378.109 2006.22 384.833V405.005ZM2037.29 405.005H2029.33V366.055H2037.29V405.005ZM2033.35 358.347C2030.48 358.347 2028.27 356.133 2028.27 353.263C2028.27 350.393 2030.48 348.179 2033.35 348.179C2036.22 348.179 2038.35 350.393 2038.35 353.263C2038.35 356.133 2036.22 358.347 2033.35 358.347ZM2088.11 385.735C2088.11 396.887 2078.85 406.071 2067.53 406.071C2056.3 406.071 2047.11 396.969 2047.11 385.735C2047.11 374.583 2056.13 365.317 2067.53 365.317C2078.85 365.317 2088.11 374.501 2088.11 385.735ZM2080.32 385.653C2080.32 378.601 2074.67 372.779 2067.61 372.779C2060.32 372.779 2054.9 378.929 2054.9 385.817C2054.9 392.787 2060.48 398.691 2067.61 398.691C2074.83 398.691 2080.32 392.623 2080.32 385.653ZM2124.77 386.965V366.055H2132.65V389.179C2132.65 401.397 2125.84 406.071 2114.93 406.071C2104.03 406.071 2097.22 401.397 2097.22 389.179V366.055H2105.18V386.965C2105.18 394.263 2106.9 398.691 2114.93 398.691C2123.05 398.691 2124.77 394.263 2124.77 386.965ZM2141.27 400.987L2145.54 394.919C2149.47 398.117 2153.65 398.937 2156.44 398.937C2160.62 398.937 2162.92 397.133 2162.92 394.509C2162.92 386.801 2142.67 391.557 2142.67 377.535C2142.67 370.401 2147.91 365.317 2156.03 365.317C2159.31 365.317 2164.81 366.137 2169.23 369.745L2165.05 375.567C2161.61 373.025 2158.16 372.533 2156.11 372.533C2152.18 372.533 2150.46 374.501 2150.46 376.633C2150.46 384.013 2170.63 379.995 2170.63 394.017C2170.63 401.479 2164.97 406.071 2156.2 406.071C2150.37 406.071 2145.29 404.021 2141.27 400.987ZM2240.91 405.005H2233.04V400.413C2229.76 404.267 2225.25 406.071 2220 406.071C2208.44 406.071 2199.42 397.133 2199.42 385.735C2199.42 374.173 2208.61 365.317 2220 365.317C2225.25 365.317 2229.68 367.203 2233.04 371.057V366.055H2240.91V405.005ZM2232.88 385.735C2232.88 378.683 2227.38 372.779 2220 372.779C2212.71 372.779 2207.21 378.519 2207.21 385.735C2207.21 393.033 2212.71 398.691 2220 398.691C2227.47 398.691 2232.88 392.787 2232.88 385.735ZM2289.29 405.005H2281.34V384.587C2281.34 376.797 2278.3 372.779 2271.83 372.779C2265.1 372.779 2261.9 377.125 2261.9 385.161V405.005H2254.03V366.055H2261.9V370.237C2264.53 367.285 2267.73 365.317 2273.22 365.317C2282.49 365.317 2289.29 370.729 2289.29 382.947V405.005ZM2339.81 405.005H2331.94V400.413C2328.66 404.267 2324.15 406.071 2318.9 406.071C2307.34 406.071 2298.32 397.133 2298.32 385.735C2298.32 374.173 2307.5 365.317 2318.9 365.317C2324.15 365.317 2328.58 367.203 2331.94 371.057V344.325H2339.81V405.005ZM2331.78 385.735C2331.78 378.683 2326.28 372.779 2318.9 372.779C2311.6 372.779 2306.11 378.519 2306.11 385.735C2306.11 393.033 2311.6 398.691 2318.9 398.691C2326.36 398.691 2331.78 392.787 2331.78 385.735ZM2411.44 388.359H2379.54C2380.61 394.345 2385.53 398.937 2392.17 398.937C2396.43 398.937 2400.61 397.051 2403.07 393.607L2408.65 397.871C2405.04 402.955 2398.89 406.071 2392.17 406.071C2380.85 406.071 2371.75 397.215 2371.75 385.735C2371.75 374.829 2380.03 365.317 2391.68 365.317C2403.24 365.317 2411.6 374.747 2411.6 385.653C2411.6 386.719 2411.52 387.539 2411.44 388.359ZM2379.79 382.127H2403.57C2402.66 376.715 2397.91 372.533 2391.76 372.533C2385.69 372.533 2381.18 376.633 2379.79 382.127ZM2459.45 405.005H2451.58V400.413C2448.3 404.267 2443.79 406.071 2438.54 406.071C2426.98 406.071 2417.96 397.133 2417.96 385.735C2417.96 374.173 2427.14 365.317 2438.54 365.317C2443.79 365.317 2448.21 367.203 2451.58 371.057V366.055H2459.45V405.005ZM2451.41 385.735C2451.41 378.683 2445.92 372.779 2438.54 372.779C2431.24 372.779 2425.75 378.519 2425.75 385.735C2425.75 393.033 2431.24 398.691 2438.54 398.691C2446 398.691 2451.41 392.787 2451.41 385.735ZM2502.91 403.201V400.413C2499.63 404.267 2495.12 406.071 2489.87 406.071C2478.31 406.071 2469.29 397.133 2469.29 385.735C2469.29 374.173 2478.47 365.317 2489.87 365.317C2495.12 365.317 2499.54 367.203 2502.91 371.057V366.055H2510.78V401.807C2510.78 421.323 2498.89 425.751 2490.11 425.751C2482.24 425.751 2475.93 422.143 2472.24 416.239L2479.54 413.123C2481.83 416.403 2485.11 418.371 2490.03 418.371C2496.76 418.371 2502.91 414.681 2502.91 403.201ZM2502.74 385.735C2502.74 378.683 2497.25 372.779 2489.87 372.779C2482.57 372.779 2477.08 378.519 2477.08 385.735C2477.08 393.033 2482.57 398.691 2489.87 398.691C2497.33 398.691 2502.74 392.787 2502.74 385.735ZM2560.3 388.359H2528.41C2529.47 394.345 2534.39 398.937 2541.03 398.937C2545.3 398.937 2549.48 397.051 2551.94 393.607L2557.52 397.871C2553.91 402.955 2547.76 406.071 2541.03 406.071C2529.72 406.071 2520.62 397.215 2520.62 385.735C2520.62 374.829 2528.9 365.317 2540.54 365.317C2552.1 365.317 2560.47 374.747 2560.47 385.653C2560.47 386.719 2560.39 387.539 2560.3 388.359ZM2528.65 382.127H2552.43C2551.53 376.715 2546.77 372.533 2540.62 372.533C2534.56 372.533 2530.05 376.633 2528.65 382.127ZM2577.97 405.005H2570.1V366.055H2577.97V370.729C2581.75 366.219 2585.6 365.317 2593.14 365.317V372.861C2580.27 372.861 2577.97 378.109 2577.97 384.833V405.005ZM1910.61 485.117V492.169C1909.79 492.497 1907.33 493.071 1904.46 493.071C1894.87 493.071 1893.14 486.757 1893.14 480.033V460.517H1886.99V453.055H1893.14V439.853H1901.1V453.055H1911.68V460.517H1901.1V479.131C1901.1 483.559 1902.08 485.691 1906.26 485.691C1907.66 485.691 1909.79 485.445 1910.61 485.117ZM1958.55 472.735C1958.55 483.887 1949.28 493.071 1937.97 493.071C1926.73 493.071 1917.55 483.969 1917.55 472.735C1917.55 461.583 1926.57 452.317 1937.97 452.317C1949.28 452.317 1958.55 461.501 1958.55 472.735ZM1950.76 472.653C1950.76 465.601 1945.1 459.779 1938.05 459.779C1930.75 459.779 1925.34 465.929 1925.34 472.817C1925.34 479.787 1930.91 485.691 1938.05 485.691C1945.26 485.691 1950.76 479.623 1950.76 472.653ZM2008.14 485.117V492.169C2007.32 492.497 2004.86 493.071 2001.99 493.071C1992.4 493.071 1990.68 486.757 1990.68 480.033V460.517H1984.53V453.055H1990.68V439.853H1998.63V453.055H2009.21V460.517H1998.63V479.131C1998.63 483.559 1999.62 485.691 2003.8 485.691C2005.19 485.691 2007.32 485.445 2008.14 485.117ZM2026.23 492.005H2018.36V453.055H2026.23V457.729C2030.01 453.219 2033.86 452.317 2041.4 452.317V459.861C2028.53 459.861 2026.23 465.109 2026.23 471.833V492.005ZM2060.18 512.751H2052.39L2059.52 492.743L2043.61 453.055H2052.22L2063.37 482.329L2073.87 453.055H2081.74L2060.18 512.751ZM2146.51 492.005H2138.56V471.587C2138.56 463.797 2135.53 459.779 2129.05 459.779C2122.32 459.779 2119.13 464.125 2119.13 472.161V492.005H2111.25V453.055H2119.13V457.237C2121.75 454.285 2124.95 452.317 2130.44 452.317C2139.71 452.317 2146.51 457.729 2146.51 469.947V492.005ZM2195.23 475.359H2163.33C2164.4 481.345 2169.32 485.937 2175.96 485.937C2180.22 485.937 2184.4 484.051 2186.86 480.607L2192.44 484.871C2188.83 489.955 2182.68 493.071 2175.96 493.071C2164.64 493.071 2155.54 484.215 2155.54 472.735C2155.54 461.829 2163.82 452.317 2175.47 452.317C2187.03 452.317 2195.39 461.747 2195.39 472.653C2195.39 473.719 2195.31 474.539 2195.23 475.359ZM2163.58 469.127H2187.36C2186.45 463.715 2181.7 459.533 2175.55 459.533C2169.48 459.533 2164.97 463.633 2163.58 469.127ZM2250.04 492.005H2241.84L2232 463.961L2222.24 492.005H2213.88L2199.28 453.055H2207.98L2218.06 481.755L2228.31 453.055H2235.61L2245.86 481.755L2255.95 453.055H2264.72L2250.04 492.005ZM2311.88 485.117V492.169C2311.06 492.497 2308.6 493.071 2305.73 493.071C2296.14 493.071 2294.42 486.757 2294.42 480.033V460.517H2288.27V453.055H2294.42V439.853H2302.37V453.055H2312.95V460.517H2302.37V479.131C2302.37 483.559 2303.35 485.691 2307.54 485.691C2308.93 485.691 2311.06 485.445 2311.88 485.117ZM2357.36 492.005H2349.41V471.587C2349.41 463.797 2346.37 459.779 2339.89 459.779C2333.17 459.779 2329.97 464.125 2329.97 472.161V492.005H2322.1V431.325H2329.97V457.237C2332.6 454.285 2335.79 452.317 2341.29 452.317C2350.55 452.317 2357.36 457.729 2357.36 469.947V492.005ZM2377.62 492.005H2369.67V453.055H2377.62V492.005ZM2373.68 445.347C2370.81 445.347 2368.6 443.133 2368.6 440.263C2368.6 437.393 2370.81 435.179 2373.68 435.179C2376.55 435.179 2378.69 437.393 2378.69 440.263C2378.69 443.133 2376.55 445.347 2373.68 445.347ZM2425.99 492.005H2418.03V471.587C2418.03 463.797 2415 459.779 2408.52 459.779C2401.8 459.779 2398.6 464.125 2398.6 472.161V492.005H2390.73V453.055H2398.6V457.237C2401.22 454.285 2404.42 452.317 2409.91 452.317C2419.18 452.317 2425.99 457.729 2425.99 469.947V492.005ZM2468.63 490.201V487.413C2465.35 491.267 2460.84 493.071 2455.59 493.071C2444.03 493.071 2435.01 484.133 2435.01 472.735C2435.01 461.173 2444.2 452.317 2455.59 452.317C2460.84 452.317 2465.27 454.203 2468.63 458.057V453.055H2476.5V488.807C2476.5 508.323 2464.61 512.751 2455.84 512.751C2447.97 512.751 2441.65 509.143 2437.96 503.239L2445.26 500.123C2447.56 503.403 2450.84 505.371 2455.76 505.371C2462.48 505.371 2468.63 501.681 2468.63 490.201ZM2468.47 472.735C2468.47 465.683 2462.97 459.779 2455.59 459.779C2448.3 459.779 2442.8 465.519 2442.8 472.735C2442.8 480.033 2448.3 485.691 2455.59 485.691C2463.06 485.691 2468.47 479.787 2468.47 472.735ZM2485.77 487.987L2490.03 481.919C2493.97 485.117 2498.15 485.937 2500.94 485.937C2505.12 485.937 2507.42 484.133 2507.42 481.509C2507.42 473.801 2487.16 478.557 2487.16 464.535C2487.16 457.401 2492.41 452.317 2500.53 452.317C2503.81 452.317 2509.3 453.137 2513.73 456.745L2509.55 462.567C2506.1 460.025 2502.66 459.533 2500.61 459.533C2496.67 459.533 2494.95 461.501 2494.95 463.633C2494.95 471.013 2515.12 466.995 2515.12 481.017C2515.12 488.479 2509.47 493.071 2500.69 493.071C2494.87 493.071 2489.79 491.021 2485.77 487.987ZM2531.82 492.497C2528.95 492.497 2526.74 490.283 2526.74 487.413C2526.74 484.543 2528.95 482.411 2531.82 482.411C2534.69 482.411 2536.82 484.543 2536.82 487.413C2536.82 490.283 2534.69 492.497 2531.82 492.497Z" fill="black"/>
<path d="M1976.33 1414H1967.97V1353.32H1986.42C1999.46 1353.32 2008.07 1360.04 2008.07 1372.92C2008.07 1385.22 2000.2 1392.52 1986.42 1392.52H1976.33V1414ZM1976.33 1384.56H1986.26C1994.21 1384.56 1999.7 1381.12 1999.7 1373C1999.7 1365.54 1995.19 1361.27 1986.26 1361.27H1976.33V1384.56ZM2025.16 1414H2017.29V1375.05H2025.16V1379.72C2028.93 1375.21 2032.79 1374.31 2040.33 1374.31V1381.86C2027.46 1381.86 2025.16 1387.1 2025.16 1393.83V1414ZM2084.69 1397.35H2052.79C2053.85 1403.34 2058.77 1407.93 2065.42 1407.93C2069.68 1407.93 2073.86 1406.05 2076.32 1402.6L2081.9 1406.87C2078.29 1411.95 2072.14 1415.07 2065.42 1415.07C2054.1 1415.07 2045 1406.21 2045 1394.73C2045 1383.82 2053.28 1374.31 2064.92 1374.31C2076.49 1374.31 2084.85 1383.74 2084.85 1394.65C2084.85 1395.71 2084.77 1396.53 2084.69 1397.35ZM2053.03 1391.12H2076.81C2075.91 1385.71 2071.16 1381.53 2065.01 1381.53C2058.94 1381.53 2054.43 1385.63 2053.03 1391.12ZM2103.01 1414H2095.06V1382.51H2089.32V1375.05H2095.06V1366.03C2095.06 1358.57 2098.5 1353.32 2107.03 1353.32C2109.16 1353.32 2111.62 1353.65 2113.51 1354.22V1361.27C2112.69 1361.03 2110.47 1360.7 2108.83 1360.7C2104.65 1360.7 2103.01 1362.67 2103.01 1368.65V1375.05H2112.69V1382.51H2103.01V1414ZM2158.12 1397.35H2126.22C2127.29 1403.34 2132.21 1407.93 2138.85 1407.93C2143.11 1407.93 2147.29 1406.05 2149.75 1402.6L2155.33 1406.87C2151.72 1411.95 2145.57 1415.07 2138.85 1415.07C2127.53 1415.07 2118.43 1406.21 2118.43 1394.73C2118.43 1383.82 2126.71 1374.31 2138.36 1374.31C2149.92 1374.31 2158.28 1383.74 2158.28 1394.65C2158.28 1395.71 2158.2 1396.53 2158.12 1397.35ZM2126.47 1391.12H2150.25C2149.34 1385.71 2144.59 1381.53 2138.44 1381.53C2132.37 1381.53 2127.86 1385.63 2126.47 1391.12ZM2175.79 1414H2167.92V1375.05H2175.79V1379.72C2179.56 1375.21 2183.41 1374.31 2190.96 1374.31V1381.86C2178.08 1381.86 2175.79 1387.1 2175.79 1393.83V1414ZM2194.65 1409.98L2198.92 1403.91C2202.85 1407.11 2207.03 1407.93 2209.82 1407.93C2214 1407.93 2216.3 1406.13 2216.3 1403.5C2216.3 1395.8 2196.05 1400.55 2196.05 1386.53C2196.05 1379.4 2201.29 1374.31 2209.41 1374.31C2212.69 1374.31 2218.19 1375.13 2222.61 1378.74L2218.43 1384.56C2214.99 1382.02 2211.54 1381.53 2209.49 1381.53C2205.56 1381.53 2203.84 1383.5 2203.84 1385.63C2203.84 1393.01 2224.01 1388.99 2224.01 1403.01C2224.01 1410.47 2218.35 1415.07 2209.58 1415.07C2203.75 1415.07 2198.67 1413.02 2194.65 1409.98ZM2291.34 1414H2283.39V1393.58C2283.39 1385.79 2280.35 1381.77 2273.88 1381.77C2267.15 1381.77 2263.95 1386.12 2263.95 1394.16V1414H2256.08V1353.32H2263.95V1379.23C2266.58 1376.28 2269.78 1374.31 2275.27 1374.31C2284.54 1374.31 2291.34 1379.72 2291.34 1391.94V1414ZM2341.86 1414H2333.99V1409.41C2330.71 1413.26 2326.2 1415.07 2320.95 1415.07C2309.39 1415.07 2300.37 1406.13 2300.37 1394.73C2300.37 1383.17 2309.55 1374.31 2320.95 1374.31C2326.2 1374.31 2330.63 1376.2 2333.99 1380.05V1375.05H2341.86V1414ZM2333.82 1394.73C2333.82 1387.68 2328.33 1381.77 2320.95 1381.77C2313.65 1381.77 2308.16 1387.51 2308.16 1394.73C2308.16 1402.03 2313.65 1407.69 2320.95 1407.69C2328.41 1407.69 2333.82 1401.78 2333.82 1394.73ZM2390.24 1414H2382.28V1393.58C2382.28 1385.79 2379.25 1381.77 2372.77 1381.77C2366.05 1381.77 2362.85 1386.12 2362.85 1394.16V1414H2354.98V1375.05H2362.85V1379.23C2365.47 1376.28 2368.67 1374.31 2374.17 1374.31C2383.43 1374.31 2390.24 1379.72 2390.24 1391.94V1414ZM2440.76 1414H2432.88V1409.41C2429.6 1413.26 2425.09 1415.07 2419.85 1415.07C2408.28 1415.07 2399.26 1406.13 2399.26 1394.73C2399.26 1383.17 2408.45 1374.31 2419.85 1374.31C2425.09 1374.31 2429.52 1376.2 2432.88 1380.05V1353.32H2440.76V1414ZM2432.72 1394.73C2432.72 1387.68 2427.23 1381.77 2419.85 1381.77C2412.55 1381.77 2407.05 1387.51 2407.05 1394.73C2407.05 1402.03 2412.55 1407.69 2419.85 1407.69C2427.31 1407.69 2432.72 1401.78 2432.72 1394.73ZM2450.02 1409.98L2454.28 1403.91C2458.22 1407.11 2462.4 1407.93 2465.19 1407.93C2469.37 1407.93 2471.67 1406.13 2471.67 1403.5C2471.67 1395.8 2451.41 1400.55 2451.41 1386.53C2451.41 1379.4 2456.66 1374.31 2464.78 1374.31C2468.06 1374.31 2473.55 1375.13 2477.98 1378.74L2473.8 1384.56C2470.36 1382.02 2466.91 1381.53 2464.86 1381.53C2460.93 1381.53 2459.2 1383.5 2459.2 1385.63C2459.2 1393.01 2479.38 1388.99 2479.38 1403.01C2479.38 1410.47 2473.72 1415.07 2464.94 1415.07C2459.12 1415.07 2454.04 1413.02 2450.02 1409.98ZM2511.65 1395.63H2488.12V1388.09H2511.65V1395.63ZM2561.26 1394.73C2561.26 1405.88 2552 1415.07 2540.68 1415.07C2529.45 1415.07 2520.26 1405.96 2520.26 1394.73C2520.26 1383.58 2529.28 1374.31 2540.68 1374.31C2552 1374.31 2561.26 1383.5 2561.26 1394.73ZM2553.47 1394.65C2553.47 1387.6 2547.81 1381.77 2540.76 1381.77C2533.46 1381.77 2528.05 1387.92 2528.05 1394.81C2528.05 1401.78 2533.63 1407.69 2540.76 1407.69C2547.98 1407.69 2553.47 1401.62 2553.47 1394.65ZM2606.37 1414H2598.41V1393.58C2598.41 1385.79 2595.38 1381.77 2588.9 1381.77C2582.18 1381.77 2578.98 1386.12 2578.98 1394.16V1414H2571.11V1375.05H2578.98V1379.23C2581.6 1376.28 2584.8 1374.31 2590.3 1374.31C2599.56 1374.31 2606.37 1379.72 2606.37 1391.94V1414ZM2003.97 1484.35H1972.07C1973.14 1490.34 1978.06 1494.93 1984.7 1494.93C1988.96 1494.93 1993.14 1493.05 1995.6 1489.6L2001.18 1493.87C1997.57 1498.95 1991.42 1502.07 1984.7 1502.07C1973.38 1502.07 1964.28 1493.21 1964.28 1481.73C1964.28 1470.82 1972.56 1461.31 1984.21 1461.31C1995.77 1461.31 2004.13 1470.74 2004.13 1481.65C2004.13 1482.71 2004.05 1483.53 2003.97 1484.35ZM1972.32 1478.12H1996.1C1995.19 1472.71 1990.44 1468.53 1984.29 1468.53C1978.22 1468.53 1973.71 1472.63 1972.32 1478.12ZM2043.8 1501H2035.02L2025.51 1486.9L2016 1501H2007.22L2021.08 1480.5L2008.45 1462.05H2017.31L2025.51 1474.1L2033.71 1462.05H2042.57L2029.94 1480.5L2043.8 1501ZM2059.03 1521.75H2051.16V1462.05H2059.03V1467.05C2062.31 1463.2 2066.82 1461.31 2072.07 1461.31C2083.47 1461.31 2092.65 1470.17 2092.65 1481.73C2092.65 1493.13 2083.63 1502.07 2072.07 1502.07C2066.82 1502.07 2062.31 1500.26 2059.03 1496.41V1521.75ZM2059.28 1481.73C2059.28 1488.78 2064.45 1494.69 2071.99 1494.69C2079.37 1494.69 2084.86 1489.03 2084.86 1481.73C2084.86 1474.51 2079.37 1468.77 2072.07 1468.77C2064.77 1468.77 2059.28 1474.51 2059.28 1481.73ZM2138.9 1484.35H2107C2108.07 1490.34 2112.99 1494.93 2119.63 1494.93C2123.89 1494.93 2128.08 1493.05 2130.54 1489.6L2136.11 1493.87C2132.5 1498.95 2126.35 1502.07 2119.63 1502.07C2108.31 1502.07 2099.21 1493.21 2099.21 1481.73C2099.21 1470.82 2107.49 1461.31 2119.14 1461.31C2130.7 1461.31 2139.06 1470.74 2139.06 1481.65C2139.06 1482.71 2138.98 1483.53 2138.9 1484.35ZM2107.25 1478.12H2131.03C2130.13 1472.71 2125.37 1468.53 2119.22 1468.53C2113.15 1468.53 2108.64 1472.63 2107.25 1478.12ZM2156.57 1501H2148.7V1462.05H2156.57V1466.72C2160.34 1462.21 2164.19 1461.31 2171.74 1461.31V1468.86C2158.86 1468.86 2156.57 1474.1 2156.57 1480.83V1501ZM2187.64 1501H2179.69V1462.05H2187.64V1501ZM2183.7 1454.34C2180.83 1454.34 2178.62 1452.13 2178.62 1449.26C2178.62 1446.39 2180.83 1444.17 2183.7 1444.17C2186.57 1444.17 2188.71 1446.39 2188.71 1449.26C2188.71 1452.13 2186.57 1454.34 2183.7 1454.34ZM2259.21 1501H2251.34V1480.58C2251.34 1472.87 2249.37 1468.77 2243.31 1468.77C2237.16 1468.77 2233.96 1472.87 2233.96 1481.16V1501H2226V1480.58C2226 1472.79 2224.04 1468.77 2217.97 1468.77C2211.82 1468.77 2208.62 1472.96 2208.62 1481.16V1501H2200.75V1462.05H2208.62V1466.23C2211.57 1462.95 2214.61 1461.31 2219.28 1461.31C2224.61 1461.31 2229.37 1463.44 2231.74 1468.53C2235.52 1462.79 2240.19 1461.31 2244.7 1461.31C2253.39 1461.31 2259.21 1466.72 2259.21 1478.94V1501ZM2307.94 1484.35H2276.05C2277.11 1490.34 2282.03 1494.93 2288.67 1494.93C2292.94 1494.93 2297.12 1493.05 2299.58 1489.6L2305.16 1493.87C2301.55 1498.95 2295.4 1502.07 2288.67 1502.07C2277.36 1502.07 2268.26 1493.21 2268.26 1481.73C2268.26 1470.82 2276.54 1461.31 2288.18 1461.31C2299.74 1461.31 2308.11 1470.74 2308.11 1481.65C2308.11 1482.71 2308.03 1483.53 2307.94 1484.35ZM2276.29 1478.12H2300.07C2299.17 1472.71 2294.41 1468.53 2288.26 1468.53C2282.2 1468.53 2277.69 1472.63 2276.29 1478.12ZM2353 1501H2345.05V1480.58C2345.05 1472.79 2342.01 1468.77 2335.54 1468.77C2328.81 1468.77 2325.61 1473.12 2325.61 1481.16V1501H2317.74V1462.05H2325.61V1466.23C2328.24 1463.28 2331.44 1461.31 2336.93 1461.31C2346.2 1461.31 2353 1466.72 2353 1478.94V1501ZM2383.76 1494.11V1501.16C2382.94 1501.49 2380.48 1502.07 2377.61 1502.07C2368.01 1502.07 2366.29 1495.75 2366.29 1489.03V1469.51H2360.14V1462.05H2366.29V1448.85H2374.25V1462.05H2384.82V1469.51H2374.25V1488.13C2374.25 1492.55 2375.23 1494.69 2379.41 1494.69C2380.81 1494.69 2382.94 1494.44 2383.76 1494.11ZM2430.99 1501H2423.11V1496.41C2419.83 1500.26 2415.32 1502.07 2410.08 1502.07C2398.51 1502.07 2389.49 1493.13 2389.49 1481.73C2389.49 1470.17 2398.68 1461.31 2410.08 1461.31C2415.32 1461.31 2419.75 1463.2 2423.11 1467.05V1462.05H2430.99V1501ZM2422.95 1481.73C2422.95 1474.68 2417.46 1468.77 2410.08 1468.77C2402.78 1468.77 2397.28 1474.51 2397.28 1481.73C2397.28 1489.03 2402.78 1494.69 2410.08 1494.69C2417.54 1494.69 2422.95 1488.78 2422.95 1481.73ZM2462.55 1494.11V1501.16C2461.73 1501.49 2459.27 1502.07 2456.4 1502.07C2446.81 1502.07 2445.09 1495.75 2445.09 1489.03V1469.51H2438.94V1462.05H2445.09V1448.85H2453.04V1462.05H2463.62V1469.51H2453.04V1488.13C2453.04 1492.55 2454.03 1494.69 2458.21 1494.69C2459.6 1494.69 2461.73 1494.44 2462.55 1494.11ZM2480.73 1501H2472.77V1462.05H2480.73V1501ZM2476.79 1454.34C2473.92 1454.34 2471.71 1452.13 2471.71 1449.26C2471.71 1446.39 2473.92 1444.17 2476.79 1444.17C2479.66 1444.17 2481.79 1446.39 2481.79 1449.26C2481.79 1452.13 2479.66 1454.34 2476.79 1454.34ZM2531.55 1481.73C2531.55 1492.88 2522.29 1502.07 2510.97 1502.07C2499.74 1502.07 2490.55 1492.96 2490.55 1481.73C2490.55 1470.58 2499.57 1461.31 2510.97 1461.31C2522.29 1461.31 2531.55 1470.5 2531.55 1481.73ZM2523.76 1481.65C2523.76 1474.6 2518.11 1468.77 2511.05 1468.77C2503.76 1468.77 2498.34 1474.92 2498.34 1481.81C2498.34 1488.78 2503.92 1494.69 2511.05 1494.69C2518.27 1494.69 2523.76 1488.62 2523.76 1481.65ZM2576.66 1501H2568.71V1480.58C2568.71 1472.79 2565.67 1468.77 2559.19 1468.77C2552.47 1468.77 2549.27 1473.12 2549.27 1481.16V1501H2541.4V1462.05H2549.27V1466.23C2551.9 1463.28 2555.09 1461.31 2560.59 1461.31C2569.85 1461.31 2576.66 1466.72 2576.66 1478.94V1501ZM2595.69 1501.49C2592.82 1501.49 2590.61 1499.28 2590.61 1496.41C2590.61 1493.54 2592.82 1491.41 2595.69 1491.41C2598.56 1491.41 2600.69 1493.54 2600.69 1496.41C2600.69 1499.28 2598.56 1501.49 2595.69 1501.49Z" fill="black"/>
<path d="M22.64 418.821L27.888 412.999C31.25 417.181 35.678 421.445 42.32 421.445C49.29 421.445 53.636 416.689 53.636 411.359C53.636 397.993 25.674 403.077 25.674 383.233C25.674 373.393 32.644 366.259 44.534 366.259C50.11 366.259 55.194 367.817 60.278 371.999L55.604 378.395C52.242 375.443 48.47 373.967 44.206 373.967C37.646 373.967 34.038 377.411 34.038 382.331C34.038 396.107 62 390.203 62 410.785C62 421.691 54.046 429.071 42.566 429.071C34.694 429.071 27.314 425.545 22.64 418.821ZM106.943 428.005H98.989V407.587C98.989 399.797 95.955 395.779 89.477 395.779C82.753 395.779 79.555 400.125 79.555 408.161V428.005H71.683V367.325H79.555V393.237C82.179 390.285 85.377 388.317 90.871 388.317C100.137 388.317 106.943 393.729 106.943 405.947V428.005ZM157.461 428.005H149.589V423.413C146.309 427.267 141.799 429.071 136.551 429.071C124.989 429.071 115.969 420.133 115.969 408.735C115.969 397.173 125.153 388.317 136.551 388.317C141.799 388.317 146.227 390.203 149.589 394.057V389.055H157.461V428.005ZM149.425 408.735C149.425 401.683 143.931 395.779 136.551 395.779C129.253 395.779 123.759 401.519 123.759 408.735C123.759 416.033 129.253 421.691 136.551 421.691C144.013 421.691 149.425 415.787 149.425 408.735ZM178.452 428.005H170.58V389.055H178.452V393.729C182.224 389.219 186.078 388.317 193.622 388.317V395.861C180.748 395.861 178.452 401.109 178.452 407.833V428.005ZM209.442 448.751H201.57V389.055H209.442V394.057C212.722 390.203 217.232 388.317 222.48 388.317C233.878 388.317 243.062 397.173 243.062 408.735C243.062 420.133 234.042 429.071 222.48 429.071C217.232 429.071 212.722 427.267 209.442 423.413V448.751ZM209.688 408.735C209.688 415.787 214.854 421.691 222.398 421.691C229.778 421.691 235.272 416.033 235.272 408.735C235.272 401.519 229.778 395.779 222.48 395.779C215.182 395.779 209.688 401.519 209.688 408.735ZM65.28 495.735C65.28 506.887 56.014 516.071 44.698 516.071C33.464 516.071 24.28 506.969 24.28 495.735C24.28 484.583 33.3 475.317 44.698 475.317C56.014 475.317 65.28 484.501 65.28 495.735ZM57.49 495.653C57.49 488.601 51.832 482.779 44.78 482.779C37.482 482.779 32.07 488.929 32.07 495.817C32.07 502.787 37.646 508.691 44.78 508.691C51.996 508.691 57.49 502.623 57.49 495.653ZM82.9984 515.005H75.1264V454.325H82.9984V481.057C86.2784 477.203 90.7884 475.317 96.0364 475.317C107.434 475.317 116.618 484.173 116.618 495.735C116.618 507.133 107.598 516.071 96.0364 516.071C90.7884 516.071 86.2784 514.267 82.9984 510.413V515.005ZM83.2444 495.735C83.2444 502.787 88.4104 508.691 95.9544 508.691C103.334 508.691 108.828 503.033 108.828 495.735C108.828 488.519 103.334 482.779 96.0364 482.779C88.7384 482.779 83.2444 488.519 83.2444 495.735ZM122.602 510.987L126.866 504.919C130.802 508.117 134.984 508.937 137.772 508.937C141.954 508.937 144.25 507.133 144.25 504.509C144.25 496.801 123.996 501.557 123.996 487.535C123.996 480.401 129.244 475.317 137.362 475.317C140.642 475.317 146.136 476.137 150.564 479.745L146.382 485.567C142.938 483.025 139.494 482.533 137.444 482.533C133.508 482.533 131.786 484.501 131.786 486.633C131.786 494.013 151.958 489.995 151.958 504.017C151.958 511.479 146.3 516.071 137.526 516.071C131.704 516.071 126.62 514.021 122.602 510.987ZM198.339 498.359H166.441C167.507 504.345 172.427 508.937 179.069 508.937C183.333 508.937 187.515 507.051 189.975 503.607L195.551 507.871C191.943 512.955 185.793 516.071 179.069 516.071C167.753 516.071 158.651 507.215 158.651 495.735C158.651 484.829 166.933 475.317 178.577 475.317C190.139 475.317 198.503 484.747 198.503 495.653C198.503 496.719 198.421 497.539 198.339 498.359ZM166.687 492.127H190.467C189.565 486.715 184.809 482.533 178.659 482.533C172.591 482.533 168.081 486.633 166.687 492.127ZM216.008 515.005H208.136V476.055H216.008V480.729C219.78 476.219 223.634 475.317 231.178 475.317V482.861C218.304 482.861 216.008 488.109 216.008 494.833V515.005ZM261.188 515.005H252.742L236.67 476.055H245.198L256.842 505.165L268.65 476.055H277.178L261.188 515.005ZM322.342 515.005H314.47V510.413C311.19 514.267 306.68 516.071 301.432 516.071C289.87 516.071 280.85 507.133 280.85 495.735C280.85 484.173 290.034 475.317 301.432 475.317C306.68 475.317 311.108 477.203 314.47 481.057V476.055H322.342V515.005ZM314.306 495.735C314.306 488.683 308.812 482.779 301.432 482.779C294.134 482.779 288.64 488.519 288.64 495.735C288.64 503.033 294.134 508.691 301.432 508.691C308.894 508.691 314.306 502.787 314.306 495.735ZM353.91 508.117V515.169C353.09 515.497 350.63 516.071 347.76 516.071C338.166 516.071 336.444 509.757 336.444 503.033V483.517H330.294V476.055H336.444V462.853H344.398V476.055H354.976V483.517H344.398V502.131C344.398 506.559 345.382 508.691 349.564 508.691C350.958 508.691 353.09 508.445 353.91 508.117ZM372.082 515.005H364.128V476.055H372.082V515.005ZM368.146 468.347C365.276 468.347 363.062 466.133 363.062 463.263C363.062 460.393 365.276 458.179 368.146 458.179C371.016 458.179 373.148 460.393 373.148 463.263C373.148 466.133 371.016 468.347 368.146 468.347ZM422.909 495.735C422.909 506.887 413.643 516.071 402.327 516.071C391.093 516.071 381.909 506.969 381.909 495.735C381.909 484.583 390.929 475.317 402.327 475.317C413.643 475.317 422.909 484.501 422.909 495.735ZM415.119 495.653C415.119 488.601 409.461 482.779 402.409 482.779C395.111 482.779 389.699 488.929 389.699 495.817C389.699 502.787 395.275 508.691 402.409 508.691C409.625 508.691 415.119 502.623 415.119 495.653ZM468.015 515.005H460.061V494.587C460.061 486.797 457.027 482.779 450.549 482.779C443.825 482.779 440.627 487.125 440.627 495.161V515.005H432.755V476.055H440.627V480.237C443.251 477.285 446.449 475.317 451.943 475.317C461.209 475.317 468.015 480.729 468.015 492.947V515.005ZM65.772 602.005H57.9V597.413C54.62 601.267 50.11 603.071 44.862 603.071C33.3 603.071 24.28 594.133 24.28 582.735C24.28 571.173 33.464 562.317 44.862 562.317C50.11 562.317 54.538 564.203 57.9 568.057V563.055H65.772V602.005ZM57.736 582.735C57.736 575.683 52.242 569.779 44.862 569.779C37.564 569.779 32.07 575.519 32.07 582.735C32.07 590.033 37.564 595.691 44.862 595.691C52.324 595.691 57.736 589.787 57.736 582.735ZM114.15 602.005H106.196V581.587C106.196 573.797 103.162 569.779 96.6841 569.779C89.9601 569.779 86.7621 574.125 86.7621 582.161V602.005H78.8901V563.055H86.7621V567.237C89.3861 564.285 92.5841 562.317 98.0781 562.317C107.344 562.317 114.15 567.729 114.15 579.947V602.005ZM164.668 602.005H156.796V597.413C153.516 601.267 149.006 603.071 143.758 603.071C132.196 603.071 123.176 594.133 123.176 582.735C123.176 571.173 132.36 562.317 143.758 562.317C149.006 562.317 153.434 564.203 156.796 568.057V541.325H164.668V602.005ZM156.632 582.735C156.632 575.683 151.138 569.779 143.758 569.779C136.46 569.779 130.966 575.519 130.966 582.735C130.966 590.033 136.46 595.691 143.758 595.691C151.22 595.691 156.632 589.787 156.632 582.735ZM238.1 602.005H230.228V597.413C226.948 601.267 222.438 603.071 217.19 603.071C205.628 603.071 196.608 594.133 196.608 582.735C196.608 571.173 205.792 562.317 217.19 562.317C222.438 562.317 226.866 564.203 230.228 568.057V563.055H238.1V602.005ZM230.064 582.735C230.064 575.683 224.57 569.779 217.19 569.779C209.892 569.779 204.398 575.519 204.398 582.735C204.398 590.033 209.892 595.691 217.19 595.691C224.652 595.691 230.064 589.787 230.064 582.735ZM269.668 595.117V602.169C268.848 602.497 266.388 603.071 263.518 603.071C253.924 603.071 252.202 596.757 252.202 590.033V570.517H246.052V563.055H252.202V549.853H260.156V563.055H270.734V570.517H260.156V589.131C260.156 593.559 261.14 595.691 265.322 595.691C266.716 595.691 268.848 595.445 269.668 595.117ZM299.137 595.117V602.169C298.317 602.497 295.857 603.071 292.987 603.071C283.393 603.071 281.671 596.757 281.671 590.033V570.517H275.521V563.055H281.671V549.853H289.625V563.055H300.203V570.517H289.625V589.131C289.625 593.559 290.609 595.691 294.791 595.691C296.185 595.691 298.317 595.445 299.137 595.117ZM345.763 585.359H313.865C314.931 591.345 319.851 595.937 326.493 595.937C330.757 595.937 334.939 594.051 337.399 590.607L342.975 594.871C339.367 599.955 333.217 603.071 326.493 603.071C315.177 603.071 306.075 594.215 306.075 582.735C306.075 571.829 314.357 562.317 326.001 562.317C337.563 562.317 345.927 571.747 345.927 582.653C345.927 583.719 345.845 584.539 345.763 585.359ZM314.111 579.127H337.891C336.989 573.715 332.233 569.533 326.083 569.533C320.015 569.533 315.505 573.633 314.111 579.127ZM390.82 602.005H382.866V581.587C382.866 573.797 379.832 569.779 373.354 569.779C366.63 569.779 363.432 574.125 363.432 582.161V602.005H355.56V563.055H363.432V567.237C366.056 564.285 369.254 562.317 374.748 562.317C384.014 562.317 390.82 567.729 390.82 579.947V602.005ZM421.576 595.117V602.169C420.756 602.497 418.296 603.071 415.426 603.071C405.832 603.071 404.11 596.757 404.11 590.033V570.517H397.96V563.055H404.11V549.853H412.064V563.055H422.642V570.517H412.064V589.131C412.064 593.559 413.048 595.691 417.23 595.691C418.624 595.691 420.756 595.445 421.576 595.117ZM439.748 602.005H431.794V563.055H439.748V602.005ZM435.812 555.347C432.942 555.347 430.728 553.133 430.728 550.263C430.728 547.393 432.942 545.179 435.812 545.179C438.682 545.179 440.814 547.393 440.814 550.263C440.814 553.133 438.682 555.347 435.812 555.347ZM490.575 582.735C490.575 593.887 481.309 603.071 469.993 603.071C458.759 603.071 449.575 593.969 449.575 582.735C449.575 571.583 458.595 562.317 469.993 562.317C481.309 562.317 490.575 571.501 490.575 582.735ZM482.785 582.653C482.785 575.601 477.127 569.779 470.075 569.779C462.777 569.779 457.365 575.929 457.365 582.817C457.365 589.787 462.941 595.691 470.075 595.691C477.291 595.691 482.785 589.623 482.785 582.653ZM535.681 602.005H527.727V581.587C527.727 573.797 524.693 569.779 518.215 569.779C511.491 569.779 508.293 574.125 508.293 582.161V602.005H500.421V563.055H508.293V567.237C510.917 564.285 514.115 562.317 519.609 562.317C528.875 562.317 535.681 567.729 535.681 579.947V602.005ZM45.6096 682.117V689.169C44.7896 689.497 42.3296 690.071 39.4596 690.071C29.8656 690.071 28.1436 683.757 28.1436 677.033V657.517H21.9936V650.055H28.1436V636.853H36.0976V650.055H46.6756V657.517H36.0976V676.131C36.0976 680.559 37.0816 682.691 41.2636 682.691C42.6576 682.691 44.7896 682.445 45.6096 682.117ZM93.5476 669.735C93.5476 680.887 84.2816 690.071 72.9656 690.071C61.7316 690.071 52.5476 680.969 52.5476 669.735C52.5476 658.583 61.5676 649.317 72.9656 649.317C84.2816 649.317 93.5476 658.501 93.5476 669.735ZM85.7576 669.653C85.7576 662.601 80.0996 656.779 73.0476 656.779C65.7496 656.779 60.3376 662.929 60.3376 669.817C60.3376 676.787 65.9136 682.691 73.0476 682.691C80.2636 682.691 85.7576 676.623 85.7576 669.653ZM163.708 689.005H155.836V684.413C152.556 688.267 148.046 690.071 142.798 690.071C131.236 690.071 122.216 681.133 122.216 669.735C122.216 658.173 131.4 649.317 142.798 649.317C148.046 649.317 152.474 651.203 155.836 655.057V628.325H163.708V689.005ZM155.672 669.735C155.672 662.683 150.178 656.779 142.798 656.779C135.5 656.779 130.006 662.519 130.006 669.735C130.006 677.033 135.5 682.691 142.798 682.691C150.26 682.691 155.672 676.787 155.672 669.735ZM213.234 672.359H181.336C182.402 678.345 187.322 682.937 193.964 682.937C198.228 682.937 202.41 681.051 204.87 677.607L210.446 681.871C206.838 686.955 200.688 690.071 193.964 690.071C182.648 690.071 173.546 681.215 173.546 669.735C173.546 658.829 181.828 649.317 193.472 649.317C205.034 649.317 213.398 658.747 213.398 669.653C213.398 670.719 213.316 671.539 213.234 672.359ZM181.582 666.127H205.362C204.46 660.715 199.704 656.533 193.554 656.533C187.486 656.533 182.976 660.633 181.582 666.127ZM241.481 682.117V689.169C240.661 689.497 238.201 690.071 235.331 690.071C225.737 690.071 224.015 683.757 224.015 677.033V657.517H217.865V650.055H224.015V636.853H231.969V650.055H242.547V657.517H231.969V676.131C231.969 680.559 232.953 682.691 237.135 682.691C238.529 682.691 240.661 682.445 241.481 682.117ZM288.71 689.005H280.838V684.413C277.558 688.267 273.048 690.071 267.8 690.071C256.238 690.071 247.218 681.133 247.218 669.735C247.218 658.173 256.402 649.317 267.8 649.317C273.048 649.317 277.476 651.203 280.838 655.057V650.055H288.71V689.005ZM280.674 669.735C280.674 662.683 275.18 656.779 267.8 656.779C260.502 656.779 255.008 662.519 255.008 669.735C255.008 677.033 260.502 682.691 267.8 682.691C275.262 682.691 280.674 676.787 280.674 669.735ZM309.782 689.005H301.828V650.055H309.782V689.005ZM305.846 642.347C302.976 642.347 300.762 640.133 300.762 637.263C300.762 634.393 302.976 632.179 305.846 632.179C308.716 632.179 310.848 634.393 310.848 637.263C310.848 640.133 308.716 642.347 305.846 642.347ZM337.566 682.609V689.497C336.254 689.825 334.86 690.071 333.22 690.071C326.824 690.071 322.888 686.217 322.888 679.083V628.325H330.76V676.623C330.76 680.805 331.744 682.691 335.598 682.691C336.09 682.691 336.828 682.691 337.566 682.609ZM351.714 689.497C348.844 689.497 346.63 687.283 346.63 684.413C346.63 681.543 348.844 679.411 351.714 679.411C354.584 679.411 356.716 681.543 356.716 684.413C356.716 687.283 354.584 689.497 351.714 689.497Z" fill="black"/>
<path d="M51.758 1443H42.164L26.748 1416.6H16.334V1443H7.97V1382.32H30.274C42.246 1382.32 50.364 1387.4 50.364 1399.46C50.364 1409.13 45.198 1414.71 35.932 1416.1L51.758 1443ZM16.334 1408.64H30.192C37.08 1408.64 42 1406.76 42 1399.54C42 1393.06 37.982 1390.27 30.192 1390.27H16.334V1408.64ZM96.7395 1426.35H64.8415C65.9075 1432.34 70.8275 1436.93 77.4695 1436.93C81.7335 1436.93 85.9155 1435.05 88.3755 1431.6L93.9515 1435.87C90.3435 1440.95 84.1935 1444.07 77.4695 1444.07C66.1535 1444.07 57.0515 1435.21 57.0515 1423.73C57.0515 1412.82 65.3335 1403.31 76.9775 1403.31C88.5395 1403.31 96.9035 1412.74 96.9035 1423.65C96.9035 1424.71 96.8215 1425.53 96.7395 1426.35ZM65.0875 1420.12H88.8675C87.9655 1414.71 83.2095 1410.53 77.0595 1410.53C70.9915 1410.53 66.4815 1414.63 65.0875 1420.12ZM102.683 1438.98L106.947 1432.91C110.883 1436.11 115.065 1436.93 117.853 1436.93C122.035 1436.93 124.331 1435.13 124.331 1432.5C124.331 1424.8 104.077 1429.55 104.077 1415.53C104.077 1408.4 109.325 1403.31 117.443 1403.31C120.723 1403.31 126.217 1404.13 130.645 1407.74L126.463 1413.56C123.019 1411.02 119.575 1410.53 117.525 1410.53C113.589 1410.53 111.867 1412.5 111.867 1414.63C111.867 1422.01 132.039 1417.99 132.039 1432.01C132.039 1439.47 126.381 1444.07 117.607 1444.07C111.785 1444.07 106.701 1442.02 102.683 1438.98ZM149.965 1443H142.011V1404.05H149.965V1443ZM146.029 1396.34C143.159 1396.34 140.945 1394.13 140.945 1391.26C140.945 1388.39 143.159 1386.17 146.029 1386.17C148.899 1386.17 151.031 1388.39 151.031 1391.26C151.031 1394.13 148.899 1396.34 146.029 1396.34ZM177.75 1436.6V1443.49C176.438 1443.82 175.044 1444.07 173.404 1444.07C167.008 1444.07 163.072 1440.21 163.072 1433.08V1382.32H170.944V1430.62C170.944 1434.8 171.928 1436.69 175.782 1436.69C176.274 1436.69 177.012 1436.69 177.75 1436.6ZM193.127 1443H185.173V1404.05H193.127V1443ZM189.191 1396.34C186.321 1396.34 184.107 1394.13 184.107 1391.26C184.107 1388.39 186.321 1386.17 189.191 1386.17C192.061 1386.17 194.193 1388.39 194.193 1391.26C194.193 1394.13 192.061 1396.34 189.191 1396.34ZM242.642 1426.35H210.744C211.81 1432.34 216.73 1436.93 223.372 1436.93C227.636 1436.93 231.818 1435.05 234.278 1431.6L239.854 1435.87C236.246 1440.95 230.096 1444.07 223.372 1444.07C212.056 1444.07 202.954 1435.21 202.954 1423.73C202.954 1412.82 211.236 1403.31 222.88 1403.31C234.442 1403.31 242.806 1412.74 242.806 1423.65C242.806 1424.71 242.724 1425.53 242.642 1426.35ZM210.99 1420.12H234.77C233.868 1414.71 229.112 1410.53 222.962 1410.53C216.894 1410.53 212.384 1414.63 210.99 1420.12ZM287.699 1443H279.745V1422.58C279.745 1414.79 276.711 1410.77 270.233 1410.77C263.509 1410.77 260.311 1415.12 260.311 1423.16V1443H252.439V1404.05H260.311V1408.23C262.935 1405.28 266.133 1403.31 271.627 1403.31C280.893 1403.31 287.699 1408.72 287.699 1420.94V1443ZM318.455 1436.11V1443.16C317.635 1443.49 315.175 1444.07 312.305 1444.07C302.711 1444.07 300.989 1437.75 300.989 1431.03V1411.51H294.839V1404.05H300.989V1390.85H308.943V1404.05H319.521V1411.51H308.943V1430.13C308.943 1434.55 309.927 1436.69 314.109 1436.69C315.503 1436.69 317.635 1436.44 318.455 1436.11ZM388.186 1443H380.314V1438.41C377.034 1442.26 372.524 1444.07 367.276 1444.07C355.714 1444.07 346.694 1435.13 346.694 1423.73C346.694 1412.17 355.878 1403.31 367.276 1403.31C372.524 1403.31 376.952 1405.2 380.314 1409.05V1404.05H388.186V1443ZM380.15 1423.73C380.15 1416.68 374.656 1410.77 367.276 1410.77C359.978 1410.77 354.484 1416.51 354.484 1423.73C354.484 1431.03 359.978 1436.69 367.276 1436.69C374.738 1436.69 380.15 1430.78 380.15 1423.73ZM436.564 1443H428.61V1422.58C428.61 1414.79 425.576 1410.77 419.098 1410.77C412.374 1410.77 409.176 1415.12 409.176 1423.16V1443H401.304V1404.05H409.176V1408.23C411.8 1405.28 414.998 1403.31 420.492 1403.31C429.758 1403.31 436.564 1408.72 436.564 1420.94V1443ZM487.083 1443H479.211V1438.41C475.931 1442.26 471.421 1444.07 466.173 1444.07C454.611 1444.07 445.591 1435.13 445.591 1423.73C445.591 1412.17 454.775 1403.31 466.173 1403.31C471.421 1403.31 475.849 1405.2 479.211 1409.05V1382.32H487.083V1443ZM479.047 1423.73C479.047 1416.68 473.553 1410.77 466.173 1410.77C458.875 1410.77 453.381 1416.51 453.381 1423.73C453.381 1431.03 458.875 1436.69 466.173 1436.69C473.635 1436.69 479.047 1430.78 479.047 1423.73ZM45.772 1530H37.9V1525.41C34.62 1529.26 30.11 1531.07 24.862 1531.07C13.3 1531.07 4.28 1522.13 4.28 1510.73C4.28 1499.17 13.464 1490.31 24.862 1490.31C30.11 1490.31 34.538 1492.2 37.9 1496.05V1491.05H45.772V1530ZM37.736 1510.73C37.736 1503.68 32.242 1497.77 24.862 1497.77C17.564 1497.77 12.07 1503.51 12.07 1510.73C12.07 1518.03 17.564 1523.69 24.862 1523.69C32.324 1523.69 37.736 1517.78 37.736 1510.73ZM97.1021 1530H89.2301V1525.41C85.9501 1529.26 81.4401 1531.07 76.1921 1531.07C64.6301 1531.07 55.6101 1522.13 55.6101 1510.73C55.6101 1499.17 64.7941 1490.31 76.1921 1490.31C81.4401 1490.31 85.8681 1492.2 89.2301 1496.05V1469.32H97.1021V1530ZM89.0661 1510.73C89.0661 1503.68 83.5721 1497.77 76.1921 1497.77C68.8941 1497.77 63.4001 1503.51 63.4001 1510.73C63.4001 1518.03 68.8941 1523.69 76.1921 1523.69C83.6541 1523.69 89.0661 1517.78 89.0661 1510.73ZM148.432 1530H140.56V1525.41C137.28 1529.26 132.77 1531.07 127.522 1531.07C115.96 1531.07 106.94 1522.13 106.94 1510.73C106.94 1499.17 116.124 1490.31 127.522 1490.31C132.77 1490.31 137.198 1492.2 140.56 1496.05V1491.05H148.432V1530ZM140.396 1510.73C140.396 1503.68 134.902 1497.77 127.522 1497.77C120.224 1497.77 114.73 1503.51 114.73 1510.73C114.73 1518.03 120.224 1523.69 127.522 1523.69C134.984 1523.69 140.396 1517.78 140.396 1510.73ZM169.422 1550.75H161.55V1491.05H169.422V1496.05C172.702 1492.2 177.212 1490.31 182.46 1490.31C193.858 1490.31 203.042 1499.17 203.042 1510.73C203.042 1522.13 194.022 1531.07 182.46 1531.07C177.212 1531.07 172.702 1529.26 169.422 1525.41V1550.75ZM169.668 1510.73C169.668 1517.78 174.834 1523.69 182.378 1523.69C189.758 1523.69 195.252 1518.03 195.252 1510.73C195.252 1503.51 189.758 1497.77 182.46 1497.77C175.162 1497.77 169.668 1503.51 169.668 1510.73ZM231.33 1523.11V1530.16C230.51 1530.49 228.05 1531.07 225.18 1531.07C215.586 1531.07 213.864 1524.75 213.864 1518.03V1498.51H207.714V1491.05H213.864V1477.85H221.818V1491.05H232.396V1498.51H221.818V1517.13C221.818 1521.55 222.802 1523.69 226.984 1523.69C228.378 1523.69 230.51 1523.44 231.33 1523.11ZM278.559 1530H270.687V1525.41C267.407 1529.26 262.897 1531.07 257.649 1531.07C246.087 1531.07 237.067 1522.13 237.067 1510.73C237.067 1499.17 246.251 1490.31 257.649 1490.31C262.897 1490.31 267.325 1492.2 270.687 1496.05V1491.05H278.559V1530ZM270.523 1510.73C270.523 1503.68 265.029 1497.77 257.649 1497.77C250.351 1497.77 244.857 1503.51 244.857 1510.73C244.857 1518.03 250.351 1523.69 257.649 1523.69C265.111 1523.69 270.523 1517.78 270.523 1510.73ZM299.549 1530H291.677V1469.32H299.549V1496.05C302.829 1492.2 307.339 1490.31 312.587 1490.31C323.985 1490.31 333.169 1499.17 333.169 1510.73C333.169 1522.13 324.149 1531.07 312.587 1531.07C307.339 1531.07 302.829 1529.26 299.549 1525.41V1530ZM299.795 1510.73C299.795 1517.78 304.961 1523.69 312.505 1523.69C319.885 1523.69 325.379 1518.03 325.379 1510.73C325.379 1503.51 319.885 1497.77 312.587 1497.77C305.289 1497.77 299.795 1503.51 299.795 1510.73ZM357.685 1523.6V1530.49C356.373 1530.82 354.979 1531.07 353.339 1531.07C346.943 1531.07 343.007 1527.21 343.007 1520.08V1469.32H350.879V1517.62C350.879 1521.8 351.863 1523.69 355.717 1523.69C356.209 1523.69 356.947 1523.69 357.685 1523.6ZM401.517 1513.35H369.619C370.685 1519.34 375.605 1523.93 382.247 1523.93C386.511 1523.93 390.693 1522.05 393.153 1518.6L398.729 1522.87C395.121 1527.95 388.971 1531.07 382.247 1531.07C370.931 1531.07 361.829 1522.21 361.829 1510.73C361.829 1499.82 370.111 1490.31 381.755 1490.31C393.317 1490.31 401.681 1499.74 401.681 1510.65C401.681 1511.71 401.599 1512.53 401.517 1513.35ZM369.865 1507.12H393.645C392.743 1501.71 387.987 1497.53 381.837 1497.53C375.769 1497.53 371.259 1501.63 369.865 1507.12ZM451.065 1523.11V1530.16C450.245 1530.49 447.785 1531.07 444.915 1531.07C435.321 1531.07 433.599 1524.75 433.599 1518.03V1498.51H427.449V1491.05H433.599V1477.85H441.553V1491.05H452.131V1498.51H441.553V1517.13C441.553 1521.55 442.537 1523.69 446.719 1523.69C448.113 1523.69 450.245 1523.44 451.065 1523.11ZM499.003 1510.73C499.003 1521.88 489.737 1531.07 478.421 1531.07C467.187 1531.07 458.003 1521.96 458.003 1510.73C458.003 1499.58 467.023 1490.31 478.421 1490.31C489.737 1490.31 499.003 1499.5 499.003 1510.73ZM491.213 1510.65C491.213 1503.6 485.555 1497.77 478.503 1497.77C471.205 1497.77 465.793 1503.92 465.793 1510.81C465.793 1517.78 471.369 1523.69 478.503 1523.69C485.719 1523.69 491.213 1517.62 491.213 1510.65ZM3.706 1612.98L7.97 1606.91C11.906 1610.11 16.088 1610.93 18.876 1610.93C23.058 1610.93 25.354 1609.13 25.354 1606.5C25.354 1598.8 5.1 1603.55 5.1 1589.53C5.1 1582.4 10.348 1577.31 18.466 1577.31C21.746 1577.31 27.24 1578.13 31.668 1581.74L27.486 1587.56C24.042 1585.02 20.598 1584.53 18.548 1584.53C14.612 1584.53 12.89 1586.5 12.89 1588.63C12.89 1596.01 33.062 1591.99 33.062 1606.01C33.062 1613.47 27.404 1618.07 18.63 1618.07C12.808 1618.07 7.724 1616.02 3.706 1612.98ZM79.4426 1600.35H47.5446C48.6106 1606.34 53.5306 1610.93 60.1726 1610.93C64.4366 1610.93 68.6186 1609.05 71.0786 1605.6L76.6546 1609.87C73.0466 1614.95 66.8966 1618.07 60.1726 1618.07C48.8566 1618.07 39.7546 1609.21 39.7546 1597.73C39.7546 1586.82 48.0366 1577.31 59.6806 1577.31C71.2426 1577.31 79.6066 1586.74 79.6066 1597.65C79.6066 1598.71 79.5246 1599.53 79.4426 1600.35ZM47.7906 1594.12H71.5706C70.6686 1588.71 65.9126 1584.53 59.7626 1584.53C53.6946 1584.53 49.1846 1588.63 47.7906 1594.12ZM107.69 1610.11V1617.16C106.87 1617.49 104.41 1618.07 101.54 1618.07C91.9457 1618.07 90.2237 1611.75 90.2237 1605.03V1585.51H84.0737V1578.05H90.2237V1564.85H98.1777V1578.05H108.756V1585.51H98.1777V1604.13C98.1777 1608.55 99.1617 1610.69 103.344 1610.69C104.738 1610.69 106.87 1610.44 107.69 1610.11ZM125.78 1617H117.908V1556.32H125.78V1583.05C129.06 1579.2 133.57 1577.31 138.818 1577.31C150.216 1577.31 159.4 1586.17 159.4 1597.73C159.4 1609.13 150.38 1618.07 138.818 1618.07C133.57 1618.07 129.06 1616.26 125.78 1612.41V1617ZM126.026 1597.73C126.026 1604.78 131.192 1610.69 138.736 1610.69C146.116 1610.69 151.61 1605.03 151.61 1597.73C151.61 1590.51 146.116 1584.77 138.818 1584.77C131.52 1584.77 126.026 1590.51 126.026 1597.73ZM207.45 1617H199.578V1612.41C196.298 1616.26 191.788 1618.07 186.54 1618.07C174.978 1618.07 165.958 1609.13 165.958 1597.73C165.958 1586.17 175.142 1577.31 186.54 1577.31C191.788 1577.31 196.216 1579.2 199.578 1583.05V1578.05H207.45V1617ZM199.414 1597.73C199.414 1590.68 193.92 1584.77 186.54 1584.77C179.242 1584.77 173.748 1590.51 173.748 1597.73C173.748 1605.03 179.242 1610.69 186.54 1610.69C194.002 1610.69 199.414 1604.78 199.414 1597.73ZM248.694 1604.54L255.254 1608.39C251.646 1614.21 245.086 1618.07 237.706 1618.07C226.472 1618.07 217.288 1608.96 217.288 1597.73C217.288 1586.58 226.308 1577.31 237.706 1577.31C245.004 1577.31 251.482 1581.17 255.09 1586.91L248.448 1590.68C246.234 1587.15 242.216 1584.77 237.706 1584.77C230.572 1584.77 225.078 1590.84 225.078 1597.81C225.078 1604.78 230.654 1610.69 237.87 1610.69C242.544 1610.69 246.48 1608.23 248.694 1604.54ZM298.658 1617H288.326L271.762 1598.39V1617H263.89V1556.32H271.762V1594.12L286.768 1578.05H297.182L280.044 1595.93L298.658 1617ZM301.997 1612.98L306.261 1606.91C310.197 1610.11 314.379 1610.93 317.167 1610.93C321.349 1610.93 323.645 1609.13 323.645 1606.5C323.645 1598.8 303.391 1603.55 303.391 1589.53C303.391 1582.4 308.639 1577.31 316.757 1577.31C320.037 1577.31 325.531 1578.13 329.959 1581.74L325.777 1587.56C322.333 1585.02 318.889 1584.53 316.839 1584.53C312.903 1584.53 311.181 1586.5 311.181 1588.63C311.181 1596.01 331.353 1591.99 331.353 1606.01C331.353 1613.47 325.695 1618.07 316.921 1618.07C311.099 1618.07 306.015 1616.02 301.997 1612.98ZM348.05 1617.49C345.18 1617.49 342.966 1615.28 342.966 1612.41C342.966 1609.54 345.18 1607.41 348.05 1607.41C350.92 1607.41 353.052 1609.54 353.052 1612.41C353.052 1615.28 350.92 1617.49 348.05 1617.49Z" fill="black"/>
</svg>
