<svg width="3500" height="1858" viewBox="0 0 3500 1858" fill="none" xmlns="http://www.w3.org/2000/svg">
<rect y="57.2266" width="3500" height="1800" fill="white"/>
<path d="M2717.64 288H2702.02L2695.31 270.62H2660.22L2653.62 288H2638L2670.56 206.6H2685.19L2717.64 288ZM2690.14 256.87L2677.82 224.53L2665.39 256.87H2690.14ZM2747.19 276.56V288.55C2745.65 288.99 2743.56 289.43 2741.36 289.43C2731.35 289.43 2725.85 283.93 2725.85 274.03V206.6H2739.38V270.95C2739.38 274.47 2740.37 276.67 2745.1 276.67C2745.54 276.67 2746.42 276.67 2747.19 276.56ZM2819.04 288H2805.62L2793.85 254.67L2782.52 288H2768.44L2749.85 235.75H2765.03L2775.59 270.07L2787.91 235.75H2799.79L2811.89 270.07L2822.56 235.75H2837.85L2819.04 288ZM2898.61 288H2885.08V284.59C2880.9 288 2875.95 289.43 2870.56 289.43C2855.16 289.43 2842.84 277.11 2842.84 262.04C2842.84 246.86 2855.16 234.76 2870.56 234.76C2875.84 234.76 2880.79 236.19 2885.08 239.6V235.75H2898.61V288ZM2885.08 262.04C2885.08 254.34 2878.59 247.74 2870.56 247.74C2862.64 247.74 2856.15 254.34 2856.15 262.04C2856.15 269.85 2862.64 276.45 2870.56 276.45C2878.59 276.45 2885.08 269.85 2885.08 262.04ZM2933.39 315.83H2920.19L2929.65 289.43L2907.98 235.75H2922.94L2936.03 271.83L2949.01 235.75H2962.32L2933.39 315.83ZM2966.35 282.06L2973.5 271.72C2978.34 275.9 2984.17 277.11 2987.91 277.11C2992.75 277.11 2994.29 275.13 2994.29 273.26C2994.29 265.45 2967.78 270.29 2967.78 251.48C2967.78 241.91 2974.6 234.76 2986.26 234.76C2990.88 234.76 2999.35 235.86 3005.29 241.36L2998.14 251.04C2993.52 247.85 2989.23 247.08 2986.37 247.08C2981.86 247.08 2980.98 249.06 2980.98 250.38C2980.98 257.75 3007.16 254.23 3007.16 272.82C3007.16 282.39 3000.23 289.43 2987.03 289.43C2977.35 289.43 2971.08 285.69 2966.35 282.06ZM2698.39 405H2646.8V323.6H2698.39V337.46H2661.21V355.61H2690.47V369.47H2661.21V391.14H2698.39V405ZM2759.11 405H2744.59L2733.15 388.28L2721.71 405H2707.19L2725.78 377.61L2708.95 352.75H2723.58L2733.15 366.83L2742.72 352.75H2757.35L2740.41 377.61L2759.11 405ZM2781.49 432.83H2767.96V352.75H2781.49V356.6C2785.67 353.19 2790.62 351.76 2796.01 351.76C2811.41 351.76 2823.73 363.86 2823.73 379.04C2823.73 394.11 2811.41 406.43 2796.01 406.43C2790.62 406.43 2785.67 405 2781.49 401.59V432.83ZM2781.49 378.49V379.7C2781.82 387.18 2788.2 393.45 2796.01 393.45C2803.93 393.45 2810.42 386.85 2810.42 379.04C2810.42 371.34 2803.93 364.74 2796.01 364.74C2788.2 364.74 2781.82 371.12 2781.49 378.49ZM2857.19 393.56V405.55C2855.65 405.99 2853.56 406.43 2851.36 406.43C2841.35 406.43 2835.85 400.93 2835.85 391.03V323.6H2849.38V387.95C2849.38 391.47 2850.37 393.67 2855.1 393.67C2855.54 393.67 2856.42 393.67 2857.19 393.56ZM2918.15 379.04C2918.15 394.11 2905.83 406.43 2890.32 406.43C2874.92 406.43 2862.6 394.11 2862.6 379.04C2862.6 363.86 2874.92 351.76 2890.32 351.76C2905.83 351.76 2918.15 363.86 2918.15 379.04ZM2904.84 379.04C2904.84 371.34 2898.35 364.74 2890.32 364.74C2882.4 364.74 2875.91 371.34 2875.91 379.04C2875.91 386.85 2882.4 393.45 2890.32 393.45C2898.35 393.45 2904.84 386.85 2904.84 379.04ZM2943.8 405H2930.27V352.75H2943.8V356.6C2948.86 352.86 2953.81 351.76 2963.93 351.76V364.74C2946.66 364.74 2943.8 369.58 2943.8 378.6V405ZM2988.6 405H2975.07V352.75H2988.6V405ZM2981.89 344.06C2977.05 344.06 2973.31 340.32 2973.31 335.48C2973.31 330.64 2977.05 327.01 2981.89 327.01C2986.73 327.01 2990.36 330.64 2990.36 335.48C2990.36 340.32 2986.73 344.06 2981.89 344.06ZM3053.87 405H3040.34V377.06C3040.34 366.94 3034.95 364.74 3029.56 364.74C3024.17 364.74 3018.78 366.83 3018.78 376.84V405H3005.25V352.75H3018.78V356.6C3021.75 354.4 3025.38 351.76 3032.53 351.76C3043.97 351.76 3053.87 358.47 3053.87 374.86V405ZM3107.12 403.9V401.59C3102.94 405 3097.99 406.43 3092.6 406.43C3077.2 406.43 3064.88 394.11 3064.88 379.04C3064.88 363.86 3077.2 351.76 3092.6 351.76C3097.88 351.76 3102.83 353.19 3107.12 356.6V352.75H3120.65V401.26C3120.65 429.2 3102.83 432.83 3092.6 432.83C3082.59 432.83 3073.9 427.66 3069.06 419.96L3081.49 414.57C3084.13 417.76 3088.2 419.85 3092.6 419.85C3100.63 419.85 3107.12 415.89 3107.12 403.9ZM3107.12 379.04C3107.12 371.34 3100.63 364.74 3092.6 364.74C3084.68 364.74 3078.19 371.34 3078.19 379.04C3078.19 386.85 3084.68 393.45 3092.6 393.45C3100.63 393.45 3107.12 386.85 3107.12 379.04Z" fill="#242424"/>
<path d="M265.02 319H245.88L213.21 284.46V319H198.8V237.6H213.21V273.57L244.01 237.6H262.16L225.75 278.3L265.02 319ZM321.85 297.33H282.03C283.57 303.71 288.74 308.22 296.55 308.22C301.28 308.22 306.34 306.46 309.42 302.39L318.66 309.76C313.93 316.47 305.57 320.43 296.66 320.43C280.93 320.43 268.83 308.66 268.83 293.37C268.83 278.52 279.28 265.76 295.89 265.76C311.29 265.76 322.18 278.3 322.18 293.04C322.18 294.47 322.07 296.01 321.85 297.33ZM282.47 287.43H308.54C307.77 282.15 302.27 278.08 295.78 278.08C289.51 278.08 284.45 281.82 282.47 287.43ZM382.866 297.33H343.046C344.586 303.71 349.756 308.22 357.566 308.22C362.296 308.22 367.356 306.46 370.436 302.39L379.676 309.76C374.946 316.47 366.586 320.43 357.676 320.43C341.946 320.43 329.846 308.66 329.846 293.37C329.846 278.52 340.296 265.76 356.906 265.76C372.306 265.76 383.196 278.3 383.196 293.04C383.196 294.47 383.086 296.01 382.866 297.33ZM343.486 287.43H369.556C368.786 282.15 363.286 278.08 356.796 278.08C350.526 278.08 345.466 281.82 343.486 287.43ZM443.882 319H430.352V291.06C430.352 280.94 424.962 278.74 419.572 278.74C414.182 278.74 408.792 280.83 408.792 290.84V319H395.262V266.75H408.792V270.6C411.762 268.4 415.392 265.76 422.542 265.76C433.982 265.76 443.882 272.47 443.882 288.86V319ZM541.074 319H489.484V237.6H541.074V251.46H503.894V269.61H533.154V283.47H503.894V305.14H541.074V319ZM573.043 346.83H559.843L569.303 320.43L547.633 266.75H562.593L575.683 302.83L588.663 266.75H601.973L573.043 346.83ZM659.907 297.33H620.087C621.627 303.71 626.797 308.22 634.607 308.22C639.337 308.22 644.397 306.46 647.477 302.39L656.717 309.76C651.987 316.47 643.627 320.43 634.717 320.43C618.987 320.43 606.887 308.66 606.887 293.37C606.887 278.52 617.337 265.76 633.947 265.76C649.347 265.76 660.237 278.3 660.237 293.04C660.237 294.47 660.127 296.01 659.907 297.33ZM620.527 287.43H646.597C645.827 282.15 640.327 278.08 633.837 278.08C627.567 278.08 622.507 281.82 620.527 287.43ZM667.56 313.06L674.71 302.72C679.55 306.9 685.38 308.11 689.12 308.11C693.96 308.11 695.5 306.13 695.5 304.26C695.5 296.45 668.99 301.29 668.99 282.48C668.99 272.91 675.81 265.76 687.47 265.76C692.09 265.76 700.56 266.86 706.5 272.36L699.35 282.04C694.73 278.85 690.44 278.08 687.58 278.08C683.07 278.08 682.19 280.06 682.19 281.38C682.19 288.75 708.37 285.23 708.37 303.82C708.37 313.39 701.44 320.43 688.24 320.43C678.56 320.43 672.29 316.69 667.56 313.06Z" fill="#242424"/>
<path d="M2680.16 1252H2664.98L2620.21 1190.07V1252H2605.8V1170.6H2623.95L2665.86 1228.46V1170.6H2680.16V1252ZM2748.35 1226.04C2748.35 1241.11 2736.03 1253.43 2720.52 1253.43C2705.12 1253.43 2692.8 1241.11 2692.8 1226.04C2692.8 1210.86 2705.12 1198.76 2720.52 1198.76C2736.03 1198.76 2748.35 1210.86 2748.35 1226.04ZM2735.04 1226.04C2735.04 1218.34 2728.55 1211.74 2720.52 1211.74C2712.6 1211.74 2706.11 1218.34 2706.11 1226.04C2706.11 1233.85 2712.6 1240.45 2720.52 1240.45C2728.55 1240.45 2735.04 1233.85 2735.04 1226.04ZM2787.56 1240.12V1252.11C2787.56 1252.11 2783.6 1253.43 2777.11 1253.43C2766.88 1253.43 2761.6 1246.72 2761.6 1236.49V1212.73H2753.35V1199.75H2761.6V1182.04H2775.13V1199.75H2788.99V1212.73H2775.13V1233.63C2775.13 1237.26 2776.12 1240.67 2780.96 1240.67C2784.37 1240.67 2787.56 1240.12 2787.56 1240.12ZM2901.58 1252H2885.96L2879.25 1234.62H2844.16L2837.56 1252H2821.94L2854.5 1170.6H2869.13L2901.58 1252ZM2874.08 1220.87L2861.76 1188.53L2849.33 1220.87H2874.08ZM2922.18 1252H2908.65V1212.73H2900.95V1199.75H2908.65V1187.54C2908.65 1177.31 2913.49 1170.6 2924.82 1170.6C2927.79 1170.6 2932.3 1171.04 2934.94 1171.92V1183.91C2934.94 1183.91 2931.09 1183.36 2928.56 1183.36C2924.38 1183.36 2922.18 1184.9 2922.18 1190.4V1199.75H2933.84V1212.73H2922.18V1252ZM2959.52 1252H2945.99V1199.75H2959.52V1203.6C2964.58 1199.86 2969.53 1198.76 2979.65 1198.76V1211.74C2962.38 1211.74 2959.52 1216.58 2959.52 1225.6V1252ZM3040.44 1252H3026.91V1248.59C3022.73 1252 3017.78 1253.43 3012.39 1253.43C2996.99 1253.43 2984.67 1241.11 2984.67 1226.04C2984.67 1210.86 2996.99 1198.76 3012.39 1198.76C3017.67 1198.76 3022.62 1200.19 3026.91 1203.6V1199.75H3040.44V1252ZM3026.91 1226.04C3026.91 1218.34 3020.42 1211.74 3012.39 1211.74C3004.47 1211.74 2997.98 1218.34 2997.98 1226.04C2997.98 1233.85 3004.47 1240.45 3012.39 1240.45C3020.42 1240.45 3026.91 1233.85 3026.91 1226.04ZM3070.6 1252H3057.07V1199.75H3070.6V1252ZM3063.89 1191.06C3059.05 1191.06 3055.31 1187.32 3055.31 1182.48C3055.31 1177.64 3059.05 1174.01 3063.89 1174.01C3068.73 1174.01 3072.36 1177.64 3072.36 1182.48C3072.36 1187.32 3068.73 1191.06 3063.89 1191.06ZM3138.62 1252H3125.09V1248.59C3120.91 1252 3115.96 1253.43 3110.57 1253.43C3095.17 1253.43 3082.85 1241.11 3082.85 1226.04C3082.85 1210.86 3095.17 1198.76 3110.57 1198.76C3115.85 1198.76 3120.8 1200.19 3125.09 1203.6V1170.6H3138.62V1252ZM3125.09 1226.04C3125.09 1218.34 3118.6 1211.74 3110.57 1211.74C3102.65 1211.74 3096.16 1218.34 3096.16 1226.04C3096.16 1233.85 3102.65 1240.45 3110.57 1240.45C3118.6 1240.45 3125.09 1233.85 3125.09 1226.04ZM3212.95 1240.12V1252.11C3212.95 1252.11 3208.99 1253.43 3202.5 1253.43C3192.27 1253.43 3186.99 1246.72 3186.99 1236.49V1212.73H3178.74V1199.75H3186.99V1182.04H3200.52V1199.75H3214.38V1212.73H3200.52V1233.63C3200.52 1237.26 3201.51 1240.67 3206.35 1240.67C3209.76 1240.67 3212.95 1240.12 3212.95 1240.12ZM3279.23 1226.04C3279.23 1241.11 3266.91 1253.43 3251.4 1253.43C3236 1253.43 3223.68 1241.11 3223.68 1226.04C3223.68 1210.86 3236 1198.76 3251.4 1198.76C3266.91 1198.76 3279.23 1210.86 3279.23 1226.04ZM3265.92 1226.04C3265.92 1218.34 3259.43 1211.74 3251.4 1211.74C3243.48 1211.74 3236.99 1218.34 3236.99 1226.04C3236.99 1233.85 3243.48 1240.45 3251.4 1240.45C3259.43 1240.45 3265.92 1233.85 3265.92 1226.04ZM2680.27 1322.03V1331.38C2680.27 1352.28 2667.95 1370.43 2643.53 1370.43C2619.11 1370.43 2600.3 1352.17 2600.3 1328.52C2600.3 1305.2 2618.56 1286.17 2642.76 1286.17C2654.97 1286.17 2665.75 1291.01 2673.45 1298.82L2664.76 1308.72C2658.82 1301.9 2650.57 1299.37 2643.31 1299.37C2626.59 1299.37 2614.6 1312.79 2614.6 1328.52C2614.6 1344.47 2626.81 1357.23 2643.64 1357.23C2655.52 1357.23 2664.65 1350.85 2665.97 1335.89H2640.34V1322.03H2680.27ZM2708.8 1369H2695.27V1316.75H2708.8V1369ZM2702.09 1308.06C2697.25 1308.06 2693.51 1304.32 2693.51 1299.48C2693.51 1294.64 2697.25 1291.01 2702.09 1291.01C2706.93 1291.01 2710.56 1294.64 2710.56 1299.48C2710.56 1304.32 2706.93 1308.06 2702.09 1308.06ZM2753.51 1369H2739.32L2718.31 1316.75H2733.05L2746.36 1352.17L2759.78 1316.75H2774.52L2753.51 1369ZM2832.51 1347.33H2792.69C2794.23 1353.71 2799.4 1358.22 2807.21 1358.22C2811.94 1358.22 2817 1356.46 2820.08 1352.39L2829.32 1359.76C2824.59 1366.47 2816.23 1370.43 2807.32 1370.43C2791.59 1370.43 2779.49 1358.66 2779.49 1343.37C2779.49 1328.52 2789.94 1315.76 2806.55 1315.76C2821.95 1315.76 2832.84 1328.3 2832.84 1343.04C2832.84 1344.47 2832.73 1346.01 2832.51 1347.33ZM2793.13 1337.43H2819.2C2818.43 1332.15 2812.93 1328.08 2806.44 1328.08C2800.17 1328.08 2795.11 1331.82 2793.13 1337.43ZM2888.2 1369H2874.67V1316.75H2888.2V1369ZM2881.49 1308.06C2876.65 1308.06 2872.91 1304.32 2872.91 1299.48C2872.91 1294.64 2876.65 1291.01 2881.49 1291.01C2886.33 1291.01 2889.96 1294.64 2889.96 1299.48C2889.96 1304.32 2886.33 1308.06 2881.49 1308.06ZM2933.01 1357.12V1369.11C2933.01 1369.11 2929.05 1370.43 2922.56 1370.43C2912.33 1370.43 2907.05 1363.72 2907.05 1353.49V1329.73H2898.8V1316.75H2907.05V1299.04H2920.58V1316.75H2934.44V1329.73H2920.58V1350.63C2920.58 1354.26 2921.57 1357.67 2926.41 1357.67C2929.82 1357.67 2933.01 1357.12 2933.01 1357.12ZM3029.16 1369H3015.63V1365.59C3011.45 1369 3006.5 1370.43 3001.11 1370.43C2985.71 1370.43 2973.39 1358.11 2973.39 1343.04C2973.39 1327.86 2985.71 1315.76 3001.11 1315.76C3006.39 1315.76 3011.34 1317.19 3015.63 1320.6V1316.75H3029.16V1369ZM3015.63 1343.04C3015.63 1335.34 3009.14 1328.74 3001.11 1328.74C2993.19 1328.74 2986.7 1335.34 2986.7 1343.04C2986.7 1350.85 2993.19 1357.45 3001.11 1357.45C3009.14 1357.45 3015.63 1350.85 3015.63 1343.04ZM3150.35 1322.03V1331.38C3150.35 1352.28 3138.03 1370.43 3113.61 1370.43C3089.19 1370.43 3070.38 1352.17 3070.38 1328.52C3070.38 1305.2 3088.64 1286.17 3112.84 1286.17C3125.05 1286.17 3135.83 1291.01 3143.53 1298.82L3134.84 1308.72C3128.9 1301.9 3120.65 1299.37 3113.39 1299.37C3096.67 1299.37 3084.68 1312.79 3084.68 1328.52C3084.68 1344.47 3096.89 1357.23 3113.72 1357.23C3125.6 1357.23 3134.73 1350.85 3136.05 1335.89H3110.42V1322.03H3150.35ZM3216.39 1343.04C3216.39 1358.11 3204.07 1370.43 3188.56 1370.43C3173.16 1370.43 3160.84 1358.11 3160.84 1343.04C3160.84 1327.86 3173.16 1315.76 3188.56 1315.76C3204.07 1315.76 3216.39 1327.86 3216.39 1343.04ZM3203.08 1343.04C3203.08 1335.34 3196.59 1328.74 3188.56 1328.74C3180.64 1328.74 3174.15 1335.34 3174.15 1343.04C3174.15 1350.85 3180.64 1357.45 3188.56 1357.45C3196.59 1357.45 3203.08 1350.85 3203.08 1343.04Z" fill="#242424"/>
<path d="M250.94 1105H198.8V1023.6H213.21V1091.14H250.94V1105ZM312.247 1105H298.717V1101.59C294.537 1105 289.587 1106.43 284.197 1106.43C268.797 1106.43 256.477 1094.11 256.477 1079.04C256.477 1063.86 268.797 1051.76 284.197 1051.76C289.477 1051.76 294.427 1053.19 298.717 1056.6V1052.75H312.247V1105ZM298.717 1079.04C298.717 1071.34 292.227 1064.74 284.197 1064.74C276.277 1064.74 269.787 1071.34 269.787 1079.04C269.787 1086.85 276.277 1093.45 284.197 1093.45C292.227 1093.45 298.717 1086.85 298.717 1079.04ZM377.388 1105H363.858V1077.06C363.858 1066.94 358.468 1064.74 353.078 1064.74C347.688 1064.74 342.298 1066.83 342.298 1076.84V1105H328.768V1052.75H342.298V1056.6C345.268 1054.4 348.898 1051.76 356.048 1051.76C367.488 1051.76 377.388 1058.47 377.388 1074.86V1105ZM444.161 1105H430.631V1101.59C426.451 1105 421.501 1106.43 416.111 1106.43C400.711 1106.43 388.391 1094.11 388.391 1079.04C388.391 1063.86 400.711 1051.76 416.111 1051.76C421.391 1051.76 426.341 1053.19 430.631 1056.6V1023.6H444.161V1105ZM430.631 1079.04C430.631 1071.34 424.141 1064.74 416.111 1064.74C408.191 1064.74 401.701 1071.34 401.701 1079.04C401.701 1086.85 408.191 1093.45 416.111 1093.45C424.141 1093.45 430.631 1086.85 430.631 1079.04ZM541.48 1079.04C541.48 1094.11 529.16 1106.43 513.65 1106.43C498.25 1106.43 485.93 1094.11 485.93 1079.04C485.93 1063.86 498.25 1051.76 513.65 1051.76C529.16 1051.76 541.48 1063.86 541.48 1079.04ZM528.17 1079.04C528.17 1071.34 521.68 1064.74 513.65 1064.74C505.73 1064.74 499.24 1071.34 499.24 1079.04C499.24 1086.85 505.73 1093.45 513.65 1093.45C521.68 1093.45 528.17 1086.85 528.17 1079.04ZM602.222 1105H588.692V1077.06C588.692 1066.94 583.302 1064.74 577.912 1064.74C572.522 1064.74 567.132 1066.83 567.132 1076.84V1105H553.602V1052.75H567.132V1056.6C570.102 1054.4 573.732 1051.76 580.882 1051.76C592.322 1051.76 602.222 1058.47 602.222 1074.86V1105ZM233.366 1222H218.956V1185.92L189.476 1140.6H206.196L226.106 1172.39L246.126 1140.6H262.846L233.366 1185.81V1222ZM322.769 1196.04C322.769 1211.11 310.449 1223.43 294.939 1223.43C279.539 1223.43 267.219 1211.11 267.219 1196.04C267.219 1180.86 279.539 1168.76 294.939 1168.76C310.449 1168.76 322.769 1180.86 322.769 1196.04ZM309.459 1196.04C309.459 1188.34 302.969 1181.74 294.939 1181.74C287.019 1181.74 280.529 1188.34 280.529 1196.04C280.529 1203.85 287.019 1210.45 294.939 1210.45C302.969 1210.45 309.459 1203.85 309.459 1196.04ZM369.321 1196.81V1169.75H382.851V1200.44C382.851 1216.83 373.061 1223.43 358.321 1223.43C343.581 1223.43 333.791 1216.83 333.791 1200.44V1169.75H347.321V1196.81C347.321 1205.61 349.081 1210.45 358.321 1210.45C367.561 1210.45 369.321 1205.61 369.321 1196.81ZM411.8 1222H398.27V1169.75H411.8V1173.6C416.86 1169.86 421.81 1168.76 431.93 1168.76V1181.74C414.66 1181.74 411.8 1186.58 411.8 1195.6V1222ZM487.565 1222H473.155V1140.6H523.645V1154.46H487.565V1172.61H515.725V1186.47H487.565V1222ZM583.315 1200.33H543.495C545.035 1206.71 550.205 1211.22 558.015 1211.22C562.745 1211.22 567.805 1209.46 570.885 1205.39L580.125 1212.76C575.395 1219.47 567.035 1223.43 558.125 1223.43C542.395 1223.43 530.295 1211.66 530.295 1196.37C530.295 1181.52 540.745 1168.76 557.355 1168.76C572.755 1168.76 583.645 1181.3 583.645 1196.04C583.645 1197.47 583.535 1199.01 583.315 1200.33ZM543.935 1190.43H570.005C569.235 1185.15 563.735 1181.08 557.245 1181.08C550.975 1181.08 545.915 1184.82 543.935 1190.43ZM644.331 1200.33H604.511C606.051 1206.71 611.221 1211.22 619.031 1211.22C623.761 1211.22 628.821 1209.46 631.901 1205.39L641.141 1212.76C636.411 1219.47 628.051 1223.43 619.141 1223.43C603.411 1223.43 591.311 1211.66 591.311 1196.37C591.311 1181.52 601.761 1168.76 618.371 1168.76C633.771 1168.76 644.661 1181.3 644.661 1196.04C644.661 1197.47 644.551 1199.01 644.331 1200.33ZM604.951 1190.43H631.021C630.251 1185.15 624.751 1181.08 618.261 1181.08C611.991 1181.08 606.931 1184.82 604.951 1190.43ZM683.812 1210.12V1222.11C683.812 1222.11 679.852 1223.43 673.362 1223.43C663.132 1223.43 657.852 1216.72 657.852 1206.49V1182.73H649.602V1169.75H657.852V1152.04H671.382V1169.75H685.242V1182.73H671.382V1203.63C671.382 1207.26 672.372 1210.67 677.212 1210.67C680.622 1210.67 683.812 1210.12 683.812 1210.12Z" fill="#242424"/>
<path d="M1917.72 676.42L1806.22 730.815L1803.05 745.517L1917.72 689.654L1917.72 676.42Z" fill="#D9D9D9"/>
<path d="M2414.19 1285.31L2062.22 1166.66C2061.99 1166.6 2061.75 1166.6 2061.52 1166.54C2060.81 1166.35 2060.03 1166.29 2059.33 1166.16C2058.32 1166.04 2057.38 1165.91 2056.36 1165.97C2056.13 1165.97 2055.89 1165.91 2055.66 1165.91L1345.48 1238.86C1339.08 1239.49 1334.31 1243.86 1334.31 1248.99V1739.35H1321.03V1241.44C1321.03 1236.31 1325.8 1231.81 1332.36 1231.12L1394.61 1224.62V495.591L1091.08 580.234V1739.42C1084.05 1739.42 1078.27 1743.98 1078.27 1749.67C1078.27 1755.29 1083.97 1759.92 1091.08 1759.92H2404.33C2405.19 1759.92 2405.97 1759.67 2406.75 1759.54C2407.53 1759.67 2408.31 1759.92 2409.17 1759.92C2416.2 1759.92 2421.98 1755.36 2421.98 1749.67V1294.82C2421.98 1290.7 2418.94 1287.01 2414.17 1285.38L2414.19 1285.31ZM2396.46 1739.4H2070.04V1191.55L2396.46 1301.57V1739.4ZM1359.87 1440.91L2044.41 1409.97V1496.17L1359.87 1518.05V1440.91ZM2044.41 1389.46L1359.87 1420.41V1351.96L2044.41 1300.2V1389.46ZM1359.87 1538.56L2044.41 1516.68V1608.51H1359.87V1538.56ZM2044.41 1187.73V1279.69L1359.87 1331.45V1258.06L2044.41 1187.73ZM1359.87 1628.94H2044.41V1739.34L1359.87 1739.4V1628.94ZM2311.86 1241.36L2115.1 1174.03V718.132L2311.86 820.09V1241.36ZM1683.16 1194.6L1420.72 1221.98V500.087L1683.16 636.115V1194.6ZM2055.67 1155.72L1860.63 1176.03V777.262L2089.1 713.561V1165.03L2064.42 1156.59C2062.62 1155.84 2060.59 1155.4 2058.41 1155.4C2057.47 1155.4 2056.53 1155.47 2055.67 1155.65L2055.67 1155.72Z" fill="#64A70B"/>
<path d="M1483.77 837.959C1495.26 861.344 1522.09 873.978 1553.79 880.227L1553.74 880.273C1569.73 908.481 1591.55 932.923 1617.74 952.081C1641.12 970.412 1667.86 984.103 1696.39 992.418C1698.14 996.047 1699.97 999.631 1701.99 1003.12C1703.19 1017.41 1704.71 1032.57 1706.27 1048.33C1714.67 1131.12 1722.48 1198.14 1750.92 1195.3C1776.56 1192.68 1792.23 1135.99 1788.92 1064.22H1788.96C1798.47 1066.2 1808.12 1067.48 1817.82 1067.99C1909.84 1073.09 1913.47 1003.67 1895.96 936.132C1896.47 936.04 1896.93 935.994 1897.43 935.902C1928.95 928.046 1955.73 907.372 1971.35 878.934C1987.57 848.841 1999.06 816.452 2005.44 782.914C2021.71 715.333 2031.68 691.627 2079.82 691.535H2079.96V691.489C2089.7 691.076 2099.07 695.119 2105.41 702.516C2109.73 707.294 2111.8 713.634 2111.2 719.974C2107.85 738.121 2119.79 755.533 2137.89 758.887C2156 762.287 2173.41 750.388 2176.81 732.241C2181.13 706.33 2173.73 679.821 2156.73 659.789C2137.62 637.277 2109.46 624.414 2079.96 624.735H2079.64C1974.75 625.011 1955 707.247 1940.53 767.293C1935.57 794.122 1926.7 820.126 1914.2 844.384C1911.68 848.611 1908.78 852.562 1905.57 856.237C1915.26 796.144 1919.21 735.226 1917.33 674.35C1982.43 653.308 2044 596.432 2070.82 562.71C2113.46 509.187 2140.56 364.605 2089.8 352.02C2055.07 343.429 2072.43 402.603 2018.77 483.687V483.733C1995.62 517.638 1958.22 539.184 1917.24 542.263C1967.04 514.652 1999.8 467.792 1999.8 414.678C1999.7 392.809 1994.1 371.354 1983.58 352.197C1984.41 350.221 1985.28 348.245 1986.06 346.224V346.27C2007.19 288.98 2003.56 225.483 1976 171.052C1928.86 189.429 1889.31 223.15 1863.67 266.795C1854.44 264.636 1845.02 263.074 1835.55 262.155C1829.08 215.385 1808.54 171.695 1776.7 136.875C1735.08 176.844 1709.95 230.964 1706.27 288.535C1657.85 316.33 1626.1 362.41 1626.1 414.698C1626.1 484.621 1682.84 543.565 1760.49 562.218L1760.44 562.356C1757.73 562.724 1652.94 575.863 1598.63 517.471C1540.05 454.484 1559.53 410.425 1521.13 415.158C1482.67 419.89 1514.05 537.874 1560.54 579.45H1560.5C1600.28 615.56 1646.92 643.401 1697.63 661.227C1678.98 681.257 1659.18 700.14 1638.28 717.827C1599.5 700.553 1557.69 693.432 1524.98 716.541C1524.29 714.382 1523.6 712.176 1522.92 710.017C1496.73 630.996 1453.5 574.258 1426.35 583.267C1399.19 592.271 1419.45 656.637 1445.64 735.657C1461.49 783.436 1469.94 815.861 1483.77 837.959Z" fill="black"/>
<circle cx="1863.33" cy="422.084" r="64.6866" fill="#D9D9D9"/>
<circle cx="1719.25" cy="389.74" r="64.6866" fill="#D9D9D9"/>
<path d="M1848.62 391.21C1855.81 391.21 1862.69 395.175 1867.94 402.326C1873.18 409.475 1876.56 419.565 1876.56 430.904C1876.56 442.244 1873.18 452.334 1867.94 459.482C1862.69 466.634 1855.81 470.598 1848.62 470.599C1841.44 470.599 1834.55 466.634 1829.31 459.482C1824.07 452.334 1820.69 442.244 1820.69 430.904C1820.69 419.565 1824.07 409.475 1829.31 402.326C1834.55 395.175 1841.44 391.21 1848.62 391.21Z" fill="#64A70B" stroke="black" stroke-width="8.8209"/>
<path d="M1707.49 358.866C1714.68 358.866 1721.56 362.831 1726.81 369.982C1732.05 377.131 1735.42 387.221 1735.42 398.561C1735.42 409.9 1732.05 419.99 1726.81 427.139C1721.56 434.29 1714.68 438.255 1707.49 438.255C1700.3 438.255 1693.42 434.29 1688.18 427.139C1682.94 419.99 1679.56 409.9 1679.56 398.561C1679.56 387.221 1682.94 377.131 1688.18 369.982C1693.42 362.831 1700.3 358.866 1707.49 358.866Z" fill="#64A70B" stroke="black" stroke-width="8.8209"/>
<path d="M1775.66 489.296C1772.81 491.257 1768.9 490.354 1767.2 487.344L1759.3 473.343C1756.78 468.89 1760.76 463.573 1765.74 464.723L1786.88 469.601C1791.86 470.75 1793.11 477.271 1788.9 480.173L1775.66 489.296Z" fill="#D9D9D9"/>
<path d="M1769.24 495.591C1758.23 510.054 1750.76 510.054 1750.76 510.054C1750.76 510.054 1738.67 512.961 1733.95 498.483" stroke="#908F8F" stroke-width="5.8806" stroke-linecap="round"/>
<path d="M1774.53 497.207C1783.88 514.052 1791.47 515.535 1791.47 515.535C1791.47 515.535 1803.39 520.881 1810.03 507.143" stroke="#908F8F" stroke-width="5.8806" stroke-linecap="round"/>
<path d="M1952.2 528.6C1956.11 527.756 1959.12 530.223 1960.43 532.578C1961.78 534.997 1962.26 538.843 1959.61 541.821C1946.3 556.752 1937.98 577.156 1938.3 601.383C1938.42 610.378 1941.71 621.264 1945.76 631.239C1949.77 641.115 1954.35 649.656 1956.71 653.829C1958.8 657.542 1957.35 662.291 1953.46 664.155L1922.08 679.217C1921.89 690.143 1921.21 731.701 1921.16 762.703C1921.15 766.653 1918.03 769.874 1914.1 770.032L1795.04 774.831C1791.89 774.957 1789.01 773.065 1787.88 770.125L1781.59 753.776C1781.09 752.477 1780.97 751.061 1781.24 749.695L1802.94 641.226L1803 640.937C1803.35 639.501 1804.12 638.2 1805.23 637.207L1913.27 539.833L1913.6 539.551C1914.39 538.918 1915.31 538.454 1916.29 538.192L1951.82 528.692L1952.2 528.6ZM1758.83 557.343C1761.46 557.437 1763.84 558.935 1765.07 561.267L1765.19 561.503L1800.7 635.38C1801.41 636.846 1801.61 638.506 1801.27 640.097L1778.21 748.179C1777.8 750.095 1776.64 751.769 1775 752.829L1757.1 764.333C1754.6 765.943 1751.37 765.884 1748.92 764.182L1661.56 703.324C1658.46 701.166 1657.51 697.006 1659.35 693.714L1660.37 691.912C1670.01 674.871 1677.11 665.168 1681.24 660.14L1644.66 641.851C1639.18 639.111 1639.33 631.484 1644.34 628.608L1645.46 627.954C1651.29 624.531 1660.14 618.759 1667.67 611.498C1675.65 603.797 1682.12 597.061 1685.72 590.056C1689.16 583.383 1690.01 576.454 1686.46 567.916C1684.55 563.319 1687.56 557.338 1693.34 557.338L1758.56 557.337L1758.83 557.343Z" fill="#FE5000" stroke="black" stroke-width="8.8209"/>
<path d="M1681.91 659.077C1683.53 656.935 1686.5 656.82 1688.34 658.395L1688.52 658.558L1692.06 661.932C1709.38 678.382 1721.45 688.654 1733.94 696.993C1747.26 705.887 1761.19 712.679 1782.78 722.369L1782.96 722.458C1784.78 723.375 1785.83 725.493 1785.24 727.613L1785.17 727.825L1783.72 732.179C1782.86 734.767 1780.04 735.815 1777.78 734.866C1755.83 725.608 1741.87 718.879 1728.04 709.561C1714.27 700.287 1700.74 688.528 1679.56 669.42C1678.01 668.019 1677.56 665.582 1678.84 663.658L1681.76 659.297L1681.91 659.077Z" fill="#D9D9D9" stroke="black" stroke-width="8.8209"/>
<path d="M1668.67 679.664C1670.3 677.494 1673.34 677.392 1675.18 679.04C1715.35 715.102 1728 723.448 1774.27 748.987C1776.69 750.323 1777.49 753.792 1775.27 756.013L1772.37 758.911C1770.93 760.353 1768.77 760.577 1767.1 759.67C1720.96 734.53 1703.29 722.533 1666.37 690.039C1664.76 688.625 1664.33 686.161 1665.61 684.242L1668.52 679.88L1668.67 679.664Z" fill="#D9D9D9" stroke="black" stroke-width="8.8209"/>
<path d="M1784.07 728.275L1782.6 734.156L1780.85 741.142L1787.87 739.522C1825.97 730.729 1878.47 718.5 1920.27 688.837L1922.13 687.518L1922.13 685.24L1922.13 676.42L1922.13 668.055L1915.23 672.78C1874.48 700.677 1831.3 713.327 1787.21 725.084L1784.7 725.753L1784.07 728.275Z" fill="#D9D9D9" stroke="black" stroke-width="8.8209"/>
<path d="M1782.6 756.207L1781.13 762.089L1779.46 768.772L1786.23 767.492C1813.46 762.339 1839.57 756.745 1862.52 749.473C1885.44 742.212 1905.52 733.185 1920.5 721L1922.13 719.677L1922.13 717.578L1922.13 710.232L1922.13 701.59L1915.13 706.662C1876.58 734.61 1837.83 739.622 1785.78 753.006L1783.24 753.659L1782.6 756.207Z" fill="#D9D9D9" stroke="black" stroke-width="8.8209"/>
<path d="M1943.18 670.073C1945.41 668.966 1946.19 666.309 1945.18 664.212L1945.08 664.005L1943.76 661.574C1930.35 636.593 1923.94 615.791 1924.13 596.569C1924.33 576.828 1931.49 558.19 1946.28 537.883C1948.5 534.829 1945.97 529.924 1941.64 531.007L1929.88 533.947C1928.8 534.217 1927.89 534.876 1927.3 535.758C1913.54 556.139 1907.06 575.294 1907.36 597.09C1907.65 618.684 1914.59 642.501 1926.88 672.224C1927.74 674.303 1930.25 675.643 1932.7 674.59L1942.95 670.178L1943.18 670.073Z" fill="#D9D9D9" stroke="black" stroke-width="8.8209"/>
<path d="M1701.61 561.859C1702.2 585.121 1702 593.807 1696.54 601.955C1693.72 606.162 1689.36 610.41 1682.29 616.244C1675.2 622.095 1665.91 629.133 1653.29 639.155L1648.32 643.109L1653.76 646.387L1661.1 650.801L1663.76 652.403L1666.16 650.438C1679.58 639.479 1689.54 630.981 1696.9 623.803C1704.25 616.625 1709.2 610.583 1712.41 604.493C1718.86 592.256 1717.81 580.448 1717.78 561.742L1717.78 557.341L1713.38 557.339L1706.02 557.336L1701.49 557.334L1701.61 561.859Z" fill="#D9D9D9" stroke="black" stroke-width="8.8209"/>
<mask id="mask0_2038_1327" style="mask-type:alpha" maskUnits="userSpaceOnUse" x="1585" y="125" width="363" height="205">
<path d="M1723.49 152.57C1397.3 439.725 1749.14 285.334 1776.59 310.353C1860.68 331.64 1836.85 288.904 1888.31 232.467C1923.74 193.605 1965.76 183.953 1938.32 158.934C1910.88 133.916 1769.52 102.082 1723.49 152.57Z" fill="#D9D9D9"/>
</mask>
<g mask="url(#mask0_2038_1327)">
<path d="M1746.68 229.551C1744.58 234.415 1742.69 236.915 1739.89 247.202C1746.44 258.612 1763.8 266.75 1774.81 260.44C1785.82 254.131 1789.44 239.766 1782.89 228.356C1776.35 216.946 1757.69 223.242 1746.68 229.551Z" fill="#FFCD00"/>
<path d="M1821.38 184.943C1842.52 187.141 1861.98 197.437 1875.69 213.674C1889.41 229.919 1896.29 250.847 1894.91 272.062L1894.79 273.901L1895.95 275.332L1906.8 288.704L1906.8 288.705C1907.19 289.188 1907.43 289.775 1907.49 290.394C1907.55 291.012 1907.43 291.634 1907.13 292.183L1907.13 292.184C1906.84 292.733 1906.4 293.184 1905.85 293.481C1905.3 293.778 1904.68 293.909 1904.06 293.855L1856.21 289.703L1839.29 288.235L1853.05 298.2L1872.51 312.3C1872.85 312.545 1873.13 312.853 1873.34 313.206C1873.56 313.563 1873.71 313.959 1873.77 314.372C1873.84 314.784 1873.82 315.207 1873.72 315.613C1873.62 316.019 1873.45 316.403 1873.2 316.74C1872.95 317.078 1872.64 317.365 1872.29 317.583C1871.93 317.801 1871.53 317.946 1871.12 318.011C1870.71 318.076 1870.29 318.059 1869.88 317.961C1869.47 317.862 1869.09 317.685 1868.75 317.439L1868.74 317.431L1831.58 290.529L1831.57 290.524L1831.56 290.52L1831.43 290.421C1831.14 290.183 1830.89 289.891 1830.7 289.561L1829.48 287.419L1827.02 287.205L1791.51 284.118L1791.51 284.118C1764.7 281.75 1704.39 283.355 1700.06 283.476L1699.54 283.442C1698.85 283.397 1698.19 283.124 1697.66 282.668C1697.14 282.212 1696.78 281.596 1696.64 280.917C1696.51 280.237 1696.59 279.53 1696.89 278.905C1697.2 278.281 1697.69 277.771 1698.31 277.457L1731.57 260.589L1733.77 259.472L1734.1 257.026C1734.6 253.36 1735.33 249.731 1736.29 246.161L1765.88 248.109C1769.21 248.328 1772.49 247.215 1774.99 245.017C1777.5 242.819 1779.03 239.714 1779.25 236.386C1779.47 233.058 1778.36 229.779 1776.16 227.27C1773.96 224.762 1770.86 223.23 1767.53 223.011L1747.29 221.678C1751.49 215.275 1756.55 209.468 1762.35 204.431L1762.37 204.414C1770.4 197.36 1779.77 192 1789.92 188.655C1800.05 185.316 1810.75 184.054 1821.38 184.943Z" fill="#FFCD00" stroke="black" stroke-width="9.40896"/>
</g>
<ellipse cx="1766.54" cy="237.895" rx="44.2406" ry="21.1846" transform="rotate(122.101 1766.54 237.895)" fill="#FFCD00"/>
<rect x="1768.29" y="225.083" width="52.9254" height="38.2239" rx="5.8806" transform="rotate(2.99777 1768.29 225.083)" fill="black"/>
<line x1="1777.99" y1="239.939" x2="1810.29" y2="241.63" stroke="#FBFF00" stroke-width="2.9403"/>
<line x1="1777.38" y1="251.684" x2="1809.68" y2="253.375" stroke="#ED1818" stroke-width="2.9403"/>
<path d="M1707 1105L1629.63 1066.08L1634.61 1152.54L1707 1105ZM752 1160L752.431 1167.49L1640.04 1116.37L1639.61 1108.88L1639.18 1101.39L751.569 1152.51L752 1160Z" fill="#ED1818"/>
<path d="M1939 1033.23L1991.51 1102.09L2024.9 1022.19L1939 1033.23ZM2544 1286L2546.89 1279.08L2004.17 1052.33L2001.28 1059.25L1998.39 1066.17L2541.11 1292.92L2544 1286Z" fill="#ED1818"/>
<path d="M2178 661.227L2263.98 650.871L2212.02 581.587L2178 661.227ZM2597 347L2592.5 341L2227.5 614.728L2232 620.729L2236.5 626.729L2601.5 353L2597 347Z" fill="#ED1818"/>
<path d="M1622 391L1551.81 340.266L1542.97 426.416L1622 391ZM794 306L793.234 313.461L1554.09 391.568L1554.85 384.107L1555.62 376.646L794.766 298.539L794 306Z" fill="#ED1818"/>
<path d="M2688.59 506.552L2694.09 512.046C2688.35 517.622 2680.89 521.066 2672.19 521.066C2654.97 521.066 2640.62 507.372 2640.62 489.66C2640.62 472.276 2654.48 458.336 2672.28 458.336C2681.21 458.336 2689.17 461.862 2694.99 467.848L2689 473.096C2684.66 468.504 2678.75 465.962 2672.44 465.962C2659.32 465.962 2648.99 477.114 2648.99 489.742C2648.99 502.616 2659.65 513.44 2672.19 513.44C2678.59 513.44 2684.41 510.652 2688.59 506.552ZM2729.99 501.96V481.05H2737.86V504.174C2737.86 516.392 2731.06 521.066 2720.15 521.066C2709.25 521.066 2702.44 516.392 2702.44 504.174V481.05H2710.39V501.96C2710.39 509.258 2712.12 513.686 2720.15 513.686C2728.27 513.686 2729.99 509.258 2729.99 501.96ZM2758.22 520H2750.34V481.05H2758.22V485.724C2761.99 481.214 2765.84 480.312 2773.39 480.312V487.856C2760.51 487.856 2758.22 493.104 2758.22 499.828V520ZM2789.29 520H2781.33V481.05H2789.29V520ZM2785.35 473.342C2782.48 473.342 2780.27 471.128 2780.27 468.258C2780.27 465.388 2782.48 463.174 2785.35 463.174C2788.22 463.174 2790.35 465.388 2790.35 468.258C2790.35 471.128 2788.22 473.342 2785.35 473.342ZM2840.11 500.73C2840.11 511.882 2830.85 521.066 2819.53 521.066C2808.3 521.066 2799.11 511.964 2799.11 500.73C2799.11 489.578 2808.13 480.312 2819.53 480.312C2830.85 480.312 2840.11 489.496 2840.11 500.73ZM2832.32 500.648C2832.32 493.596 2826.67 487.774 2819.61 487.774C2812.32 487.774 2806.9 493.924 2806.9 500.812C2806.9 507.782 2812.48 513.686 2819.61 513.686C2826.83 513.686 2832.32 507.618 2832.32 500.648ZM2876.77 501.96V481.05H2884.65V504.174C2884.65 516.392 2877.84 521.066 2866.93 521.066C2856.03 521.066 2849.22 516.392 2849.22 504.174V481.05H2857.18V501.96C2857.18 509.258 2858.9 513.686 2866.93 513.686C2875.05 513.686 2876.77 509.258 2876.77 501.96ZM2893.27 515.982L2897.54 509.914C2901.47 513.112 2905.65 513.932 2908.44 513.932C2912.62 513.932 2914.92 512.128 2914.92 509.504C2914.92 501.796 2894.67 506.552 2894.67 492.53C2894.67 485.396 2899.91 480.312 2908.03 480.312C2911.31 480.312 2916.81 481.132 2921.23 484.74L2917.05 490.562C2913.61 488.02 2910.16 487.528 2908.11 487.528C2904.18 487.528 2902.46 489.496 2902.46 491.628C2902.46 499.008 2922.63 494.99 2922.63 509.012C2922.63 516.474 2916.97 521.066 2908.2 521.066C2902.37 521.066 2897.29 519.016 2893.27 515.982ZM2992.91 520H2985.04V515.408C2981.76 519.262 2977.25 521.066 2972 521.066C2960.44 521.066 2951.42 512.128 2951.42 500.73C2951.42 489.168 2960.61 480.312 2972 480.312C2977.25 480.312 2981.68 482.198 2985.04 486.052V481.05H2992.91V520ZM2984.88 500.73C2984.88 493.678 2979.38 487.774 2972 487.774C2964.71 487.774 2959.21 493.514 2959.21 500.73C2959.21 508.028 2964.71 513.686 2972 513.686C2979.47 513.686 2984.88 507.782 2984.88 500.73ZM3041.29 520H3033.34V499.582C3033.34 491.792 3030.3 487.774 3023.83 487.774C3017.1 487.774 3013.9 492.12 3013.9 500.156V520H3006.03V481.05H3013.9V485.232C3016.53 482.28 3019.73 480.312 3025.22 480.312C3034.49 480.312 3041.29 485.724 3041.29 497.942V520ZM3091.81 520H3083.94V515.408C3080.66 519.262 3076.15 521.066 3070.9 521.066C3059.34 521.066 3050.32 512.128 3050.32 500.73C3050.32 489.168 3059.5 480.312 3070.9 480.312C3076.15 480.312 3080.58 482.198 3083.94 486.052V459.32H3091.81V520ZM3083.78 500.73C3083.78 493.678 3078.28 487.774 3070.9 487.774C3063.6 487.774 3058.11 493.514 3058.11 500.73C3058.11 508.028 3063.6 513.686 3070.9 513.686C3078.36 513.686 3083.78 507.782 3083.78 500.73ZM3163.44 503.354H3131.54C3132.61 509.34 3137.53 513.932 3144.17 513.932C3148.43 513.932 3152.61 512.046 3155.07 508.602L3160.65 512.866C3157.04 517.95 3150.89 521.066 3144.17 521.066C3132.85 521.066 3123.75 512.21 3123.75 500.73C3123.75 489.824 3132.03 480.312 3143.68 480.312C3155.24 480.312 3163.6 489.742 3163.6 500.648C3163.6 501.714 3163.52 502.534 3163.44 503.354ZM3131.79 497.122H3155.57C3154.66 491.71 3149.91 487.528 3143.76 487.528C3137.69 487.528 3133.18 491.628 3131.79 497.122ZM3211.45 520H3203.58V515.408C3200.3 519.262 3195.79 521.066 3190.54 521.066C3178.98 521.066 3169.96 512.128 3169.96 500.73C3169.96 489.168 3179.14 480.312 3190.54 480.312C3195.79 480.312 3200.21 482.198 3203.58 486.052V481.05H3211.45V520ZM3203.41 500.73C3203.41 493.678 3197.92 487.774 3190.54 487.774C3183.24 487.774 3177.75 493.514 3177.75 500.73C3177.75 508.028 3183.24 513.686 3190.54 513.686C3198 513.686 3203.41 507.782 3203.41 500.73ZM3254.91 518.196V515.408C3251.63 519.262 3247.12 521.066 3241.87 521.066C3230.31 521.066 3221.29 512.128 3221.29 500.73C3221.29 489.168 3230.47 480.312 3241.87 480.312C3247.12 480.312 3251.54 482.198 3254.91 486.052V481.05H3262.78V516.802C3262.78 536.318 3250.89 540.746 3242.11 540.746C3234.24 540.746 3227.93 537.138 3224.24 531.234L3231.54 528.118C3233.83 531.398 3237.11 533.366 3242.03 533.366C3248.76 533.366 3254.91 529.676 3254.91 518.196ZM3254.74 500.73C3254.74 493.678 3249.25 487.774 3241.87 487.774C3234.57 487.774 3229.08 493.514 3229.08 500.73C3229.08 508.028 3234.57 513.686 3241.87 513.686C3249.33 513.686 3254.74 507.782 3254.74 500.73ZM3312.3 503.354H3280.41C3281.47 509.34 3286.39 513.932 3293.03 513.932C3297.3 513.932 3301.48 512.046 3303.94 508.602L3309.52 512.866C3305.91 517.95 3299.76 521.066 3293.03 521.066C3281.72 521.066 3272.62 512.21 3272.62 500.73C3272.62 489.824 3280.9 480.312 3292.54 480.312C3304.1 480.312 3312.47 489.742 3312.47 500.648C3312.47 501.714 3312.39 502.534 3312.3 503.354ZM3280.65 497.122H3304.43C3303.53 491.71 3298.77 487.528 3292.62 487.528C3286.56 487.528 3282.05 491.628 3280.65 497.122ZM3329.97 520H3322.1V481.05H3329.97V485.724C3333.75 481.214 3337.6 480.312 3345.14 480.312V487.856C3332.27 487.856 3329.97 493.104 3329.97 499.828V520ZM2662.61 600.112V607.164C2661.79 607.492 2659.33 608.066 2656.46 608.066C2646.87 608.066 2645.14 601.752 2645.14 595.028V575.512H2638.99V568.05H2645.14V554.848H2653.1V568.05H2663.68V575.512H2653.1V594.126C2653.1 598.554 2654.08 600.686 2658.26 600.686C2659.66 600.686 2661.79 600.44 2662.61 600.112ZM2710.55 587.73C2710.55 598.882 2701.28 608.066 2689.97 608.066C2678.73 608.066 2669.55 598.964 2669.55 587.73C2669.55 576.578 2678.57 567.312 2689.97 567.312C2701.28 567.312 2710.55 576.496 2710.55 587.73ZM2702.76 587.648C2702.76 580.596 2697.1 574.774 2690.05 574.774C2682.75 574.774 2677.34 580.924 2677.34 587.812C2677.34 594.782 2682.91 600.686 2690.05 600.686C2697.26 600.686 2702.76 594.618 2702.76 587.648ZM2760.14 600.112V607.164C2759.32 607.492 2756.86 608.066 2753.99 608.066C2744.4 608.066 2742.68 601.752 2742.68 595.028V575.512H2736.53V568.05H2742.68V554.848H2750.63V568.05H2761.21V575.512H2750.63V594.126C2750.63 598.554 2751.62 600.686 2755.8 600.686C2757.19 600.686 2759.32 600.44 2760.14 600.112ZM2778.23 607H2770.36V568.05H2778.23V572.724C2782.01 568.214 2785.86 567.312 2793.4 567.312V574.856C2780.53 574.856 2778.23 580.104 2778.23 586.828V607ZM2812.18 627.746H2804.39L2811.52 607.738L2795.61 568.05H2804.22L2815.37 597.324L2825.87 568.05H2833.74L2812.18 627.746ZM2898.51 607H2890.56V586.582C2890.56 578.792 2887.53 574.774 2881.05 574.774C2874.32 574.774 2871.13 579.12 2871.13 587.156V607H2863.25V568.05H2871.13V572.232C2873.75 569.28 2876.95 567.312 2882.44 567.312C2891.71 567.312 2898.51 572.724 2898.51 584.942V607ZM2947.23 590.354H2915.33C2916.4 596.34 2921.32 600.932 2927.96 600.932C2932.22 600.932 2936.4 599.046 2938.86 595.602L2944.44 599.866C2940.83 604.95 2934.68 608.066 2927.96 608.066C2916.64 608.066 2907.54 599.21 2907.54 587.73C2907.54 576.824 2915.82 567.312 2927.47 567.312C2939.03 567.312 2947.39 576.742 2947.39 587.648C2947.39 588.714 2947.31 589.534 2947.23 590.354ZM2915.58 584.122H2939.36C2938.45 578.71 2933.7 574.528 2927.55 574.528C2921.48 574.528 2916.97 578.628 2915.58 584.122ZM3002.04 607H2993.84L2984 578.956L2974.24 607H2965.88L2951.28 568.05H2959.98L2970.06 596.75L2980.31 568.05H2987.61L2997.86 596.75L3007.95 568.05H3016.72L3002.04 607ZM3063.88 600.112V607.164C3063.06 607.492 3060.6 608.066 3057.73 608.066C3048.14 608.066 3046.42 601.752 3046.42 595.028V575.512H3040.27V568.05H3046.42V554.848H3054.37V568.05H3064.95V575.512H3054.37V594.126C3054.37 598.554 3055.35 600.686 3059.54 600.686C3060.93 600.686 3063.06 600.44 3063.88 600.112ZM3109.36 607H3101.41V586.582C3101.41 578.792 3098.37 574.774 3091.89 574.774C3085.17 574.774 3081.97 579.12 3081.97 587.156V607H3074.1V546.32H3081.97V572.232C3084.6 569.28 3087.79 567.312 3093.29 567.312C3102.55 567.312 3109.36 572.724 3109.36 584.942V607ZM3129.62 607H3121.67V568.05H3129.62V607ZM3125.68 560.342C3122.81 560.342 3120.6 558.128 3120.6 555.258C3120.6 552.388 3122.81 550.174 3125.68 550.174C3128.55 550.174 3130.69 552.388 3130.69 555.258C3130.69 558.128 3128.55 560.342 3125.68 560.342ZM3177.99 607H3170.03V586.582C3170.03 578.792 3167 574.774 3160.52 574.774C3153.8 574.774 3150.6 579.12 3150.6 587.156V607H3142.73V568.05H3150.6V572.232C3153.22 569.28 3156.42 567.312 3161.91 567.312C3171.18 567.312 3177.99 572.724 3177.99 584.942V607ZM3220.63 605.196V602.408C3217.35 606.262 3212.84 608.066 3207.59 608.066C3196.03 608.066 3187.01 599.128 3187.01 587.73C3187.01 576.168 3196.2 567.312 3207.59 567.312C3212.84 567.312 3217.27 569.198 3220.63 573.052V568.05H3228.5V603.802C3228.5 623.318 3216.61 627.746 3207.84 627.746C3199.97 627.746 3193.65 624.138 3189.96 618.234L3197.26 615.118C3199.56 618.398 3202.84 620.366 3207.76 620.366C3214.48 620.366 3220.63 616.676 3220.63 605.196ZM3220.47 587.73C3220.47 580.678 3214.97 574.774 3207.59 574.774C3200.3 574.774 3194.8 580.514 3194.8 587.73C3194.8 595.028 3200.3 600.686 3207.59 600.686C3215.06 600.686 3220.47 594.782 3220.47 587.73ZM3237.77 602.982L3242.03 596.914C3245.97 600.112 3250.15 600.932 3252.94 600.932C3257.12 600.932 3259.42 599.128 3259.42 596.504C3259.42 588.796 3239.16 593.552 3239.16 579.53C3239.16 572.396 3244.41 567.312 3252.53 567.312C3255.81 567.312 3261.3 568.132 3265.73 571.74L3261.55 577.562C3258.1 575.02 3254.66 574.528 3252.61 574.528C3248.67 574.528 3246.95 576.496 3246.95 578.628C3246.95 586.008 3267.12 581.99 3267.12 596.012C3267.12 603.474 3261.47 608.066 3252.69 608.066C3246.87 608.066 3241.79 606.016 3237.77 602.982ZM3283.82 607.492C3280.95 607.492 3278.74 605.278 3278.74 602.408C3278.74 599.538 3280.95 597.406 3283.82 597.406C3286.69 597.406 3288.82 599.538 3288.82 602.408C3288.82 605.278 3286.69 607.492 3283.82 607.492Z" fill="black"/>
<path d="M2612.33 1495H2603.97V1434.32H2622.42C2635.46 1434.32 2644.07 1441.04 2644.07 1453.92C2644.07 1466.22 2636.2 1473.52 2622.42 1473.52H2612.33V1495ZM2612.33 1465.56H2622.26C2630.21 1465.56 2635.7 1462.12 2635.7 1454C2635.7 1446.54 2631.19 1442.27 2622.26 1442.27H2612.33V1465.56ZM2661.16 1495H2653.29V1456.05H2661.16V1460.72C2664.93 1456.21 2668.79 1455.31 2676.33 1455.31V1462.86C2663.46 1462.86 2661.16 1468.1 2661.16 1474.83V1495ZM2720.69 1478.35H2688.79C2689.85 1484.34 2694.77 1488.93 2701.42 1488.93C2705.68 1488.93 2709.86 1487.05 2712.32 1483.6L2717.9 1487.87C2714.29 1492.95 2708.14 1496.07 2701.42 1496.07C2690.1 1496.07 2681 1487.21 2681 1475.73C2681 1464.82 2689.28 1455.31 2700.92 1455.31C2712.49 1455.31 2720.85 1464.74 2720.85 1475.65C2720.85 1476.71 2720.77 1477.53 2720.69 1478.35ZM2689.03 1472.12H2712.81C2711.91 1466.71 2707.16 1462.53 2701.01 1462.53C2694.94 1462.53 2690.43 1466.63 2689.03 1472.12ZM2739.01 1495H2731.06V1463.51H2725.32V1456.05H2731.06V1447.03C2731.06 1439.57 2734.5 1434.32 2743.03 1434.32C2745.16 1434.32 2747.62 1434.65 2749.51 1435.22V1442.27C2748.69 1442.03 2746.47 1441.7 2744.83 1441.7C2740.65 1441.7 2739.01 1443.67 2739.01 1449.65V1456.05H2748.69V1463.51H2739.01V1495ZM2794.12 1478.35H2762.22C2763.29 1484.34 2768.21 1488.93 2774.85 1488.93C2779.11 1488.93 2783.29 1487.05 2785.75 1483.6L2791.33 1487.87C2787.72 1492.95 2781.57 1496.07 2774.85 1496.07C2763.53 1496.07 2754.43 1487.21 2754.43 1475.73C2754.43 1464.82 2762.71 1455.31 2774.36 1455.31C2785.92 1455.31 2794.28 1464.74 2794.28 1475.65C2794.28 1476.71 2794.2 1477.53 2794.12 1478.35ZM2762.47 1472.12H2786.25C2785.34 1466.71 2780.59 1462.53 2774.44 1462.53C2768.37 1462.53 2763.86 1466.63 2762.47 1472.12ZM2811.79 1495H2803.92V1456.05H2811.79V1460.72C2815.56 1456.21 2819.41 1455.31 2826.96 1455.31V1462.86C2814.08 1462.86 2811.79 1468.1 2811.79 1474.83V1495ZM2830.65 1490.98L2834.92 1484.91C2838.85 1488.11 2843.03 1488.93 2845.82 1488.93C2850 1488.93 2852.3 1487.13 2852.3 1484.5C2852.3 1476.8 2832.05 1481.55 2832.05 1467.53C2832.05 1460.4 2837.29 1455.31 2845.41 1455.31C2848.69 1455.31 2854.19 1456.13 2858.61 1459.74L2854.43 1465.56C2850.99 1463.02 2847.54 1462.53 2845.49 1462.53C2841.56 1462.53 2839.84 1464.5 2839.84 1466.63C2839.84 1474.01 2860.01 1469.99 2860.01 1484.01C2860.01 1491.47 2854.35 1496.07 2845.58 1496.07C2839.75 1496.07 2834.67 1494.02 2830.65 1490.98ZM2927.34 1495H2919.39V1474.58C2919.39 1466.79 2916.35 1462.77 2909.88 1462.77C2903.15 1462.77 2899.95 1467.12 2899.95 1475.16V1495H2892.08V1434.32H2899.95V1460.23C2902.58 1457.28 2905.78 1455.31 2911.27 1455.31C2920.54 1455.31 2927.34 1460.72 2927.34 1472.94V1495ZM2977.86 1495H2969.99V1490.41C2966.71 1494.26 2962.2 1496.07 2956.95 1496.07C2945.39 1496.07 2936.37 1487.13 2936.37 1475.73C2936.37 1464.17 2945.55 1455.31 2956.95 1455.31C2962.2 1455.31 2966.63 1457.2 2969.99 1461.05V1456.05H2977.86V1495ZM2969.82 1475.73C2969.82 1468.68 2964.33 1462.77 2956.95 1462.77C2949.65 1462.77 2944.16 1468.51 2944.16 1475.73C2944.16 1483.03 2949.65 1488.69 2956.95 1488.69C2964.41 1488.69 2969.82 1482.78 2969.82 1475.73ZM3026.24 1495H3018.28V1474.58C3018.28 1466.79 3015.25 1462.77 3008.77 1462.77C3002.05 1462.77 2998.85 1467.12 2998.85 1475.16V1495H2990.98V1456.05H2998.85V1460.23C3001.47 1457.28 3004.67 1455.31 3010.17 1455.31C3019.43 1455.31 3026.24 1460.72 3026.24 1472.94V1495ZM3076.76 1495H3068.88V1490.41C3065.6 1494.26 3061.09 1496.07 3055.85 1496.07C3044.28 1496.07 3035.26 1487.13 3035.26 1475.73C3035.26 1464.17 3044.45 1455.31 3055.85 1455.31C3061.09 1455.31 3065.52 1457.2 3068.88 1461.05V1434.32H3076.76V1495ZM3068.72 1475.73C3068.72 1468.68 3063.23 1462.77 3055.85 1462.77C3048.55 1462.77 3043.05 1468.51 3043.05 1475.73C3043.05 1483.03 3048.55 1488.69 3055.85 1488.69C3063.31 1488.69 3068.72 1482.78 3068.72 1475.73ZM3086.02 1490.98L3090.28 1484.91C3094.22 1488.11 3098.4 1488.93 3101.19 1488.93C3105.37 1488.93 3107.67 1487.13 3107.67 1484.5C3107.67 1476.8 3087.41 1481.55 3087.41 1467.53C3087.41 1460.4 3092.66 1455.31 3100.78 1455.31C3104.06 1455.31 3109.55 1456.13 3113.98 1459.74L3109.8 1465.56C3106.36 1463.02 3102.91 1462.53 3100.86 1462.53C3096.93 1462.53 3095.2 1464.5 3095.2 1466.63C3095.2 1474.01 3115.38 1469.99 3115.38 1484.01C3115.38 1491.47 3109.72 1496.07 3100.94 1496.07C3095.12 1496.07 3090.04 1494.02 3086.02 1490.98ZM3147.65 1476.63H3124.12V1469.09H3147.65V1476.63ZM3197.26 1475.73C3197.26 1486.88 3188 1496.07 3176.68 1496.07C3165.45 1496.07 3156.26 1486.96 3156.26 1475.73C3156.26 1464.58 3165.28 1455.31 3176.68 1455.31C3188 1455.31 3197.26 1464.5 3197.26 1475.73ZM3189.47 1475.65C3189.47 1468.6 3183.81 1462.77 3176.76 1462.77C3169.46 1462.77 3164.05 1468.92 3164.05 1475.81C3164.05 1482.78 3169.63 1488.69 3176.76 1488.69C3183.98 1488.69 3189.47 1482.62 3189.47 1475.65ZM3242.37 1495H3234.41V1474.58C3234.41 1466.79 3231.38 1462.77 3224.9 1462.77C3218.18 1462.77 3214.98 1467.12 3214.98 1475.16V1495H3207.11V1456.05H3214.98V1460.23C3217.6 1457.28 3220.8 1455.31 3226.3 1455.31C3235.56 1455.31 3242.37 1460.72 3242.37 1472.94V1495ZM2639.97 1565.35H2608.07C2609.14 1571.34 2614.06 1575.93 2620.7 1575.93C2624.96 1575.93 2629.14 1574.05 2631.6 1570.6L2637.18 1574.87C2633.57 1579.95 2627.42 1583.07 2620.7 1583.07C2609.38 1583.07 2600.28 1574.21 2600.28 1562.73C2600.28 1551.82 2608.56 1542.31 2620.21 1542.31C2631.77 1542.31 2640.13 1551.74 2640.13 1562.65C2640.13 1563.71 2640.05 1564.53 2639.97 1565.35ZM2608.32 1559.12H2632.1C2631.19 1553.71 2626.44 1549.53 2620.29 1549.53C2614.22 1549.53 2609.71 1553.63 2608.32 1559.12ZM2679.8 1582H2671.02L2661.51 1567.9L2652 1582H2643.22L2657.08 1561.5L2644.45 1543.05H2653.31L2661.51 1555.1L2669.71 1543.05H2678.57L2665.94 1561.5L2679.8 1582ZM2695.03 1602.75H2687.16V1543.05H2695.03V1548.05C2698.31 1544.2 2702.82 1542.31 2708.07 1542.31C2719.47 1542.31 2728.65 1551.17 2728.65 1562.73C2728.65 1574.13 2719.63 1583.07 2708.07 1583.07C2702.82 1583.07 2698.31 1581.26 2695.03 1577.41V1602.75ZM2695.28 1562.73C2695.28 1569.78 2700.45 1575.69 2707.99 1575.69C2715.37 1575.69 2720.86 1570.03 2720.86 1562.73C2720.86 1555.51 2715.37 1549.77 2708.07 1549.77C2700.77 1549.77 2695.28 1555.51 2695.28 1562.73ZM2774.9 1565.35H2743C2744.07 1571.34 2748.99 1575.93 2755.63 1575.93C2759.89 1575.93 2764.08 1574.05 2766.54 1570.6L2772.11 1574.87C2768.5 1579.95 2762.35 1583.07 2755.63 1583.07C2744.31 1583.07 2735.21 1574.21 2735.21 1562.73C2735.21 1551.82 2743.49 1542.31 2755.14 1542.31C2766.7 1542.31 2775.06 1551.74 2775.06 1562.65C2775.06 1563.71 2774.98 1564.53 2774.9 1565.35ZM2743.25 1559.12H2767.03C2766.13 1553.71 2761.37 1549.53 2755.22 1549.53C2749.15 1549.53 2744.64 1553.63 2743.25 1559.12ZM2792.57 1582H2784.7V1543.05H2792.57V1547.72C2796.34 1543.21 2800.19 1542.31 2807.74 1542.31V1549.86C2794.86 1549.86 2792.57 1555.1 2792.57 1561.83V1582ZM2823.64 1582H2815.69V1543.05H2823.64V1582ZM2819.7 1535.34C2816.83 1535.34 2814.62 1533.13 2814.62 1530.26C2814.62 1527.39 2816.83 1525.17 2819.7 1525.17C2822.57 1525.17 2824.71 1527.39 2824.71 1530.26C2824.71 1533.13 2822.57 1535.34 2819.7 1535.34ZM2895.21 1582H2887.34V1561.58C2887.34 1553.87 2885.37 1549.77 2879.31 1549.77C2873.16 1549.77 2869.96 1553.87 2869.96 1562.16V1582H2862V1561.58C2862 1553.79 2860.04 1549.77 2853.97 1549.77C2847.82 1549.77 2844.62 1553.96 2844.62 1562.16V1582H2836.75V1543.05H2844.62V1547.23C2847.57 1543.95 2850.61 1542.31 2855.28 1542.31C2860.61 1542.31 2865.37 1544.44 2867.74 1549.53C2871.52 1543.79 2876.19 1542.31 2880.7 1542.31C2889.39 1542.31 2895.21 1547.72 2895.21 1559.94V1582ZM2943.94 1565.35H2912.05C2913.11 1571.34 2918.03 1575.93 2924.67 1575.93C2928.94 1575.93 2933.12 1574.05 2935.58 1570.6L2941.16 1574.87C2937.55 1579.95 2931.4 1583.07 2924.67 1583.07C2913.36 1583.07 2904.26 1574.21 2904.26 1562.73C2904.26 1551.82 2912.54 1542.31 2924.18 1542.31C2935.74 1542.31 2944.11 1551.74 2944.11 1562.65C2944.11 1563.71 2944.03 1564.53 2943.94 1565.35ZM2912.29 1559.12H2936.07C2935.17 1553.71 2930.41 1549.53 2924.26 1549.53C2918.2 1549.53 2913.69 1553.63 2912.29 1559.12ZM2989 1582H2981.05V1561.58C2981.05 1553.79 2978.01 1549.77 2971.54 1549.77C2964.81 1549.77 2961.61 1554.12 2961.61 1562.16V1582H2953.74V1543.05H2961.61V1547.23C2964.24 1544.28 2967.44 1542.31 2972.93 1542.31C2982.2 1542.31 2989 1547.72 2989 1559.94V1582ZM3019.76 1575.11V1582.16C3018.94 1582.49 3016.48 1583.07 3013.61 1583.07C3004.01 1583.07 3002.29 1576.75 3002.29 1570.03V1550.51H2996.14V1543.05H3002.29V1529.85H3010.25V1543.05H3020.82V1550.51H3010.25V1569.13C3010.25 1573.55 3011.23 1575.69 3015.41 1575.69C3016.81 1575.69 3018.94 1575.44 3019.76 1575.11ZM3066.99 1582H3059.11V1577.41C3055.83 1581.26 3051.32 1583.07 3046.08 1583.07C3034.51 1583.07 3025.49 1574.13 3025.49 1562.73C3025.49 1551.17 3034.68 1542.31 3046.08 1542.31C3051.32 1542.31 3055.75 1544.2 3059.11 1548.05V1543.05H3066.99V1582ZM3058.95 1562.73C3058.95 1555.68 3053.46 1549.77 3046.08 1549.77C3038.78 1549.77 3033.28 1555.51 3033.28 1562.73C3033.28 1570.03 3038.78 1575.69 3046.08 1575.69C3053.54 1575.69 3058.95 1569.78 3058.95 1562.73ZM3098.55 1575.11V1582.16C3097.73 1582.49 3095.27 1583.07 3092.4 1583.07C3082.81 1583.07 3081.09 1576.75 3081.09 1570.03V1550.51H3074.94V1543.05H3081.09V1529.85H3089.04V1543.05H3099.62V1550.51H3089.04V1569.13C3089.04 1573.55 3090.03 1575.69 3094.21 1575.69C3095.6 1575.69 3097.73 1575.44 3098.55 1575.11ZM3116.73 1582H3108.77V1543.05H3116.73V1582ZM3112.79 1535.34C3109.92 1535.34 3107.71 1533.13 3107.71 1530.26C3107.71 1527.39 3109.92 1525.17 3112.79 1525.17C3115.66 1525.17 3117.79 1527.39 3117.79 1530.26C3117.79 1533.13 3115.66 1535.34 3112.79 1535.34ZM3167.55 1562.73C3167.55 1573.88 3158.29 1583.07 3146.97 1583.07C3135.74 1583.07 3126.55 1573.96 3126.55 1562.73C3126.55 1551.58 3135.57 1542.31 3146.97 1542.31C3158.29 1542.31 3167.55 1551.5 3167.55 1562.73ZM3159.76 1562.65C3159.76 1555.6 3154.11 1549.77 3147.05 1549.77C3139.76 1549.77 3134.34 1555.92 3134.34 1562.81C3134.34 1569.78 3139.92 1575.69 3147.05 1575.69C3154.27 1575.69 3159.76 1569.62 3159.76 1562.65ZM3212.66 1582H3204.71V1561.58C3204.71 1553.79 3201.67 1549.77 3195.19 1549.77C3188.47 1549.77 3185.27 1554.12 3185.27 1562.16V1582H3177.4V1543.05H3185.27V1547.23C3187.9 1544.28 3191.09 1542.31 3196.59 1542.31C3205.85 1542.31 3212.66 1547.72 3212.66 1559.94V1582ZM3231.69 1582.49C3228.82 1582.49 3226.61 1580.28 3226.61 1577.41C3226.61 1574.54 3228.82 1572.41 3231.69 1572.41C3234.56 1572.41 3236.69 1574.54 3236.69 1577.41C3236.69 1580.28 3234.56 1582.49 3231.69 1582.49Z" fill="black"/>
<path d="M191.64 424.816L196.888 418.994C200.25 423.176 204.678 427.44 211.32 427.44C218.29 427.44 222.636 422.684 222.636 417.354C222.636 403.988 194.674 409.072 194.674 389.228C194.674 379.388 201.644 372.254 213.534 372.254C219.11 372.254 224.194 373.812 229.278 377.994L224.604 384.39C221.242 381.438 217.47 379.962 213.206 379.962C206.646 379.962 203.038 383.406 203.038 388.326C203.038 402.102 231 396.198 231 416.78C231 427.686 223.046 435.066 211.566 435.066C203.694 435.066 196.314 431.54 191.64 424.816ZM275.943 434H267.989V413.582C267.989 405.792 264.955 401.774 258.477 401.774C251.753 401.774 248.555 406.12 248.555 414.156V434H240.683V373.32H248.555V399.232C251.179 396.28 254.377 394.312 259.871 394.312C269.137 394.312 275.943 399.724 275.943 411.942V434ZM326.461 434H318.589V429.408C315.309 433.262 310.799 435.066 305.551 435.066C293.989 435.066 284.969 426.128 284.969 414.73C284.969 403.168 294.153 394.312 305.551 394.312C310.799 394.312 315.227 396.198 318.589 400.052V395.05H326.461V434ZM318.425 414.73C318.425 407.678 312.931 401.774 305.551 401.774C298.253 401.774 292.759 407.514 292.759 414.73C292.759 422.028 298.253 427.686 305.551 427.686C313.013 427.686 318.425 421.782 318.425 414.73ZM347.452 434H339.58V395.05H347.452V399.724C351.224 395.214 355.078 394.312 362.622 394.312V401.856C349.748 401.856 347.452 407.104 347.452 413.828V434ZM378.442 454.746H370.57V395.05H378.442V400.052C381.722 396.198 386.232 394.312 391.48 394.312C402.878 394.312 412.062 403.168 412.062 414.73C412.062 426.128 403.042 435.066 391.48 435.066C386.232 435.066 381.722 433.262 378.442 429.408V454.746ZM378.688 414.73C378.688 421.782 383.854 427.686 391.398 427.686C398.778 427.686 404.272 422.028 404.272 414.73C404.272 407.514 398.778 401.774 391.48 401.774C384.182 401.774 378.688 407.514 378.688 414.73ZM481.721 414.73C481.721 425.882 472.455 435.066 461.139 435.066C449.905 435.066 440.721 425.964 440.721 414.73C440.721 403.578 449.741 394.312 461.139 394.312C472.455 394.312 481.721 403.496 481.721 414.73ZM473.931 414.648C473.931 407.596 468.273 401.774 461.221 401.774C453.923 401.774 448.511 407.924 448.511 414.812C448.511 421.782 454.087 427.686 461.221 427.686C468.437 427.686 473.931 421.618 473.931 414.648ZM499.44 434H491.568V373.32H499.44V400.052C502.72 396.198 507.23 394.312 512.478 394.312C523.876 394.312 533.06 403.168 533.06 414.73C533.06 426.128 524.04 435.066 512.478 435.066C507.23 435.066 502.72 433.262 499.44 429.408V434ZM499.686 414.73C499.686 421.782 504.852 427.686 512.396 427.686C519.776 427.686 525.27 422.028 525.27 414.73C525.27 407.514 519.776 401.774 512.478 401.774C505.18 401.774 499.686 407.514 499.686 414.73ZM539.044 429.982L543.308 423.914C547.244 427.112 551.426 427.932 554.214 427.932C558.396 427.932 560.692 426.128 560.692 423.504C560.692 415.796 540.438 420.552 540.438 406.53C540.438 399.396 545.686 394.312 553.804 394.312C557.084 394.312 562.578 395.132 567.006 398.74L562.824 404.562C559.38 402.02 555.936 401.528 553.886 401.528C549.95 401.528 548.228 403.496 548.228 405.628C548.228 413.008 568.4 408.99 568.4 423.012C568.4 430.474 562.742 435.066 553.968 435.066C548.146 435.066 543.062 433.016 539.044 429.982ZM614.781 417.354H582.883C583.949 423.34 588.869 427.932 595.511 427.932C599.775 427.932 603.957 426.046 606.417 422.602L611.993 426.866C608.385 431.95 602.235 435.066 595.511 435.066C584.195 435.066 575.093 426.21 575.093 414.73C575.093 403.824 583.375 394.312 595.019 394.312C606.581 394.312 614.945 403.742 614.945 414.648C614.945 415.714 614.863 416.534 614.781 417.354ZM583.129 411.122H606.909C606.007 405.71 601.251 401.528 595.101 401.528C589.033 401.528 584.523 405.628 583.129 411.122ZM632.45 434H624.578V395.05H632.45V399.724C636.222 395.214 640.076 394.312 647.62 394.312V401.856C634.746 401.856 632.45 407.104 632.45 413.828V434ZM677.629 434H669.183L653.111 395.05H661.639L673.283 424.16L685.091 395.05H693.619L677.629 434ZM738.784 434H730.912V429.408C727.632 433.262 723.122 435.066 717.874 435.066C706.312 435.066 697.292 426.128 697.292 414.73C697.292 403.168 706.476 394.312 717.874 394.312C723.122 394.312 727.55 396.198 730.912 400.052V395.05H738.784V434ZM730.748 414.73C730.748 407.678 725.254 401.774 717.874 401.774C710.576 401.774 705.082 407.514 705.082 414.73C705.082 422.028 710.576 427.686 717.874 427.686C725.336 427.686 730.748 421.782 730.748 414.73ZM770.352 427.112V434.164C769.532 434.492 767.072 435.066 764.202 435.066C754.608 435.066 752.886 428.752 752.886 422.028V402.512H746.736V395.05H752.886V381.848H760.84V395.05H771.418V402.512H760.84V421.126C760.84 425.554 761.824 427.686 766.006 427.686C767.4 427.686 769.532 427.44 770.352 427.112ZM788.524 434H780.57V395.05H788.524V434ZM784.588 387.342C781.718 387.342 779.504 385.128 779.504 382.258C779.504 379.388 781.718 377.174 784.588 377.174C787.458 377.174 789.59 379.388 789.59 382.258C789.59 385.128 787.458 387.342 784.588 387.342ZM839.35 414.73C839.35 425.882 830.084 435.066 818.768 435.066C807.534 435.066 798.35 425.964 798.35 414.73C798.35 403.578 807.37 394.312 818.768 394.312C830.084 394.312 839.35 403.496 839.35 414.73ZM831.56 414.648C831.56 407.596 825.902 401.774 818.85 401.774C811.552 401.774 806.14 407.924 806.14 414.812C806.14 421.782 811.716 427.686 818.85 427.686C826.066 427.686 831.56 421.618 831.56 414.648ZM884.457 434H876.503V413.582C876.503 405.792 873.469 401.774 866.991 401.774C860.267 401.774 857.069 406.12 857.069 414.156V434H849.197V395.05H857.069V399.232C859.693 396.28 862.891 394.312 868.385 394.312C877.651 394.312 884.457 399.724 884.457 411.942V434ZM234.772 521H226.9V516.408C223.62 520.262 219.11 522.066 213.862 522.066C202.3 522.066 193.28 513.128 193.28 501.73C193.28 490.168 202.464 481.312 213.862 481.312C219.11 481.312 223.538 483.198 226.9 487.052V482.05H234.772V521ZM226.736 501.73C226.736 494.678 221.242 488.774 213.862 488.774C206.564 488.774 201.07 494.514 201.07 501.73C201.07 509.028 206.564 514.686 213.862 514.686C221.324 514.686 226.736 508.782 226.736 501.73ZM283.15 521H275.196V500.582C275.196 492.792 272.162 488.774 265.684 488.774C258.96 488.774 255.762 493.12 255.762 501.156V521H247.89V482.05H255.762V486.232C258.386 483.28 261.584 481.312 267.078 481.312C276.344 481.312 283.15 486.724 283.15 498.942V521ZM333.668 521H325.796V516.408C322.516 520.262 318.006 522.066 312.758 522.066C301.196 522.066 292.176 513.128 292.176 501.73C292.176 490.168 301.36 481.312 312.758 481.312C318.006 481.312 322.434 483.198 325.796 487.052V460.32H333.668V521ZM325.632 501.73C325.632 494.678 320.138 488.774 312.758 488.774C305.46 488.774 299.966 494.514 299.966 501.73C299.966 509.028 305.46 514.686 312.758 514.686C320.22 514.686 325.632 508.782 325.632 501.73ZM407.1 521H399.228V516.408C395.948 520.262 391.438 522.066 386.19 522.066C374.628 522.066 365.608 513.128 365.608 501.73C365.608 490.168 374.792 481.312 386.19 481.312C391.438 481.312 395.866 483.198 399.228 487.052V482.05H407.1V521ZM399.064 501.73C399.064 494.678 393.57 488.774 386.19 488.774C378.892 488.774 373.398 494.514 373.398 501.73C373.398 509.028 378.892 514.686 386.19 514.686C393.652 514.686 399.064 508.782 399.064 501.73ZM438.668 514.112V521.164C437.848 521.492 435.388 522.066 432.518 522.066C422.924 522.066 421.202 515.752 421.202 509.028V489.512H415.052V482.05H421.202V468.848H429.156V482.05H439.734V489.512H429.156V508.126C429.156 512.554 430.14 514.686 434.322 514.686C435.716 514.686 437.848 514.44 438.668 514.112ZM468.137 514.112V521.164C467.317 521.492 464.857 522.066 461.987 522.066C452.393 522.066 450.671 515.752 450.671 509.028V489.512H444.521V482.05H450.671V468.848H458.625V482.05H469.203V489.512H458.625V508.126C458.625 512.554 459.609 514.686 463.791 514.686C465.185 514.686 467.317 514.44 468.137 514.112ZM514.763 504.354H482.865C483.931 510.34 488.851 514.932 495.493 514.932C499.757 514.932 503.939 513.046 506.399 509.602L511.975 513.866C508.367 518.95 502.217 522.066 495.493 522.066C484.177 522.066 475.075 513.21 475.075 501.73C475.075 490.824 483.357 481.312 495.001 481.312C506.563 481.312 514.927 490.742 514.927 501.648C514.927 502.714 514.845 503.534 514.763 504.354ZM483.111 498.122H506.891C505.989 492.71 501.233 488.528 495.083 488.528C489.015 488.528 484.505 492.628 483.111 498.122ZM559.82 521H551.866V500.582C551.866 492.792 548.832 488.774 542.354 488.774C535.63 488.774 532.432 493.12 532.432 501.156V521H524.56V482.05H532.432V486.232C535.056 483.28 538.254 481.312 543.748 481.312C553.014 481.312 559.82 486.724 559.82 498.942V521ZM590.576 514.112V521.164C589.756 521.492 587.296 522.066 584.426 522.066C574.832 522.066 573.11 515.752 573.11 509.028V489.512H566.96V482.05H573.11V468.848H581.064V482.05H591.642V489.512H581.064V508.126C581.064 512.554 582.048 514.686 586.23 514.686C587.624 514.686 589.756 514.44 590.576 514.112ZM608.748 521H600.794V482.05H608.748V521ZM604.812 474.342C601.942 474.342 599.728 472.128 599.728 469.258C599.728 466.388 601.942 464.174 604.812 464.174C607.682 464.174 609.814 466.388 609.814 469.258C609.814 472.128 607.682 474.342 604.812 474.342ZM659.575 501.73C659.575 512.882 650.309 522.066 638.993 522.066C627.759 522.066 618.575 512.964 618.575 501.73C618.575 490.578 627.595 481.312 638.993 481.312C650.309 481.312 659.575 490.496 659.575 501.73ZM651.785 501.648C651.785 494.596 646.127 488.774 639.075 488.774C631.777 488.774 626.365 494.924 626.365 501.812C626.365 508.782 631.941 514.686 639.075 514.686C646.291 514.686 651.785 508.618 651.785 501.648ZM704.681 521H696.727V500.582C696.727 492.792 693.693 488.774 687.215 488.774C680.491 488.774 677.293 493.12 677.293 501.156V521H669.421V482.05H677.293V486.232C679.917 483.28 683.115 481.312 688.609 481.312C697.875 481.312 704.681 486.724 704.681 498.942V521ZM756.739 514.112V521.164C755.919 521.492 753.459 522.066 750.589 522.066C740.995 522.066 739.273 515.752 739.273 509.028V489.512H733.123V482.05H739.273V468.848H747.227V482.05H757.805V489.512H747.227V508.126C747.227 512.554 748.211 514.686 752.393 514.686C753.787 514.686 755.919 514.44 756.739 514.112ZM804.676 501.73C804.676 512.882 795.41 522.066 784.094 522.066C772.86 522.066 763.676 512.964 763.676 501.73C763.676 490.578 772.696 481.312 784.094 481.312C795.41 481.312 804.676 490.496 804.676 501.73ZM796.886 501.648C796.886 494.596 791.228 488.774 784.176 488.774C776.878 488.774 771.466 494.924 771.466 501.812C771.466 508.782 777.042 514.686 784.176 514.686C791.392 514.686 796.886 508.618 796.886 501.648ZM234.772 608H226.9V603.408C223.62 607.262 219.11 609.066 213.862 609.066C202.3 609.066 193.28 600.128 193.28 588.73C193.28 577.168 202.464 568.312 213.862 568.312C219.11 568.312 223.538 570.198 226.9 574.052V547.32H234.772V608ZM226.736 588.73C226.736 581.678 221.242 575.774 213.862 575.774C206.564 575.774 201.07 581.514 201.07 588.73C201.07 596.028 206.564 601.686 213.862 601.686C221.324 601.686 226.736 595.782 226.736 588.73ZM284.298 591.354H252.4C253.466 597.34 258.386 601.932 265.028 601.932C269.292 601.932 273.474 600.046 275.934 596.602L281.51 600.866C277.902 605.95 271.752 609.066 265.028 609.066C253.712 609.066 244.61 600.21 244.61 588.73C244.61 577.824 252.892 568.312 264.536 568.312C276.098 568.312 284.462 577.742 284.462 588.648C284.462 589.714 284.38 590.534 284.298 591.354ZM252.646 585.122H276.426C275.524 579.71 270.768 575.528 264.618 575.528C258.55 575.528 254.04 579.628 252.646 585.122ZM312.545 601.112V608.164C311.725 608.492 309.265 609.066 306.395 609.066C296.801 609.066 295.079 602.752 295.079 596.028V576.512H288.929V569.05H295.079V555.848H303.033V569.05H313.611V576.512H303.033V595.126C303.033 599.554 304.017 601.686 308.199 601.686C309.593 601.686 311.725 601.44 312.545 601.112ZM359.774 608H351.902V603.408C348.622 607.262 344.112 609.066 338.864 609.066C327.302 609.066 318.282 600.128 318.282 588.73C318.282 577.168 327.466 568.312 338.864 568.312C344.112 568.312 348.54 570.198 351.902 574.052V569.05H359.774V608ZM351.738 588.73C351.738 581.678 346.244 575.774 338.864 575.774C331.566 575.774 326.072 581.514 326.072 588.73C326.072 596.028 331.566 601.686 338.864 601.686C346.326 601.686 351.738 595.782 351.738 588.73ZM380.846 608H372.892V569.05H380.846V608ZM376.91 561.342C374.04 561.342 371.826 559.128 371.826 556.258C371.826 553.388 374.04 551.174 376.91 551.174C379.78 551.174 381.912 553.388 381.912 556.258C381.912 559.128 379.78 561.342 376.91 561.342ZM408.631 601.604V608.492C407.319 608.82 405.925 609.066 404.285 609.066C397.889 609.066 393.953 605.212 393.953 598.078V547.32H401.825V595.618C401.825 599.8 402.809 601.686 406.663 601.686C407.155 601.686 407.893 601.686 408.631 601.604ZM422.778 608.492C419.908 608.492 417.694 606.278 417.694 603.408C417.694 600.538 419.908 598.406 422.778 598.406C425.648 598.406 427.78 600.538 427.78 603.408C427.78 606.278 425.648 608.492 422.778 608.492Z" fill="black"/>
<path d="M237.758 1348H228.164L212.748 1321.6H202.334V1348H193.97V1287.32H216.274C228.246 1287.32 236.364 1292.4 236.364 1304.46C236.364 1314.13 231.198 1319.71 221.932 1321.1L237.758 1348ZM202.334 1313.64H216.192C223.08 1313.64 228 1311.76 228 1304.54C228 1298.06 223.982 1295.27 216.192 1295.27H202.334V1313.64ZM282.739 1331.35H250.841C251.907 1337.34 256.827 1341.93 263.469 1341.93C267.733 1341.93 271.915 1340.05 274.375 1336.6L279.951 1340.87C276.343 1345.95 270.193 1349.07 263.469 1349.07C252.153 1349.07 243.051 1340.21 243.051 1328.73C243.051 1317.82 251.333 1308.31 262.977 1308.31C274.539 1308.31 282.903 1317.74 282.903 1328.65C282.903 1329.71 282.821 1330.53 282.739 1331.35ZM251.087 1325.12H274.867C273.965 1319.71 269.209 1315.53 263.059 1315.53C256.991 1315.53 252.481 1319.63 251.087 1325.12ZM288.683 1343.98L292.947 1337.91C296.883 1341.11 301.065 1341.93 303.853 1341.93C308.035 1341.93 310.331 1340.13 310.331 1337.5C310.331 1329.8 290.077 1334.55 290.077 1320.53C290.077 1313.4 295.325 1308.31 303.443 1308.31C306.723 1308.31 312.217 1309.13 316.645 1312.74L312.463 1318.56C309.019 1316.02 305.575 1315.53 303.525 1315.53C299.589 1315.53 297.867 1317.5 297.867 1319.63C297.867 1327.01 318.039 1322.99 318.039 1337.01C318.039 1344.47 312.381 1349.07 303.607 1349.07C297.785 1349.07 292.701 1347.02 288.683 1343.98ZM335.965 1348H328.011V1309.05H335.965V1348ZM332.029 1301.34C329.159 1301.34 326.945 1299.13 326.945 1296.26C326.945 1293.39 329.159 1291.17 332.029 1291.17C334.899 1291.17 337.031 1293.39 337.031 1296.26C337.031 1299.13 334.899 1301.34 332.029 1301.34ZM363.75 1341.6V1348.49C362.438 1348.82 361.044 1349.07 359.404 1349.07C353.008 1349.07 349.072 1345.21 349.072 1338.08V1287.32H356.944V1335.62C356.944 1339.8 357.928 1341.69 361.782 1341.69C362.274 1341.69 363.012 1341.69 363.75 1341.6ZM379.127 1348H371.173V1309.05H379.127V1348ZM375.191 1301.34C372.321 1301.34 370.107 1299.13 370.107 1296.26C370.107 1293.39 372.321 1291.17 375.191 1291.17C378.061 1291.17 380.193 1293.39 380.193 1296.26C380.193 1299.13 378.061 1301.34 375.191 1301.34ZM428.642 1331.35H396.744C397.81 1337.34 402.73 1341.93 409.372 1341.93C413.636 1341.93 417.818 1340.05 420.278 1336.6L425.854 1340.87C422.246 1345.95 416.096 1349.07 409.372 1349.07C398.056 1349.07 388.954 1340.21 388.954 1328.73C388.954 1317.82 397.236 1308.31 408.88 1308.31C420.442 1308.31 428.806 1317.74 428.806 1328.65C428.806 1329.71 428.724 1330.53 428.642 1331.35ZM396.99 1325.12H420.77C419.868 1319.71 415.112 1315.53 408.962 1315.53C402.894 1315.53 398.384 1319.63 396.99 1325.12ZM473.699 1348H465.745V1327.58C465.745 1319.79 462.711 1315.77 456.233 1315.77C449.509 1315.77 446.311 1320.12 446.311 1328.16V1348H438.439V1309.05H446.311V1313.23C448.935 1310.28 452.133 1308.31 457.627 1308.31C466.893 1308.31 473.699 1313.72 473.699 1325.94V1348ZM504.455 1341.11V1348.16C503.635 1348.49 501.175 1349.07 498.305 1349.07C488.711 1349.07 486.989 1342.75 486.989 1336.03V1316.51H480.839V1309.05H486.989V1295.85H494.943V1309.05H505.521V1316.51H494.943V1335.13C494.943 1339.55 495.927 1341.69 500.109 1341.69C501.503 1341.69 503.635 1341.44 504.455 1341.11ZM574.186 1348H566.314V1343.41C563.034 1347.26 558.524 1349.07 553.276 1349.07C541.714 1349.07 532.694 1340.13 532.694 1328.73C532.694 1317.17 541.878 1308.31 553.276 1308.31C558.524 1308.31 562.952 1310.2 566.314 1314.05V1309.05H574.186V1348ZM566.15 1328.73C566.15 1321.68 560.656 1315.77 553.276 1315.77C545.978 1315.77 540.484 1321.51 540.484 1328.73C540.484 1336.03 545.978 1341.69 553.276 1341.69C560.738 1341.69 566.15 1335.78 566.15 1328.73ZM622.564 1348H614.61V1327.58C614.61 1319.79 611.576 1315.77 605.098 1315.77C598.374 1315.77 595.176 1320.12 595.176 1328.16V1348H587.304V1309.05H595.176V1313.23C597.8 1310.28 600.998 1308.31 606.492 1308.31C615.758 1308.31 622.564 1313.72 622.564 1325.94V1348ZM673.083 1348H665.211V1343.41C661.931 1347.26 657.421 1349.07 652.173 1349.07C640.611 1349.07 631.591 1340.13 631.591 1328.73C631.591 1317.17 640.775 1308.31 652.173 1308.31C657.421 1308.31 661.849 1310.2 665.211 1314.05V1287.32H673.083V1348ZM665.047 1328.73C665.047 1321.68 659.553 1315.77 652.173 1315.77C644.875 1315.77 639.381 1321.51 639.381 1328.73C639.381 1336.03 644.875 1341.69 652.173 1341.69C659.635 1341.69 665.047 1335.78 665.047 1328.73ZM231.772 1435H223.9V1430.41C220.62 1434.26 216.11 1436.07 210.862 1436.07C199.3 1436.07 190.28 1427.13 190.28 1415.73C190.28 1404.17 199.464 1395.31 210.862 1395.31C216.11 1395.31 220.538 1397.2 223.9 1401.05V1396.05H231.772V1435ZM223.736 1415.73C223.736 1408.68 218.242 1402.77 210.862 1402.77C203.564 1402.77 198.07 1408.51 198.07 1415.73C198.07 1423.03 203.564 1428.69 210.862 1428.69C218.324 1428.69 223.736 1422.78 223.736 1415.73ZM283.102 1435H275.23V1430.41C271.95 1434.26 267.44 1436.07 262.192 1436.07C250.63 1436.07 241.61 1427.13 241.61 1415.73C241.61 1404.17 250.794 1395.31 262.192 1395.31C267.44 1395.31 271.868 1397.2 275.23 1401.05V1374.32H283.102V1435ZM275.066 1415.73C275.066 1408.68 269.572 1402.77 262.192 1402.77C254.894 1402.77 249.4 1408.51 249.4 1415.73C249.4 1423.03 254.894 1428.69 262.192 1428.69C269.654 1428.69 275.066 1422.78 275.066 1415.73ZM334.432 1435H326.56V1430.41C323.28 1434.26 318.77 1436.07 313.522 1436.07C301.96 1436.07 292.94 1427.13 292.94 1415.73C292.94 1404.17 302.124 1395.31 313.522 1395.31C318.77 1395.31 323.198 1397.2 326.56 1401.05V1396.05H334.432V1435ZM326.396 1415.73C326.396 1408.68 320.902 1402.77 313.522 1402.77C306.224 1402.77 300.73 1408.51 300.73 1415.73C300.73 1423.03 306.224 1428.69 313.522 1428.69C320.984 1428.69 326.396 1422.78 326.396 1415.73ZM355.422 1455.75H347.55V1396.05H355.422V1401.05C358.702 1397.2 363.212 1395.31 368.46 1395.31C379.858 1395.31 389.042 1404.17 389.042 1415.73C389.042 1427.13 380.022 1436.07 368.46 1436.07C363.212 1436.07 358.702 1434.26 355.422 1430.41V1455.75ZM355.668 1415.73C355.668 1422.78 360.834 1428.69 368.378 1428.69C375.758 1428.69 381.252 1423.03 381.252 1415.73C381.252 1408.51 375.758 1402.77 368.46 1402.77C361.162 1402.77 355.668 1408.51 355.668 1415.73ZM417.33 1428.11V1435.16C416.51 1435.49 414.05 1436.07 411.18 1436.07C401.586 1436.07 399.864 1429.75 399.864 1423.03V1403.51H393.714V1396.05H399.864V1382.85H407.818V1396.05H418.396V1403.51H407.818V1422.13C407.818 1426.55 408.802 1428.69 412.984 1428.69C414.378 1428.69 416.51 1428.44 417.33 1428.11ZM464.559 1435H456.687V1430.41C453.407 1434.26 448.897 1436.07 443.649 1436.07C432.087 1436.07 423.067 1427.13 423.067 1415.73C423.067 1404.17 432.251 1395.31 443.649 1395.31C448.897 1395.31 453.325 1397.2 456.687 1401.05V1396.05H464.559V1435ZM456.523 1415.73C456.523 1408.68 451.029 1402.77 443.649 1402.77C436.351 1402.77 430.857 1408.51 430.857 1415.73C430.857 1423.03 436.351 1428.69 443.649 1428.69C451.111 1428.69 456.523 1422.78 456.523 1415.73ZM485.549 1435H477.677V1374.32H485.549V1401.05C488.829 1397.2 493.339 1395.31 498.587 1395.31C509.985 1395.31 519.169 1404.17 519.169 1415.73C519.169 1427.13 510.149 1436.07 498.587 1436.07C493.339 1436.07 488.829 1434.26 485.549 1430.41V1435ZM485.795 1415.73C485.795 1422.78 490.961 1428.69 498.505 1428.69C505.885 1428.69 511.379 1423.03 511.379 1415.73C511.379 1408.51 505.885 1402.77 498.587 1402.77C491.289 1402.77 485.795 1408.51 485.795 1415.73ZM543.685 1428.6V1435.49C542.373 1435.82 540.979 1436.07 539.339 1436.07C532.943 1436.07 529.007 1432.21 529.007 1425.08V1374.32H536.879V1422.62C536.879 1426.8 537.863 1428.69 541.717 1428.69C542.209 1428.69 542.947 1428.69 543.685 1428.6ZM587.517 1418.35H555.619C556.685 1424.34 561.605 1428.93 568.247 1428.93C572.511 1428.93 576.693 1427.05 579.153 1423.6L584.729 1427.87C581.121 1432.95 574.971 1436.07 568.247 1436.07C556.931 1436.07 547.829 1427.21 547.829 1415.73C547.829 1404.82 556.111 1395.31 567.755 1395.31C579.317 1395.31 587.681 1404.74 587.681 1415.65C587.681 1416.71 587.599 1417.53 587.517 1418.35ZM555.865 1412.12H579.645C578.743 1406.71 573.987 1402.53 567.837 1402.53C561.769 1402.53 557.259 1406.63 555.865 1412.12ZM637.065 1428.11V1435.16C636.245 1435.49 633.785 1436.07 630.915 1436.07C621.321 1436.07 619.599 1429.75 619.599 1423.03V1403.51H613.449V1396.05H619.599V1382.85H627.553V1396.05H638.131V1403.51H627.553V1422.13C627.553 1426.55 628.537 1428.69 632.719 1428.69C634.113 1428.69 636.245 1428.44 637.065 1428.11ZM685.003 1415.73C685.003 1426.88 675.737 1436.07 664.421 1436.07C653.187 1436.07 644.003 1426.96 644.003 1415.73C644.003 1404.58 653.023 1395.31 664.421 1395.31C675.737 1395.31 685.003 1404.5 685.003 1415.73ZM677.213 1415.65C677.213 1408.6 671.555 1402.77 664.503 1402.77C657.205 1402.77 651.793 1408.92 651.793 1415.81C651.793 1422.78 657.369 1428.69 664.503 1428.69C671.719 1428.69 677.213 1422.62 677.213 1415.65ZM189.706 1517.98L193.97 1511.91C197.906 1515.11 202.088 1515.93 204.876 1515.93C209.058 1515.93 211.354 1514.13 211.354 1511.5C211.354 1503.8 191.1 1508.55 191.1 1494.53C191.1 1487.4 196.348 1482.31 204.466 1482.31C207.746 1482.31 213.24 1483.13 217.668 1486.74L213.486 1492.56C210.042 1490.02 206.598 1489.53 204.548 1489.53C200.612 1489.53 198.89 1491.5 198.89 1493.63C198.89 1501.01 219.062 1496.99 219.062 1511.01C219.062 1518.47 213.404 1523.07 204.63 1523.07C198.808 1523.07 193.724 1521.02 189.706 1517.98ZM265.443 1505.35H233.545C234.611 1511.34 239.531 1515.93 246.173 1515.93C250.437 1515.93 254.619 1514.05 257.079 1510.6L262.655 1514.87C259.047 1519.95 252.897 1523.07 246.173 1523.07C234.857 1523.07 225.755 1514.21 225.755 1502.73C225.755 1491.82 234.037 1482.31 245.681 1482.31C257.243 1482.31 265.607 1491.74 265.607 1502.65C265.607 1503.71 265.525 1504.53 265.443 1505.35ZM233.791 1499.12H257.571C256.669 1493.71 251.913 1489.53 245.763 1489.53C239.695 1489.53 235.185 1493.63 233.791 1499.12ZM293.69 1515.11V1522.16C292.87 1522.49 290.41 1523.07 287.54 1523.07C277.946 1523.07 276.224 1516.75 276.224 1510.03V1490.51H270.074V1483.05H276.224V1469.85H284.178V1483.05H294.756V1490.51H284.178V1509.13C284.178 1513.55 285.162 1515.69 289.344 1515.69C290.738 1515.69 292.87 1515.44 293.69 1515.11ZM311.78 1522H303.908V1461.32H311.78V1488.05C315.06 1484.2 319.57 1482.31 324.818 1482.31C336.216 1482.31 345.4 1491.17 345.4 1502.73C345.4 1514.13 336.38 1523.07 324.818 1523.07C319.57 1523.07 315.06 1521.26 311.78 1517.41V1522ZM312.026 1502.73C312.026 1509.78 317.192 1515.69 324.736 1515.69C332.116 1515.69 337.61 1510.03 337.61 1502.73C337.61 1495.51 332.116 1489.77 324.818 1489.77C317.52 1489.77 312.026 1495.51 312.026 1502.73ZM393.45 1522H385.578V1517.41C382.298 1521.26 377.788 1523.07 372.54 1523.07C360.978 1523.07 351.958 1514.13 351.958 1502.73C351.958 1491.17 361.142 1482.31 372.54 1482.31C377.788 1482.31 382.216 1484.2 385.578 1488.05V1483.05H393.45V1522ZM385.414 1502.73C385.414 1495.68 379.92 1489.77 372.54 1489.77C365.242 1489.77 359.748 1495.51 359.748 1502.73C359.748 1510.03 365.242 1515.69 372.54 1515.69C380.002 1515.69 385.414 1509.78 385.414 1502.73ZM434.694 1509.54L441.254 1513.39C437.646 1519.21 431.086 1523.07 423.706 1523.07C412.472 1523.07 403.288 1513.96 403.288 1502.73C403.288 1491.58 412.308 1482.31 423.706 1482.31C431.004 1482.31 437.482 1486.17 441.09 1491.91L434.448 1495.68C432.234 1492.15 428.216 1489.77 423.706 1489.77C416.572 1489.77 411.078 1495.84 411.078 1502.81C411.078 1509.78 416.654 1515.69 423.87 1515.69C428.544 1515.69 432.48 1513.23 434.694 1509.54ZM484.658 1522H474.326L457.762 1503.39V1522H449.89V1461.32H457.762V1499.12L472.768 1483.05H483.182L466.044 1500.93L484.658 1522ZM487.997 1517.98L492.261 1511.91C496.197 1515.11 500.379 1515.93 503.167 1515.93C507.349 1515.93 509.645 1514.13 509.645 1511.5C509.645 1503.8 489.391 1508.55 489.391 1494.53C489.391 1487.4 494.639 1482.31 502.757 1482.31C506.037 1482.31 511.531 1483.13 515.959 1486.74L511.777 1492.56C508.333 1490.02 504.889 1489.53 502.839 1489.53C498.903 1489.53 497.181 1491.5 497.181 1493.63C497.181 1501.01 517.353 1496.99 517.353 1511.01C517.353 1518.47 511.695 1523.07 502.921 1523.07C497.099 1523.07 492.015 1521.02 487.997 1517.98ZM534.05 1522.49C531.18 1522.49 528.966 1520.28 528.966 1517.41C528.966 1514.54 531.18 1512.41 534.05 1512.41C536.92 1512.41 539.052 1514.54 539.052 1517.41C539.052 1520.28 536.92 1522.49 534.05 1522.49Z" fill="black"/>
</svg>
