<svg width="2674" height="1800" viewBox="0 0 2674 1800" fill="none" xmlns="http://www.w3.org/2000/svg">
<rect width="2661" height="1800" fill="white"/>
<path d="M69.55 261.21L78.02 271.33C70.43 278.59 60.42 283.43 48.87 283.43C25.44 283.43 6.3 265.17 6.3 241.41C6.3 218.2 24.56 199.17 48.76 199.17C60.97 199.17 71.53 204.12 79.23 212.04L70.21 222.16C64.82 215.89 57.45 212.37 48.76 212.37C32.81 212.37 20.6 225.79 20.6 241.52C20.6 257.47 33.25 270.23 48.87 270.23C56.68 270.23 64.49 266.38 69.55 261.21ZM138.288 282H124.758V254.06C124.758 243.94 119.368 241.74 113.978 241.74C108.588 241.74 103.198 243.83 103.198 253.84V282H89.668V200.6H103.198V233.6C106.168 231.4 109.798 228.76 116.948 228.76C128.388 228.76 138.288 235.47 138.288 251.86V282ZM205.061 282H191.531V278.59C187.351 282 182.401 283.43 177.011 283.43C161.611 283.43 149.291 271.11 149.291 256.04C149.291 240.86 161.611 228.76 177.011 228.76C182.291 228.76 187.241 230.19 191.531 233.6V229.75H205.061V282ZM191.531 256.04C191.531 248.34 185.041 241.74 177.011 241.74C169.091 241.74 162.601 248.34 162.601 256.04C162.601 263.85 169.091 270.45 177.011 270.45C185.041 270.45 191.531 263.85 191.531 256.04ZM270.202 282H256.672V254.06C256.672 243.94 251.282 241.74 245.892 241.74C240.502 241.74 235.112 243.83 235.112 253.84V282H221.582V229.75H235.112V233.6C238.082 231.4 241.712 228.76 248.862 228.76C260.302 228.76 270.202 235.47 270.202 251.86V282ZM323.445 280.9V278.59C319.265 282 314.315 283.43 308.925 283.43C293.525 283.43 281.205 271.11 281.205 256.04C281.205 240.86 293.525 228.76 308.925 228.76C314.205 228.76 319.155 230.19 323.445 233.6V229.75H336.975V278.26C336.975 306.2 319.155 309.83 308.925 309.83C298.915 309.83 290.225 304.66 285.385 296.96L297.815 291.57C300.455 294.76 304.525 296.85 308.925 296.85C316.955 296.85 323.445 292.89 323.445 280.9ZM323.445 256.04C323.445 248.34 316.955 241.74 308.925 241.74C301.005 241.74 294.515 248.34 294.515 256.04C294.515 263.85 301.005 270.45 308.925 270.45C316.955 270.45 323.445 263.85 323.445 256.04ZM402.116 260.33H362.296C363.836 266.71 369.006 271.22 376.816 271.22C381.546 271.22 386.606 269.46 389.686 265.39L398.926 272.76C394.196 279.47 385.836 283.43 376.926 283.43C361.196 283.43 349.096 271.66 349.096 256.37C349.096 241.52 359.546 228.76 376.156 228.76C391.556 228.76 402.446 241.3 402.446 256.04C402.446 257.47 402.336 259.01 402.116 260.33ZM362.736 250.43H388.806C388.036 245.15 382.536 241.08 376.046 241.08C369.776 241.08 364.716 244.82 362.736 250.43ZM472.32 270.12V282.11C472.32 282.11 468.36 283.43 461.87 283.43C451.64 283.43 446.36 276.72 446.36 266.49V242.73H438.11V229.75H446.36V212.04H459.89V229.75H473.75V242.73H459.89V263.63C459.89 267.26 460.88 270.67 465.72 270.67C469.13 270.67 472.32 270.12 472.32 270.12ZM538.601 256.04C538.601 271.11 526.281 283.43 510.771 283.43C495.371 283.43 483.051 271.11 483.051 256.04C483.051 240.86 495.371 228.76 510.771 228.76C526.281 228.76 538.601 240.86 538.601 256.04ZM525.291 256.04C525.291 248.34 518.801 241.74 510.771 241.74C502.851 241.74 496.361 248.34 496.361 256.04C496.361 263.85 502.851 270.45 510.771 270.45C518.801 270.45 525.291 263.85 525.291 256.04ZM608.531 270.12V282.11C608.531 282.11 604.571 283.43 598.081 283.43C587.851 283.43 582.571 276.72 582.571 266.49V242.73H574.321V229.75H582.571V212.04H596.101V229.75H609.961V242.73H596.101V263.63C596.101 267.26 597.091 270.67 601.931 270.67C605.341 270.67 608.531 270.12 608.531 270.12ZM670.134 282H656.604V254.06C656.604 243.94 651.214 241.74 645.824 241.74C640.434 241.74 635.044 243.83 635.044 253.84V282H621.514V200.6H635.044V233.6C638.014 231.4 641.644 228.76 648.794 228.76C660.234 228.76 670.134 235.47 670.134 251.86V282ZM734.157 260.33H694.337C695.877 266.71 701.047 271.22 708.857 271.22C713.587 271.22 718.647 269.46 721.727 265.39L730.967 272.76C726.237 279.47 717.877 283.43 708.967 283.43C693.237 283.43 681.137 271.66 681.137 256.37C681.137 241.52 691.587 228.76 708.197 228.76C723.597 228.76 734.487 241.3 734.487 256.04C734.487 257.47 734.377 259.01 734.157 260.33ZM694.777 250.43H720.847C720.077 245.15 714.577 241.08 708.087 241.08C701.817 241.08 696.757 244.82 694.777 250.43ZM63.39 399H11.8V317.6H63.39V331.46H26.21V349.61H55.47V363.47H26.21V385.14H63.39V399ZM125.72 399H112.19V371.06C112.19 360.94 106.8 358.74 101.41 358.74C96.0196 358.74 90.6296 360.83 90.6296 370.84V399H77.0996V346.75H90.6296V350.6C93.5996 348.4 97.2296 345.76 104.38 345.76C115.82 345.76 125.72 352.47 125.72 368.86V399ZM169.173 399H154.983L133.973 346.75H148.713L162.023 382.17L175.443 346.75H190.183L169.173 399ZM213.201 399H199.671V346.75H213.201V399ZM206.491 338.06C201.651 338.06 197.911 334.32 197.911 329.48C197.911 324.64 201.651 321.01 206.491 321.01C211.331 321.01 214.961 324.64 214.961 329.48C214.961 334.32 211.331 338.06 206.491 338.06ZM243.384 399H229.854V346.75H243.384V350.6C248.444 346.86 253.394 345.76 263.514 345.76V358.74C246.244 358.74 243.384 363.58 243.384 372.6V399ZM325.691 373.04C325.691 388.11 313.371 400.43 297.861 400.43C282.461 400.43 270.141 388.11 270.141 373.04C270.141 357.86 282.461 345.76 297.861 345.76C313.371 345.76 325.691 357.86 325.691 373.04ZM312.381 373.04C312.381 365.34 305.891 358.74 297.861 358.74C289.941 358.74 283.451 365.34 283.451 373.04C283.451 380.85 289.941 387.45 297.861 387.45C305.891 387.45 312.381 380.85 312.381 373.04ZM386.433 399H372.903V371.06C372.903 360.94 367.513 358.74 362.123 358.74C356.733 358.74 351.343 360.83 351.343 370.84V399H337.813V346.75H351.343V350.6C354.313 348.4 357.943 345.76 365.093 345.76C376.533 345.76 386.433 352.47 386.433 368.86V399ZM483.346 399H469.816V371.06C469.816 360.39 465.086 358.74 460.246 358.74C454.856 358.74 449.356 360.83 449.356 370.84V399H435.826V371.06C435.826 360.39 431.096 358.74 426.256 358.74C420.866 358.74 415.366 360.83 415.366 370.84V399H401.836V346.75H415.366V350.6C418.666 348.18 421.966 345.76 428.896 345.76C435.716 345.76 441.766 348.18 445.396 353.57C450.346 347.63 457.386 345.76 462.886 345.76C474.436 345.76 483.346 352.47 483.346 368.86V399ZM547.35 377.33H507.53C509.07 383.71 514.24 388.22 522.05 388.22C526.78 388.22 531.84 386.46 534.92 382.39L544.16 389.76C539.43 396.47 531.07 400.43 522.16 400.43C506.43 400.43 494.33 388.66 494.33 373.37C494.33 358.52 504.78 345.76 521.39 345.76C536.79 345.76 547.68 358.3 547.68 373.04C547.68 374.47 547.57 376.01 547.35 377.33ZM507.97 367.43H534.04C533.27 362.15 527.77 358.08 521.28 358.08C515.01 358.08 509.95 361.82 507.97 367.43ZM608.366 399H594.836V371.06C594.836 360.94 589.446 358.74 584.056 358.74C578.666 358.74 573.276 360.83 573.276 370.84V399H559.746V346.75H573.276V350.6C576.246 348.4 579.876 345.76 587.026 345.76C598.466 345.76 608.366 352.47 608.366 368.86V399ZM651.93 387.12V399.11C651.93 399.11 647.97 400.43 641.48 400.43C631.25 400.43 625.97 393.72 625.97 383.49V359.73H617.72V346.75H625.97V329.04H639.5V346.75H653.36V359.73H639.5V380.63C639.5 384.26 640.49 387.67 645.33 387.67C648.74 387.67 651.93 387.12 651.93 387.12Z" fill="#242424"/>
<path d="M1947.64 174H1932.02L1925.31 156.62H1890.22L1883.62 174H1868L1900.56 92.6H1915.19L1947.64 174ZM1920.14 142.87L1907.82 110.53L1895.39 142.87H1920.14ZM1977.19 162.56V174.55C1975.65 174.99 1973.56 175.43 1971.36 175.43C1961.35 175.43 1955.85 169.93 1955.85 160.03V92.6H1969.38V156.95C1969.38 160.47 1970.37 162.67 1975.1 162.67C1975.54 162.67 1976.42 162.67 1977.19 162.56ZM2049.04 174H2035.62L2023.85 140.67L2012.52 174H1998.44L1979.85 121.75H1995.03L2005.59 156.07L2017.91 121.75H2029.79L2041.89 156.07L2052.56 121.75H2067.85L2049.04 174ZM2128.61 174H2115.08V170.59C2110.9 174 2105.95 175.43 2100.56 175.43C2085.16 175.43 2072.84 163.11 2072.84 148.04C2072.84 132.86 2085.16 120.76 2100.56 120.76C2105.84 120.76 2110.79 122.19 2115.08 125.6V121.75H2128.61V174ZM2115.08 148.04C2115.08 140.34 2108.59 133.74 2100.56 133.74C2092.64 133.74 2086.15 140.34 2086.15 148.04C2086.15 155.85 2092.64 162.45 2100.56 162.45C2108.59 162.45 2115.08 155.85 2115.08 148.04ZM2163.39 201.83H2150.19L2159.65 175.43L2137.98 121.75H2152.94L2166.03 157.83L2179.01 121.75H2192.32L2163.39 201.83ZM2196.35 168.06L2203.5 157.72C2208.34 161.9 2214.17 163.11 2217.91 163.11C2222.75 163.11 2224.29 161.13 2224.29 159.26C2224.29 151.45 2197.78 156.29 2197.78 137.48C2197.78 127.91 2204.6 120.76 2216.26 120.76C2220.88 120.76 2229.35 121.86 2235.29 127.36L2228.14 137.04C2223.52 133.85 2219.23 133.08 2216.37 133.08C2211.86 133.08 2210.98 135.06 2210.98 136.38C2210.98 143.75 2237.16 140.23 2237.16 158.82C2237.16 168.39 2230.23 175.43 2217.03 175.43C2207.35 175.43 2201.08 171.69 2196.35 168.06ZM2360.13 133.3C2360.13 156.84 2341.32 175.43 2317.67 175.43C2294.24 175.43 2275.1 157.17 2275.1 133.41C2275.1 110.2 2293.36 91.17 2317.56 91.17C2341.43 91.17 2360.13 109.76 2360.13 133.3ZM2317.67 162.23C2333.29 162.23 2345.72 149.36 2345.72 133.41C2345.72 117.46 2333.4 104.37 2317.56 104.37C2301.61 104.37 2289.4 117.79 2289.4 133.52C2289.4 149.47 2302.05 162.23 2317.67 162.23ZM2420.3 174H2406.77V146.06C2406.77 135.94 2401.38 133.74 2395.99 133.74C2390.6 133.74 2385.21 135.83 2385.21 145.84V174H2371.68V121.75H2385.21V125.6C2388.18 123.4 2391.81 120.76 2398.96 120.76C2410.4 120.76 2420.3 127.47 2420.3 143.86V174ZM1911.34 291H1896.93V223.46H1870.75V209.6H1937.41V223.46H1911.34V291ZM1997.06 291H1983.53V263.06C1983.53 252.94 1978.14 250.74 1972.75 250.74C1967.36 250.74 1961.97 252.83 1961.97 262.84V291H1948.44V209.6H1961.97V242.6C1964.94 240.4 1968.57 237.76 1975.72 237.76C1987.16 237.76 1997.06 244.47 1997.06 260.86V291ZM2061.08 269.33H2021.26C2022.8 275.71 2027.97 280.22 2035.78 280.22C2040.51 280.22 2045.57 278.46 2048.65 274.39L2057.89 281.76C2053.16 288.47 2044.8 292.43 2035.89 292.43C2020.16 292.43 2008.06 280.66 2008.06 265.37C2008.06 250.52 2018.51 237.76 2035.12 237.76C2050.52 237.76 2061.41 250.3 2061.41 265.04C2061.41 266.47 2061.3 268.01 2061.08 269.33ZM2021.7 259.43H2047.77C2047 254.15 2041.5 250.08 2035.01 250.08C2028.74 250.08 2023.68 253.82 2021.7 259.43ZM2155.82 291H2103.68V209.6H2118.09V277.14H2155.82V291ZM2217.98 265.04C2217.98 280.11 2205.66 292.43 2190.15 292.43C2174.75 292.43 2162.43 280.11 2162.43 265.04C2162.43 249.86 2174.75 237.76 2190.15 237.76C2205.66 237.76 2217.98 249.86 2217.98 265.04ZM2204.67 265.04C2204.67 257.34 2198.18 250.74 2190.15 250.74C2182.23 250.74 2175.74 257.34 2175.74 265.04C2175.74 272.85 2182.23 279.45 2190.15 279.45C2198.18 279.45 2204.67 272.85 2204.67 265.04ZM2281.25 265.04C2281.25 280.11 2268.93 292.43 2253.42 292.43C2238.02 292.43 2225.7 280.11 2225.7 265.04C2225.7 249.86 2238.02 237.76 2253.42 237.76C2268.93 237.76 2281.25 249.86 2281.25 265.04ZM2267.94 265.04C2267.94 257.34 2261.45 250.74 2253.42 250.74C2245.5 250.74 2239.01 257.34 2239.01 265.04C2239.01 272.85 2245.5 279.45 2253.42 279.45C2261.45 279.45 2267.94 272.85 2267.94 265.04ZM2345.4 291H2327.58L2306.9 267.68V291H2293.37V209.6H2306.9V258.99L2325.82 238.75H2343.2L2320.32 262.62L2345.4 291ZM2405.86 265.04C2405.86 280.11 2393.54 292.43 2378.03 292.43C2362.63 292.43 2350.31 280.11 2350.31 265.04C2350.31 249.86 2362.63 237.76 2378.03 237.76C2393.54 237.76 2405.86 249.86 2405.86 265.04ZM2392.55 265.04C2392.55 257.34 2386.06 250.74 2378.03 250.74C2370.11 250.74 2363.62 257.34 2363.62 265.04C2363.62 272.85 2370.11 279.45 2378.03 279.45C2386.06 279.45 2392.55 272.85 2392.55 265.04ZM2452.41 265.81V238.75H2465.94V269.44C2465.94 285.83 2456.15 292.43 2441.41 292.43C2426.67 292.43 2416.88 285.83 2416.88 269.44V238.75H2430.41V265.81C2430.41 274.61 2432.17 279.45 2441.41 279.45C2450.65 279.45 2452.41 274.61 2452.41 265.81ZM2509.52 279.12V291.11C2509.52 291.11 2505.56 292.43 2499.07 292.43C2488.84 292.43 2483.56 285.72 2483.56 275.49V251.73H2475.31V238.75H2483.56V221.04H2497.09V238.75H2510.95V251.73H2497.09V272.63C2497.09 276.26 2498.08 279.67 2502.92 279.67C2506.33 279.67 2509.52 279.12 2509.52 279.12Z" fill="#242424"/>
<path d="M97.2 846H51.88C29.22 846 10.3 828.62 10.3 804.86C10.3 781.65 28.56 763.17 52.76 763.17C76.63 763.17 95.33 781.1 95.33 805.08C95.33 815.42 91.81 824.88 82.24 832.14H97.2V846ZM80.92 804.97C80.92 788.8 68.6 776.37 52.76 776.37C36.81 776.37 24.6 789.13 24.6 805.08C24.6 821.36 37.25 832.8 52.87 832.8C68.49 832.8 80.92 821.25 80.92 804.97ZM139.914 820.81V793.75H153.444V824.44C153.444 840.83 143.654 847.43 128.914 847.43C114.174 847.43 104.384 840.83 104.384 824.44V793.75H117.914V820.81C117.914 829.61 119.674 834.45 128.914 834.45C138.154 834.45 139.914 829.61 139.914 820.81ZM182.503 846H168.973V793.75H182.503V846ZM175.793 785.06C170.953 785.06 167.213 781.32 167.213 776.48C167.213 771.64 170.953 768.01 175.793 768.01C180.633 768.01 184.263 771.64 184.263 776.48C184.263 781.32 180.633 785.06 175.793 785.06ZM234.686 827.74L246.126 834.56C241.286 842.26 232.486 847.43 222.476 847.43C207.076 847.43 194.756 835.11 194.756 820.04C194.756 804.86 207.076 792.76 222.476 792.76C232.376 792.76 240.956 797.71 245.906 805.19L234.356 811.9C231.716 808.16 227.426 805.74 222.476 805.74C214.556 805.74 208.066 812.34 208.066 820.04C208.066 827.85 214.556 834.45 222.476 834.45C227.646 834.45 232.156 831.81 234.686 827.74ZM309.194 846H291.374L270.694 822.68V846H257.164V764.6H270.694V813.99L289.614 793.75H306.994L284.114 817.62L309.194 846ZM376.31 834.12V846.11C376.31 846.11 372.35 847.43 365.86 847.43C355.63 847.43 350.35 840.72 350.35 830.49V806.73H342.1V793.75H350.35V776.04H363.88V793.75H377.74V806.73H363.88V827.63C363.88 831.26 364.87 834.67 369.71 834.67C373.12 834.67 376.31 834.12 376.31 834.12ZM442.591 820.04C442.591 835.11 430.271 847.43 414.761 847.43C399.361 847.43 387.041 835.11 387.041 820.04C387.041 804.86 399.361 792.76 414.761 792.76C430.271 792.76 442.591 804.86 442.591 820.04ZM429.281 820.04C429.281 812.34 422.791 805.74 414.761 805.74C406.841 805.74 400.351 812.34 400.351 820.04C400.351 827.85 406.841 834.45 414.761 834.45C422.791 834.45 429.281 827.85 429.281 820.04ZM73.55 942.21L82.02 952.33C74.43 959.59 64.42 964.43 52.87 964.43C29.44 964.43 10.3 946.17 10.3 922.41C10.3 899.2 28.56 880.17 52.76 880.17C64.97 880.17 75.53 885.12 83.23 893.04L74.21 903.16C68.82 896.89 61.45 893.37 52.76 893.37C36.81 893.37 24.6 906.79 24.6 922.52C24.6 938.47 37.25 951.23 52.87 951.23C60.68 951.23 68.49 947.38 73.55 942.21ZM145.038 963H131.508V959.59C127.328 963 122.378 964.43 116.988 964.43C101.588 964.43 89.268 952.11 89.268 937.04C89.268 921.86 101.588 909.76 116.988 909.76C122.268 909.76 127.218 911.19 131.508 914.6V910.75H145.038V963ZM131.508 937.04C131.508 929.34 125.018 922.74 116.988 922.74C109.068 922.74 102.578 929.34 102.578 937.04C102.578 944.85 109.068 951.45 116.988 951.45C125.018 951.45 131.508 944.85 131.508 937.04ZM189.719 951.12V963.11C189.719 963.11 185.759 964.43 179.269 964.43C169.039 964.43 163.759 957.72 163.759 947.49V923.73H155.509V910.75H163.759V893.04H177.289V910.75H191.149V923.73H177.289V944.63C177.289 948.26 178.279 951.67 183.119 951.67C186.529 951.67 189.719 951.12 189.719 951.12ZM240.38 944.74L251.82 951.56C246.98 959.26 238.18 964.43 228.17 964.43C212.77 964.43 200.45 952.11 200.45 937.04C200.45 921.86 212.77 909.76 228.17 909.76C238.07 909.76 246.65 914.71 251.6 922.19L240.05 928.9C237.41 925.16 233.12 922.74 228.17 922.74C220.25 922.74 213.76 929.34 213.76 937.04C213.76 944.85 220.25 951.45 228.17 951.45C233.34 951.45 237.85 948.81 240.38 944.74ZM311.477 963H297.947V935.06C297.947 924.94 292.557 922.74 287.167 922.74C281.777 922.74 276.387 924.83 276.387 934.84V963H262.857V881.6H276.387V914.6C279.357 912.4 282.987 909.76 290.137 909.76C301.577 909.76 311.477 916.47 311.477 932.86V963ZM388.979 975.1L382.819 985.11C369.179 977.08 353.779 960.03 353.779 932.64C353.779 905.36 369.179 888.2 382.819 880.28L388.979 890.29C381.169 895.9 368.079 909.98 368.079 932.42C368.079 955.52 381.939 970.04 388.979 975.1ZM478.396 922.3C478.396 945.84 459.586 964.43 435.936 964.43C412.506 964.43 393.366 946.17 393.366 922.41C393.366 899.2 411.626 880.17 435.826 880.17C459.696 880.17 478.396 898.76 478.396 922.3ZM435.936 951.23C451.556 951.23 463.986 938.36 463.986 922.41C463.986 906.46 451.666 893.37 435.826 893.37C419.876 893.37 407.666 906.79 407.666 922.52C407.666 938.47 420.316 951.23 435.936 951.23ZM538.567 963H525.037V935.06C525.037 924.94 519.647 922.74 514.257 922.74C508.867 922.74 503.477 924.83 503.477 934.84V963H489.947V910.75H503.477V914.6C506.447 912.4 510.077 909.76 517.227 909.76C528.667 909.76 538.567 916.47 538.567 932.86V963ZM552.981 985.11L546.821 975.1C553.861 970.04 567.721 955.52 567.721 932.42C567.721 909.98 554.631 895.9 546.821 890.29L552.981 880.28C566.621 888.2 582.021 905.36 582.021 932.64C582.021 960.03 566.621 977.08 552.981 985.11Z" fill="#242424"/>
<path d="M2135.27 1282.03V1291.38C2135.27 1312.28 2122.95 1330.43 2098.53 1330.43C2074.11 1330.43 2055.3 1312.17 2055.3 1288.52C2055.3 1265.2 2073.56 1246.17 2097.76 1246.17C2109.97 1246.17 2120.75 1251.01 2128.45 1258.82L2119.76 1268.72C2113.82 1261.9 2105.57 1259.37 2098.31 1259.37C2081.59 1259.37 2069.6 1272.79 2069.6 1288.52C2069.6 1304.47 2081.81 1317.23 2098.64 1317.23C2110.52 1317.23 2119.65 1310.85 2120.97 1295.89H2095.34V1282.03H2135.27ZM2201.31 1303.04C2201.31 1318.11 2188.99 1330.43 2173.48 1330.43C2158.08 1330.43 2145.76 1318.11 2145.76 1303.04C2145.76 1287.86 2158.08 1275.76 2173.48 1275.76C2188.99 1275.76 2201.31 1287.86 2201.31 1303.04ZM2188 1303.04C2188 1295.34 2181.51 1288.74 2173.48 1288.74C2165.56 1288.74 2159.07 1295.34 2159.07 1303.04C2159.07 1310.85 2165.56 1317.45 2173.48 1317.45C2181.51 1317.45 2188 1310.85 2188 1303.04ZM2240.52 1317.12V1329.11C2240.52 1329.11 2236.56 1330.43 2230.07 1330.43C2219.84 1330.43 2214.56 1323.72 2214.56 1313.49V1289.73H2206.31V1276.75H2214.56V1259.04H2228.09V1276.75H2241.95V1289.73H2228.09V1310.63C2228.09 1314.26 2229.08 1317.67 2233.92 1317.67C2237.33 1317.67 2240.52 1317.12 2240.52 1317.12ZM2336.67 1329H2323.14V1325.59C2318.96 1329 2314.01 1330.43 2308.62 1330.43C2293.22 1330.43 2280.9 1318.11 2280.9 1303.04C2280.9 1287.86 2293.22 1275.76 2308.62 1275.76C2313.9 1275.76 2318.85 1277.19 2323.14 1280.6V1276.75H2336.67V1329ZM2323.14 1303.04C2323.14 1295.34 2316.65 1288.74 2308.62 1288.74C2300.7 1288.74 2294.21 1295.34 2294.21 1303.04C2294.21 1310.85 2300.7 1317.45 2308.62 1317.45C2316.65 1317.45 2323.14 1310.85 2323.14 1303.04ZM2397.8 1329H2383.39V1247.6H2433.88V1261.46H2397.8V1279.61H2425.96V1293.47H2397.8V1329ZM2458.57 1329H2445.04V1276.75H2458.57V1329ZM2451.86 1268.06C2447.02 1268.06 2443.28 1264.32 2443.28 1259.48C2443.28 1254.64 2447.02 1251.01 2451.86 1251.01C2456.7 1251.01 2460.33 1254.64 2460.33 1259.48C2460.33 1264.32 2456.7 1268.06 2451.86 1268.06ZM2488.75 1329H2475.22V1276.75H2488.75V1280.6C2493.81 1276.86 2498.76 1275.76 2508.88 1275.76V1288.74C2491.61 1288.74 2488.75 1293.58 2488.75 1302.6V1329ZM2601.42 1329H2587.89V1301.06C2587.89 1290.39 2583.16 1288.74 2578.32 1288.74C2572.93 1288.74 2567.43 1290.83 2567.43 1300.84V1329H2553.9V1301.06C2553.9 1290.39 2549.17 1288.74 2544.33 1288.74C2538.94 1288.74 2533.44 1290.83 2533.44 1300.84V1329H2519.91V1276.75H2533.44V1280.6C2536.74 1278.18 2540.04 1275.76 2546.97 1275.76C2553.79 1275.76 2559.84 1278.18 2563.47 1283.57C2568.42 1277.63 2575.46 1275.76 2580.96 1275.76C2592.51 1275.76 2601.42 1282.47 2601.42 1298.86V1329ZM2135.27 1399.03V1408.38C2135.27 1429.28 2122.95 1447.43 2098.53 1447.43C2074.11 1447.43 2055.3 1429.17 2055.3 1405.52C2055.3 1382.2 2073.56 1363.17 2097.76 1363.17C2109.97 1363.17 2120.75 1368.01 2128.45 1375.82L2119.76 1385.72C2113.82 1378.9 2105.57 1376.37 2098.31 1376.37C2081.59 1376.37 2069.6 1389.79 2069.6 1405.52C2069.6 1421.47 2081.81 1434.23 2098.64 1434.23C2110.52 1434.23 2119.65 1427.85 2120.97 1412.89H2095.34V1399.03H2135.27ZM2163.69 1446H2150.16V1393.75H2163.69V1397.6C2168.75 1393.86 2173.7 1392.76 2183.82 1392.76V1405.74C2166.55 1405.74 2163.69 1410.58 2163.69 1419.6V1446ZM2244.61 1446H2231.08V1442.59C2226.9 1446 2221.95 1447.43 2216.56 1447.43C2201.16 1447.43 2188.84 1435.11 2188.84 1420.04C2188.84 1404.86 2201.16 1392.76 2216.56 1392.76C2221.84 1392.76 2226.79 1394.19 2231.08 1397.6V1393.75H2244.61V1446ZM2231.08 1420.04C2231.08 1412.34 2224.59 1405.74 2216.56 1405.74C2208.64 1405.74 2202.15 1412.34 2202.15 1420.04C2202.15 1427.85 2208.64 1434.45 2216.56 1434.45C2224.59 1434.45 2231.08 1427.85 2231.08 1420.04ZM2255.85 1440.06L2263 1429.72C2267.84 1433.9 2273.67 1435.11 2277.41 1435.11C2282.25 1435.11 2283.79 1433.13 2283.79 1431.26C2283.79 1423.45 2257.28 1428.29 2257.28 1409.48C2257.28 1399.91 2264.1 1392.76 2275.76 1392.76C2280.38 1392.76 2288.85 1393.86 2294.79 1399.36L2287.64 1409.04C2283.02 1405.85 2278.73 1405.08 2275.87 1405.08C2271.36 1405.08 2270.48 1407.06 2270.48 1408.38C2270.48 1415.75 2296.66 1412.23 2296.66 1430.82C2296.66 1440.39 2289.73 1447.43 2276.53 1447.43C2266.85 1447.43 2260.58 1443.69 2255.85 1440.06ZM2323.43 1473.83H2309.9V1393.75H2323.43V1397.6C2327.61 1394.19 2332.56 1392.76 2337.95 1392.76C2353.35 1392.76 2365.67 1404.86 2365.67 1420.04C2365.67 1435.11 2353.35 1447.43 2337.95 1447.43C2332.56 1447.43 2327.61 1446 2323.43 1442.59V1473.83ZM2323.43 1419.49V1420.7C2323.76 1428.18 2330.14 1434.45 2337.95 1434.45C2345.87 1434.45 2352.36 1427.85 2352.36 1420.04C2352.36 1412.34 2345.87 1405.74 2337.95 1405.74C2330.14 1405.74 2323.76 1412.12 2323.43 1419.49Z" fill="#242424"/>
<path fill-rule="evenodd" clip-rule="evenodd" d="M1450.57 140.138C1373.32 62.8313 1252.34 50.8951 1161.53 111.575C1070.72 172.326 1035.36 288.785 1077.18 389.753C1119 490.722 1226.28 548.062 1333.36 526.745C1440.5 505.429 1517.61 411.281 1517.61 302.009C1517.68 241.258 1493.54 182.992 1450.58 140.148L1450.57 140.138ZM1340.09 250.628C1364.66 275.213 1368.42 313.652 1349.18 342.501C1329.94 371.42 1292.95 382.647 1260.93 369.361C1228.83 356.074 1210.66 321.967 1217.4 287.932C1224.15 253.896 1254.04 229.382 1288.69 229.382C1308 229.311 1326.46 236.985 1340.09 250.628ZM1288.69 196.698C1338.96 196.698 1382.19 232.154 1391.99 281.467C1401.86 330.707 1375.52 380.091 1329.16 399.347C1282.8 418.603 1229.26 402.402 1201.29 360.693C1173.38 318.913 1178.85 263.206 1214.28 227.679C1234.02 207.856 1260.78 196.698 1288.69 196.698ZM1314.53 562.48C1306.01 563.332 1297.42 563.759 1288.69 563.759C1279.95 563.759 1271.36 563.332 1262.84 562.48V690.449H1288.69C1331.43 690.449 1369.91 716.172 1386.31 755.677C1402.64 795.183 1393.63 840.587 1363.45 870.855C1333.2 901.054 1287.84 910.076 1248.36 893.735C1208.88 877.392 1183.18 838.881 1183.18 796.176C1184.6 783.529 1178.5 771.236 1167.56 764.699C1161.1 761.715 1153.58 761.715 1147.11 764.699C1136.25 771.236 1130.15 783.529 1131.64 796.176C1131.64 856.218 1165.79 911 1219.68 937.432C1273.57 963.793 1337.82 957.185 1385.18 920.379C1432.61 883.574 1454.9 822.963 1442.76 764.202C1430.55 705.369 1386.03 658.615 1327.88 643.694C1320.14 642.273 1314.46 635.523 1314.46 627.636V562.479L1314.53 562.48ZM1980.59 1260.66H588V1309.97H1980.59V1260.66ZM1980.59 1513.61L588 1513.68V1562.99L1980.59 1562.92V1513.61ZM1901.14 1481V1342.58H667.373V1481H1901.14ZM878.378 1228.05V1191.03H758.317V1228.05H878.378ZM1810.26 1228.05V1191.03H1690.2V1228.05H1810.26ZM1120.5 924.295C1127.6 919.037 1137.68 920.458 1143.01 927.564C1148.4 934.598 1147.06 944.688 1140.1 950.16L876.327 1150.96C869.227 1156.36 859.003 1155.01 853.607 1147.83C848.211 1140.73 849.56 1130.49 856.731 1125.09L1120.5 924.368L1120.5 924.295ZM1323.56 830.717C1331.44 835.123 1334.21 844.999 1329.88 852.814C1325.55 860.701 1315.61 863.544 1307.8 859.138C1301.34 855.586 1294.17 853.454 1286.79 853.099C1279.4 852.743 1272.09 854.022 1265.35 857.007C1257.25 859.636 1248.59 855.657 1245.18 847.912C1241.84 840.096 1245.04 831.072 1252.42 827.022C1275.43 817.075 1301.7 818.425 1323.57 830.646L1323.56 830.717ZM1711.93 1125.1C1718.04 1130.86 1718.82 1140.31 1713.71 1146.99C1708.66 1153.6 1699.29 1155.37 1692.19 1150.97L1430.84 951.66C1424.66 945.904 1423.88 936.454 1428.99 929.775C1434.11 923.025 1443.41 921.32 1450.58 925.796L1711.93 1125.1Z" fill="black"/>
<path d="M1381.31 843.344L1522.84 801.898L1576.41 828.181L1583.08 798.254L1612.04 820.63L1671.44 897.931L1721.98 914.106V786.735L1758.14 766.664L1796.79 775.615L1904.95 938.367L1939.78 961.469L1961.56 990.932L1998.46 1075.85L2024.02 1120.74L2035.35 1160.76L1992.9 1208.27L1904.95 1239.61L1871.34 1222.09L1841.07 1223.4L1813.42 1202.34L1788.42 1208.92L1759.46 1191.81L1733.13 1194.45L1706.81 1182.6L1684.58 1179.97L1721.98 1336.65L1656.27 1354.85L1629.99 1320.48L1595.62 1335.64L1576.5 1332.65L1565.29 1320.48L1529.11 1305.01L1496.55 1320.48H1427.81L1400.12 1318.17L1344.92 1304.31L1190.84 1301.06L1181.16 1320.48L1226.65 1441.78L1261.92 1459.01V1415.58L1290.33 1370.01L1369.18 1354.85L1427.81 1430.67L1414.67 1502.44L1318.64 1547.93L1197.33 1502.44L1125.56 1430.67L1060.87 1309.36L1053.79 1218.38L1065.79 1135.21L1085.13 1054.62L1197.33 914.106L1307.98 862.75L1381.31 843.344Z" fill="url(#paint0_linear_2038_1623)"/>
<circle cx="1864.76" cy="1047.03" r="68.445" fill="white"/>
<path d="M1861.51 1073.48C1869.75 1067.02 1871.18 1055.08 1864.72 1046.84C1858.26 1038.6 1846.34 1037.16 1838.1 1043.62C1829.86 1050.08 1828.41 1062.01 1834.88 1070.25C1841.34 1078.49 1853.27 1079.95 1861.51 1073.48Z" fill="black"/>
<path d="M2041.14 1172.93C2041.15 1172.9 2041.16 1172.88 2041.17 1172.85C2041.17 1172.82 2041.18 1172.8 2041.19 1172.77C2053.79 1136.61 2030.26 1105.03 2011.34 1079.66C2004.66 1070.69 1998.34 1062.22 1994.31 1054.58C1987.68 1042.01 1984.92 1029.41 1982.25 1017.22C1978.74 1001.19 1975.11 984.611 1962.87 969.001C1945.93 947.403 1918.86 932.948 1908.04 927.745C1907.21 915.719 1905.02 904.394 1901.53 894.021C1892.64 867.617 1860.2 815.759 1834.55 776.902C1816.99 750.278 1781.96 740.503 1753.11 754.138C1748.8 756.174 1744.68 758.717 1740.88 761.699C1724.2 774.777 1715.01 795.203 1716.28 816.334C1717.46 835.896 1718.89 864.868 1718.96 891.803C1718.97 896.062 1718.94 900.139 1718.87 904.045C1709.82 904.842 1691.58 904.001 1673.67 888.611C1656.98 874.273 1649.18 860.059 1640.93 845.012C1635.94 835.909 1630.78 826.497 1623.61 817.355C1604.66 793.187 1577.16 779.545 1576 778.975C1573.01 777.514 1569.43 778.028 1566.98 780.272C1564.53 782.518 1563.7 786.034 1564.89 789.139C1568.41 798.289 1569.61 807.057 1568.5 815.676C1546.34 797.774 1523.77 789.186 1499.8 789.48C1496.87 789.516 1494.18 791.142 1492.79 793.727C1491.39 796.31 1491.51 799.448 1493.09 801.923C1494.67 804.392 1496.21 806.849 1497.72 809.299C1476.13 803.26 1454.47 801.646 1433.08 804.525C1430.47 804.876 1428.19 806.476 1426.98 808.815C1425.76 811.153 1425.77 813.934 1426.98 816.271C1429.27 820.668 1431.5 825.105 1433.67 829.553C1415.55 828.488 1382.05 828.743 1340.05 839.193C1306.13 847.625 1273.08 861.174 1241.8 879.466C1213.56 895.951 1186.53 916.498 1161.43 940.54C1140.32 960.779 1121.69 983.091 1106.09 1006.85C1083.16 1041.71 1066.4 1079.98 1056.27 1120.6C1008.49 1312.28 1000.09 1238.13 1093.6 1396.96C1103.52 1413.82 1114.33 1429.68 1125.85 1444.36C1155.97 1482.78 1190.91 1513.1 1227.34 1531.97C1279.21 1558.85 1331.82 1561.35 1375.47 1539.02C1423.29 1514.56 1437.35 1481.92 1440.73 1458.85C1445.2 1428.32 1433.23 1395.25 1409.5 1372.55C1389.69 1353.6 1362.14 1344.3 1333.93 1347.03C1306.33 1349.69 1282 1363.25 1267.17 1384.24C1255.23 1401.13 1251.32 1420.46 1255.85 1440.13C1256.89 1444.67 1258.38 1449.1 1260.2 1453.38C1241.01 1435.84 1221.42 1410.82 1205.53 1377.43C1198.54 1362.75 1192.96 1326.01 1190.93 1310.48C1210.12 1308.23 1235.5 1312.3 1255.55 1310.48C1297.52 1306.69 1337.66 1319.16 1383.86 1317.29C1384.92 1320.06 1386.37 1322.63 1388.16 1324.91C1393.36 1331.54 1401.32 1335.83 1410.35 1336.22L1450.89 1337.94C1460.43 1338.34 1469.39 1334.21 1475.27 1326.96L1492.18 1326.65C1500.96 1326.49 1508.84 1321.85 1513.3 1314.62C1525.13 1314.59 1536.91 1314.62 1548.5 1314.7C1549.57 1317.83 1550.67 1320.95 1551.84 1324.05C1553 1327.11 1554.59 1329.92 1556.55 1332.42C1562.04 1339.42 1570.34 1343.96 1579.48 1344.58L1600.46 1346.06C1610.83 1346.78 1620.92 1342.4 1627.47 1334.34C1627.69 1334.06 1627.87 1333.77 1628.08 1333.49C1630.06 1336.91 1632.34 1340.4 1634.93 1343.71C1641.21 1351.72 1649.34 1358.71 1659.52 1361.42C1676.22 1365.86 1695.87 1362.85 1710.81 1353.58C1722.29 1346.45 1729.91 1336.08 1732.29 1324.39C1733.65 1309.89 1731.82 1301.06 1725.92 1262.87C1722.23 1249.86 1721.3 1238.18 1708.1 1235.5C1733.77 1237.27 1680.45 1229.92 1708.1 1235.5C1701.11 1218.17 1694.32 1202.74 1690.6 1194.45L1706.39 1184.3L1725.92 1209.2C1728.67 1212.72 1733.76 1213.33 1737.27 1210.58L1758.59 1193.86L1778.36 1220.89C1780.69 1224.04 1785 1225.13 1788.53 1223.34L1814.99 1209.96L1832.99 1235.83C1835.23 1239.1 1839.59 1240.23 1843.17 1238.48L1870.89 1224.96L1891.91 1253.71C1893.23 1255.48 1895.09 1256.61 1897.22 1256.93C1899.35 1257.25 1901.52 1256.72 1903.25 1255.43L1936.32 1230.92C1950.64 1229.1 2025.49 1217.54 2041.14 1172.93ZM1690.26 1030.69C1690.66 1030.1 1691.05 1029.52 1691.46 1028.93C1696.58 1021.34 1701.86 1013.53 1706.9 1005.55C1722.17 1002.77 1736.84 1003.58 1750.55 1007.97C1763.95 1012.28 1776.87 1020.18 1789.02 1031.41C1787.5 1038.97 1787.11 1046.74 1787.85 1054.39C1772.51 1045.86 1756.48 1039.49 1739.96 1035.43C1723.26 1031.34 1706.61 1029.77 1690.26 1030.69ZM1807.59 1068.54C1803.05 1056.61 1802.4 1043.21 1805.76 1030.82C1809.22 1018.04 1816.57 1006.96 1827.02 998.764C1827.72 998.212 1828.43 997.682 1829.14 997.171C1838.01 990.807 1848.42 986.935 1859.23 985.974C1870.11 985.003 1881.09 986.965 1890.98 991.642C1899.56 995.733 1906.9 1001.62 1912.8 1009.14C1933.59 1035.65 1928.93 1074.13 1902.42 1094.92C1875.91 1115.71 1837.43 1111.05 1816.64 1084.54C1812.82 1079.67 1809.78 1074.29 1807.59 1068.54ZM1750.86 774.428C1752.17 773.403 1753.53 772.457 1754.92 771.576C1785.05 804.3 1808.36 837.384 1824.2 869.976C1835.64 893.575 1843.35 917.357 1847.31 941.037C1835.07 920.679 1821.76 901.615 1807.46 884.126C1785.15 856.786 1759.88 832.488 1732.35 811.782C1732.56 797.25 1739.31 783.487 1750.86 774.428ZM1468.9 1310.9C1465.03 1310.96 1461.51 1308.57 1460.14 1304.93C1457.54 1298.06 1455.5 1291.18 1454.09 1284.51C1453.7 1282.64 1453.35 1280.76 1453.04 1278.94C1452.21 1273.9 1452.71 1268.54 1453.24 1262.87C1453.93 1255.44 1454.72 1247.02 1452.55 1237.95C1449.86 1226.71 1433.54 1205.92 1415.4 1190.62C1405.46 1182.26 1390.65 1172.02 1376.47 1170.65C1359.46 1169.02 1338.07 1184.94 1315.43 1201.8C1306.41 1208.52 1297.07 1215.47 1288.46 1220.9C1278.32 1227.3 1270.54 1230.72 1264.7 1231.37C1240.35 1234.03 1220.5 1218.96 1216.61 1215.78C1178.58 1158.31 1130.72 1124.7 1074.27 1115.77C1083.59 1082.04 1097.76 1050.1 1116.47 1020.62C1141.68 1027.6 1164.05 1038.46 1183.05 1052.95C1199.78 1065.75 1214.33 1081.69 1226.46 1100.44C1207.07 1106.4 1188.47 1124.96 1185.96 1127.53C1182.85 1130.72 1182.9 1135.85 1186.1 1138.96C1189.29 1142.08 1194.41 1142.02 1197.53 1138.83C1207.24 1128.91 1227.07 1113.62 1238.97 1114.83C1245.75 1115.52 1249.65 1118.29 1255.55 1122.49C1263.98 1128.47 1274.46 1135.93 1296.48 1139.15C1304.63 1140.35 1313.92 1139.55 1324.88 1136.69C1339.17 1132.93 1353.74 1126.34 1367.82 1119.98C1376.67 1115.98 1385.03 1112.2 1392.36 1109.6C1400.23 1106.8 1405.93 1105.73 1409.3 1106.42C1418.5 1108.31 1426.73 1119.75 1436.24 1133C1437.89 1135.3 1439.57 1137.63 1441.29 1139.97C1448.92 1150.37 1458.37 1162.16 1470.69 1170.69C1488.34 1182.93 1508.78 1189.69 1523.21 1193.25C1513.7 1201.66 1502.29 1214.52 1496.62 1231.3C1490.19 1250.29 1495.23 1278.63 1500.58 1299.08C1501.02 1300.76 1500.98 1302.46 1500.46 1304.11C1499.48 1307.22 1496.44 1310.4 1491.89 1310.48L1468.9 1310.9ZM1387.63 1232.35C1386.98 1231.14 1386.53 1229.99 1386.26 1228.89C1383.57 1218.13 1400.51 1209.55 1408.57 1206.12C1419.93 1216.36 1429.11 1227.72 1433.72 1235.26C1418.96 1240.07 1394.42 1244.95 1387.63 1232.35ZM1360.64 1260.2C1343.72 1258.88 1297.84 1258.08 1280.38 1257.81C1282.59 1256.18 1322.91 1216.4 1325.1 1214.77C1343.39 1201.15 1364.13 1185.71 1374.92 1186.75C1380.24 1187.26 1386.87 1190.09 1394.2 1194.89C1383.13 1200.83 1362.77 1248.17 1360.64 1260.2ZM1463.06 1079.36C1458.69 1093 1453.2 1106.55 1446.67 1119.81C1436.61 1105.92 1426.68 1093.47 1412.55 1090.58C1409.06 1089.86 1405.17 1089.88 1400.65 1090.63C1407.86 1056.13 1408.02 1019.54 1401.07 981.643C1393.66 941.181 1377.87 897.792 1354.11 852.536C1397.59 843.157 1430.34 845.258 1441.53 846.447C1458.39 884.402 1469.23 921.468 1473.72 956.685C1476.54 978.721 1476.91 1000.59 1474.9 1021.64C1472.46 1023.61 1470.25 1025.82 1468.31 1028.27C1458.01 1041.26 1456.27 1058.44 1463.06 1079.36ZM1172.62 952.218C1194.9 930.878 1218.75 912.454 1243.59 897.287C1267.66 932.199 1285.84 968.718 1297.65 1005.94C1309.52 1043.33 1315.29 1082.47 1314.85 1122.39C1308.68 1123.57 1303.4 1123.82 1298.84 1123.15C1280.66 1120.49 1272.67 1114.8 1264.93 1109.31C1259.27 1105.28 1253.44 1101.15 1244.83 1099.39C1230.82 1075.71 1213.36 1055.77 1192.87 1040.1C1173.52 1025.34 1151.03 1014.07 1125.9 1006.5C1139.47 987.193 1155.15 968.969 1172.62 952.218ZM1223.52 1437.21C1245.78 1465.6 1272.01 1486.94 1297.94 1496.75C1319.76 1505.01 1339 1504.24 1353.57 1494.51C1367.57 1485.16 1377.63 1474.89 1383.49 1464.01C1383.55 1463.9 1383.61 1463.79 1383.67 1463.68C1393.19 1445.77 1391.15 1426.63 1377.94 1409.79C1359.26 1385.96 1333.49 1381.31 1312.3 1397.93C1302.92 1405.28 1297.31 1415.77 1296.5 1427.46C1295.61 1440.19 1300.48 1452.78 1310.26 1462.91C1320.19 1473.21 1334.54 1478.35 1348.75 1478.16C1347.42 1479.13 1346.03 1480.1 1344.59 1481.06C1332.12 1489.38 1315.9 1486.15 1304.27 1481.85C1291.8 1474.78 1276.25 1456.66 1271.61 1436.5C1268.09 1421.23 1271.04 1406.78 1280.38 1393.57C1292.49 1376.44 1312.58 1365.34 1335.48 1363.13C1359.01 1360.85 1381.91 1368.55 1398.32 1384.24C1418.34 1403.39 1428.44 1431.07 1424.72 1456.51C1420.67 1484.19 1401.1 1507.75 1368.11 1524.62C1287.67 1565.76 1178.09 1508.63 1107.54 1388.75C1098.25 1372.97 1090.18 1355.94 1083.55 1338.12C1074.02 1312.55 1067.46 1285.53 1064.04 1257.81C1058.75 1215.3 1060.86 1172.85 1070.3 1131.53C1121.59 1139.23 1165.44 1169.36 1200.78 1221.22C1192.45 1234.54 1171.11 1274.15 1175.05 1325.48C1176.59 1345.64 1181.93 1365.46 1190.93 1384.38C1200.1 1403.65 1211.2 1421.51 1223.52 1437.21ZM1370.07 1454.74C1357.93 1464.29 1334.87 1465.13 1321.9 1451.69C1315.35 1444.88 1312.07 1436.69 1312.63 1428.59C1313.12 1421.51 1316.55 1415.15 1322.28 1410.66C1336.16 1399.77 1352.21 1403.18 1365.21 1419.77C1374.16 1431.17 1375.79 1442.93 1370.07 1454.74ZM1411.04 1320.06C1404.4 1319.78 1398.84 1314.61 1398.08 1307.84C1398 1307.27 1397.98 1306.58 1398 1305.87C1398.18 1301.86 1400.08 1298.16 1403.22 1295.7C1405.76 1293.7 1408.96 1292.68 1412.21 1292.81L1439.72 1293.98C1441.14 1299.5 1442.91 1305.08 1445.01 1310.64C1446.7 1315.13 1449.6 1318.92 1453.23 1321.74C1452.68 1321.78 1452.13 1321.8 1451.57 1321.78L1411.04 1320.06ZM1700.19 1262.87C1691.83 1262.55 1677.92 1262.76 1669.7 1262.87C1666.63 1253.81 1655.25 1207.95 1642.65 1194.21C1633.54 1184.28 1624.51 1180.05 1617.25 1176.67C1614.11 1175.2 1611.48 1173.95 1609.18 1172.5C1622.66 1167.13 1639.81 1162.18 1648.31 1164.68C1659.89 1168.08 1670.16 1187.8 1672.84 1194.43C1672.89 1194.56 1672.98 1194.67 1673.04 1194.8L1673 1194.81C1673.1 1195.02 1691.09 1240.78 1700.19 1262.87ZM1702.28 1339.84C1691.17 1346.74 1676.02 1349.07 1663.67 1345.79C1650.45 1342.27 1641.35 1325.39 1636.78 1314.61C1662.32 1312.03 1689 1311.76 1716.31 1313.78C1716.85 1318.17 1716.61 1320.33 1716.44 1321.17C1714.55 1330.51 1707.69 1336.48 1702.28 1339.84ZM1932.4 1215.09C1930.96 1215.24 1929.58 1215.78 1928.42 1216.64L1900.16 1237.59L1879.96 1209.95C1877.65 1206.89 1873.4 1205.74 1869.88 1207.45L1842.31 1220.9L1824.26 1194.96C1821.98 1191.68 1817.57 1190.54 1813.97 1192.36L1787.36 1205.81L1766.72 1177.56C1765.36 1175.75 1763.46 1174.62 1761.29 1174.32C1759.12 1174.02 1756.92 1174.62 1755.2 1175.97L1733.65 1192.86L1714.58 1168.54C1712.01 1165.25 1707.36 1164.47 1703.85 1166.72L1683.72 1179.65C1678.26 1169.38 1667.71 1153.52 1652.88 1149.17C1637.25 1144.57 1612.22 1153.6 1599.46 1159.01C1597.83 1153.32 1597.52 1146.72 1597.22 1139.83C1596.83 1130.95 1596.43 1121.77 1593.15 1113.19C1585.88 1094.14 1568.03 1083.58 1567.27 1083.14C1563.42 1080.9 1558.49 1082.21 1556.24 1086.05C1553.98 1089.9 1555.27 1094.85 1559.11 1097.11C1559.25 1097.19 1572.85 1105.35 1578.04 1118.95C1580.38 1125.09 1580.71 1132.59 1581.06 1140.53C1581.55 1151.88 1582.07 1163.62 1588.43 1173.98C1589.24 1175.3 1590.08 1176.51 1590.96 1177.63C1596.67 1184.91 1603.64 1188.17 1610.41 1191.33C1616.99 1194.4 1623.79 1197.57 1630.74 1205.15C1639.43 1214.63 1645.1 1226.54 1648.29 1234.73C1646.45 1234.82 1644.62 1234.91 1642.8 1235.01C1625.73 1236.01 1611.96 1249.98 1611.47 1266.81C1611.09 1279.24 1613.34 1294.53 1617.82 1309.89C1617.83 1309.9 1617.83 1309.91 1617.84 1309.92C1617.84 1309.94 1617.84 1309.95 1617.85 1309.98C1619.26 1314.96 1618.19 1320.12 1614.92 1324.15C1611.64 1328.19 1606.78 1330.3 1601.6 1329.93L1580.61 1328.45C1574.48 1328.03 1569.13 1324.07 1566.98 1318.34C1565.2 1313.65 1563.54 1308.89 1562.03 1304.19C1557.13 1288.95 1553.77 1274.14 1552.04 1260.2C1550.87 1250.8 1552.02 1241.54 1553.23 1231.74C1555.08 1216.8 1557 1201.34 1550.15 1185.57C1547.16 1178.69 1539.46 1168.75 1528.81 1155C1511.8 1133.04 1488.5 1102.97 1479.19 1076.64C1473.26 1059.86 1473.84 1047.33 1480.99 1038.32C1482.73 1036.11 1484.73 1034.28 1487.13 1032.68C1500.39 1023.76 1524.32 1023.75 1556.33 1032.66C1590.22 1042.07 1621.28 1058.24 1621.59 1058.4C1625.55 1060.48 1630.43 1058.95 1632.51 1054.99C1634.58 1051.04 1633.06 1046.15 1629.1 1044.08C1627.86 1043.43 1600.3 1029.07 1567.68 1019.12C1572.78 986.467 1571.08 952.315 1562.58 917.488C1554.94 886.197 1541.59 853.455 1522.89 820.2C1520.47 815.852 1517.9 811.418 1515.21 806.926C1532.99 810.183 1549.93 819.742 1567.5 836.284C1569.47 838.133 1572.23 838.88 1574.86 838.276C1577.49 837.671 1579.65 835.792 1580.61 833.268C1584.33 823.471 1585.71 813.422 1584.76 803.229C1592.97 808.993 1602.91 817.17 1610.89 827.337C1617.24 835.435 1621.86 843.864 1626.75 852.789C1635.33 868.443 1644.21 884.629 1663.12 900.88C1684.11 918.914 1705.85 920.976 1718.36 920.254C1717.7 934.294 1716.46 945.127 1714.64 952.423C1714.01 954.942 1714.64 957.48 1716.12 959.377C1717.19 960.742 1718.71 961.776 1720.52 962.228C1724.86 963.309 1729.25 960.675 1730.33 956.34C1732.83 946.322 1734.36 931.118 1734.88 911.18C1734.92 909.804 1734.96 908.39 1734.99 906.955C1749.71 917.425 1763.38 929.008 1775.74 941.55C1789.82 955.836 1802.55 971.722 1813.69 988.828C1805.45 996.056 1798.93 1004.81 1794.44 1014.66C1782.14 1004.39 1769.09 996.938 1755.48 992.565C1738.05 986.985 1719.45 986.255 1700.19 990.394C1698.04 990.856 1696.17 992.174 1695.02 994.042C1689.6 1002.79 1683.73 1011.47 1678.05 1019.87C1674.19 1025.58 1670.55 1030.97 1667.14 1036.23C1655.47 1054.26 1650.4 1065.3 1649.63 1074.35C1647.92 1094.83 1661.39 1115.43 1669.7 1126.03C1673.05 1130.3 1675.56 1132.95 1675.9 1133.3C1678.99 1136.52 1684.1 1136.62 1687.32 1133.53C1690.54 1130.45 1690.64 1125.33 1687.57 1122.1C1681 1115.23 1664.26 1093.48 1665.75 1075.7C1666.34 1068.72 1672.97 1057.21 1678.74 1048.1C1697.43 1045.4 1716.7 1046.38 1736.11 1051.13C1756.14 1056.06 1775.45 1064.72 1793.55 1076.84C1796.21 1083.15 1799.66 1089.1 1803.91 1094.52C1830.2 1128.05 1878.87 1133.94 1912.4 1107.64C1945.93 1081.35 1951.81 1032.68 1925.52 999.156C1919.46 991.431 1912.18 985.093 1903.84 980.202C1905.44 973.137 1907.71 960.833 1908.29 946.061C1920.01 952.407 1938.3 963.884 1950.14 978.977C1960.1 991.676 1963.04 1005.11 1966.45 1020.68C1969.35 1033.91 1972.34 1047.6 1980 1062.12C1984.62 1070.88 1991.3 1079.84 1998.37 1089.32C2015.39 1112.15 2032.92 1135.7 2027.59 1161.38L1805.39 1134.5C1788.84 1132.5 1774.07 1124.18 1763.78 1111.06L1745.08 1087.22C1742.33 1083.7 1737.24 1083.09 1733.73 1085.84C1730.21 1088.6 1729.6 1093.68 1732.35 1097.2L1751.06 1121.05C1764.01 1137.56 1782.61 1148.04 1803.44 1150.56L2020.93 1176.87C2002.65 1202.24 1952.3 1213 1932.4 1215.09Z" fill="black"/>
<path d="M1954.57 1113.38L1965.28 1127.03C1968.03 1130.54 1973.12 1131.16 1976.63 1128.4C1980.14 1125.65 1980.76 1120.56 1978 1117.05L1967.3 1103.4C1964.54 1099.88 1959.46 1099.27 1955.94 1102.03C1952.43 1104.78 1951.82 1109.87 1954.57 1113.38Z" fill="black"/>
<mask id="mask0_2038_1623" style="mask-type:alpha" maskUnits="userSpaceOnUse" x="1827" y="741" width="310" height="272">
<path d="M2106.95 870.646C2204.35 1074.67 2037.2 994.863 1987.17 1008.85C1868.71 982.527 1925.79 990.424 1897.02 887.532C1877.21 816.68 1793.67 758.273 1843.7 744.284C1893.73 730.295 2081.21 778.599 2106.95 870.646Z" fill="#D9D9D9"/>
</mask>
<g mask="url(#mask0_2038_1623)">
<path d="M2002.97 893.024C2002.97 902.238 2004.28 907.503 2001.65 925.93C1983.22 940.121 1949.63 942.01 1936.29 924.686C1922.96 907.361 1927.09 881.813 1945.52 867.623C1963.95 853.432 1989.63 875.699 2002.97 893.024Z" fill="black"/>
<path d="M1912.29 788.149C1881.46 778.928 1848.24 782.007 1819.63 796.74C1791 811.48 1769.19 836.739 1758.79 867.214L1757.95 869.654L1755.68 870.879L1732.83 883.219L1732.83 883.22C1731.92 883.714 1731.17 884.465 1730.68 885.381C1730.19 886.297 1729.98 887.337 1730.08 888.371L1730.08 888.372C1730.18 889.406 1730.58 890.389 1731.23 891.198C1731.88 892.007 1732.76 892.606 1733.75 892.921L1802.79 914.855L1825.44 922.05L1802.31 927.531L1767.06 935.889L1767.06 935.89C1766.38 936.053 1765.74 936.347 1765.17 936.757C1764.61 937.168 1764.13 937.686 1763.76 938.281C1763.4 938.876 1763.15 939.538 1763.04 940.227C1762.93 940.917 1762.96 941.621 1763.13 942.3C1763.29 942.979 1763.58 943.619 1763.99 944.184C1764.4 944.749 1764.92 945.228 1765.52 945.593C1766.11 945.958 1766.77 946.202 1767.46 946.312C1768.15 946.421 1768.86 946.393 1769.54 946.23L1769.54 946.228L1769.55 946.226L1836.9 930.29L1836.91 930.287L1836.92 930.285L1837.19 930.215C1837.8 930.037 1838.37 929.746 1838.88 929.355L1841.61 927.245L1844.9 928.289L1896.14 944.56L1896.14 944.56C1934.86 956.794 2018 994.006 2023.84 996.628L2024.61 996.891C2025.71 997.264 2026.9 997.268 2028 996.9C2029.1 996.531 2030.05 995.812 2030.7 994.852C2031.35 993.893 2031.66 992.746 2031.6 991.588C2031.54 990.431 2031.09 989.326 2030.34 988.444L1993.8 945.687L1991.55 943.062L1992.44 939.724C1993.91 934.173 1995.02 928.533 1995.75 922.841L1953.02 908.277C1948.38 906.698 1944.57 903.344 1942.41 898.952C1940.25 894.559 1939.92 889.489 1941.5 884.856C1943.08 880.223 1946.44 876.407 1950.83 874.247C1955.22 872.088 1960.29 871.762 1964.92 873.341L1994.72 883.493C1992.6 871.792 1988.84 860.43 1983.53 849.75L1983.52 849.718C1976.39 835.181 1966.4 822.231 1954.15 811.648C1941.92 801.081 1927.68 793.089 1912.29 788.149Z" fill="#FFCD00" stroke="black" stroke-width="13.1625"/>
</g>
<line x1="1961.27" y1="888.115" x2="1988.53" y2="897.879" stroke="#FBFF00" stroke-width="5.265"/>
<line x1="1957.72" y1="898.028" x2="1984.99" y2="907.793" stroke="#ED1818" stroke-width="5.265"/>
<path d="M1729 1352L1804 1395.3L1804 1308.7L1729 1352ZM2035 1352L2035 1344.5L1796.5 1344.5L1796.5 1352L1796.5 1359.5L2035 1359.5L2035 1352Z" fill="#ED1818"/>
<path d="M1089 1367L1041.42 1294.64L1002.54 1372.03L1089 1367ZM663 1153L659.633 1159.7L1025.32 1343.4L1028.68 1336.7L1032.05 1330L666.367 1146.3L663 1153Z" fill="#ED1818"/>
<path d="M1246 963L1224.72 879.052L1162.66 939.453L1246 963ZM737 440L731.625 445.231L1193.55 919.858L1198.92 914.627L1204.3 909.396L742.375 434.769L737 440Z" fill="#ED1818"/>
<path d="M1876 978L1937.5 917.023L1853.94 894.254L1876 978ZM1988 567L1980.76 565.028L1886.51 910.903L1893.75 912.875L1900.98 914.847L1995.24 568.972L1988 567Z" fill="#ED1818"/>
<path d="M60.072 514H50.888L45.476 499.814H17.596L12.184 514H3.164L27.026 453.32H36.21L60.072 514ZM42.442 491.942L31.618 463.488L20.63 491.942H42.442ZM105.028 514H97.1559V509.408C93.8759 513.262 89.3659 515.066 84.1179 515.066C72.5559 515.066 63.5359 506.128 63.5359 494.73C63.5359 483.168 72.7199 474.312 84.1179 474.312C89.3659 474.312 93.7939 476.198 97.1559 480.052V453.32H105.028V514ZM96.9919 494.73C96.9919 487.678 91.4979 481.774 84.1179 481.774C76.8199 481.774 71.3259 487.514 71.3259 494.73C71.3259 502.028 76.8199 507.686 84.1179 507.686C91.5799 507.686 96.9919 501.782 96.9919 494.73ZM156.358 514H148.486V509.408C145.206 513.262 140.696 515.066 135.448 515.066C123.886 515.066 114.866 506.128 114.866 494.73C114.866 483.168 124.05 474.312 135.448 474.312C140.696 474.312 145.124 476.198 148.486 480.052V475.05H156.358V514ZM148.322 494.73C148.322 487.678 142.828 481.774 135.448 481.774C128.15 481.774 122.656 487.514 122.656 494.73C122.656 502.028 128.15 507.686 135.448 507.686C142.91 507.686 148.322 501.782 148.322 494.73ZM177.348 534.746H169.476V475.05H177.348V480.052C180.628 476.198 185.138 474.312 190.386 474.312C201.784 474.312 210.968 483.168 210.968 494.73C210.968 506.128 201.948 515.066 190.386 515.066C185.138 515.066 180.628 513.262 177.348 509.408V534.746ZM177.594 494.73C177.594 501.782 182.76 507.686 190.304 507.686C197.684 507.686 203.178 502.028 203.178 494.73C203.178 487.514 197.684 481.774 190.386 481.774C183.088 481.774 177.594 487.514 177.594 494.73ZM239.256 507.112V514.164C238.436 514.492 235.976 515.066 233.106 515.066C223.512 515.066 221.79 508.752 221.79 502.028V482.512H215.64V475.05H221.79V461.848H229.744V475.05H240.322V482.512H229.744V501.126C229.744 505.554 230.728 507.686 234.91 507.686C236.304 507.686 238.436 507.44 239.256 507.112ZM246.02 509.982L250.284 503.914C254.22 507.112 258.402 507.932 261.19 507.932C265.372 507.932 267.668 506.128 267.668 503.504C267.668 495.796 247.414 500.552 247.414 486.53C247.414 479.396 252.662 474.312 260.78 474.312C264.06 474.312 269.554 475.132 273.982 478.74L269.8 484.562C266.356 482.02 262.912 481.528 260.862 481.528C256.926 481.528 255.204 483.496 255.204 485.628C255.204 493.008 275.376 488.99 275.376 503.012C275.376 510.474 269.718 515.066 260.944 515.066C255.122 515.066 250.038 513.016 246.02 509.982ZM343.859 497.354H311.961C313.027 503.34 317.947 507.932 324.589 507.932C328.853 507.932 333.035 506.046 335.495 502.602L341.071 506.866C337.463 511.95 331.313 515.066 324.589 515.066C313.273 515.066 304.171 506.21 304.171 494.73C304.171 483.824 312.453 474.312 324.097 474.312C335.659 474.312 344.023 483.742 344.023 494.648C344.023 495.714 343.941 496.534 343.859 497.354ZM312.207 491.122H335.987C335.085 485.71 330.329 481.528 324.179 481.528C318.111 481.528 313.601 485.628 312.207 491.122ZM391.868 514H383.996V509.408C380.716 513.262 376.206 515.066 370.958 515.066C359.396 515.066 350.376 506.128 350.376 494.73C350.376 483.168 359.56 474.312 370.958 474.312C376.206 474.312 380.634 476.198 383.996 480.052V475.05H391.868V514ZM383.832 494.73C383.832 487.678 378.338 481.774 370.958 481.774C363.66 481.774 358.166 487.514 358.166 494.73C358.166 502.028 363.66 507.686 370.958 507.686C378.42 507.686 383.832 501.782 383.832 494.73ZM401.132 509.982L405.396 503.914C409.332 507.112 413.514 507.932 416.302 507.932C420.484 507.932 422.78 506.128 422.78 503.504C422.78 495.796 402.526 500.552 402.526 486.53C402.526 479.396 407.774 474.312 415.892 474.312C419.172 474.312 424.666 475.132 429.094 478.74L424.912 484.562C421.468 482.02 418.024 481.528 415.974 481.528C412.038 481.528 410.316 483.496 410.316 485.628C410.316 493.008 430.488 488.99 430.488 503.012C430.488 510.474 424.83 515.066 416.056 515.066C410.234 515.066 405.15 513.016 401.132 509.982ZM448.414 514H440.46V475.05H448.414V514ZM444.478 467.342C441.608 467.342 439.394 465.128 439.394 462.258C439.394 459.388 441.608 457.174 444.478 457.174C447.348 457.174 449.48 459.388 449.48 462.258C449.48 465.128 447.348 467.342 444.478 467.342ZM476.199 507.604V514.492C474.887 514.82 473.493 515.066 471.853 515.066C465.457 515.066 461.521 511.212 461.521 504.078V453.32H469.393V501.618C469.393 505.8 470.377 507.686 474.231 507.686C474.723 507.686 475.461 507.686 476.199 507.604ZM494.447 534.746H486.657L493.791 514.738L477.883 475.05H486.493L497.645 504.324L508.141 475.05H516.013L494.447 534.746ZM563.172 507.112V514.164C562.352 514.492 559.892 515.066 557.022 515.066C547.428 515.066 545.706 508.752 545.706 502.028V482.512H539.556V475.05H545.706V461.848H553.66V475.05H564.238V482.512H553.66V501.126C553.66 505.554 554.644 507.686 558.826 507.686C560.22 507.686 562.352 507.44 563.172 507.112ZM611.11 494.73C611.11 505.882 601.844 515.066 590.528 515.066C579.294 515.066 570.11 505.964 570.11 494.73C570.11 483.578 579.13 474.312 590.528 474.312C601.844 474.312 611.11 483.496 611.11 494.73ZM603.32 494.648C603.32 487.596 597.662 481.774 590.61 481.774C583.312 481.774 577.9 487.924 577.9 494.812C577.9 501.782 583.476 507.686 590.61 507.686C597.826 507.686 603.32 501.618 603.32 494.648ZM27.9376 601H19.4916L3.41961 562.05H11.9476L23.5916 591.16L35.3996 562.05H43.9276L27.9376 601ZM89.0923 601H81.2203V596.408C77.9403 600.262 73.4303 602.066 68.1823 602.066C56.6203 602.066 47.6003 593.128 47.6003 581.73C47.6003 570.168 56.7843 561.312 68.1823 561.312C73.4303 561.312 77.8583 563.198 81.2203 567.052V562.05H89.0923V601ZM81.0563 581.73C81.0563 574.678 75.5623 568.774 68.1823 568.774C60.8843 568.774 55.3903 574.514 55.3903 581.73C55.3903 589.028 60.8843 594.686 68.1823 594.686C75.6443 594.686 81.0563 588.782 81.0563 581.73ZM110.082 601H102.21V562.05H110.082V566.724C113.854 562.214 117.708 561.312 125.252 561.312V568.856C112.378 568.856 110.082 574.104 110.082 580.828V601ZM141.155 601H133.201V562.05H141.155V601ZM137.219 554.342C134.349 554.342 132.135 552.128 132.135 549.258C132.135 546.388 134.349 544.174 137.219 544.174C140.089 544.174 142.221 546.388 142.221 549.258C142.221 552.128 140.089 554.342 137.219 554.342ZM191.981 581.73C191.981 592.882 182.715 602.066 171.399 602.066C160.165 602.066 150.981 592.964 150.981 581.73C150.981 570.578 160.001 561.312 171.399 561.312C182.715 561.312 191.981 570.496 191.981 581.73ZM184.191 581.648C184.191 574.596 178.533 568.774 171.481 568.774C164.183 568.774 158.771 574.924 158.771 581.812C158.771 588.782 164.347 594.686 171.481 594.686C178.697 594.686 184.191 588.618 184.191 581.648ZM228.642 582.96V562.05H236.514V585.174C236.514 597.392 229.708 602.066 218.802 602.066C207.896 602.066 201.09 597.392 201.09 585.174V562.05H209.044V582.96C209.044 590.258 210.766 594.686 218.802 594.686C226.92 594.686 228.642 590.258 228.642 582.96ZM245.14 596.982L249.404 590.914C253.34 594.112 257.522 594.932 260.31 594.932C264.492 594.932 266.788 593.128 266.788 590.504C266.788 582.796 246.534 587.552 246.534 573.53C246.534 566.396 251.782 561.312 259.9 561.312C263.18 561.312 268.674 562.132 273.102 565.74L268.92 571.562C265.476 569.02 262.032 568.528 259.982 568.528C256.046 568.528 254.324 570.496 254.324 572.628C254.324 580.008 274.496 575.99 274.496 590.012C274.496 597.474 268.838 602.066 260.064 602.066C254.242 602.066 249.158 600.016 245.14 596.982ZM302.716 596.982L306.98 590.914C310.916 594.112 315.098 594.932 317.886 594.932C322.068 594.932 324.364 593.128 324.364 590.504C324.364 582.796 304.11 587.552 304.11 573.53C304.11 566.396 309.358 561.312 317.476 561.312C320.756 561.312 326.25 562.132 330.678 565.74L326.496 571.562C323.052 569.02 319.608 568.528 317.558 568.528C313.622 568.528 311.9 570.496 311.9 572.628C311.9 580.008 332.072 575.99 332.072 590.012C332.072 597.474 326.414 602.066 317.64 602.066C311.818 602.066 306.734 600.016 302.716 596.982ZM349.998 601H342.044V562.05H349.998V601ZM346.062 554.342C343.192 554.342 340.978 552.128 340.978 549.258C340.978 546.388 343.192 544.174 346.062 544.174C348.932 544.174 351.064 546.388 351.064 549.258C351.064 552.128 348.932 554.342 346.062 554.342ZM381.555 594.112V601.164C380.735 601.492 378.275 602.066 375.405 602.066C365.811 602.066 364.089 595.752 364.089 589.028V569.512H357.939V562.05H364.089V548.848H372.043V562.05H382.621V569.512H372.043V588.126C372.043 592.554 373.027 594.686 377.209 594.686C378.603 594.686 380.735 594.44 381.555 594.112ZM418.587 582.96V562.05H426.459V585.174C426.459 597.392 419.653 602.066 408.747 602.066C397.841 602.066 391.035 597.392 391.035 585.174V562.05H398.989V582.96C398.989 590.258 400.711 594.686 408.747 594.686C416.865 594.686 418.587 590.258 418.587 582.96ZM477.151 601H469.279V596.408C465.999 600.262 461.489 602.066 456.241 602.066C444.679 602.066 435.659 593.128 435.659 581.73C435.659 570.168 444.843 561.312 456.241 561.312C461.489 561.312 465.917 563.198 469.279 567.052V562.05H477.151V601ZM469.115 581.73C469.115 574.678 463.621 568.774 456.241 568.774C448.943 568.774 443.449 574.514 443.449 581.73C443.449 589.028 448.943 594.686 456.241 594.686C463.703 594.686 469.115 588.782 469.115 581.73ZM508.719 594.112V601.164C507.899 601.492 505.439 602.066 502.569 602.066C492.975 602.066 491.253 595.752 491.253 589.028V569.512H485.103V562.05H491.253V548.848H499.207V562.05H509.785V569.512H499.207V588.126C499.207 592.554 500.191 594.686 504.373 594.686C505.767 594.686 507.899 594.44 508.719 594.112ZM526.891 601H518.937V562.05H526.891V601ZM522.955 554.342C520.085 554.342 517.871 552.128 517.871 549.258C517.871 546.388 520.085 544.174 522.955 544.174C525.825 544.174 527.957 546.388 527.957 549.258C527.957 552.128 525.825 554.342 522.955 554.342ZM577.718 581.73C577.718 592.882 568.452 602.066 557.136 602.066C545.902 602.066 536.718 592.964 536.718 581.73C536.718 570.578 545.738 561.312 557.136 561.312C568.452 561.312 577.718 570.496 577.718 581.73ZM569.928 581.648C569.928 574.596 564.27 568.774 557.218 568.774C549.92 568.774 544.508 574.924 544.508 581.812C544.508 588.782 550.084 594.686 557.218 594.686C564.434 594.686 569.928 588.618 569.928 581.648ZM622.824 601H614.87V580.582C614.87 572.792 611.836 568.774 605.358 568.774C598.634 568.774 595.436 573.12 595.436 581.156V601H587.564V562.05H595.436V566.232C598.06 563.28 601.258 561.312 606.752 561.312C616.018 561.312 622.824 566.724 622.824 578.942V601ZM631.276 596.982L635.54 590.914C639.476 594.112 643.658 594.932 646.446 594.932C650.628 594.932 652.924 593.128 652.924 590.504C652.924 582.796 632.67 587.552 632.67 573.53C632.67 566.396 637.918 561.312 646.036 561.312C649.316 561.312 654.81 562.132 659.238 565.74L655.056 571.562C651.612 569.02 648.168 568.528 646.118 568.528C642.182 568.528 640.46 570.496 640.46 572.628C640.46 580.008 660.632 575.99 660.632 590.012C660.632 597.474 654.974 602.066 646.2 602.066C640.378 602.066 635.294 600.016 631.276 596.982ZM677.329 601.492C674.459 601.492 672.245 599.278 672.245 596.408C672.245 593.538 674.459 591.406 677.329 591.406C680.199 591.406 682.331 593.538 682.331 596.408C682.331 599.278 680.199 601.492 677.329 601.492Z" fill="black"/>
<path d="M50.87 1089H13.97V1028.32H22.334V1081.13H50.87V1089ZM95.6926 1072.35H63.7946C64.8606 1078.34 69.7806 1082.93 76.4226 1082.93C80.6866 1082.93 84.8686 1081.05 87.3286 1077.6L92.9046 1081.87C89.2966 1086.95 83.1466 1090.07 76.4226 1090.07C65.1066 1090.07 56.0046 1081.21 56.0046 1069.73C56.0046 1058.82 64.2866 1049.31 75.9306 1049.31C87.4926 1049.31 95.8566 1058.74 95.8566 1069.65C95.8566 1070.71 95.7746 1071.53 95.6926 1072.35ZM64.0406 1066.12H87.8206C86.9186 1060.71 82.1626 1056.53 76.0126 1056.53C69.9446 1056.53 65.4346 1060.63 64.0406 1066.12ZM143.702 1089H135.83V1084.41C132.55 1088.26 128.04 1090.07 122.792 1090.07C111.23 1090.07 102.21 1081.13 102.21 1069.73C102.21 1058.17 111.394 1049.31 122.792 1049.31C128.04 1049.31 132.468 1051.2 135.83 1055.05V1050.05H143.702V1089ZM135.666 1069.73C135.666 1062.68 130.172 1056.77 122.792 1056.77C115.494 1056.77 110 1062.51 110 1069.73C110 1077.03 115.494 1082.69 122.792 1082.69C130.254 1082.69 135.666 1076.78 135.666 1069.73ZM164.692 1089H156.82V1050.05H164.692V1054.72C168.464 1050.21 172.318 1049.31 179.862 1049.31V1056.86C166.988 1056.86 164.692 1062.1 164.692 1068.83V1089ZM223.07 1089H215.116V1068.58C215.116 1060.79 212.082 1056.77 205.604 1056.77C198.88 1056.77 195.682 1061.12 195.682 1069.16V1089H187.81V1050.05H195.682V1054.23C198.306 1051.28 201.504 1049.31 206.998 1049.31C216.264 1049.31 223.07 1054.72 223.07 1066.94V1089ZM231.522 1084.98L235.786 1078.91C239.722 1082.11 243.904 1082.93 246.692 1082.93C250.874 1082.93 253.17 1081.13 253.17 1078.5C253.17 1070.8 232.916 1075.55 232.916 1061.53C232.916 1054.4 238.164 1049.31 246.282 1049.31C249.562 1049.31 255.056 1050.13 259.484 1053.74L255.302 1059.56C251.858 1057.02 248.414 1056.53 246.364 1056.53C242.428 1056.53 240.706 1058.5 240.706 1060.63C240.706 1068.01 260.878 1063.99 260.878 1078.01C260.878 1085.47 255.22 1090.07 246.446 1090.07C240.624 1090.07 235.54 1088.02 231.522 1084.98ZM331.165 1109.75H323.293V1084.41C320.013 1088.26 315.503 1090.07 310.255 1090.07C298.693 1090.07 289.673 1081.13 289.673 1069.73C289.673 1058.17 298.857 1049.31 310.255 1049.31C315.503 1049.31 319.931 1051.2 323.293 1055.05V1050.05H331.165V1109.75ZM323.129 1069.73C323.129 1062.68 317.635 1056.77 310.255 1056.77C302.957 1056.77 297.463 1062.51 297.463 1069.73C297.463 1077.03 302.957 1082.69 310.255 1082.69C317.717 1082.69 323.129 1076.78 323.129 1069.73ZM371.097 1070.96V1050.05H378.969V1073.17C378.969 1085.39 372.163 1090.07 361.257 1090.07C350.351 1090.07 343.545 1085.39 343.545 1073.17V1050.05H351.499V1070.96C351.499 1078.26 353.221 1082.69 361.257 1082.69C369.375 1082.69 371.097 1078.26 371.097 1070.96ZM399.403 1089H391.449V1050.05H399.403V1089ZM395.467 1042.34C392.597 1042.34 390.383 1040.13 390.383 1037.26C390.383 1034.39 392.597 1032.17 395.467 1032.17C398.337 1032.17 400.469 1034.39 400.469 1037.26C400.469 1040.13 398.337 1042.34 395.467 1042.34ZM440.635 1076.54L447.195 1080.39C443.587 1086.21 437.027 1090.07 429.647 1090.07C418.413 1090.07 409.229 1080.96 409.229 1069.73C409.229 1058.58 418.249 1049.31 429.647 1049.31C436.945 1049.31 443.423 1053.17 447.031 1058.91L440.389 1062.68C438.175 1059.15 434.157 1056.77 429.647 1056.77C422.513 1056.77 417.019 1062.84 417.019 1069.81C417.019 1076.78 422.595 1082.69 429.811 1082.69C434.485 1082.69 438.421 1080.23 440.635 1076.54ZM490.599 1089H480.267L463.703 1070.39V1089H455.831V1028.32H463.703V1066.12L478.709 1050.05H489.123L471.985 1067.93L490.599 1089ZM512.47 1082.6V1089.49C511.158 1089.82 509.764 1090.07 508.124 1090.07C501.728 1090.07 497.792 1086.21 497.792 1079.08V1028.32H505.664V1076.62C505.664 1080.8 506.648 1082.69 510.502 1082.69C510.994 1082.69 511.732 1082.69 512.47 1082.6ZM530.718 1109.75H522.928L530.062 1089.74L514.154 1050.05H522.764L533.916 1079.32L544.412 1050.05H552.284L530.718 1109.75ZM620.006 1089H612.134V1084.41C608.854 1088.26 604.344 1090.07 599.096 1090.07C587.534 1090.07 578.514 1081.13 578.514 1069.73C578.514 1058.17 587.698 1049.31 599.096 1049.31C604.344 1049.31 608.772 1051.2 612.134 1055.05V1050.05H620.006V1089ZM611.97 1069.73C611.97 1062.68 606.476 1056.77 599.096 1056.77C591.798 1056.77 586.304 1062.51 586.304 1069.73C586.304 1077.03 591.798 1082.69 599.096 1082.69C606.558 1082.69 611.97 1076.78 611.97 1069.73ZM668.384 1089H660.43V1068.58C660.43 1060.79 657.396 1056.77 650.918 1056.77C644.194 1056.77 640.996 1061.12 640.996 1069.16V1089H633.124V1050.05H640.996V1054.23C643.62 1051.28 646.818 1049.31 652.312 1049.31C661.578 1049.31 668.384 1054.72 668.384 1066.94V1089ZM718.903 1089H711.031V1084.41C707.751 1088.26 703.241 1090.07 697.993 1090.07C686.431 1090.07 677.411 1081.13 677.411 1069.73C677.411 1058.17 686.595 1049.31 697.993 1049.31C703.241 1049.31 707.669 1051.2 711.031 1055.05V1028.32H718.903V1089ZM710.867 1069.73C710.867 1062.68 705.373 1056.77 697.993 1056.77C690.695 1056.77 685.201 1062.51 685.201 1069.73C685.201 1077.03 690.695 1082.69 697.993 1082.69C705.455 1082.69 710.867 1076.78 710.867 1069.73ZM51.772 1176H43.9V1171.41C40.62 1175.26 36.11 1177.07 30.862 1177.07C19.3 1177.07 10.28 1168.13 10.28 1156.73C10.28 1145.17 19.464 1136.31 30.862 1136.31C36.11 1136.31 40.538 1138.2 43.9 1142.05V1137.05H51.772V1176ZM43.736 1156.73C43.736 1149.68 38.242 1143.77 30.862 1143.77C23.564 1143.77 18.07 1149.51 18.07 1156.73C18.07 1164.03 23.564 1169.69 30.862 1169.69C38.324 1169.69 43.736 1163.78 43.736 1156.73ZM103.102 1176H95.2301V1171.41C91.9501 1175.26 87.4401 1177.07 82.1921 1177.07C70.6301 1177.07 61.6101 1168.13 61.6101 1156.73C61.6101 1145.17 70.7941 1136.31 82.1921 1136.31C87.4401 1136.31 91.8681 1138.2 95.2301 1142.05V1115.32H103.102V1176ZM95.0661 1156.73C95.0661 1149.68 89.5721 1143.77 82.1921 1143.77C74.8941 1143.77 69.4001 1149.51 69.4001 1156.73C69.4001 1164.03 74.8941 1169.69 82.1921 1169.69C89.6541 1169.69 95.0661 1163.78 95.0661 1156.73ZM124.174 1196.75H116.22V1137.05H124.174V1196.75ZM120.238 1129.34C117.368 1129.34 115.154 1127.13 115.154 1124.26C115.154 1121.39 117.368 1119.17 120.238 1119.17C123.108 1119.17 125.24 1121.39 125.24 1124.26C125.24 1127.13 123.108 1129.34 120.238 1129.34ZM164.095 1157.96V1137.05H171.967V1160.17C171.967 1172.39 165.161 1177.07 154.255 1177.07C143.349 1177.07 136.543 1172.39 136.543 1160.17V1137.05H144.497V1157.96C144.497 1165.26 146.219 1169.69 154.255 1169.69C162.373 1169.69 164.095 1165.26 164.095 1157.96ZM180.593 1171.98L184.857 1165.91C188.793 1169.11 192.975 1169.93 195.763 1169.93C199.945 1169.93 202.241 1168.13 202.241 1165.5C202.241 1157.8 181.987 1162.55 181.987 1148.53C181.987 1141.4 187.235 1136.31 195.353 1136.31C198.633 1136.31 204.127 1137.13 208.555 1140.74L204.373 1146.56C200.929 1144.02 197.485 1143.53 195.435 1143.53C191.499 1143.53 189.777 1145.5 189.777 1147.63C189.777 1155.01 209.949 1150.99 209.949 1165.01C209.949 1172.47 204.291 1177.07 195.517 1177.07C189.695 1177.07 184.611 1175.02 180.593 1171.98ZM237.971 1169.11V1176.16C237.151 1176.49 234.691 1177.07 231.821 1177.07C222.227 1177.07 220.505 1170.75 220.505 1164.03V1144.51H214.355V1137.05H220.505V1123.85H228.459V1137.05H239.037V1144.51H228.459V1163.13C228.459 1167.55 229.443 1169.69 233.625 1169.69C235.019 1169.69 237.151 1169.44 237.971 1169.11ZM244.735 1171.98L248.999 1165.91C252.935 1169.11 257.117 1169.93 259.905 1169.93C264.087 1169.93 266.383 1168.13 266.383 1165.5C266.383 1157.8 246.129 1162.55 246.129 1148.53C246.129 1141.4 251.377 1136.31 259.495 1136.31C262.775 1136.31 268.269 1137.13 272.697 1140.74L268.515 1146.56C265.071 1144.02 261.627 1143.53 259.577 1143.53C255.641 1143.53 253.919 1145.5 253.919 1147.63C253.919 1155.01 274.091 1150.99 274.091 1165.01C274.091 1172.47 268.433 1177.07 259.659 1177.07C253.837 1177.07 248.753 1175.02 244.735 1171.98ZM323.815 1169.11V1176.16C322.995 1176.49 320.535 1177.07 317.665 1177.07C308.071 1177.07 306.349 1170.75 306.349 1164.03V1144.51H300.199V1137.05H306.349V1123.85H314.303V1137.05H324.881V1144.51H314.303V1163.13C314.303 1167.55 315.287 1169.69 319.469 1169.69C320.863 1169.69 322.995 1169.44 323.815 1169.11ZM371.753 1156.73C371.753 1167.88 362.487 1177.07 351.171 1177.07C339.937 1177.07 330.753 1167.96 330.753 1156.73C330.753 1145.58 339.773 1136.31 351.171 1136.31C362.487 1136.31 371.753 1145.5 371.753 1156.73ZM363.963 1156.65C363.963 1149.6 358.305 1143.77 351.253 1143.77C343.955 1143.77 338.543 1149.92 338.543 1156.81C338.543 1163.78 344.119 1169.69 351.253 1169.69C358.469 1169.69 363.963 1163.62 363.963 1156.65ZM438.961 1176H431.007V1155.58C431.007 1147.79 427.973 1143.77 421.495 1143.77C414.771 1143.77 411.573 1148.12 411.573 1156.16V1176H403.701V1137.05H411.573V1141.23C414.197 1138.28 417.395 1136.31 422.889 1136.31C432.155 1136.31 438.961 1141.72 438.961 1153.94V1176ZM487.675 1159.35H455.777C456.843 1165.34 461.763 1169.93 468.405 1169.93C472.669 1169.93 476.851 1168.05 479.311 1164.6L484.887 1168.87C481.279 1173.95 475.129 1177.07 468.405 1177.07C457.089 1177.07 447.987 1168.21 447.987 1156.73C447.987 1145.82 456.269 1136.31 467.913 1136.31C479.475 1136.31 487.839 1145.74 487.839 1156.65C487.839 1157.71 487.757 1158.53 487.675 1159.35ZM456.023 1153.12H479.803C478.901 1147.71 474.145 1143.53 467.995 1143.53C461.927 1143.53 457.417 1147.63 456.023 1153.12ZM542.49 1176H534.29L524.45 1147.96L514.692 1176H506.328L491.732 1137.05H500.424L510.51 1165.75L520.76 1137.05H528.058L538.308 1165.75L548.394 1137.05H557.168L542.49 1176ZM41.686 1250.54L48.246 1254.39C44.638 1260.21 38.078 1264.07 30.698 1264.07C19.464 1264.07 10.28 1254.96 10.28 1243.73C10.28 1232.58 19.3 1223.31 30.698 1223.31C37.996 1223.31 44.474 1227.17 48.082 1232.91L41.44 1236.68C39.226 1233.15 35.208 1230.77 30.698 1230.77C23.564 1230.77 18.07 1236.84 18.07 1243.81C18.07 1250.78 23.646 1256.69 30.862 1256.69C35.536 1256.69 39.472 1254.23 41.686 1250.54ZM94.6023 1243.73C94.6023 1254.88 85.3363 1264.07 74.0203 1264.07C62.7863 1264.07 53.6023 1254.96 53.6023 1243.73C53.6023 1232.58 62.6223 1223.31 74.0203 1223.31C85.3363 1223.31 94.6023 1232.5 94.6023 1243.73ZM86.8123 1243.65C86.8123 1236.6 81.1543 1230.77 74.1023 1230.77C66.8043 1230.77 61.3923 1236.92 61.3923 1243.81C61.3923 1250.78 66.9683 1256.69 74.1023 1256.69C81.3183 1256.69 86.8123 1250.62 86.8123 1243.65ZM139.709 1263H131.755V1242.58C131.755 1234.79 128.721 1230.77 122.243 1230.77C115.519 1230.77 112.321 1235.12 112.321 1243.16V1263H104.449V1224.05H112.321V1228.23C114.945 1225.28 118.143 1223.31 123.637 1223.31C132.903 1223.31 139.709 1228.72 139.709 1240.94V1263ZM180.141 1250.54L186.701 1254.39C183.093 1260.21 176.533 1264.07 169.153 1264.07C157.919 1264.07 148.735 1254.96 148.735 1243.73C148.735 1232.58 157.755 1223.31 169.153 1223.31C176.451 1223.31 182.929 1227.17 186.537 1232.91L179.895 1236.68C177.681 1233.15 173.663 1230.77 169.153 1230.77C162.019 1230.77 156.525 1236.84 156.525 1243.81C156.525 1250.78 162.101 1256.69 169.317 1256.69C173.991 1256.69 177.927 1254.23 180.141 1250.54ZM231.745 1246.35H199.847C200.913 1252.34 205.833 1256.93 212.475 1256.93C216.739 1256.93 220.921 1255.05 223.381 1251.6L228.957 1255.87C225.349 1260.95 219.199 1264.07 212.475 1264.07C201.159 1264.07 192.057 1255.21 192.057 1243.73C192.057 1232.82 200.339 1223.31 211.983 1223.31C223.545 1223.31 231.909 1232.74 231.909 1243.65C231.909 1244.71 231.827 1245.53 231.745 1246.35ZM200.093 1240.12H223.873C222.971 1234.71 218.215 1230.53 212.065 1230.53C205.997 1230.53 201.487 1234.63 200.093 1240.12ZM249.414 1283.75H241.542V1224.05H249.414V1229.05C252.694 1225.2 257.204 1223.31 262.452 1223.31C273.85 1223.31 283.034 1232.17 283.034 1243.73C283.034 1255.13 274.014 1264.07 262.452 1264.07C257.204 1264.07 252.694 1262.26 249.414 1258.41V1283.75ZM249.66 1243.73C249.66 1250.78 254.826 1256.69 262.37 1256.69C269.75 1256.69 275.244 1251.03 275.244 1243.73C275.244 1236.51 269.75 1230.77 262.452 1230.77C255.154 1230.77 249.66 1236.51 249.66 1243.73ZM311.323 1256.11V1263.16C310.503 1263.49 308.043 1264.07 305.173 1264.07C295.579 1264.07 293.857 1257.75 293.857 1251.03V1231.51H287.707V1224.05H293.857V1210.85H301.811V1224.05H312.389V1231.51H301.811V1250.13C301.811 1254.55 302.795 1256.69 306.977 1256.69C308.371 1256.69 310.503 1256.44 311.323 1256.11ZM318.087 1258.98L322.351 1252.91C326.287 1256.11 330.469 1256.93 333.257 1256.93C337.439 1256.93 339.735 1255.13 339.735 1252.5C339.735 1244.8 319.481 1249.55 319.481 1235.53C319.481 1228.4 324.729 1223.31 332.847 1223.31C336.127 1223.31 341.621 1224.13 346.049 1227.74L341.867 1233.56C338.423 1231.02 334.979 1230.53 332.929 1230.53C328.993 1230.53 327.271 1232.5 327.271 1234.63C327.271 1242.01 347.443 1237.99 347.443 1252.01C347.443 1259.47 341.785 1264.07 333.011 1264.07C327.189 1264.07 322.105 1262.02 318.087 1258.98ZM364.139 1263.49C361.269 1263.49 359.055 1261.28 359.055 1258.41C359.055 1255.54 361.269 1253.41 364.139 1253.41C367.009 1253.41 369.141 1255.54 369.141 1258.41C369.141 1261.28 367.009 1263.49 364.139 1263.49Z" fill="black"/>
<path d="M1934.01 375.66C1934.01 393.208 1919.99 407.066 1902.36 407.066C1884.89 407.066 1870.62 393.454 1870.62 375.742C1870.62 358.44 1884.24 344.254 1902.28 344.254C1920.07 344.254 1934.01 358.112 1934.01 375.66ZM1902.36 399.44C1915.48 399.44 1925.65 388.862 1925.65 375.742C1925.65 362.704 1915.56 351.962 1902.28 351.962C1888.91 351.962 1878.99 362.95 1878.99 375.824C1878.99 388.944 1889.32 399.44 1902.36 399.44ZM1951.14 406H1943.27V345.32H1951.14V372.052C1954.42 368.198 1958.93 366.312 1964.18 366.312C1975.58 366.312 1984.76 375.168 1984.76 386.73C1984.76 398.128 1975.74 407.066 1964.18 407.066C1958.93 407.066 1954.42 405.262 1951.14 401.408V406ZM1951.39 386.73C1951.39 393.782 1956.55 399.686 1964.1 399.686C1971.48 399.686 1976.97 394.028 1976.97 386.73C1976.97 379.514 1971.48 373.774 1964.18 373.774C1956.88 373.774 1951.39 379.514 1951.39 386.73ZM1990.74 401.982L1995.01 395.914C1998.94 399.112 2003.13 399.932 2005.91 399.932C2010.1 399.932 2012.39 398.128 2012.39 395.504C2012.39 387.796 1992.14 392.552 1992.14 378.53C1992.14 371.396 1997.39 366.312 2005.5 366.312C2008.78 366.312 2014.28 367.132 2018.71 370.74L2014.52 376.562C2011.08 374.02 2007.64 373.528 2005.59 373.528C2001.65 373.528 1999.93 375.496 1999.93 377.628C1999.93 385.008 2020.1 380.99 2020.1 395.012C2020.1 402.474 2014.44 407.066 2005.67 407.066C1999.85 407.066 1994.76 405.016 1990.74 401.982ZM2066.48 389.354H2034.58C2035.65 395.34 2040.57 399.932 2047.21 399.932C2051.47 399.932 2055.66 398.046 2058.12 394.602L2063.69 398.866C2060.08 403.95 2053.93 407.066 2047.21 407.066C2035.89 407.066 2026.79 398.21 2026.79 386.73C2026.79 375.824 2035.07 366.312 2046.72 366.312C2058.28 366.312 2066.64 375.742 2066.64 386.648C2066.64 387.714 2066.56 388.534 2066.48 389.354ZM2034.83 383.122H2058.61C2057.71 377.71 2052.95 373.528 2046.8 373.528C2040.73 373.528 2036.22 377.628 2034.83 383.122ZM2084.15 406H2076.28V367.05H2084.15V371.724C2087.92 367.214 2091.77 366.312 2099.32 366.312V373.856C2086.44 373.856 2084.15 379.104 2084.15 385.828V406ZM2129.33 406H2120.88L2104.81 367.05H2113.34L2124.98 396.16L2136.79 367.05H2145.32L2129.33 406ZM2190.48 406H2182.61V401.408C2179.33 405.262 2174.82 407.066 2169.57 407.066C2158.01 407.066 2148.99 398.128 2148.99 386.73C2148.99 375.168 2158.17 366.312 2169.57 366.312C2174.82 366.312 2179.25 368.198 2182.61 372.052V367.05H2190.48V406ZM2182.45 386.73C2182.45 379.678 2176.95 373.774 2169.57 373.774C2162.27 373.774 2156.78 379.514 2156.78 386.73C2156.78 394.028 2162.27 399.686 2169.57 399.686C2177.03 399.686 2182.45 393.782 2182.45 386.73ZM2238.86 406H2230.91V385.582C2230.91 377.792 2227.87 373.774 2221.4 373.774C2214.67 373.774 2211.47 378.12 2211.47 386.156V406H2203.6V367.05H2211.47V371.232C2214.1 368.28 2217.3 366.312 2222.79 366.312C2232.06 366.312 2238.86 371.724 2238.86 383.942V406ZM2269.62 399.112V406.164C2268.8 406.492 2266.34 407.066 2263.47 407.066C2253.87 407.066 2252.15 400.752 2252.15 394.028V374.512H2246V367.05H2252.15V353.848H2260.11V367.05H2270.68V374.512H2260.11V393.126C2260.11 397.554 2261.09 399.686 2265.27 399.686C2266.67 399.686 2268.8 399.44 2269.62 399.112ZM2339.35 406H2331.48V401.408C2328.2 405.262 2323.69 407.066 2318.44 407.066C2306.88 407.066 2297.86 398.128 2297.86 386.73C2297.86 375.168 2307.04 366.312 2318.44 366.312C2323.69 366.312 2328.11 368.198 2331.48 372.052V367.05H2339.35V406ZM2331.31 386.73C2331.31 379.678 2325.82 373.774 2318.44 373.774C2311.14 373.774 2305.65 379.514 2305.65 386.73C2305.65 394.028 2311.14 399.686 2318.44 399.686C2325.9 399.686 2331.31 393.782 2331.31 386.73ZM2387.73 406H2379.77V385.582C2379.77 377.792 2376.74 373.774 2370.26 373.774C2363.54 373.774 2360.34 378.12 2360.34 386.156V406H2352.47V367.05H2360.34V371.232C2362.96 368.28 2366.16 366.312 2371.65 366.312C2380.92 366.312 2387.73 371.724 2387.73 383.942V406ZM2438.24 406H2430.37V401.408C2427.09 405.262 2422.58 407.066 2417.33 407.066C2405.77 407.066 2396.75 398.128 2396.75 386.73C2396.75 375.168 2405.94 366.312 2417.33 366.312C2422.58 366.312 2427.01 368.198 2430.37 372.052V345.32H2438.24V406ZM2430.21 386.73C2430.21 379.678 2424.71 373.774 2417.33 373.774C2410.04 373.774 2404.54 379.514 2404.54 386.73C2404.54 394.028 2410.04 399.686 2417.33 399.686C2424.8 399.686 2430.21 393.782 2430.21 386.73ZM2511.68 406H2503.8V401.408C2500.52 405.262 2496.01 407.066 2490.77 407.066C2479.2 407.066 2470.18 398.128 2470.18 386.73C2470.18 375.168 2479.37 366.312 2490.77 366.312C2496.01 366.312 2500.44 368.198 2503.8 372.052V367.05H2511.68V406ZM2503.64 386.73C2503.64 379.678 2498.15 373.774 2490.77 373.774C2483.47 373.774 2477.97 379.514 2477.97 386.73C2477.97 394.028 2483.47 399.686 2490.77 399.686C2498.23 399.686 2503.64 393.782 2503.64 386.73ZM2539.47 399.604V406.492C2538.16 406.82 2536.77 407.066 2535.13 407.066C2528.73 407.066 2524.79 403.212 2524.79 396.078V345.32H2532.67V393.618C2532.67 397.8 2533.65 399.686 2537.5 399.686C2538 399.686 2538.73 399.686 2539.47 399.604ZM2583.3 389.354H2551.41C2552.47 395.34 2557.39 399.932 2564.03 399.932C2568.3 399.932 2572.48 398.046 2574.94 394.602L2580.52 398.866C2576.91 403.95 2570.76 407.066 2564.03 407.066C2552.72 407.066 2543.62 398.21 2543.62 386.73C2543.62 375.824 2551.9 366.312 2563.54 366.312C2575.1 366.312 2583.47 375.742 2583.47 386.648C2583.47 387.714 2583.39 388.534 2583.3 389.354ZM2551.65 383.122H2575.43C2574.53 377.71 2569.77 373.528 2563.62 373.528C2557.56 373.528 2553.05 377.628 2551.65 383.122ZM2600.97 406H2593.1V367.05H2600.97V371.724C2604.75 367.214 2608.6 366.312 2616.14 366.312V373.856C2603.27 373.856 2600.97 379.104 2600.97 385.828V406ZM2645.02 399.112V406.164C2644.2 406.492 2641.74 407.066 2638.87 407.066C2629.28 407.066 2627.56 400.752 2627.56 394.028V374.512H2621.41V367.05H2627.56V353.848H2635.51V367.05H2646.09V374.512H2635.51V393.126C2635.51 397.554 2636.5 399.686 2640.68 399.686C2642.07 399.686 2644.2 399.44 2645.02 399.112ZM1883.09 493H1875.13V461.512H1869.39V454.05H1875.13V445.03C1875.13 437.568 1878.58 432.32 1887.11 432.32C1889.24 432.32 1891.7 432.648 1893.58 433.222V440.274C1892.76 440.028 1890.55 439.7 1888.91 439.7C1884.73 439.7 1883.09 441.668 1883.09 447.654V454.05H1892.76V461.512H1883.09V493ZM1939.51 473.73C1939.51 484.882 1930.24 494.066 1918.92 494.066C1907.69 494.066 1898.51 484.964 1898.51 473.73C1898.51 462.578 1907.53 453.312 1918.92 453.312C1930.24 453.312 1939.51 462.496 1939.51 473.73ZM1931.72 473.648C1931.72 466.596 1926.06 460.774 1919.01 460.774C1911.71 460.774 1906.3 466.924 1906.3 473.812C1906.3 480.782 1911.87 486.686 1919.01 486.686C1926.22 486.686 1931.72 480.618 1931.72 473.648ZM1957.22 493H1949.35V454.05H1957.22V458.724C1961 454.214 1964.85 453.312 1972.39 453.312V460.856C1959.52 460.856 1957.22 466.104 1957.22 472.828V493ZM2036.9 493H2028.95V472.582C2028.95 464.792 2025.92 460.774 2019.44 460.774C2012.71 460.774 2009.52 465.12 2009.52 473.156V493H2001.64V454.05H2009.52V458.232C2012.14 455.28 2015.34 453.312 2020.83 453.312C2030.1 453.312 2036.9 458.724 2036.9 470.942V493ZM2085.62 476.354H2053.72C2054.79 482.34 2059.71 486.932 2066.35 486.932C2070.61 486.932 2074.79 485.046 2077.25 481.602L2082.83 485.866C2079.22 490.95 2073.07 494.066 2066.35 494.066C2055.03 494.066 2045.93 485.21 2045.93 473.73C2045.93 462.824 2054.21 453.312 2065.86 453.312C2077.42 453.312 2085.78 462.742 2085.78 473.648C2085.78 474.714 2085.7 475.534 2085.62 476.354ZM2053.97 470.122H2077.75C2076.84 464.71 2072.09 460.528 2065.94 460.528C2059.87 460.528 2055.36 464.628 2053.97 470.122ZM2140.43 493H2132.23L2122.39 464.956L2112.64 493H2104.27L2089.68 454.05H2098.37L2108.45 482.75L2118.7 454.05H2126L2136.25 482.75L2146.34 454.05H2155.11L2140.43 493ZM2192.58 493H2184.62V454.05H2192.58V493ZM2188.64 446.342C2185.77 446.342 2183.56 444.128 2183.56 441.258C2183.56 438.388 2185.77 436.174 2188.64 436.174C2191.51 436.174 2193.64 438.388 2193.64 441.258C2193.64 444.128 2191.51 446.342 2188.64 446.342ZM2240.94 493H2232.99V472.582C2232.99 464.792 2229.96 460.774 2223.48 460.774C2216.75 460.774 2213.56 465.12 2213.56 473.156V493H2205.68V454.05H2213.56V458.232C2216.18 455.28 2219.38 453.312 2224.87 453.312C2234.14 453.312 2240.94 458.724 2240.94 470.942V493ZM2261.78 493H2253.82V461.512H2248.08V454.05H2253.82V445.03C2253.82 437.568 2257.27 432.32 2265.8 432.32C2267.93 432.32 2270.39 432.648 2272.27 433.222V440.274C2271.45 440.028 2269.24 439.7 2267.6 439.7C2263.42 439.7 2261.78 441.668 2261.78 447.654V454.05H2271.45V461.512H2261.78V493ZM2318.2 473.73C2318.2 484.882 2308.93 494.066 2297.61 494.066C2286.38 494.066 2277.2 484.964 2277.2 473.73C2277.2 462.578 2286.22 453.312 2297.61 453.312C2308.93 453.312 2318.2 462.496 2318.2 473.73ZM2310.41 473.648C2310.41 466.596 2304.75 460.774 2297.7 460.774C2290.4 460.774 2284.99 466.924 2284.99 473.812C2284.99 480.782 2290.56 486.686 2297.7 486.686C2304.91 486.686 2310.41 480.618 2310.41 473.648ZM2335.91 493H2328.04V454.05H2335.91V458.724C2339.69 454.214 2343.54 453.312 2351.08 453.312V460.856C2338.21 460.856 2335.91 466.104 2335.91 472.828V493ZM2417.5 493H2409.63V472.582C2409.63 464.874 2407.66 460.774 2401.59 460.774C2395.44 460.774 2392.24 464.874 2392.24 473.156V493H2384.29V472.582C2384.29 464.792 2382.32 460.774 2376.25 460.774C2370.1 460.774 2366.9 464.956 2366.9 473.156V493H2359.03V454.05H2366.9V458.232C2369.86 454.952 2372.89 453.312 2377.56 453.312C2382.89 453.312 2387.65 455.444 2390.03 460.528C2393.8 454.788 2398.47 453.312 2402.98 453.312C2411.68 453.312 2417.5 458.724 2417.5 470.942V493ZM2468.03 493H2460.16V488.408C2456.88 492.262 2452.37 494.066 2447.12 494.066C2435.56 494.066 2426.54 485.128 2426.54 473.73C2426.54 462.168 2435.73 453.312 2447.12 453.312C2452.37 453.312 2456.8 455.198 2460.16 459.052V454.05H2468.03V493ZM2460 473.73C2460 466.678 2454.5 460.774 2447.12 460.774C2439.83 460.774 2434.33 466.514 2434.33 473.73C2434.33 481.028 2439.83 486.686 2447.12 486.686C2454.59 486.686 2460 480.782 2460 473.73ZM2499.6 486.112V493.164C2498.78 493.492 2496.32 494.066 2493.45 494.066C2483.86 494.066 2482.14 487.752 2482.14 481.028V461.512H2475.99V454.05H2482.14V440.848H2490.09V454.05H2500.67V461.512H2490.09V480.126C2490.09 484.554 2491.07 486.686 2495.26 486.686C2496.65 486.686 2498.78 486.44 2499.6 486.112ZM2517.77 493H2509.82V454.05H2517.77V493ZM2513.84 446.342C2510.97 446.342 2508.75 444.128 2508.75 441.258C2508.75 438.388 2510.97 436.174 2513.84 436.174C2516.71 436.174 2518.84 438.388 2518.84 441.258C2518.84 444.128 2516.71 446.342 2513.84 446.342ZM2568.6 473.73C2568.6 484.882 2559.33 494.066 2548.02 494.066C2536.78 494.066 2527.6 484.964 2527.6 473.73C2527.6 462.578 2536.62 453.312 2548.02 453.312C2559.33 453.312 2568.6 462.496 2568.6 473.73ZM2560.81 473.648C2560.81 466.596 2555.15 460.774 2548.1 460.774C2540.8 460.774 2535.39 466.924 2535.39 473.812C2535.39 480.782 2540.97 486.686 2548.1 486.686C2555.32 486.686 2560.81 480.618 2560.81 473.648ZM2613.71 493H2605.75V472.582C2605.75 464.792 2602.72 460.774 2596.24 460.774C2589.52 460.774 2586.32 465.12 2586.32 473.156V493H2578.45V454.05H2586.32V458.232C2588.94 455.28 2592.14 453.312 2597.63 453.312C2606.9 453.312 2613.71 458.724 2613.71 470.942V493ZM2632.74 493.492C2629.87 493.492 2627.65 491.278 2627.65 488.408C2627.65 485.538 2629.87 483.406 2632.74 483.406C2635.61 483.406 2637.74 485.538 2637.74 488.408C2637.74 491.278 2635.61 493.492 2632.74 493.492Z" fill="black"/>
<path d="M2067.33 1561H2058.97V1500.32H2094.64V1508.27H2067.33V1525.41H2089.97V1533.28H2067.33V1561ZM2141.52 1541.73C2141.52 1552.88 2132.26 1562.07 2120.94 1562.07C2109.71 1562.07 2100.52 1552.96 2100.52 1541.73C2100.52 1530.58 2109.54 1521.31 2120.94 1521.31C2132.26 1521.31 2141.52 1530.5 2141.52 1541.73ZM2133.73 1541.65C2133.73 1534.6 2128.08 1528.77 2121.02 1528.77C2113.73 1528.77 2108.31 1534.92 2108.31 1541.81C2108.31 1548.78 2113.89 1554.69 2121.02 1554.69C2128.24 1554.69 2133.73 1548.62 2133.73 1541.65ZM2179.5 1548.54L2186.06 1552.39C2182.45 1558.21 2175.89 1562.07 2168.51 1562.07C2157.27 1562.07 2148.09 1552.96 2148.09 1541.73C2148.09 1530.58 2157.11 1521.31 2168.51 1521.31C2175.81 1521.31 2182.28 1525.17 2185.89 1530.91L2179.25 1534.68C2177.04 1531.15 2173.02 1528.77 2168.51 1528.77C2161.37 1528.77 2155.88 1534.84 2155.88 1541.81C2155.88 1548.78 2161.46 1554.69 2168.67 1554.69C2173.35 1554.69 2177.28 1552.23 2179.5 1548.54ZM2221.51 1542.96V1522.05H2229.38V1545.17C2229.38 1557.39 2222.57 1562.07 2211.67 1562.07C2200.76 1562.07 2193.95 1557.39 2193.95 1545.17V1522.05H2201.91V1542.96C2201.91 1550.26 2203.63 1554.69 2211.67 1554.69C2219.78 1554.69 2221.51 1550.26 2221.51 1542.96ZM2238 1556.98L2242.27 1550.91C2246.2 1554.11 2250.39 1554.93 2253.17 1554.93C2257.36 1554.93 2259.65 1553.13 2259.65 1550.5C2259.65 1542.8 2239.4 1547.55 2239.4 1533.53C2239.4 1526.4 2244.65 1521.31 2252.76 1521.31C2256.04 1521.31 2261.54 1522.13 2265.97 1525.74L2261.78 1531.56C2258.34 1529.02 2254.9 1528.53 2252.85 1528.53C2248.91 1528.53 2247.19 1530.5 2247.19 1532.63C2247.19 1540.01 2267.36 1535.99 2267.36 1550.01C2267.36 1557.47 2261.7 1562.07 2252.93 1562.07C2247.11 1562.07 2242.02 1560.02 2238 1556.98ZM2313.74 1544.35H2281.84C2282.91 1550.34 2287.83 1554.93 2294.47 1554.93C2298.74 1554.93 2302.92 1553.05 2305.38 1549.6L2310.95 1553.87C2307.35 1558.95 2301.2 1562.07 2294.47 1562.07C2283.16 1562.07 2274.05 1553.21 2274.05 1541.73C2274.05 1530.82 2282.34 1521.31 2293.98 1521.31C2305.54 1521.31 2313.91 1530.74 2313.91 1541.65C2313.91 1542.71 2313.82 1543.53 2313.74 1544.35ZM2282.09 1538.12H2305.87C2304.97 1532.71 2300.21 1528.53 2294.06 1528.53C2287.99 1528.53 2283.48 1532.63 2282.09 1538.12ZM2319.68 1556.98L2323.95 1550.91C2327.88 1554.11 2332.07 1554.93 2334.85 1554.93C2339.04 1554.93 2341.33 1553.13 2341.33 1550.5C2341.33 1542.8 2321.08 1547.55 2321.08 1533.53C2321.08 1526.4 2326.33 1521.31 2334.44 1521.31C2337.72 1521.31 2343.22 1522.13 2347.65 1525.74L2343.46 1531.56C2340.02 1529.02 2336.58 1528.53 2334.53 1528.53C2330.59 1528.53 2328.87 1530.5 2328.87 1532.63C2328.87 1540.01 2349.04 1535.99 2349.04 1550.01C2349.04 1557.47 2343.38 1562.07 2334.61 1562.07C2328.79 1562.07 2323.7 1560.02 2319.68 1556.98ZM2419.33 1561H2411.45V1556.41C2408.17 1560.26 2403.66 1562.07 2398.42 1562.07C2386.85 1562.07 2377.83 1553.13 2377.83 1541.73C2377.83 1530.17 2387.02 1521.31 2398.42 1521.31C2403.66 1521.31 2408.09 1523.2 2411.45 1527.05V1500.32H2419.33V1561ZM2411.29 1541.73C2411.29 1534.68 2405.8 1528.77 2398.42 1528.77C2391.12 1528.77 2385.62 1534.51 2385.62 1541.73C2385.62 1549.03 2391.12 1554.69 2398.42 1554.69C2405.88 1554.69 2411.29 1548.78 2411.29 1541.73ZM2468.85 1544.35H2436.95C2438.02 1550.34 2442.94 1554.93 2449.58 1554.93C2453.85 1554.93 2458.03 1553.05 2460.49 1549.6L2466.06 1553.87C2462.46 1558.95 2456.31 1562.07 2449.58 1562.07C2438.27 1562.07 2429.16 1553.21 2429.16 1541.73C2429.16 1530.82 2437.45 1521.31 2449.09 1521.31C2460.65 1521.31 2469.02 1530.74 2469.02 1541.65C2469.02 1542.71 2468.93 1543.53 2468.85 1544.35ZM2437.2 1538.12H2460.98C2460.08 1532.71 2455.32 1528.53 2449.17 1528.53C2443.1 1528.53 2438.59 1532.63 2437.2 1538.12ZM2515.06 1544.35H2483.16C2484.23 1550.34 2489.15 1554.93 2495.79 1554.93C2500.05 1554.93 2504.23 1553.05 2506.69 1549.6L2512.27 1553.87C2508.66 1558.95 2502.51 1562.07 2495.79 1562.07C2484.47 1562.07 2475.37 1553.21 2475.37 1541.73C2475.37 1530.82 2483.65 1521.31 2495.3 1521.31C2506.86 1521.31 2515.22 1530.74 2515.22 1541.65C2515.22 1542.71 2515.14 1543.53 2515.06 1544.35ZM2483.41 1538.12H2507.19C2506.28 1532.71 2501.53 1528.53 2495.38 1528.53C2489.31 1528.53 2484.8 1532.63 2483.41 1538.12ZM2532.73 1581.75H2524.85V1522.05H2532.73V1527.05C2536.01 1523.2 2540.52 1521.31 2545.76 1521.31C2557.16 1521.31 2566.35 1530.17 2566.35 1541.73C2566.35 1553.13 2557.33 1562.07 2545.76 1562.07C2540.52 1562.07 2536.01 1560.26 2532.73 1556.41V1581.75ZM2532.97 1541.73C2532.97 1548.78 2538.14 1554.69 2545.68 1554.69C2553.06 1554.69 2558.56 1549.03 2558.56 1541.73C2558.56 1534.51 2553.06 1528.77 2545.76 1528.77C2538.47 1528.77 2532.97 1534.51 2532.97 1541.73ZM2590.86 1554.6V1561.49C2589.55 1561.82 2588.16 1562.07 2586.52 1562.07C2580.12 1562.07 2576.19 1558.21 2576.19 1551.08V1500.32H2584.06V1548.62C2584.06 1552.8 2585.04 1554.69 2588.9 1554.69C2589.39 1554.69 2590.12 1554.69 2590.86 1554.6ZM2609.11 1581.75H2601.32L2608.45 1561.74L2592.55 1522.05H2601.16L2612.31 1551.32L2622.8 1522.05H2630.68L2609.11 1581.75ZM2096.28 1628.73C2096.28 1639.88 2087.01 1649.07 2075.7 1649.07C2064.46 1649.07 2055.28 1639.96 2055.28 1628.73C2055.28 1617.58 2064.3 1608.31 2075.7 1608.31C2087.01 1608.31 2096.28 1617.5 2096.28 1628.73ZM2088.49 1628.65C2088.49 1621.6 2082.83 1615.77 2075.78 1615.77C2068.48 1615.77 2063.07 1621.92 2063.07 1628.81C2063.07 1635.78 2068.65 1641.69 2075.78 1641.69C2083 1641.69 2088.49 1635.62 2088.49 1628.65ZM2141.39 1648H2133.43V1627.58C2133.43 1619.79 2130.4 1615.77 2123.92 1615.77C2117.2 1615.77 2114 1620.12 2114 1628.16V1648H2106.13V1609.05H2114V1613.23C2116.62 1610.28 2119.82 1608.31 2125.31 1608.31C2134.58 1608.31 2141.39 1613.72 2141.39 1625.94V1648ZM2234.26 1648H2226.39V1627.58C2226.39 1619.87 2224.42 1615.77 2218.35 1615.77C2212.2 1615.77 2209 1619.87 2209 1628.16V1648H2201.05V1627.58C2201.05 1619.79 2199.08 1615.77 2193.01 1615.77C2186.86 1615.77 2183.67 1619.96 2183.67 1628.16V1648H2175.79V1609.05H2183.67V1613.23C2186.62 1609.95 2189.65 1608.31 2194.33 1608.31C2199.66 1608.31 2204.41 1610.44 2206.79 1615.53C2210.56 1609.79 2215.24 1608.31 2219.75 1608.31C2228.44 1608.31 2234.26 1613.72 2234.26 1625.94V1648ZM2284.8 1648H2276.92V1643.41C2273.64 1647.26 2269.13 1649.07 2263.89 1649.07C2252.32 1649.07 2243.3 1640.13 2243.3 1628.73C2243.3 1617.17 2252.49 1608.31 2263.89 1608.31C2269.13 1608.31 2273.56 1610.2 2276.92 1614.05V1609.05H2284.8V1648ZM2276.76 1628.73C2276.76 1621.68 2271.27 1615.77 2263.89 1615.77C2256.59 1615.77 2251.09 1621.51 2251.09 1628.73C2251.09 1636.03 2256.59 1641.69 2263.89 1641.69C2271.35 1641.69 2276.76 1635.78 2276.76 1628.73ZM2294.06 1643.98L2298.32 1637.91C2302.26 1641.11 2306.44 1641.93 2309.23 1641.93C2313.41 1641.93 2315.71 1640.13 2315.71 1637.5C2315.71 1629.8 2295.45 1634.55 2295.45 1620.53C2295.45 1613.4 2300.7 1608.31 2308.82 1608.31C2312.1 1608.31 2317.59 1609.13 2322.02 1612.74L2317.84 1618.56C2314.4 1616.02 2310.95 1615.53 2308.9 1615.53C2304.97 1615.53 2303.24 1617.5 2303.24 1619.63C2303.24 1627.01 2323.42 1622.99 2323.42 1637.01C2323.42 1644.47 2317.76 1649.07 2308.98 1649.07C2303.16 1649.07 2298.08 1647.02 2294.06 1643.98ZM2351.44 1641.11V1648.16C2350.62 1648.49 2348.16 1649.07 2345.29 1649.07C2335.69 1649.07 2333.97 1642.75 2333.97 1636.03V1616.51H2327.82V1609.05H2333.97V1595.85H2341.93V1609.05H2352.5V1616.51H2341.93V1635.13C2341.93 1639.55 2342.91 1641.69 2347.09 1641.69C2348.49 1641.69 2350.62 1641.44 2351.44 1641.11ZM2398.06 1631.35H2366.17C2367.23 1637.34 2372.15 1641.93 2378.79 1641.93C2383.06 1641.93 2387.24 1640.05 2389.7 1636.6L2395.28 1640.87C2391.67 1645.95 2385.52 1649.07 2378.79 1649.07C2367.48 1649.07 2358.38 1640.21 2358.38 1628.73C2358.38 1617.82 2366.66 1608.31 2378.3 1608.31C2389.86 1608.31 2398.23 1617.74 2398.23 1628.65C2398.23 1629.71 2398.15 1630.53 2398.06 1631.35ZM2366.41 1625.12H2390.19C2389.29 1619.71 2384.53 1615.53 2378.38 1615.53C2372.32 1615.53 2367.81 1619.63 2366.41 1625.12ZM2415.73 1648H2407.86V1609.05H2415.73V1613.72C2419.5 1609.21 2423.36 1608.31 2430.9 1608.31V1615.86C2418.03 1615.86 2415.73 1621.1 2415.73 1627.83V1648ZM2446.81 1648H2438.85V1609.05H2446.81V1648ZM2442.87 1601.34C2440 1601.34 2437.79 1599.13 2437.79 1596.26C2437.79 1593.39 2440 1591.17 2442.87 1591.17C2445.74 1591.17 2447.87 1593.39 2447.87 1596.26C2447.87 1599.13 2445.74 1601.34 2442.87 1601.34ZM2495.17 1648H2487.22V1627.58C2487.22 1619.79 2484.18 1615.77 2477.71 1615.77C2470.98 1615.77 2467.78 1620.12 2467.78 1628.16V1648H2459.91V1609.05H2467.78V1613.23C2470.41 1610.28 2473.61 1608.31 2479.1 1608.31C2488.37 1608.31 2495.17 1613.72 2495.17 1625.94V1648ZM2537.82 1646.2V1643.41C2534.54 1647.26 2530.03 1649.07 2524.78 1649.07C2513.22 1649.07 2504.2 1640.13 2504.2 1628.73C2504.2 1617.17 2513.38 1608.31 2524.78 1608.31C2530.03 1608.31 2534.46 1610.2 2537.82 1614.05V1609.05H2545.69V1644.8C2545.69 1664.32 2533.8 1668.75 2525.03 1668.75C2517.15 1668.75 2510.84 1665.14 2507.15 1659.23L2514.45 1656.12C2516.74 1659.4 2520.02 1661.37 2524.94 1661.37C2531.67 1661.37 2537.82 1657.68 2537.82 1646.2ZM2537.65 1628.73C2537.65 1621.68 2532.16 1615.77 2524.78 1615.77C2517.48 1615.77 2511.99 1621.51 2511.99 1628.73C2511.99 1636.03 2517.48 1641.69 2524.78 1641.69C2532.24 1641.69 2537.65 1635.78 2537.65 1628.73ZM2093.33 1735H2083L2066.43 1716.39V1735H2058.56V1674.32H2066.43V1712.12L2081.44 1696.05H2091.85L2074.71 1713.93L2093.33 1735ZM2136.93 1718.35H2105.03C2106.1 1724.34 2111.02 1728.93 2117.66 1728.93C2121.92 1728.93 2126.1 1727.05 2128.56 1723.6L2134.14 1727.87C2130.53 1732.95 2124.38 1736.07 2117.66 1736.07C2106.34 1736.07 2097.24 1727.21 2097.24 1715.73C2097.24 1704.82 2105.52 1695.31 2117.17 1695.31C2128.73 1695.31 2137.09 1704.74 2137.09 1715.65C2137.09 1716.71 2137.01 1717.53 2136.93 1718.35ZM2105.28 1712.12H2129.06C2128.15 1706.71 2123.4 1702.53 2117.25 1702.53C2111.18 1702.53 2106.67 1706.63 2105.28 1712.12ZM2157.55 1755.75H2149.76L2156.89 1735.74L2140.99 1696.05H2149.6L2160.75 1725.32L2171.24 1696.05H2179.12L2157.55 1755.75ZM2216.58 1735H2208.63V1696.05H2216.58V1735ZM2212.64 1688.34C2209.77 1688.34 2207.56 1686.13 2207.56 1683.26C2207.56 1680.39 2209.77 1678.17 2212.64 1678.17C2215.51 1678.17 2217.65 1680.39 2217.65 1683.26C2217.65 1686.13 2215.51 1688.34 2212.64 1688.34ZM2267.9 1735H2260.03V1730.41C2256.75 1734.26 2252.24 1736.07 2246.99 1736.07C2235.43 1736.07 2226.41 1727.13 2226.41 1715.73C2226.41 1704.17 2235.59 1695.31 2246.99 1695.31C2252.24 1695.31 2256.66 1697.2 2260.03 1701.05V1674.32H2267.9V1735ZM2259.86 1715.73C2259.86 1708.68 2254.37 1702.77 2246.99 1702.77C2239.69 1702.77 2234.2 1708.51 2234.2 1715.73C2234.2 1723.03 2239.69 1728.69 2246.99 1728.69C2254.45 1728.69 2259.86 1722.78 2259.86 1715.73ZM2317.43 1718.35H2285.53C2286.59 1724.34 2291.51 1728.93 2298.16 1728.93C2302.42 1728.93 2306.6 1727.05 2309.06 1723.6L2314.64 1727.87C2311.03 1732.95 2304.88 1736.07 2298.16 1736.07C2286.84 1736.07 2277.74 1727.21 2277.74 1715.73C2277.74 1704.82 2286.02 1695.31 2297.66 1695.31C2309.23 1695.31 2317.59 1704.74 2317.59 1715.65C2317.59 1716.71 2317.51 1717.53 2317.43 1718.35ZM2285.77 1712.12H2309.55C2308.65 1706.71 2303.9 1702.53 2297.75 1702.53C2291.68 1702.53 2287.17 1706.63 2285.77 1712.12ZM2365.43 1735H2357.56V1730.41C2354.28 1734.26 2349.77 1736.07 2344.52 1736.07C2332.96 1736.07 2323.94 1727.13 2323.94 1715.73C2323.94 1704.17 2333.13 1695.31 2344.52 1695.31C2349.77 1695.31 2354.2 1697.2 2357.56 1701.05V1696.05H2365.43V1735ZM2357.4 1715.73C2357.4 1708.68 2351.9 1702.77 2344.52 1702.77C2337.23 1702.77 2331.73 1708.51 2331.73 1715.73C2331.73 1723.03 2337.23 1728.69 2344.52 1728.69C2351.99 1728.69 2357.4 1722.78 2357.4 1715.73ZM2374.7 1730.98L2378.96 1724.91C2382.9 1728.11 2387.08 1728.93 2389.87 1728.93C2394.05 1728.93 2396.35 1727.13 2396.35 1724.5C2396.35 1716.8 2376.09 1721.55 2376.09 1707.53C2376.09 1700.4 2381.34 1695.31 2389.46 1695.31C2392.74 1695.31 2398.23 1696.13 2402.66 1699.74L2398.48 1705.56C2395.03 1703.02 2391.59 1702.53 2389.54 1702.53C2385.6 1702.53 2383.88 1704.5 2383.88 1706.63C2383.88 1714.01 2404.05 1709.99 2404.05 1724.01C2404.05 1731.47 2398.4 1736.07 2389.62 1736.07C2383.8 1736.07 2378.72 1734.02 2374.7 1730.98ZM2420.75 1735.49C2417.88 1735.49 2415.67 1733.28 2415.67 1730.41C2415.67 1727.54 2417.88 1725.41 2420.75 1725.41C2423.62 1725.41 2425.75 1727.54 2425.75 1730.41C2425.75 1733.28 2423.62 1735.49 2420.75 1735.49Z" fill="black"/>
<defs>
<linearGradient id="paint0_linear_2038_1623" x1="1914.78" y1="775.878" x2="1138.19" y2="1514.29" gradientUnits="userSpaceOnUse">
<stop stop-color="#64A70B"/>
<stop offset="1" stop-color="#009CDE"/>
</linearGradient>
</defs>
</svg>
