<svg width="3500" height="1800" viewBox="0 0 3500 1800" fill="none" xmlns="http://www.w3.org/2000/svg">
<rect width="3500" height="1800" fill="white"/>
<path d="M245.55 228.21L254.02 238.33C246.43 245.59 236.42 250.43 224.87 250.43C201.44 250.43 182.3 232.17 182.3 208.41C182.3 185.2 200.56 166.17 224.76 166.17C236.97 166.17 247.53 171.12 255.23 179.04L246.21 189.16C240.82 182.89 233.45 179.37 224.76 179.37C208.81 179.37 196.6 192.79 196.6 208.52C196.6 224.47 209.25 237.23 224.87 237.23C232.68 237.23 240.49 233.38 245.55 228.21ZM314.288 249H300.758V221.06C300.758 210.94 295.368 208.74 289.978 208.74C284.588 208.74 279.198 210.83 279.198 220.84V249H265.668V167.6H279.198V200.6C282.168 198.4 285.798 195.76 292.948 195.76C304.388 195.76 314.288 202.47 314.288 218.86V249ZM381.061 249H367.531V245.59C363.351 249 358.401 250.43 353.011 250.43C337.611 250.43 325.291 238.11 325.291 223.04C325.291 207.86 337.611 195.76 353.011 195.76C358.291 195.76 363.241 197.19 367.531 200.6V196.75H381.061V249ZM367.531 223.04C367.531 215.34 361.041 208.74 353.011 208.74C345.091 208.74 338.601 215.34 338.601 223.04C338.601 230.85 345.091 237.45 353.011 237.45C361.041 237.45 367.531 230.85 367.531 223.04ZM446.202 249H432.672V221.06C432.672 210.94 427.282 208.74 421.892 208.74C416.502 208.74 411.112 210.83 411.112 220.84V249H397.582V196.75H411.112V200.6C414.082 198.4 417.712 195.76 424.862 195.76C436.302 195.76 446.202 202.47 446.202 218.86V249ZM499.445 247.9V245.59C495.265 249 490.315 250.43 484.925 250.43C469.525 250.43 457.205 238.11 457.205 223.04C457.205 207.86 469.525 195.76 484.925 195.76C490.205 195.76 495.155 197.19 499.445 200.6V196.75H512.975V245.26C512.975 273.2 495.155 276.83 484.925 276.83C474.915 276.83 466.225 271.66 461.385 263.96L473.815 258.57C476.455 261.76 480.525 263.85 484.925 263.85C492.955 263.85 499.445 259.89 499.445 247.9ZM499.445 223.04C499.445 215.34 492.955 208.74 484.925 208.74C477.005 208.74 470.515 215.34 470.515 223.04C470.515 230.85 477.005 237.45 484.925 237.45C492.955 237.45 499.445 230.85 499.445 223.04ZM578.116 227.33H538.296C539.836 233.71 545.006 238.22 552.816 238.22C557.546 238.22 562.606 236.46 565.686 232.39L574.926 239.76C570.196 246.47 561.836 250.43 552.926 250.43C537.196 250.43 525.096 238.66 525.096 223.37C525.096 208.52 535.546 195.76 552.156 195.76C567.556 195.76 578.446 208.3 578.446 223.04C578.446 224.47 578.336 226.01 578.116 227.33ZM538.736 217.43H564.806C564.036 212.15 558.536 208.08 552.046 208.08C545.776 208.08 540.716 211.82 538.736 217.43ZM648.32 237.12V249.11C648.32 249.11 644.36 250.43 637.87 250.43C627.64 250.43 622.36 243.72 622.36 233.49V209.73H614.11V196.75H622.36V179.04H635.89V196.75H649.75V209.73H635.89V230.63C635.89 234.26 636.88 237.67 641.72 237.67C645.13 237.67 648.32 237.12 648.32 237.12ZM714.601 223.04C714.601 238.11 702.281 250.43 686.771 250.43C671.371 250.43 659.051 238.11 659.051 223.04C659.051 207.86 671.371 195.76 686.771 195.76C702.281 195.76 714.601 207.86 714.601 223.04ZM701.291 223.04C701.291 215.34 694.801 208.74 686.771 208.74C678.851 208.74 672.361 215.34 672.361 223.04C672.361 230.85 678.851 237.45 686.771 237.45C694.801 237.45 701.291 230.85 701.291 223.04ZM784.531 237.12V249.11C784.531 249.11 780.571 250.43 774.081 250.43C763.851 250.43 758.571 243.72 758.571 233.49V209.73H750.321V196.75H758.571V179.04H772.101V196.75H785.961V209.73H772.101V230.63C772.101 234.26 773.091 237.67 777.931 237.67C781.341 237.67 784.531 237.12 784.531 237.12ZM846.134 249H832.604V221.06C832.604 210.94 827.214 208.74 821.824 208.74C816.434 208.74 811.044 210.83 811.044 220.84V249H797.514V167.6H811.044V200.6C814.014 198.4 817.644 195.76 824.794 195.76C836.234 195.76 846.134 202.47 846.134 218.86V249ZM910.157 227.33H870.337C871.877 233.71 877.047 238.22 884.857 238.22C889.587 238.22 894.647 236.46 897.727 232.39L906.967 239.76C902.237 246.47 893.877 250.43 884.967 250.43C869.237 250.43 857.137 238.66 857.137 223.37C857.137 208.52 867.587 195.76 884.197 195.76C899.597 195.76 910.487 208.3 910.487 223.04C910.487 224.47 910.377 226.01 910.157 227.33ZM870.777 217.43H896.847C896.077 212.15 890.577 208.08 884.087 208.08C877.817 208.08 872.757 211.82 870.777 217.43ZM239.39 366H187.8V284.6H239.39V298.46H202.21V316.61H231.47V330.47H202.21V352.14H239.39V366ZM301.72 366H288.19V338.06C288.19 327.94 282.8 325.74 277.41 325.74C272.02 325.74 266.63 327.83 266.63 337.84V366H253.1V313.75H266.63V317.6C269.6 315.4 273.23 312.76 280.38 312.76C291.82 312.76 301.72 319.47 301.72 335.86V366ZM345.173 366H330.983L309.973 313.75H324.713L338.023 349.17L351.443 313.75H366.183L345.173 366ZM389.201 366H375.671V313.75H389.201V366ZM382.491 305.06C377.651 305.06 373.911 301.32 373.911 296.48C373.911 291.64 377.651 288.01 382.491 288.01C387.331 288.01 390.961 291.64 390.961 296.48C390.961 301.32 387.331 305.06 382.491 305.06ZM419.384 366H405.854V313.75H419.384V317.6C424.444 313.86 429.394 312.76 439.514 312.76V325.74C422.244 325.74 419.384 330.58 419.384 339.6V366ZM501.691 340.04C501.691 355.11 489.371 367.43 473.861 367.43C458.461 367.43 446.141 355.11 446.141 340.04C446.141 324.86 458.461 312.76 473.861 312.76C489.371 312.76 501.691 324.86 501.691 340.04ZM488.381 340.04C488.381 332.34 481.891 325.74 473.861 325.74C465.941 325.74 459.451 332.34 459.451 340.04C459.451 347.85 465.941 354.45 473.861 354.45C481.891 354.45 488.381 347.85 488.381 340.04ZM562.433 366H548.903V338.06C548.903 327.94 543.513 325.74 538.123 325.74C532.733 325.74 527.343 327.83 527.343 337.84V366H513.813V313.75H527.343V317.6C530.313 315.4 533.943 312.76 541.093 312.76C552.533 312.76 562.433 319.47 562.433 335.86V366ZM659.346 366H645.816V338.06C645.816 327.39 641.086 325.74 636.246 325.74C630.856 325.74 625.356 327.83 625.356 337.84V366H611.826V338.06C611.826 327.39 607.096 325.74 602.256 325.74C596.866 325.74 591.366 327.83 591.366 337.84V366H577.836V313.75H591.366V317.6C594.666 315.18 597.966 312.76 604.896 312.76C611.716 312.76 617.766 315.18 621.396 320.57C626.346 314.63 633.386 312.76 638.886 312.76C650.436 312.76 659.346 319.47 659.346 335.86V366ZM723.35 344.33H683.53C685.07 350.71 690.24 355.22 698.05 355.22C702.78 355.22 707.84 353.46 710.92 349.39L720.16 356.76C715.43 363.47 707.07 367.43 698.16 367.43C682.43 367.43 670.33 355.66 670.33 340.37C670.33 325.52 680.78 312.76 697.39 312.76C712.79 312.76 723.68 325.3 723.68 340.04C723.68 341.47 723.57 343.01 723.35 344.33ZM683.97 334.43H710.04C709.27 329.15 703.77 325.08 697.28 325.08C691.01 325.08 685.95 328.82 683.97 334.43ZM784.366 366H770.836V338.06C770.836 327.94 765.446 325.74 760.056 325.74C754.666 325.74 749.276 327.83 749.276 337.84V366H735.746V313.75H749.276V317.6C752.246 315.4 755.876 312.76 763.026 312.76C774.466 312.76 784.366 319.47 784.366 335.86V366ZM827.93 354.12V366.11C827.93 366.11 823.97 367.43 817.48 367.43C807.25 367.43 801.97 360.72 801.97 350.49V326.73H793.72V313.75H801.97V296.04H815.5V313.75H829.36V326.73H815.5V347.63C815.5 351.26 816.49 354.67 821.33 354.67C824.74 354.67 827.93 354.12 827.93 354.12Z" fill="#242424"/>
<path d="M2702.64 304H2687.02L2680.31 286.62H2645.22L2638.62 304H2623L2655.56 222.6H2670.19L2702.64 304ZM2675.14 272.87L2662.82 240.53L2650.39 272.87H2675.14ZM2732.19 292.56V304.55C2730.65 304.99 2728.56 305.43 2726.36 305.43C2716.35 305.43 2710.85 299.93 2710.85 290.03V222.6H2724.38V286.95C2724.38 290.47 2725.37 292.67 2730.1 292.67C2730.54 292.67 2731.42 292.67 2732.19 292.56ZM2804.04 304H2790.62L2778.85 270.67L2767.52 304H2753.44L2734.85 251.75H2750.03L2760.59 286.07L2772.91 251.75H2784.79L2796.89 286.07L2807.56 251.75H2822.85L2804.04 304ZM2883.61 304H2870.08V300.59C2865.9 304 2860.95 305.43 2855.56 305.43C2840.16 305.43 2827.84 293.11 2827.84 278.04C2827.84 262.86 2840.16 250.76 2855.56 250.76C2860.84 250.76 2865.79 252.19 2870.08 255.6V251.75H2883.61V304ZM2870.08 278.04C2870.08 270.34 2863.59 263.74 2855.56 263.74C2847.64 263.74 2841.15 270.34 2841.15 278.04C2841.15 285.85 2847.64 292.45 2855.56 292.45C2863.59 292.45 2870.08 285.85 2870.08 278.04ZM2918.39 331.83H2905.19L2914.65 305.43L2892.98 251.75H2907.94L2921.03 287.83L2934.01 251.75H2947.32L2918.39 331.83ZM2951.35 298.06L2958.5 287.72C2963.34 291.9 2969.17 293.11 2972.91 293.11C2977.75 293.11 2979.29 291.13 2979.29 289.26C2979.29 281.45 2952.78 286.29 2952.78 267.48C2952.78 257.91 2959.6 250.76 2971.26 250.76C2975.88 250.76 2984.35 251.86 2990.29 257.36L2983.14 267.04C2978.52 263.85 2974.23 263.08 2971.37 263.08C2966.86 263.08 2965.98 265.06 2965.98 266.38C2965.98 273.75 2992.16 270.23 2992.16 288.82C2992.16 298.39 2985.23 305.43 2972.03 305.43C2962.35 305.43 2956.08 301.69 2951.35 298.06ZM3115.13 263.3C3115.13 286.84 3096.32 305.43 3072.67 305.43C3049.24 305.43 3030.1 287.17 3030.1 263.41C3030.1 240.2 3048.36 221.17 3072.56 221.17C3096.43 221.17 3115.13 239.76 3115.13 263.3ZM3072.67 292.23C3088.29 292.23 3100.72 279.36 3100.72 263.41C3100.72 247.46 3088.4 234.37 3072.56 234.37C3056.61 234.37 3044.4 247.79 3044.4 263.52C3044.4 279.47 3057.05 292.23 3072.67 292.23ZM3175.3 304H3161.77V276.06C3161.77 265.94 3156.38 263.74 3150.99 263.74C3145.6 263.74 3140.21 265.83 3140.21 275.84V304H3126.68V251.75H3140.21V255.6C3143.18 253.4 3146.81 250.76 3153.96 250.76C3165.4 250.76 3175.3 257.47 3175.3 273.86V304ZM2666.34 421H2651.93V353.46H2625.75V339.6H2692.41V353.46H2666.34V421ZM2752.06 421H2738.53V393.06C2738.53 382.94 2733.14 380.74 2727.75 380.74C2722.36 380.74 2716.97 382.83 2716.97 392.84V421H2703.44V339.6H2716.97V372.6C2719.94 370.4 2723.57 367.76 2730.72 367.76C2742.16 367.76 2752.06 374.47 2752.06 390.86V421ZM2816.08 399.33H2776.26C2777.8 405.71 2782.97 410.22 2790.78 410.22C2795.51 410.22 2800.57 408.46 2803.65 404.39L2812.89 411.76C2808.16 418.47 2799.8 422.43 2790.89 422.43C2775.16 422.43 2763.06 410.66 2763.06 395.37C2763.06 380.52 2773.51 367.76 2790.12 367.76C2805.52 367.76 2816.41 380.3 2816.41 395.04C2816.41 396.47 2816.3 398.01 2816.08 399.33ZM2776.7 389.43H2802.77C2802 384.15 2796.5 380.08 2790.01 380.08C2783.74 380.08 2778.68 383.82 2776.7 389.43ZM2910.82 421H2858.68V339.6H2873.09V407.14H2910.82V421ZM2972.98 395.04C2972.98 410.11 2960.66 422.43 2945.15 422.43C2929.75 422.43 2917.43 410.11 2917.43 395.04C2917.43 379.86 2929.75 367.76 2945.15 367.76C2960.66 367.76 2972.98 379.86 2972.98 395.04ZM2959.67 395.04C2959.67 387.34 2953.18 380.74 2945.15 380.74C2937.23 380.74 2930.74 387.34 2930.74 395.04C2930.74 402.85 2937.23 409.45 2945.15 409.45C2953.18 409.45 2959.67 402.85 2959.67 395.04ZM3036.25 395.04C3036.25 410.11 3023.93 422.43 3008.42 422.43C2993.02 422.43 2980.7 410.11 2980.7 395.04C2980.7 379.86 2993.02 367.76 3008.42 367.76C3023.93 367.76 3036.25 379.86 3036.25 395.04ZM3022.94 395.04C3022.94 387.34 3016.45 380.74 3008.42 380.74C3000.5 380.74 2994.01 387.34 2994.01 395.04C2994.01 402.85 3000.5 409.45 3008.42 409.45C3016.45 409.45 3022.94 402.85 3022.94 395.04ZM3100.4 421H3082.58L3061.9 397.68V421H3048.37V339.6H3061.9V388.99L3080.82 368.75H3098.2L3075.32 392.62L3100.4 421ZM3160.86 395.04C3160.86 410.11 3148.54 422.43 3133.03 422.43C3117.63 422.43 3105.31 410.11 3105.31 395.04C3105.31 379.86 3117.63 367.76 3133.03 367.76C3148.54 367.76 3160.86 379.86 3160.86 395.04ZM3147.55 395.04C3147.55 387.34 3141.06 380.74 3133.03 380.74C3125.11 380.74 3118.62 387.34 3118.62 395.04C3118.62 402.85 3125.11 409.45 3133.03 409.45C3141.06 409.45 3147.55 402.85 3147.55 395.04ZM3207.41 395.81V368.75H3220.94V399.44C3220.94 415.83 3211.15 422.43 3196.41 422.43C3181.67 422.43 3171.88 415.83 3171.88 399.44V368.75H3185.41V395.81C3185.41 404.61 3187.17 409.45 3196.41 409.45C3205.65 409.45 3207.41 404.61 3207.41 395.81ZM3264.52 409.12V421.11C3264.52 421.11 3260.56 422.43 3254.07 422.43C3243.84 422.43 3238.56 415.72 3238.56 405.49V381.73H3230.31V368.75H3238.56V351.04H3252.09V368.75H3265.95V381.73H3252.09V402.63C3252.09 406.26 3253.08 409.67 3257.92 409.67C3261.33 409.67 3264.52 409.12 3264.52 409.12Z" fill="#242424"/>
<path d="M228.2 1192H182.88C160.22 1192 141.3 1174.62 141.3 1150.86C141.3 1127.65 159.56 1109.17 183.76 1109.17C207.63 1109.17 226.33 1127.1 226.33 1151.08C226.33 1161.42 222.81 1170.88 213.24 1178.14H228.2V1192ZM211.92 1150.97C211.92 1134.8 199.6 1122.37 183.76 1122.37C167.81 1122.37 155.6 1135.13 155.6 1151.08C155.6 1167.36 168.25 1178.8 183.87 1178.8C199.49 1178.8 211.92 1167.25 211.92 1150.97ZM270.914 1166.81V1139.75H284.444V1170.44C284.444 1186.83 274.654 1193.43 259.914 1193.43C245.174 1193.43 235.384 1186.83 235.384 1170.44V1139.75H248.914V1166.81C248.914 1175.61 250.674 1180.45 259.914 1180.45C269.154 1180.45 270.914 1175.61 270.914 1166.81ZM313.503 1192H299.973V1139.75H313.503V1192ZM306.793 1131.06C301.953 1131.06 298.213 1127.32 298.213 1122.48C298.213 1117.64 301.953 1114.01 306.793 1114.01C311.633 1114.01 315.263 1117.64 315.263 1122.48C315.263 1127.32 311.633 1131.06 306.793 1131.06ZM365.686 1173.74L377.126 1180.56C372.286 1188.26 363.486 1193.43 353.476 1193.43C338.076 1193.43 325.756 1181.11 325.756 1166.04C325.756 1150.86 338.076 1138.76 353.476 1138.76C363.376 1138.76 371.956 1143.71 376.906 1151.19L365.356 1157.9C362.716 1154.16 358.426 1151.74 353.476 1151.74C345.556 1151.74 339.066 1158.34 339.066 1166.04C339.066 1173.85 345.556 1180.45 353.476 1180.45C358.646 1180.45 363.156 1177.81 365.686 1173.74ZM440.194 1192H422.374L401.694 1168.68V1192H388.164V1110.6H401.694V1159.99L420.614 1139.75H437.994L415.114 1163.62L440.194 1192ZM507.31 1180.12V1192.11C507.31 1192.11 503.35 1193.43 496.86 1193.43C486.63 1193.43 481.35 1186.72 481.35 1176.49V1152.73H473.1V1139.75H481.35V1122.04H494.88V1139.75H508.74V1152.73H494.88V1173.63C494.88 1177.26 495.87 1180.67 500.71 1180.67C504.12 1180.67 507.31 1180.12 507.31 1180.12ZM573.591 1166.04C573.591 1181.11 561.271 1193.43 545.761 1193.43C530.361 1193.43 518.041 1181.11 518.041 1166.04C518.041 1150.86 530.361 1138.76 545.761 1138.76C561.271 1138.76 573.591 1150.86 573.591 1166.04ZM560.281 1166.04C560.281 1158.34 553.791 1151.74 545.761 1151.74C537.841 1151.74 531.351 1158.34 531.351 1166.04C531.351 1173.85 537.841 1180.45 545.761 1180.45C553.791 1180.45 560.281 1173.85 560.281 1166.04ZM204.55 1288.21L213.02 1298.33C205.43 1305.59 195.42 1310.43 183.87 1310.43C160.44 1310.43 141.3 1292.17 141.3 1268.41C141.3 1245.2 159.56 1226.17 183.76 1226.17C195.97 1226.17 206.53 1231.12 214.23 1239.04L205.21 1249.16C199.82 1242.89 192.45 1239.37 183.76 1239.37C167.81 1239.37 155.6 1252.79 155.6 1268.52C155.6 1284.47 168.25 1297.23 183.87 1297.23C191.68 1297.23 199.49 1293.38 204.55 1288.21ZM276.038 1309H262.508V1305.59C258.328 1309 253.378 1310.43 247.988 1310.43C232.588 1310.43 220.268 1298.11 220.268 1283.04C220.268 1267.86 232.588 1255.76 247.988 1255.76C253.268 1255.76 258.218 1257.19 262.508 1260.6V1256.75H276.038V1309ZM262.508 1283.04C262.508 1275.34 256.018 1268.74 247.988 1268.74C240.068 1268.74 233.578 1275.34 233.578 1283.04C233.578 1290.85 240.068 1297.45 247.988 1297.45C256.018 1297.45 262.508 1290.85 262.508 1283.04ZM320.719 1297.12V1309.11C320.719 1309.11 316.759 1310.43 310.269 1310.43C300.039 1310.43 294.759 1303.72 294.759 1293.49V1269.73H286.509V1256.75H294.759V1239.04H308.289V1256.75H322.149V1269.73H308.289V1290.63C308.289 1294.26 309.279 1297.67 314.119 1297.67C317.529 1297.67 320.719 1297.12 320.719 1297.12ZM371.38 1290.74L382.82 1297.56C377.98 1305.26 369.18 1310.43 359.17 1310.43C343.77 1310.43 331.45 1298.11 331.45 1283.04C331.45 1267.86 343.77 1255.76 359.17 1255.76C369.07 1255.76 377.65 1260.71 382.6 1268.19L371.05 1274.9C368.41 1271.16 364.12 1268.74 359.17 1268.74C351.25 1268.74 344.76 1275.34 344.76 1283.04C344.76 1290.85 351.25 1297.45 359.17 1297.45C364.34 1297.45 368.85 1294.81 371.38 1290.74ZM442.477 1309H428.947V1281.06C428.947 1270.94 423.557 1268.74 418.167 1268.74C412.777 1268.74 407.387 1270.83 407.387 1280.84V1309H393.857V1227.6H407.387V1260.6C410.357 1258.4 413.987 1255.76 421.137 1255.76C432.577 1255.76 442.477 1262.47 442.477 1278.86V1309ZM519.979 1321.1L513.819 1331.11C500.179 1323.08 484.779 1306.03 484.779 1278.64C484.779 1251.36 500.179 1234.2 513.819 1226.28L519.979 1236.29C512.169 1241.9 499.079 1255.98 499.079 1278.42C499.079 1301.52 512.939 1316.04 519.979 1321.1ZM609.396 1268.3C609.396 1291.84 590.586 1310.43 566.936 1310.43C543.506 1310.43 524.366 1292.17 524.366 1268.41C524.366 1245.2 542.626 1226.17 566.826 1226.17C590.696 1226.17 609.396 1244.76 609.396 1268.3ZM566.936 1297.23C582.556 1297.23 594.986 1284.36 594.986 1268.41C594.986 1252.46 582.666 1239.37 566.826 1239.37C550.876 1239.37 538.666 1252.79 538.666 1268.52C538.666 1284.47 551.316 1297.23 566.936 1297.23ZM669.567 1309H656.037V1281.06C656.037 1270.94 650.647 1268.74 645.257 1268.74C639.867 1268.74 634.477 1270.83 634.477 1280.84V1309H620.947V1256.75H634.477V1260.6C637.447 1258.4 641.077 1255.76 648.227 1255.76C659.667 1255.76 669.567 1262.47 669.567 1278.86V1309ZM683.981 1331.11L677.821 1321.1C684.861 1316.04 698.721 1301.52 698.721 1278.42C698.721 1255.98 685.631 1241.9 677.821 1236.29L683.981 1226.28C697.621 1234.2 713.021 1251.36 713.021 1278.64C713.021 1306.03 697.621 1323.08 683.981 1331.11Z" fill="#242424"/>
<path d="M2721.27 1245.03V1254.38C2721.27 1275.28 2708.95 1293.43 2684.53 1293.43C2660.11 1293.43 2641.3 1275.17 2641.3 1251.52C2641.3 1228.2 2659.56 1209.17 2683.76 1209.17C2695.97 1209.17 2706.75 1214.01 2714.45 1221.82L2705.76 1231.72C2699.82 1224.9 2691.57 1222.37 2684.31 1222.37C2667.59 1222.37 2655.6 1235.79 2655.6 1251.52C2655.6 1267.47 2667.81 1280.23 2684.64 1280.23C2696.52 1280.23 2705.65 1273.85 2706.97 1258.89H2681.34V1245.03H2721.27ZM2787.31 1266.04C2787.31 1281.11 2774.99 1293.43 2759.48 1293.43C2744.08 1293.43 2731.76 1281.11 2731.76 1266.04C2731.76 1250.86 2744.08 1238.76 2759.48 1238.76C2774.99 1238.76 2787.31 1250.86 2787.31 1266.04ZM2774 1266.04C2774 1258.34 2767.51 1251.74 2759.48 1251.74C2751.56 1251.74 2745.07 1258.34 2745.07 1266.04C2745.07 1273.85 2751.56 1280.45 2759.48 1280.45C2767.51 1280.45 2774 1273.85 2774 1266.04ZM2826.52 1280.12V1292.11C2826.52 1292.11 2822.56 1293.43 2816.07 1293.43C2805.84 1293.43 2800.56 1286.72 2800.56 1276.49V1252.73H2792.31V1239.75H2800.56V1222.04H2814.09V1239.75H2827.95V1252.73H2814.09V1273.63C2814.09 1277.26 2815.08 1280.67 2819.92 1280.67C2823.33 1280.67 2826.52 1280.12 2826.52 1280.12ZM2922.67 1292H2909.14V1288.59C2904.96 1292 2900.01 1293.43 2894.62 1293.43C2879.22 1293.43 2866.9 1281.11 2866.9 1266.04C2866.9 1250.86 2879.22 1238.76 2894.62 1238.76C2899.9 1238.76 2904.85 1240.19 2909.14 1243.6V1239.75H2922.67V1292ZM2909.14 1266.04C2909.14 1258.34 2902.65 1251.74 2894.62 1251.74C2886.7 1251.74 2880.21 1258.34 2880.21 1266.04C2880.21 1273.85 2886.7 1280.45 2894.62 1280.45C2902.65 1280.45 2909.14 1273.85 2909.14 1266.04ZM2983.8 1292H2969.39V1210.6H3019.88V1224.46H2983.8V1242.61H3011.96V1256.47H2983.8V1292ZM3044.57 1292H3031.04V1239.75H3044.57V1292ZM3037.86 1231.06C3033.02 1231.06 3029.28 1227.32 3029.28 1222.48C3029.28 1217.64 3033.02 1214.01 3037.86 1214.01C3042.7 1214.01 3046.33 1217.64 3046.33 1222.48C3046.33 1227.32 3042.7 1231.06 3037.86 1231.06ZM3074.75 1292H3061.22V1239.75H3074.75V1243.6C3079.81 1239.86 3084.76 1238.76 3094.88 1238.76V1251.74C3077.61 1251.74 3074.75 1256.58 3074.75 1265.6V1292ZM3187.42 1292H3173.89V1264.06C3173.89 1253.39 3169.16 1251.74 3164.32 1251.74C3158.93 1251.74 3153.43 1253.83 3153.43 1263.84V1292H3139.9V1264.06C3139.9 1253.39 3135.17 1251.74 3130.33 1251.74C3124.94 1251.74 3119.44 1253.83 3119.44 1263.84V1292H3105.91V1239.75H3119.44V1243.6C3122.74 1241.18 3126.04 1238.76 3132.97 1238.76C3139.79 1238.76 3145.84 1241.18 3149.47 1246.57C3154.42 1240.63 3161.46 1238.76 3166.96 1238.76C3178.51 1238.76 3187.42 1245.47 3187.42 1261.86V1292ZM2721.27 1362.03V1371.38C2721.27 1392.28 2708.95 1410.43 2684.53 1410.43C2660.11 1410.43 2641.3 1392.17 2641.3 1368.52C2641.3 1345.2 2659.56 1326.17 2683.76 1326.17C2695.97 1326.17 2706.75 1331.01 2714.45 1338.82L2705.76 1348.72C2699.82 1341.9 2691.57 1339.37 2684.31 1339.37C2667.59 1339.37 2655.6 1352.79 2655.6 1368.52C2655.6 1384.47 2667.81 1397.23 2684.64 1397.23C2696.52 1397.23 2705.65 1390.85 2706.97 1375.89H2681.34V1362.03H2721.27ZM2749.69 1409H2736.16V1356.75H2749.69V1360.6C2754.75 1356.86 2759.7 1355.76 2769.82 1355.76V1368.74C2752.55 1368.74 2749.69 1373.58 2749.69 1382.6V1409ZM2830.61 1409H2817.08V1405.59C2812.9 1409 2807.95 1410.43 2802.56 1410.43C2787.16 1410.43 2774.84 1398.11 2774.84 1383.04C2774.84 1367.86 2787.16 1355.76 2802.56 1355.76C2807.84 1355.76 2812.79 1357.19 2817.08 1360.6V1356.75H2830.61V1409ZM2817.08 1383.04C2817.08 1375.34 2810.59 1368.74 2802.56 1368.74C2794.64 1368.74 2788.15 1375.34 2788.15 1383.04C2788.15 1390.85 2794.64 1397.45 2802.56 1397.45C2810.59 1397.45 2817.08 1390.85 2817.08 1383.04ZM2841.85 1403.06L2849 1392.72C2853.84 1396.9 2859.67 1398.11 2863.41 1398.11C2868.25 1398.11 2869.79 1396.13 2869.79 1394.26C2869.79 1386.45 2843.28 1391.29 2843.28 1372.48C2843.28 1362.91 2850.1 1355.76 2861.76 1355.76C2866.38 1355.76 2874.85 1356.86 2880.79 1362.36L2873.64 1372.04C2869.02 1368.85 2864.73 1368.08 2861.87 1368.08C2857.36 1368.08 2856.48 1370.06 2856.48 1371.38C2856.48 1378.75 2882.66 1375.23 2882.66 1393.82C2882.66 1403.39 2875.73 1410.43 2862.53 1410.43C2852.85 1410.43 2846.58 1406.69 2841.85 1403.06ZM2909.43 1436.83H2895.9V1356.75H2909.43V1360.6C2913.61 1357.19 2918.56 1355.76 2923.95 1355.76C2939.35 1355.76 2951.67 1367.86 2951.67 1383.04C2951.67 1398.11 2939.35 1410.43 2923.95 1410.43C2918.56 1410.43 2913.61 1409 2909.43 1405.59V1436.83ZM2909.43 1382.49V1383.7C2909.76 1391.18 2916.14 1397.45 2923.95 1397.45C2931.87 1397.45 2938.36 1390.85 2938.36 1383.04C2938.36 1375.34 2931.87 1368.74 2923.95 1368.74C2916.14 1368.74 2909.76 1375.12 2909.43 1382.49Z" fill="#242424"/>
<path fill-rule="evenodd" clip-rule="evenodd" d="M1831.57 140.138C1754.32 62.8313 1633.34 50.8951 1542.53 111.575C1451.72 172.326 1416.36 288.785 1458.18 389.753C1500 490.722 1607.28 548.062 1714.36 526.745C1821.5 505.429 1898.61 411.281 1898.61 302.009C1898.68 241.258 1874.54 182.992 1831.58 140.148L1831.57 140.138ZM1721.09 250.628C1745.66 275.213 1749.42 313.652 1730.18 342.501C1710.94 371.42 1673.95 382.647 1641.93 369.361C1609.83 356.074 1591.66 321.967 1598.4 287.932C1605.15 253.896 1635.04 229.382 1669.69 229.382C1689 229.311 1707.46 236.985 1721.09 250.628ZM1669.69 196.698C1719.96 196.698 1763.19 232.154 1772.99 281.467C1782.86 330.707 1756.52 380.091 1710.16 399.347C1663.8 418.603 1610.26 402.402 1582.29 360.693C1554.38 318.913 1559.85 263.206 1595.28 227.679C1615.02 207.856 1641.78 196.698 1669.69 196.698ZM1695.53 562.48C1687.01 563.332 1678.42 563.759 1669.69 563.759C1660.95 563.759 1652.36 563.332 1643.84 562.48V690.449H1669.69C1712.43 690.449 1750.91 716.172 1767.31 755.677C1783.64 795.183 1774.63 840.587 1744.45 870.855C1714.2 901.054 1668.84 910.076 1629.36 893.735C1589.88 877.392 1564.18 838.881 1564.18 796.176C1565.6 783.529 1559.5 771.236 1548.56 764.699C1542.1 761.715 1534.58 761.715 1528.11 764.699C1517.25 771.236 1511.15 783.529 1512.64 796.176C1512.64 856.218 1546.79 911 1600.68 937.432C1654.57 963.793 1718.82 957.185 1766.18 920.379C1813.61 883.574 1835.9 822.963 1823.76 764.202C1811.55 705.369 1767.03 658.615 1708.88 643.694C1701.14 642.273 1695.46 635.523 1695.46 627.636V562.479L1695.53 562.48ZM2361.59 1260.66H969V1309.97H2361.59V1260.66ZM2361.59 1513.61L969 1513.68V1562.99L2361.59 1562.92V1513.61ZM2282.14 1481V1342.58H1048.37V1481H2282.14ZM1259.38 1228.05V1191.03H1139.32V1228.05H1259.38ZM2191.26 1228.05V1191.03H2071.2V1228.05H2191.26ZM1501.5 924.295C1508.6 919.037 1518.68 920.458 1524.01 927.564C1529.4 934.598 1528.06 944.688 1521.1 950.16L1257.33 1150.96C1250.23 1156.36 1240 1155.01 1234.61 1147.83C1229.21 1140.73 1230.56 1130.49 1237.73 1125.09L1501.5 924.368L1501.5 924.295ZM1704.56 830.717C1712.44 835.123 1715.21 844.999 1710.88 852.814C1706.55 860.701 1696.61 863.544 1688.8 859.138C1682.34 855.586 1675.17 853.454 1667.79 853.099C1660.4 852.743 1653.09 854.022 1646.35 857.007C1638.25 859.636 1629.59 855.657 1626.18 847.912C1622.84 840.096 1626.04 831.072 1633.42 827.022C1656.43 817.075 1682.7 818.425 1704.57 830.646L1704.56 830.717ZM2092.93 1125.1C2099.04 1130.86 2099.82 1140.31 2094.71 1146.99C2089.66 1153.6 2080.29 1155.37 2073.19 1150.97L1811.84 951.66C1805.66 945.904 1804.88 936.454 1809.99 929.775C1815.11 923.025 1824.41 921.32 1831.58 925.796L2092.93 1125.1Z" fill="black"/>
<path d="M1762.31 843.344L1903.84 801.898L1957.41 828.181L1964.08 798.254L1993.04 820.63L2052.44 897.931L2102.98 914.106V786.735L2139.14 766.664L2177.79 775.615L2285.95 938.367L2320.78 961.469L2342.56 990.932L2379.46 1075.85L2405.02 1120.74L2416.35 1160.76L2373.9 1208.27L2285.95 1239.61L2252.34 1222.09L2222.07 1223.4L2194.42 1202.34L2169.42 1208.92L2140.46 1191.81L2114.13 1194.45L2087.81 1182.6L2065.58 1179.97L2102.98 1336.65L2037.27 1354.85L2010.99 1320.48L1976.62 1335.64L1957.5 1332.65L1946.29 1320.48L1910.11 1305.01L1877.55 1320.48L1809.5 1326.5L1781.12 1318.17L1761 1307.5L1725.92 1304.31L1571.84 1301.06L1562.16 1320.48L1607.65 1441.78L1642.92 1459.01V1415.58L1671.33 1370.01L1750.18 1354.85L1808.81 1430.67L1795.67 1502.44L1699.64 1547.93L1578.33 1502.44L1506.56 1430.67L1441.87 1309.36L1434.79 1218.38L1446.79 1135.21L1466.13 1054.62L1578.33 914.106L1688.98 862.75L1762.31 843.344Z" fill="url(#paint0_linear_2038_1414)"/>
<circle cx="2245.76" cy="1047.03" r="68.445" fill="white"/>
<path d="M2242.51 1073.48C2250.75 1067.02 2252.18 1055.08 2245.72 1046.84C2239.26 1038.6 2227.34 1037.16 2219.1 1043.62C2210.86 1050.08 2209.41 1062.01 2215.88 1070.25C2222.34 1078.49 2234.27 1079.95 2242.51 1073.48Z" fill="black"/>
<path d="M2422.14 1172.93C2422.15 1172.9 2422.16 1172.88 2422.17 1172.85C2422.17 1172.82 2422.18 1172.8 2422.19 1172.77C2434.79 1136.61 2411.26 1105.03 2392.34 1079.66C2385.66 1070.69 2379.34 1062.22 2375.31 1054.58C2368.68 1042.01 2365.92 1029.41 2363.25 1017.22C2359.74 1001.19 2356.11 984.611 2343.87 969.001C2326.93 947.403 2299.86 932.948 2289.04 927.745C2288.21 915.719 2286.02 904.394 2282.53 894.021C2273.64 867.617 2241.2 815.759 2215.55 776.902C2197.99 750.278 2162.96 740.503 2134.11 754.138C2129.8 756.174 2125.68 758.717 2121.88 761.699C2105.2 774.777 2096.01 795.203 2097.28 816.334C2098.46 835.896 2099.89 864.868 2099.96 891.803C2099.97 896.062 2099.94 900.139 2099.87 904.045C2090.82 904.842 2072.58 904.001 2054.67 888.611C2037.98 874.273 2030.18 860.059 2021.93 845.012C2016.94 835.909 2011.78 826.497 2004.61 817.355C1985.66 793.187 1958.16 779.545 1957 778.975C1954.01 777.514 1950.43 778.028 1947.98 780.272C1945.53 782.518 1944.7 786.034 1945.89 789.139C1949.41 798.289 1950.61 807.057 1949.5 815.676C1927.34 797.775 1904.77 789.186 1880.8 789.48C1877.87 789.516 1875.18 791.143 1873.79 793.727C1872.39 796.31 1872.51 799.448 1874.09 801.923C1875.67 804.392 1877.21 806.849 1878.72 809.299C1857.13 803.26 1835.47 801.646 1814.08 804.525C1811.47 804.876 1809.19 806.476 1807.98 808.815C1806.76 811.153 1806.77 813.934 1807.98 816.271C1810.27 820.668 1812.5 825.105 1814.67 829.553C1796.55 828.488 1763.05 828.743 1721.05 839.193C1687.13 847.625 1654.08 861.174 1622.8 879.466C1594.56 895.951 1567.52 916.498 1542.43 940.54C1521.32 960.78 1502.69 983.091 1487.09 1006.85C1464.16 1041.71 1447.4 1079.98 1437.27 1120.6C1389.49 1312.28 1381.09 1238.14 1474.6 1396.96C1484.52 1413.82 1495.33 1429.68 1506.85 1444.36C1536.97 1482.78 1571.91 1513.1 1608.34 1531.98C1660.21 1558.85 1712.82 1561.35 1756.47 1539.02C1804.29 1514.56 1818.35 1481.92 1821.73 1458.85C1826.2 1428.32 1814.23 1395.25 1790.5 1372.55C1770.69 1353.6 1743.14 1344.3 1714.93 1347.03C1687.33 1349.69 1663 1363.25 1648.17 1384.24C1636.23 1401.13 1632.32 1420.46 1636.85 1440.13C1637.89 1444.67 1639.38 1449.1 1641.2 1453.38C1622.01 1435.84 1602.42 1410.82 1586.53 1377.43C1579.54 1362.75 1573.96 1326.01 1571.93 1310.48C1591.12 1308.23 1616.45 1309.66 1636.5 1307.84C1678.47 1304.05 1716.3 1310.87 1762.5 1309C1763.56 1311.77 1767.37 1322.63 1769.16 1324.91C1774.36 1331.54 1782.32 1335.83 1791.35 1336.22L1831.89 1337.94C1841.43 1338.34 1850.39 1334.21 1856.27 1326.96L1873.18 1326.65C1881.96 1326.49 1889.84 1321.85 1894.3 1314.62C1906.13 1314.59 1917.91 1314.62 1929.5 1314.7C1930.57 1317.83 1931.67 1320.95 1932.84 1324.05C1934 1327.11 1935.59 1329.92 1937.55 1332.42C1943.04 1339.42 1951.34 1343.96 1960.48 1344.58L1981.46 1346.06C1991.83 1346.78 2001.92 1342.4 2008.47 1334.34C2008.69 1334.06 2008.87 1333.77 2009.08 1333.49C2011.06 1336.91 2013.34 1340.4 2015.93 1343.71C2022.21 1351.72 2030.34 1358.71 2040.52 1361.42C2057.22 1365.86 2076.87 1362.85 2091.81 1353.58C2103.29 1346.45 2110.91 1336.08 2113.29 1324.39C2114.65 1309.89 2112.82 1301.06 2106.92 1262.87C2103.23 1249.86 2102.3 1238.18 2089.1 1235.5C2114.77 1237.27 2061.45 1229.92 2089.1 1235.5C2082.11 1218.17 2075.32 1202.74 2071.6 1194.45L2087.39 1184.3L2106.92 1209.2C2109.67 1212.72 2114.76 1213.33 2118.27 1210.58L2139.59 1193.86L2159.36 1220.89C2161.69 1224.04 2166 1225.13 2169.53 1223.34L2195.99 1209.96L2213.99 1235.83C2216.23 1239.1 2220.59 1240.23 2224.17 1238.48L2251.89 1224.96L2272.91 1253.71C2274.23 1255.48 2276.09 1256.61 2278.22 1256.93C2280.35 1257.25 2282.52 1256.72 2284.25 1255.43L2317.32 1230.92C2331.64 1229.1 2406.49 1217.54 2422.14 1172.93ZM2071.26 1030.69C2071.66 1030.1 2072.05 1029.52 2072.46 1028.93C2077.58 1021.34 2082.86 1013.53 2087.9 1005.55C2103.17 1002.77 2117.84 1003.58 2131.55 1007.97C2144.95 1012.28 2157.87 1020.18 2170.02 1031.41C2168.5 1038.97 2168.11 1046.74 2168.85 1054.39C2153.51 1045.86 2137.48 1039.49 2120.96 1035.43C2104.26 1031.34 2087.61 1029.77 2071.26 1030.69ZM2188.59 1068.54C2184.05 1056.61 2183.4 1043.21 2186.76 1030.82C2190.22 1018.04 2197.57 1006.96 2208.02 998.764C2208.72 998.212 2209.43 997.682 2210.14 997.171C2219.01 990.807 2229.42 986.935 2240.23 985.974C2251.11 985.003 2262.09 986.965 2271.98 991.642C2280.56 995.733 2287.9 1001.62 2293.8 1009.14C2314.59 1035.65 2309.93 1074.13 2283.42 1094.92C2256.91 1115.71 2218.43 1111.05 2197.64 1084.54C2193.82 1079.67 2190.78 1074.29 2188.59 1068.54ZM2131.86 774.428C2133.17 773.403 2134.53 772.457 2135.92 771.577C2166.05 804.3 2189.36 837.384 2205.2 869.976C2216.64 893.575 2224.35 917.357 2228.31 941.037C2216.07 920.679 2202.76 901.615 2188.46 884.126C2166.15 856.786 2140.88 832.489 2113.35 811.782C2113.56 797.25 2120.31 783.487 2131.86 774.428ZM1849.9 1310.9C1846.03 1310.96 1842.51 1308.57 1841.14 1304.93C1838.54 1298.06 1836.5 1291.18 1835.09 1284.51C1834.7 1282.64 1834.35 1280.76 1834.04 1278.94C1833.21 1273.9 1833.71 1268.54 1834.24 1262.87C1834.93 1255.44 1835.72 1247.02 1833.55 1237.95C1830.86 1226.71 1814.54 1205.92 1796.4 1190.62C1786.46 1182.26 1771.65 1172.02 1757.47 1170.65C1740.46 1169.02 1719.07 1184.94 1696.43 1201.8C1687.41 1208.52 1678.07 1215.47 1669.46 1220.9C1659.32 1227.3 1651.54 1230.72 1645.7 1231.37C1621.35 1234.03 1601.5 1218.96 1597.61 1215.78C1559.58 1158.31 1511.72 1124.7 1455.27 1115.77C1464.59 1082.04 1478.76 1050.1 1497.47 1020.62C1522.68 1027.6 1545.05 1038.46 1564.05 1052.95C1580.78 1065.75 1595.33 1081.69 1607.46 1100.44C1588.07 1106.4 1569.47 1124.96 1566.96 1127.53C1563.85 1130.72 1563.9 1135.85 1567.1 1138.96C1570.29 1142.08 1575.41 1142.02 1578.53 1138.83C1588.24 1128.91 1608.07 1113.62 1619.97 1114.83C1626.75 1115.52 1630.65 1118.29 1636.55 1122.49C1644.98 1128.47 1655.46 1135.93 1677.48 1139.15C1685.63 1140.35 1694.92 1139.55 1705.88 1136.69C1720.17 1132.93 1734.74 1126.34 1748.82 1119.98C1757.67 1115.98 1766.03 1112.2 1773.36 1109.6C1781.23 1106.8 1786.93 1105.73 1790.3 1106.42C1799.5 1108.31 1807.73 1119.75 1817.24 1133C1818.89 1135.3 1820.57 1137.63 1822.29 1139.97C1829.92 1150.37 1839.37 1162.16 1851.69 1170.69C1869.34 1182.93 1889.78 1189.69 1904.21 1193.25C1894.7 1201.66 1883.29 1214.52 1877.62 1231.3C1871.19 1250.29 1876.23 1278.63 1881.58 1299.08C1882.02 1300.76 1881.98 1302.46 1881.46 1304.11C1880.48 1307.22 1877.44 1310.4 1872.89 1310.48L1849.9 1310.9ZM1768.63 1232.35C1767.98 1231.14 1767.53 1229.99 1767.26 1228.89C1764.57 1218.13 1781.51 1209.55 1789.57 1206.12C1800.93 1216.36 1810.11 1227.72 1814.72 1235.26C1799.96 1240.07 1775.42 1244.95 1768.63 1232.35ZM1748.82 1248C1731.91 1246.68 1686.92 1248.27 1669.46 1248C1671.67 1246.37 1703.91 1216.4 1706.1 1214.77C1724.39 1201.15 1745.13 1185.71 1755.92 1186.75C1761.24 1187.26 1767.87 1190.09 1775.2 1194.89C1764.13 1200.83 1750.96 1235.97 1748.82 1248ZM1844.06 1079.36C1839.69 1093 1834.2 1106.55 1827.67 1119.81C1817.61 1105.92 1807.68 1093.47 1793.55 1090.58C1790.06 1089.86 1786.17 1089.88 1781.65 1090.63C1788.86 1056.13 1789.02 1019.54 1782.07 981.643C1774.66 941.181 1758.87 897.792 1735.11 852.536C1778.59 843.157 1811.34 845.258 1822.53 846.447C1839.39 884.402 1850.23 921.468 1854.72 956.685C1857.54 978.721 1857.91 1000.59 1855.9 1021.64C1853.46 1023.61 1851.25 1025.82 1849.31 1028.27C1839.01 1041.26 1837.26 1058.44 1844.06 1079.36ZM1553.62 952.218C1575.9 930.878 1599.75 912.454 1624.59 897.287C1648.66 932.199 1666.84 968.718 1678.65 1005.94C1690.52 1043.33 1696.29 1082.47 1695.85 1122.39C1689.68 1123.57 1684.4 1123.82 1679.84 1123.15C1661.66 1120.49 1653.67 1114.8 1645.93 1109.31C1640.27 1105.28 1634.44 1101.15 1625.83 1099.39C1611.82 1075.71 1594.36 1055.77 1573.87 1040.1C1554.52 1025.34 1532.03 1014.07 1506.9 1006.5C1520.47 987.193 1536.15 968.969 1553.62 952.218ZM1604.52 1437.21C1626.78 1465.6 1653.01 1486.94 1678.94 1496.75C1700.76 1505.01 1720 1504.24 1734.57 1494.51C1748.57 1485.16 1758.63 1474.89 1764.49 1464.01C1764.55 1463.9 1764.61 1463.79 1764.67 1463.68C1774.19 1445.77 1772.15 1426.63 1758.94 1409.79C1740.26 1385.96 1714.49 1381.31 1693.3 1397.93C1683.92 1405.28 1678.31 1415.77 1677.5 1427.46C1676.61 1440.19 1681.48 1452.78 1691.26 1462.91C1701.19 1473.21 1715.54 1478.35 1729.75 1478.16C1728.42 1479.13 1727.03 1480.1 1725.59 1481.06C1713.12 1489.39 1696.9 1486.15 1685.26 1481.85C1672.8 1474.78 1657.25 1456.66 1652.61 1436.5C1649.09 1421.23 1652.04 1406.78 1661.38 1393.57C1673.49 1376.44 1693.58 1365.34 1716.48 1363.13C1740.01 1360.85 1762.91 1368.55 1779.32 1384.24C1799.34 1403.39 1809.44 1431.07 1805.72 1456.51C1801.67 1484.19 1782.1 1507.75 1749.11 1524.62C1668.67 1565.76 1559.09 1508.63 1488.54 1388.75C1479.25 1372.97 1471.18 1355.94 1464.55 1338.12C1455.02 1312.55 1448.45 1285.53 1445.04 1257.81C1439.75 1215.3 1441.86 1172.85 1451.3 1131.53C1502.59 1139.23 1546.44 1169.36 1581.78 1221.22C1573.45 1234.54 1552.11 1274.15 1556.05 1325.48C1557.59 1345.64 1562.93 1365.46 1571.93 1384.38C1581.1 1403.65 1592.2 1421.51 1604.52 1437.21ZM1751.07 1454.74C1738.93 1464.29 1715.87 1465.13 1702.9 1451.69C1696.35 1444.88 1693.07 1436.69 1693.63 1428.59C1694.12 1421.51 1697.55 1415.15 1703.28 1410.66C1717.16 1399.77 1733.21 1403.18 1746.21 1419.77C1755.16 1431.17 1756.79 1442.93 1751.07 1454.74ZM1792.04 1320.06C1785.4 1319.78 1779.84 1314.61 1779.08 1307.84C1779 1307.27 1778.98 1306.58 1779 1305.87C1779.18 1301.86 1781.08 1298.16 1784.22 1295.7C1786.76 1293.7 1789.96 1292.68 1793.21 1292.81L1820.72 1293.98C1822.14 1299.5 1823.91 1305.08 1826.01 1310.64C1827.7 1315.13 1830.6 1318.92 1834.23 1321.74C1833.68 1321.78 1833.13 1321.8 1832.57 1321.78L1792.04 1320.06ZM2081.19 1262.87C2072.83 1262.55 2058.92 1262.76 2050.7 1262.87C2047.63 1253.81 2036.25 1207.95 2023.65 1194.21C2014.54 1184.28 2005.51 1180.05 1998.25 1176.67C1995.11 1175.2 1992.48 1173.95 1990.18 1172.5C2003.66 1167.13 2020.81 1162.18 2029.31 1164.68C2040.89 1168.08 2051.16 1187.8 2053.84 1194.43C2053.89 1194.56 2053.98 1194.67 2054.04 1194.8L2054 1194.81C2054.1 1195.02 2072.09 1240.78 2081.19 1262.87ZM2083.28 1339.84C2072.17 1346.74 2057.02 1349.07 2044.67 1345.79C2031.45 1342.27 2018.07 1318.62 2013.5 1307.84C2039.03 1305.26 2070.13 1305.83 2097.44 1307.84C2097.98 1312.24 2097.61 1320.33 2097.44 1321.17C2095.54 1330.51 2088.69 1336.48 2083.28 1339.84ZM2313.4 1215.09C2311.96 1215.24 2310.58 1215.78 2309.42 1216.64L2281.16 1237.59L2260.96 1209.95C2258.65 1206.89 2254.4 1205.74 2250.88 1207.45L2223.31 1220.9L2205.26 1194.96C2202.98 1191.68 2198.57 1190.54 2194.97 1192.36L2168.36 1205.81L2147.72 1177.56C2146.36 1175.75 2144.46 1174.62 2142.29 1174.32C2140.12 1174.02 2137.92 1174.62 2136.2 1175.97L2114.65 1192.86L2095.58 1168.54C2093.01 1165.25 2088.36 1164.47 2084.85 1166.72L2064.72 1179.65C2059.26 1169.38 2048.71 1153.52 2033.88 1149.17C2018.25 1144.57 1993.22 1153.6 1980.46 1159.01C1978.83 1153.32 1978.52 1146.72 1978.22 1139.83C1977.83 1130.95 1977.43 1121.77 1974.15 1113.19C1966.88 1094.14 1949.03 1083.58 1948.27 1083.14C1944.42 1080.9 1939.49 1082.21 1937.24 1086.05C1934.98 1089.9 1936.27 1094.85 1940.11 1097.11C1940.25 1097.19 1953.85 1105.35 1959.04 1118.95C1961.38 1125.09 1961.71 1132.59 1962.06 1140.53C1962.55 1151.88 1963.07 1163.62 1969.43 1173.98C1970.24 1175.3 1971.08 1176.51 1971.96 1177.63C1977.67 1184.91 1984.64 1188.17 1991.41 1191.33C1997.99 1194.4 2004.79 1197.57 2011.74 1205.15C2020.43 1214.63 2026.1 1226.54 2029.29 1234.73C2027.45 1234.82 2025.62 1234.91 2023.8 1235.01C2006.73 1236.01 1992.96 1249.98 1992.47 1266.81C1992.09 1279.24 1994.34 1294.53 1998.82 1309.89C1998.83 1309.9 1998.83 1309.91 1998.84 1309.92C1998.84 1309.94 1998.84 1309.95 1998.85 1309.98C2000.26 1314.96 1999.19 1320.12 1995.92 1324.15C1992.64 1328.19 1987.78 1330.3 1982.6 1329.93L1961.61 1328.45C1955.48 1328.03 1950.13 1324.07 1947.98 1318.34C1946.2 1313.65 1944.54 1308.89 1943.03 1304.19C1938.13 1288.95 1934.77 1274.14 1933.04 1260.2C1931.87 1250.8 1933.02 1241.54 1934.23 1231.74C1936.08 1216.8 1938 1201.34 1931.15 1185.57C1928.16 1178.69 1920.46 1168.75 1909.81 1155C1892.8 1133.04 1869.5 1102.97 1860.19 1076.64C1854.26 1059.87 1854.84 1047.33 1861.99 1038.32C1863.73 1036.11 1865.73 1034.28 1868.13 1032.68C1881.39 1023.76 1905.32 1023.75 1937.33 1032.66C1971.22 1042.07 2002.28 1058.24 2002.59 1058.4C2006.55 1060.48 2011.43 1058.95 2013.51 1054.99C2015.58 1051.04 2014.06 1046.15 2010.1 1044.08C2008.86 1043.43 1981.3 1029.07 1948.68 1019.12C1953.78 986.467 1952.08 952.316 1943.58 917.488C1935.94 886.197 1922.59 853.455 1903.89 820.2C1901.47 815.852 1898.9 811.418 1896.21 806.926C1913.99 810.183 1930.93 819.742 1948.5 836.284C1950.47 838.133 1953.23 838.88 1955.86 838.276C1958.49 837.671 1960.65 835.792 1961.61 833.268C1965.33 823.471 1966.71 813.422 1965.76 803.229C1973.97 808.993 1983.91 817.17 1991.89 827.337C1998.24 835.435 2002.86 843.864 2007.75 852.789C2016.33 868.443 2025.21 884.629 2044.12 900.881C2065.11 918.914 2086.85 920.976 2099.36 920.254C2098.7 934.294 2097.46 945.127 2095.64 952.423C2095.01 954.942 2095.64 957.48 2097.12 959.377C2098.19 960.742 2099.71 961.776 2101.52 962.228C2105.86 963.309 2110.25 960.675 2111.33 956.34C2113.83 946.322 2115.36 931.118 2115.88 911.18C2115.92 909.804 2115.96 908.39 2115.99 906.955C2130.71 917.425 2144.38 929.008 2156.74 941.55C2170.82 955.836 2183.55 971.722 2194.69 988.828C2186.45 996.056 2179.93 1004.81 2175.44 1014.66C2163.14 1004.39 2150.09 996.938 2136.48 992.565C2119.05 986.985 2100.45 986.255 2081.19 990.394C2079.04 990.856 2077.17 992.174 2076.02 994.042C2070.6 1002.79 2064.73 1011.47 2059.05 1019.87C2055.19 1025.58 2051.55 1030.97 2048.14 1036.23C2036.47 1054.26 2031.4 1065.3 2030.63 1074.35C2028.92 1094.83 2042.39 1115.43 2050.7 1126.03C2054.05 1130.3 2056.56 1132.95 2056.9 1133.3C2059.99 1136.52 2065.1 1136.62 2068.32 1133.53C2071.54 1130.45 2071.64 1125.33 2068.57 1122.1C2062 1115.23 2045.26 1093.48 2046.75 1075.7C2047.34 1068.72 2053.97 1057.21 2059.74 1048.1C2078.43 1045.4 2097.7 1046.38 2117.11 1051.13C2137.14 1056.06 2156.45 1064.72 2174.55 1076.84C2177.21 1083.15 2180.66 1089.1 2184.91 1094.52C2211.2 1128.05 2259.87 1133.94 2293.4 1107.64C2326.93 1081.35 2332.81 1032.68 2306.52 999.156C2300.46 991.431 2293.18 985.093 2284.84 980.202C2286.44 973.137 2288.71 960.833 2289.29 946.061C2301.01 952.407 2319.3 963.884 2331.14 978.977C2341.1 991.676 2344.04 1005.11 2347.45 1020.68C2350.35 1033.91 2353.34 1047.6 2361 1062.12C2365.62 1070.88 2372.3 1079.84 2379.37 1089.32C2396.39 1112.15 2413.92 1135.7 2408.59 1161.38L2186.39 1134.5C2169.84 1132.5 2155.07 1124.18 2144.78 1111.06L2126.08 1087.22C2123.33 1083.7 2118.24 1083.09 2114.73 1085.84C2111.21 1088.6 2110.6 1093.68 2113.35 1097.2L2132.06 1121.05C2145.01 1137.56 2163.61 1148.04 2184.44 1150.56L2401.93 1176.87C2383.65 1202.24 2333.3 1213 2313.4 1215.09Z" fill="black"/>
<path d="M2335.57 1113.38L2346.28 1127.03C2349.03 1130.54 2354.12 1131.16 2357.63 1128.4C2361.14 1125.65 2361.76 1120.56 2359 1117.05L2348.3 1103.4C2345.54 1099.88 2340.46 1099.27 2336.94 1102.03C2333.43 1104.78 2332.82 1109.87 2335.57 1113.38Z" fill="black"/>
<mask id="mask0_2038_1414" style="mask-type:alpha" maskUnits="userSpaceOnUse" x="2208" y="741" width="310" height="272">
<path d="M2487.95 870.646C2585.35 1074.67 2418.2 994.863 2368.17 1008.85C2249.71 982.527 2306.79 990.424 2278.02 887.532C2258.21 816.68 2174.67 758.273 2224.7 744.284C2274.73 730.295 2462.21 778.599 2487.95 870.646Z" fill="#D9D9D9"/>
</mask>
<g mask="url(#mask0_2038_1414)">
<path d="M2383.97 893.024C2383.97 902.238 2385.28 907.503 2382.65 925.93C2364.22 940.121 2330.63 942.01 2317.29 924.686C2303.96 907.361 2308.09 881.813 2326.52 867.623C2344.95 853.432 2370.63 875.699 2383.97 893.024Z" fill="black"/>
<path d="M2293.29 788.149C2262.46 778.928 2229.24 782.007 2200.63 796.74C2172 811.48 2150.19 836.739 2139.79 867.214L2138.95 869.654L2136.68 870.879L2113.83 883.219L2113.83 883.22C2112.92 883.714 2112.17 884.465 2111.68 885.381C2111.19 886.297 2110.98 887.337 2111.08 888.371L2111.08 888.372C2111.18 889.406 2111.58 890.389 2112.23 891.198C2112.88 892.007 2113.76 892.606 2114.75 892.921L2183.79 914.855L2206.44 922.05L2183.31 927.531L2148.06 935.889L2148.06 935.89C2147.38 936.053 2146.74 936.347 2146.17 936.757C2145.61 937.168 2145.13 937.686 2144.76 938.281C2144.4 938.876 2144.15 939.538 2144.04 940.227C2143.93 940.917 2143.96 941.621 2144.13 942.3C2144.29 942.979 2144.58 943.619 2144.99 944.184C2145.4 944.749 2145.92 945.228 2146.52 945.593C2147.11 945.958 2147.77 946.202 2148.46 946.312C2149.15 946.421 2149.86 946.393 2150.54 946.23L2150.54 946.228L2150.55 946.226L2217.9 930.29L2217.91 930.287L2217.92 930.285L2218.19 930.215C2218.8 930.037 2219.37 929.746 2219.88 929.355L2222.61 927.245L2225.9 928.289L2277.14 944.56L2277.14 944.56C2315.86 956.794 2399 994.006 2404.84 996.628L2405.61 996.891C2406.71 997.264 2407.9 997.268 2409 996.9C2410.1 996.531 2411.05 995.812 2411.7 994.852C2412.35 993.893 2412.66 992.746 2412.6 991.588C2412.54 990.431 2412.09 989.326 2411.34 988.444L2374.8 945.687L2372.55 943.062L2373.44 939.724C2374.91 934.173 2376.02 928.533 2376.75 922.841L2334.02 908.277C2329.38 906.698 2325.57 903.344 2323.41 898.952C2321.25 894.559 2320.92 889.489 2322.5 884.856C2324.08 880.223 2327.44 876.407 2331.83 874.247C2336.22 872.088 2341.29 871.762 2345.92 873.341L2375.72 883.493C2373.6 871.792 2369.84 860.43 2364.53 849.75L2364.52 849.718C2357.39 835.181 2347.4 822.231 2335.15 811.648C2322.92 801.081 2308.68 793.089 2293.29 788.149Z" fill="#FFCD00" stroke="black" stroke-width="13.1625"/>
</g>
<line x1="2342.27" y1="888.115" x2="2369.53" y2="897.879" stroke="#FBFF00" stroke-width="5.265"/>
<line x1="2338.72" y1="898.028" x2="2365.99" y2="907.793" stroke="#ED1818" stroke-width="5.265"/>
<path d="M2110 1352L2187.48 1390.68L2182.24 1304.24L2110 1352ZM2621 1321L2620.55 1313.51L2176.92 1340.43L2177.38 1347.91L2177.83 1355.4L2621.45 1328.49L2621 1321Z" fill="#ED1818"/>
<path d="M1470 1367L1402.44 1312.82L1389.3 1398.42L1470 1367ZM786 1262L784.862 1269.41L1402.14 1364.17L1403.28 1356.76L1404.42 1349.34L787.138 1254.59L786 1262Z" fill="#ED1818"/>
<path d="M1570 910L1544.7 827.176L1485.62 890.501L1570 910ZM944 326L938.884 331.484L1515.53 869.439L1520.64 863.955L1525.76 858.471L949.116 320.516L944 326Z" fill="#ED1818"/>
<path d="M2347 795L2421.17 750.294L2345.37 708.413L2347 795ZM2568 395L2561.44 391.373L2373.08 732.291L2379.64 735.918L2386.21 739.545L2574.56 398.627L2568 395Z" fill="#ED1818"/>
<path d="M236.072 481H226.888L221.476 466.814H193.596L188.184 481H179.164L203.026 420.32H212.21L236.072 481ZM218.442 458.942L207.618 430.488L196.63 458.942H218.442ZM281.028 481H273.156V476.408C269.876 480.262 265.366 482.066 260.118 482.066C248.556 482.066 239.536 473.128 239.536 461.73C239.536 450.168 248.72 441.312 260.118 441.312C265.366 441.312 269.794 443.198 273.156 447.052V420.32H281.028V481ZM272.992 461.73C272.992 454.678 267.498 448.774 260.118 448.774C252.82 448.774 247.326 454.514 247.326 461.73C247.326 469.028 252.82 474.686 260.118 474.686C267.58 474.686 272.992 468.782 272.992 461.73ZM332.358 481H324.486V476.408C321.206 480.262 316.696 482.066 311.448 482.066C299.886 482.066 290.866 473.128 290.866 461.73C290.866 450.168 300.05 441.312 311.448 441.312C316.696 441.312 321.124 443.198 324.486 447.052V442.05H332.358V481ZM324.322 461.73C324.322 454.678 318.828 448.774 311.448 448.774C304.15 448.774 298.656 454.514 298.656 461.73C298.656 469.028 304.15 474.686 311.448 474.686C318.91 474.686 324.322 468.782 324.322 461.73ZM353.348 501.746H345.476V442.05H353.348V447.052C356.628 443.198 361.138 441.312 366.386 441.312C377.784 441.312 386.968 450.168 386.968 461.73C386.968 473.128 377.948 482.066 366.386 482.066C361.138 482.066 356.628 480.262 353.348 476.408V501.746ZM353.594 461.73C353.594 468.782 358.76 474.686 366.304 474.686C373.684 474.686 379.178 469.028 379.178 461.73C379.178 454.514 373.684 448.774 366.386 448.774C359.088 448.774 353.594 454.514 353.594 461.73ZM415.256 474.112V481.164C414.436 481.492 411.976 482.066 409.106 482.066C399.512 482.066 397.79 475.752 397.79 469.028V449.512H391.64V442.05H397.79V428.848H405.744V442.05H416.322V449.512H405.744V468.126C405.744 472.554 406.728 474.686 410.91 474.686C412.304 474.686 414.436 474.44 415.256 474.112ZM422.02 476.982L426.284 470.914C430.22 474.112 434.402 474.932 437.19 474.932C441.372 474.932 443.668 473.128 443.668 470.504C443.668 462.796 423.414 467.552 423.414 453.53C423.414 446.396 428.662 441.312 436.78 441.312C440.06 441.312 445.554 442.132 449.982 445.74L445.8 451.562C442.356 449.02 438.912 448.528 436.862 448.528C432.926 448.528 431.204 450.496 431.204 452.628C431.204 460.008 451.376 455.99 451.376 470.012C451.376 477.474 445.718 482.066 436.944 482.066C431.122 482.066 426.038 480.016 422.02 476.982ZM519.859 464.354H487.961C489.027 470.34 493.947 474.932 500.589 474.932C504.853 474.932 509.035 473.046 511.495 469.602L517.071 473.866C513.463 478.95 507.313 482.066 500.589 482.066C489.273 482.066 480.171 473.21 480.171 461.73C480.171 450.824 488.453 441.312 500.097 441.312C511.659 441.312 520.023 450.742 520.023 461.648C520.023 462.714 519.941 463.534 519.859 464.354ZM488.207 458.122H511.987C511.085 452.71 506.329 448.528 500.179 448.528C494.111 448.528 489.601 452.628 488.207 458.122ZM567.868 481H559.996V476.408C556.716 480.262 552.206 482.066 546.958 482.066C535.396 482.066 526.376 473.128 526.376 461.73C526.376 450.168 535.56 441.312 546.958 441.312C552.206 441.312 556.634 443.198 559.996 447.052V442.05H567.868V481ZM559.832 461.73C559.832 454.678 554.338 448.774 546.958 448.774C539.66 448.774 534.166 454.514 534.166 461.73C534.166 469.028 539.66 474.686 546.958 474.686C554.42 474.686 559.832 468.782 559.832 461.73ZM577.132 476.982L581.396 470.914C585.332 474.112 589.514 474.932 592.302 474.932C596.484 474.932 598.78 473.128 598.78 470.504C598.78 462.796 578.526 467.552 578.526 453.53C578.526 446.396 583.774 441.312 591.892 441.312C595.172 441.312 600.666 442.132 605.094 445.74L600.912 451.562C597.468 449.02 594.024 448.528 591.974 448.528C588.038 448.528 586.316 450.496 586.316 452.628C586.316 460.008 606.488 455.99 606.488 470.012C606.488 477.474 600.83 482.066 592.056 482.066C586.234 482.066 581.15 480.016 577.132 476.982ZM624.414 481H616.46V442.05H624.414V481ZM620.478 434.342C617.608 434.342 615.394 432.128 615.394 429.258C615.394 426.388 617.608 424.174 620.478 424.174C623.348 424.174 625.48 426.388 625.48 429.258C625.48 432.128 623.348 434.342 620.478 434.342ZM652.199 474.604V481.492C650.887 481.82 649.493 482.066 647.853 482.066C641.457 482.066 637.521 478.212 637.521 471.078V420.32H645.393V468.618C645.393 472.8 646.377 474.686 650.231 474.686C650.723 474.686 651.461 474.686 652.199 474.604ZM670.447 501.746H662.657L669.791 481.738L653.883 442.05H662.493L673.645 471.324L684.141 442.05H692.013L670.447 501.746ZM739.172 474.112V481.164C738.352 481.492 735.892 482.066 733.022 482.066C723.428 482.066 721.706 475.752 721.706 469.028V449.512H715.556V442.05H721.706V428.848H729.66V442.05H740.238V449.512H729.66V468.126C729.66 472.554 730.644 474.686 734.826 474.686C736.22 474.686 738.352 474.44 739.172 474.112ZM787.11 461.73C787.11 472.882 777.844 482.066 766.528 482.066C755.294 482.066 746.11 472.964 746.11 461.73C746.11 450.578 755.13 441.312 766.528 441.312C777.844 441.312 787.11 450.496 787.11 461.73ZM779.32 461.648C779.32 454.596 773.662 448.774 766.61 448.774C759.312 448.774 753.9 454.924 753.9 461.812C753.9 468.782 759.476 474.686 766.61 474.686C773.826 474.686 779.32 468.618 779.32 461.648ZM203.938 568H195.492L179.42 529.05H187.948L199.592 558.16L211.4 529.05H219.928L203.938 568ZM265.092 568H257.22V563.408C253.94 567.262 249.43 569.066 244.182 569.066C232.62 569.066 223.6 560.128 223.6 548.73C223.6 537.168 232.784 528.312 244.182 528.312C249.43 528.312 253.858 530.198 257.22 534.052V529.05H265.092V568ZM257.056 548.73C257.056 541.678 251.562 535.774 244.182 535.774C236.884 535.774 231.39 541.514 231.39 548.73C231.39 556.028 236.884 561.686 244.182 561.686C251.644 561.686 257.056 555.782 257.056 548.73ZM286.082 568H278.21V529.05H286.082V533.724C289.854 529.214 293.708 528.312 301.252 528.312V535.856C288.378 535.856 286.082 541.104 286.082 547.828V568ZM317.155 568H309.201V529.05H317.155V568ZM313.219 521.342C310.349 521.342 308.135 519.128 308.135 516.258C308.135 513.388 310.349 511.174 313.219 511.174C316.089 511.174 318.221 513.388 318.221 516.258C318.221 519.128 316.089 521.342 313.219 521.342ZM367.981 548.73C367.981 559.882 358.715 569.066 347.399 569.066C336.165 569.066 326.981 559.964 326.981 548.73C326.981 537.578 336.001 528.312 347.399 528.312C358.715 528.312 367.981 537.496 367.981 548.73ZM360.191 548.648C360.191 541.596 354.533 535.774 347.481 535.774C340.183 535.774 334.771 541.924 334.771 548.812C334.771 555.782 340.347 561.686 347.481 561.686C354.697 561.686 360.191 555.618 360.191 548.648ZM404.642 549.96V529.05H412.514V552.174C412.514 564.392 405.708 569.066 394.802 569.066C383.896 569.066 377.09 564.392 377.09 552.174V529.05H385.044V549.96C385.044 557.258 386.766 561.686 394.802 561.686C402.92 561.686 404.642 557.258 404.642 549.96ZM421.14 563.982L425.404 557.914C429.34 561.112 433.522 561.932 436.31 561.932C440.492 561.932 442.788 560.128 442.788 557.504C442.788 549.796 422.534 554.552 422.534 540.53C422.534 533.396 427.782 528.312 435.9 528.312C439.18 528.312 444.674 529.132 449.102 532.74L444.92 538.562C441.476 536.02 438.032 535.528 435.982 535.528C432.046 535.528 430.324 537.496 430.324 539.628C430.324 547.008 450.496 542.99 450.496 557.012C450.496 564.474 444.838 569.066 436.064 569.066C430.242 569.066 425.158 567.016 421.14 563.982ZM478.716 563.982L482.98 557.914C486.916 561.112 491.098 561.932 493.886 561.932C498.068 561.932 500.364 560.128 500.364 557.504C500.364 549.796 480.11 554.552 480.11 540.53C480.11 533.396 485.358 528.312 493.476 528.312C496.756 528.312 502.25 529.132 506.678 532.74L502.496 538.562C499.052 536.02 495.608 535.528 493.558 535.528C489.622 535.528 487.9 537.496 487.9 539.628C487.9 547.008 508.072 542.99 508.072 557.012C508.072 564.474 502.414 569.066 493.64 569.066C487.818 569.066 482.734 567.016 478.716 563.982ZM525.998 568H518.044V529.05H525.998V568ZM522.062 521.342C519.192 521.342 516.978 519.128 516.978 516.258C516.978 513.388 519.192 511.174 522.062 511.174C524.932 511.174 527.064 513.388 527.064 516.258C527.064 519.128 524.932 521.342 522.062 521.342ZM557.555 561.112V568.164C556.735 568.492 554.275 569.066 551.405 569.066C541.811 569.066 540.089 562.752 540.089 556.028V536.512H533.939V529.05H540.089V515.848H548.043V529.05H558.621V536.512H548.043V555.126C548.043 559.554 549.027 561.686 553.209 561.686C554.603 561.686 556.735 561.44 557.555 561.112ZM594.587 549.96V529.05H602.459V552.174C602.459 564.392 595.653 569.066 584.747 569.066C573.841 569.066 567.035 564.392 567.035 552.174V529.05H574.989V549.96C574.989 557.258 576.711 561.686 584.747 561.686C592.865 561.686 594.587 557.258 594.587 549.96ZM653.151 568H645.279V563.408C641.999 567.262 637.489 569.066 632.241 569.066C620.679 569.066 611.659 560.128 611.659 548.73C611.659 537.168 620.843 528.312 632.241 528.312C637.489 528.312 641.917 530.198 645.279 534.052V529.05H653.151V568ZM645.115 548.73C645.115 541.678 639.621 535.774 632.241 535.774C624.943 535.774 619.449 541.514 619.449 548.73C619.449 556.028 624.943 561.686 632.241 561.686C639.703 561.686 645.115 555.782 645.115 548.73ZM684.719 561.112V568.164C683.899 568.492 681.439 569.066 678.569 569.066C668.975 569.066 667.253 562.752 667.253 556.028V536.512H661.103V529.05H667.253V515.848H675.207V529.05H685.785V536.512H675.207V555.126C675.207 559.554 676.191 561.686 680.373 561.686C681.767 561.686 683.899 561.44 684.719 561.112ZM702.891 568H694.937V529.05H702.891V568ZM698.955 521.342C696.085 521.342 693.871 519.128 693.871 516.258C693.871 513.388 696.085 511.174 698.955 511.174C701.825 511.174 703.957 513.388 703.957 516.258C703.957 519.128 701.825 521.342 698.955 521.342ZM753.718 548.73C753.718 559.882 744.452 569.066 733.136 569.066C721.902 569.066 712.718 559.964 712.718 548.73C712.718 537.578 721.738 528.312 733.136 528.312C744.452 528.312 753.718 537.496 753.718 548.73ZM745.928 548.648C745.928 541.596 740.27 535.774 733.218 535.774C725.92 535.774 720.508 541.924 720.508 548.812C720.508 555.782 726.084 561.686 733.218 561.686C740.434 561.686 745.928 555.618 745.928 548.648ZM798.824 568H790.87V547.582C790.87 539.792 787.836 535.774 781.358 535.774C774.634 535.774 771.436 540.12 771.436 548.156V568H763.564V529.05H771.436V533.232C774.06 530.28 777.258 528.312 782.752 528.312C792.018 528.312 798.824 533.724 798.824 545.942V568ZM807.276 563.982L811.54 557.914C815.476 561.112 819.658 561.932 822.446 561.932C826.628 561.932 828.924 560.128 828.924 557.504C828.924 549.796 808.67 554.552 808.67 540.53C808.67 533.396 813.918 528.312 822.036 528.312C825.316 528.312 830.81 529.132 835.238 532.74L831.056 538.562C827.612 536.02 824.168 535.528 822.118 535.528C818.182 535.528 816.46 537.496 816.46 539.628C816.46 547.008 836.632 542.99 836.632 557.012C836.632 564.474 830.974 569.066 822.2 569.066C816.378 569.066 811.294 567.016 807.276 563.982ZM853.329 568.492C850.459 568.492 848.245 566.278 848.245 563.408C848.245 560.538 850.459 558.406 853.329 558.406C856.199 558.406 858.331 560.538 858.331 563.408C858.331 566.278 856.199 568.492 853.329 568.492Z" fill="black"/>
<path d="M181.87 1435H144.97V1374.32H153.334V1427.13H181.87V1435ZM226.693 1418.35H194.795C195.861 1424.34 200.781 1428.93 207.423 1428.93C211.687 1428.93 215.869 1427.05 218.329 1423.6L223.905 1427.87C220.297 1432.95 214.147 1436.07 207.423 1436.07C196.107 1436.07 187.005 1427.21 187.005 1415.73C187.005 1404.82 195.287 1395.31 206.931 1395.31C218.493 1395.31 226.857 1404.74 226.857 1415.65C226.857 1416.71 226.775 1417.53 226.693 1418.35ZM195.041 1412.12H218.821C217.919 1406.71 213.163 1402.53 207.013 1402.53C200.945 1402.53 196.435 1406.63 195.041 1412.12ZM274.702 1435H266.83V1430.41C263.55 1434.26 259.04 1436.07 253.792 1436.07C242.23 1436.07 233.21 1427.13 233.21 1415.73C233.21 1404.17 242.394 1395.31 253.792 1395.31C259.04 1395.31 263.468 1397.2 266.83 1401.05V1396.05H274.702V1435ZM266.666 1415.73C266.666 1408.68 261.172 1402.77 253.792 1402.77C246.494 1402.77 241 1408.51 241 1415.73C241 1423.03 246.494 1428.69 253.792 1428.69C261.254 1428.69 266.666 1422.78 266.666 1415.73ZM295.692 1435H287.82V1396.05H295.692V1400.72C299.464 1396.21 303.318 1395.31 310.862 1395.31V1402.86C297.988 1402.86 295.692 1408.1 295.692 1414.83V1435ZM354.07 1435H346.116V1414.58C346.116 1406.79 343.082 1402.77 336.604 1402.77C329.88 1402.77 326.682 1407.12 326.682 1415.16V1435H318.81V1396.05H326.682V1400.23C329.306 1397.28 332.504 1395.31 337.998 1395.31C347.264 1395.31 354.07 1400.72 354.07 1412.94V1435ZM362.522 1430.98L366.786 1424.91C370.722 1428.11 374.904 1428.93 377.692 1428.93C381.874 1428.93 384.17 1427.13 384.17 1424.5C384.17 1416.8 363.916 1421.55 363.916 1407.53C363.916 1400.4 369.164 1395.31 377.282 1395.31C380.562 1395.31 386.056 1396.13 390.484 1399.74L386.302 1405.56C382.858 1403.02 379.414 1402.53 377.364 1402.53C373.428 1402.53 371.706 1404.5 371.706 1406.63C371.706 1414.01 391.878 1409.99 391.878 1424.01C391.878 1431.47 386.22 1436.07 377.446 1436.07C371.624 1436.07 366.54 1434.02 362.522 1430.98ZM462.165 1455.75H454.293V1430.41C451.013 1434.26 446.503 1436.07 441.255 1436.07C429.693 1436.07 420.673 1427.13 420.673 1415.73C420.673 1404.17 429.857 1395.31 441.255 1395.31C446.503 1395.31 450.931 1397.2 454.293 1401.05V1396.05H462.165V1455.75ZM454.129 1415.73C454.129 1408.68 448.635 1402.77 441.255 1402.77C433.957 1402.77 428.463 1408.51 428.463 1415.73C428.463 1423.03 433.957 1428.69 441.255 1428.69C448.717 1428.69 454.129 1422.78 454.129 1415.73ZM502.097 1416.96V1396.05H509.969V1419.17C509.969 1431.39 503.163 1436.07 492.257 1436.07C481.351 1436.07 474.545 1431.39 474.545 1419.17V1396.05H482.499V1416.96C482.499 1424.26 484.221 1428.69 492.257 1428.69C500.375 1428.69 502.097 1424.26 502.097 1416.96ZM530.403 1435H522.449V1396.05H530.403V1435ZM526.467 1388.34C523.597 1388.34 521.383 1386.13 521.383 1383.26C521.383 1380.39 523.597 1378.17 526.467 1378.17C529.337 1378.17 531.469 1380.39 531.469 1383.26C531.469 1386.13 529.337 1388.34 526.467 1388.34ZM571.635 1422.54L578.195 1426.39C574.587 1432.21 568.027 1436.07 560.647 1436.07C549.413 1436.07 540.229 1426.96 540.229 1415.73C540.229 1404.58 549.249 1395.31 560.647 1395.31C567.945 1395.31 574.423 1399.17 578.031 1404.91L571.389 1408.68C569.175 1405.15 565.157 1402.77 560.647 1402.77C553.513 1402.77 548.019 1408.84 548.019 1415.81C548.019 1422.78 553.595 1428.69 560.811 1428.69C565.485 1428.69 569.421 1426.23 571.635 1422.54ZM621.599 1435H611.267L594.703 1416.39V1435H586.831V1374.32H594.703V1412.12L609.709 1396.05H620.123L602.985 1413.93L621.599 1435ZM643.47 1428.6V1435.49C642.158 1435.82 640.764 1436.07 639.124 1436.07C632.728 1436.07 628.792 1432.21 628.792 1425.08V1374.32H636.664V1422.62C636.664 1426.8 637.648 1428.69 641.502 1428.69C641.994 1428.69 642.732 1428.69 643.47 1428.6ZM661.718 1455.75H653.928L661.062 1435.74L645.154 1396.05H653.764L664.916 1425.32L675.412 1396.05H683.284L661.718 1455.75ZM751.006 1435H743.134V1430.41C739.854 1434.26 735.344 1436.07 730.096 1436.07C718.534 1436.07 709.514 1427.13 709.514 1415.73C709.514 1404.17 718.698 1395.31 730.096 1395.31C735.344 1395.31 739.772 1397.2 743.134 1401.05V1396.05H751.006V1435ZM742.97 1415.73C742.97 1408.68 737.476 1402.77 730.096 1402.77C722.798 1402.77 717.304 1408.51 717.304 1415.73C717.304 1423.03 722.798 1428.69 730.096 1428.69C737.558 1428.69 742.97 1422.78 742.97 1415.73ZM799.384 1435H791.43V1414.58C791.43 1406.79 788.396 1402.77 781.918 1402.77C775.194 1402.77 771.996 1407.12 771.996 1415.16V1435H764.124V1396.05H771.996V1400.23C774.62 1397.28 777.818 1395.31 783.312 1395.31C792.578 1395.31 799.384 1400.72 799.384 1412.94V1435ZM849.903 1435H842.031V1430.41C838.751 1434.26 834.241 1436.07 828.993 1436.07C817.431 1436.07 808.411 1427.13 808.411 1415.73C808.411 1404.17 817.595 1395.31 828.993 1395.31C834.241 1395.31 838.669 1397.2 842.031 1401.05V1374.32H849.903V1435ZM841.867 1415.73C841.867 1408.68 836.373 1402.77 828.993 1402.77C821.695 1402.77 816.201 1408.51 816.201 1415.73C816.201 1423.03 821.695 1428.69 828.993 1428.69C836.455 1428.69 841.867 1422.78 841.867 1415.73ZM182.772 1522H174.9V1517.41C171.62 1521.26 167.11 1523.07 161.862 1523.07C150.3 1523.07 141.28 1514.13 141.28 1502.73C141.28 1491.17 150.464 1482.31 161.862 1482.31C167.11 1482.31 171.538 1484.2 174.9 1488.05V1483.05H182.772V1522ZM174.736 1502.73C174.736 1495.68 169.242 1489.77 161.862 1489.77C154.564 1489.77 149.07 1495.51 149.07 1502.73C149.07 1510.03 154.564 1515.69 161.862 1515.69C169.324 1515.69 174.736 1509.78 174.736 1502.73ZM234.102 1522H226.23V1517.41C222.95 1521.26 218.44 1523.07 213.192 1523.07C201.63 1523.07 192.61 1514.13 192.61 1502.73C192.61 1491.17 201.794 1482.31 213.192 1482.31C218.44 1482.31 222.868 1484.2 226.23 1488.05V1461.32H234.102V1522ZM226.066 1502.73C226.066 1495.68 220.572 1489.77 213.192 1489.77C205.894 1489.77 200.4 1495.51 200.4 1502.73C200.4 1510.03 205.894 1515.69 213.192 1515.69C220.654 1515.69 226.066 1509.78 226.066 1502.73ZM255.174 1542.75H247.22V1483.05H255.174V1542.75ZM251.238 1475.34C248.368 1475.34 246.154 1473.13 246.154 1470.26C246.154 1467.39 248.368 1465.17 251.238 1465.17C254.108 1465.17 256.24 1467.39 256.24 1470.26C256.24 1473.13 254.108 1475.34 251.238 1475.34ZM295.095 1503.96V1483.05H302.967V1506.17C302.967 1518.39 296.161 1523.07 285.255 1523.07C274.349 1523.07 267.543 1518.39 267.543 1506.17V1483.05H275.497V1503.96C275.497 1511.26 277.219 1515.69 285.255 1515.69C293.373 1515.69 295.095 1511.26 295.095 1503.96ZM311.593 1517.98L315.857 1511.91C319.793 1515.11 323.975 1515.93 326.763 1515.93C330.945 1515.93 333.241 1514.13 333.241 1511.5C333.241 1503.8 312.987 1508.55 312.987 1494.53C312.987 1487.4 318.235 1482.31 326.353 1482.31C329.633 1482.31 335.127 1483.13 339.555 1486.74L335.373 1492.56C331.929 1490.02 328.485 1489.53 326.435 1489.53C322.499 1489.53 320.777 1491.5 320.777 1493.63C320.777 1501.01 340.949 1496.99 340.949 1511.01C340.949 1518.47 335.291 1523.07 326.517 1523.07C320.695 1523.07 315.611 1521.02 311.593 1517.98ZM368.971 1515.11V1522.16C368.151 1522.49 365.691 1523.07 362.821 1523.07C353.227 1523.07 351.505 1516.75 351.505 1510.03V1490.51H345.355V1483.05H351.505V1469.85H359.459V1483.05H370.037V1490.51H359.459V1509.13C359.459 1513.55 360.443 1515.69 364.625 1515.69C366.019 1515.69 368.151 1515.44 368.971 1515.11ZM375.735 1517.98L379.999 1511.91C383.935 1515.11 388.117 1515.93 390.905 1515.93C395.087 1515.93 397.383 1514.13 397.383 1511.5C397.383 1503.8 377.129 1508.55 377.129 1494.53C377.129 1487.4 382.377 1482.31 390.495 1482.31C393.775 1482.31 399.269 1483.13 403.697 1486.74L399.515 1492.56C396.071 1490.02 392.627 1489.53 390.577 1489.53C386.641 1489.53 384.919 1491.5 384.919 1493.63C384.919 1501.01 405.091 1496.99 405.091 1511.01C405.091 1518.47 399.433 1523.07 390.659 1523.07C384.837 1523.07 379.753 1521.02 375.735 1517.98ZM454.815 1515.11V1522.16C453.995 1522.49 451.535 1523.07 448.665 1523.07C439.071 1523.07 437.349 1516.75 437.349 1510.03V1490.51H431.199V1483.05H437.349V1469.85H445.303V1483.05H455.881V1490.51H445.303V1509.13C445.303 1513.55 446.287 1515.69 450.469 1515.69C451.863 1515.69 453.995 1515.44 454.815 1515.11ZM502.753 1502.73C502.753 1513.88 493.487 1523.07 482.171 1523.07C470.937 1523.07 461.753 1513.96 461.753 1502.73C461.753 1491.58 470.773 1482.31 482.171 1482.31C493.487 1482.31 502.753 1491.5 502.753 1502.73ZM494.963 1502.65C494.963 1495.6 489.305 1489.77 482.253 1489.77C474.955 1489.77 469.543 1495.92 469.543 1502.81C469.543 1509.78 475.119 1515.69 482.253 1515.69C489.469 1515.69 494.963 1509.62 494.963 1502.65ZM569.961 1522H562.007V1501.58C562.007 1493.79 558.973 1489.77 552.495 1489.77C545.771 1489.77 542.573 1494.12 542.573 1502.16V1522H534.701V1483.05H542.573V1487.23C545.197 1484.28 548.395 1482.31 553.889 1482.31C563.155 1482.31 569.961 1487.72 569.961 1499.94V1522ZM618.675 1505.35H586.777C587.843 1511.34 592.763 1515.93 599.405 1515.93C603.669 1515.93 607.851 1514.05 610.311 1510.6L615.887 1514.87C612.279 1519.95 606.129 1523.07 599.405 1523.07C588.089 1523.07 578.987 1514.21 578.987 1502.73C578.987 1491.82 587.269 1482.31 598.913 1482.31C610.475 1482.31 618.839 1491.74 618.839 1502.65C618.839 1503.71 618.757 1504.53 618.675 1505.35ZM587.023 1499.12H610.803C609.901 1493.71 605.145 1489.53 598.995 1489.53C592.927 1489.53 588.417 1493.63 587.023 1499.12ZM673.49 1522H665.29L655.45 1493.96L645.692 1522H637.328L622.732 1483.05H631.424L641.51 1511.75L651.76 1483.05H659.058L669.308 1511.75L679.394 1483.05H688.168L673.49 1522ZM172.686 1596.54L179.246 1600.39C175.638 1606.21 169.078 1610.07 161.698 1610.07C150.464 1610.07 141.28 1600.96 141.28 1589.73C141.28 1578.58 150.3 1569.31 161.698 1569.31C168.996 1569.31 175.474 1573.17 179.082 1578.91L172.44 1582.68C170.226 1579.15 166.208 1576.77 161.698 1576.77C154.564 1576.77 149.07 1582.84 149.07 1589.81C149.07 1596.78 154.646 1602.69 161.862 1602.69C166.536 1602.69 170.472 1600.23 172.686 1596.54ZM225.602 1589.73C225.602 1600.88 216.336 1610.07 205.02 1610.07C193.786 1610.07 184.602 1600.96 184.602 1589.73C184.602 1578.58 193.622 1569.31 205.02 1569.31C216.336 1569.31 225.602 1578.5 225.602 1589.73ZM217.812 1589.65C217.812 1582.6 212.154 1576.77 205.102 1576.77C197.804 1576.77 192.392 1582.92 192.392 1589.81C192.392 1596.78 197.968 1602.69 205.102 1602.69C212.318 1602.69 217.812 1596.62 217.812 1589.65ZM270.709 1609H262.755V1588.58C262.755 1580.79 259.721 1576.77 253.243 1576.77C246.519 1576.77 243.321 1581.12 243.321 1589.16V1609H235.449V1570.05H243.321V1574.23C245.945 1571.28 249.143 1569.31 254.637 1569.31C263.903 1569.31 270.709 1574.72 270.709 1586.94V1609ZM311.141 1596.54L317.701 1600.39C314.093 1606.21 307.533 1610.07 300.153 1610.07C288.919 1610.07 279.735 1600.96 279.735 1589.73C279.735 1578.58 288.755 1569.31 300.153 1569.31C307.451 1569.31 313.929 1573.17 317.537 1578.91L310.895 1582.68C308.681 1579.15 304.663 1576.77 300.153 1576.77C293.019 1576.77 287.525 1582.84 287.525 1589.81C287.525 1596.78 293.101 1602.69 300.317 1602.69C304.991 1602.69 308.927 1600.23 311.141 1596.54ZM362.745 1592.35H330.847C331.913 1598.34 336.833 1602.93 343.475 1602.93C347.739 1602.93 351.921 1601.05 354.381 1597.6L359.957 1601.87C356.349 1606.95 350.199 1610.07 343.475 1610.07C332.159 1610.07 323.057 1601.21 323.057 1589.73C323.057 1578.82 331.339 1569.31 342.983 1569.31C354.545 1569.31 362.909 1578.74 362.909 1589.65C362.909 1590.71 362.827 1591.53 362.745 1592.35ZM331.093 1586.12H354.873C353.971 1580.71 349.215 1576.53 343.065 1576.53C336.997 1576.53 332.487 1580.63 331.093 1586.12ZM380.414 1629.75H372.542V1570.05H380.414V1575.05C383.694 1571.2 388.204 1569.31 393.452 1569.31C404.85 1569.31 414.034 1578.17 414.034 1589.73C414.034 1601.13 405.014 1610.07 393.452 1610.07C388.204 1610.07 383.694 1608.26 380.414 1604.41V1629.75ZM380.66 1589.73C380.66 1596.78 385.826 1602.69 393.37 1602.69C400.75 1602.69 406.244 1597.03 406.244 1589.73C406.244 1582.51 400.75 1576.77 393.452 1576.77C386.154 1576.77 380.66 1582.51 380.66 1589.73ZM442.323 1602.11V1609.16C441.503 1609.49 439.043 1610.07 436.173 1610.07C426.579 1610.07 424.857 1603.75 424.857 1597.03V1577.51H418.707V1570.05H424.857V1556.85H432.811V1570.05H443.389V1577.51H432.811V1596.13C432.811 1600.55 433.795 1602.69 437.977 1602.69C439.371 1602.69 441.503 1602.44 442.323 1602.11ZM449.087 1604.98L453.351 1598.91C457.287 1602.11 461.469 1602.93 464.257 1602.93C468.439 1602.93 470.735 1601.13 470.735 1598.5C470.735 1590.8 450.481 1595.55 450.481 1581.53C450.481 1574.4 455.729 1569.31 463.847 1569.31C467.127 1569.31 472.621 1570.13 477.049 1573.74L472.867 1579.56C469.423 1577.02 465.979 1576.53 463.929 1576.53C459.993 1576.53 458.271 1578.5 458.271 1580.63C458.271 1588.01 478.443 1583.99 478.443 1598.01C478.443 1605.47 472.785 1610.07 464.011 1610.07C458.189 1610.07 453.105 1608.02 449.087 1604.98ZM495.139 1609.49C492.269 1609.49 490.055 1607.28 490.055 1604.41C490.055 1601.54 492.269 1599.41 495.139 1599.41C498.009 1599.41 500.141 1601.54 500.141 1604.41C500.141 1607.28 498.009 1609.49 495.139 1609.49Z" fill="black"/>
<path d="M2689.01 505.66C2689.01 523.208 2674.99 537.066 2657.36 537.066C2639.89 537.066 2625.62 523.454 2625.62 505.742C2625.62 488.44 2639.24 474.254 2657.28 474.254C2675.07 474.254 2689.01 488.112 2689.01 505.66ZM2657.36 529.44C2670.48 529.44 2680.65 518.862 2680.65 505.742C2680.65 492.704 2670.56 481.962 2657.28 481.962C2643.91 481.962 2633.99 492.95 2633.99 505.824C2633.99 518.944 2644.32 529.44 2657.36 529.44ZM2706.14 536H2698.27V475.32H2706.14V502.052C2709.42 498.198 2713.93 496.312 2719.18 496.312C2730.58 496.312 2739.76 505.168 2739.76 516.73C2739.76 528.128 2730.74 537.066 2719.18 537.066C2713.93 537.066 2709.42 535.262 2706.14 531.408V536ZM2706.39 516.73C2706.39 523.782 2711.55 529.686 2719.1 529.686C2726.48 529.686 2731.97 524.028 2731.97 516.73C2731.97 509.514 2726.48 503.774 2719.18 503.774C2711.88 503.774 2706.39 509.514 2706.39 516.73ZM2745.74 531.982L2750.01 525.914C2753.94 529.112 2758.13 529.932 2760.91 529.932C2765.1 529.932 2767.39 528.128 2767.39 525.504C2767.39 517.796 2747.14 522.552 2747.14 508.53C2747.14 501.396 2752.39 496.312 2760.5 496.312C2763.78 496.312 2769.28 497.132 2773.71 500.74L2769.52 506.562C2766.08 504.02 2762.64 503.528 2760.59 503.528C2756.65 503.528 2754.93 505.496 2754.93 507.628C2754.93 515.008 2775.1 510.99 2775.1 525.012C2775.1 532.474 2769.44 537.066 2760.67 537.066C2754.85 537.066 2749.76 535.016 2745.74 531.982ZM2821.48 519.354H2789.58C2790.65 525.34 2795.57 529.932 2802.21 529.932C2806.47 529.932 2810.66 528.046 2813.12 524.602L2818.69 528.866C2815.08 533.95 2808.93 537.066 2802.21 537.066C2790.89 537.066 2781.79 528.21 2781.79 516.73C2781.79 505.824 2790.07 496.312 2801.72 496.312C2813.28 496.312 2821.64 505.742 2821.64 516.648C2821.64 517.714 2821.56 518.534 2821.48 519.354ZM2789.83 513.122H2813.61C2812.71 507.71 2807.95 503.528 2801.8 503.528C2795.73 503.528 2791.22 507.628 2789.83 513.122ZM2839.15 536H2831.28V497.05H2839.15V501.724C2842.92 497.214 2846.77 496.312 2854.32 496.312V503.856C2841.44 503.856 2839.15 509.104 2839.15 515.828V536ZM2884.33 536H2875.88L2859.81 497.05H2868.34L2879.98 526.16L2891.79 497.05H2900.32L2884.33 536ZM2945.48 536H2937.61V531.408C2934.33 535.262 2929.82 537.066 2924.57 537.066C2913.01 537.066 2903.99 528.128 2903.99 516.73C2903.99 505.168 2913.17 496.312 2924.57 496.312C2929.82 496.312 2934.25 498.198 2937.61 502.052V497.05H2945.48V536ZM2937.45 516.73C2937.45 509.678 2931.95 503.774 2924.57 503.774C2917.27 503.774 2911.78 509.514 2911.78 516.73C2911.78 524.028 2917.27 529.686 2924.57 529.686C2932.03 529.686 2937.45 523.782 2937.45 516.73ZM2993.86 536H2985.91V515.582C2985.91 507.792 2982.87 503.774 2976.4 503.774C2969.67 503.774 2966.47 508.12 2966.47 516.156V536H2958.6V497.05H2966.47V501.232C2969.1 498.28 2972.3 496.312 2977.79 496.312C2987.06 496.312 2993.86 501.724 2993.86 513.942V536ZM3024.62 529.112V536.164C3023.8 536.492 3021.34 537.066 3018.47 537.066C3008.87 537.066 3007.15 530.752 3007.15 524.028V504.512H3001V497.05H3007.15V483.848H3015.11V497.05H3025.68V504.512H3015.11V523.126C3015.11 527.554 3016.09 529.686 3020.27 529.686C3021.67 529.686 3023.8 529.44 3024.62 529.112ZM3094.35 536H3086.48V531.408C3083.2 535.262 3078.69 537.066 3073.44 537.066C3061.88 537.066 3052.86 528.128 3052.86 516.73C3052.86 505.168 3062.04 496.312 3073.44 496.312C3078.69 496.312 3083.11 498.198 3086.48 502.052V497.05H3094.35V536ZM3086.31 516.73C3086.31 509.678 3080.82 503.774 3073.44 503.774C3066.14 503.774 3060.65 509.514 3060.65 516.73C3060.65 524.028 3066.14 529.686 3073.44 529.686C3080.9 529.686 3086.31 523.782 3086.31 516.73ZM3142.73 536H3134.77V515.582C3134.77 507.792 3131.74 503.774 3125.26 503.774C3118.54 503.774 3115.34 508.12 3115.34 516.156V536H3107.47V497.05H3115.34V501.232C3117.96 498.28 3121.16 496.312 3126.65 496.312C3135.92 496.312 3142.73 501.724 3142.73 513.942V536ZM3193.24 536H3185.37V531.408C3182.09 535.262 3177.58 537.066 3172.33 537.066C3160.77 537.066 3151.75 528.128 3151.75 516.73C3151.75 505.168 3160.94 496.312 3172.33 496.312C3177.58 496.312 3182.01 498.198 3185.37 502.052V475.32H3193.24V536ZM3185.21 516.73C3185.21 509.678 3179.71 503.774 3172.33 503.774C3165.04 503.774 3159.54 509.514 3159.54 516.73C3159.54 524.028 3165.04 529.686 3172.33 529.686C3179.8 529.686 3185.21 523.782 3185.21 516.73ZM3266.68 536H3258.8V531.408C3255.52 535.262 3251.01 537.066 3245.77 537.066C3234.2 537.066 3225.18 528.128 3225.18 516.73C3225.18 505.168 3234.37 496.312 3245.77 496.312C3251.01 496.312 3255.44 498.198 3258.8 502.052V497.05H3266.68V536ZM3258.64 516.73C3258.64 509.678 3253.15 503.774 3245.77 503.774C3238.47 503.774 3232.97 509.514 3232.97 516.73C3232.97 524.028 3238.47 529.686 3245.77 529.686C3253.23 529.686 3258.64 523.782 3258.64 516.73ZM3294.47 529.604V536.492C3293.16 536.82 3291.77 537.066 3290.13 537.066C3283.73 537.066 3279.79 533.212 3279.79 526.078V475.32H3287.67V523.618C3287.67 527.8 3288.65 529.686 3292.5 529.686C3293 529.686 3293.73 529.686 3294.47 529.604ZM3338.3 519.354H3306.41C3307.47 525.34 3312.39 529.932 3319.03 529.932C3323.3 529.932 3327.48 528.046 3329.94 524.602L3335.52 528.866C3331.91 533.95 3325.76 537.066 3319.03 537.066C3307.72 537.066 3298.62 528.21 3298.62 516.73C3298.62 505.824 3306.9 496.312 3318.54 496.312C3330.1 496.312 3338.47 505.742 3338.47 516.648C3338.47 517.714 3338.39 518.534 3338.3 519.354ZM3306.65 513.122H3330.43C3329.53 507.71 3324.77 503.528 3318.62 503.528C3312.56 503.528 3308.05 507.628 3306.65 513.122ZM3355.97 536H3348.1V497.05H3355.97V501.724C3359.75 497.214 3363.6 496.312 3371.14 496.312V503.856C3358.27 503.856 3355.97 509.104 3355.97 515.828V536ZM3400.02 529.112V536.164C3399.2 536.492 3396.74 537.066 3393.87 537.066C3384.28 537.066 3382.56 530.752 3382.56 524.028V504.512H3376.41V497.05H3382.56V483.848H3390.51V497.05H3401.09V504.512H3390.51V523.126C3390.51 527.554 3391.5 529.686 3395.68 529.686C3397.07 529.686 3399.2 529.44 3400.02 529.112ZM2638.09 623H2630.13V591.512H2624.39V584.05H2630.13V575.03C2630.13 567.568 2633.58 562.32 2642.11 562.32C2644.24 562.32 2646.7 562.648 2648.58 563.222V570.274C2647.76 570.028 2645.55 569.7 2643.91 569.7C2639.73 569.7 2638.09 571.668 2638.09 577.654V584.05H2647.76V591.512H2638.09V623ZM2694.51 603.73C2694.51 614.882 2685.24 624.066 2673.92 624.066C2662.69 624.066 2653.51 614.964 2653.51 603.73C2653.51 592.578 2662.53 583.312 2673.92 583.312C2685.24 583.312 2694.51 592.496 2694.51 603.73ZM2686.72 603.648C2686.72 596.596 2681.06 590.774 2674.01 590.774C2666.71 590.774 2661.3 596.924 2661.3 603.812C2661.3 610.782 2666.87 616.686 2674.01 616.686C2681.22 616.686 2686.72 610.618 2686.72 603.648ZM2712.22 623H2704.35V584.05H2712.22V588.724C2716 584.214 2719.85 583.312 2727.39 583.312V590.856C2714.52 590.856 2712.22 596.104 2712.22 602.828V623ZM2791.9 623H2783.95V602.582C2783.95 594.792 2780.92 590.774 2774.44 590.774C2767.71 590.774 2764.52 595.12 2764.52 603.156V623H2756.64V584.05H2764.52V588.232C2767.14 585.28 2770.34 583.312 2775.83 583.312C2785.1 583.312 2791.9 588.724 2791.9 600.942V623ZM2840.62 606.354H2808.72C2809.79 612.34 2814.71 616.932 2821.35 616.932C2825.61 616.932 2829.79 615.046 2832.25 611.602L2837.83 615.866C2834.22 620.95 2828.07 624.066 2821.35 624.066C2810.03 624.066 2800.93 615.21 2800.93 603.73C2800.93 592.824 2809.21 583.312 2820.86 583.312C2832.42 583.312 2840.78 592.742 2840.78 603.648C2840.78 604.714 2840.7 605.534 2840.62 606.354ZM2808.97 600.122H2832.75C2831.84 594.71 2827.09 590.528 2820.94 590.528C2814.87 590.528 2810.36 594.628 2808.97 600.122ZM2895.43 623H2887.23L2877.39 594.956L2867.64 623H2859.27L2844.68 584.05H2853.37L2863.45 612.75L2873.7 584.05H2881L2891.25 612.75L2901.34 584.05H2910.11L2895.43 623ZM2947.58 623H2939.62V584.05H2947.58V623ZM2943.64 576.342C2940.77 576.342 2938.56 574.128 2938.56 571.258C2938.56 568.388 2940.77 566.174 2943.64 566.174C2946.51 566.174 2948.64 568.388 2948.64 571.258C2948.64 574.128 2946.51 576.342 2943.64 576.342ZM2995.94 623H2987.99V602.582C2987.99 594.792 2984.96 590.774 2978.48 590.774C2971.75 590.774 2968.56 595.12 2968.56 603.156V623H2960.68V584.05H2968.56V588.232C2971.18 585.28 2974.38 583.312 2979.87 583.312C2989.14 583.312 2995.94 588.724 2995.94 600.942V623ZM3016.78 623H3008.82V591.512H3003.08V584.05H3008.82V575.03C3008.82 567.568 3012.27 562.32 3020.8 562.32C3022.93 562.32 3025.39 562.648 3027.27 563.222V570.274C3026.45 570.028 3024.24 569.7 3022.6 569.7C3018.42 569.7 3016.78 571.668 3016.78 577.654V584.05H3026.45V591.512H3016.78V623ZM3073.2 603.73C3073.2 614.882 3063.93 624.066 3052.61 624.066C3041.38 624.066 3032.2 614.964 3032.2 603.73C3032.2 592.578 3041.22 583.312 3052.61 583.312C3063.93 583.312 3073.2 592.496 3073.2 603.73ZM3065.41 603.648C3065.41 596.596 3059.75 590.774 3052.7 590.774C3045.4 590.774 3039.99 596.924 3039.99 603.812C3039.99 610.782 3045.56 616.686 3052.7 616.686C3059.91 616.686 3065.41 610.618 3065.41 603.648ZM3090.91 623H3083.04V584.05H3090.91V588.724C3094.69 584.214 3098.54 583.312 3106.08 583.312V590.856C3093.21 590.856 3090.91 596.104 3090.91 602.828V623ZM3172.5 623H3164.63V602.582C3164.63 594.874 3162.66 590.774 3156.59 590.774C3150.44 590.774 3147.24 594.874 3147.24 603.156V623H3139.29V602.582C3139.29 594.792 3137.32 590.774 3131.25 590.774C3125.1 590.774 3121.9 594.956 3121.9 603.156V623H3114.03V584.05H3121.9V588.232C3124.86 584.952 3127.89 583.312 3132.56 583.312C3137.89 583.312 3142.65 585.444 3145.03 590.528C3148.8 584.788 3153.47 583.312 3157.98 583.312C3166.68 583.312 3172.5 588.724 3172.5 600.942V623ZM3223.03 623H3215.16V618.408C3211.88 622.262 3207.37 624.066 3202.12 624.066C3190.56 624.066 3181.54 615.128 3181.54 603.73C3181.54 592.168 3190.73 583.312 3202.12 583.312C3207.37 583.312 3211.8 585.198 3215.16 589.052V584.05H3223.03V623ZM3215 603.73C3215 596.678 3209.5 590.774 3202.12 590.774C3194.83 590.774 3189.33 596.514 3189.33 603.73C3189.33 611.028 3194.83 616.686 3202.12 616.686C3209.59 616.686 3215 610.782 3215 603.73ZM3254.6 616.112V623.164C3253.78 623.492 3251.32 624.066 3248.45 624.066C3238.86 624.066 3237.14 617.752 3237.14 611.028V591.512H3230.99V584.05H3237.14V570.848H3245.09V584.05H3255.67V591.512H3245.09V610.126C3245.09 614.554 3246.07 616.686 3250.26 616.686C3251.65 616.686 3253.78 616.44 3254.6 616.112ZM3272.77 623H3264.82V584.05H3272.77V623ZM3268.84 576.342C3265.97 576.342 3263.75 574.128 3263.75 571.258C3263.75 568.388 3265.97 566.174 3268.84 566.174C3271.71 566.174 3273.84 568.388 3273.84 571.258C3273.84 574.128 3271.71 576.342 3268.84 576.342ZM3323.6 603.73C3323.6 614.882 3314.33 624.066 3303.02 624.066C3291.78 624.066 3282.6 614.964 3282.6 603.73C3282.6 592.578 3291.62 583.312 3303.02 583.312C3314.33 583.312 3323.6 592.496 3323.6 603.73ZM3315.81 603.648C3315.81 596.596 3310.15 590.774 3303.1 590.774C3295.8 590.774 3290.39 596.924 3290.39 603.812C3290.39 610.782 3295.97 616.686 3303.1 616.686C3310.32 616.686 3315.81 610.618 3315.81 603.648ZM3368.71 623H3360.75V602.582C3360.75 594.792 3357.72 590.774 3351.24 590.774C3344.52 590.774 3341.32 595.12 3341.32 603.156V623H3333.45V584.05H3341.32V588.232C3343.94 585.28 3347.14 583.312 3352.63 583.312C3361.9 583.312 3368.71 588.724 3368.71 600.942V623ZM3387.74 623.492C3384.87 623.492 3382.65 621.278 3382.65 618.408C3382.65 615.538 3384.87 613.406 3387.74 613.406C3390.61 613.406 3392.74 615.538 3392.74 618.408C3392.74 621.278 3390.61 623.492 3387.74 623.492Z" fill="black"/>
<path d="M2653.33 1524H2644.97V1463.32H2680.64V1471.27H2653.33V1488.41H2675.97V1496.28H2653.33V1524ZM2727.52 1504.73C2727.52 1515.88 2718.26 1525.07 2706.94 1525.07C2695.71 1525.07 2686.52 1515.96 2686.52 1504.73C2686.52 1493.58 2695.54 1484.31 2706.94 1484.31C2718.26 1484.31 2727.52 1493.5 2727.52 1504.73ZM2719.73 1504.65C2719.73 1497.6 2714.08 1491.77 2707.02 1491.77C2699.73 1491.77 2694.31 1497.92 2694.31 1504.81C2694.31 1511.78 2699.89 1517.69 2707.02 1517.69C2714.24 1517.69 2719.73 1511.62 2719.73 1504.65ZM2765.5 1511.54L2772.06 1515.39C2768.45 1521.21 2761.89 1525.07 2754.51 1525.07C2743.27 1525.07 2734.09 1515.96 2734.09 1504.73C2734.09 1493.58 2743.11 1484.31 2754.51 1484.31C2761.81 1484.31 2768.28 1488.17 2771.89 1493.91L2765.25 1497.68C2763.04 1494.15 2759.02 1491.77 2754.51 1491.77C2747.37 1491.77 2741.88 1497.84 2741.88 1504.81C2741.88 1511.78 2747.46 1517.69 2754.67 1517.69C2759.35 1517.69 2763.28 1515.23 2765.5 1511.54ZM2807.51 1505.96V1485.05H2815.38V1508.17C2815.38 1520.39 2808.57 1525.07 2797.67 1525.07C2786.76 1525.07 2779.95 1520.39 2779.95 1508.17V1485.05H2787.91V1505.96C2787.91 1513.26 2789.63 1517.69 2797.67 1517.69C2805.78 1517.69 2807.51 1513.26 2807.51 1505.96ZM2824 1519.98L2828.27 1513.91C2832.2 1517.11 2836.39 1517.93 2839.17 1517.93C2843.36 1517.93 2845.65 1516.13 2845.65 1513.5C2845.65 1505.8 2825.4 1510.55 2825.4 1496.53C2825.4 1489.4 2830.65 1484.31 2838.76 1484.31C2842.04 1484.31 2847.54 1485.13 2851.97 1488.74L2847.78 1494.56C2844.34 1492.02 2840.9 1491.53 2838.85 1491.53C2834.91 1491.53 2833.19 1493.5 2833.19 1495.63C2833.19 1503.01 2853.36 1498.99 2853.36 1513.01C2853.36 1520.47 2847.7 1525.07 2838.93 1525.07C2833.11 1525.07 2828.02 1523.02 2824 1519.98ZM2899.74 1507.35H2867.84C2868.91 1513.34 2873.83 1517.93 2880.47 1517.93C2884.74 1517.93 2888.92 1516.05 2891.38 1512.6L2896.95 1516.87C2893.35 1521.95 2887.2 1525.07 2880.47 1525.07C2869.16 1525.07 2860.05 1516.21 2860.05 1504.73C2860.05 1493.82 2868.34 1484.31 2879.98 1484.31C2891.54 1484.31 2899.91 1493.74 2899.91 1504.65C2899.91 1505.71 2899.82 1506.53 2899.74 1507.35ZM2868.09 1501.12H2891.87C2890.97 1495.71 2886.21 1491.53 2880.06 1491.53C2873.99 1491.53 2869.48 1495.63 2868.09 1501.12ZM2905.68 1519.98L2909.95 1513.91C2913.88 1517.11 2918.07 1517.93 2920.85 1517.93C2925.04 1517.93 2927.33 1516.13 2927.33 1513.5C2927.33 1505.8 2907.08 1510.55 2907.08 1496.53C2907.08 1489.4 2912.33 1484.31 2920.44 1484.31C2923.72 1484.31 2929.22 1485.13 2933.65 1488.74L2929.46 1494.56C2926.02 1492.02 2922.58 1491.53 2920.53 1491.53C2916.59 1491.53 2914.87 1493.5 2914.87 1495.63C2914.87 1503.01 2935.04 1498.99 2935.04 1513.01C2935.04 1520.47 2929.38 1525.07 2920.61 1525.07C2914.79 1525.07 2909.7 1523.02 2905.68 1519.98ZM3005.33 1524H2997.45V1519.41C2994.17 1523.26 2989.66 1525.07 2984.42 1525.07C2972.85 1525.07 2963.83 1516.13 2963.83 1504.73C2963.83 1493.17 2973.02 1484.31 2984.42 1484.31C2989.66 1484.31 2994.09 1486.2 2997.45 1490.05V1463.32H3005.33V1524ZM2997.29 1504.73C2997.29 1497.68 2991.8 1491.77 2984.42 1491.77C2977.12 1491.77 2971.62 1497.51 2971.62 1504.73C2971.62 1512.03 2977.12 1517.69 2984.42 1517.69C2991.88 1517.69 2997.29 1511.78 2997.29 1504.73ZM3054.85 1507.35H3022.95C3024.02 1513.34 3028.94 1517.93 3035.58 1517.93C3039.85 1517.93 3044.03 1516.05 3046.49 1512.6L3052.06 1516.87C3048.46 1521.95 3042.31 1525.07 3035.58 1525.07C3024.27 1525.07 3015.16 1516.21 3015.16 1504.73C3015.16 1493.82 3023.45 1484.31 3035.09 1484.31C3046.65 1484.31 3055.02 1493.74 3055.02 1504.65C3055.02 1505.71 3054.93 1506.53 3054.85 1507.35ZM3023.2 1501.12H3046.98C3046.08 1495.71 3041.32 1491.53 3035.17 1491.53C3029.1 1491.53 3024.59 1495.63 3023.2 1501.12ZM3101.06 1507.35H3069.16C3070.23 1513.34 3075.15 1517.93 3081.79 1517.93C3086.05 1517.93 3090.23 1516.05 3092.69 1512.6L3098.27 1516.87C3094.66 1521.95 3088.51 1525.07 3081.79 1525.07C3070.47 1525.07 3061.37 1516.21 3061.37 1504.73C3061.37 1493.82 3069.65 1484.31 3081.3 1484.31C3092.86 1484.31 3101.22 1493.74 3101.22 1504.65C3101.22 1505.71 3101.14 1506.53 3101.06 1507.35ZM3069.41 1501.12H3093.19C3092.28 1495.71 3087.53 1491.53 3081.38 1491.53C3075.31 1491.53 3070.8 1495.63 3069.41 1501.12ZM3118.73 1544.75H3110.85V1485.05H3118.73V1490.05C3122.01 1486.2 3126.52 1484.31 3131.76 1484.31C3143.16 1484.31 3152.35 1493.17 3152.35 1504.73C3152.35 1516.13 3143.33 1525.07 3131.76 1525.07C3126.52 1525.07 3122.01 1523.26 3118.73 1519.41V1544.75ZM3118.97 1504.73C3118.97 1511.78 3124.14 1517.69 3131.68 1517.69C3139.06 1517.69 3144.56 1512.03 3144.56 1504.73C3144.56 1497.51 3139.06 1491.77 3131.76 1491.77C3124.47 1491.77 3118.97 1497.51 3118.97 1504.73ZM3176.86 1517.6V1524.49C3175.55 1524.82 3174.16 1525.07 3172.52 1525.07C3166.12 1525.07 3162.19 1521.21 3162.19 1514.08V1463.32H3170.06V1511.62C3170.06 1515.8 3171.04 1517.69 3174.9 1517.69C3175.39 1517.69 3176.12 1517.69 3176.86 1517.6ZM3195.11 1544.75H3187.32L3194.45 1524.74L3178.55 1485.05H3187.16L3198.31 1514.32L3208.8 1485.05H3216.68L3195.11 1544.75ZM3283.91 1504.73C3283.91 1515.88 3274.64 1525.07 3263.32 1525.07C3252.09 1525.07 3242.91 1515.96 3242.91 1504.73C3242.91 1493.58 3251.93 1484.31 3263.32 1484.31C3274.64 1484.31 3283.91 1493.5 3283.91 1504.73ZM3276.12 1504.65C3276.12 1497.6 3270.46 1491.77 3263.41 1491.77C3256.11 1491.77 3250.7 1497.92 3250.7 1504.81C3250.7 1511.78 3256.27 1517.69 3263.41 1517.69C3270.62 1517.69 3276.12 1511.62 3276.12 1504.65ZM3329.01 1524H3321.06V1503.58C3321.06 1495.79 3318.03 1491.77 3311.55 1491.77C3304.82 1491.77 3301.63 1496.12 3301.63 1504.16V1524H3293.75V1485.05H3301.63V1489.23C3304.25 1486.28 3307.45 1484.31 3312.94 1484.31C3322.21 1484.31 3329.01 1489.72 3329.01 1501.94V1524ZM2703.03 1611H2695.15V1590.58C2695.15 1582.87 2693.19 1578.77 2687.12 1578.77C2680.97 1578.77 2677.77 1582.87 2677.77 1591.16V1611H2669.82V1590.58C2669.82 1582.79 2667.85 1578.77 2661.78 1578.77C2655.63 1578.77 2652.43 1582.96 2652.43 1591.16V1611H2644.56V1572.05H2652.43V1576.23C2655.38 1572.95 2658.42 1571.31 2663.09 1571.31C2668.42 1571.31 2673.18 1573.44 2675.56 1578.53C2679.33 1572.79 2684 1571.31 2688.51 1571.31C2697.2 1571.31 2703.03 1576.72 2703.03 1588.94V1611ZM2753.56 1611H2745.69V1606.41C2742.41 1610.26 2737.9 1612.07 2732.65 1612.07C2721.09 1612.07 2712.07 1603.13 2712.07 1591.73C2712.07 1580.17 2721.25 1571.31 2732.65 1571.31C2737.9 1571.31 2742.33 1573.2 2745.69 1577.05V1572.05H2753.56V1611ZM2745.53 1591.73C2745.53 1584.68 2740.03 1578.77 2732.65 1578.77C2725.35 1578.77 2719.86 1584.51 2719.86 1591.73C2719.86 1599.03 2725.35 1604.69 2732.65 1604.69C2740.11 1604.69 2745.53 1598.78 2745.53 1591.73ZM2762.83 1606.98L2767.09 1600.91C2771.03 1604.11 2775.21 1604.93 2778 1604.93C2782.18 1604.93 2784.47 1603.13 2784.47 1600.5C2784.47 1592.8 2764.22 1597.55 2764.22 1583.53C2764.22 1576.4 2769.47 1571.31 2777.59 1571.31C2780.87 1571.31 2786.36 1572.13 2790.79 1575.74L2786.61 1581.56C2783.16 1579.02 2779.72 1578.53 2777.67 1578.53C2773.73 1578.53 2772.01 1580.5 2772.01 1582.63C2772.01 1590.01 2792.18 1585.99 2792.18 1600.01C2792.18 1607.47 2786.52 1612.07 2777.75 1612.07C2771.93 1612.07 2766.84 1610.02 2762.83 1606.98ZM2820.2 1604.11V1611.16C2819.38 1611.49 2816.92 1612.07 2814.05 1612.07C2804.46 1612.07 2802.74 1605.75 2802.74 1599.03V1579.51H2796.59V1572.05H2802.74V1558.85H2810.69V1572.05H2821.27V1579.51H2810.69V1598.13C2810.69 1602.55 2811.68 1604.69 2815.86 1604.69C2817.25 1604.69 2819.38 1604.44 2820.2 1604.11ZM2866.83 1594.35H2834.93C2836 1600.34 2840.92 1604.93 2847.56 1604.93C2851.82 1604.93 2856.01 1603.05 2858.47 1599.6L2864.04 1603.87C2860.43 1608.95 2854.28 1612.07 2847.56 1612.07C2836.24 1612.07 2827.14 1603.21 2827.14 1591.73C2827.14 1580.82 2835.42 1571.31 2847.07 1571.31C2858.63 1571.31 2866.99 1580.74 2866.99 1591.65C2866.99 1592.71 2866.91 1593.53 2866.83 1594.35ZM2835.18 1588.12H2858.96C2858.06 1582.71 2853.3 1578.53 2847.15 1578.53C2841.08 1578.53 2836.57 1582.63 2835.18 1588.12ZM2884.5 1611H2876.63V1572.05H2884.5V1576.72C2888.27 1572.21 2892.12 1571.31 2899.67 1571.31V1578.86C2886.79 1578.86 2884.5 1584.1 2884.5 1590.83V1611ZM2915.57 1611H2907.62V1572.05H2915.57V1611ZM2911.63 1564.34C2908.76 1564.34 2906.55 1562.13 2906.55 1559.26C2906.55 1556.39 2908.76 1554.17 2911.63 1554.17C2914.5 1554.17 2916.64 1556.39 2916.64 1559.26C2916.64 1562.13 2914.5 1564.34 2911.63 1564.34ZM2963.94 1611H2955.98V1590.58C2955.98 1582.79 2952.95 1578.77 2946.47 1578.77C2939.75 1578.77 2936.55 1583.12 2936.55 1591.16V1611H2928.68V1572.05H2936.55V1576.23C2939.17 1573.28 2942.37 1571.31 2947.87 1571.31C2957.13 1571.31 2963.94 1576.72 2963.94 1588.94V1611ZM3006.58 1609.2V1606.41C3003.3 1610.26 2998.79 1612.07 2993.55 1612.07C2981.98 1612.07 2972.96 1603.13 2972.96 1591.73C2972.96 1580.17 2982.15 1571.31 2993.55 1571.31C2998.79 1571.31 3003.22 1573.2 3006.58 1577.05V1572.05H3014.46V1607.8C3014.46 1627.32 3002.57 1631.75 2993.79 1631.75C2985.92 1631.75 2979.61 1628.14 2975.92 1622.23L2983.21 1619.12C2985.51 1622.4 2988.79 1624.37 2993.71 1624.37C3000.43 1624.37 3006.58 1620.68 3006.58 1609.2ZM3006.42 1591.73C3006.42 1584.68 3000.93 1578.77 2993.55 1578.77C2986.25 1578.77 2980.75 1584.51 2980.75 1591.73C2980.75 1599.03 2986.25 1604.69 2993.55 1604.69C3001.01 1604.69 3006.42 1598.78 3006.42 1591.73ZM3084.44 1611H3074.11L3057.55 1592.39V1611H3049.68V1550.32H3057.55V1588.12L3072.55 1572.05H3082.97L3065.83 1589.93L3084.44 1611ZM3128.04 1594.35H3096.15C3097.21 1600.34 3102.13 1604.93 3108.77 1604.93C3113.04 1604.93 3117.22 1603.05 3119.68 1599.6L3125.26 1603.87C3121.65 1608.95 3115.5 1612.07 3108.77 1612.07C3097.46 1612.07 3088.36 1603.21 3088.36 1591.73C3088.36 1580.82 3096.64 1571.31 3108.28 1571.31C3119.84 1571.31 3128.21 1580.74 3128.21 1591.65C3128.21 1592.71 3128.13 1593.53 3128.04 1594.35ZM3096.39 1588.12H3120.17C3119.27 1582.71 3114.51 1578.53 3108.36 1578.53C3102.3 1578.53 3097.79 1582.63 3096.39 1588.12ZM3148.67 1631.75H3140.88L3148.01 1611.74L3132.1 1572.05H3140.71L3151.86 1601.32L3162.36 1572.05H3170.23L3148.67 1631.75ZM3207.7 1611H3199.74V1572.05H3207.7V1611ZM3203.76 1564.34C3200.89 1564.34 3198.68 1562.13 3198.68 1559.26C3198.68 1556.39 3200.89 1554.17 3203.76 1554.17C3206.63 1554.17 3208.76 1556.39 3208.76 1559.26C3208.76 1562.13 3206.63 1564.34 3203.76 1564.34ZM3259.01 1611H3251.14V1606.41C3247.86 1610.26 3243.35 1612.07 3238.1 1612.07C3226.54 1612.07 3217.52 1603.13 3217.52 1591.73C3217.52 1580.17 3226.71 1571.31 3238.1 1571.31C3243.35 1571.31 3247.78 1573.2 3251.14 1577.05V1550.32H3259.01V1611ZM3250.98 1591.73C3250.98 1584.68 3245.48 1578.77 3238.1 1578.77C3230.81 1578.77 3225.31 1584.51 3225.31 1591.73C3225.31 1599.03 3230.81 1604.69 3238.1 1604.69C3245.57 1604.69 3250.98 1598.78 3250.98 1591.73ZM3308.54 1594.35H3276.64C3277.71 1600.34 3282.63 1604.93 3289.27 1604.93C3293.53 1604.93 3297.72 1603.05 3300.18 1599.6L3305.75 1603.87C3302.14 1608.95 3295.99 1612.07 3289.27 1612.07C3277.95 1612.07 3268.85 1603.21 3268.85 1591.73C3268.85 1580.82 3277.13 1571.31 3288.78 1571.31C3300.34 1571.31 3308.7 1580.74 3308.7 1591.65C3308.7 1592.71 3308.62 1593.53 3308.54 1594.35ZM3276.89 1588.12H3300.67C3299.77 1582.71 3295.01 1578.53 3288.86 1578.53C3282.79 1578.53 3278.28 1582.63 3276.89 1588.12ZM3356.55 1611H3348.68V1606.41C3345.4 1610.26 3340.89 1612.07 3335.64 1612.07C3324.08 1612.07 3315.06 1603.13 3315.06 1591.73C3315.06 1580.17 3324.24 1571.31 3335.64 1571.31C3340.89 1571.31 3345.32 1573.2 3348.68 1577.05V1572.05H3356.55V1611ZM3348.51 1591.73C3348.51 1584.68 3343.02 1578.77 3335.64 1578.77C3328.34 1578.77 3322.85 1584.51 3322.85 1591.73C3322.85 1599.03 3328.34 1604.69 3335.64 1604.69C3343.1 1604.69 3348.51 1598.78 3348.51 1591.73ZM3365.81 1606.98L3370.08 1600.91C3374.01 1604.11 3378.2 1604.93 3380.98 1604.93C3385.17 1604.93 3387.46 1603.13 3387.46 1600.5C3387.46 1592.8 3367.21 1597.55 3367.21 1583.53C3367.21 1576.4 3372.46 1571.31 3380.57 1571.31C3383.85 1571.31 3389.35 1572.13 3393.78 1575.74L3389.59 1581.56C3386.15 1579.02 3382.71 1578.53 3380.66 1578.53C3376.72 1578.53 3375 1580.5 3375 1582.63C3375 1590.01 3395.17 1585.99 3395.17 1600.01C3395.17 1607.47 3389.51 1612.07 3380.74 1612.07C3374.92 1612.07 3369.83 1610.02 3365.81 1606.98ZM3411.87 1611.49C3409 1611.49 3406.78 1609.28 3406.78 1606.41C3406.78 1603.54 3409 1601.41 3411.87 1601.41C3414.74 1601.41 3416.87 1603.54 3416.87 1606.41C3416.87 1609.28 3414.74 1611.49 3411.87 1611.49Z" fill="black"/>
<path d="M2013.03 1262H2362V1309H2013.03C2013.03 1309 2008.21 1296 2006.28 1281.5C2004.35 1267 2013.03 1262 2013.03 1262Z" fill="black"/>
<path d="M1573.81 1309H1763C1763 1309 1766.63 1292.01 1774.5 1286.5C1787.36 1277.49 1818 1282.5 1818 1282.5C1817.69 1272.46 1818.18 1270.38 1820 1262H1578.5C1578.5 1262 1571.2 1275 1570.15 1289.5C1569.11 1304 1573.81 1309 1573.81 1309Z" fill="black"/>
<path d="M1897.39 1309H1928C1920.52 1290.51 1918.54 1280.24 1917.5 1262H1888.5C1888.5 1262 1892.79 1274.34 1894.5 1282.5C1896.63 1292.69 1897.39 1309 1897.39 1309Z" fill="black"/>
<defs>
<linearGradient id="paint0_linear_2038_1414" x1="2295.78" y1="775.878" x2="1519.19" y2="1514.29" gradientUnits="userSpaceOnUse">
<stop stop-color="#64A70B"/>
<stop offset="1" stop-color="#009CDE"/>
</linearGradient>
</defs>
</svg>
