<svg width="3639" height="1800" viewBox="0 0 3639 1800" fill="none" xmlns="http://www.w3.org/2000/svg">
<rect width="3500" height="1800" fill="white"/>
<path d="M204.02 278H184.88L152.21 243.46V278H137.8V196.6H152.21V232.57L183.01 196.6H201.16L164.75 237.3L204.02 278ZM260.85 256.33H221.03C222.57 262.71 227.74 267.22 235.55 267.22C240.28 267.22 245.34 265.46 248.42 261.39L257.66 268.76C252.93 275.47 244.57 279.43 235.66 279.43C219.93 279.43 207.83 267.66 207.83 252.37C207.83 237.52 218.28 224.76 234.89 224.76C250.29 224.76 261.18 237.3 261.18 252.04C261.18 253.47 261.07 255.01 260.85 256.33ZM221.47 246.43H247.54C246.77 241.15 241.27 237.08 234.78 237.08C228.51 237.08 223.45 240.82 221.47 246.43ZM321.866 256.33H282.046C283.586 262.71 288.756 267.22 296.566 267.22C301.296 267.22 306.356 265.46 309.436 261.39L318.676 268.76C313.946 275.47 305.586 279.43 296.676 279.43C280.946 279.43 268.846 267.66 268.846 252.37C268.846 237.52 279.296 224.76 295.906 224.76C311.306 224.76 322.196 237.3 322.196 252.04C322.196 253.47 322.086 255.01 321.866 256.33ZM282.486 246.43H308.556C307.786 241.15 302.286 237.08 295.796 237.08C289.526 237.08 284.466 240.82 282.486 246.43ZM382.882 278H369.352V250.06C369.352 239.94 363.962 237.74 358.572 237.74C353.182 237.74 347.792 239.83 347.792 249.84V278H334.262V225.75H347.792V229.6C350.762 227.4 354.392 224.76 361.542 224.76C372.982 224.76 382.882 231.47 382.882 247.86V278ZM442.894 278H428.484V196.6H457.304C476.664 196.6 485.244 208.92 485.244 223.66C485.244 238.4 476.664 250.83 457.304 250.83H442.894V278ZM442.894 236.97H457.304C466.874 236.97 470.944 231.03 470.944 223.77C470.944 216.51 466.874 210.46 457.304 210.46H442.894V236.97ZM509.247 278H495.717V225.75H509.247V229.6C514.307 225.86 519.257 224.76 529.377 224.76V237.74C512.107 237.74 509.247 242.58 509.247 251.6V278ZM591.554 252.04C591.554 267.11 579.234 279.43 563.724 279.43C548.324 279.43 536.004 267.11 536.004 252.04C536.004 236.86 548.324 224.76 563.724 224.76C579.234 224.76 591.554 236.86 591.554 252.04ZM578.244 252.04C578.244 244.34 571.754 237.74 563.724 237.74C555.804 237.74 549.314 244.34 549.314 252.04C549.314 259.85 555.804 266.45 563.724 266.45C571.754 266.45 578.244 259.85 578.244 252.04ZM617.206 278H603.676V196.6H617.206V229.6C621.386 226.19 626.336 224.76 631.726 224.76C647.126 224.76 659.446 236.86 659.446 252.04C659.446 267.11 647.126 279.43 631.726 279.43C626.336 279.43 621.386 278 617.206 274.59V278ZM617.206 251.49V252.7C617.536 260.18 623.916 266.45 631.726 266.45C639.646 266.45 646.136 259.85 646.136 252.04C646.136 244.34 639.646 237.74 631.726 237.74C623.916 237.74 617.536 244.12 617.206 251.49ZM692.906 266.56V278.55C691.366 278.99 689.276 279.43 687.076 279.43C677.066 279.43 671.566 273.93 671.566 264.03V196.6H685.096V260.95C685.096 264.47 686.086 266.67 690.816 266.67C691.256 266.67 692.136 266.67 692.906 266.56ZM751.339 256.33H711.519C713.059 262.71 718.229 267.22 726.039 267.22C730.769 267.22 735.829 265.46 738.909 261.39L748.149 268.76C743.419 275.47 735.059 279.43 726.149 279.43C710.419 279.43 698.319 267.66 698.319 252.37C698.319 237.52 708.769 224.76 725.379 224.76C740.779 224.76 751.669 237.3 751.669 252.04C751.669 253.47 751.559 255.01 751.339 256.33ZM711.959 246.43H738.029C737.259 241.15 731.759 237.08 725.269 237.08C718.999 237.08 713.939 240.82 711.959 246.43ZM845.244 278H831.714V250.06C831.714 239.39 826.984 237.74 822.144 237.74C816.754 237.74 811.254 239.83 811.254 249.84V278H797.724V250.06C797.724 239.39 792.994 237.74 788.154 237.74C782.764 237.74 777.264 239.83 777.264 249.84V278H763.734V225.75H777.264V229.6C780.564 227.18 783.864 224.76 790.794 224.76C797.614 224.76 803.664 227.18 807.294 232.57C812.244 226.63 819.284 224.76 824.784 224.76C836.334 224.76 845.244 231.47 845.244 247.86V278ZM130.1 382.02L139.12 372.67C143.63 377.84 149.02 383.23 158.04 383.23C167.28 383.23 170.91 377.51 170.91 372.45C170.91 356.5 134.17 362.33 134.17 335.6C134.17 320.86 145.28 312.17 160.46 312.17C167.72 312.17 174.54 314.15 182.35 319.87L174.87 331.09C170.25 327.02 164.86 325.37 159.8 325.37C152.65 325.37 148.47 328.67 148.47 334.17C148.47 350.56 185.32 343.08 185.32 371.79C185.32 386.31 175.97 396.43 157.93 396.43C148.36 396.43 138.57 393.57 130.1 382.02ZM248.556 369.04C248.556 384.11 236.236 396.43 220.726 396.43C205.326 396.43 193.006 384.11 193.006 369.04C193.006 353.86 205.326 341.76 220.726 341.76C236.236 341.76 248.556 353.86 248.556 369.04ZM235.246 369.04C235.246 361.34 228.756 354.74 220.726 354.74C212.806 354.74 206.316 361.34 206.316 369.04C206.316 376.85 212.806 383.45 220.726 383.45C228.756 383.45 235.246 376.85 235.246 369.04ZM282.018 383.56V395.55C280.478 395.99 278.388 396.43 276.188 396.43C266.178 396.43 260.678 390.93 260.678 381.03V313.6H274.208V377.95C274.208 381.47 275.198 383.67 279.928 383.67C280.368 383.67 281.248 383.67 282.018 383.56ZM319.88 395H305.69L284.68 342.75H299.42L312.73 378.17L326.15 342.75H340.89L319.88 395ZM398.888 373.33H359.068C360.608 379.71 365.778 384.22 373.588 384.22C378.318 384.22 383.378 382.46 386.458 378.39L395.698 385.76C390.968 392.47 382.608 396.43 373.698 396.43C357.968 396.43 345.868 384.66 345.868 369.37C345.868 354.52 356.318 341.76 372.928 341.76C388.328 341.76 399.218 354.3 399.218 369.04C399.218 370.47 399.108 372.01 398.888 373.33ZM359.508 363.43H385.578C384.808 358.15 379.308 354.08 372.818 354.08C366.548 354.08 361.488 357.82 359.508 363.43ZM424.813 395H411.283V342.75H424.813V346.6C429.873 342.86 434.823 341.76 444.943 341.76V354.74C427.673 354.74 424.813 359.58 424.813 368.6V395Z" fill="#242424"/>
<path d="M2855.18 333H2840.11L2808.1 251.6H2823.94L2847.59 315.07L2871.24 251.6H2887.08L2855.18 333ZM2947.61 307.04C2947.61 322.11 2935.29 334.43 2919.78 334.43C2904.38 334.43 2892.06 322.11 2892.06 307.04C2892.06 291.86 2904.38 279.76 2919.78 279.76C2935.29 279.76 2947.61 291.86 2947.61 307.04ZM2934.3 307.04C2934.3 299.34 2927.81 292.74 2919.78 292.74C2911.86 292.74 2905.37 299.34 2905.37 307.04C2905.37 314.85 2911.86 321.45 2919.78 321.45C2927.81 321.45 2934.3 314.85 2934.3 307.04ZM2995.26 314.74L3006.7 321.56C3001.86 329.26 2993.06 334.43 2983.05 334.43C2967.65 334.43 2955.33 322.11 2955.33 307.04C2955.33 291.86 2967.65 279.76 2983.05 279.76C2992.95 279.76 3001.53 284.71 3006.48 292.19L2994.93 298.9C2992.29 295.16 2988 292.74 2983.05 292.74C2975.13 292.74 2968.64 299.34 2968.64 307.04C2968.64 314.85 2975.13 321.45 2983.05 321.45C2988.22 321.45 2992.73 318.81 2995.26 314.74ZM3069.11 333H3055.58V329.59C3051.4 333 3046.45 334.43 3041.06 334.43C3025.66 334.43 3013.34 322.11 3013.34 307.04C3013.34 291.86 3025.66 279.76 3041.06 279.76C3046.34 279.76 3051.29 281.19 3055.58 284.6V280.75H3069.11V333ZM3055.58 307.04C3055.58 299.34 3049.09 292.74 3041.06 292.74C3033.14 292.74 3026.65 299.34 3026.65 307.04C3026.65 314.85 3033.14 321.45 3041.06 321.45C3049.09 321.45 3055.58 314.85 3055.58 307.04ZM3106.97 321.56V333.55C3105.43 333.99 3103.34 334.43 3101.14 334.43C3091.13 334.43 3085.63 328.93 3085.63 319.03V251.6H3099.16V315.95C3099.16 319.47 3100.15 321.67 3104.88 321.67C3105.32 321.67 3106.2 321.67 3106.97 321.56Z" fill="#242424"/>
<path d="M2660.94 1415H2608.8V1333.6H2623.21V1401.14H2660.94V1415ZM2723.1 1389.04C2723.1 1404.11 2710.78 1416.43 2695.27 1416.43C2679.87 1416.43 2667.55 1404.11 2667.55 1389.04C2667.55 1373.86 2679.87 1361.76 2695.27 1361.76C2710.78 1361.76 2723.1 1373.86 2723.1 1389.04ZM2709.79 1389.04C2709.79 1381.34 2703.3 1374.74 2695.27 1374.74C2687.35 1374.74 2680.86 1381.34 2680.86 1389.04C2680.86 1396.85 2687.35 1403.45 2695.27 1403.45C2703.3 1403.45 2709.79 1396.85 2709.79 1389.04ZM2761.66 1415H2747.47L2726.46 1362.75H2741.2L2754.51 1398.17L2767.93 1362.75H2782.67L2761.66 1415ZM2840.67 1393.33H2800.85C2802.39 1399.71 2807.56 1404.22 2815.37 1404.22C2820.1 1404.22 2825.16 1402.46 2828.24 1398.39L2837.48 1405.76C2832.75 1412.47 2824.39 1416.43 2815.48 1416.43C2799.75 1416.43 2787.65 1404.66 2787.65 1389.37C2787.65 1374.52 2798.1 1361.76 2814.71 1361.76C2830.11 1361.76 2841 1374.3 2841 1389.04C2841 1390.47 2840.89 1392.01 2840.67 1393.33ZM2801.29 1383.43H2827.36C2826.59 1378.15 2821.09 1374.08 2814.6 1374.08C2808.33 1374.08 2803.27 1377.82 2801.29 1383.43ZM2910.87 1403.12V1415.11C2910.87 1415.11 2906.91 1416.43 2900.42 1416.43C2890.19 1416.43 2884.91 1409.72 2884.91 1399.49V1375.73H2876.66V1362.75H2884.91V1345.04H2898.44V1362.75H2912.3V1375.73H2898.44V1396.63C2898.44 1400.26 2899.43 1403.67 2904.27 1403.67C2907.68 1403.67 2910.87 1403.12 2910.87 1403.12ZM2977.15 1389.04C2977.15 1404.11 2964.83 1416.43 2949.32 1416.43C2933.92 1416.43 2921.6 1404.11 2921.6 1389.04C2921.6 1373.86 2933.92 1361.76 2949.32 1361.76C2964.83 1361.76 2977.15 1373.86 2977.15 1389.04ZM2963.84 1389.04C2963.84 1381.34 2957.35 1374.74 2949.32 1374.74C2941.4 1374.74 2934.91 1381.34 2934.91 1389.04C2934.91 1396.85 2941.4 1403.45 2949.32 1403.45C2957.35 1403.45 2963.84 1396.85 2963.84 1389.04ZM3033.88 1415H3019.47V1333.6H3048.29C3067.65 1333.6 3076.23 1345.92 3076.23 1360.66C3076.23 1375.4 3067.65 1387.83 3048.29 1387.83H3033.88V1415ZM3033.88 1373.97H3048.29C3057.86 1373.97 3061.93 1368.03 3061.93 1360.77C3061.93 1353.51 3057.86 1347.46 3048.29 1347.46H3033.88V1373.97ZM3108.05 1403.56V1415.55C3106.51 1415.99 3104.42 1416.43 3102.22 1416.43C3092.21 1416.43 3086.71 1410.93 3086.71 1401.03V1333.6H3100.24V1397.95C3100.24 1401.47 3101.23 1403.67 3105.96 1403.67C3106.4 1403.67 3107.28 1403.67 3108.05 1403.56ZM3169.23 1415H3155.7V1411.59C3151.52 1415 3146.57 1416.43 3141.18 1416.43C3125.78 1416.43 3113.46 1404.11 3113.46 1389.04C3113.46 1373.86 3125.78 1361.76 3141.18 1361.76C3146.46 1361.76 3151.41 1363.19 3155.7 1366.6V1362.75H3169.23V1415ZM3155.7 1389.04C3155.7 1381.34 3149.21 1374.74 3141.18 1374.74C3133.26 1374.74 3126.77 1381.34 3126.77 1389.04C3126.77 1396.85 3133.26 1403.45 3141.18 1403.45C3149.21 1403.45 3155.7 1396.85 3155.7 1389.04ZM3204.01 1442.83H3190.81L3200.27 1416.43L3178.6 1362.75H3193.56L3206.65 1398.83L3219.63 1362.75H3232.94L3204.01 1442.83Z" fill="#242424"/>
<path d="M130.1 1290.02L139.12 1280.67C143.63 1285.84 149.02 1291.23 158.04 1291.23C167.28 1291.23 170.91 1285.51 170.91 1280.45C170.91 1264.5 134.17 1270.33 134.17 1243.6C134.17 1228.86 145.28 1220.17 160.46 1220.17C167.72 1220.17 174.54 1222.15 182.35 1227.87L174.87 1239.09C170.25 1235.02 164.86 1233.37 159.8 1233.37C152.65 1233.37 148.47 1236.67 148.47 1242.17C148.47 1258.56 185.32 1251.08 185.32 1279.79C185.32 1294.31 175.97 1304.43 157.93 1304.43C148.36 1304.43 138.57 1301.57 130.1 1290.02ZM248.556 1277.04C248.556 1292.11 236.236 1304.43 220.726 1304.43C205.326 1304.43 193.006 1292.11 193.006 1277.04C193.006 1261.86 205.326 1249.76 220.726 1249.76C236.236 1249.76 248.556 1261.86 248.556 1277.04ZM235.246 1277.04C235.246 1269.34 228.756 1262.74 220.726 1262.74C212.806 1262.74 206.316 1269.34 206.316 1277.04C206.316 1284.85 212.806 1291.45 220.726 1291.45C228.756 1291.45 235.246 1284.85 235.246 1277.04ZM296.208 1284.74L307.648 1291.56C302.808 1299.26 294.008 1304.43 283.998 1304.43C268.598 1304.43 256.278 1292.11 256.278 1277.04C256.278 1261.86 268.598 1249.76 283.998 1249.76C293.898 1249.76 302.478 1254.71 307.428 1262.19L295.878 1268.9C293.238 1265.16 288.948 1262.74 283.998 1262.74C276.078 1262.74 269.588 1269.34 269.588 1277.04C269.588 1284.85 276.078 1291.45 283.998 1291.45C289.168 1291.45 293.678 1288.81 296.208 1284.74ZM332.326 1303H318.796V1250.75H332.326V1303ZM325.616 1242.06C320.776 1242.06 317.036 1238.32 317.036 1233.48C317.036 1228.64 320.776 1225.01 325.616 1225.01C330.456 1225.01 334.086 1228.64 334.086 1233.48C334.086 1238.32 330.456 1242.06 325.616 1242.06ZM400.349 1303H386.819V1299.59C382.639 1303 377.689 1304.43 372.299 1304.43C356.899 1304.43 344.579 1292.11 344.579 1277.04C344.579 1261.86 356.899 1249.76 372.299 1249.76C377.579 1249.76 382.529 1251.19 386.819 1254.6V1250.75H400.349V1303ZM386.819 1277.04C386.819 1269.34 380.329 1262.74 372.299 1262.74C364.379 1262.74 357.889 1269.34 357.889 1277.04C357.889 1284.85 364.379 1291.45 372.299 1291.45C380.329 1291.45 386.819 1284.85 386.819 1277.04ZM438.209 1291.56V1303.55C436.669 1303.99 434.579 1304.43 432.379 1304.43C422.369 1304.43 416.869 1298.93 416.869 1289.03V1221.6H430.399V1285.95C430.399 1289.47 431.389 1291.67 436.119 1291.67C436.559 1291.67 437.439 1291.67 438.209 1291.56Z" fill="#242424"/>
<path d="M2440.85 429.866L2439.41 429.173L2381.93 352.732C2379.96 350.144 2376.51 348.249 2372.37 347.52C2314.88 337.568 2256.02 329.075 2197.42 322.259L2191.26 321.53V269.22L2197.74 268.673C2209.48 267.653 2220.69 267.142 2231.16 267.142C2246.35 267.142 2259.52 268.272 2270.2 270.46C2283.54 273.194 2299.64 274.615 2318.13 274.615C2348.41 274.615 2374.55 270.861 2375.61 270.678C2382.41 269.694 2387.35 265.502 2387.35 260.727V182.938C2387.35 179.839 2385.33 176.96 2381.83 175.028C2379.17 173.57 2375.88 172.768 2372.48 172.768C2371.47 172.768 2370.4 172.841 2369.39 172.986C2369.13 173.023 2344.8 176.559 2317.86 176.559C2302.66 176.559 2289.49 175.429 2278.76 173.205C2265.42 170.435 2249.22 169.013 2230.73 169.013C2218.78 169.013 2206.13 169.596 2193.17 170.726L2189.5 171.054L2186.9 169.232C2184.08 167.263 2180.31 166.206 2176.33 166.206C2168.15 166.206 2161.51 170.763 2161.51 176.376V318.285L2153 317.41C2053.55 307.203 1953.09 301.699 1854.43 300.97L1847.1 300.897V252.014L1853.58 251.467C1865.32 250.447 1876.53 249.936 1886.99 249.936C1902.19 249.936 1915.36 251.066 1926.04 253.254C1939.38 255.988 1955.48 257.409 1973.96 257.409C2004.25 257.409 2030.39 253.655 2031.45 253.472C2038.25 252.488 2043.19 248.296 2043.19 243.521L2043.3 165.696C2043.3 162.597 2041.28 159.717 2037.77 157.785C2035.12 156.327 2031.82 155.525 2028.47 155.525C2027.41 155.525 2026.4 155.598 2025.34 155.744C2025.07 155.78 2000.69 159.316 1973.81 159.316C1958.61 159.316 1945.44 158.186 1934.65 155.963C1921.31 153.192 1905.11 151.771 1886.62 151.771C1874.67 151.771 1862.02 152.354 1849.06 153.484L1845.4 153.812L1842.79 152.026C1839.98 150.057 1836.2 149 1832.22 149C1824.04 149 1817.4 153.557 1817.4 159.17V300.901L1810.07 300.938C1708.75 301.667 1605.63 307.426 1503.63 318.106L1495.07 319.018V269.224L1501.56 268.677C1513.3 267.657 1524.56 267.146 1534.97 267.146C1550.17 267.146 1563.34 268.276 1574.02 270.464C1587.36 273.197 1603.46 274.619 1621.94 274.619C1652.23 274.619 1678.36 270.865 1679.43 270.682C1686.23 269.698 1691.17 265.506 1691.17 260.731V182.942C1691.17 179.843 1689.15 176.964 1685.64 175.032C1682.99 173.574 1679.69 172.772 1676.29 172.772C1675.28 172.772 1674.22 172.844 1673.21 172.99C1672.95 173.027 1648.61 176.563 1621.68 176.563C1606.48 176.563 1593.31 175.433 1582.58 173.209C1569.24 170.438 1553.09 169.017 1534.6 169.017C1522.65 169.017 1510 169.6 1497.04 170.73L1493.37 171.058L1490.77 169.236C1487.95 167.267 1484.18 166.21 1480.2 166.21C1472.02 166.21 1465.38 170.767 1465.38 176.38V322.338L1459.21 323.067C1403.27 329.702 1346.79 337.941 1291.33 347.527C1287.18 348.22 1283.73 350.115 1281.76 352.74L1223.96 429.618L1222.79 430.274C1218.75 432.534 1216.73 436.143 1217.53 439.679C1240.69 544.045 1267.47 641.115 1291.06 726.818C1304.34 774.935 1316.83 820.388 1327.51 862.493L1327.82 863.514V904.049H1271.35C1263.17 904.049 1256.53 908.606 1256.53 914.219V967.658C1256.53 973.272 1263.17 977.828 1271.35 977.828H2392.66C2400.85 977.828 2407.49 973.272 2407.49 967.658V914.219C2407.49 908.605 2400.85 904.049 2392.66 904.049H2336.19V865.884H2328.33L2330.35 859.687C2377.79 712.525 2399.68 626.103 2432.83 495.234L2433.26 493.484C2437.56 476.497 2442.07 458.708 2446.86 439.899C2447.87 436.035 2445.53 432.171 2440.85 429.875L2440.85 429.866ZM1305.18 366.111L1308.48 365.564C1481.36 336.256 1657.47 321.383 1831.94 321.383C2006.42 321.383 2182.53 336.256 2355.41 365.564L2358.7 366.111L2401.79 423.413L2386.76 421.409C2202.3 396.767 2015.71 384.263 1832.1 384.263C1648.33 384.263 1461.59 396.804 1277.12 421.518L1262.09 423.523L1305.28 366.147L1305.18 366.111ZM2197.1 732.458V850.562H2098.91V732.458C2098.91 715.326 2120.91 701.365 2148 701.365C2175.1 701.365 2197.1 715.326 2197.1 732.458ZM1933.47 771.025V850.563H1730.41V771.025C1730.41 732.604 1775.94 701.365 1831.94 701.365C1887.94 701.365 1933.47 732.605 1933.47 771.025ZM1554.04 732.458V850.562H1455.86V732.458C1455.86 715.326 1477.85 701.365 1504.95 701.365C1532.04 701.365 1554.04 715.326 1554.04 732.458ZM1357.57 870.905H2306.6V904.004H1357.57V870.905ZM2377.9 924.381V957.48H1286.28V924.381H2377.9ZM2389.65 546.844C2386.56 559.056 2383.48 570.975 2380.45 582.676L2379.23 587.525L2372.17 586.832C2193.76 569.626 2012.11 560.878 1832.23 560.878C1652.33 560.878 1469.69 569.663 1290.85 586.942L1283.79 587.635L1282.51 582.787C1279.43 570.94 1276.35 558.947 1273.27 546.808L1271.94 541.595L1279.59 540.903C1459.21 524.536 1643.52 516.261 1827.39 516.261C2011.31 516.261 2198.28 524.536 2383.26 540.866L2390.97 541.559L2389.64 546.808L2389.65 546.844Z" fill="#003DA5"/>
<mask id="mask0_2038_1371" style="mask-type:alpha" maskUnits="userSpaceOnUse" x="952" y="670" width="1596" height="1014">
<path fill-rule="evenodd" clip-rule="evenodd" d="M952 1202.35V848.91C1006.72 848.91 1055.02 819.498 1085.08 781.755C1085.65 781.043 1086.15 780.331 1086.72 779.69C1104.61 756.546 1115.86 730.411 1115.86 705.841C1115.86 686.187 1131.82 670.235 1151.49 670.235C1171.15 670.235 1187.11 686.187 1187.11 705.841C1187.11 730.482 1198.36 756.618 1216.25 779.69C1216.82 780.402 1217.32 781.115 1217.89 781.755C1247.95 819.498 1296.25 848.91 1350.97 848.91C1405.69 848.91 1453.99 819.498 1484.05 781.755C1484.62 781.043 1485.12 780.331 1485.69 779.69C1503.58 756.546 1514.83 730.411 1514.83 705.841C1514.83 686.187 1530.79 670.235 1550.46 670.235C1570.12 670.235 1586.08 686.187 1586.08 705.841C1586.08 730.482 1597.33 756.618 1615.22 779.69C1615.79 780.402 1616.29 781.115 1616.86 781.755C1646.92 819.498 1695.22 848.91 1749.94 848.91C1804.66 848.91 1852.96 819.498 1883.02 781.755C1883.59 781.043 1884.09 780.331 1884.66 779.69C1902.55 756.546 1913.8 730.411 1913.8 705.841C1913.8 686.187 1929.76 670.235 1949.43 670.235C1969.09 670.235 1985.05 686.187 1985.05 705.841C1985.05 730.482 1996.3 756.618 2014.19 779.69C2014.76 780.402 2015.26 781.115 2015.83 781.755C2045.89 819.498 2094.19 848.91 2148.91 848.91C2203.63 848.91 2251.93 819.498 2281.99 781.755C2282.56 781.043 2283.06 780.331 2283.63 779.69C2301.52 756.546 2312.77 730.411 2312.77 705.841C2312.77 686.187 2328.73 670.235 2348.4 670.235C2368.06 670.235 2384.02 686.187 2384.02 705.841C2384.02 730.482 2395.27 756.618 2413.16 779.69C2413.73 780.402 2414.23 781.115 2414.8 781.755C2444.86 819.498 2493.16 848.91 2547.88 848.91V1202.35C2515.89 1202.35 2488.11 1184.19 2470.58 1162.04C2462.53 1151.93 2455.33 1141.25 2455.33 1130.42C2455.33 1071.46 2407.53 1023.6 2348.47 1023.6C2289.48 1023.6 2241.6 1071.39 2241.6 1130.42C2241.6 1141.32 2234.4 1151.93 2226.35 1162.04C2208.76 1184.12 2181.04 1202.35 2149.05 1202.35C2117.06 1202.35 2089.28 1184.19 2071.75 1162.04C2063.7 1151.93 2056.51 1141.25 2056.51 1130.42C2056.51 1071.46 2008.7 1023.6 1949.64 1023.6C1890.65 1023.6 1842.77 1071.39 1842.77 1130.42C1842.77 1141.32 1835.58 1151.93 1827.53 1162.04C1809.93 1184.12 1782.21 1202.35 1750.22 1202.35C1718.24 1202.35 1690.45 1184.19 1672.92 1162.04C1664.87 1151.93 1657.68 1141.25 1657.68 1130.42C1657.68 1071.46 1609.87 1023.6 1550.81 1023.6C1491.82 1023.6 1443.94 1071.39 1443.94 1130.42C1443.94 1141.32 1436.75 1151.93 1428.7 1162.04C1411.1 1184.12 1383.39 1202.35 1351.4 1202.35C1319.41 1202.35 1291.62 1184.19 1274.1 1162.04C1266.05 1151.93 1258.85 1141.25 1258.85 1130.42C1258.85 1071.46 1211.05 1023.6 1151.98 1023.6C1092.99 1023.6 1045.12 1071.39 1045.12 1130.42C1045.12 1141.32 1037.92 1151.93 1029.87 1162.04C1012.27 1184.12 984.558 1202.35 952.57 1202.35H952ZM987.622 1683.75C967.959 1683.75 952 1667.8 952 1648.14V1273.48C1006.72 1273.48 1055.02 1244.07 1085.08 1206.33C1103.89 1182.68 1115.86 1155.7 1115.86 1130.34C1115.86 1110.69 1131.82 1094.74 1151.48 1094.74C1171.15 1094.74 1187.11 1110.69 1187.11 1130.34C1187.11 1155.69 1199.08 1182.68 1217.88 1206.33C1247.95 1244.07 1296.25 1273.48 1350.97 1273.48C1405.68 1273.48 1453.99 1244.07 1484.05 1206.33C1502.86 1182.68 1514.83 1155.7 1514.83 1130.34C1514.83 1110.69 1530.79 1094.74 1550.45 1094.74C1570.12 1094.74 1586.07 1110.69 1586.07 1130.34C1586.07 1155.69 1598.04 1182.68 1616.85 1206.33C1646.92 1244.07 1695.22 1273.48 1749.94 1273.48C1804.65 1273.48 1852.96 1244.07 1883.02 1206.33C1901.83 1182.68 1913.8 1155.7 1913.8 1130.34C1913.8 1110.69 1929.76 1094.74 1949.42 1094.74C1969.08 1094.74 1985.04 1110.69 1985.04 1130.34C1985.04 1155.69 1997.01 1182.68 2015.82 1206.33C2045.88 1244.07 2094.19 1273.48 2148.91 1273.48C2203.62 1273.48 2251.92 1244.07 2281.99 1206.33C2300.8 1182.68 2312.77 1155.7 2312.77 1130.34C2312.77 1110.69 2328.73 1094.74 2348.39 1094.74C2368.05 1094.74 2384.01 1110.69 2384.01 1130.34C2384.01 1155.69 2395.98 1182.68 2414.79 1206.33C2444.85 1244.07 2493.16 1273.48 2547.87 1273.48V1648.14C2547.87 1667.8 2531.92 1683.75 2512.25 1683.75H987.622Z" fill="#00A7B5"/>
</mask>
<g mask="url(#mask0_2038_1371)">
<path d="M2546.76 969.463C2546.76 1303.53 1731.96 1667.66 1352.58 1667.66C973.194 1667.66 1127.35 1351.8 1127.35 1017.73C1127.35 683.654 1480.44 364.573 1859.83 364.573C2239.21 364.573 2546.76 635.391 2546.76 969.463Z" fill="#00A7B5"/>
</g>
<path d="M2180.96 1317.91C2189.4 1331.44 2200.21 1350.25 2210.25 1369.42C2222.49 1392.79 2233.18 1415.97 2237.25 1430.63L2237.27 1430.7L2237.3 1430.77C2242.44 1448.02 2243.6 1458.89 2242.77 1465.35C2242.37 1468.47 2241.56 1470.09 2240.93 1470.92C2240.38 1471.64 2239.69 1472.13 2238.59 1472.44C2235.84 1473.22 2231.03 1472.76 2223.98 1470.36C2217.25 1468.06 2209.83 1464.48 2202.55 1460.71L2202.46 1460.67L2202.37 1460.62L2200.42 1459.66C2189.72 1454.31 2164.85 1440.94 2138.01 1426.77C2115.98 1415.14 2092.63 1402.97 2075.32 1394.59C2110.8 1371.21 2153.34 1341.51 2180.96 1317.91Z" fill="url(#paint0_linear_2038_1371)" stroke="black" stroke-width="16.0875"/>
<path d="M1231.87 806.278C1233.33 805.805 1236.48 805.483 1241.8 805.906C1246.93 806.314 1253.28 807.338 1260.63 808.912C1275.31 812.058 1293.31 817.258 1312.13 823.483C1349.82 835.948 1389.99 852.247 1412.24 863.632L1417.61 866.38L1421.75 861.993C1440.4 842.244 1465.79 818.46 1489.09 801.321C1500.78 792.722 1511.6 786.055 1520.56 782.325C1529.89 778.445 1534.77 778.751 1536.83 779.838C1538.89 781.309 1541.74 784.847 1544.17 791.671C1546.63 798.548 1548.39 808.04 1548.7 820.158C1549.3 844.361 1544.03 878.261 1527.8 920.876C1492.83 1010.92 1505.79 1067.76 1533.54 1102.7C1560.76 1136.96 1600.59 1148.05 1615.81 1150.27L1615.86 1150.28L1615.91 1150.29C1670.49 1157.56 1747.37 1157.05 1828.22 1110.59C1865.53 1092.58 1903.56 1064.05 1935.87 1037.13C1952.11 1023.61 1967.01 1010.4 1979.73 999.029C1992.53 987.59 2002.94 978.175 2010.48 971.972L2010.48 971.973C2019.36 964.682 2028.32 956.409 2037.44 948.139C2046.63 939.803 2056.1 931.361 2066.33 923.383C2086.73 907.466 2109.96 893.567 2139.03 886.681L2139.04 886.679C2207.63 870.319 2263.92 887.867 2292.24 928.455L2296.41 934.431L2302.76 930.871C2318.25 922.202 2336.78 909.743 2354.95 897.347C2373.29 884.843 2391.27 872.401 2406.12 863.372L2406.17 863.34L2406.23 863.306C2411.88 859.745 2419.76 857.702 2428.02 857.926C2436.25 858.15 2444.17 860.606 2450.09 865.208C2455.83 869.671 2460.12 876.455 2460.97 886.474C2461.84 896.729 2459.11 910.83 2449.63 929.432L2449.61 929.471C2411.13 1005.98 2370.22 1118.78 2227.9 1269.73C2195.46 1303.28 2132.28 1360.54 2063.58 1401.76L2063.5 1401.81L2063.42 1401.86C2025.85 1425.58 1999.89 1443.89 1961.13 1436.14C1982.57 1396.72 1997.11 1362.81 2002.21 1346.01C2003.13 1342.97 2003.8 1340.55 2004.22 1338.73C2004.43 1337.84 2004.61 1336.91 2004.72 1336.05C2004.77 1335.63 2004.82 1335.05 2004.81 1334.41C2004.8 1333.94 2004.77 1332.58 2004.12 1331.06C2003.77 1330.23 2003.07 1328.96 2001.72 1327.87C2000.24 1326.67 1998.43 1326.06 1996.62 1326.05C1993.61 1326.03 1991.65 1327.66 1991.27 1327.98C1990.09 1328.94 1989.31 1330.11 1989.02 1330.55C1988.21 1331.77 1987.3 1333.43 1986.39 1335.2C1982.7 1342.42 1976.5 1356.4 1969.99 1371.56C1963.43 1386.81 1956.43 1403.54 1951.06 1416.45C1948.38 1422.9 1946.11 1428.41 1944.51 1432.3C1944.1 1433.3 1943.73 1434.2 1943.41 1434.98C1934.34 1451.31 1924.09 1468.53 1912.83 1485.79C1872.84 1547.11 1821.28 1607.22 1766.28 1631.42L1766.25 1631.43L1766.23 1631.44C1749.63 1638.88 1738.79 1641.23 1732.05 1640.95C1728.82 1640.82 1726.85 1640.1 1725.64 1639.33C1724.47 1638.6 1723.56 1637.56 1722.85 1636C1721.26 1632.49 1720.87 1626.76 1722 1618.89C1723.09 1611.27 1725.43 1602.83 1728.03 1594.71L1728.08 1594.56L1728.12 1594.4C1734.52 1571.36 1740.53 1533.83 1747.62 1489.05L1750.72 1469.44L1762.8 1393.42C1762.83 1393.23 1762.86 1393.05 1762.88 1392.89C1762.89 1392.86 1762.89 1392.83 1762.9 1392.8C1762.96 1392.4 1763.01 1392.11 1763.04 1391.95C1763.05 1391.86 1763.06 1391.81 1763.06 1391.78C1763.06 1391.78 1763.06 1391.77 1763.06 1391.77L1763.06 1391.76L1762.75 1391.34C1756.1 1382.76 1747.17 1389.24 1747.17 1389.24L1747.18 1389.24C1747.18 1389.24 1747.17 1389.24 1747.17 1389.24C1747.17 1389.25 1747.17 1389.25 1747.17 1389.26C1747.17 1389.28 1747.16 1389.34 1747.15 1389.42C1747.12 1389.59 1747.07 1389.87 1747.01 1390.27C1746.93 1390.77 1746.83 1391.44 1746.69 1392.3C1745.27 1401.21 1740.95 1428.41 1736.13 1458.78C1667.41 1445.72 1584.48 1417.19 1530.04 1366.75L1530.03 1366.74C1448.79 1291.59 1406.49 1211.39 1379.62 1066.61L1379.61 1066.53L1379.59 1066.46L1379.37 1065.42C1374.6 1043.77 1360.47 1024.87 1342.07 1006.18C1324.61 988.448 1302.08 969.778 1278.28 948.74L1273.5 944.5C1245.14 918.856 1228.83 884.993 1223.18 856.534C1220.35 842.27 1220.29 829.846 1222.37 820.779C1224.49 811.501 1228.34 807.468 1231.87 806.278Z" fill="url(#paint1_linear_2038_1371)" stroke="black" stroke-width="16.0875"/>
<circle cx="2139.81" cy="1004.87" r="56.821" transform="rotate(-5.71193 2139.81 1004.87)" fill="white" stroke="black" stroke-width="16.0875"/>
<circle cx="2151.91" cy="982.11" r="20.376" transform="rotate(-5.71193 2151.91 982.11)" fill="black"/>
<ellipse cx="1967.13" cy="1023.96" rx="9.16557" ry="21.5137" transform="rotate(40.4005 1967.13 1023.96)" fill="black"/>
<path d="M2453.31 882.778C2347.3 1034.72 2287.13 1081.35 2137.65 1139.99" stroke="black" stroke-width="16.0875" stroke-linecap="round"/>
<path d="M1887.13 800.721C1887.13 800.721 1873.45 820.513 1869.16 838.044C1863.59 860.803 1871.37 897.917 1871.37 897.917L1913.45 969.313L1935.24 982.817L2040.49 870.361L2060.85 800.341L2048.69 754.951L2031.96 758.823C2031.96 758.823 1974.96 728.93 1930.04 754.972C1885.12 781.014 1911.44 770.419 1911.44 770.419L1887.13 800.721Z" fill="black"/>
<path d="M1943.86 750.754C1967.14 741.322 1998.32 739.732 2037.19 761.342C2036.89 762.607 2036.55 764.06 2036.21 765.59L2031.29 762.544C2029.82 761.635 2028.06 761.69 2026.53 762.494L2026.52 762.498L2026.34 762.603C2024.44 763.713 2023.51 765.754 2022.76 767.24C2021.91 768.924 2021.22 770.098 2019.94 770.65L2019.88 770.677L2019.82 770.71C2018.28 771.581 2016.86 771.643 2015.69 771.092C1999.72 763.472 1971.3 751.951 1943.86 750.754Z" fill="black" stroke="black" stroke-width="2.79697"/>
<path d="M1871.36 832.426C1874.02 822.878 1879.94 808.239 1892.49 786.25L1892.49 786.25C1904.73 764.863 1928.49 761.278 1952.4 764.562C1974.75 767.633 1996.74 776.66 2008.3 782.011L2010.47 783.028C2016.76 786.122 2024.76 783.183 2029.69 776.802L2041.16 783.911C2041.74 791.254 2040.98 819.714 2006.35 878.877L1995.83 872.358C1999.52 864.065 2000.57 855.119 1999.02 847.361C1997.51 839.786 1993.51 833.286 1987.05 829.792L1987.09 829.715L1985.5 829.027C1971.11 822.82 1949.31 814.069 1927.3 812.257C1907.04 810.589 1886.44 814.797 1871.36 832.426Z" fill="black" stroke="black" stroke-width="2.79697"/>
<path d="M1911.88 967.675C1912.95 968.457 1913.98 969.182 1915.01 969.934L1915.03 969.951C1920.27 973.597 1926.97 973.257 1932.87 969.423L1932.88 969.42C1948.55 959.144 1986.35 931.714 2007.65 893.717C2009.38 893.494 2011.03 892.337 2012.07 890.561L2012.07 890.561C2012.07 890.56 2012.08 890.558 2012.08 890.557C2012.08 890.554 2012.08 890.551 2012.08 890.548L2012.08 890.548C2016.85 882.59 2021.11 875.087 2024.86 868.038C2058.32 805.04 2052.1 778.847 2051.52 776.772C2051.31 775.857 2050.79 775.121 2050.25 774.554C2049.69 773.969 2049.01 773.472 2048.36 773.055C2047.72 772.636 2047.04 772.259 2046.48 771.94C2046.29 771.832 2046.11 771.732 2045.96 771.641C2047.03 766.54 2048.37 761.169 2048.84 759.327C2049.14 758.246 2049.28 757.34 2049.23 756.402L2076.22 752.776L2076.24 752.773L2076.26 752.77C2084.58 751.358 2091.73 755.459 2096.03 762.417C2100.35 769.401 2101.79 779.286 2098.46 789.25L2098.46 789.266L2098.45 789.283L2084.59 834.344C2072.72 872.861 2047.97 906.216 2016.57 925.391L2015.07 926.294L1978.29 948.115L1978.08 948.239L1977.93 948.436L1959.19 972.394C1955.64 976.927 1951.04 980.245 1946.27 981.764L1926.42 988.086L1926.42 988.085C1923.45 989.015 1920.7 988.567 1918.56 987.152C1916.42 985.737 1914.78 983.276 1914.16 979.949L1914.16 979.948L1911.88 967.675Z" fill="black" stroke="black" stroke-width="2.79697"/>
<path d="M1870.84 854.093C1876.25 841.851 1884 834.223 1892.98 829.794C1902.03 825.335 1912.41 824.079 1923.06 824.752C1944.38 826.099 1966.48 835.142 1980.45 841.068L1980.45 841.067C1987.79 844.398 1991.02 854.747 1986.96 865.101L1986.96 865.102L1983.66 873.539L1983.66 873.554C1982.61 876.334 1983.14 879.754 1985.62 881.294L1997.94 888.927C1978.23 923.525 1943.14 948.727 1928.39 958.381C1925.88 960.004 1923.38 960 1921.53 958.718C1911.33 951.572 1885.94 931.449 1874.68 901.214C1879.6 896.847 1889.42 888.842 1901.81 882.492C1914.84 875.809 1930.56 871.034 1946.32 874.08L1946.34 874.085C1949.91 874.698 1952.29 871.65 1953.04 868.88C1953.43 867.439 1953.47 865.809 1952.92 864.384C1952.34 862.878 1951.14 861.73 1949.35 861.39C1931.82 858.023 1914.83 862.721 1900.78 869.521C1887.92 875.74 1877.44 883.764 1871.11 889.173C1868.77 878.494 1868.34 866.768 1870.84 854.093Z" fill="black" stroke="black" stroke-width="2.79697"/>
<path d="M1892.89 801.436C1892.89 801.436 1880.2 819.797 1876.22 836.059C1871.05 857.171 1878.27 891.6 1878.27 891.6L1917.3 957.83L1937.52 970.357L2035.15 866.038L2054.04 801.084L2042.76 758.978L2027.24 762.57C2027.24 762.57 1974.37 734.84 1932.69 758.998C1891.02 783.156 1915.43 773.327 1915.43 773.327L1892.89 801.436Z" fill="black"/>
<path d="M1945.51 755.081C1967.1 746.331 1996.03 744.856 2032.09 764.902C2031.81 766.076 2031.5 767.424 2031.17 768.843L2026.61 766.017C2025.25 765.174 2023.62 765.225 2022.2 765.971L2022.19 765.974L2021.85 766.174C2020.2 767.223 2019.37 769.04 2018.7 770.374C2017.91 771.936 2017.27 773.025 2016.09 773.537L2016.03 773.562L2015.97 773.592L2015.71 773.736C2014.38 774.405 2013.16 774.426 2012.14 773.947C1997.33 766.878 1970.96 756.191 1945.51 755.081Z" fill="#FFCD00" stroke="black" stroke-width="2.59459"/>
<path d="M1878.26 830.843C1880.72 821.985 1886.21 808.406 1897.86 788.007L1897.86 788.008C1909.21 768.168 1931.26 764.842 1953.43 767.888C1974.16 770.736 1994.57 779.111 2005.29 784.074L2007.3 785.018C2013.14 787.889 2020.56 785.163 2025.13 779.243L2035.77 785.837C2036.3 792.649 2035.61 819.05 2003.48 873.932L1993.72 867.886C1997.14 860.192 1998.12 851.893 1996.68 844.697C1995.28 837.67 1991.56 831.641 1985.57 828.399L1985.62 828.328L1984.14 827.69C1970.79 821.931 1950.56 813.813 1930.15 812.132C1911.36 810.585 1892.25 814.489 1878.26 830.843Z" fill="#FFCD00" stroke="black" stroke-width="2.59459"/>
<path d="M1915.86 956.302C1916.85 957.028 1917.8 957.701 1918.76 958.398L1918.77 958.406L1918.78 958.414C1923.64 961.796 1929.86 961.48 1935.33 957.924L1935.34 957.921C1949.88 948.388 1984.94 922.943 2004.69 887.696C2006.3 887.489 2007.83 886.416 2008.8 884.768L2008.8 884.769C2008.8 884.767 2008.8 884.765 2008.81 884.764C2008.81 884.761 2008.81 884.758 2008.81 884.756L2008.81 884.755C2013.24 877.374 2017.19 870.414 2020.66 863.875C2051.74 805.356 2045.92 781.072 2045.39 779.204C2045.2 778.359 2044.72 777.679 2044.21 777.155C2043.69 776.612 2043.06 776.152 2042.47 775.765C2041.87 775.376 2041.24 775.025 2040.72 774.73C2040.54 774.63 2040.38 774.537 2040.23 774.452C2041.23 769.72 2042.47 764.737 2042.91 763.029L2042.91 763.029C2043.19 762.026 2043.32 761.186 2043.27 760.316L2068.31 756.952L2068.33 756.95L2068.35 756.946C2076.07 755.636 2082.69 759.442 2086.68 765.896C2090.69 772.375 2092.03 781.544 2088.94 790.787L2088.93 790.818L2076.07 832.619C2065.06 868.348 2042.1 899.29 2012.98 917.077L2011.59 917.915L1977.47 938.158L1977.27 938.273L1977.13 938.455L1959.75 960.68C1956.46 964.885 1952.19 967.962 1947.76 969.371L1947.76 969.372L1929.35 975.237C1926.59 976.098 1924.04 975.681 1922.06 974.37C1920.07 973.057 1918.55 970.774 1917.98 967.688L1915.86 956.302Z" fill="#FFCD00" stroke="black" stroke-width="2.59459"/>
<path d="M1877.78 850.941C1882.81 839.584 1890 832.507 1898.33 828.399C1906.72 824.263 1916.34 823.098 1926.23 823.722C1946.01 824.971 1966.51 833.359 1979.46 838.857L1979.46 838.857C1986.27 841.946 1989.27 851.546 1985.5 861.152L1985.5 861.154L1982.45 868.98L1982.44 868.986L1982.44 868.994C1981.47 871.572 1981.96 874.744 1984.26 876.173L1995.69 883.253C1977.98 914.338 1946.89 937.248 1932.52 946.795L1931.17 947.687C1928.84 949.187 1926.52 949.183 1924.81 947.998C1915.36 941.372 1891.8 922.704 1881.34 894.652C1885.91 890.601 1895.02 883.174 1906.51 877.284C1918.61 871.085 1933.19 866.656 1947.8 869.481L1947.81 869.484L1947.83 869.486C1951.13 870.055 1953.34 867.227 1954.04 864.657C1954.4 863.321 1954.44 861.808 1953.93 860.487C1953.42 859.177 1952.41 858.159 1950.92 857.777L1950.62 857.709C1934.36 854.586 1918.59 858.944 1905.56 865.252C1893.63 871.02 1883.91 878.464 1878.04 883.481C1875.87 873.575 1875.46 862.698 1877.78 850.941Z" fill="#FFCD00" stroke="black" stroke-width="2.59459"/>
<rect x="1955.86" y="822.858" width="57.915" height="41.8275" rx="6.435" transform="rotate(-65.9346 1955.86 822.858)" fill="black"/>
<line x1="1986.6" y1="824.044" x2="2001.03" y2="791.728" stroke="#ED1818" stroke-width="3.2175"/>
<line x1="1974.85" y1="818.796" x2="1989.28" y2="786.48" stroke="#FBFF00" stroke-width="3.2175"/>
<path d="M1389 1182L1309.62 1147.38L1319.32 1233.43L1389 1182ZM582 1273L582.84 1280.45L1322.77 1197.02L1321.93 1189.56L1321.08 1182.11L581.16 1265.55L582 1273Z" fill="#ED1818"/>
<path d="M1836 800L1788.01 727.91L1749.57 805.516L1836 800ZM883 328L879.671 334.721L1772.18 776.763L1775.51 770.042L1778.84 763.321L886.329 321.279L883 328Z" fill="#ED1818"/>
<path d="M2253 1399L2329.97 1438.7L2325.86 1352.19L2253 1399ZM2548 1385L2547.64 1377.51L2320.07 1388.31L2320.42 1395.8L2320.78 1403.29L2548.36 1392.49L2548 1385Z" fill="#ED1818"/>
<path d="M2458 819L2536.33 782.054L2465.17 732.695L2458 819ZM2775 362L2768.84 357.725L2490.31 759.262L2496.47 763.537L2502.63 767.812L2781.16 366.275L2775 362Z" fill="#ED1818"/>
<path d="M171.394 1418H135.97V1357.32H171.394V1365.27H144.334V1382.41H166.802V1390.28H144.334V1410.13H171.394V1418ZM217.586 1418H209.632V1397.58C209.632 1389.79 206.598 1385.77 200.12 1385.77C193.396 1385.77 190.198 1390.12 190.198 1398.16V1418H182.326V1379.05H190.198V1383.23C192.822 1380.28 196.02 1378.31 201.514 1378.31C210.78 1378.31 217.586 1383.72 217.586 1395.94V1418ZM237.846 1438.75H229.892V1379.05H237.846V1438.75ZM233.91 1371.34C231.04 1371.34 228.826 1369.13 228.826 1366.26C228.826 1363.39 231.04 1361.17 233.91 1361.17C236.78 1361.17 238.912 1363.39 238.912 1366.26C238.912 1369.13 236.78 1371.34 233.91 1371.34ZM288.673 1398.73C288.673 1409.88 279.407 1419.07 268.091 1419.07C256.857 1419.07 247.673 1409.96 247.673 1398.73C247.673 1387.58 256.693 1378.31 268.091 1378.31C279.407 1378.31 288.673 1387.5 288.673 1398.73ZM280.883 1398.65C280.883 1391.6 275.225 1385.77 268.173 1385.77C260.875 1385.77 255.463 1391.92 255.463 1398.81C255.463 1405.78 261.039 1411.69 268.173 1411.69C275.389 1411.69 280.883 1405.62 280.883 1398.65ZM309.343 1438.75H301.553L308.687 1418.74L292.779 1379.05H301.389L312.541 1408.32L323.037 1379.05H330.909L309.343 1438.75ZM334.464 1413.98L338.728 1407.91C342.664 1411.11 346.846 1411.93 349.634 1411.93C353.816 1411.93 356.112 1410.13 356.112 1407.5C356.112 1399.8 335.858 1404.55 335.858 1390.53C335.858 1383.4 341.106 1378.31 349.224 1378.31C352.504 1378.31 357.998 1379.13 362.426 1382.74L358.244 1388.56C354.8 1386.02 351.356 1385.53 349.306 1385.53C345.37 1385.53 343.648 1387.5 343.648 1389.63C343.648 1397.01 363.82 1392.99 363.82 1407.01C363.82 1414.47 358.162 1419.07 349.388 1419.07C343.566 1419.07 338.482 1417.02 334.464 1413.98ZM410.572 1411.6V1418.49C409.26 1418.82 407.866 1419.07 406.226 1419.07C399.83 1419.07 395.894 1415.21 395.894 1408.08V1357.32H403.766V1405.62C403.766 1409.8 404.75 1411.69 408.604 1411.69C409.096 1411.69 409.834 1411.69 410.572 1411.6ZM454.404 1401.35H422.506C423.572 1407.34 428.492 1411.93 435.134 1411.93C439.398 1411.93 443.58 1410.05 446.04 1406.6L451.616 1410.87C448.008 1415.95 441.858 1419.07 435.134 1419.07C423.818 1419.07 414.716 1410.21 414.716 1398.73C414.716 1387.82 422.998 1378.31 434.642 1378.31C446.204 1378.31 454.568 1387.74 454.568 1398.65C454.568 1399.71 454.486 1400.53 454.404 1401.35ZM422.752 1395.12H446.532C445.63 1389.71 440.874 1385.53 434.724 1385.53C428.656 1385.53 424.146 1389.63 422.752 1395.12ZM502.413 1418H494.541V1413.41C491.261 1417.26 486.751 1419.07 481.503 1419.07C469.941 1419.07 460.921 1410.13 460.921 1398.73C460.921 1387.17 470.105 1378.31 481.503 1378.31C486.751 1378.31 491.179 1380.2 494.541 1384.05V1379.05H502.413V1418ZM494.377 1398.73C494.377 1391.68 488.883 1385.77 481.503 1385.77C474.205 1385.77 468.711 1391.51 468.711 1398.73C468.711 1406.03 474.205 1411.69 481.503 1411.69C488.965 1411.69 494.377 1405.78 494.377 1398.73ZM523.403 1418H515.531V1379.05H523.403V1383.72C527.175 1379.21 531.029 1378.31 538.573 1378.31V1385.86C525.699 1385.86 523.403 1391.1 523.403 1397.83V1418ZM581.781 1418H573.827V1397.58C573.827 1389.79 570.793 1385.77 564.315 1385.77C557.591 1385.77 554.393 1390.12 554.393 1398.16V1418H546.521V1379.05H554.393V1383.23C557.017 1380.28 560.215 1378.31 565.709 1378.31C574.975 1378.31 581.781 1383.72 581.781 1395.94V1418ZM602.041 1418H594.087V1379.05H602.041V1418ZM598.105 1371.34C595.235 1371.34 593.021 1369.13 593.021 1366.26C593.021 1363.39 595.235 1361.17 598.105 1361.17C600.975 1361.17 603.107 1363.39 603.107 1366.26C603.107 1369.13 600.975 1371.34 598.105 1371.34ZM650.408 1418H642.454V1397.58C642.454 1389.79 639.42 1385.77 632.942 1385.77C626.218 1385.77 623.02 1390.12 623.02 1398.16V1418H615.148V1379.05H623.02V1383.23C625.644 1380.28 628.842 1378.31 634.336 1378.31C643.602 1378.31 650.408 1383.72 650.408 1395.94V1418ZM693.054 1416.2V1413.41C689.774 1417.26 685.264 1419.07 680.016 1419.07C668.454 1419.07 659.434 1410.13 659.434 1398.73C659.434 1387.17 668.618 1378.31 680.016 1378.31C685.264 1378.31 689.692 1380.2 693.054 1384.05V1379.05H700.926V1414.8C700.926 1434.32 689.036 1438.75 680.262 1438.75C672.39 1438.75 666.076 1435.14 662.386 1429.23L669.684 1426.12C671.98 1429.4 675.26 1431.37 680.18 1431.37C686.904 1431.37 693.054 1427.68 693.054 1416.2ZM692.89 1398.73C692.89 1391.68 687.396 1385.77 680.016 1385.77C672.718 1385.77 667.224 1391.51 667.224 1398.73C667.224 1406.03 672.718 1411.69 680.016 1411.69C687.478 1411.69 692.89 1405.78 692.89 1398.73ZM153.61 1498.11V1505.16C152.79 1505.49 150.33 1506.07 147.46 1506.07C137.866 1506.07 136.144 1499.75 136.144 1493.03V1473.51H129.994V1466.05H136.144V1452.85H144.098V1466.05H154.676V1473.51H144.098V1492.13C144.098 1496.55 145.082 1498.69 149.264 1498.69C150.658 1498.69 152.79 1498.44 153.61 1498.11ZM199.088 1505H191.134V1484.58C191.134 1476.79 188.1 1472.77 181.622 1472.77C174.898 1472.77 171.7 1477.12 171.7 1485.16V1505H163.828V1444.32H171.7V1470.23C174.324 1467.28 177.522 1465.31 183.016 1465.31C192.282 1465.31 199.088 1470.72 199.088 1482.94V1505ZM219.266 1505H211.394V1466.05H219.266V1470.72C223.038 1466.21 226.892 1465.31 234.436 1465.31V1472.86C221.562 1472.86 219.266 1478.1 219.266 1484.83V1505ZM280.104 1485.73C280.104 1496.88 270.838 1506.07 259.522 1506.07C248.288 1506.07 239.104 1496.96 239.104 1485.73C239.104 1474.58 248.124 1465.31 259.522 1465.31C270.838 1465.31 280.104 1474.5 280.104 1485.73ZM272.314 1485.65C272.314 1478.6 266.656 1472.77 259.604 1472.77C252.306 1472.77 246.894 1478.92 246.894 1485.81C246.894 1492.78 252.47 1498.69 259.604 1498.69C266.82 1498.69 272.314 1492.62 272.314 1485.65ZM316.765 1486.96V1466.05H324.637V1489.17C324.637 1501.39 317.831 1506.07 306.925 1506.07C296.019 1506.07 289.213 1501.39 289.213 1489.17V1466.05H297.167V1486.96C297.167 1494.26 298.889 1498.69 306.925 1498.69C315.043 1498.69 316.765 1494.26 316.765 1486.96ZM367.457 1503.2V1500.41C364.177 1504.26 359.667 1506.07 354.419 1506.07C342.857 1506.07 333.837 1497.13 333.837 1485.73C333.837 1474.17 343.021 1465.31 354.419 1465.31C359.667 1465.31 364.095 1467.2 367.457 1471.05V1466.05H375.329V1501.8C375.329 1521.32 363.439 1525.75 354.665 1525.75C346.793 1525.75 340.479 1522.14 336.789 1516.23L344.087 1513.12C346.383 1516.4 349.663 1518.37 354.583 1518.37C361.307 1518.37 367.457 1514.68 367.457 1503.2ZM367.293 1485.73C367.293 1478.68 361.799 1472.77 354.419 1472.77C347.121 1472.77 341.627 1478.51 341.627 1485.73C341.627 1493.03 347.121 1498.69 354.419 1498.69C361.881 1498.69 367.293 1492.78 367.293 1485.73ZM423.707 1505H415.753V1484.58C415.753 1476.79 412.719 1472.77 406.241 1472.77C399.517 1472.77 396.319 1477.12 396.319 1485.16V1505H388.447V1444.32H396.319V1470.23C398.943 1467.28 402.141 1465.31 407.635 1465.31C416.901 1465.31 423.707 1470.72 423.707 1482.94V1505ZM466.069 1505H458.115V1466.05H466.069V1505ZM462.133 1458.34C459.263 1458.34 457.049 1456.13 457.049 1453.26C457.049 1450.39 459.263 1448.17 462.133 1448.17C465.003 1448.17 467.135 1450.39 467.135 1453.26C467.135 1456.13 465.003 1458.34 462.133 1458.34ZM514.435 1505H506.481V1484.58C506.481 1476.79 503.447 1472.77 496.969 1472.77C490.245 1472.77 487.047 1477.12 487.047 1485.16V1505H479.175V1466.05H487.047V1470.23C489.671 1467.28 492.869 1465.31 498.363 1465.31C507.629 1465.31 514.435 1470.72 514.435 1482.94V1505ZM545.192 1498.11V1505.16C544.372 1505.49 541.912 1506.07 539.042 1506.07C529.448 1506.07 527.726 1499.75 527.726 1493.03V1473.51H521.576V1466.05H527.726V1452.85H535.68V1466.05H546.258V1473.51H535.68V1492.13C535.68 1496.55 536.664 1498.69 540.846 1498.69C542.24 1498.69 544.372 1498.44 545.192 1498.11ZM591.818 1488.35H559.92C560.986 1494.34 565.906 1498.93 572.548 1498.93C576.812 1498.93 580.994 1497.05 583.454 1493.6L589.03 1497.87C585.422 1502.95 579.272 1506.07 572.548 1506.07C561.232 1506.07 552.13 1497.21 552.13 1485.73C552.13 1474.82 560.412 1465.31 572.056 1465.31C583.618 1465.31 591.982 1474.74 591.982 1485.65C591.982 1486.71 591.9 1487.53 591.818 1488.35ZM560.166 1482.12H583.946C583.044 1476.71 578.288 1472.53 572.138 1472.53C566.07 1472.53 561.56 1476.63 560.166 1482.12ZM609.487 1505H601.615V1466.05H609.487V1470.72C613.259 1466.21 617.113 1465.31 624.657 1465.31V1472.86C611.783 1472.86 609.487 1478.1 609.487 1484.83V1505ZM669.215 1505H661.343V1500.41C658.063 1504.26 653.553 1506.07 648.305 1506.07C636.743 1506.07 627.723 1497.13 627.723 1485.73C627.723 1474.17 636.907 1465.31 648.305 1465.31C653.553 1465.31 657.981 1467.2 661.343 1471.05V1466.05H669.215V1505ZM661.179 1485.73C661.179 1478.68 655.685 1472.77 648.305 1472.77C641.007 1472.77 635.513 1478.51 635.513 1485.73C635.513 1493.03 641.007 1498.69 648.305 1498.69C655.767 1498.69 661.179 1492.78 661.179 1485.73ZM710.459 1492.54L717.019 1496.39C713.411 1502.21 706.851 1506.07 699.471 1506.07C688.237 1506.07 679.053 1496.96 679.053 1485.73C679.053 1474.58 688.073 1465.31 699.471 1465.31C706.769 1465.31 713.247 1469.17 716.855 1474.91L710.213 1478.68C707.999 1475.15 703.981 1472.77 699.471 1472.77C692.337 1472.77 686.843 1478.84 686.843 1485.81C686.843 1492.78 692.419 1498.69 699.635 1498.69C704.309 1498.69 708.245 1496.23 710.459 1492.54ZM744.106 1498.11V1505.16C743.286 1505.49 740.826 1506.07 737.956 1506.07C728.362 1506.07 726.64 1499.75 726.64 1493.03V1473.51H720.49V1466.05H726.64V1452.85H734.594V1466.05H745.172V1473.51H734.594V1492.13C734.594 1496.55 735.578 1498.69 739.76 1498.69C741.154 1498.69 743.286 1498.44 744.106 1498.11ZM762.278 1505H754.324V1466.05H762.278V1505ZM758.342 1458.34C755.472 1458.34 753.258 1456.13 753.258 1453.26C753.258 1450.39 755.472 1448.17 758.342 1448.17C761.212 1448.17 763.344 1450.39 763.344 1453.26C763.344 1456.13 761.212 1458.34 758.342 1458.34ZM813.104 1485.73C813.104 1496.88 803.838 1506.07 792.522 1506.07C781.288 1506.07 772.104 1496.96 772.104 1485.73C772.104 1474.58 781.124 1465.31 792.522 1465.31C803.838 1465.31 813.104 1474.5 813.104 1485.73ZM805.314 1485.65C805.314 1478.6 799.656 1472.77 792.604 1472.77C785.306 1472.77 779.894 1478.92 779.894 1485.81C779.894 1492.78 785.47 1498.69 792.604 1498.69C799.82 1498.69 805.314 1492.62 805.314 1485.65ZM858.211 1505H850.257V1484.58C850.257 1476.79 847.223 1472.77 840.745 1472.77C834.021 1472.77 830.823 1477.12 830.823 1485.16V1505H822.951V1466.05H830.823V1470.23C833.447 1467.28 836.645 1465.31 842.139 1465.31C851.405 1465.31 858.211 1470.72 858.211 1482.94V1505ZM173.772 1592H165.9V1587.41C162.62 1591.26 158.11 1593.07 152.862 1593.07C141.3 1593.07 132.28 1584.13 132.28 1572.73C132.28 1561.17 141.464 1552.31 152.862 1552.31C158.11 1552.31 162.538 1554.2 165.9 1558.05V1553.05H173.772V1592ZM165.736 1572.73C165.736 1565.68 160.242 1559.77 152.862 1559.77C145.564 1559.77 140.07 1565.51 140.07 1572.73C140.07 1580.03 145.564 1585.69 152.862 1585.69C160.324 1585.69 165.736 1579.78 165.736 1572.73ZM222.15 1592H214.196V1571.58C214.196 1563.79 211.162 1559.77 204.684 1559.77C197.96 1559.77 194.762 1564.12 194.762 1572.16V1592H186.89V1553.05H194.762V1557.23C197.386 1554.28 200.584 1552.31 206.078 1552.31C215.344 1552.31 222.15 1557.72 222.15 1569.94V1592ZM272.668 1592H264.796V1587.41C261.516 1591.26 257.006 1593.07 251.758 1593.07C240.196 1593.07 231.176 1584.13 231.176 1572.73C231.176 1561.17 240.36 1552.31 251.758 1552.31C257.006 1552.31 261.434 1554.2 264.796 1558.05V1531.32H272.668V1592ZM264.632 1572.73C264.632 1565.68 259.138 1559.77 251.758 1559.77C244.46 1559.77 238.966 1565.51 238.966 1572.73C238.966 1580.03 244.46 1585.69 251.758 1585.69C259.22 1585.69 264.632 1579.78 264.632 1572.73ZM336.014 1579.54L342.574 1583.39C338.966 1589.21 332.406 1593.07 325.026 1593.07C313.792 1593.07 304.608 1583.96 304.608 1572.73C304.608 1561.58 313.628 1552.31 325.026 1552.31C332.324 1552.31 338.802 1556.17 342.41 1561.91L335.768 1565.68C333.554 1562.15 329.536 1559.77 325.026 1559.77C317.892 1559.77 312.398 1565.84 312.398 1572.81C312.398 1579.78 317.974 1585.69 325.19 1585.69C329.864 1585.69 333.8 1583.23 336.014 1579.54ZM388.93 1572.73C388.93 1583.88 379.664 1593.07 368.348 1593.07C357.114 1593.07 347.93 1583.96 347.93 1572.73C347.93 1561.58 356.95 1552.31 368.348 1552.31C379.664 1552.31 388.93 1561.5 388.93 1572.73ZM381.14 1572.65C381.14 1565.6 375.482 1559.77 368.43 1559.77C361.132 1559.77 355.72 1565.92 355.72 1572.81C355.72 1579.78 361.296 1585.69 368.43 1585.69C375.646 1585.69 381.14 1579.62 381.14 1572.65ZM413.455 1585.6V1592.49C412.143 1592.82 410.749 1593.07 409.109 1593.07C402.713 1593.07 398.777 1589.21 398.777 1582.08V1531.32H406.649V1579.62C406.649 1583.8 407.633 1585.69 411.487 1585.69C411.979 1585.69 412.717 1585.69 413.455 1585.6ZM435.556 1585.6V1592.49C434.244 1592.82 432.85 1593.07 431.21 1593.07C424.814 1593.07 420.878 1589.21 420.878 1582.08V1531.32H428.75V1579.62C428.75 1583.8 429.734 1585.69 433.588 1585.69C434.08 1585.69 434.818 1585.69 435.556 1585.6ZM481.192 1592H473.32V1587.41C470.04 1591.26 465.53 1593.07 460.282 1593.07C448.72 1593.07 439.7 1584.13 439.7 1572.73C439.7 1561.17 448.884 1552.31 460.282 1552.31C465.53 1552.31 469.958 1554.2 473.32 1558.05V1553.05H481.192V1592ZM473.156 1572.73C473.156 1565.68 467.662 1559.77 460.282 1559.77C452.984 1559.77 447.49 1565.51 447.49 1572.73C447.49 1580.03 452.984 1585.69 460.282 1585.69C467.744 1585.69 473.156 1579.78 473.156 1572.73ZM502.182 1592H494.31V1531.32H502.182V1558.05C505.462 1554.2 509.972 1552.31 515.22 1552.31C526.618 1552.31 535.802 1561.17 535.802 1572.73C535.802 1584.13 526.782 1593.07 515.22 1593.07C509.972 1593.07 505.462 1591.26 502.182 1587.41V1592ZM502.428 1572.73C502.428 1579.78 507.594 1585.69 515.138 1585.69C522.518 1585.69 528.012 1580.03 528.012 1572.73C528.012 1565.51 522.518 1559.77 515.22 1559.77C507.922 1559.77 502.428 1565.51 502.428 1572.73ZM583.36 1572.73C583.36 1583.88 574.094 1593.07 562.778 1593.07C551.544 1593.07 542.36 1583.96 542.36 1572.73C542.36 1561.58 551.38 1552.31 562.778 1552.31C574.094 1552.31 583.36 1561.5 583.36 1572.73ZM575.57 1572.65C575.57 1565.6 569.912 1559.77 562.86 1559.77C555.562 1559.77 550.15 1565.92 550.15 1572.81C550.15 1579.78 555.726 1585.69 562.86 1585.69C570.076 1585.69 575.57 1579.62 575.57 1572.65ZM601.078 1592H593.206V1553.05H601.078V1557.72C604.85 1553.21 608.704 1552.31 616.248 1552.31V1559.86C603.374 1559.86 601.078 1565.1 601.078 1571.83V1592ZM660.807 1592H652.935V1587.41C649.655 1591.26 645.145 1593.07 639.897 1593.07C628.335 1593.07 619.315 1584.13 619.315 1572.73C619.315 1561.17 628.499 1552.31 639.897 1552.31C645.145 1552.31 649.573 1554.2 652.935 1558.05V1553.05H660.807V1592ZM652.771 1572.73C652.771 1565.68 647.277 1559.77 639.897 1559.77C632.599 1559.77 627.105 1565.51 627.105 1572.73C627.105 1580.03 632.599 1585.69 639.897 1585.69C647.359 1585.69 652.771 1579.78 652.771 1572.73ZM692.375 1585.11V1592.16C691.555 1592.49 689.095 1593.07 686.225 1593.07C676.631 1593.07 674.909 1586.75 674.909 1580.03V1560.51H668.759V1553.05H674.909V1539.85H682.863V1553.05H693.441V1560.51H682.863V1579.13C682.863 1583.55 683.847 1585.69 688.029 1585.69C689.423 1585.69 691.555 1585.44 692.375 1585.11ZM710.547 1592H702.593V1553.05H710.547V1592ZM706.611 1545.34C703.741 1545.34 701.527 1543.13 701.527 1540.26C701.527 1537.39 703.741 1535.17 706.611 1535.17C709.481 1535.17 711.613 1537.39 711.613 1540.26C711.613 1543.13 709.481 1545.34 706.611 1545.34ZM761.374 1572.73C761.374 1583.88 752.108 1593.07 740.792 1593.07C729.558 1593.07 720.374 1583.96 720.374 1572.73C720.374 1561.58 729.394 1552.31 740.792 1552.31C752.108 1552.31 761.374 1561.5 761.374 1572.73ZM753.584 1572.65C753.584 1565.6 747.926 1559.77 740.874 1559.77C733.576 1559.77 728.164 1565.92 728.164 1572.81C728.164 1579.78 733.74 1585.69 740.874 1585.69C748.09 1585.69 753.584 1579.62 753.584 1572.65ZM806.48 1592H798.526V1571.58C798.526 1563.79 795.492 1559.77 789.014 1559.77C782.29 1559.77 779.092 1564.12 779.092 1572.16V1592H771.22V1553.05H779.092V1557.23C781.716 1554.28 784.914 1552.31 790.408 1552.31C799.674 1552.31 806.48 1557.72 806.48 1569.94V1592ZM825.511 1592.49C822.641 1592.49 820.427 1590.28 820.427 1587.41C820.427 1584.54 822.641 1582.41 825.511 1582.41C828.381 1582.41 830.513 1584.54 830.513 1587.41C830.513 1590.28 828.381 1592.49 825.511 1592.49Z" fill="black"/>
<path d="M2657.07 1530H2647.89L2642.48 1515.81H2614.6L2609.18 1530H2600.16L2624.03 1469.32H2633.21L2657.07 1530ZM2639.44 1507.94L2628.62 1479.49L2617.63 1507.94H2639.44ZM2671.69 1550.75H2663.82V1491.05H2671.69V1496.05C2674.97 1492.2 2679.48 1490.31 2684.73 1490.31C2696.12 1490.31 2705.31 1499.17 2705.31 1510.73C2705.31 1522.13 2696.29 1531.07 2684.73 1531.07C2679.48 1531.07 2674.97 1529.26 2671.69 1525.41V1550.75ZM2671.93 1510.73C2671.93 1517.78 2677.1 1523.69 2684.64 1523.69C2692.02 1523.69 2697.52 1518.03 2697.52 1510.73C2697.52 1503.51 2692.02 1497.77 2684.73 1497.77C2677.43 1497.77 2671.93 1503.51 2671.93 1510.73ZM2723.02 1550.75H2715.15V1491.05H2723.02V1496.05C2726.3 1492.2 2730.81 1490.31 2736.06 1490.31C2747.45 1490.31 2756.64 1499.17 2756.64 1510.73C2756.64 1522.13 2747.62 1531.07 2736.06 1531.07C2730.81 1531.07 2726.3 1529.26 2723.02 1525.41V1550.75ZM2723.26 1510.73C2723.26 1517.78 2728.43 1523.69 2735.97 1523.69C2743.35 1523.69 2748.85 1518.03 2748.85 1510.73C2748.85 1503.51 2743.35 1497.77 2736.06 1497.77C2728.76 1497.77 2723.26 1503.51 2723.26 1510.73ZM2774.35 1530H2766.48V1491.05H2774.35V1495.72C2778.12 1491.21 2781.97 1490.31 2789.52 1490.31V1497.86C2776.64 1497.86 2774.35 1503.1 2774.35 1509.83V1530ZM2835.19 1510.73C2835.19 1521.88 2825.92 1531.07 2814.6 1531.07C2803.37 1531.07 2794.19 1521.96 2794.19 1510.73C2794.19 1499.58 2803.21 1490.31 2814.6 1490.31C2825.92 1490.31 2835.19 1499.5 2835.19 1510.73ZM2827.4 1510.65C2827.4 1503.6 2821.74 1497.77 2814.69 1497.77C2807.39 1497.77 2801.98 1503.92 2801.98 1510.81C2801.98 1517.78 2807.55 1523.69 2814.69 1523.69C2821.9 1523.69 2827.4 1517.62 2827.4 1510.65ZM2883.24 1530H2875.37V1525.41C2872.09 1529.26 2867.58 1531.07 2862.33 1531.07C2850.77 1531.07 2841.75 1522.13 2841.75 1510.73C2841.75 1499.17 2850.94 1490.31 2862.33 1490.31C2867.58 1490.31 2872.01 1492.2 2875.37 1496.05V1491.05H2883.24V1530ZM2875.21 1510.73C2875.21 1503.68 2869.71 1497.77 2862.33 1497.77C2855.04 1497.77 2849.54 1503.51 2849.54 1510.73C2849.54 1518.03 2855.04 1523.69 2862.33 1523.69C2869.8 1523.69 2875.21 1517.78 2875.21 1510.73ZM2924.49 1517.54L2931.05 1521.39C2927.44 1527.21 2920.88 1531.07 2913.5 1531.07C2902.27 1531.07 2893.08 1521.96 2893.08 1510.73C2893.08 1499.58 2902.1 1490.31 2913.5 1490.31C2920.8 1490.31 2927.28 1494.17 2930.88 1499.91L2924.24 1503.68C2922.03 1500.15 2918.01 1497.77 2913.5 1497.77C2906.37 1497.77 2900.87 1503.84 2900.87 1510.81C2900.87 1517.78 2906.45 1523.69 2913.66 1523.69C2918.34 1523.69 2922.27 1521.23 2924.49 1517.54ZM2974.95 1530H2966.99V1509.58C2966.99 1501.79 2963.96 1497.77 2957.48 1497.77C2950.76 1497.77 2947.56 1502.12 2947.56 1510.16V1530H2939.69V1469.32H2947.56V1495.23C2950.18 1492.28 2953.38 1490.31 2958.87 1490.31C2968.14 1490.31 2974.95 1495.72 2974.95 1507.94V1530ZM3023.66 1513.35H2991.76C2992.83 1519.34 2997.75 1523.93 3004.39 1523.93C3008.65 1523.93 3012.84 1522.05 3015.3 1518.6L3020.87 1522.87C3017.26 1527.95 3011.11 1531.07 3004.39 1531.07C2993.07 1531.07 2983.97 1522.21 2983.97 1510.73C2983.97 1499.82 2992.25 1490.31 3003.9 1490.31C3015.46 1490.31 3023.82 1499.74 3023.82 1510.65C3023.82 1511.71 3023.74 1512.53 3023.66 1513.35ZM2992.01 1507.12H3015.79C3014.89 1501.71 3010.13 1497.53 3003.98 1497.53C2997.91 1497.53 2993.4 1501.63 2992.01 1507.12ZM3029.6 1525.98L3033.87 1519.91C3037.8 1523.11 3041.98 1523.93 3044.77 1523.93C3048.95 1523.93 3051.25 1522.13 3051.25 1519.5C3051.25 1511.8 3031 1516.55 3031 1502.53C3031 1495.4 3036.24 1490.31 3044.36 1490.31C3047.64 1490.31 3053.14 1491.13 3057.56 1494.74L3053.38 1500.56C3049.94 1498.02 3046.49 1497.53 3044.44 1497.53C3040.51 1497.53 3038.79 1499.5 3038.79 1501.63C3038.79 1509.01 3058.96 1504.99 3058.96 1519.01C3058.96 1526.47 3053.3 1531.07 3044.53 1531.07C3038.7 1531.07 3033.62 1529.02 3029.6 1525.98ZM3105.71 1523.6V1530.49C3104.4 1530.82 3103 1531.07 3101.36 1531.07C3094.97 1531.07 3091.03 1527.21 3091.03 1520.08V1469.32H3098.9V1517.62C3098.9 1521.8 3099.89 1523.69 3103.74 1523.69C3104.23 1523.69 3104.97 1523.69 3105.71 1523.6ZM3149.54 1513.35H3117.64C3118.71 1519.34 3123.63 1523.93 3130.27 1523.93C3134.54 1523.93 3138.72 1522.05 3141.18 1518.6L3146.75 1522.87C3143.15 1527.95 3137 1531.07 3130.27 1531.07C3118.96 1531.07 3109.85 1522.21 3109.85 1510.73C3109.85 1499.82 3118.14 1490.31 3129.78 1490.31C3141.34 1490.31 3149.71 1499.74 3149.71 1510.65C3149.71 1511.71 3149.62 1512.53 3149.54 1513.35ZM3117.89 1507.12H3141.67C3140.77 1501.71 3136.01 1497.53 3129.86 1497.53C3123.79 1497.53 3119.28 1501.63 3117.89 1507.12ZM3197.55 1530H3189.68V1525.41C3186.4 1529.26 3181.89 1531.07 3176.64 1531.07C3165.08 1531.07 3156.06 1522.13 3156.06 1510.73C3156.06 1499.17 3165.24 1490.31 3176.64 1490.31C3181.89 1490.31 3186.32 1492.2 3189.68 1496.05V1491.05H3197.55V1530ZM3189.52 1510.73C3189.52 1503.68 3184.02 1497.77 3176.64 1497.77C3169.34 1497.77 3163.85 1503.51 3163.85 1510.73C3163.85 1518.03 3169.34 1523.69 3176.64 1523.69C3184.1 1523.69 3189.52 1517.78 3189.52 1510.73ZM3218.54 1530H3210.67V1491.05H3218.54V1495.72C3222.31 1491.21 3226.17 1490.31 3233.71 1490.31V1497.86C3220.84 1497.86 3218.54 1503.1 3218.54 1509.83V1530ZM3276.92 1530H3268.97V1509.58C3268.97 1501.79 3265.93 1497.77 3259.45 1497.77C3252.73 1497.77 3249.53 1502.12 3249.53 1510.16V1530H3241.66V1491.05H3249.53V1495.23C3252.16 1492.28 3255.35 1490.31 3260.85 1490.31C3270.11 1490.31 3276.92 1495.72 3276.92 1507.94V1530ZM3297.18 1530H3289.23V1491.05H3297.18V1530ZM3293.24 1483.34C3290.37 1483.34 3288.16 1481.13 3288.16 1478.26C3288.16 1475.39 3290.37 1473.17 3293.24 1473.17C3296.11 1473.17 3298.25 1475.39 3298.25 1478.26C3298.25 1481.13 3296.11 1483.34 3293.24 1483.34ZM3345.55 1530H3337.59V1509.58C3337.59 1501.79 3334.56 1497.77 3328.08 1497.77C3321.36 1497.77 3318.16 1502.12 3318.16 1510.16V1530H3310.29V1491.05H3318.16V1495.23C3320.78 1492.28 3323.98 1490.31 3329.47 1490.31C3338.74 1490.31 3345.55 1495.72 3345.55 1507.94V1530ZM3388.19 1528.2V1525.41C3384.91 1529.26 3380.4 1531.07 3375.15 1531.07C3363.59 1531.07 3354.57 1522.13 3354.57 1510.73C3354.57 1499.17 3363.76 1490.31 3375.15 1490.31C3380.4 1490.31 3384.83 1492.2 3388.19 1496.05V1491.05H3396.06V1526.8C3396.06 1546.32 3384.17 1550.75 3375.4 1550.75C3367.53 1550.75 3361.21 1547.14 3357.52 1541.23L3364.82 1538.12C3367.12 1541.4 3370.4 1543.37 3375.32 1543.37C3382.04 1543.37 3388.19 1539.68 3388.19 1528.2ZM3388.03 1510.73C3388.03 1503.68 3382.53 1497.77 3375.15 1497.77C3367.86 1497.77 3362.36 1503.51 3362.36 1510.73C3362.36 1518.03 3367.86 1523.69 3375.15 1523.69C3382.62 1523.69 3388.03 1517.78 3388.03 1510.73ZM2651.58 1617H2643.38L2633.54 1588.96L2623.78 1617H2615.42L2600.82 1578.05H2609.51L2619.6 1606.75L2629.85 1578.05H2637.15L2647.4 1606.75L2657.48 1578.05H2666.26L2651.58 1617ZM2681.62 1617H2673.67V1578.05H2681.62V1617ZM2677.68 1570.34C2674.81 1570.34 2672.6 1568.13 2672.6 1565.26C2672.6 1562.39 2674.81 1560.17 2677.68 1560.17C2680.55 1560.17 2682.69 1562.39 2682.69 1565.26C2682.69 1568.13 2680.55 1570.34 2677.68 1570.34ZM2713.18 1610.11V1617.16C2712.36 1617.49 2709.9 1618.07 2707.03 1618.07C2697.43 1618.07 2695.71 1611.75 2695.71 1605.03V1585.51H2689.56V1578.05H2695.71V1564.85H2703.66V1578.05H2714.24V1585.51H2703.66V1604.13C2703.66 1608.55 2704.65 1610.69 2708.83 1610.69C2710.22 1610.69 2712.36 1610.44 2713.18 1610.11ZM2758.65 1617H2750.7V1596.58C2750.7 1588.79 2747.67 1584.77 2741.19 1584.77C2734.46 1584.77 2731.27 1589.12 2731.27 1597.16V1617H2723.39V1556.32H2731.27V1582.23C2733.89 1579.28 2737.09 1577.31 2742.58 1577.31C2751.85 1577.31 2758.65 1582.72 2758.65 1594.94V1617ZM2821.19 1604.54L2827.75 1608.39C2824.14 1614.21 2817.58 1618.07 2810.2 1618.07C2798.97 1618.07 2789.78 1608.96 2789.78 1597.73C2789.78 1586.58 2798.8 1577.31 2810.2 1577.31C2817.5 1577.31 2823.98 1581.17 2827.58 1586.91L2820.94 1590.68C2818.73 1587.15 2814.71 1584.77 2810.2 1584.77C2803.07 1584.77 2797.57 1590.84 2797.57 1597.81C2797.57 1604.78 2803.15 1610.69 2810.36 1610.69C2815.04 1610.69 2818.97 1608.23 2821.19 1604.54ZM2863.2 1598.96V1578.05H2871.07V1601.17C2871.07 1613.39 2864.26 1618.07 2853.36 1618.07C2842.45 1618.07 2835.65 1613.39 2835.65 1601.17V1578.05H2843.6V1598.96C2843.6 1606.26 2845.32 1610.69 2853.36 1610.69C2861.48 1610.69 2863.2 1606.26 2863.2 1598.96ZM2891.42 1617H2883.55V1578.05H2891.42V1582.72C2895.19 1578.21 2899.05 1577.31 2906.59 1577.31V1584.86C2893.72 1584.86 2891.42 1590.1 2891.42 1596.83V1617ZM2922.49 1617H2914.54V1578.05H2922.49V1617ZM2918.56 1570.34C2915.69 1570.34 2913.47 1568.13 2913.47 1565.26C2913.47 1562.39 2915.69 1560.17 2918.56 1560.17C2921.43 1560.17 2923.56 1562.39 2923.56 1565.26C2923.56 1568.13 2921.43 1570.34 2918.56 1570.34ZM2973.32 1597.73C2973.32 1608.88 2964.06 1618.07 2952.74 1618.07C2941.51 1618.07 2932.32 1608.96 2932.32 1597.73C2932.32 1586.58 2941.34 1577.31 2952.74 1577.31C2964.06 1577.31 2973.32 1586.5 2973.32 1597.73ZM2965.53 1597.65C2965.53 1590.6 2959.87 1584.77 2952.82 1584.77C2945.52 1584.77 2940.11 1590.92 2940.11 1597.81C2940.11 1604.78 2945.69 1610.69 2952.82 1610.69C2960.04 1610.69 2965.53 1604.62 2965.53 1597.65ZM2979.31 1612.98L2983.58 1606.91C2987.51 1610.11 2991.7 1610.93 2994.48 1610.93C2998.67 1610.93 3000.96 1609.13 3000.96 1606.5C3000.96 1598.8 2980.71 1603.55 2980.71 1589.53C2980.71 1582.4 2985.96 1577.31 2994.07 1577.31C2997.35 1577.31 3002.85 1578.13 3007.28 1581.74L3003.09 1587.56C2999.65 1585.02 2996.21 1584.53 2994.16 1584.53C2990.22 1584.53 2988.5 1586.5 2988.5 1588.63C2988.5 1596.01 3008.67 1591.99 3008.67 1606.01C3008.67 1613.47 3003.01 1618.07 2994.24 1618.07C2988.42 1618.07 2983.33 1616.02 2979.31 1612.98ZM3026.6 1617H3018.64V1578.05H3026.6V1617ZM3022.66 1570.34C3019.79 1570.34 3017.58 1568.13 3017.58 1565.26C3017.58 1562.39 3019.79 1560.17 3022.66 1560.17C3025.53 1560.17 3027.66 1562.39 3027.66 1565.26C3027.66 1568.13 3025.53 1570.34 3022.66 1570.34ZM3058.15 1610.11V1617.16C3057.33 1617.49 3054.87 1618.07 3052 1618.07C3042.41 1618.07 3040.69 1611.75 3040.69 1605.03V1585.51H3034.54V1578.05H3040.69V1564.85H3048.64V1578.05H3059.22V1585.51H3048.64V1604.13C3048.64 1608.55 3049.62 1610.69 3053.81 1610.69C3055.2 1610.69 3057.33 1610.44 3058.15 1610.11ZM3079.19 1637.75H3071.4L3078.54 1617.74L3062.63 1578.05H3071.24L3082.39 1607.32L3092.89 1578.05H3100.76L3079.19 1637.75ZM3168.48 1617H3160.61V1612.41C3157.33 1616.26 3152.82 1618.07 3147.57 1618.07C3136.01 1618.07 3126.99 1609.13 3126.99 1597.73C3126.99 1586.17 3136.17 1577.31 3147.57 1577.31C3152.82 1577.31 3157.25 1579.2 3160.61 1583.05V1578.05H3168.48V1617ZM3160.45 1597.73C3160.45 1590.68 3154.95 1584.77 3147.57 1584.77C3140.27 1584.77 3134.78 1590.51 3134.78 1597.73C3134.78 1605.03 3140.27 1610.69 3147.57 1610.69C3155.03 1610.69 3160.45 1604.78 3160.45 1597.73ZM3216.86 1617H3208.91V1596.58C3208.91 1588.79 3205.87 1584.77 3199.4 1584.77C3192.67 1584.77 3189.47 1589.12 3189.47 1597.16V1617H3181.6V1578.05H3189.47V1582.23C3192.1 1579.28 3195.3 1577.31 3200.79 1577.31C3210.06 1577.31 3216.86 1582.72 3216.86 1594.94V1617ZM3267.38 1617H3259.51V1612.41C3256.23 1616.26 3251.72 1618.07 3246.47 1618.07C3234.91 1618.07 3225.89 1609.13 3225.89 1597.73C3225.89 1586.17 3235.07 1577.31 3246.47 1577.31C3251.72 1577.31 3256.15 1579.2 3259.51 1583.05V1556.32H3267.38V1617ZM3259.34 1597.73C3259.34 1590.68 3253.85 1584.77 3246.47 1584.77C3239.17 1584.77 3233.68 1590.51 3233.68 1597.73C3233.68 1605.03 3239.17 1610.69 3246.47 1610.69C3253.93 1610.69 3259.34 1604.78 3259.34 1597.73ZM2615.09 1704H2607.13V1672.51H2601.39V1665.05H2607.13V1656.03C2607.13 1648.57 2610.58 1643.32 2619.11 1643.32C2621.24 1643.32 2623.7 1643.65 2625.58 1644.22V1651.27C2624.76 1651.03 2622.55 1650.7 2620.91 1650.7C2616.73 1650.7 2615.09 1652.67 2615.09 1658.65V1665.05H2624.76V1672.51H2615.09V1704ZM2659 1685.96V1665.05H2666.87V1688.17C2666.87 1700.39 2660.07 1705.07 2649.16 1705.07C2638.25 1705.07 2631.45 1700.39 2631.45 1688.17V1665.05H2639.4V1685.96C2639.4 1693.26 2641.12 1697.69 2649.16 1697.69C2657.28 1697.69 2659 1693.26 2659 1685.96ZM2714.61 1704H2706.66V1683.58C2706.66 1675.79 2703.62 1671.77 2697.15 1671.77C2690.42 1671.77 2687.22 1676.12 2687.22 1684.16V1704H2679.35V1665.05H2687.22V1669.23C2689.85 1666.28 2693.05 1664.31 2698.54 1664.31C2707.81 1664.31 2714.61 1669.72 2714.61 1681.94V1704ZM2733.64 1704.49C2730.77 1704.49 2728.56 1702.28 2728.56 1699.41C2728.56 1696.54 2730.77 1694.41 2733.64 1694.41C2736.51 1694.41 2738.64 1696.54 2738.64 1699.41C2738.64 1702.28 2736.51 1704.49 2733.64 1704.49Z" fill="black"/>
<path d="M2850.87 448H2813.97V387.32H2822.33V440.128H2850.87V448ZM2895.69 431.354H2863.79C2864.86 437.34 2869.78 441.932 2876.42 441.932C2880.69 441.932 2884.87 440.046 2887.33 436.602L2892.9 440.866C2889.3 445.95 2883.15 449.066 2876.42 449.066C2865.11 449.066 2856 440.21 2856 428.73C2856 417.824 2864.29 408.312 2875.93 408.312C2887.49 408.312 2895.86 417.742 2895.86 428.648C2895.86 429.714 2895.77 430.534 2895.69 431.354ZM2864.04 425.122H2887.82C2886.92 419.71 2882.16 415.528 2876.01 415.528C2869.94 415.528 2865.43 419.628 2864.04 425.122ZM2943.7 448H2935.83V443.408C2932.55 447.262 2928.04 449.066 2922.79 449.066C2911.23 449.066 2902.21 440.128 2902.21 428.73C2902.21 417.168 2911.39 408.312 2922.79 408.312C2928.04 408.312 2932.47 410.198 2935.83 414.052V409.05H2943.7V448ZM2935.67 428.73C2935.67 421.678 2930.17 415.774 2922.79 415.774C2915.49 415.774 2910 421.514 2910 428.73C2910 436.028 2915.49 441.686 2922.79 441.686C2930.25 441.686 2935.67 435.782 2935.67 428.73ZM2964.69 448H2956.82V409.05H2964.69V413.724C2968.46 409.214 2972.32 408.312 2979.86 408.312V415.856C2966.99 415.856 2964.69 421.104 2964.69 427.828V448ZM3023.07 448H3015.12V427.582C3015.12 419.792 3012.08 415.774 3005.6 415.774C2998.88 415.774 2995.68 420.12 2995.68 428.156V448H2987.81V409.05H2995.68V413.232C2998.31 410.28 3001.5 408.312 3007 408.312C3016.26 408.312 3023.07 413.724 3023.07 425.942V448ZM3031.52 443.982L3035.79 437.914C3039.72 441.112 3043.9 441.932 3046.69 441.932C3050.87 441.932 3053.17 440.128 3053.17 437.504C3053.17 429.796 3032.92 434.552 3032.92 420.53C3032.92 413.396 3038.16 408.312 3046.28 408.312C3049.56 408.312 3055.06 409.132 3059.48 412.74L3055.3 418.562C3051.86 416.02 3048.41 415.528 3046.36 415.528C3042.43 415.528 3040.71 417.496 3040.71 419.628C3040.71 427.008 3060.88 422.99 3060.88 437.012C3060.88 444.474 3055.22 449.066 3046.45 449.066C3040.62 449.066 3035.54 447.016 3031.52 443.982ZM3100.82 448H3092.95V387.32H3100.82V414.052C3104.1 410.198 3108.61 408.312 3113.86 408.312C3125.26 408.312 3134.44 417.168 3134.44 428.73C3134.44 440.128 3125.42 449.066 3113.86 449.066C3108.61 449.066 3104.1 447.262 3100.82 443.408V448ZM3101.07 428.73C3101.07 435.782 3106.24 441.686 3113.78 441.686C3121.16 441.686 3126.65 436.028 3126.65 428.73C3126.65 421.514 3121.16 415.774 3113.86 415.774C3106.56 415.774 3101.07 421.514 3101.07 428.73ZM3180.69 431.354H3148.79C3149.86 437.34 3154.78 441.932 3161.42 441.932C3165.68 441.932 3169.87 440.046 3172.33 436.602L3177.9 440.866C3174.29 445.95 3168.14 449.066 3161.42 449.066C3150.1 449.066 3141 440.21 3141 428.73C3141 417.824 3149.28 408.312 3160.93 408.312C3172.49 408.312 3180.85 417.742 3180.85 428.648C3180.85 429.714 3180.77 430.534 3180.69 431.354ZM3149.04 425.122H3172.82C3171.92 419.71 3167.16 415.528 3161.01 415.528C3154.94 415.528 3150.43 419.628 3149.04 425.122ZM3186.63 443.982L3190.9 437.914C3194.83 441.112 3199.02 441.932 3201.8 441.932C3205.99 441.932 3208.28 440.128 3208.28 437.504C3208.28 429.796 3188.03 434.552 3188.03 420.53C3188.03 413.396 3193.28 408.312 3201.39 408.312C3204.67 408.312 3210.17 409.132 3214.6 412.74L3210.41 418.562C3206.97 416.02 3203.53 415.528 3201.48 415.528C3197.54 415.528 3195.82 417.496 3195.82 419.628C3195.82 427.008 3215.99 422.99 3215.99 437.012C3215.99 444.474 3210.33 449.066 3201.56 449.066C3195.74 449.066 3190.65 447.016 3186.63 443.982ZM3244.01 441.112V448.164C3243.19 448.492 3240.73 449.066 3237.86 449.066C3228.27 449.066 3226.55 442.752 3226.55 436.028V416.512H3220.4V409.05H3226.55V395.848H3234.5V409.05H3245.08V416.512H3234.5V435.126C3234.5 439.554 3235.48 441.686 3239.67 441.686C3241.06 441.686 3243.19 441.44 3244.01 441.112ZM3283.4 448H3275.53V387.32H3283.4V414.052C3286.68 410.198 3291.19 408.312 3296.44 408.312C3307.84 408.312 3317.02 417.168 3317.02 428.73C3317.02 440.128 3308 449.066 3296.44 449.066C3291.19 449.066 3286.68 447.262 3283.4 443.408V448ZM3283.65 428.73C3283.65 435.782 3288.81 441.686 3296.36 441.686C3303.74 441.686 3309.23 436.028 3309.23 428.73C3309.23 421.514 3303.74 415.774 3296.44 415.774C3289.14 415.774 3283.65 421.514 3283.65 428.73ZM3337.68 468.746H3329.89L3337.03 448.738L3321.12 409.05H3329.73L3340.88 438.324L3351.38 409.05H3359.25L3337.68 468.746ZM2851.77 535H2843.9V530.408C2840.62 534.262 2836.11 536.066 2830.86 536.066C2819.3 536.066 2810.28 527.128 2810.28 515.73C2810.28 504.168 2819.46 495.312 2830.86 495.312C2836.11 495.312 2840.54 497.198 2843.9 501.052V474.32H2851.77V535ZM2843.74 515.73C2843.74 508.678 2838.24 502.774 2830.86 502.774C2823.56 502.774 2818.07 508.514 2818.07 515.73C2818.07 523.028 2823.56 528.686 2830.86 528.686C2838.32 528.686 2843.74 522.782 2843.74 515.73ZM2872.84 535H2864.89V496.05H2872.84V535ZM2868.91 488.342C2866.04 488.342 2863.82 486.128 2863.82 483.258C2863.82 480.388 2866.04 478.174 2868.91 478.174C2871.78 478.174 2873.91 480.388 2873.91 483.258C2873.91 486.128 2871.78 488.342 2868.91 488.342ZM2882.1 530.982L2886.36 524.914C2890.3 528.112 2894.48 528.932 2897.27 528.932C2901.45 528.932 2903.74 527.128 2903.74 524.504C2903.74 516.796 2883.49 521.552 2883.49 507.53C2883.49 500.396 2888.74 495.312 2896.86 495.312C2900.14 495.312 2905.63 496.132 2910.06 499.74L2905.88 505.562C2902.43 503.02 2898.99 502.528 2896.94 502.528C2893 502.528 2891.28 504.496 2891.28 506.628C2891.28 514.008 2911.45 509.99 2911.45 524.012C2911.45 531.474 2905.79 536.066 2897.02 536.066C2891.2 536.066 2886.11 534.016 2882.1 530.982ZM2949.55 522.536L2956.11 526.39C2952.5 532.212 2945.94 536.066 2938.56 536.066C2927.33 536.066 2918.15 526.964 2918.15 515.73C2918.15 504.578 2927.17 495.312 2938.56 495.312C2945.86 495.312 2952.34 499.166 2955.95 504.906L2949.31 508.678C2947.09 505.152 2943.07 502.774 2938.56 502.774C2931.43 502.774 2925.94 508.842 2925.94 515.812C2925.94 522.782 2931.51 528.686 2938.73 528.686C2943.4 528.686 2947.34 526.226 2949.55 522.536ZM2991.56 516.96V496.05H2999.43V519.174C2999.43 531.392 2992.63 536.066 2981.72 536.066C2970.82 536.066 2964.01 531.392 2964.01 519.174V496.05H2971.96V516.96C2971.96 524.258 2973.69 528.686 2981.72 528.686C2989.84 528.686 2991.56 524.258 2991.56 516.96ZM3008.06 530.982L3012.32 524.914C3016.26 528.112 3020.44 528.932 3023.23 528.932C3027.41 528.932 3029.71 527.128 3029.71 524.504C3029.71 516.796 3009.45 521.552 3009.45 507.53C3009.45 500.396 3014.7 495.312 3022.82 495.312C3026.1 495.312 3031.59 496.132 3036.02 499.74L3031.84 505.562C3028.4 503.02 3024.95 502.528 3022.9 502.528C3018.97 502.528 3017.24 504.496 3017.24 506.628C3017.24 514.008 3037.42 509.99 3037.42 524.012C3037.42 531.474 3031.76 536.066 3022.98 536.066C3017.16 536.066 3012.08 534.016 3008.06 530.982ZM3043.53 530.982L3047.8 524.914C3051.73 528.112 3055.92 528.932 3058.7 528.932C3062.89 528.932 3065.18 527.128 3065.18 524.504C3065.18 516.796 3044.93 521.552 3044.93 507.53C3044.93 500.396 3050.18 495.312 3058.29 495.312C3061.57 495.312 3067.07 496.132 3071.5 499.74L3067.31 505.562C3063.87 503.02 3060.43 502.528 3058.38 502.528C3054.44 502.528 3052.72 504.496 3052.72 506.628C3052.72 514.008 3072.89 509.99 3072.89 524.012C3072.89 531.474 3067.23 536.066 3058.46 536.066C3052.64 536.066 3047.55 534.016 3043.53 530.982ZM3090.82 535H3082.86V496.05H3090.82V535ZM3086.88 488.342C3084.01 488.342 3081.8 486.128 3081.8 483.258C3081.8 480.388 3084.01 478.174 3086.88 478.174C3089.75 478.174 3091.88 480.388 3091.88 483.258C3091.88 486.128 3089.75 488.342 3086.88 488.342ZM3139.18 535H3131.23V514.582C3131.23 506.792 3128.2 502.774 3121.72 502.774C3114.99 502.774 3111.8 507.12 3111.8 515.156V535H3103.92V496.05H3111.8V500.232C3114.42 497.28 3117.62 495.312 3123.11 495.312C3132.38 495.312 3139.18 500.724 3139.18 512.942V535ZM3181.83 533.196V530.408C3178.55 534.262 3174.04 536.066 3168.79 536.066C3157.23 536.066 3148.21 527.128 3148.21 515.73C3148.21 504.168 3157.39 495.312 3168.79 495.312C3174.04 495.312 3178.47 497.198 3181.83 501.052V496.05H3189.7V531.802C3189.7 551.318 3177.81 555.746 3169.04 555.746C3161.17 555.746 3154.85 552.138 3151.16 546.234L3158.46 543.118C3160.76 546.398 3164.04 548.366 3168.96 548.366C3175.68 548.366 3181.83 544.676 3181.83 533.196ZM3181.67 515.73C3181.67 508.678 3176.17 502.774 3168.79 502.774C3161.49 502.774 3156 508.514 3156 515.73C3156 523.028 3161.49 528.686 3168.79 528.686C3176.25 528.686 3181.67 522.782 3181.67 515.73ZM3263.13 535H3255.26V530.408C3251.98 534.262 3247.47 536.066 3242.22 536.066C3230.66 536.066 3221.64 527.128 3221.64 515.73C3221.64 504.168 3230.83 495.312 3242.22 495.312C3247.47 495.312 3251.9 497.198 3255.26 501.052V496.05H3263.13V535ZM3255.1 515.73C3255.1 508.678 3249.6 502.774 3242.22 502.774C3234.93 502.774 3229.43 508.514 3229.43 515.73C3229.43 523.028 3234.93 528.686 3242.22 528.686C3249.69 528.686 3255.1 522.782 3255.1 515.73ZM3311.51 535H3303.56V514.582C3303.56 506.792 3300.52 502.774 3294.05 502.774C3287.32 502.774 3284.12 507.12 3284.12 515.156V535H3276.25V496.05H3284.12V500.232C3286.75 497.28 3289.95 495.312 3295.44 495.312C3304.71 495.312 3311.51 500.724 3311.51 512.942V535ZM3362.03 535H3354.16V530.408C3350.88 534.262 3346.37 536.066 3341.12 536.066C3329.56 536.066 3320.54 527.128 3320.54 515.73C3320.54 504.168 3329.72 495.312 3341.12 495.312C3346.37 495.312 3350.8 497.198 3354.16 501.052V474.32H3362.03V535ZM3353.99 515.73C3353.99 508.678 3348.5 502.774 3341.12 502.774C3333.82 502.774 3328.33 508.514 3328.33 515.73C3328.33 523.028 3333.82 528.686 3341.12 528.686C3348.58 528.686 3353.99 522.782 3353.99 515.73ZM2809.71 617.982L2813.97 611.914C2817.91 615.112 2822.09 615.932 2824.88 615.932C2829.06 615.932 2831.35 614.128 2831.35 611.504C2831.35 603.796 2811.1 608.552 2811.1 594.53C2811.1 587.396 2816.35 582.312 2824.47 582.312C2827.75 582.312 2833.24 583.132 2837.67 586.74L2833.49 592.562C2830.04 590.02 2826.6 589.528 2824.55 589.528C2820.61 589.528 2818.89 591.496 2818.89 593.628C2818.89 601.008 2839.06 596.99 2839.06 611.012C2839.06 618.474 2833.4 623.066 2824.63 623.066C2818.81 623.066 2813.72 621.016 2809.71 617.982ZM2884.29 622H2876.34V601.582C2876.34 593.792 2873.31 589.774 2866.83 589.774C2860.1 589.774 2856.91 594.12 2856.91 602.156V622H2849.03V561.32H2856.91V587.232C2859.53 584.28 2862.73 582.312 2868.22 582.312C2877.49 582.312 2884.29 587.724 2884.29 599.942V622ZM2934.81 622H2926.94V617.408C2923.66 621.262 2919.15 623.066 2913.9 623.066C2902.34 623.066 2893.32 614.128 2893.32 602.73C2893.32 591.168 2902.51 582.312 2913.9 582.312C2919.15 582.312 2923.58 584.198 2926.94 588.052V583.05H2934.81V622ZM2926.78 602.73C2926.78 595.678 2921.28 589.774 2913.9 589.774C2906.61 589.774 2901.11 595.514 2901.11 602.73C2901.11 610.028 2906.61 615.686 2913.9 615.686C2921.37 615.686 2926.78 609.782 2926.78 602.73ZM2955.8 622H2947.93V583.05H2955.8V587.724C2959.58 583.214 2963.43 582.312 2970.97 582.312V589.856C2958.1 589.856 2955.8 595.104 2955.8 601.828V622ZM2986.88 622H2978.92V583.05H2986.88V622ZM2982.94 575.342C2980.07 575.342 2977.86 573.128 2977.86 570.258C2977.86 567.388 2980.07 565.174 2982.94 565.174C2985.81 565.174 2987.94 567.388 2987.94 570.258C2987.94 573.128 2985.81 575.342 2982.94 575.342ZM3035.24 622H3027.29V601.582C3027.29 593.792 3024.25 589.774 3017.78 589.774C3011.05 589.774 3007.85 594.12 3007.85 602.156V622H2999.98V583.05H3007.85V587.232C3010.48 584.28 3013.68 582.312 3019.17 582.312C3028.44 582.312 3035.24 587.724 3035.24 599.942V622ZM3077.89 620.196V617.408C3074.61 621.262 3070.1 623.066 3064.85 623.066C3053.29 623.066 3044.27 614.128 3044.27 602.73C3044.27 591.168 3053.45 582.312 3064.85 582.312C3070.1 582.312 3074.53 584.198 3077.89 588.052V583.05H3085.76V618.802C3085.76 638.318 3073.87 642.746 3065.1 642.746C3057.22 642.746 3050.91 639.138 3047.22 633.234L3054.52 630.118C3056.81 633.398 3060.09 635.366 3065.01 635.366C3071.74 635.366 3077.89 631.676 3077.89 620.196ZM3077.72 602.73C3077.72 595.678 3072.23 589.774 3064.85 589.774C3057.55 589.774 3052.06 595.514 3052.06 602.73C3052.06 610.028 3057.55 615.686 3064.85 615.686C3072.31 615.686 3077.72 609.782 3077.72 602.73ZM3128.93 622H3120.98V583.05H3128.93V622ZM3125 575.342C3122.13 575.342 3119.91 573.128 3119.91 570.258C3119.91 567.388 3122.13 565.174 3125 565.174C3127.87 565.174 3130 567.388 3130 570.258C3130 573.128 3127.87 575.342 3125 575.342ZM3180.25 622H3172.38V617.408C3169.1 621.262 3164.59 623.066 3159.34 623.066C3147.78 623.066 3138.76 614.128 3138.76 602.73C3138.76 591.168 3147.94 582.312 3159.34 582.312C3164.59 582.312 3169.02 584.198 3172.38 588.052V561.32H3180.25V622ZM3172.22 602.73C3172.22 595.678 3166.72 589.774 3159.34 589.774C3152.04 589.774 3146.55 595.514 3146.55 602.73C3146.55 610.028 3152.04 615.686 3159.34 615.686C3166.8 615.686 3172.22 609.782 3172.22 602.73ZM3229.78 605.354H3197.88C3198.95 611.34 3203.87 615.932 3210.51 615.932C3214.77 615.932 3218.95 614.046 3221.41 610.602L3226.99 614.866C3223.38 619.95 3217.23 623.066 3210.51 623.066C3199.19 623.066 3190.09 614.21 3190.09 602.73C3190.09 591.824 3198.37 582.312 3210.02 582.312C3221.58 582.312 3229.94 591.742 3229.94 602.648C3229.94 603.714 3229.86 604.534 3229.78 605.354ZM3198.13 599.122H3221.91C3221 593.71 3216.25 589.528 3210.1 589.528C3204.03 589.528 3199.52 593.628 3198.13 599.122ZM3277.79 622H3269.92V617.408C3266.64 621.262 3262.13 623.066 3256.88 623.066C3245.32 623.066 3236.3 614.128 3236.3 602.73C3236.3 591.168 3245.48 582.312 3256.88 582.312C3262.13 582.312 3266.55 584.198 3269.92 588.052V583.05H3277.79V622ZM3269.75 602.73C3269.75 595.678 3264.26 589.774 3256.88 589.774C3249.58 589.774 3244.09 595.514 3244.09 602.73C3244.09 610.028 3249.58 615.686 3256.88 615.686C3264.34 615.686 3269.75 609.782 3269.75 602.73ZM3287.05 617.982L3291.32 611.914C3295.25 615.112 3299.43 615.932 3302.22 615.932C3306.4 615.932 3308.7 614.128 3308.7 611.504C3308.7 603.796 3288.45 608.552 3288.45 594.53C3288.45 587.396 3293.69 582.312 3301.81 582.312C3305.09 582.312 3310.59 583.132 3315.01 586.74L3310.83 592.562C3307.39 590.02 3303.94 589.528 3301.89 589.528C3297.96 589.528 3296.24 591.496 3296.24 593.628C3296.24 601.008 3316.41 596.99 3316.41 611.012C3316.41 618.474 3310.75 623.066 3301.98 623.066C3296.15 623.066 3291.07 621.016 3287.05 617.982ZM3333.1 622.492C3330.23 622.492 3328.02 620.278 3328.02 617.408C3328.02 614.538 3330.23 612.406 3333.1 612.406C3335.97 612.406 3338.11 614.538 3338.11 617.408C3338.11 620.278 3335.97 622.492 3333.1 622.492Z" fill="black"/>
<path d="M172.87 510H135.97V449.32H144.334V502.128H172.87V510ZM219.005 490.73C219.005 501.882 209.739 511.066 198.423 511.066C187.189 511.066 178.005 501.964 178.005 490.73C178.005 479.578 187.025 470.312 198.423 470.312C209.739 470.312 219.005 479.496 219.005 490.73ZM211.215 490.648C211.215 483.596 205.557 477.774 198.505 477.774C191.207 477.774 185.795 483.924 185.795 490.812C185.795 497.782 191.371 503.686 198.505 503.686C205.721 503.686 211.215 497.618 211.215 490.648ZM247.229 510H238.783L222.711 471.05H231.239L242.883 500.16L254.691 471.05H263.219L247.229 510ZM306.98 493.354H275.082C276.148 499.34 281.068 503.932 287.71 503.932C291.974 503.932 296.156 502.046 298.616 498.602L304.192 502.866C300.584 507.95 294.434 511.066 287.71 511.066C276.394 511.066 267.292 502.21 267.292 490.73C267.292 479.824 275.574 470.312 287.218 470.312C298.78 470.312 307.144 479.742 307.144 490.648C307.144 491.714 307.062 492.534 306.98 493.354ZM275.328 487.122H299.108C298.206 481.71 293.45 477.528 287.3 477.528C281.232 477.528 276.722 481.628 275.328 487.122ZM312.923 505.982L317.187 499.914C321.123 503.112 325.305 503.932 328.093 503.932C332.275 503.932 334.571 502.128 334.571 499.504C334.571 491.796 314.317 496.552 314.317 482.53C314.317 475.396 319.565 470.312 327.683 470.312C330.963 470.312 336.457 471.132 340.885 474.74L336.703 480.562C333.259 478.02 329.815 477.528 327.765 477.528C323.829 477.528 322.107 479.496 322.107 481.628C322.107 489.008 342.279 484.99 342.279 499.012C342.279 506.474 336.621 511.066 327.847 511.066C322.025 511.066 316.941 509.016 312.923 505.982ZM412.565 510H404.693V505.408C401.413 509.262 396.903 511.066 391.655 511.066C380.093 511.066 371.073 502.128 371.073 490.73C371.073 479.168 380.257 470.312 391.655 470.312C396.903 470.312 401.331 472.198 404.693 476.052V471.05H412.565V510ZM404.529 490.73C404.529 483.678 399.035 477.774 391.655 477.774C384.357 477.774 378.863 483.514 378.863 490.73C378.863 498.028 384.357 503.686 391.655 503.686C399.117 503.686 404.529 497.782 404.529 490.73ZM460.943 510H452.989V489.582C452.989 481.792 449.955 477.774 443.477 477.774C436.753 477.774 433.555 482.12 433.555 490.156V510H425.683V471.05H433.555V475.232C436.179 472.28 439.377 470.312 444.871 470.312C454.137 470.312 460.943 475.724 460.943 487.942V510ZM511.461 510H503.589V505.408C500.309 509.262 495.799 511.066 490.551 511.066C478.989 511.066 469.969 502.128 469.969 490.73C469.969 479.168 479.153 470.312 490.551 470.312C495.799 470.312 500.227 472.198 503.589 476.052V471.05H511.461V510ZM503.425 490.73C503.425 483.678 497.931 477.774 490.551 477.774C483.253 477.774 477.759 483.514 477.759 490.73C477.759 498.028 483.253 503.686 490.551 503.686C498.013 503.686 503.425 497.782 503.425 490.73ZM539.258 503.604V510.492C537.946 510.82 536.552 511.066 534.912 511.066C528.516 511.066 524.58 507.212 524.58 500.078V449.32H532.452V497.618C532.452 501.8 533.436 503.686 537.29 503.686C537.782 503.686 538.52 503.686 539.258 503.604ZM557.505 530.746H549.715L556.849 510.738L540.941 471.05H549.551L560.703 500.324L571.199 471.05H579.071L557.505 530.746ZM582.626 505.982L586.89 499.914C590.826 503.112 595.008 503.932 597.796 503.932C601.978 503.932 604.274 502.128 604.274 499.504C604.274 491.796 584.02 496.552 584.02 482.53C584.02 475.396 589.268 470.312 597.386 470.312C600.666 470.312 606.16 471.132 610.588 474.74L606.406 480.562C602.962 478.02 599.518 477.528 597.468 477.528C593.532 477.528 591.81 479.496 591.81 481.628C591.81 489.008 611.982 484.99 611.982 499.012C611.982 506.474 606.324 511.066 597.55 511.066C591.728 511.066 586.644 509.016 582.626 505.982ZM629.909 510H621.955V471.05H629.909V510ZM625.973 463.342C623.103 463.342 620.889 461.128 620.889 458.258C620.889 455.388 623.103 453.174 625.973 453.174C628.843 453.174 630.975 455.388 630.975 458.258C630.975 461.128 628.843 463.342 625.973 463.342ZM678.275 510H670.321V489.582C670.321 481.792 667.287 477.774 660.809 477.774C654.085 477.774 650.887 482.12 650.887 490.156V510H643.015V471.05H650.887V475.232C653.511 472.28 656.709 470.312 662.203 470.312C671.469 470.312 678.275 475.724 678.275 487.942V510ZM720.921 508.196V505.408C717.641 509.262 713.131 511.066 707.883 511.066C696.321 511.066 687.301 502.128 687.301 490.73C687.301 479.168 696.485 470.312 707.883 470.312C713.131 470.312 717.559 472.198 720.921 476.052V471.05H728.793V506.802C728.793 526.318 716.903 530.746 708.129 530.746C700.257 530.746 693.943 527.138 690.253 521.234L697.551 518.118C699.847 521.398 703.127 523.366 708.047 523.366C714.771 523.366 720.921 519.676 720.921 508.196ZM720.757 490.73C720.757 483.678 715.263 477.774 707.883 477.774C700.585 477.774 695.091 483.514 695.091 490.73C695.091 498.028 700.585 503.686 707.883 503.686C715.345 503.686 720.757 497.782 720.757 490.73ZM802.225 510H794.353V505.408C791.073 509.262 786.563 511.066 781.315 511.066C769.753 511.066 760.733 502.128 760.733 490.73C760.733 479.168 769.917 470.312 781.315 470.312C786.563 470.312 790.991 472.198 794.353 476.052V471.05H802.225V510ZM794.189 490.73C794.189 483.678 788.695 477.774 781.315 477.774C774.017 477.774 768.523 483.514 768.523 490.73C768.523 498.028 774.017 503.686 781.315 503.686C788.777 503.686 794.189 497.782 794.189 490.73ZM850.603 510H842.649V489.582C842.649 481.792 839.615 477.774 833.137 477.774C826.413 477.774 823.215 482.12 823.215 490.156V510H815.343V471.05H823.215V475.232C825.839 472.28 829.037 470.312 834.531 470.312C843.797 470.312 850.603 475.724 850.603 487.942V510ZM901.122 510H893.25V505.408C889.97 509.262 885.46 511.066 880.212 511.066C868.65 511.066 859.63 502.128 859.63 490.73C859.63 479.168 868.814 470.312 880.212 470.312C885.46 470.312 889.888 472.198 893.25 476.052V449.32H901.122V510ZM893.086 490.73C893.086 483.678 887.592 477.774 880.212 477.774C872.914 477.774 867.42 483.514 867.42 490.73C867.42 498.028 872.914 503.686 880.212 503.686C887.674 503.686 893.086 497.782 893.086 490.73ZM144.088 597H136.134V565.512H130.394V558.05H136.134V549.03C136.134 541.568 139.578 536.32 148.106 536.32C150.238 536.32 152.698 536.648 154.584 537.222V544.274C153.764 544.028 151.55 543.7 149.91 543.7C145.728 543.7 144.088 545.668 144.088 551.654V558.05H153.764V565.512H144.088V597ZM169.139 597H161.185V558.05H169.139V597ZM165.203 550.342C162.333 550.342 160.119 548.128 160.119 545.258C160.119 542.388 162.333 540.174 165.203 540.174C168.073 540.174 170.205 542.388 170.205 545.258C170.205 548.128 168.073 550.342 165.203 550.342ZM217.506 597H209.552V576.582C209.552 568.792 206.518 564.774 200.04 564.774C193.316 564.774 190.118 569.12 190.118 577.156V597H182.246V558.05H190.118V562.232C192.742 559.28 195.94 557.312 201.434 557.312C210.7 557.312 217.506 562.724 217.506 574.942V597ZM268.024 597H260.152V592.408C256.872 596.262 252.362 598.066 247.114 598.066C235.552 598.066 226.532 589.128 226.532 577.73C226.532 566.168 235.716 557.312 247.114 557.312C252.362 557.312 256.79 559.198 260.152 563.052V536.32H268.024V597ZM259.988 577.73C259.988 570.678 254.494 564.774 247.114 564.774C239.816 564.774 234.322 570.514 234.322 577.73C234.322 585.028 239.816 590.686 247.114 590.686C254.576 590.686 259.988 584.782 259.988 577.73ZM289.096 597H281.142V558.05H289.096V597ZM285.16 550.342C282.29 550.342 280.076 548.128 280.076 545.258C280.076 542.388 282.29 540.174 285.16 540.174C288.03 540.174 290.162 542.388 290.162 545.258C290.162 548.128 288.03 550.342 285.16 550.342ZM337.463 597H329.509V576.582C329.509 568.792 326.475 564.774 319.997 564.774C313.273 564.774 310.075 569.12 310.075 577.156V597H302.203V558.05H310.075V562.232C312.699 559.28 315.897 557.312 321.391 557.312C330.657 557.312 337.463 562.724 337.463 574.942V597ZM380.109 595.196V592.408C376.829 596.262 372.319 598.066 367.071 598.066C355.509 598.066 346.489 589.128 346.489 577.73C346.489 566.168 355.673 557.312 367.071 557.312C372.319 557.312 376.747 559.198 380.109 563.052V558.05H387.981V593.802C387.981 613.318 376.091 617.746 367.317 617.746C359.445 617.746 353.131 614.138 349.441 608.234L356.739 605.118C359.035 608.398 362.315 610.366 367.235 610.366C373.959 610.366 380.109 606.676 380.109 595.196ZM379.945 577.73C379.945 570.678 374.451 564.774 367.071 564.774C359.773 564.774 354.279 570.514 354.279 577.73C354.279 585.028 359.773 590.686 367.071 590.686C374.533 590.686 379.945 584.782 379.945 577.73ZM451.327 584.536L457.887 588.39C454.279 594.212 447.719 598.066 440.339 598.066C429.105 598.066 419.921 588.964 419.921 577.73C419.921 566.578 428.941 557.312 440.339 557.312C447.637 557.312 454.115 561.166 457.723 566.906L451.081 570.678C448.867 567.152 444.849 564.774 440.339 564.774C433.205 564.774 427.711 570.842 427.711 577.812C427.711 584.782 433.287 590.686 440.503 590.686C445.177 590.686 449.113 588.226 451.327 584.536ZM474.395 597H466.523V558.05H474.395V562.724C478.167 558.214 482.021 557.312 489.565 557.312V564.856C476.691 564.856 474.395 570.104 474.395 576.828V597ZM533.921 580.354H502.023C503.089 586.34 508.009 590.932 514.651 590.932C518.915 590.932 523.097 589.046 525.557 585.602L531.133 589.866C527.525 594.95 521.375 598.066 514.651 598.066C503.335 598.066 494.233 589.21 494.233 577.73C494.233 566.824 502.515 557.312 514.159 557.312C525.721 557.312 534.085 566.742 534.085 577.648C534.085 578.714 534.003 579.534 533.921 580.354ZM502.269 574.122H526.049C525.147 568.71 520.391 564.528 514.241 564.528C508.173 564.528 503.663 568.628 502.269 574.122ZM581.93 597H574.058V592.408C570.778 596.262 566.268 598.066 561.02 598.066C549.458 598.066 540.438 589.128 540.438 577.73C540.438 566.168 549.622 557.312 561.02 557.312C566.268 557.312 570.696 559.198 574.058 563.052V558.05H581.93V597ZM573.894 577.73C573.894 570.678 568.4 564.774 561.02 564.774C553.722 564.774 548.228 570.514 548.228 577.73C548.228 585.028 553.722 590.686 561.02 590.686C568.482 590.686 573.894 584.782 573.894 577.73ZM613.498 590.112V597.164C612.678 597.492 610.218 598.066 607.348 598.066C597.754 598.066 596.032 591.752 596.032 585.028V565.512H589.882V558.05H596.032V544.848H603.986V558.05H614.564V565.512H603.986V584.126C603.986 588.554 604.97 590.686 609.152 590.686C610.546 590.686 612.678 590.44 613.498 590.112ZM631.67 597H623.716V558.05H631.67V597ZM627.734 550.342C624.864 550.342 622.65 548.128 622.65 545.258C622.65 542.388 624.864 540.174 627.734 540.174C630.604 540.174 632.736 542.388 632.736 545.258C632.736 548.128 630.604 550.342 627.734 550.342ZM663.555 597H655.109L639.037 558.05H647.565L659.209 587.16L671.017 558.05H679.545L663.555 597ZM723.306 580.354H691.408C692.474 586.34 697.394 590.932 704.036 590.932C708.3 590.932 712.482 589.046 714.942 585.602L720.518 589.866C716.91 594.95 710.76 598.066 704.036 598.066C692.72 598.066 683.618 589.21 683.618 577.73C683.618 566.824 691.9 557.312 703.544 557.312C715.106 557.312 723.47 566.742 723.47 577.648C723.47 578.714 723.388 579.534 723.306 580.354ZM691.654 574.122H715.434C714.532 568.71 709.776 564.528 703.626 564.528C697.558 564.528 693.048 568.628 691.654 574.122ZM131.706 679.982L135.97 673.914C139.906 677.112 144.088 677.932 146.876 677.932C151.058 677.932 153.354 676.128 153.354 673.504C153.354 665.796 133.1 670.552 133.1 656.53C133.1 649.396 138.348 644.312 146.466 644.312C149.746 644.312 155.24 645.132 159.668 648.74L155.486 654.562C152.042 652.02 148.598 651.528 146.548 651.528C142.612 651.528 140.89 653.496 140.89 655.628C140.89 663.008 161.062 658.99 161.062 673.012C161.062 680.474 155.404 685.066 146.63 685.066C140.808 685.066 135.724 683.016 131.706 679.982ZM208.755 664.73C208.755 675.882 199.489 685.066 188.173 685.066C176.939 685.066 167.755 675.964 167.755 664.73C167.755 653.578 176.775 644.312 188.173 644.312C199.489 644.312 208.755 653.496 208.755 664.73ZM200.965 664.648C200.965 657.596 195.307 651.774 188.255 651.774C180.957 651.774 175.545 657.924 175.545 664.812C175.545 671.782 181.121 677.686 188.255 677.686C195.471 677.686 200.965 671.618 200.965 664.648ZM233.279 677.604V684.492C231.967 684.82 230.573 685.066 228.933 685.066C222.537 685.066 218.601 681.212 218.601 674.078V623.32H226.473V671.618C226.473 675.8 227.457 677.686 231.311 677.686C231.803 677.686 232.541 677.686 233.279 677.604ZM267.517 665.96V645.05H275.389V668.174C275.389 680.392 268.583 685.066 257.677 685.066C246.771 685.066 239.965 680.392 239.965 668.174V645.05H247.919V665.96C247.919 673.258 249.641 677.686 257.677 677.686C265.795 677.686 267.517 673.258 267.517 665.96ZM306.319 677.112V684.164C305.499 684.492 303.039 685.066 300.169 685.066C290.575 685.066 288.853 678.752 288.853 672.028V652.512H282.703V645.05H288.853V631.848H296.807V645.05H307.385V652.512H296.807V671.126C296.807 675.554 297.791 677.686 301.973 677.686C303.367 677.686 305.499 677.44 306.319 677.112ZM324.491 684H316.537V645.05H324.491V684ZM320.555 637.342C317.685 637.342 315.471 635.128 315.471 632.258C315.471 629.388 317.685 627.174 320.555 627.174C323.425 627.174 325.557 629.388 325.557 632.258C325.557 635.128 323.425 637.342 320.555 637.342ZM375.317 664.73C375.317 675.882 366.051 685.066 354.735 685.066C343.501 685.066 334.317 675.964 334.317 664.73C334.317 653.578 343.337 644.312 354.735 644.312C366.051 644.312 375.317 653.496 375.317 664.73ZM367.527 664.648C367.527 657.596 361.869 651.774 354.817 651.774C347.519 651.774 342.107 657.924 342.107 664.812C342.107 671.782 347.683 677.686 354.817 677.686C362.033 677.686 367.527 671.618 367.527 664.648ZM420.424 684H412.47V663.582C412.47 655.792 409.436 651.774 402.958 651.774C396.234 651.774 393.036 656.12 393.036 664.156V684H385.164V645.05H393.036V649.232C395.66 646.28 398.858 644.312 404.352 644.312C413.618 644.312 420.424 649.724 420.424 661.942V684ZM428.876 679.982L433.14 673.914C437.076 677.112 441.258 677.932 444.046 677.932C448.228 677.932 450.524 676.128 450.524 673.504C450.524 665.796 430.27 670.552 430.27 656.53C430.27 649.396 435.518 644.312 443.636 644.312C446.916 644.312 452.41 645.132 456.838 648.74L452.656 654.562C449.212 652.02 445.768 651.528 443.718 651.528C439.782 651.528 438.06 653.496 438.06 655.628C438.06 663.008 458.232 658.99 458.232 673.012C458.232 680.474 452.574 685.066 443.8 685.066C437.978 685.066 432.894 683.016 428.876 679.982ZM474.929 684.492C472.059 684.492 469.845 682.278 469.845 679.408C469.845 676.538 472.059 674.406 474.929 674.406C477.799 674.406 479.931 676.538 479.931 679.408C479.931 682.278 477.799 684.492 474.929 684.492Z" fill="black"/>
<defs>
<linearGradient id="paint0_linear_2038_1371" x1="2244.01" y1="1364.72" x2="2081.94" y2="1425.25" gradientUnits="userSpaceOnUse">
<stop stop-color="#50A684"/>
<stop offset="1" stop-color="#003DA5"/>
</linearGradient>
<linearGradient id="paint1_linear_2038_1371" x1="2485.13" y1="855.24" x2="1214.22" y2="1450.48" gradientUnits="userSpaceOnUse">
<stop stop-color="#50A684"/>
<stop offset="1" stop-color="#003DA5"/>
</linearGradient>
</defs>
</svg>
