<svg width="2916" height="1800" viewBox="0 0 2916 1800" fill="none" xmlns="http://www.w3.org/2000/svg">
<rect width="2662" height="1800" fill="white"/>
<path d="M78.02 310H58.88L26.21 275.46V310H11.8V228.6H26.21V264.57L57.01 228.6H75.16L38.75 269.3L78.02 310ZM134.85 288.33H95.0305C96.5705 294.71 101.74 299.22 109.55 299.22C114.28 299.22 119.34 297.46 122.42 293.39L131.66 300.76C126.93 307.47 118.57 311.43 109.66 311.43C93.9305 311.43 81.8305 299.66 81.8305 284.37C81.8305 269.52 92.2805 256.76 108.89 256.76C124.29 256.76 135.18 269.3 135.18 284.04C135.18 285.47 135.07 287.01 134.85 288.33ZM95.4705 278.43H121.54C120.77 273.15 115.27 269.08 108.78 269.08C102.51 269.08 97.4505 272.82 95.4705 278.43ZM195.866 288.33H156.046C157.586 294.71 162.756 299.22 170.566 299.22C175.296 299.22 180.356 297.46 183.436 293.39L192.676 300.76C187.946 307.47 179.586 311.43 170.676 311.43C154.946 311.43 142.846 299.66 142.846 284.37C142.846 269.52 153.296 256.76 169.906 256.76C185.306 256.76 196.196 269.3 196.196 284.04C196.196 285.47 196.086 287.01 195.866 288.33ZM156.486 278.43H182.556C181.786 273.15 176.286 269.08 169.796 269.08C163.526 269.08 158.466 272.82 156.486 278.43ZM256.882 310H243.352V282.06C243.352 271.94 237.962 269.74 232.572 269.74C227.182 269.74 221.792 271.83 221.792 281.84V310H208.262V257.75H221.792V261.6C224.762 259.4 228.392 256.76 235.542 256.76C246.982 256.76 256.882 263.47 256.882 279.86V310ZM316.894 310H302.484V228.6H331.304C350.664 228.6 359.244 240.92 359.244 255.66C359.244 270.4 350.664 282.83 331.304 282.83H316.894V310ZM316.894 268.97H331.304C340.874 268.97 344.944 263.03 344.944 255.77C344.944 248.51 340.874 242.46 331.304 242.46H316.894V268.97ZM383.247 310H369.717V257.75H383.247V261.6C388.307 257.86 393.257 256.76 403.377 256.76V269.74C386.107 269.74 383.247 274.58 383.247 283.6V310ZM465.554 284.04C465.554 299.11 453.234 311.43 437.724 311.43C422.324 311.43 410.004 299.11 410.004 284.04C410.004 268.86 422.324 256.76 437.724 256.76C453.234 256.76 465.554 268.86 465.554 284.04ZM452.244 284.04C452.244 276.34 445.754 269.74 437.724 269.74C429.804 269.74 423.314 276.34 423.314 284.04C423.314 291.85 429.804 298.45 437.724 298.45C445.754 298.45 452.244 291.85 452.244 284.04ZM491.206 310H477.676V228.6H491.206V261.6C495.386 258.19 500.336 256.76 505.726 256.76C521.126 256.76 533.446 268.86 533.446 284.04C533.446 299.11 521.126 311.43 505.726 311.43C500.336 311.43 495.386 310 491.206 306.59V310ZM491.206 283.49V284.7C491.536 292.18 497.916 298.45 505.726 298.45C513.646 298.45 520.136 291.85 520.136 284.04C520.136 276.34 513.646 269.74 505.726 269.74C497.916 269.74 491.536 276.12 491.206 283.49ZM566.906 298.56V310.55C565.366 310.99 563.276 311.43 561.076 311.43C551.066 311.43 545.566 305.93 545.566 296.03V228.6H559.096V292.95C559.096 296.47 560.086 298.67 564.816 298.67C565.256 298.67 566.136 298.67 566.906 298.56ZM625.339 288.33H585.519C587.059 294.71 592.229 299.22 600.039 299.22C604.769 299.22 609.829 297.46 612.909 293.39L622.149 300.76C617.419 307.47 609.059 311.43 600.149 311.43C584.419 311.43 572.319 299.66 572.319 284.37C572.319 269.52 582.769 256.76 599.379 256.76C614.779 256.76 625.669 269.3 625.669 284.04C625.669 285.47 625.559 287.01 625.339 288.33ZM585.959 278.43H612.029C611.259 273.15 605.759 269.08 599.269 269.08C592.999 269.08 587.939 272.82 585.959 278.43ZM719.244 310H705.714V282.06C705.714 271.39 700.984 269.74 696.144 269.74C690.754 269.74 685.254 271.83 685.254 281.84V310H671.724V282.06C671.724 271.39 666.994 269.74 662.154 269.74C656.764 269.74 651.264 271.83 651.264 281.84V310H637.734V257.75H651.264V261.6C654.564 259.18 657.864 256.76 664.794 256.76C671.614 256.76 677.664 259.18 681.294 264.57C686.244 258.63 693.284 256.76 698.784 256.76C710.334 256.76 719.244 263.47 719.244 279.86V310ZM4.1 414.02L13.12 404.67C17.63 409.84 23.02 415.23 32.04 415.23C41.28 415.23 44.91 409.51 44.91 404.45C44.91 388.5 8.17 394.33 8.17 367.6C8.17 352.86 19.28 344.17 34.46 344.17C41.72 344.17 48.54 346.15 56.35 351.87L48.87 363.09C44.25 359.02 38.86 357.37 33.8 357.37C26.65 357.37 22.47 360.67 22.47 366.17C22.47 382.56 59.32 375.08 59.32 403.79C59.32 418.31 49.97 428.43 31.93 428.43C22.36 428.43 12.57 425.57 4.1 414.02ZM122.556 401.04C122.556 416.11 110.236 428.43 94.7263 428.43C79.3262 428.43 67.0063 416.11 67.0063 401.04C67.0063 385.86 79.3262 373.76 94.7263 373.76C110.236 373.76 122.556 385.86 122.556 401.04ZM109.246 401.04C109.246 393.34 102.756 386.74 94.7263 386.74C86.8063 386.74 80.3163 393.34 80.3163 401.04C80.3163 408.85 86.8063 415.45 94.7263 415.45C102.756 415.45 109.246 408.85 109.246 401.04ZM156.018 415.56V427.55C154.478 427.99 152.388 428.43 150.188 428.43C140.178 428.43 134.678 422.93 134.678 413.03V345.6H148.208V409.95C148.208 413.47 149.198 415.67 153.928 415.67C154.368 415.67 155.248 415.67 156.018 415.56ZM193.88 427H179.69L158.68 374.75H173.42L186.73 410.17L200.15 374.75H214.89L193.88 427ZM272.888 405.33H233.068C234.608 411.71 239.778 416.22 247.588 416.22C252.318 416.22 257.378 414.46 260.458 410.39L269.698 417.76C264.968 424.47 256.608 428.43 247.698 428.43C231.968 428.43 219.868 416.66 219.868 401.37C219.868 386.52 230.318 373.76 246.928 373.76C262.328 373.76 273.218 386.3 273.218 401.04C273.218 402.47 273.108 404.01 272.888 405.33ZM233.508 395.43H259.578C258.808 390.15 253.308 386.08 246.818 386.08C240.548 386.08 235.488 389.82 233.508 395.43ZM298.813 427H285.283V374.75H298.813V378.6C303.873 374.86 308.823 373.76 318.943 373.76V386.74C301.673 386.74 298.813 391.58 298.813 400.6V427Z" fill="#242424"/>
<path d="M2132.18 166H2117.11L2085.1 84.6H2100.94L2124.59 148.07L2148.24 84.6H2164.08L2132.18 166ZM2224.61 140.04C2224.61 155.11 2212.29 167.43 2196.78 167.43C2181.38 167.43 2169.06 155.11 2169.06 140.04C2169.06 124.86 2181.38 112.76 2196.78 112.76C2212.29 112.76 2224.61 124.86 2224.61 140.04ZM2211.3 140.04C2211.3 132.34 2204.81 125.74 2196.78 125.74C2188.86 125.74 2182.37 132.34 2182.37 140.04C2182.37 147.85 2188.86 154.45 2196.78 154.45C2204.81 154.45 2211.3 147.85 2211.3 140.04ZM2272.26 147.74L2283.7 154.56C2278.86 162.26 2270.06 167.43 2260.05 167.43C2244.65 167.43 2232.33 155.11 2232.33 140.04C2232.33 124.86 2244.65 112.76 2260.05 112.76C2269.95 112.76 2278.53 117.71 2283.48 125.19L2271.93 131.9C2269.29 128.16 2265 125.74 2260.05 125.74C2252.13 125.74 2245.64 132.34 2245.64 140.04C2245.64 147.85 2252.13 154.45 2260.05 154.45C2265.22 154.45 2269.73 151.81 2272.26 147.74ZM2346.11 166H2332.58V162.59C2328.4 166 2323.45 167.43 2318.06 167.43C2302.66 167.43 2290.34 155.11 2290.34 140.04C2290.34 124.86 2302.66 112.76 2318.06 112.76C2323.34 112.76 2328.29 114.19 2332.58 117.6V113.75H2346.11V166ZM2332.58 140.04C2332.58 132.34 2326.09 125.74 2318.06 125.74C2310.14 125.74 2303.65 132.34 2303.65 140.04C2303.65 147.85 2310.14 154.45 2318.06 154.45C2326.09 154.45 2332.58 147.85 2332.58 140.04ZM2383.97 154.56V166.55C2382.43 166.99 2380.34 167.43 2378.14 167.43C2368.13 167.43 2362.63 161.93 2362.63 152.03V84.6H2376.16V148.95C2376.16 152.47 2377.15 154.67 2381.88 154.67C2382.32 154.67 2383.2 154.67 2383.97 154.56Z" fill="#242424"/>
<path d="M2057.94 1425H2005.8V1343.6H2020.21V1411.14H2057.94V1425ZM2120.1 1399.04C2120.1 1414.11 2107.78 1426.43 2092.27 1426.43C2076.87 1426.43 2064.55 1414.11 2064.55 1399.04C2064.55 1383.86 2076.87 1371.76 2092.27 1371.76C2107.78 1371.76 2120.1 1383.86 2120.1 1399.04ZM2106.79 1399.04C2106.79 1391.34 2100.3 1384.74 2092.27 1384.74C2084.35 1384.74 2077.86 1391.34 2077.86 1399.04C2077.86 1406.85 2084.35 1413.45 2092.27 1413.45C2100.3 1413.45 2106.79 1406.85 2106.79 1399.04ZM2158.66 1425H2144.47L2123.46 1372.75H2138.2L2151.51 1408.17L2164.93 1372.75H2179.67L2158.66 1425ZM2237.67 1403.33H2197.85C2199.39 1409.71 2204.56 1414.22 2212.37 1414.22C2217.1 1414.22 2222.16 1412.46 2225.24 1408.39L2234.48 1415.76C2229.75 1422.47 2221.39 1426.43 2212.48 1426.43C2196.75 1426.43 2184.65 1414.66 2184.65 1399.37C2184.65 1384.52 2195.1 1371.76 2211.71 1371.76C2227.11 1371.76 2238 1384.3 2238 1399.04C2238 1400.47 2237.89 1402.01 2237.67 1403.33ZM2198.29 1393.43H2224.36C2223.59 1388.15 2218.09 1384.08 2211.6 1384.08C2205.33 1384.08 2200.27 1387.82 2198.29 1393.43ZM2307.87 1413.12V1425.11C2307.87 1425.11 2303.91 1426.43 2297.42 1426.43C2287.19 1426.43 2281.91 1419.72 2281.91 1409.49V1385.73H2273.66V1372.75H2281.91V1355.04H2295.44V1372.75H2309.3V1385.73H2295.44V1406.63C2295.44 1410.26 2296.43 1413.67 2301.27 1413.67C2304.68 1413.67 2307.87 1413.12 2307.87 1413.12ZM2374.15 1399.04C2374.15 1414.11 2361.83 1426.43 2346.32 1426.43C2330.92 1426.43 2318.6 1414.11 2318.6 1399.04C2318.6 1383.86 2330.92 1371.76 2346.32 1371.76C2361.83 1371.76 2374.15 1383.86 2374.15 1399.04ZM2360.84 1399.04C2360.84 1391.34 2354.35 1384.74 2346.32 1384.74C2338.4 1384.74 2331.91 1391.34 2331.91 1399.04C2331.91 1406.85 2338.4 1413.45 2346.32 1413.45C2354.35 1413.45 2360.84 1406.85 2360.84 1399.04ZM2430.88 1425H2416.47V1343.6H2445.29C2464.65 1343.6 2473.23 1355.92 2473.23 1370.66C2473.23 1385.4 2464.65 1397.83 2445.29 1397.83H2430.88V1425ZM2430.88 1383.97H2445.29C2454.86 1383.97 2458.93 1378.03 2458.93 1370.77C2458.93 1363.51 2454.86 1357.46 2445.29 1357.46H2430.88V1383.97ZM2505.05 1413.56V1425.55C2503.51 1425.99 2501.42 1426.43 2499.22 1426.43C2489.21 1426.43 2483.71 1420.93 2483.71 1411.03V1343.6H2497.24V1407.95C2497.24 1411.47 2498.23 1413.67 2502.96 1413.67C2503.4 1413.67 2504.28 1413.67 2505.05 1413.56ZM2566.23 1425H2552.7V1421.59C2548.52 1425 2543.57 1426.43 2538.18 1426.43C2522.78 1426.43 2510.46 1414.11 2510.46 1399.04C2510.46 1383.86 2522.78 1371.76 2538.18 1371.76C2543.46 1371.76 2548.41 1373.19 2552.7 1376.6V1372.75H2566.23V1425ZM2552.7 1399.04C2552.7 1391.34 2546.21 1384.74 2538.18 1384.74C2530.26 1384.74 2523.77 1391.34 2523.77 1399.04C2523.77 1406.85 2530.26 1413.45 2538.18 1413.45C2546.21 1413.45 2552.7 1406.85 2552.7 1399.04ZM2601.01 1452.83H2587.81L2597.27 1426.43L2575.6 1372.75H2590.56L2603.65 1408.83L2616.63 1372.75H2629.94L2601.01 1452.83Z" fill="#242424"/>
<path d="M1.1 1413.02L10.12 1403.67C14.63 1408.84 20.02 1414.23 29.04 1414.23C38.28 1414.23 41.91 1408.51 41.91 1403.45C41.91 1387.5 5.17 1393.33 5.17 1366.6C5.17 1351.86 16.28 1343.17 31.46 1343.17C38.72 1343.17 45.54 1345.15 53.35 1350.87L45.87 1362.09C41.25 1358.02 35.86 1356.37 30.8 1356.37C23.65 1356.37 19.47 1359.67 19.47 1365.17C19.47 1381.56 56.32 1374.08 56.32 1402.79C56.32 1417.31 46.97 1427.43 28.93 1427.43C19.36 1427.43 9.57 1424.57 1.1 1413.02ZM119.556 1400.04C119.556 1415.11 107.236 1427.43 91.7263 1427.43C76.3262 1427.43 64.0063 1415.11 64.0063 1400.04C64.0063 1384.86 76.3262 1372.76 91.7263 1372.76C107.236 1372.76 119.556 1384.86 119.556 1400.04ZM106.246 1400.04C106.246 1392.34 99.7563 1385.74 91.7263 1385.74C83.8063 1385.74 77.3163 1392.34 77.3163 1400.04C77.3163 1407.85 83.8063 1414.45 91.7263 1414.45C99.7563 1414.45 106.246 1407.85 106.246 1400.04ZM167.208 1407.74L178.648 1414.56C173.808 1422.26 165.008 1427.43 154.998 1427.43C139.598 1427.43 127.278 1415.11 127.278 1400.04C127.278 1384.86 139.598 1372.76 154.998 1372.76C164.898 1372.76 173.478 1377.71 178.428 1385.19L166.878 1391.9C164.238 1388.16 159.948 1385.74 154.998 1385.74C147.078 1385.74 140.588 1392.34 140.588 1400.04C140.588 1407.85 147.078 1414.45 154.998 1414.45C160.168 1414.45 164.678 1411.81 167.208 1407.74ZM203.326 1426H189.796V1373.75H203.326V1426ZM196.616 1365.06C191.776 1365.06 188.036 1361.32 188.036 1356.48C188.036 1351.64 191.776 1348.01 196.616 1348.01C201.456 1348.01 205.086 1351.64 205.086 1356.48C205.086 1361.32 201.456 1365.06 196.616 1365.06ZM271.349 1426H257.819V1422.59C253.639 1426 248.689 1427.43 243.299 1427.43C227.899 1427.43 215.579 1415.11 215.579 1400.04C215.579 1384.86 227.899 1372.76 243.299 1372.76C248.579 1372.76 253.529 1374.19 257.819 1377.6V1373.75H271.349V1426ZM257.819 1400.04C257.819 1392.34 251.329 1385.74 243.299 1385.74C235.379 1385.74 228.889 1392.34 228.889 1400.04C228.889 1407.85 235.379 1414.45 243.299 1414.45C251.329 1414.45 257.819 1407.85 257.819 1400.04ZM309.209 1414.56V1426.55C307.669 1426.99 305.579 1427.43 303.379 1427.43C293.369 1427.43 287.869 1421.93 287.869 1412.03V1344.6H301.399V1408.95C301.399 1412.47 302.389 1414.67 307.119 1414.67C307.559 1414.67 308.439 1414.67 309.209 1414.56Z" fill="#242424"/>
<path d="M2003.85 429.866L2002.41 429.173L1944.93 352.732C1942.96 350.144 1939.51 348.249 1935.37 347.52C1877.88 337.568 1819.02 329.075 1760.42 322.259L1754.26 321.53V269.22L1760.74 268.673C1772.48 267.653 1783.69 267.142 1794.16 267.142C1809.35 267.142 1822.52 268.272 1833.2 270.46C1846.54 273.194 1862.64 274.615 1881.13 274.615C1911.41 274.615 1937.55 270.861 1938.61 270.678C1945.41 269.694 1950.35 265.502 1950.35 260.727V182.938C1950.35 179.839 1948.33 176.96 1944.83 175.028C1942.17 173.57 1938.88 172.768 1935.48 172.768C1934.47 172.768 1933.4 172.841 1932.39 172.986C1932.13 173.023 1907.8 176.559 1880.86 176.559C1865.66 176.559 1852.49 175.429 1841.76 173.205C1828.42 170.435 1812.22 169.013 1793.73 169.013C1781.78 169.013 1769.13 169.596 1756.17 170.726L1752.5 171.054L1749.9 169.232C1747.08 167.263 1743.31 166.206 1739.33 166.206C1731.15 166.206 1724.51 170.763 1724.51 176.376V318.285L1716 317.41C1616.55 307.203 1516.09 301.699 1417.43 300.97L1410.1 300.897V252.014L1416.58 251.467C1428.32 250.447 1439.53 249.936 1449.99 249.936C1465.19 249.936 1478.36 251.066 1489.04 253.254C1502.38 255.988 1518.48 257.409 1536.96 257.409C1567.25 257.409 1593.39 253.655 1594.45 253.472C1601.25 252.488 1606.19 248.296 1606.19 243.521L1606.3 165.696C1606.3 162.597 1604.28 159.717 1600.77 157.785C1598.12 156.327 1594.82 155.525 1591.47 155.525C1590.41 155.525 1589.4 155.598 1588.34 155.744C1588.07 155.78 1563.69 159.316 1536.81 159.316C1521.61 159.316 1508.44 158.186 1497.65 155.963C1484.31 153.192 1468.11 151.771 1449.62 151.771C1437.67 151.771 1425.02 152.354 1412.06 153.484L1408.4 153.812L1405.79 152.026C1402.98 150.057 1399.2 149 1395.22 149C1387.04 149 1380.4 153.557 1380.4 159.17V300.901L1373.07 300.938C1271.75 301.667 1168.63 307.426 1066.63 318.106L1058.07 319.018V269.224L1064.56 268.677C1076.3 267.657 1087.56 267.146 1097.97 267.146C1113.17 267.146 1126.34 268.276 1137.02 270.464C1150.36 273.197 1166.46 274.619 1184.94 274.619C1215.23 274.619 1241.36 270.865 1242.43 270.682C1249.23 269.698 1254.17 265.506 1254.17 260.731V182.942C1254.17 179.843 1252.15 176.964 1248.64 175.032C1245.99 173.574 1242.69 172.772 1239.29 172.772C1238.28 172.772 1237.22 172.844 1236.21 172.99C1235.95 173.027 1211.61 176.563 1184.68 176.563C1169.48 176.563 1156.31 175.433 1145.58 173.209C1132.24 170.438 1116.09 169.017 1097.6 169.017C1085.65 169.017 1073 169.6 1060.04 170.73L1056.37 171.058L1053.77 169.236C1050.95 167.267 1047.18 166.21 1043.2 166.21C1035.02 166.21 1028.38 170.767 1028.38 176.38V322.338L1022.21 323.067C966.269 329.702 909.795 337.941 854.326 347.527C850.182 348.22 846.728 350.115 844.763 352.74L786.959 429.618L785.791 430.274C781.753 432.534 779.734 436.143 780.531 439.679C803.694 544.045 830.471 641.115 854.059 726.818C867.341 774.935 879.826 820.388 890.505 862.493L890.824 863.514V904.049H834.35C826.168 904.049 819.527 908.606 819.527 914.219V967.658C819.527 973.272 826.168 977.828 834.35 977.828H1955.66C1963.85 977.828 1970.49 973.272 1970.49 967.658V914.219C1970.49 908.605 1963.85 904.049 1955.66 904.049H1899.19V865.884H1891.33L1893.35 859.687C1940.79 712.525 1962.68 626.103 1995.83 495.234L1996.26 493.484C2000.56 476.497 2005.07 458.708 2009.86 439.899C2010.87 436.035 2008.53 432.171 2003.85 429.875L2003.85 429.866ZM868.185 366.111L871.479 365.564C1044.36 336.256 1220.47 321.383 1394.94 321.383C1569.42 321.383 1745.53 336.256 1918.41 365.564L1921.7 366.111L1964.79 423.413L1949.76 421.409C1765.3 396.767 1578.71 384.263 1395.1 384.263C1211.33 384.263 1024.59 396.804 840.125 421.518L825.089 423.523L868.282 366.147L868.185 366.111ZM1760.1 732.458V850.562H1661.91V732.458C1661.91 715.326 1683.91 701.365 1711 701.365C1738.1 701.365 1760.1 715.326 1760.1 732.458ZM1496.47 771.025V850.563H1293.41V771.025C1293.41 732.604 1338.94 701.365 1394.94 701.365C1450.94 701.365 1496.47 732.605 1496.47 771.025ZM1117.04 732.458V850.562H1018.86V732.458C1018.86 715.326 1040.85 701.365 1067.95 701.365C1095.04 701.365 1117.04 715.326 1117.04 732.458ZM920.575 870.905H1869.6V904.004H920.575V870.905ZM1940.9 924.381V957.48H849.28V924.381H1940.9ZM1952.65 546.844C1949.56 559.056 1946.48 570.975 1943.45 582.676L1942.23 587.525L1935.17 586.832C1756.76 569.626 1575.11 560.878 1395.23 560.878C1215.33 560.878 1032.69 569.663 853.851 586.942L846.785 587.635L845.51 582.787C842.429 570.94 839.347 558.947 836.266 546.808L834.938 541.595L842.588 540.903C1022.21 524.536 1206.52 516.261 1390.39 516.261C1574.31 516.261 1761.28 524.536 1946.26 540.866L1953.97 541.559L1952.64 546.808L1952.65 546.844Z" fill="#003DA5"/>
<mask id="mask0_2038_1580" style="mask-type:alpha" maskUnits="userSpaceOnUse" x="515" y="670" width="1596" height="1014">
<path fill-rule="evenodd" clip-rule="evenodd" d="M515 1202.35V848.91C569.716 848.91 618.019 819.498 648.085 781.755C648.655 781.043 649.154 780.331 649.724 779.69C667.606 756.546 678.863 730.411 678.863 705.841C678.863 686.187 694.822 670.235 714.485 670.235C734.148 670.235 750.107 686.187 750.107 705.841C750.107 730.482 761.363 756.618 779.247 779.69C779.816 780.402 780.315 781.115 780.885 781.755C810.95 819.498 859.254 848.91 913.97 848.91C968.686 848.91 1016.99 819.498 1047.05 781.755C1047.62 781.043 1048.12 780.331 1048.69 779.69C1066.58 756.546 1077.83 730.411 1077.83 705.841C1077.83 686.187 1093.79 670.235 1113.46 670.235C1133.12 670.235 1149.08 686.187 1149.08 705.841C1149.08 730.482 1160.33 756.618 1178.22 779.69C1178.79 780.402 1179.29 781.115 1179.86 781.755C1209.92 819.498 1258.22 848.91 1312.94 848.91C1367.66 848.91 1415.96 819.498 1446.02 781.755C1446.59 781.043 1447.09 780.331 1447.66 779.69C1465.55 756.546 1476.8 730.411 1476.8 705.841C1476.8 686.187 1492.76 670.235 1512.43 670.235C1532.09 670.235 1548.05 686.187 1548.05 705.841C1548.05 730.482 1559.3 756.618 1577.19 779.69C1577.76 780.402 1578.26 781.115 1578.83 781.755C1608.89 819.498 1657.19 848.91 1711.91 848.91C1766.63 848.91 1814.93 819.498 1844.99 781.755C1845.56 781.043 1846.06 780.331 1846.63 779.69C1864.52 756.546 1875.77 730.411 1875.77 705.841C1875.77 686.187 1891.73 670.235 1911.4 670.235C1931.06 670.235 1947.02 686.187 1947.02 705.841C1947.02 730.482 1958.27 756.618 1976.16 779.69C1976.73 780.402 1977.23 781.115 1977.8 781.755C2007.86 819.498 2056.16 848.91 2110.88 848.91V1202.35C2078.89 1202.35 2051.11 1184.19 2033.58 1162.04C2025.53 1151.93 2018.33 1141.25 2018.33 1130.42C2018.33 1071.46 1970.53 1023.6 1911.47 1023.6C1852.48 1023.6 1804.6 1071.39 1804.6 1130.42C1804.6 1141.32 1797.4 1151.93 1789.35 1162.04C1771.76 1184.12 1744.04 1202.35 1712.05 1202.35C1680.06 1202.35 1652.28 1184.19 1634.75 1162.04C1626.7 1151.93 1619.51 1141.25 1619.51 1130.42C1619.51 1071.46 1571.7 1023.6 1512.64 1023.6C1453.65 1023.6 1405.77 1071.39 1405.77 1130.42C1405.77 1141.32 1398.58 1151.93 1390.53 1162.04C1372.93 1184.12 1345.21 1202.35 1313.22 1202.35C1281.24 1202.35 1253.45 1184.19 1235.92 1162.04C1227.87 1151.93 1220.68 1141.25 1220.68 1130.42C1220.68 1071.46 1172.87 1023.6 1113.81 1023.6C1054.82 1023.6 1006.94 1071.39 1006.94 1130.42C1006.94 1141.32 999.748 1151.93 991.698 1162.04C974.1 1184.12 946.386 1202.35 914.397 1202.35C882.409 1202.35 854.624 1184.19 837.097 1162.04C829.046 1151.93 821.85 1141.25 821.85 1130.42C821.85 1071.46 774.045 1023.6 714.983 1023.6C655.993 1023.6 608.116 1071.39 608.116 1130.42C608.116 1141.32 600.921 1151.93 592.87 1162.04C575.273 1184.12 547.558 1202.35 515.57 1202.35H515ZM550.622 1683.75C530.959 1683.75 515 1667.8 515 1648.14V1273.48C569.716 1273.48 618.019 1244.07 648.085 1206.33C666.893 1182.68 678.862 1155.7 678.862 1130.34C678.862 1110.69 694.821 1094.74 714.484 1094.74C734.147 1094.74 750.106 1110.69 750.106 1130.34C750.106 1155.69 762.075 1182.68 780.884 1206.33C810.948 1244.07 859.253 1273.48 913.968 1273.48C968.684 1273.48 1016.99 1244.07 1047.05 1206.33C1065.86 1182.68 1077.83 1155.7 1077.83 1130.34C1077.83 1110.69 1093.79 1094.74 1113.45 1094.74C1133.12 1094.74 1149.07 1110.69 1149.07 1130.34C1149.07 1155.69 1161.04 1182.68 1179.85 1206.33C1209.92 1244.07 1258.22 1273.48 1312.94 1273.48C1367.65 1273.48 1415.96 1244.07 1446.02 1206.33C1464.83 1182.68 1476.8 1155.7 1476.8 1130.34C1476.8 1110.69 1492.76 1094.74 1512.42 1094.74C1532.08 1094.74 1548.04 1110.69 1548.04 1130.34C1548.04 1155.69 1560.01 1182.68 1578.82 1206.33C1608.88 1244.07 1657.19 1273.48 1711.91 1273.48C1766.62 1273.48 1814.92 1244.07 1844.99 1206.33C1863.8 1182.68 1875.77 1155.7 1875.77 1130.34C1875.77 1110.69 1891.73 1094.74 1911.39 1094.74C1931.05 1094.74 1947.01 1110.69 1947.01 1130.34C1947.01 1155.69 1958.98 1182.68 1977.79 1206.33C2007.85 1244.07 2056.16 1273.48 2110.87 1273.48V1648.14C2110.87 1667.8 2094.92 1683.75 2075.25 1683.75H550.622Z" fill="#00A7B5"/>
</mask>
<g mask="url(#mask0_2038_1580)">
<path d="M2109.76 969.463C2109.76 1303.53 1294.96 1667.66 915.578 1667.66C536.194 1667.66 690.354 1351.8 690.354 1017.73C690.354 683.654 1043.44 364.573 1422.83 364.573C1802.21 364.573 2109.76 635.391 2109.76 969.463Z" fill="#00A7B5"/>
</g>
<path d="M1743.96 1317.91C1752.4 1331.44 1763.21 1350.25 1773.25 1369.42C1785.49 1392.79 1796.18 1415.97 1800.25 1430.63L1800.27 1430.7L1800.3 1430.77C1805.44 1448.02 1806.6 1458.89 1805.77 1465.35C1805.37 1468.47 1804.56 1470.09 1803.93 1470.92C1803.38 1471.64 1802.69 1472.13 1801.59 1472.44C1798.84 1473.22 1794.03 1472.76 1786.98 1470.36C1780.25 1468.06 1772.83 1464.48 1765.55 1460.71L1765.46 1460.67L1765.37 1460.62L1763.42 1459.66C1752.72 1454.31 1727.85 1440.94 1701.01 1426.77C1678.98 1415.14 1655.63 1402.97 1638.32 1394.59C1673.8 1371.21 1716.34 1341.51 1743.96 1317.91Z" fill="url(#paint0_linear_2038_1580)" stroke="black" stroke-width="16.0875"/>
<path d="M794.866 806.278C796.334 805.805 799.484 805.483 804.804 805.906C809.927 806.314 816.283 807.338 823.632 808.912C838.313 812.058 856.311 817.258 875.134 823.483C912.824 835.948 952.992 852.247 975.236 863.632L980.607 866.38L984.749 861.993C1003.4 842.244 1028.79 818.46 1052.09 801.321C1063.78 792.722 1074.6 786.055 1083.56 782.325C1092.89 778.445 1097.77 778.751 1099.83 779.838C1101.89 781.309 1104.74 784.847 1107.17 791.671C1109.63 798.548 1111.39 808.04 1111.7 820.158C1112.3 844.361 1107.03 878.261 1090.8 920.876C1055.83 1010.92 1068.79 1067.76 1096.54 1102.7C1123.76 1136.96 1163.59 1148.05 1178.81 1150.27L1178.86 1150.28L1178.91 1150.29C1233.49 1157.56 1310.37 1157.05 1391.22 1110.59C1428.53 1092.58 1466.56 1064.05 1498.87 1037.13C1515.11 1023.61 1530.01 1010.4 1542.73 999.029C1555.53 987.59 1565.94 978.175 1573.48 971.972L1573.48 971.973C1582.36 964.682 1591.32 956.409 1600.44 948.139C1609.63 939.803 1619.1 931.361 1629.33 923.383C1649.73 907.466 1672.96 893.567 1702.03 886.681L1702.04 886.679C1770.63 870.319 1826.92 887.867 1855.24 928.455L1859.41 934.431L1865.76 930.871C1881.25 922.202 1899.78 909.743 1917.95 897.347C1936.29 884.843 1954.27 872.401 1969.12 863.372L1969.17 863.34L1969.23 863.306C1974.88 859.745 1982.76 857.702 1991.02 857.926C1999.25 858.15 2007.17 860.606 2013.09 865.208C2018.83 869.671 2023.12 876.455 2023.97 886.474C2024.84 896.729 2022.11 910.83 2012.63 929.432L2012.61 929.471C1974.13 1005.98 1933.22 1118.78 1790.9 1269.73C1758.46 1303.28 1695.28 1360.54 1626.58 1401.76L1626.5 1401.81L1626.42 1401.86C1588.85 1425.58 1562.89 1443.89 1524.13 1436.14C1545.57 1396.72 1560.11 1362.81 1565.21 1346.01C1566.13 1342.97 1566.8 1340.55 1567.22 1338.73C1567.43 1337.84 1567.61 1336.91 1567.72 1336.05C1567.77 1335.63 1567.82 1335.05 1567.81 1334.41C1567.8 1333.94 1567.77 1332.58 1567.12 1331.06C1566.77 1330.23 1566.07 1328.96 1564.72 1327.87C1563.24 1326.67 1561.43 1326.06 1559.62 1326.05C1556.61 1326.03 1554.65 1327.66 1554.27 1327.98C1553.09 1328.94 1552.31 1330.11 1552.02 1330.55C1551.21 1331.77 1550.3 1333.43 1549.39 1335.2C1545.7 1342.42 1539.5 1356.4 1532.99 1371.56C1526.43 1386.81 1519.43 1403.54 1514.06 1416.45C1511.38 1422.9 1509.11 1428.41 1507.51 1432.3C1507.1 1433.3 1506.73 1434.2 1506.41 1434.98C1497.34 1451.31 1487.09 1468.53 1475.83 1485.79C1435.84 1547.11 1384.28 1607.22 1329.28 1631.42L1329.25 1631.43L1329.23 1631.44C1312.63 1638.88 1301.79 1641.23 1295.05 1640.95C1291.82 1640.82 1289.85 1640.1 1288.64 1639.33C1287.47 1638.6 1286.56 1637.56 1285.85 1636C1284.26 1632.49 1283.87 1626.76 1285 1618.89C1286.09 1611.27 1288.43 1602.83 1291.03 1594.71L1291.08 1594.56L1291.12 1594.4C1297.52 1571.36 1303.53 1533.83 1310.62 1489.05L1313.72 1469.44L1325.8 1393.42C1325.83 1393.23 1325.86 1393.05 1325.88 1392.89C1325.89 1392.86 1325.89 1392.83 1325.9 1392.8C1325.96 1392.4 1326.01 1392.11 1326.04 1391.95C1326.05 1391.86 1326.06 1391.81 1326.06 1391.78C1326.06 1391.78 1326.06 1391.77 1326.06 1391.77L1326.06 1391.76L1325.75 1391.34C1319.1 1382.76 1310.17 1389.24 1310.17 1389.24L1310.18 1389.24C1310.18 1389.24 1310.17 1389.24 1310.17 1389.24C1310.17 1389.25 1310.17 1389.25 1310.17 1389.26C1310.17 1389.28 1310.16 1389.34 1310.15 1389.42C1310.12 1389.59 1310.07 1389.87 1310.01 1390.27C1309.93 1390.77 1309.83 1391.44 1309.69 1392.3C1308.27 1401.21 1303.95 1428.41 1299.13 1458.78C1230.41 1445.72 1147.48 1417.19 1093.04 1366.75L1093.03 1366.74C1011.79 1291.59 969.489 1211.39 942.624 1066.61L942.61 1066.53L942.594 1066.46L942.373 1065.42C937.599 1043.77 923.471 1024.87 905.071 1006.18C887.607 988.448 865.083 969.778 841.277 948.74L836.5 944.5C808.136 918.856 791.829 884.993 786.18 856.534C783.349 842.27 783.291 829.846 785.368 820.779C787.494 811.501 791.338 807.468 794.866 806.278Z" fill="url(#paint1_linear_2038_1580)" stroke="black" stroke-width="16.0875"/>
<circle cx="1702.81" cy="1004.87" r="56.821" transform="rotate(-5.71193 1702.81 1004.87)" fill="white" stroke="black" stroke-width="16.0875"/>
<circle cx="1714.91" cy="982.11" r="20.376" transform="rotate(-5.71193 1714.91 982.11)" fill="black"/>
<ellipse cx="1530.13" cy="1023.96" rx="9.16557" ry="21.5137" transform="rotate(40.4005 1530.13 1023.96)" fill="black"/>
<path d="M2016.31 882.778C1910.3 1034.72 1850.13 1081.35 1700.65 1139.99" stroke="black" stroke-width="16.0875" stroke-linecap="round"/>
<path d="M1450.13 800.721C1450.13 800.721 1436.45 820.513 1432.16 838.044C1426.59 860.803 1434.37 897.917 1434.37 897.917L1476.45 969.313L1498.24 982.817L1603.49 870.361L1623.85 800.341L1611.69 754.951L1594.96 758.823C1594.96 758.823 1537.96 728.93 1493.04 754.972C1448.12 781.014 1474.44 770.419 1474.44 770.419L1450.13 800.721Z" fill="black"/>
<path d="M1506.86 750.754C1530.14 741.322 1561.32 739.731 1600.19 761.342C1599.89 762.607 1599.55 764.06 1599.21 765.59L1594.29 762.544C1592.82 761.635 1591.06 761.689 1589.53 762.494L1589.52 762.498L1589.34 762.602C1587.44 763.713 1586.51 765.754 1585.76 767.24C1584.91 768.924 1584.22 770.098 1582.94 770.65L1582.88 770.677L1582.82 770.71C1581.28 771.581 1579.86 771.643 1578.69 771.092C1562.72 763.472 1534.3 751.951 1506.86 750.754Z" fill="black" stroke="black" stroke-width="2.79697"/>
<path d="M1434.36 832.426C1437.02 822.878 1442.94 808.239 1455.49 786.249L1455.49 786.25C1467.73 764.863 1491.49 761.278 1515.4 764.562C1537.75 767.633 1559.74 776.66 1571.3 782.01L1573.47 783.028C1579.76 786.122 1587.76 783.183 1592.69 776.802L1604.16 783.911C1604.74 791.254 1603.98 819.714 1569.35 878.877L1558.83 872.358C1562.52 864.065 1563.57 855.119 1562.02 847.361C1560.51 839.786 1556.51 833.286 1550.05 829.791L1550.09 829.715L1548.5 829.027C1534.11 822.82 1512.31 814.069 1490.3 812.257C1470.04 810.589 1449.44 814.797 1434.36 832.426Z" fill="black" stroke="black" stroke-width="2.79697"/>
<path d="M1474.88 967.675C1475.95 968.457 1476.98 969.182 1478.01 969.934L1478.03 969.951C1483.27 973.597 1489.97 973.257 1495.87 969.423L1495.88 969.42C1511.55 959.144 1549.35 931.714 1570.65 893.717C1572.38 893.493 1574.03 892.337 1575.07 890.561L1575.07 890.561C1575.07 890.56 1575.08 890.558 1575.08 890.557C1575.08 890.554 1575.08 890.551 1575.08 890.548L1575.08 890.547C1579.85 882.59 1584.11 875.087 1587.86 868.038C1621.32 805.04 1615.1 778.847 1614.52 776.772C1614.31 775.857 1613.79 775.121 1613.25 774.554C1612.69 773.969 1612.01 773.472 1611.36 773.055C1610.72 772.636 1610.04 772.258 1609.48 771.94C1609.29 771.832 1609.11 771.732 1608.96 771.641C1610.03 766.54 1611.37 761.169 1611.84 759.327C1612.14 758.246 1612.28 757.34 1612.23 756.401L1639.22 752.776L1639.24 752.772L1639.26 752.77C1647.58 751.358 1654.73 755.459 1659.03 762.417C1663.35 769.401 1664.79 779.286 1661.46 789.249L1661.46 789.266L1661.45 789.283L1647.59 834.344C1635.72 872.861 1610.97 906.216 1579.57 925.391L1578.07 926.294L1541.29 948.115L1541.08 948.239L1540.93 948.436L1522.19 972.394C1518.64 976.927 1514.04 980.245 1509.27 981.764L1489.42 988.086L1489.42 988.085C1486.45 989.015 1483.7 988.566 1481.56 987.152C1479.42 985.736 1477.78 983.276 1477.16 979.949L1477.16 979.948L1474.88 967.675Z" fill="black" stroke="black" stroke-width="2.79697"/>
<path d="M1433.84 854.093C1439.25 841.851 1447 834.223 1455.98 829.794C1465.03 825.335 1475.41 824.079 1486.06 824.752C1507.38 826.099 1529.48 835.142 1543.45 841.068L1543.45 841.067C1550.79 844.398 1554.02 854.747 1549.96 865.101L1549.96 865.102L1546.66 873.539L1546.66 873.554C1545.61 876.334 1546.14 879.754 1548.62 881.294L1560.94 888.927C1541.23 923.525 1506.14 948.727 1491.39 958.381C1488.88 960.004 1486.38 960 1484.53 958.718C1474.33 951.572 1448.94 931.449 1437.68 901.214C1442.6 896.847 1452.42 888.842 1464.81 882.492C1477.84 875.809 1493.56 871.034 1509.32 874.08L1509.34 874.085C1512.91 874.698 1515.29 871.65 1516.04 868.88C1516.43 867.439 1516.47 865.809 1515.92 864.384C1515.34 862.878 1514.14 861.73 1512.35 861.39C1494.82 858.023 1477.83 862.721 1463.78 869.521C1450.92 875.74 1440.44 883.764 1434.11 889.173C1431.77 878.494 1431.34 866.768 1433.84 854.093Z" fill="black" stroke="black" stroke-width="2.79697"/>
<path d="M1455.89 801.436C1455.89 801.436 1443.21 819.797 1439.22 836.059C1434.06 857.171 1441.27 891.6 1441.27 891.6L1480.31 957.83L1500.52 970.357L1598.15 866.038L1617.04 801.084L1605.76 758.978L1590.25 762.57C1590.25 762.57 1537.37 734.84 1495.7 758.998C1454.02 783.156 1478.44 773.327 1478.44 773.327L1455.89 801.436Z" fill="black"/>
<path d="M1508.52 755.081C1530.11 746.331 1559.03 744.856 1595.09 764.902C1594.81 766.076 1594.5 767.424 1594.18 768.843L1589.62 766.017C1588.26 765.174 1586.62 765.225 1585.2 765.971L1585.2 765.974L1584.85 766.174C1583.2 767.223 1582.38 769.04 1581.7 770.374C1580.91 771.936 1580.28 773.024 1579.09 773.537L1579.03 773.562L1578.98 773.592L1578.71 773.735C1577.38 774.405 1576.16 774.426 1575.15 773.947C1560.33 766.878 1533.97 756.191 1508.52 755.081Z" fill="#FFCD00" stroke="black" stroke-width="2.59459"/>
<path d="M1441.26 830.843C1443.72 821.985 1449.22 808.406 1460.86 788.007L1460.86 788.008C1472.22 768.168 1494.26 764.842 1516.43 767.888C1537.17 770.736 1557.57 779.111 1568.29 784.074L1570.31 785.018C1576.14 787.889 1583.56 785.163 1588.13 779.243L1598.78 785.837C1599.31 792.649 1598.61 819.05 1566.48 873.932L1556.72 867.886C1560.15 860.192 1561.12 851.893 1559.69 844.697C1558.29 837.67 1554.57 831.641 1548.58 828.399L1548.62 828.328L1547.14 827.69C1533.8 821.931 1513.57 813.813 1493.15 812.132C1474.36 810.585 1455.25 814.489 1441.26 830.843Z" fill="#FFCD00" stroke="black" stroke-width="2.59459"/>
<path d="M1478.87 956.302C1479.86 957.028 1480.81 957.701 1481.77 958.398L1481.78 958.406L1481.79 958.413C1486.65 961.796 1492.87 961.48 1498.34 957.924L1498.35 957.921C1512.88 948.388 1547.94 922.943 1567.7 887.696C1569.31 887.489 1570.84 886.416 1571.81 884.768L1571.81 884.769C1571.81 884.767 1571.81 884.765 1571.81 884.764C1571.81 884.761 1571.82 884.758 1571.82 884.755L1571.82 884.755C1576.25 877.374 1580.2 870.414 1583.67 863.875C1614.75 805.356 1608.93 781.072 1608.4 779.204C1608.21 778.359 1607.73 777.679 1607.22 777.154C1606.7 776.612 1606.07 776.151 1605.47 775.764C1604.87 775.376 1604.25 775.025 1603.73 774.73C1603.55 774.63 1603.39 774.537 1603.24 774.452C1604.24 769.72 1605.48 764.737 1605.91 763.029L1605.91 763.029C1606.19 762.026 1606.33 761.186 1606.27 760.316L1631.32 756.952L1631.34 756.95L1631.36 756.946C1639.07 755.636 1645.7 759.441 1649.69 765.896C1653.7 772.375 1655.04 781.544 1651.95 790.787L1651.94 790.818L1639.08 832.619C1628.07 868.348 1605.11 899.29 1575.99 917.077L1574.59 917.915L1540.47 938.157L1540.28 938.273L1540.14 938.455L1522.75 960.679C1519.46 964.885 1515.19 967.962 1510.77 969.371L1510.77 969.372L1492.35 975.237C1489.6 976.098 1487.05 975.681 1485.07 974.37C1483.08 973.057 1481.56 970.774 1480.98 967.688L1478.87 956.302Z" fill="#FFCD00" stroke="black" stroke-width="2.59459"/>
<path d="M1440.79 850.941C1445.81 839.584 1453 832.507 1461.33 828.399C1469.72 824.263 1479.35 823.098 1489.23 823.722C1509.01 824.971 1529.51 833.359 1542.47 838.856L1542.47 838.857C1549.28 841.946 1552.27 851.546 1548.51 861.152L1548.51 861.153L1545.45 868.979L1545.45 868.986L1545.44 868.993C1544.47 871.572 1544.96 874.744 1547.27 876.172L1558.7 883.253C1540.98 914.338 1509.9 937.248 1495.53 946.795L1494.17 947.687C1491.84 949.186 1489.53 949.183 1487.82 947.998C1478.36 941.372 1454.8 922.704 1444.35 894.652C1448.91 890.601 1458.03 883.174 1469.52 877.283C1481.61 871.085 1496.19 866.656 1510.81 869.481L1510.82 869.484L1510.83 869.485C1514.13 870.054 1516.35 867.227 1517.04 864.657C1517.4 863.321 1517.44 861.808 1516.93 860.487C1516.43 859.177 1515.41 858.159 1513.93 857.776L1513.62 857.709C1497.36 854.585 1481.6 858.944 1468.56 865.252C1456.64 871.02 1446.91 878.464 1441.04 883.481C1438.87 873.575 1438.47 862.698 1440.79 850.941Z" fill="#FFCD00" stroke="black" stroke-width="2.59459"/>
<rect x="1518.86" y="822.857" width="57.915" height="41.8275" rx="6.435" transform="rotate(-65.9346 1518.86 822.857)" fill="black"/>
<line x1="1549.6" y1="824.044" x2="1564.03" y2="791.728" stroke="#ED1818" stroke-width="3.2175"/>
<line x1="1537.85" y1="818.796" x2="1552.28" y2="786.479" stroke="#FBFF00" stroke-width="3.2175"/>
<path d="M952 1182L866.566 1167.82L897.005 1248.9L952 1182ZM374 1399L376.636 1406.02L891.443 1212.75L888.807 1205.72L886.171 1198.7L371.364 1391.98L374 1399Z" fill="#ED1818"/>
<path d="M1399 800L1360.56 722.397L1312.57 794.49L1399 800ZM768 380L763.844 386.243L1338.65 768.842L1342.81 762.599L1346.96 756.355L772.156 373.757L768 380Z" fill="#ED1818"/>
<path d="M1792 1292.5L1839.72 1364.77L1878.45 1287.31L1792 1292.5ZM1977 1385L1980.35 1378.29L1855.73 1315.98L1852.37 1322.69L1849.02 1329.4L1973.65 1391.71L1977 1385Z" fill="#ED1818"/>
<path d="M2021 845L2096.81 803.138L2022.65 758.413L2021 845ZM2217 520L2210.58 516.127L2049.44 783.325L2055.86 787.198L2062.28 791.071L2223.42 523.873L2217 520Z" fill="#ED1818"/>
<path d="M42.394 1541H6.97V1480.32H42.394V1488.27H15.334V1505.41H37.802V1513.28H15.334V1533.13H42.394V1541ZM88.5856 1541H80.6316V1520.58C80.6316 1512.79 77.5976 1508.77 71.1196 1508.77C64.3956 1508.77 61.1976 1513.12 61.1976 1521.16V1541H53.3256V1502.05H61.1976V1506.23C63.8216 1503.28 67.0196 1501.31 72.5136 1501.31C81.7796 1501.31 88.5856 1506.72 88.5856 1518.94V1541ZM108.846 1561.75H100.892V1502.05H108.846V1561.75ZM104.91 1494.34C102.04 1494.34 99.826 1492.13 99.826 1489.26C99.826 1486.39 102.04 1484.17 104.91 1484.17C107.78 1484.17 109.912 1486.39 109.912 1489.26C109.912 1492.13 107.78 1494.34 104.91 1494.34ZM159.673 1521.73C159.673 1532.88 150.407 1542.07 139.091 1542.07C127.857 1542.07 118.673 1532.96 118.673 1521.73C118.673 1510.58 127.693 1501.31 139.091 1501.31C150.407 1501.31 159.673 1510.5 159.673 1521.73ZM151.883 1521.65C151.883 1514.6 146.225 1508.77 139.173 1508.77C131.875 1508.77 126.463 1514.92 126.463 1521.81C126.463 1528.78 132.039 1534.69 139.173 1534.69C146.389 1534.69 151.883 1528.62 151.883 1521.65ZM180.343 1561.75H172.553L179.687 1541.74L163.779 1502.05H172.389L183.541 1531.32L194.037 1502.05H201.909L180.343 1561.75ZM205.464 1536.98L209.728 1530.91C213.664 1534.11 217.846 1534.93 220.634 1534.93C224.816 1534.93 227.112 1533.13 227.112 1530.5C227.112 1522.8 206.858 1527.55 206.858 1513.53C206.858 1506.4 212.106 1501.31 220.224 1501.31C223.504 1501.31 228.998 1502.13 233.426 1505.74L229.244 1511.56C225.8 1509.02 222.356 1508.53 220.306 1508.53C216.37 1508.53 214.648 1510.5 214.648 1512.63C214.648 1520.01 234.82 1515.99 234.82 1530.01C234.82 1537.47 229.162 1542.07 220.388 1542.07C214.566 1542.07 209.482 1540.02 205.464 1536.98ZM281.572 1534.6V1541.49C280.26 1541.82 278.866 1542.07 277.226 1542.07C270.83 1542.07 266.894 1538.21 266.894 1531.08V1480.32H274.766V1528.62C274.766 1532.8 275.75 1534.69 279.604 1534.69C280.096 1534.69 280.834 1534.69 281.572 1534.6ZM325.404 1524.35H293.506C294.572 1530.34 299.492 1534.93 306.134 1534.93C310.398 1534.93 314.58 1533.05 317.04 1529.6L322.616 1533.87C319.008 1538.95 312.858 1542.07 306.134 1542.07C294.818 1542.07 285.716 1533.21 285.716 1521.73C285.716 1510.82 293.998 1501.31 305.642 1501.31C317.204 1501.31 325.568 1510.74 325.568 1521.65C325.568 1522.71 325.486 1523.53 325.404 1524.35ZM293.752 1518.12H317.532C316.63 1512.71 311.874 1508.53 305.724 1508.53C299.656 1508.53 295.146 1512.63 293.752 1518.12ZM373.413 1541H365.541V1536.41C362.261 1540.26 357.751 1542.07 352.503 1542.07C340.941 1542.07 331.921 1533.13 331.921 1521.73C331.921 1510.17 341.105 1501.31 352.503 1501.31C357.751 1501.31 362.179 1503.2 365.541 1507.05V1502.05H373.413V1541ZM365.377 1521.73C365.377 1514.68 359.883 1508.77 352.503 1508.77C345.205 1508.77 339.711 1514.51 339.711 1521.73C339.711 1529.03 345.205 1534.69 352.503 1534.69C359.965 1534.69 365.377 1528.78 365.377 1521.73ZM394.403 1541H386.531V1502.05H394.403V1506.72C398.175 1502.21 402.029 1501.31 409.573 1501.31V1508.86C396.699 1508.86 394.403 1514.1 394.403 1520.83V1541ZM452.781 1541H444.827V1520.58C444.827 1512.79 441.793 1508.77 435.315 1508.77C428.591 1508.77 425.393 1513.12 425.393 1521.16V1541H417.521V1502.05H425.393V1506.23C428.017 1503.28 431.215 1501.31 436.709 1501.31C445.975 1501.31 452.781 1506.72 452.781 1518.94V1541ZM473.041 1541H465.087V1502.05H473.041V1541ZM469.105 1494.34C466.235 1494.34 464.021 1492.13 464.021 1489.26C464.021 1486.39 466.235 1484.17 469.105 1484.17C471.975 1484.17 474.107 1486.39 474.107 1489.26C474.107 1492.13 471.975 1494.34 469.105 1494.34ZM521.408 1541H513.454V1520.58C513.454 1512.79 510.42 1508.77 503.942 1508.77C497.218 1508.77 494.02 1513.12 494.02 1521.16V1541H486.148V1502.05H494.02V1506.23C496.644 1503.28 499.842 1501.31 505.336 1501.31C514.602 1501.31 521.408 1506.72 521.408 1518.94V1541ZM564.054 1539.2V1536.41C560.774 1540.26 556.264 1542.07 551.016 1542.07C539.454 1542.07 530.434 1533.13 530.434 1521.73C530.434 1510.17 539.618 1501.31 551.016 1501.31C556.264 1501.31 560.692 1503.2 564.054 1507.05V1502.05H571.926V1537.8C571.926 1557.32 560.036 1561.75 551.262 1561.75C543.39 1561.75 537.076 1558.14 533.386 1552.23L540.684 1549.12C542.98 1552.4 546.26 1554.37 551.18 1554.37C557.904 1554.37 564.054 1550.68 564.054 1539.2ZM563.89 1521.73C563.89 1514.68 558.396 1508.77 551.016 1508.77C543.718 1508.77 538.224 1514.51 538.224 1521.73C538.224 1529.03 543.718 1534.69 551.016 1534.69C558.478 1534.69 563.89 1528.78 563.89 1521.73ZM24.6096 1621.11V1628.16C23.7896 1628.49 21.3296 1629.07 18.4596 1629.07C8.86561 1629.07 7.14361 1622.75 7.14361 1616.03V1596.51H0.993609V1589.05H7.14361V1575.85H15.0976V1589.05H25.6756V1596.51H15.0976V1615.13C15.0976 1619.55 16.0816 1621.69 20.2636 1621.69C21.6576 1621.69 23.7896 1621.44 24.6096 1621.11ZM70.0876 1628H62.1336V1607.58C62.1336 1599.79 59.0996 1595.77 52.6216 1595.77C45.8976 1595.77 42.6996 1600.12 42.6996 1608.16V1628H34.8276V1567.32H42.6996V1593.23C45.3236 1590.28 48.5216 1588.31 54.0156 1588.31C63.2816 1588.31 70.0876 1593.72 70.0876 1605.94V1628ZM90.266 1628H82.394V1589.05H90.266V1593.72C94.038 1589.21 97.892 1588.31 105.436 1588.31V1595.86C92.562 1595.86 90.266 1601.1 90.266 1607.83V1628ZM151.104 1608.73C151.104 1619.88 141.838 1629.07 130.522 1629.07C119.288 1629.07 110.104 1619.96 110.104 1608.73C110.104 1597.58 119.124 1588.31 130.522 1588.31C141.838 1588.31 151.104 1597.5 151.104 1608.73ZM143.314 1608.65C143.314 1601.6 137.656 1595.77 130.604 1595.77C123.306 1595.77 117.894 1601.92 117.894 1608.81C117.894 1615.78 123.47 1621.69 130.604 1621.69C137.82 1621.69 143.314 1615.62 143.314 1608.65ZM187.765 1609.96V1589.05H195.637V1612.17C195.637 1624.39 188.831 1629.07 177.925 1629.07C167.019 1629.07 160.213 1624.39 160.213 1612.17V1589.05H168.167V1609.96C168.167 1617.26 169.889 1621.69 177.925 1621.69C186.043 1621.69 187.765 1617.26 187.765 1609.96ZM238.457 1626.2V1623.41C235.177 1627.26 230.667 1629.07 225.419 1629.07C213.857 1629.07 204.837 1620.13 204.837 1608.73C204.837 1597.17 214.021 1588.31 225.419 1588.31C230.667 1588.31 235.095 1590.2 238.457 1594.05V1589.05H246.329V1624.8C246.329 1644.32 234.439 1648.75 225.665 1648.75C217.793 1648.75 211.479 1645.14 207.789 1639.23L215.087 1636.12C217.383 1639.4 220.663 1641.37 225.583 1641.37C232.307 1641.37 238.457 1637.68 238.457 1626.2ZM238.293 1608.73C238.293 1601.68 232.799 1595.77 225.419 1595.77C218.121 1595.77 212.627 1601.51 212.627 1608.73C212.627 1616.03 218.121 1621.69 225.419 1621.69C232.881 1621.69 238.293 1615.78 238.293 1608.73ZM294.707 1628H286.753V1607.58C286.753 1599.79 283.719 1595.77 277.241 1595.77C270.517 1595.77 267.319 1600.12 267.319 1608.16V1628H259.447V1567.32H267.319V1593.23C269.943 1590.28 273.141 1588.31 278.635 1588.31C287.901 1588.31 294.707 1593.72 294.707 1605.94V1628ZM337.069 1628H329.115V1589.05H337.069V1628ZM333.133 1581.34C330.263 1581.34 328.049 1579.13 328.049 1576.26C328.049 1573.39 330.263 1571.17 333.133 1571.17C336.003 1571.17 338.135 1573.39 338.135 1576.26C338.135 1579.13 336.003 1581.34 333.133 1581.34ZM385.435 1628H377.481V1607.58C377.481 1599.79 374.447 1595.77 367.969 1595.77C361.245 1595.77 358.047 1600.12 358.047 1608.16V1628H350.175V1589.05H358.047V1593.23C360.671 1590.28 363.869 1588.31 369.363 1588.31C378.629 1588.31 385.435 1593.72 385.435 1605.94V1628ZM416.192 1621.11V1628.16C415.372 1628.49 412.912 1629.07 410.042 1629.07C400.448 1629.07 398.726 1622.75 398.726 1616.03V1596.51H392.576V1589.05H398.726V1575.85H406.68V1589.05H417.258V1596.51H406.68V1615.13C406.68 1619.55 407.664 1621.69 411.846 1621.69C413.24 1621.69 415.372 1621.44 416.192 1621.11ZM462.818 1611.35H430.92C431.986 1617.34 436.906 1621.93 443.548 1621.93C447.812 1621.93 451.994 1620.05 454.454 1616.6L460.03 1620.87C456.422 1625.95 450.272 1629.07 443.548 1629.07C432.232 1629.07 423.13 1620.21 423.13 1608.73C423.13 1597.82 431.412 1588.31 443.056 1588.31C454.618 1588.31 462.982 1597.74 462.982 1608.65C462.982 1609.71 462.9 1610.53 462.818 1611.35ZM431.166 1605.12H454.946C454.044 1599.71 449.288 1595.53 443.138 1595.53C437.07 1595.53 432.56 1599.63 431.166 1605.12ZM480.487 1628H472.615V1589.05H480.487V1593.72C484.259 1589.21 488.113 1588.31 495.657 1588.31V1595.86C482.783 1595.86 480.487 1601.1 480.487 1607.83V1628ZM540.215 1628H532.343V1623.41C529.063 1627.26 524.553 1629.07 519.305 1629.07C507.743 1629.07 498.723 1620.13 498.723 1608.73C498.723 1597.17 507.907 1588.31 519.305 1588.31C524.553 1588.31 528.981 1590.2 532.343 1594.05V1589.05H540.215V1628ZM532.179 1608.73C532.179 1601.68 526.685 1595.77 519.305 1595.77C512.007 1595.77 506.513 1601.51 506.513 1608.73C506.513 1616.03 512.007 1621.69 519.305 1621.69C526.767 1621.69 532.179 1615.78 532.179 1608.73ZM581.459 1615.54L588.019 1619.39C584.411 1625.21 577.851 1629.07 570.471 1629.07C559.237 1629.07 550.053 1619.96 550.053 1608.73C550.053 1597.58 559.073 1588.31 570.471 1588.31C577.769 1588.31 584.247 1592.17 587.855 1597.91L581.213 1601.68C578.999 1598.15 574.981 1595.77 570.471 1595.77C563.337 1595.77 557.843 1601.84 557.843 1608.81C557.843 1615.78 563.419 1621.69 570.635 1621.69C575.309 1621.69 579.245 1619.23 581.459 1615.54ZM615.106 1621.11V1628.16C614.286 1628.49 611.826 1629.07 608.956 1629.07C599.362 1629.07 597.64 1622.75 597.64 1616.03V1596.51H591.49V1589.05H597.64V1575.85H605.594V1589.05H616.172V1596.51H605.594V1615.13C605.594 1619.55 606.578 1621.69 610.76 1621.69C612.154 1621.69 614.286 1621.44 615.106 1621.11ZM633.278 1628H625.324V1589.05H633.278V1628ZM629.342 1581.34C626.472 1581.34 624.258 1579.13 624.258 1576.26C624.258 1573.39 626.472 1571.17 629.342 1571.17C632.212 1571.17 634.344 1573.39 634.344 1576.26C634.344 1579.13 632.212 1581.34 629.342 1581.34ZM684.104 1608.73C684.104 1619.88 674.838 1629.07 663.522 1629.07C652.288 1629.07 643.104 1619.96 643.104 1608.73C643.104 1597.58 652.124 1588.31 663.522 1588.31C674.838 1588.31 684.104 1597.5 684.104 1608.73ZM676.314 1608.65C676.314 1601.6 670.656 1595.77 663.604 1595.77C656.306 1595.77 650.894 1601.92 650.894 1608.81C650.894 1615.78 656.47 1621.69 663.604 1621.69C670.82 1621.69 676.314 1615.62 676.314 1608.65ZM729.211 1628H721.257V1607.58C721.257 1599.79 718.223 1595.77 711.745 1595.77C705.021 1595.77 701.823 1600.12 701.823 1608.16V1628H693.951V1589.05H701.823V1593.23C704.447 1590.28 707.645 1588.31 713.139 1588.31C722.405 1588.31 729.211 1593.72 729.211 1605.94V1628ZM44.772 1715H36.9V1710.41C33.62 1714.26 29.11 1716.07 23.862 1716.07C12.3 1716.07 3.28 1707.13 3.28 1695.73C3.28 1684.17 12.464 1675.31 23.862 1675.31C29.11 1675.31 33.538 1677.2 36.9 1681.05V1676.05H44.772V1715ZM36.736 1695.73C36.736 1688.68 31.242 1682.77 23.862 1682.77C16.564 1682.77 11.07 1688.51 11.07 1695.73C11.07 1703.03 16.564 1708.69 23.862 1708.69C31.324 1708.69 36.736 1702.78 36.736 1695.73ZM93.1501 1715H85.1961V1694.58C85.1961 1686.79 82.1621 1682.77 75.6841 1682.77C68.9601 1682.77 65.7621 1687.12 65.7621 1695.16V1715H57.8901V1676.05H65.7621V1680.23C68.3861 1677.28 71.5841 1675.31 77.0781 1675.31C86.3441 1675.31 93.1501 1680.72 93.1501 1692.94V1715ZM143.668 1715H135.796V1710.41C132.516 1714.26 128.006 1716.07 122.758 1716.07C111.196 1716.07 102.176 1707.13 102.176 1695.73C102.176 1684.17 111.36 1675.31 122.758 1675.31C128.006 1675.31 132.434 1677.2 135.796 1681.05V1654.32H143.668V1715ZM135.632 1695.73C135.632 1688.68 130.138 1682.77 122.758 1682.77C115.46 1682.77 109.966 1688.51 109.966 1695.73C109.966 1703.03 115.46 1708.69 122.758 1708.69C130.22 1708.69 135.632 1702.78 135.632 1695.73ZM207.014 1702.54L213.574 1706.39C209.966 1712.21 203.406 1716.07 196.026 1716.07C184.792 1716.07 175.608 1706.96 175.608 1695.73C175.608 1684.58 184.628 1675.31 196.026 1675.31C203.324 1675.31 209.802 1679.17 213.41 1684.91L206.768 1688.68C204.554 1685.15 200.536 1682.77 196.026 1682.77C188.892 1682.77 183.398 1688.84 183.398 1695.81C183.398 1702.78 188.974 1708.69 196.19 1708.69C200.864 1708.69 204.8 1706.23 207.014 1702.54ZM259.93 1695.73C259.93 1706.88 250.664 1716.07 239.348 1716.07C228.114 1716.07 218.93 1706.96 218.93 1695.73C218.93 1684.58 227.95 1675.31 239.348 1675.31C250.664 1675.31 259.93 1684.5 259.93 1695.73ZM252.14 1695.65C252.14 1688.6 246.482 1682.77 239.43 1682.77C232.132 1682.77 226.72 1688.92 226.72 1695.81C226.72 1702.78 232.296 1708.69 239.43 1708.69C246.646 1708.69 252.14 1702.62 252.14 1695.65ZM284.455 1708.6V1715.49C283.143 1715.82 281.749 1716.07 280.109 1716.07C273.713 1716.07 269.777 1712.21 269.777 1705.08V1654.32H277.649V1702.62C277.649 1706.8 278.633 1708.69 282.487 1708.69C282.979 1708.69 283.717 1708.69 284.455 1708.6ZM306.556 1708.6V1715.49C305.244 1715.82 303.85 1716.07 302.21 1716.07C295.814 1716.07 291.878 1712.21 291.878 1705.08V1654.32H299.75V1702.62C299.75 1706.8 300.734 1708.69 304.588 1708.69C305.08 1708.69 305.818 1708.69 306.556 1708.6ZM352.192 1715H344.32V1710.41C341.04 1714.26 336.53 1716.07 331.282 1716.07C319.72 1716.07 310.7 1707.13 310.7 1695.73C310.7 1684.17 319.884 1675.31 331.282 1675.31C336.53 1675.31 340.958 1677.2 344.32 1681.05V1676.05H352.192V1715ZM344.156 1695.73C344.156 1688.68 338.662 1682.77 331.282 1682.77C323.984 1682.77 318.49 1688.51 318.49 1695.73C318.49 1703.03 323.984 1708.69 331.282 1708.69C338.744 1708.69 344.156 1702.78 344.156 1695.73ZM373.182 1715H365.31V1654.32H373.182V1681.05C376.462 1677.2 380.972 1675.31 386.22 1675.31C397.618 1675.31 406.802 1684.17 406.802 1695.73C406.802 1707.13 397.782 1716.07 386.22 1716.07C380.972 1716.07 376.462 1714.26 373.182 1710.41V1715ZM373.428 1695.73C373.428 1702.78 378.594 1708.69 386.138 1708.69C393.518 1708.69 399.012 1703.03 399.012 1695.73C399.012 1688.51 393.518 1682.77 386.22 1682.77C378.922 1682.77 373.428 1688.51 373.428 1695.73ZM454.36 1695.73C454.36 1706.88 445.094 1716.07 433.778 1716.07C422.544 1716.07 413.36 1706.96 413.36 1695.73C413.36 1684.58 422.38 1675.31 433.778 1675.31C445.094 1675.31 454.36 1684.5 454.36 1695.73ZM446.57 1695.65C446.57 1688.6 440.912 1682.77 433.86 1682.77C426.562 1682.77 421.15 1688.92 421.15 1695.81C421.15 1702.78 426.726 1708.69 433.86 1708.69C441.076 1708.69 446.57 1702.62 446.57 1695.65ZM472.078 1715H464.206V1676.05H472.078V1680.72C475.85 1676.21 479.704 1675.31 487.248 1675.31V1682.86C474.374 1682.86 472.078 1688.1 472.078 1694.83V1715ZM531.807 1715H523.935V1710.41C520.655 1714.26 516.145 1716.07 510.897 1716.07C499.335 1716.07 490.315 1707.13 490.315 1695.73C490.315 1684.17 499.499 1675.31 510.897 1675.31C516.145 1675.31 520.573 1677.2 523.935 1681.05V1676.05H531.807V1715ZM523.771 1695.73C523.771 1688.68 518.277 1682.77 510.897 1682.77C503.599 1682.77 498.105 1688.51 498.105 1695.73C498.105 1703.03 503.599 1708.69 510.897 1708.69C518.359 1708.69 523.771 1702.78 523.771 1695.73ZM563.375 1708.11V1715.16C562.555 1715.49 560.095 1716.07 557.225 1716.07C547.631 1716.07 545.909 1709.75 545.909 1703.03V1683.51H539.759V1676.05H545.909V1662.85H553.863V1676.05H564.441V1683.51H553.863V1702.13C553.863 1706.55 554.847 1708.69 559.029 1708.69C560.423 1708.69 562.555 1708.44 563.375 1708.11ZM581.547 1715H573.593V1676.05H581.547V1715ZM577.611 1668.34C574.741 1668.34 572.527 1666.13 572.527 1663.26C572.527 1660.39 574.741 1658.17 577.611 1658.17C580.481 1658.17 582.613 1660.39 582.613 1663.26C582.613 1666.13 580.481 1668.34 577.611 1668.34ZM632.374 1695.73C632.374 1706.88 623.108 1716.07 611.792 1716.07C600.558 1716.07 591.374 1706.96 591.374 1695.73C591.374 1684.58 600.394 1675.31 611.792 1675.31C623.108 1675.31 632.374 1684.5 632.374 1695.73ZM624.584 1695.65C624.584 1688.6 618.926 1682.77 611.874 1682.77C604.576 1682.77 599.164 1688.92 599.164 1695.81C599.164 1702.78 604.74 1708.69 611.874 1708.69C619.09 1708.69 624.584 1702.62 624.584 1695.65ZM677.48 1715H669.526V1694.58C669.526 1686.79 666.492 1682.77 660.014 1682.77C653.29 1682.77 650.092 1687.12 650.092 1695.16V1715H642.22V1676.05H650.092V1680.23C652.716 1677.28 655.914 1675.31 661.408 1675.31C670.674 1675.31 677.48 1680.72 677.48 1692.94V1715ZM696.511 1715.49C693.641 1715.49 691.427 1713.28 691.427 1710.41C691.427 1707.54 693.641 1705.41 696.511 1705.41C699.381 1705.41 701.513 1707.54 701.513 1710.41C701.513 1713.28 699.381 1715.49 696.511 1715.49Z" fill="black"/>
<path d="M2054.07 1540H2044.89L2039.48 1525.81H2011.6L2006.18 1540H1997.16L2021.03 1479.32H2030.21L2054.07 1540ZM2036.44 1517.94L2025.62 1489.49L2014.63 1517.94H2036.44ZM2068.69 1560.75H2060.82V1501.05H2068.69V1506.05C2071.97 1502.2 2076.48 1500.31 2081.73 1500.31C2093.12 1500.31 2102.31 1509.17 2102.31 1520.73C2102.31 1532.13 2093.29 1541.07 2081.73 1541.07C2076.48 1541.07 2071.97 1539.26 2068.69 1535.41V1560.75ZM2068.93 1520.73C2068.93 1527.78 2074.1 1533.69 2081.64 1533.69C2089.02 1533.69 2094.52 1528.03 2094.52 1520.73C2094.52 1513.51 2089.02 1507.77 2081.73 1507.77C2074.43 1507.77 2068.93 1513.51 2068.93 1520.73ZM2120.02 1560.75H2112.15V1501.05H2120.02V1506.05C2123.3 1502.2 2127.81 1500.31 2133.06 1500.31C2144.45 1500.31 2153.64 1509.17 2153.64 1520.73C2153.64 1532.13 2144.62 1541.07 2133.06 1541.07C2127.81 1541.07 2123.3 1539.26 2120.02 1535.41V1560.75ZM2120.26 1520.73C2120.26 1527.78 2125.43 1533.69 2132.97 1533.69C2140.35 1533.69 2145.85 1528.03 2145.85 1520.73C2145.85 1513.51 2140.35 1507.77 2133.06 1507.77C2125.76 1507.77 2120.26 1513.51 2120.26 1520.73ZM2171.35 1540H2163.48V1501.05H2171.35V1505.72C2175.12 1501.21 2178.97 1500.31 2186.52 1500.31V1507.86C2173.64 1507.86 2171.35 1513.1 2171.35 1519.83V1540ZM2232.19 1520.73C2232.19 1531.88 2222.92 1541.07 2211.6 1541.07C2200.37 1541.07 2191.19 1531.96 2191.19 1520.73C2191.19 1509.58 2200.21 1500.31 2211.6 1500.31C2222.92 1500.31 2232.19 1509.5 2232.19 1520.73ZM2224.4 1520.65C2224.4 1513.6 2218.74 1507.77 2211.69 1507.77C2204.39 1507.77 2198.98 1513.92 2198.98 1520.81C2198.98 1527.78 2204.55 1533.69 2211.69 1533.69C2218.9 1533.69 2224.4 1527.62 2224.4 1520.65ZM2280.24 1540H2272.37V1535.41C2269.09 1539.26 2264.58 1541.07 2259.33 1541.07C2247.77 1541.07 2238.75 1532.13 2238.75 1520.73C2238.75 1509.17 2247.94 1500.31 2259.33 1500.31C2264.58 1500.31 2269.01 1502.2 2272.37 1506.05V1501.05H2280.24V1540ZM2272.21 1520.73C2272.21 1513.68 2266.71 1507.77 2259.33 1507.77C2252.04 1507.77 2246.54 1513.51 2246.54 1520.73C2246.54 1528.03 2252.04 1533.69 2259.33 1533.69C2266.8 1533.69 2272.21 1527.78 2272.21 1520.73ZM2321.49 1527.54L2328.05 1531.39C2324.44 1537.21 2317.88 1541.07 2310.5 1541.07C2299.27 1541.07 2290.08 1531.96 2290.08 1520.73C2290.08 1509.58 2299.1 1500.31 2310.5 1500.31C2317.8 1500.31 2324.28 1504.17 2327.88 1509.91L2321.24 1513.68C2319.03 1510.15 2315.01 1507.77 2310.5 1507.77C2303.37 1507.77 2297.87 1513.84 2297.87 1520.81C2297.87 1527.78 2303.45 1533.69 2310.66 1533.69C2315.34 1533.69 2319.27 1531.23 2321.49 1527.54ZM2371.95 1540H2363.99V1519.58C2363.99 1511.79 2360.96 1507.77 2354.48 1507.77C2347.76 1507.77 2344.56 1512.12 2344.56 1520.16V1540H2336.69V1479.32H2344.56V1505.23C2347.18 1502.28 2350.38 1500.31 2355.87 1500.31C2365.14 1500.31 2371.95 1505.72 2371.95 1517.94V1540ZM2420.66 1523.35H2388.76C2389.83 1529.34 2394.75 1533.93 2401.39 1533.93C2405.65 1533.93 2409.84 1532.05 2412.3 1528.6L2417.87 1532.87C2414.26 1537.95 2408.11 1541.07 2401.39 1541.07C2390.07 1541.07 2380.97 1532.21 2380.97 1520.73C2380.97 1509.82 2389.25 1500.31 2400.9 1500.31C2412.46 1500.31 2420.82 1509.74 2420.82 1520.65C2420.82 1521.71 2420.74 1522.53 2420.66 1523.35ZM2389.01 1517.12H2412.79C2411.89 1511.71 2407.13 1507.53 2400.98 1507.53C2394.91 1507.53 2390.4 1511.63 2389.01 1517.12ZM2426.6 1535.98L2430.87 1529.91C2434.8 1533.11 2438.98 1533.93 2441.77 1533.93C2445.95 1533.93 2448.25 1532.13 2448.25 1529.5C2448.25 1521.8 2428 1526.55 2428 1512.53C2428 1505.4 2433.24 1500.31 2441.36 1500.31C2444.64 1500.31 2450.14 1501.13 2454.56 1504.74L2450.38 1510.56C2446.94 1508.02 2443.49 1507.53 2441.44 1507.53C2437.51 1507.53 2435.79 1509.5 2435.79 1511.63C2435.79 1519.01 2455.96 1514.99 2455.96 1529.01C2455.96 1536.47 2450.3 1541.07 2441.53 1541.07C2435.7 1541.07 2430.62 1539.02 2426.6 1535.98ZM2018.24 1620.6V1627.49C2016.93 1627.82 2015.53 1628.07 2013.89 1628.07C2007.5 1628.07 2003.56 1624.21 2003.56 1617.08V1566.32H2011.43V1614.62C2011.43 1618.8 2012.42 1620.69 2016.27 1620.69C2016.76 1620.69 2017.5 1620.69 2018.24 1620.6ZM2062.07 1610.35H2030.17C2031.24 1616.34 2036.16 1620.93 2042.8 1620.93C2047.06 1620.93 2051.25 1619.05 2053.71 1615.6L2059.28 1619.87C2055.67 1624.95 2049.52 1628.07 2042.8 1628.07C2031.48 1628.07 2022.38 1619.21 2022.38 1607.73C2022.38 1596.82 2030.66 1587.31 2042.31 1587.31C2053.87 1587.31 2062.23 1596.74 2062.23 1607.65C2062.23 1608.71 2062.15 1609.53 2062.07 1610.35ZM2030.42 1604.12H2054.2C2053.3 1598.71 2048.54 1594.53 2042.39 1594.53C2036.32 1594.53 2031.81 1598.63 2030.42 1604.12ZM2110.08 1627H2102.21V1622.41C2098.93 1626.26 2094.42 1628.07 2089.17 1628.07C2077.61 1628.07 2068.59 1619.13 2068.59 1607.73C2068.59 1596.17 2077.77 1587.31 2089.17 1587.31C2094.42 1587.31 2098.84 1589.2 2102.21 1593.05V1588.05H2110.08V1627ZM2102.04 1607.73C2102.04 1600.68 2096.55 1594.77 2089.17 1594.77C2081.87 1594.77 2076.38 1600.51 2076.38 1607.73C2076.38 1615.03 2081.87 1620.69 2089.17 1620.69C2096.63 1620.69 2102.04 1614.78 2102.04 1607.73ZM2131.07 1627H2123.2V1588.05H2131.07V1592.72C2134.84 1588.21 2138.69 1587.31 2146.24 1587.31V1594.86C2133.36 1594.86 2131.07 1600.1 2131.07 1606.83V1627ZM2189.45 1627H2181.49V1606.58C2181.49 1598.79 2178.46 1594.77 2171.98 1594.77C2165.26 1594.77 2162.06 1599.12 2162.06 1607.16V1627H2154.19V1588.05H2162.06V1592.23C2164.68 1589.28 2167.88 1587.31 2173.37 1587.31C2182.64 1587.31 2189.45 1592.72 2189.45 1604.94V1627ZM2209.71 1627H2201.75V1588.05H2209.71V1627ZM2205.77 1580.34C2202.9 1580.34 2200.69 1578.13 2200.69 1575.26C2200.69 1572.39 2202.9 1570.17 2205.77 1570.17C2208.64 1570.17 2210.77 1572.39 2210.77 1575.26C2210.77 1578.13 2208.64 1580.34 2205.77 1580.34ZM2258.07 1627H2250.12V1606.58C2250.12 1598.79 2247.09 1594.77 2240.61 1594.77C2233.88 1594.77 2230.69 1599.12 2230.69 1607.16V1627H2222.81V1588.05H2230.69V1592.23C2233.31 1589.28 2236.51 1587.31 2242 1587.31C2251.27 1587.31 2258.07 1592.72 2258.07 1604.94V1627ZM2300.72 1625.2V1622.41C2297.44 1626.26 2292.93 1628.07 2287.68 1628.07C2276.12 1628.07 2267.1 1619.13 2267.1 1607.73C2267.1 1596.17 2276.28 1587.31 2287.68 1587.31C2292.93 1587.31 2297.36 1589.2 2300.72 1593.05V1588.05H2308.59V1623.8C2308.59 1643.32 2296.7 1647.75 2287.93 1647.75C2280.06 1647.75 2273.74 1644.14 2270.05 1638.23L2277.35 1635.12C2279.65 1638.4 2282.93 1640.37 2287.85 1640.37C2294.57 1640.37 2300.72 1636.68 2300.72 1625.2ZM2300.56 1607.73C2300.56 1600.68 2295.06 1594.77 2287.68 1594.77C2280.38 1594.77 2274.89 1600.51 2274.89 1607.73C2274.89 1615.03 2280.38 1620.69 2287.68 1620.69C2295.14 1620.69 2300.56 1614.78 2300.56 1607.73ZM2388.83 1627H2380.63L2370.79 1598.96L2361.03 1627H2352.67L2338.07 1588.05H2346.76L2356.85 1616.75L2367.1 1588.05H2374.4L2384.65 1616.75L2394.73 1588.05H2403.51L2388.83 1627ZM2418.87 1627H2410.92V1588.05H2418.87V1627ZM2414.94 1580.34C2412.07 1580.34 2409.85 1578.13 2409.85 1575.26C2409.85 1572.39 2412.07 1570.17 2414.94 1570.17C2417.81 1570.17 2419.94 1572.39 2419.94 1575.26C2419.94 1578.13 2417.81 1580.34 2414.94 1580.34ZM2450.43 1620.11V1627.16C2449.61 1627.49 2447.15 1628.07 2444.28 1628.07C2434.68 1628.07 2432.96 1621.75 2432.96 1615.03V1595.51H2426.81V1588.05H2432.96V1574.85H2440.92V1588.05H2451.49V1595.51H2440.92V1614.13C2440.92 1618.55 2441.9 1620.69 2446.08 1620.69C2447.48 1620.69 2449.61 1620.44 2450.43 1620.11ZM2495.91 1627H2487.95V1606.58C2487.95 1598.79 2484.92 1594.77 2478.44 1594.77C2471.72 1594.77 2468.52 1599.12 2468.52 1607.16V1627H2460.65V1566.32H2468.52V1592.23C2471.14 1589.28 2474.34 1587.31 2479.83 1587.31C2489.1 1587.31 2495.91 1592.72 2495.91 1604.94V1627ZM2031.69 1701.54L2038.25 1705.39C2034.64 1711.21 2028.08 1715.07 2020.7 1715.07C2009.46 1715.07 2000.28 1705.96 2000.28 1694.73C2000.28 1683.58 2009.3 1674.31 2020.7 1674.31C2028 1674.31 2034.47 1678.17 2038.08 1683.91L2031.44 1687.68C2029.23 1684.15 2025.21 1681.77 2020.7 1681.77C2013.56 1681.77 2008.07 1687.84 2008.07 1694.81C2008.07 1701.78 2013.65 1707.69 2020.86 1707.69C2025.54 1707.69 2029.47 1705.23 2031.69 1701.54ZM2073.7 1695.96V1675.05H2081.57V1698.17C2081.57 1710.39 2074.76 1715.07 2063.86 1715.07C2052.95 1715.07 2046.14 1710.39 2046.14 1698.17V1675.05H2054.1V1695.96C2054.1 1703.26 2055.82 1707.69 2063.86 1707.69C2071.97 1707.69 2073.7 1703.26 2073.7 1695.96ZM2101.92 1714H2094.05V1675.05H2101.92V1679.72C2105.69 1675.21 2109.55 1674.31 2117.09 1674.31V1681.86C2104.22 1681.86 2101.92 1687.1 2101.92 1693.83V1714ZM2132.99 1714H2125.04V1675.05H2132.99V1714ZM2129.06 1667.34C2126.19 1667.34 2123.97 1665.13 2123.97 1662.26C2123.97 1659.39 2126.19 1657.17 2129.06 1657.17C2131.93 1657.17 2134.06 1659.39 2134.06 1662.26C2134.06 1665.13 2131.93 1667.34 2129.06 1667.34ZM2183.82 1694.73C2183.82 1705.88 2174.55 1715.07 2163.24 1715.07C2152 1715.07 2142.82 1705.96 2142.82 1694.73C2142.82 1683.58 2151.84 1674.31 2163.24 1674.31C2174.55 1674.31 2183.82 1683.5 2183.82 1694.73ZM2176.03 1694.65C2176.03 1687.6 2170.37 1681.77 2163.32 1681.77C2156.02 1681.77 2150.61 1687.92 2150.61 1694.81C2150.61 1701.78 2156.19 1707.69 2163.32 1707.69C2170.54 1707.69 2176.03 1701.62 2176.03 1694.65ZM2189.81 1709.98L2194.08 1703.91C2198.01 1707.11 2202.19 1707.93 2204.98 1707.93C2209.16 1707.93 2211.46 1706.13 2211.46 1703.5C2211.46 1695.8 2191.21 1700.55 2191.21 1686.53C2191.21 1679.4 2196.45 1674.31 2204.57 1674.31C2207.85 1674.31 2213.35 1675.13 2217.77 1678.74L2213.59 1684.56C2210.15 1682.02 2206.7 1681.53 2204.65 1681.53C2200.72 1681.53 2199 1683.5 2199 1685.63C2199 1693.01 2219.17 1688.99 2219.17 1703.01C2219.17 1710.47 2213.51 1715.07 2204.74 1715.07C2198.91 1715.07 2193.83 1713.02 2189.81 1709.98ZM2237.09 1714H2229.14V1675.05H2237.09V1714ZM2233.16 1667.34C2230.29 1667.34 2228.07 1665.13 2228.07 1662.26C2228.07 1659.39 2230.29 1657.17 2233.16 1657.17C2236.03 1657.17 2238.16 1659.39 2238.16 1662.26C2238.16 1665.13 2236.03 1667.34 2233.16 1667.34ZM2268.65 1707.11V1714.16C2267.83 1714.49 2265.37 1715.07 2262.5 1715.07C2252.91 1715.07 2251.18 1708.75 2251.18 1702.03V1682.51H2245.03V1675.05H2251.18V1661.85H2259.14V1675.05H2269.72V1682.51H2259.14V1701.13C2259.14 1705.55 2260.12 1707.69 2264.3 1707.69C2265.7 1707.69 2267.83 1707.44 2268.65 1707.11ZM2289.69 1734.75H2281.9L2289.04 1714.74L2273.13 1675.05H2281.74L2292.89 1704.32L2303.39 1675.05H2311.26L2289.69 1734.75ZM2378.98 1714H2371.11V1709.41C2367.83 1713.26 2363.32 1715.07 2358.07 1715.07C2346.51 1715.07 2337.49 1706.13 2337.49 1694.73C2337.49 1683.17 2346.67 1674.31 2358.07 1674.31C2363.32 1674.31 2367.75 1676.2 2371.11 1680.05V1675.05H2378.98V1714ZM2370.94 1694.73C2370.94 1687.68 2365.45 1681.77 2358.07 1681.77C2350.77 1681.77 2345.28 1687.51 2345.28 1694.73C2345.28 1702.03 2350.77 1707.69 2358.07 1707.69C2365.53 1707.69 2370.94 1701.78 2370.94 1694.73ZM2427.36 1714H2419.41V1693.58C2419.41 1685.79 2416.37 1681.77 2409.89 1681.77C2403.17 1681.77 2399.97 1686.12 2399.97 1694.16V1714H2392.1V1675.05H2399.97V1679.23C2402.6 1676.28 2405.79 1674.31 2411.29 1674.31C2420.55 1674.31 2427.36 1679.72 2427.36 1691.94V1714ZM2477.88 1714H2470.01V1709.41C2466.73 1713.26 2462.22 1715.07 2456.97 1715.07C2445.41 1715.07 2436.39 1706.13 2436.39 1694.73C2436.39 1683.17 2445.57 1674.31 2456.97 1674.31C2462.22 1674.31 2466.64 1676.2 2470.01 1680.05V1653.32H2477.88V1714ZM2469.84 1694.73C2469.84 1687.68 2464.35 1681.77 2456.97 1681.77C2449.67 1681.77 2444.18 1687.51 2444.18 1694.73C2444.18 1702.03 2449.67 1707.69 2456.97 1707.69C2464.43 1707.69 2469.84 1701.78 2469.84 1694.73ZM2521.63 1714H2513.67V1682.51H2507.93V1675.05H2513.67V1666.03C2513.67 1658.57 2517.12 1653.32 2525.64 1653.32C2527.78 1653.32 2530.24 1653.65 2532.12 1654.22V1661.27C2531.3 1661.03 2529.09 1660.7 2527.45 1660.7C2523.27 1660.7 2521.63 1662.67 2521.63 1668.65V1675.05H2531.3V1682.51H2521.63V1714ZM2565.54 1695.96V1675.05H2573.41V1698.17C2573.41 1710.39 2566.6 1715.07 2555.7 1715.07C2544.79 1715.07 2537.98 1710.39 2537.98 1698.17V1675.05H2545.94V1695.96C2545.94 1703.26 2547.66 1707.69 2555.7 1707.69C2563.81 1707.69 2565.54 1703.26 2565.54 1695.96ZM2621.15 1714H2613.19V1693.58C2613.19 1685.79 2610.16 1681.77 2603.68 1681.77C2596.96 1681.77 2593.76 1686.12 2593.76 1694.16V1714H2585.89V1675.05H2593.76V1679.23C2596.38 1676.28 2599.58 1674.31 2605.08 1674.31C2614.34 1674.31 2621.15 1679.72 2621.15 1691.94V1714ZM2640.18 1714.49C2637.31 1714.49 2635.09 1712.28 2635.09 1709.41C2635.09 1706.54 2637.31 1704.41 2640.18 1704.41C2643.05 1704.41 2645.18 1706.54 2645.18 1709.41C2645.18 1712.28 2643.05 1714.49 2640.18 1714.49Z" fill="black"/>
<path d="M2127.87 281H2090.97V220.32H2099.33V273.128H2127.87V281ZM2172.69 264.354H2140.79C2141.86 270.34 2146.78 274.932 2153.42 274.932C2157.69 274.932 2161.87 273.046 2164.33 269.602L2169.9 273.866C2166.3 278.95 2160.15 282.066 2153.42 282.066C2142.11 282.066 2133 273.21 2133 261.73C2133 250.824 2141.29 241.312 2152.93 241.312C2164.49 241.312 2172.86 250.742 2172.86 261.648C2172.86 262.714 2172.77 263.534 2172.69 264.354ZM2141.04 258.122H2164.82C2163.92 252.71 2159.16 248.528 2153.01 248.528C2146.94 248.528 2142.43 252.628 2141.04 258.122ZM2220.7 281H2212.83V276.408C2209.55 280.262 2205.04 282.066 2199.79 282.066C2188.23 282.066 2179.21 273.128 2179.21 261.73C2179.21 250.168 2188.39 241.312 2199.79 241.312C2205.04 241.312 2209.47 243.198 2212.83 247.052V242.05H2220.7V281ZM2212.67 261.73C2212.67 254.678 2207.17 248.774 2199.79 248.774C2192.49 248.774 2187 254.514 2187 261.73C2187 269.028 2192.49 274.686 2199.79 274.686C2207.25 274.686 2212.67 268.782 2212.67 261.73ZM2241.69 281H2233.82V242.05H2241.69V246.724C2245.46 242.214 2249.32 241.312 2256.86 241.312V248.856C2243.99 248.856 2241.69 254.104 2241.69 260.828V281ZM2300.07 281H2292.12V260.582C2292.12 252.792 2289.08 248.774 2282.6 248.774C2275.88 248.774 2272.68 253.12 2272.68 261.156V281H2264.81V242.05H2272.68V246.232C2275.31 243.28 2278.5 241.312 2284 241.312C2293.26 241.312 2300.07 246.724 2300.07 258.942V281ZM2308.52 276.982L2312.79 270.914C2316.72 274.112 2320.9 274.932 2323.69 274.932C2327.87 274.932 2330.17 273.128 2330.17 270.504C2330.17 262.796 2309.92 267.552 2309.92 253.53C2309.92 246.396 2315.16 241.312 2323.28 241.312C2326.56 241.312 2332.06 242.132 2336.48 245.74L2332.3 251.562C2328.86 249.02 2325.41 248.528 2323.36 248.528C2319.43 248.528 2317.71 250.496 2317.71 252.628C2317.71 260.008 2337.88 255.99 2337.88 270.012C2337.88 277.474 2332.22 282.066 2323.45 282.066C2317.62 282.066 2312.54 280.016 2308.52 276.982ZM2377.82 281H2369.95V220.32H2377.82V247.052C2381.1 243.198 2385.61 241.312 2390.86 241.312C2402.26 241.312 2411.44 250.168 2411.44 261.73C2411.44 273.128 2402.42 282.066 2390.86 282.066C2385.61 282.066 2381.1 280.262 2377.82 276.408V281ZM2378.07 261.73C2378.07 268.782 2383.24 274.686 2390.78 274.686C2398.16 274.686 2403.65 269.028 2403.65 261.73C2403.65 254.514 2398.16 248.774 2390.86 248.774C2383.56 248.774 2378.07 254.514 2378.07 261.73ZM2457.69 264.354H2425.79C2426.86 270.34 2431.78 274.932 2438.42 274.932C2442.68 274.932 2446.87 273.046 2449.33 269.602L2454.9 273.866C2451.29 278.95 2445.14 282.066 2438.42 282.066C2427.1 282.066 2418 273.21 2418 261.73C2418 250.824 2426.28 241.312 2437.93 241.312C2449.49 241.312 2457.85 250.742 2457.85 261.648C2457.85 262.714 2457.77 263.534 2457.69 264.354ZM2426.04 258.122H2449.82C2448.92 252.71 2444.16 248.528 2438.01 248.528C2431.94 248.528 2427.43 252.628 2426.04 258.122ZM2463.63 276.982L2467.9 270.914C2471.83 274.112 2476.02 274.932 2478.8 274.932C2482.99 274.932 2485.28 273.128 2485.28 270.504C2485.28 262.796 2465.03 267.552 2465.03 253.53C2465.03 246.396 2470.28 241.312 2478.39 241.312C2481.67 241.312 2487.17 242.132 2491.6 245.74L2487.41 251.562C2483.97 249.02 2480.53 248.528 2478.48 248.528C2474.54 248.528 2472.82 250.496 2472.82 252.628C2472.82 260.008 2492.99 255.99 2492.99 270.012C2492.99 277.474 2487.33 282.066 2478.56 282.066C2472.74 282.066 2467.65 280.016 2463.63 276.982ZM2521.01 274.112V281.164C2520.19 281.492 2517.73 282.066 2514.86 282.066C2505.27 282.066 2503.55 275.752 2503.55 269.028V249.512H2497.4V242.05H2503.55V228.848H2511.5V242.05H2522.08V249.512H2511.5V268.126C2511.5 272.554 2512.48 274.686 2516.67 274.686C2518.06 274.686 2520.19 274.44 2521.01 274.112ZM2560.4 281H2552.53V220.32H2560.4V247.052C2563.68 243.198 2568.19 241.312 2573.44 241.312C2584.84 241.312 2594.02 250.168 2594.02 261.73C2594.02 273.128 2585 282.066 2573.44 282.066C2568.19 282.066 2563.68 280.262 2560.4 276.408V281ZM2560.65 261.73C2560.65 268.782 2565.81 274.686 2573.36 274.686C2580.74 274.686 2586.23 269.028 2586.23 261.73C2586.23 254.514 2580.74 248.774 2573.44 248.774C2566.14 248.774 2560.65 254.514 2560.65 261.73ZM2614.68 301.746H2606.89L2614.03 281.738L2598.12 242.05H2606.73L2617.88 271.324L2628.38 242.05H2636.25L2614.68 301.746ZM2128.77 368H2120.9V363.408C2117.62 367.262 2113.11 369.066 2107.86 369.066C2096.3 369.066 2087.28 360.128 2087.28 348.73C2087.28 337.168 2096.46 328.312 2107.86 328.312C2113.11 328.312 2117.54 330.198 2120.9 334.052V307.32H2128.77V368ZM2120.74 348.73C2120.74 341.678 2115.24 335.774 2107.86 335.774C2100.56 335.774 2095.07 341.514 2095.07 348.73C2095.07 356.028 2100.56 361.686 2107.86 361.686C2115.32 361.686 2120.74 355.782 2120.74 348.73ZM2149.84 368H2141.89V329.05H2149.84V368ZM2145.91 321.342C2143.04 321.342 2140.82 319.128 2140.82 316.258C2140.82 313.388 2143.04 311.174 2145.91 311.174C2148.78 311.174 2150.91 313.388 2150.91 316.258C2150.91 319.128 2148.78 321.342 2145.91 321.342ZM2159.1 363.982L2163.36 357.914C2167.3 361.112 2171.48 361.932 2174.27 361.932C2178.45 361.932 2180.74 360.128 2180.74 357.504C2180.74 349.796 2160.49 354.552 2160.49 340.53C2160.49 333.396 2165.74 328.312 2173.86 328.312C2177.14 328.312 2182.63 329.132 2187.06 332.74L2182.88 338.562C2179.43 336.02 2175.99 335.528 2173.94 335.528C2170 335.528 2168.28 337.496 2168.28 339.628C2168.28 347.008 2188.45 342.99 2188.45 357.012C2188.45 364.474 2182.79 369.066 2174.02 369.066C2168.2 369.066 2163.11 367.016 2159.1 363.982ZM2226.55 355.536L2233.11 359.39C2229.5 365.212 2222.94 369.066 2215.56 369.066C2204.33 369.066 2195.15 359.964 2195.15 348.73C2195.15 337.578 2204.17 328.312 2215.56 328.312C2222.86 328.312 2229.34 332.166 2232.95 337.906L2226.31 341.678C2224.09 338.152 2220.07 335.774 2215.56 335.774C2208.43 335.774 2202.94 341.842 2202.94 348.812C2202.94 355.782 2208.51 361.686 2215.73 361.686C2220.4 361.686 2224.34 359.226 2226.55 355.536ZM2268.56 349.96V329.05H2276.43V352.174C2276.43 364.392 2269.63 369.066 2258.72 369.066C2247.82 369.066 2241.01 364.392 2241.01 352.174V329.05H2248.96V349.96C2248.96 357.258 2250.69 361.686 2258.72 361.686C2266.84 361.686 2268.56 357.258 2268.56 349.96ZM2285.06 363.982L2289.32 357.914C2293.26 361.112 2297.44 361.932 2300.23 361.932C2304.41 361.932 2306.71 360.128 2306.71 357.504C2306.71 349.796 2286.45 354.552 2286.45 340.53C2286.45 333.396 2291.7 328.312 2299.82 328.312C2303.1 328.312 2308.59 329.132 2313.02 332.74L2308.84 338.562C2305.4 336.02 2301.95 335.528 2299.9 335.528C2295.97 335.528 2294.24 337.496 2294.24 339.628C2294.24 347.008 2314.42 342.99 2314.42 357.012C2314.42 364.474 2308.76 369.066 2299.98 369.066C2294.16 369.066 2289.08 367.016 2285.06 363.982ZM2320.53 363.982L2324.8 357.914C2328.73 361.112 2332.92 361.932 2335.7 361.932C2339.89 361.932 2342.18 360.128 2342.18 357.504C2342.18 349.796 2321.93 354.552 2321.93 340.53C2321.93 333.396 2327.18 328.312 2335.29 328.312C2338.57 328.312 2344.07 329.132 2348.5 332.74L2344.31 338.562C2340.87 336.02 2337.43 335.528 2335.38 335.528C2331.44 335.528 2329.72 337.496 2329.72 339.628C2329.72 347.008 2349.89 342.99 2349.89 357.012C2349.89 364.474 2344.23 369.066 2335.46 369.066C2329.64 369.066 2324.55 367.016 2320.53 363.982ZM2367.82 368H2359.86V329.05H2367.82V368ZM2363.88 321.342C2361.01 321.342 2358.8 319.128 2358.8 316.258C2358.8 313.388 2361.01 311.174 2363.88 311.174C2366.75 311.174 2368.88 313.388 2368.88 316.258C2368.88 319.128 2366.75 321.342 2363.88 321.342ZM2416.18 368H2408.23V347.582C2408.23 339.792 2405.2 335.774 2398.72 335.774C2391.99 335.774 2388.8 340.12 2388.8 348.156V368H2380.92V329.05H2388.8V333.232C2391.42 330.28 2394.62 328.312 2400.11 328.312C2409.38 328.312 2416.18 333.724 2416.18 345.942V368ZM2458.83 366.196V363.408C2455.55 367.262 2451.04 369.066 2445.79 369.066C2434.23 369.066 2425.21 360.128 2425.21 348.73C2425.21 337.168 2434.39 328.312 2445.79 328.312C2451.04 328.312 2455.47 330.198 2458.83 334.052V329.05H2466.7V364.802C2466.7 384.318 2454.81 388.746 2446.04 388.746C2438.17 388.746 2431.85 385.138 2428.16 379.234L2435.46 376.118C2437.76 379.398 2441.04 381.366 2445.96 381.366C2452.68 381.366 2458.83 377.676 2458.83 366.196ZM2458.67 348.73C2458.67 341.678 2453.17 335.774 2445.79 335.774C2438.49 335.774 2433 341.514 2433 348.73C2433 356.028 2438.49 361.686 2445.79 361.686C2453.25 361.686 2458.67 355.782 2458.67 348.73ZM2540.13 368H2532.26V363.408C2528.98 367.262 2524.47 369.066 2519.22 369.066C2507.66 369.066 2498.64 360.128 2498.64 348.73C2498.64 337.168 2507.83 328.312 2519.22 328.312C2524.47 328.312 2528.9 330.198 2532.26 334.052V329.05H2540.13V368ZM2532.1 348.73C2532.1 341.678 2526.6 335.774 2519.22 335.774C2511.93 335.774 2506.43 341.514 2506.43 348.73C2506.43 356.028 2511.93 361.686 2519.22 361.686C2526.69 361.686 2532.1 355.782 2532.1 348.73ZM2588.51 368H2580.56V347.582C2580.56 339.792 2577.52 335.774 2571.05 335.774C2564.32 335.774 2561.12 340.12 2561.12 348.156V368H2553.25V329.05H2561.12V333.232C2563.75 330.28 2566.95 328.312 2572.44 328.312C2581.71 328.312 2588.51 333.724 2588.51 345.942V368ZM2639.03 368H2631.16V363.408C2627.88 367.262 2623.37 369.066 2618.12 369.066C2606.56 369.066 2597.54 360.128 2597.54 348.73C2597.54 337.168 2606.72 328.312 2618.12 328.312C2623.37 328.312 2627.8 330.198 2631.16 334.052V307.32H2639.03V368ZM2630.99 348.73C2630.99 341.678 2625.5 335.774 2618.12 335.774C2610.82 335.774 2605.33 341.514 2605.33 348.73C2605.33 356.028 2610.82 361.686 2618.12 361.686C2625.58 361.686 2630.99 355.782 2630.99 348.73ZM2086.71 450.982L2090.97 444.914C2094.91 448.112 2099.09 448.932 2101.88 448.932C2106.06 448.932 2108.35 447.128 2108.35 444.504C2108.35 436.796 2088.1 441.552 2088.1 427.53C2088.1 420.396 2093.35 415.312 2101.47 415.312C2104.75 415.312 2110.24 416.132 2114.67 419.74L2110.49 425.562C2107.04 423.02 2103.6 422.528 2101.55 422.528C2097.61 422.528 2095.89 424.496 2095.89 426.628C2095.89 434.008 2116.06 429.99 2116.06 444.012C2116.06 451.474 2110.4 456.066 2101.63 456.066C2095.81 456.066 2090.72 454.016 2086.71 450.982ZM2161.29 455H2153.34V434.582C2153.34 426.792 2150.31 422.774 2143.83 422.774C2137.1 422.774 2133.91 427.12 2133.91 435.156V455H2126.03V394.32H2133.91V420.232C2136.53 417.28 2139.73 415.312 2145.22 415.312C2154.49 415.312 2161.29 420.724 2161.29 432.942V455ZM2211.81 455H2203.94V450.408C2200.66 454.262 2196.15 456.066 2190.9 456.066C2179.34 456.066 2170.32 447.128 2170.32 435.73C2170.32 424.168 2179.51 415.312 2190.9 415.312C2196.15 415.312 2200.58 417.198 2203.94 421.052V416.05H2211.81V455ZM2203.78 435.73C2203.78 428.678 2198.28 422.774 2190.9 422.774C2183.61 422.774 2178.11 428.514 2178.11 435.73C2178.11 443.028 2183.61 448.686 2190.9 448.686C2198.37 448.686 2203.78 442.782 2203.78 435.73ZM2232.8 455H2224.93V416.05H2232.8V420.724C2236.58 416.214 2240.43 415.312 2247.97 415.312V422.856C2235.1 422.856 2232.8 428.104 2232.8 434.828V455ZM2263.88 455H2255.92V416.05H2263.88V455ZM2259.94 408.342C2257.07 408.342 2254.86 406.128 2254.86 403.258C2254.86 400.388 2257.07 398.174 2259.94 398.174C2262.81 398.174 2264.94 400.388 2264.94 403.258C2264.94 406.128 2262.81 408.342 2259.94 408.342ZM2312.24 455H2304.29V434.582C2304.29 426.792 2301.25 422.774 2294.78 422.774C2288.05 422.774 2284.85 427.12 2284.85 435.156V455H2276.98V416.05H2284.85V420.232C2287.48 417.28 2290.68 415.312 2296.17 415.312C2305.44 415.312 2312.24 420.724 2312.24 432.942V455ZM2354.89 453.196V450.408C2351.61 454.262 2347.1 456.066 2341.85 456.066C2330.29 456.066 2321.27 447.128 2321.27 435.73C2321.27 424.168 2330.45 415.312 2341.85 415.312C2347.1 415.312 2351.53 417.198 2354.89 421.052V416.05H2362.76V451.802C2362.76 471.318 2350.87 475.746 2342.1 475.746C2334.22 475.746 2327.91 472.138 2324.22 466.234L2331.52 463.118C2333.81 466.398 2337.09 468.366 2342.01 468.366C2348.74 468.366 2354.89 464.676 2354.89 453.196ZM2354.72 435.73C2354.72 428.678 2349.23 422.774 2341.85 422.774C2334.55 422.774 2329.06 428.514 2329.06 435.73C2329.06 443.028 2334.55 448.686 2341.85 448.686C2349.31 448.686 2354.72 442.782 2354.72 435.73ZM2405.93 455H2397.98V416.05H2405.93V455ZM2402 408.342C2399.13 408.342 2396.91 406.128 2396.91 403.258C2396.91 400.388 2399.13 398.174 2402 398.174C2404.87 398.174 2407 400.388 2407 403.258C2407 406.128 2404.87 408.342 2402 408.342ZM2457.25 455H2449.38V450.408C2446.1 454.262 2441.59 456.066 2436.34 456.066C2424.78 456.066 2415.76 447.128 2415.76 435.73C2415.76 424.168 2424.94 415.312 2436.34 415.312C2441.59 415.312 2446.02 417.198 2449.38 421.052V394.32H2457.25V455ZM2449.22 435.73C2449.22 428.678 2443.72 422.774 2436.34 422.774C2429.04 422.774 2423.55 428.514 2423.55 435.73C2423.55 443.028 2429.04 448.686 2436.34 448.686C2443.8 448.686 2449.22 442.782 2449.22 435.73ZM2506.78 438.354H2474.88C2475.95 444.34 2480.87 448.932 2487.51 448.932C2491.77 448.932 2495.95 447.046 2498.41 443.602L2503.99 447.866C2500.38 452.95 2494.23 456.066 2487.51 456.066C2476.19 456.066 2467.09 447.21 2467.09 435.73C2467.09 424.824 2475.37 415.312 2487.02 415.312C2498.58 415.312 2506.94 424.742 2506.94 435.648C2506.94 436.714 2506.86 437.534 2506.78 438.354ZM2475.13 432.122H2498.91C2498 426.71 2493.25 422.528 2487.1 422.528C2481.03 422.528 2476.52 426.628 2475.13 432.122ZM2554.79 455H2546.92V450.408C2543.64 454.262 2539.13 456.066 2533.88 456.066C2522.32 456.066 2513.3 447.128 2513.3 435.73C2513.3 424.168 2522.48 415.312 2533.88 415.312C2539.13 415.312 2543.55 417.198 2546.92 421.052V416.05H2554.79V455ZM2546.75 435.73C2546.75 428.678 2541.26 422.774 2533.88 422.774C2526.58 422.774 2521.09 428.514 2521.09 435.73C2521.09 443.028 2526.58 448.686 2533.88 448.686C2541.34 448.686 2546.75 442.782 2546.75 435.73ZM2564.05 450.982L2568.32 444.914C2572.25 448.112 2576.43 448.932 2579.22 448.932C2583.4 448.932 2585.7 447.128 2585.7 444.504C2585.7 436.796 2565.45 441.552 2565.45 427.53C2565.45 420.396 2570.69 415.312 2578.81 415.312C2582.09 415.312 2587.59 416.132 2592.01 419.74L2587.83 425.562C2584.39 423.02 2580.94 422.528 2578.89 422.528C2574.96 422.528 2573.24 424.496 2573.24 426.628C2573.24 434.008 2593.41 429.99 2593.41 444.012C2593.41 451.474 2587.75 456.066 2578.98 456.066C2573.15 456.066 2568.07 454.016 2564.05 450.982ZM2610.1 455.492C2607.23 455.492 2605.02 453.278 2605.02 450.408C2605.02 447.538 2607.23 445.406 2610.1 445.406C2612.97 445.406 2615.11 447.538 2615.11 450.408C2615.11 453.278 2612.97 455.492 2610.1 455.492Z" fill="black"/>
<path d="M46.87 542H9.97V481.32H18.334V534.128H46.87V542ZM93.0046 522.73C93.0046 533.882 83.7386 543.066 72.4226 543.066C61.1886 543.066 52.0046 533.964 52.0046 522.73C52.0046 511.578 61.0246 502.312 72.4226 502.312C83.7386 502.312 93.0046 511.496 93.0046 522.73ZM85.2146 522.648C85.2146 515.596 79.5566 509.774 72.5046 509.774C65.2066 509.774 59.7946 515.924 59.7946 522.812C59.7946 529.782 65.3706 535.686 72.5046 535.686C79.7206 535.686 85.2146 529.618 85.2146 522.648ZM121.229 542H112.783L96.7106 503.05H105.239L116.883 532.16L128.691 503.05H137.219L121.229 542ZM180.98 525.354H149.082C150.148 531.34 155.068 535.932 161.71 535.932C165.974 535.932 170.156 534.046 172.616 530.602L178.192 534.866C174.584 539.95 168.434 543.066 161.71 543.066C150.394 543.066 141.292 534.21 141.292 522.73C141.292 511.824 149.574 502.312 161.218 502.312C172.78 502.312 181.144 511.742 181.144 522.648C181.144 523.714 181.062 524.534 180.98 525.354ZM149.328 519.122H173.108C172.206 513.71 167.45 509.528 161.3 509.528C155.232 509.528 150.722 513.628 149.328 519.122ZM186.923 537.982L191.187 531.914C195.123 535.112 199.305 535.932 202.093 535.932C206.275 535.932 208.571 534.128 208.571 531.504C208.571 523.796 188.317 528.552 188.317 514.53C188.317 507.396 193.565 502.312 201.683 502.312C204.963 502.312 210.457 503.132 214.885 506.74L210.703 512.562C207.259 510.02 203.815 509.528 201.765 509.528C197.829 509.528 196.107 511.496 196.107 513.628C196.107 521.008 216.279 516.99 216.279 531.012C216.279 538.474 210.621 543.066 201.847 543.066C196.025 543.066 190.941 541.016 186.923 537.982ZM286.565 542H278.693V537.408C275.413 541.262 270.903 543.066 265.655 543.066C254.093 543.066 245.073 534.128 245.073 522.73C245.073 511.168 254.257 502.312 265.655 502.312C270.903 502.312 275.331 504.198 278.693 508.052V503.05H286.565V542ZM278.529 522.73C278.529 515.678 273.035 509.774 265.655 509.774C258.357 509.774 252.863 515.514 252.863 522.73C252.863 530.028 258.357 535.686 265.655 535.686C273.117 535.686 278.529 529.782 278.529 522.73ZM334.943 542H326.989V521.582C326.989 513.792 323.955 509.774 317.477 509.774C310.753 509.774 307.555 514.12 307.555 522.156V542H299.683V503.05H307.555V507.232C310.179 504.28 313.377 502.312 318.871 502.312C328.137 502.312 334.943 507.724 334.943 519.942V542ZM385.461 542H377.589V537.408C374.309 541.262 369.799 543.066 364.551 543.066C352.989 543.066 343.969 534.128 343.969 522.73C343.969 511.168 353.153 502.312 364.551 502.312C369.799 502.312 374.227 504.198 377.589 508.052V503.05H385.461V542ZM377.425 522.73C377.425 515.678 371.931 509.774 364.551 509.774C357.253 509.774 351.759 515.514 351.759 522.73C351.759 530.028 357.253 535.686 364.551 535.686C372.013 535.686 377.425 529.782 377.425 522.73ZM413.258 535.604V542.492C411.946 542.82 410.552 543.066 408.912 543.066C402.516 543.066 398.58 539.212 398.58 532.078V481.32H406.452V529.618C406.452 533.8 407.436 535.686 411.29 535.686C411.782 535.686 412.52 535.686 413.258 535.604ZM431.505 562.746H423.715L430.849 542.738L414.941 503.05H423.551L434.703 532.324L445.199 503.05H453.071L431.505 562.746ZM456.626 537.982L460.89 531.914C464.826 535.112 469.008 535.932 471.796 535.932C475.978 535.932 478.274 534.128 478.274 531.504C478.274 523.796 458.02 528.552 458.02 514.53C458.02 507.396 463.268 502.312 471.386 502.312C474.666 502.312 480.16 503.132 484.588 506.74L480.406 512.562C476.962 510.02 473.518 509.528 471.468 509.528C467.532 509.528 465.81 511.496 465.81 513.628C465.81 521.008 485.982 516.99 485.982 531.012C485.982 538.474 480.324 543.066 471.55 543.066C465.728 543.066 460.644 541.016 456.626 537.982ZM503.909 542H495.955V503.05H503.909V542ZM499.973 495.342C497.103 495.342 494.889 493.128 494.889 490.258C494.889 487.388 497.103 485.174 499.973 485.174C502.843 485.174 504.975 487.388 504.975 490.258C504.975 493.128 502.843 495.342 499.973 495.342ZM552.275 542H544.321V521.582C544.321 513.792 541.287 509.774 534.809 509.774C528.085 509.774 524.887 514.12 524.887 522.156V542H517.015V503.05H524.887V507.232C527.511 504.28 530.709 502.312 536.203 502.312C545.469 502.312 552.275 507.724 552.275 519.942V542ZM594.921 540.196V537.408C591.641 541.262 587.131 543.066 581.883 543.066C570.321 543.066 561.301 534.128 561.301 522.73C561.301 511.168 570.485 502.312 581.883 502.312C587.131 502.312 591.559 504.198 594.921 508.052V503.05H602.793V538.802C602.793 558.318 590.903 562.746 582.129 562.746C574.257 562.746 567.943 559.138 564.253 553.234L571.551 550.118C573.847 553.398 577.127 555.366 582.047 555.366C588.771 555.366 594.921 551.676 594.921 540.196ZM594.757 522.73C594.757 515.678 589.263 509.774 581.883 509.774C574.585 509.774 569.091 515.514 569.091 522.73C569.091 530.028 574.585 535.686 581.883 535.686C589.345 535.686 594.757 529.782 594.757 522.73ZM676.225 542H668.353V537.408C665.073 541.262 660.563 543.066 655.315 543.066C643.753 543.066 634.733 534.128 634.733 522.73C634.733 511.168 643.917 502.312 655.315 502.312C660.563 502.312 664.991 504.198 668.353 508.052V503.05H676.225V542ZM668.189 522.73C668.189 515.678 662.695 509.774 655.315 509.774C648.017 509.774 642.523 515.514 642.523 522.73C642.523 530.028 648.017 535.686 655.315 535.686C662.777 535.686 668.189 529.782 668.189 522.73ZM724.603 542H716.649V521.582C716.649 513.792 713.615 509.774 707.137 509.774C700.413 509.774 697.215 514.12 697.215 522.156V542H689.343V503.05H697.215V507.232C699.839 504.28 703.037 502.312 708.531 502.312C717.797 502.312 724.603 507.724 724.603 519.942V542ZM775.122 542H767.25V537.408C763.97 541.262 759.46 543.066 754.212 543.066C742.65 543.066 733.63 534.128 733.63 522.73C733.63 511.168 742.814 502.312 754.212 502.312C759.46 502.312 763.888 504.198 767.25 508.052V481.32H775.122V542ZM767.086 522.73C767.086 515.678 761.592 509.774 754.212 509.774C746.914 509.774 741.42 515.514 741.42 522.73C741.42 530.028 746.914 535.686 754.212 535.686C761.674 535.686 767.086 529.782 767.086 522.73ZM18.088 629H10.134V597.512H4.394V590.05H10.134V581.03C10.134 573.568 13.578 568.32 22.106 568.32C24.238 568.32 26.698 568.648 28.584 569.222V576.274C27.764 576.028 25.55 575.7 23.91 575.7C19.728 575.7 18.088 577.668 18.088 583.654V590.05H27.764V597.512H18.088V629ZM43.139 629H35.185V590.05H43.139V629ZM39.203 582.342C36.333 582.342 34.119 580.128 34.119 577.258C34.119 574.388 36.333 572.174 39.203 572.174C42.073 572.174 44.205 574.388 44.205 577.258C44.205 580.128 42.073 582.342 39.203 582.342ZM91.5056 629H83.5515V608.582C83.5515 600.792 80.5175 596.774 74.0395 596.774C67.3155 596.774 64.1175 601.12 64.1175 609.156V629H56.2455V590.05H64.1175V594.232C66.7415 591.28 69.9395 589.312 75.4335 589.312C84.6995 589.312 91.5056 594.724 91.5056 606.942V629ZM142.024 629H134.152V624.408C130.872 628.262 126.362 630.066 121.114 630.066C109.552 630.066 100.532 621.128 100.532 609.73C100.532 598.168 109.716 589.312 121.114 589.312C126.362 589.312 130.79 591.198 134.152 595.052V568.32H142.024V629ZM133.988 609.73C133.988 602.678 128.494 596.774 121.114 596.774C113.816 596.774 108.322 602.514 108.322 609.73C108.322 617.028 113.816 622.686 121.114 622.686C128.576 622.686 133.988 616.782 133.988 609.73ZM163.096 629H155.142V590.05H163.096V629ZM159.16 582.342C156.29 582.342 154.076 580.128 154.076 577.258C154.076 574.388 156.29 572.174 159.16 572.174C162.03 572.174 164.162 574.388 164.162 577.258C164.162 580.128 162.03 582.342 159.16 582.342ZM211.463 629H203.509V608.582C203.509 600.792 200.475 596.774 193.997 596.774C187.273 596.774 184.075 601.12 184.075 609.156V629H176.203V590.05H184.075V594.232C186.699 591.28 189.897 589.312 195.391 589.312C204.657 589.312 211.463 594.724 211.463 606.942V629ZM254.109 627.196V624.408C250.829 628.262 246.319 630.066 241.071 630.066C229.509 630.066 220.489 621.128 220.489 609.73C220.489 598.168 229.673 589.312 241.071 589.312C246.319 589.312 250.747 591.198 254.109 595.052V590.05H261.981V625.802C261.981 645.318 250.091 649.746 241.317 649.746C233.445 649.746 227.131 646.138 223.441 640.234L230.739 637.118C233.035 640.398 236.315 642.366 241.235 642.366C247.959 642.366 254.109 638.676 254.109 627.196ZM253.945 609.73C253.945 602.678 248.451 596.774 241.071 596.774C233.773 596.774 228.279 602.514 228.279 609.73C228.279 617.028 233.773 622.686 241.071 622.686C248.533 622.686 253.945 616.782 253.945 609.73ZM325.327 616.536L331.887 620.39C328.279 626.212 321.719 630.066 314.339 630.066C303.105 630.066 293.921 620.964 293.921 609.73C293.921 598.578 302.941 589.312 314.339 589.312C321.637 589.312 328.115 593.166 331.723 598.906L325.081 602.678C322.867 599.152 318.849 596.774 314.339 596.774C307.205 596.774 301.711 602.842 301.711 609.812C301.711 616.782 307.287 622.686 314.503 622.686C319.177 622.686 323.113 620.226 325.327 616.536ZM348.395 629H340.523V590.05H348.395V594.724C352.167 590.214 356.021 589.312 363.565 589.312V596.856C350.691 596.856 348.395 602.104 348.395 608.828V629ZM407.921 612.354H376.023C377.089 618.34 382.009 622.932 388.651 622.932C392.915 622.932 397.097 621.046 399.557 617.602L405.133 621.866C401.525 626.95 395.375 630.066 388.651 630.066C377.335 630.066 368.233 621.21 368.233 609.73C368.233 598.824 376.515 589.312 388.159 589.312C399.721 589.312 408.085 598.742 408.085 609.648C408.085 610.714 408.003 611.534 407.921 612.354ZM376.269 606.122H400.049C399.147 600.71 394.391 596.528 388.241 596.528C382.173 596.528 377.663 600.628 376.269 606.122ZM455.93 629H448.058V624.408C444.778 628.262 440.268 630.066 435.02 630.066C423.458 630.066 414.438 621.128 414.438 609.73C414.438 598.168 423.622 589.312 435.02 589.312C440.268 589.312 444.696 591.198 448.058 595.052V590.05H455.93V629ZM447.894 609.73C447.894 602.678 442.4 596.774 435.02 596.774C427.722 596.774 422.228 602.514 422.228 609.73C422.228 617.028 427.722 622.686 435.02 622.686C442.482 622.686 447.894 616.782 447.894 609.73ZM487.498 622.112V629.164C486.678 629.492 484.218 630.066 481.348 630.066C471.754 630.066 470.032 623.752 470.032 617.028V597.512H463.882V590.05H470.032V576.848H477.986V590.05H488.564V597.512H477.986V616.126C477.986 620.554 478.97 622.686 483.152 622.686C484.546 622.686 486.678 622.44 487.498 622.112ZM505.67 629H497.716V590.05H505.67V629ZM501.734 582.342C498.864 582.342 496.65 580.128 496.65 577.258C496.65 574.388 498.864 572.174 501.734 572.174C504.604 572.174 506.736 574.388 506.736 577.258C506.736 580.128 504.604 582.342 501.734 582.342ZM537.555 629H529.109L513.037 590.05H521.565L533.209 619.16L545.017 590.05H553.545L537.555 629ZM597.306 612.354H565.408C566.474 618.34 571.394 622.932 578.036 622.932C582.3 622.932 586.482 621.046 588.942 617.602L594.518 621.866C590.91 626.95 584.76 630.066 578.036 630.066C566.72 630.066 557.618 621.21 557.618 609.73C557.618 598.824 565.9 589.312 577.544 589.312C589.106 589.312 597.47 598.742 597.47 609.648C597.47 610.714 597.388 611.534 597.306 612.354ZM565.654 606.122H589.434C588.532 600.71 583.776 596.528 577.626 596.528C571.558 596.528 567.048 600.628 565.654 606.122ZM5.706 711.982L9.97 705.914C13.906 709.112 18.088 709.932 20.876 709.932C25.058 709.932 27.354 708.128 27.354 705.504C27.354 697.796 7.1 702.552 7.1 688.53C7.1 681.396 12.348 676.312 20.466 676.312C23.746 676.312 29.24 677.132 33.668 680.74L29.486 686.562C26.042 684.02 22.598 683.528 20.548 683.528C16.612 683.528 14.89 685.496 14.89 687.628C14.89 695.008 35.062 690.99 35.062 705.012C35.062 712.474 29.404 717.066 20.63 717.066C14.808 717.066 9.724 715.016 5.706 711.982ZM82.7546 696.73C82.7546 707.882 73.4886 717.066 62.1726 717.066C50.9386 717.066 41.7546 707.964 41.7546 696.73C41.7546 685.578 50.7746 676.312 62.1726 676.312C73.4886 676.312 82.7546 685.496 82.7546 696.73ZM74.9646 696.648C74.9646 689.596 69.3066 683.774 62.2546 683.774C54.9566 683.774 49.5446 689.924 49.5446 696.812C49.5446 703.782 55.1206 709.686 62.2546 709.686C69.4706 709.686 74.9646 703.618 74.9646 696.648ZM107.279 709.604V716.492C105.967 716.82 104.573 717.066 102.933 717.066C96.537 717.066 92.601 713.212 92.601 706.078V655.32H100.473V703.618C100.473 707.8 101.457 709.686 105.311 709.686C105.803 709.686 106.541 709.686 107.279 709.604ZM141.517 697.96V677.05H149.389V700.174C149.389 712.392 142.583 717.066 131.677 717.066C120.771 717.066 113.965 712.392 113.965 700.174V677.05H121.919V697.96C121.919 705.258 123.641 709.686 131.677 709.686C139.795 709.686 141.517 705.258 141.517 697.96ZM180.319 709.112V716.164C179.499 716.492 177.039 717.066 174.169 717.066C164.575 717.066 162.853 710.752 162.853 704.028V684.512H156.703V677.05H162.853V663.848H170.807V677.05H181.385V684.512H170.807V703.126C170.807 707.554 171.791 709.686 175.973 709.686C177.367 709.686 179.499 709.44 180.319 709.112ZM198.491 716H190.537V677.05H198.491V716ZM194.555 669.342C191.685 669.342 189.471 667.128 189.471 664.258C189.471 661.388 191.685 659.174 194.555 659.174C197.425 659.174 199.557 661.388 199.557 664.258C199.557 667.128 197.425 669.342 194.555 669.342ZM249.317 696.73C249.317 707.882 240.051 717.066 228.735 717.066C217.501 717.066 208.317 707.964 208.317 696.73C208.317 685.578 217.337 676.312 228.735 676.312C240.051 676.312 249.317 685.496 249.317 696.73ZM241.527 696.648C241.527 689.596 235.869 683.774 228.817 683.774C221.519 683.774 216.107 689.924 216.107 696.812C216.107 703.782 221.683 709.686 228.817 709.686C236.033 709.686 241.527 703.618 241.527 696.648ZM294.424 716H286.47V695.582C286.47 687.792 283.436 683.774 276.958 683.774C270.234 683.774 267.036 688.12 267.036 696.156V716H259.164V677.05H267.036V681.232C269.66 678.28 272.858 676.312 278.352 676.312C287.618 676.312 294.424 681.724 294.424 693.942V716ZM302.876 711.982L307.14 705.914C311.076 709.112 315.258 709.932 318.046 709.932C322.228 709.932 324.524 708.128 324.524 705.504C324.524 697.796 304.27 702.552 304.27 688.53C304.27 681.396 309.518 676.312 317.636 676.312C320.916 676.312 326.41 677.132 330.838 680.74L326.656 686.562C323.212 684.02 319.768 683.528 317.718 683.528C313.782 683.528 312.06 685.496 312.06 687.628C312.06 695.008 332.232 690.99 332.232 705.012C332.232 712.474 326.574 717.066 317.8 717.066C311.978 717.066 306.894 715.016 302.876 711.982ZM348.929 716.492C346.059 716.492 343.845 714.278 343.845 711.408C343.845 708.538 346.059 706.406 348.929 706.406C351.799 706.406 353.931 708.538 353.931 711.408C353.931 714.278 351.799 716.492 348.929 716.492Z" fill="black"/>
<defs>
<linearGradient id="paint0_linear_2038_1580" x1="1807.01" y1="1364.72" x2="1644.94" y2="1425.25" gradientUnits="userSpaceOnUse">
<stop stop-color="#50A684"/>
<stop offset="1" stop-color="#003DA5"/>
</linearGradient>
<linearGradient id="paint1_linear_2038_1580" x1="2048.13" y1="855.24" x2="777.218" y2="1450.48" gradientUnits="userSpaceOnUse">
<stop stop-color="#50A684"/>
<stop offset="1" stop-color="#003DA5"/>
</linearGradient>
</defs>
</svg>
