<svg width="3500" height="1800" viewBox="0 0 3500 1800" fill="none" xmlns="http://www.w3.org/2000/svg">
<rect width="3500" height="1800" fill="white"/>
<path d="M2544.21 638H2529.8V556.6H2580.29V570.46H2544.21V588.61H2572.37V602.47H2544.21V638ZM2642.49 612.04C2642.49 627.11 2630.17 639.43 2614.66 639.43C2599.26 639.43 2586.94 627.11 2586.94 612.04C2586.94 596.86 2599.26 584.76 2614.66 584.76C2630.17 584.76 2642.49 596.86 2642.49 612.04ZM2629.18 612.04C2629.18 604.34 2622.69 597.74 2614.66 597.74C2606.74 597.74 2600.25 604.34 2600.25 612.04C2600.25 619.85 2606.74 626.45 2614.66 626.45C2622.69 626.45 2629.18 619.85 2629.18 612.04ZM2668.14 638H2654.61V585.75H2668.14V589.6C2673.2 585.86 2678.15 584.76 2688.27 584.76V597.74C2671 597.74 2668.14 602.58 2668.14 611.6V638ZM2737.14 636.9V634.59C2732.96 638 2728.01 639.43 2722.62 639.43C2707.22 639.43 2694.9 627.11 2694.9 612.04C2694.9 596.86 2707.22 584.76 2722.62 584.76C2727.9 584.76 2732.85 586.19 2737.14 589.6V585.75H2750.67V634.26C2750.67 662.2 2732.85 665.83 2722.62 665.83C2712.61 665.83 2703.92 660.66 2699.08 652.96L2711.51 647.57C2714.15 650.76 2718.22 652.85 2722.62 652.85C2730.65 652.85 2737.14 648.89 2737.14 636.9ZM2737.14 612.04C2737.14 604.34 2730.65 597.74 2722.62 597.74C2714.7 597.74 2708.21 604.34 2708.21 612.04C2708.21 619.85 2714.7 626.45 2722.62 626.45C2730.65 626.45 2737.14 619.85 2737.14 612.04ZM2818.34 612.04C2818.34 627.11 2806.02 639.43 2790.51 639.43C2775.11 639.43 2762.79 627.11 2762.79 612.04C2762.79 596.86 2775.11 584.76 2790.51 584.76C2806.02 584.76 2818.34 596.86 2818.34 612.04ZM2805.03 612.04C2805.03 604.34 2798.54 597.74 2790.51 597.74C2782.59 597.74 2776.1 604.34 2776.1 612.04C2776.1 619.85 2782.59 626.45 2790.51 626.45C2798.54 626.45 2805.03 619.85 2805.03 612.04ZM2857.55 626.12V638.11C2857.55 638.11 2853.59 639.43 2847.1 639.43C2836.87 639.43 2831.59 632.72 2831.59 622.49V598.73H2823.34V585.75H2831.59V568.04H2845.12V585.75H2858.98V598.73H2845.12V619.63C2845.12 623.26 2846.11 626.67 2850.95 626.67C2854.36 626.67 2857.55 626.12 2857.55 626.12ZM2930.49 626.12V638.11C2930.49 638.11 2926.53 639.43 2920.04 639.43C2909.81 639.43 2904.53 632.72 2904.53 622.49V598.73H2896.28V585.75H2904.53V568.04H2918.06V585.75H2931.92V598.73H2918.06V619.63C2918.06 623.26 2919.05 626.67 2923.89 626.67C2927.3 626.67 2930.49 626.12 2930.49 626.12ZM2996.77 612.04C2996.77 627.11 2984.45 639.43 2968.94 639.43C2953.54 639.43 2941.22 627.11 2941.22 612.04C2941.22 596.86 2953.54 584.76 2968.94 584.76C2984.45 584.76 2996.77 596.86 2996.77 612.04ZM2983.46 612.04C2983.46 604.34 2976.97 597.74 2968.94 597.74C2961.02 597.74 2954.53 604.34 2954.53 612.04C2954.53 619.85 2961.02 626.45 2968.94 626.45C2976.97 626.45 2983.46 619.85 2983.46 612.04ZM2600.64 755H2585.02L2578.31 737.62H2543.22L2536.62 755H2521L2553.56 673.6H2568.19L2600.64 755ZM2573.14 723.87L2560.82 691.53L2548.39 723.87H2573.14ZM2657.47 755H2643.94V727.06C2643.94 716.94 2638.55 714.74 2633.16 714.74C2627.77 714.74 2622.38 716.83 2622.38 726.84V755H2608.85V702.75H2622.38V706.6C2625.35 704.4 2628.98 701.76 2636.13 701.76C2647.57 701.76 2657.47 708.47 2657.47 724.86V755ZM2667.59 749.06L2674.74 738.72C2679.58 742.9 2685.41 744.11 2689.15 744.11C2693.99 744.11 2695.53 742.13 2695.53 740.26C2695.53 732.45 2669.02 737.29 2669.02 718.48C2669.02 708.91 2675.84 701.76 2687.5 701.76C2692.12 701.76 2700.59 702.86 2706.53 708.36L2699.38 718.04C2694.76 714.85 2690.47 714.08 2687.61 714.08C2683.1 714.08 2682.22 716.06 2682.22 717.38C2682.22 724.75 2708.4 721.23 2708.4 739.82C2708.4 749.39 2701.47 756.43 2688.27 756.43C2678.59 756.43 2672.32 752.69 2667.59 749.06ZM2783.68 755H2770.26L2758.49 721.67L2747.16 755H2733.08L2714.49 702.75H2729.67L2740.23 737.07L2752.55 702.75H2764.43L2776.53 737.07L2787.2 702.75H2802.49L2783.68 755ZM2860.5 733.33H2820.68C2822.22 739.71 2827.39 744.22 2835.2 744.22C2839.93 744.22 2844.99 742.46 2848.07 738.39L2857.31 745.76C2852.58 752.47 2844.22 756.43 2835.31 756.43C2819.58 756.43 2807.48 744.66 2807.48 729.37C2807.48 714.52 2817.93 701.76 2834.54 701.76C2849.94 701.76 2860.83 714.3 2860.83 729.04C2860.83 730.47 2860.72 732.01 2860.5 733.33ZM2821.12 723.43H2847.19C2846.42 718.15 2840.92 714.08 2834.43 714.08C2828.16 714.08 2823.1 717.82 2821.12 723.43ZM2886.42 755H2872.89V702.75H2886.42V706.6C2891.48 702.86 2896.43 701.76 2906.55 701.76V714.74C2889.28 714.74 2886.42 719.58 2886.42 728.6V755ZM3016.47 755H3000.85L2994.14 737.62H2959.05L2952.45 755H2936.83L2969.39 673.6H2984.02L3016.47 755ZM2988.97 723.87L2976.65 691.53L2964.22 723.87H2988.97ZM3046.02 743.56V755.55C3044.48 755.99 3042.39 756.43 3040.19 756.43C3030.18 756.43 3024.68 750.93 3024.68 741.03V673.6H3038.21V737.95C3038.21 741.47 3039.2 743.67 3043.93 743.67C3044.37 743.67 3045.25 743.67 3046.02 743.56ZM3077.17 743.56V755.55C3075.63 755.99 3073.54 756.43 3071.34 756.43C3061.33 756.43 3055.83 750.93 3055.83 741.03V673.6H3069.36V737.95C3069.36 741.47 3070.35 743.67 3075.08 743.67C3075.52 743.67 3076.4 743.67 3077.17 743.56ZM2564.34 872H2549.93V804.46H2523.75V790.6H2590.41V804.46H2564.34V872ZM2650.06 872H2636.53V844.06C2636.53 833.94 2631.14 831.74 2625.75 831.74C2620.36 831.74 2614.97 833.83 2614.97 843.84V872H2601.44V790.6H2614.97V823.6C2617.94 821.4 2621.57 818.76 2628.72 818.76C2640.16 818.76 2650.06 825.47 2650.06 841.86V872ZM2714.08 850.33H2674.26C2675.8 856.71 2680.97 861.22 2688.78 861.22C2693.51 861.22 2698.57 859.46 2701.65 855.39L2710.89 862.76C2706.16 869.47 2697.8 873.43 2688.89 873.43C2673.16 873.43 2661.06 861.66 2661.06 846.37C2661.06 831.52 2671.51 818.76 2688.12 818.76C2703.52 818.76 2714.41 831.3 2714.41 846.04C2714.41 847.47 2714.3 849.01 2714.08 850.33ZM2674.7 840.43H2700.77C2700 835.15 2694.5 831.08 2688.01 831.08C2681.74 831.08 2676.68 834.82 2674.7 840.43ZM2838.08 872H2792.76C2770.1 872 2751.18 854.62 2751.18 830.86C2751.18 807.65 2769.44 789.17 2793.64 789.17C2817.51 789.17 2836.21 807.1 2836.21 831.08C2836.21 841.42 2832.69 850.88 2823.12 858.14H2838.08V872ZM2821.8 830.97C2821.8 814.8 2809.48 802.37 2793.64 802.37C2777.69 802.37 2765.48 815.13 2765.48 831.08C2765.48 847.36 2778.13 858.8 2793.75 858.8C2809.37 858.8 2821.8 847.25 2821.8 830.97ZM2880.79 846.81V819.75H2894.32V850.44C2894.32 866.83 2884.53 873.43 2869.79 873.43C2855.05 873.43 2845.26 866.83 2845.26 850.44V819.75H2858.79V846.81C2858.79 855.61 2860.55 860.45 2869.79 860.45C2879.03 860.45 2880.79 855.61 2880.79 846.81ZM2958.36 850.33H2918.54C2920.08 856.71 2925.25 861.22 2933.06 861.22C2937.79 861.22 2942.85 859.46 2945.93 855.39L2955.17 862.76C2950.44 869.47 2942.08 873.43 2933.17 873.43C2917.44 873.43 2905.34 861.66 2905.34 846.37C2905.34 831.52 2915.79 818.76 2932.4 818.76C2947.8 818.76 2958.69 831.3 2958.69 846.04C2958.69 847.47 2958.58 849.01 2958.36 850.33ZM2918.98 840.43H2945.05C2944.28 835.15 2938.78 831.08 2932.29 831.08C2926.02 831.08 2920.96 834.82 2918.98 840.43ZM2966.01 866.06L2973.16 855.72C2978 859.9 2983.83 861.11 2987.57 861.11C2992.41 861.11 2993.95 859.13 2993.95 857.26C2993.95 849.45 2967.44 854.29 2967.44 835.48C2967.44 825.91 2974.26 818.76 2985.92 818.76C2990.54 818.76 2999.01 819.86 3004.95 825.36L2997.8 835.04C2993.18 831.85 2988.89 831.08 2986.03 831.08C2981.52 831.08 2980.64 833.06 2980.64 834.38C2980.64 841.75 3006.82 838.23 3006.82 856.82C3006.82 866.39 2999.89 873.43 2986.69 873.43C2977.01 873.43 2970.74 869.69 2966.01 866.06ZM3046.07 860.12V872.11C3046.07 872.11 3042.11 873.43 3035.62 873.43C3025.39 873.43 3020.11 866.72 3020.11 856.49V832.73H3011.86V819.75H3020.11V802.04H3033.64V819.75H3047.5V832.73H3033.64V853.63C3033.64 857.26 3034.63 860.67 3039.47 860.67C3042.88 860.67 3046.07 860.12 3046.07 860.12ZM3074.84 872H3061.31V819.75H3074.84V872ZM3068.13 811.06C3063.29 811.06 3059.55 807.32 3059.55 802.48C3059.55 797.64 3063.29 794.01 3068.13 794.01C3072.97 794.01 3076.6 797.64 3076.6 802.48C3076.6 807.32 3072.97 811.06 3068.13 811.06ZM3142.65 846.04C3142.65 861.11 3130.33 873.43 3114.82 873.43C3099.42 873.43 3087.1 861.11 3087.1 846.04C3087.1 830.86 3099.42 818.76 3114.82 818.76C3130.33 818.76 3142.65 830.86 3142.65 846.04ZM3129.34 846.04C3129.34 838.34 3122.85 831.74 3114.82 831.74C3106.9 831.74 3100.41 838.34 3100.41 846.04C3100.41 853.85 3106.9 860.45 3114.82 860.45C3122.85 860.45 3129.34 853.85 3129.34 846.04ZM3203.39 872H3189.86V844.06C3189.86 833.94 3184.47 831.74 3179.08 831.74C3173.69 831.74 3168.3 833.83 3168.3 843.84V872H3154.77V819.75H3168.3V823.6C3171.27 821.4 3174.9 818.76 3182.05 818.76C3193.49 818.76 3203.39 825.47 3203.39 841.86V872ZM3213.51 866.06L3220.66 855.72C3225.5 859.9 3231.33 861.11 3235.07 861.11C3239.91 861.11 3241.45 859.13 3241.45 857.26C3241.45 849.45 3214.94 854.29 3214.94 835.48C3214.94 825.91 3221.76 818.76 3233.42 818.76C3238.04 818.76 3246.51 819.86 3252.45 825.36L3245.3 835.04C3240.68 831.85 3236.39 831.08 3233.53 831.08C3229.02 831.08 3228.14 833.06 3228.14 834.38C3228.14 841.75 3254.32 838.23 3254.32 856.82C3254.32 866.39 3247.39 873.43 3234.19 873.43C3224.51 873.43 3218.24 869.69 3213.51 866.06Z" fill="#242424"/>
<path d="M1222.55 1092.13C1029.86 921.72 1277.89 538.775 1450.77 343.299C1623.64 147.822 1784.33 163.717 1977.01 334.124C2169.7 504.531 2270.96 1098.77 2098.09 1294.24C1925.21 1489.72 1415.23 1262.53 1222.55 1092.13Z" fill="#00A7B5"/>
<path d="M1802.1 651.808C1799.55 650.855 1797.63 648.787 1796.32 645.562C1795 642.316 1794.17 638.564 1793.83 634.291C1793.47 629.977 1793.53 625.334 1794 620.342C1794.48 615.299 1795.23 610.672 1796.24 606.47C1797.95 599.396 1800.25 593.962 1803.15 590.217C1806.07 586.427 1810.7 583.565 1817.07 581.628C1818.29 581.362 1820.63 580.647 1824.11 579.496C1827.61 578.336 1831.71 576.987 1836.43 575.425C1841.2 573.86 1846.39 572.157 1852.02 570.321C1857.69 568.468 1863.18 566.61 1868.47 564.742C1873.8 562.87 1878.73 561.169 1883.25 559.626C1887.8 558.079 1891.3 556.869 1893.74 555.989C1898.51 554.189 1904.28 551.758 1911.09 548.736C1917.97 545.672 1924.85 541.975 1931.76 537.629C1938.74 533.225 1945.26 528.125 1951.28 522.286C1957.4 516.367 1961.93 509.616 1964.86 501.984C1966.35 498.124 1967.31 494.211 1967.74 490.239C1968.18 486.238 1968.17 482.454 1967.73 478.909C1967.29 475.328 1966.4 472.236 1965.07 469.631C1963.72 467.006 1962.07 465.319 1960.11 464.563C1949.72 460.523 1938.69 457.999 1927.01 457.026C1915.39 456.062 1903.5 456.353 1891.41 457.928C1879.42 459.494 1867.42 462.092 1855.42 465.729C1843.57 469.338 1831.97 473.643 1820.63 478.65L1820.7 478.338C1819.75 479.085 1818.19 479.971 1816.06 481.023C1813.94 482.081 1811.62 482.986 1809.1 483.767C1806.58 484.547 1804.09 485.148 1801.58 485.593C1799.1 486.044 1797 485.933 1795.29 485.276C1793.71 484.671 1791.91 483.502 1789.88 481.749C1787.85 479.997 1785.97 477.81 1784.25 475.191C1782.53 472.571 1781.19 469.54 1780.24 466.098C1779.27 462.614 1779.16 458.911 1779.93 454.937C1780.69 450.928 1782.73 447.168 1786.04 443.614C1789.38 440.042 1793.45 436.654 1798.3 433.453C1803.18 430.233 1808.54 427.214 1814.38 424.407C1820.27 421.581 1826.09 419.103 1831.81 416.997C1837.58 414.872 1842.95 413.089 1847.94 411.631C1852.96 410.164 1856.91 409.099 1859.81 408.433C1880.46 404.882 1900.45 402.911 1919.67 402.61C1939.08 402.284 1957.79 405.65 1975.62 412.672C1983.02 415.586 1989.48 421.18 1994.96 429.402C2000.39 437.536 2004.38 446.994 2006.95 457.731C2009.47 468.281 2010.36 479.482 2009.64 491.24C2008.92 502.763 2006.29 513.768 2001.75 524.246C1998.16 532.592 1993.27 540.101 1987.1 546.82C1981.04 553.424 1974.31 559.376 1966.9 564.686C1959.6 569.92 1951.93 574.598 1943.88 578.735C1935.93 582.826 1928.07 586.511 1920.28 589.813C1912.57 593.079 1905.22 595.943 1898.23 598.419C1891.31 600.868 1885.17 603.083 1879.81 605.064C1874.69 606.911 1869.32 608.68 1863.71 610.391C1858.15 612.085 1852.97 613.723 1848.15 615.301C1843.37 616.875 1839.1 618.531 1835.37 620.281C1831.66 622.022 1829.1 623.894 1827.69 625.877C1826.21 628.649 1825.04 631.236 1824.15 633.613C1823.27 635.975 1822.49 638.172 1821.79 640.177C1821.13 642.028 1820.55 643.98 1820.05 646.016C1819.54 648.046 1818.65 649.776 1817.39 651.184C1816.12 652.592 1814.3 653.445 1811.96 653.733C1809.63 654.041 1806.34 653.391 1802.1 651.808ZM1800.93 715.715C1799.76 719.838 1797.85 723.43 1795.21 726.527C1792.59 729.585 1789.6 731.966 1786.22 733.67C1782.87 735.364 1779.28 736.384 1775.42 736.722C1771.58 737.067 1767.82 736.572 1764.11 735.212C1761.27 734.179 1758.73 732.65 1756.48 730.64C1754.21 728.624 1752.36 726.279 1750.94 723.604C1749.49 720.924 1748.55 718.014 1748.08 714.884C1747.62 711.739 1747.72 708.572 1748.4 705.402C1749.3 701.225 1751.05 697.484 1753.67 694.175C1756.31 690.837 1759.41 688.156 1763 686.127C1766.59 684.084 1770.47 682.803 1774.64 682.281C1778.82 681.763 1782.84 682.206 1786.68 683.633C1789.7 684.756 1792.32 686.435 1794.55 688.675C1796.76 690.909 1798.51 693.469 1799.82 696.339C1801.13 699.202 1801.87 702.322 1802.06 705.704C1802.23 709.075 1801.86 712.402 1800.93 715.715Z" fill="black"/>
<path d="M1518.63 1132.26L1481.63 1153.95L1422.94 1069.75L1401.34 983.922L1408.15 968.963L1559.45 901.349L1587.52 1002.13L1550.52 1095.54L1518.63 1132.26Z" fill="url(#paint0_linear_2035_913)"/>
<path d="M1632.26 1105.74L1636 1155.22L1616.95 1148.32L1584.97 1115.67L1573.49 1060.82L1586.33 994.128L1593.13 979.169L1651.31 1008.51L1658.96 1060.82L1632.26 1105.74Z" fill="url(#paint1_linear_2035_913)"/>
<path d="M1975.35 1305.76L1944.73 1383.58L1931.97 1421.85V1466.51L1859.25 1401.44L1813.33 1305.76L1818.43 1233.04V1128.43L1896.25 1113.12L2011.07 1068.47L2105.47 1081.23L2050.62 1128.43L2011.07 1201.15L1944.73 1233.04L1975.35 1305.76Z" fill="url(#paint2_linear_2035_913)"/>
<path d="M1762.29 1287.9L1776.33 1342.76L1704.88 1335.1L1635.99 1295.55L1584.96 1227.94L1590.07 1164.15L1615.58 1147.57L1735.5 1182.01L1740.61 1258.56L1762.29 1287.9Z" fill="url(#paint3_linear_2035_913)"/>
<path d="M1579.86 887.315L1643.65 810.77L1717.64 795.461L1773.77 857.973L1804.39 923.036L1799.29 986.824L1773.77 1003.41L1727.85 934.518L1648.75 892.418L1579.86 887.315Z" fill="url(#paint4_linear_2035_913)"/>
<path d="M1570.93 900.073H1657.68L1744.43 949.827L1801.84 1087.61L1806.95 1143.74L1665.34 1215.18L1570.93 1220.29L1485.46 1161.6L1570.93 1072.3L1592.62 1132.26L1634.72 1155.22L1642.37 1087.61L1665.34 1039.13L1634.72 994.478L1587.52 986.824L1570.93 900.073Z" fill="url(#paint5_linear_2035_913)"/>
<circle cx="1507.14" cy="988.099" r="24.2393" fill="white"/>
<path d="M2125.03 1082.63C2028.54 1027.89 1957.1 1066.85 1905.14 1096.54C1894.94 1102.11 1885.66 1107.68 1876.38 1111.39C1858.75 1119.74 1843.91 1121.59 1831.85 1117.88C1820.71 1113.24 1816.08 1104.89 1816.08 1103.97C1816.08 1103.97 1814.22 1100.25 1812.36 1092.83C1804.94 1063.14 1795.66 1035.31 1788.24 1014.9C1818.86 983.351 1824.43 920.261 1781.75 864.593C1774.32 854.387 1768.76 844.181 1765.05 833.975C1754.84 802.43 1724.22 783.874 1692.68 788.513C1609.18 802.43 1574.85 868.304 1566.5 887.788C1564.64 887.788 1561.86 888.716 1560 888.716C1560 888.716 1560 888.716 1559.07 888.716C1491.34 902.633 1433.82 941.6 1406.91 962.94C1390.21 975.929 1384.65 997.269 1391.14 1016.75C1409.7 1071.49 1462.58 1193.04 1565.57 1225.51C1577.63 1245.92 1646.29 1351.69 1775.25 1351.69C1776.18 1351.69 1777.11 1351.69 1778.04 1351.69C1782.67 1351.69 1786.39 1347.98 1787.31 1343.34C1787.31 1341.48 1791.95 1309.01 1765.97 1281.18C1753.91 1269.12 1749.27 1252.41 1752.98 1236.64C1755.77 1221.8 1753.91 1206.95 1746.49 1193.96C1766.9 1181.9 1784.53 1169.84 1797.52 1160.56C1802.16 1172.62 1808.65 1194.89 1805.87 1225.51V1226.44C1801.23 1277.47 1791.02 1398.08 1932.05 1473.23C1932.98 1474.16 1934.83 1474.16 1936.69 1474.16C1939.47 1474.16 1941.33 1473.23 1943.18 1471.38C1945.97 1468.59 1946.9 1463.95 1944.11 1460.24C1943.18 1458.39 1919.99 1417.56 1952.46 1385.09C1968.24 1365.61 1983.08 1326.64 1976.59 1287.67C1973.8 1267.26 1965.45 1250.56 1952.46 1235.71C2014.63 1232 2033.18 1186.54 2046.17 1155.92C2049.88 1146.64 2053.59 1138.29 2057.3 1132.73C2074.93 1105.82 2121.32 1099.33 2121.32 1099.33C2125.03 1098.4 2128.75 1095.62 2129.67 1091.9C2130.6 1088.19 2128.75 1084.48 2125.03 1082.63ZM1914.42 1112.32C1958.96 1088.19 2011.84 1058.5 2082.36 1083.55C2062.87 1084.48 2035.04 1088.19 2005.35 1100.25C1969.16 1115.1 1925.56 1120.67 1894.94 1122.52C1902.36 1118.81 1907.93 1115.1 1914.42 1112.32ZM2029.47 1149.43C2027.61 1154.07 2025.76 1157.78 2023.9 1162.42C1971.02 1170.77 1911.64 1155.92 1870.82 1142.01C1893.08 1146.64 1925.56 1152.21 1958.03 1152.21C1984.94 1152.21 2011.84 1148.5 2034.11 1137.37C2032.25 1141.08 2031.33 1144.79 2029.47 1149.43ZM1917.21 1419.42C1908.86 1396.22 1894.01 1367.46 1858.75 1332.21C1833.7 1307.16 1825.35 1264.48 1822.57 1239.43C1831.85 1266.33 1847.62 1298.8 1876.38 1319.22C1910.71 1344.27 1919.06 1378.6 1920.92 1399.01C1919.06 1406.43 1917.21 1412.92 1917.21 1419.42ZM1780.82 994.485C1779.89 991.702 1778.04 987.991 1777.11 985.207C1766.9 963.868 1752.06 944.384 1734.43 928.611C1753.91 934.178 1778.04 943.456 1793.81 959.229C1792.88 971.29 1788.24 984.279 1780.82 994.485ZM1793.81 946.239C1769.69 926.755 1734.43 917.477 1715.87 913.766C1708.45 908.199 1700.1 904.488 1691.75 899.849C1717.73 898.921 1754.84 899.849 1788.24 912.838C1791.02 924.9 1793.81 936.034 1793.81 946.239ZM1783.6 902.633C1740 887.788 1692.68 890.571 1671.34 893.355C1662.99 890.571 1655.57 888.716 1648.14 887.788C1675.98 876.654 1724.22 861.809 1765.97 872.015C1766.9 872.943 1767.83 873.871 1768.76 875.726C1773.4 883.149 1778.96 892.427 1783.6 902.633ZM1748.35 839.542C1751.13 846.964 1753.91 853.459 1757.62 859.954C1706.59 851.603 1650.93 873.871 1628.66 884.076C1622.16 883.149 1615.67 883.149 1610.1 883.149C1629.59 864.593 1674.12 834.903 1748.35 839.542ZM1696.39 806.141C1715.87 802.43 1735.36 812.636 1744.63 830.264C1658.35 825.625 1611.96 866.448 1597.11 884.076C1594.33 884.076 1591.55 884.076 1589.69 885.004C1601.75 860.881 1633.3 816.347 1696.39 806.141ZM1418.98 976.857C1444.03 957.373 1495.06 922.116 1556.29 908.199C1569.28 933.25 1575.77 960.156 1575.77 987.991V988.918C1575.77 1006.55 1572.99 1025.1 1567.42 1041.8C1553.51 1086.34 1522.89 1122.52 1481.14 1143.86C1443.1 1098.4 1419.9 1042.73 1408.77 1010.26C1405.06 998.196 1408.77 984.279 1418.98 976.857ZM1626.8 999.124C1637.94 1003.76 1646.29 1013.04 1650 1025.1C1650.93 1028.81 1651.85 1032.53 1651.85 1036.24C1633.3 1007.47 1608.25 998.196 1594.33 995.413C1601.75 994.485 1613.81 994.485 1626.8 999.124ZM1625.88 1142.93C1608.25 1135.51 1578.56 1114.17 1583.2 1052.94C1590.62 1079.84 1604.54 1119.74 1624.95 1140.15C1625.88 1141.08 1625.88 1142.01 1625.88 1142.93ZM1588.76 1034.38C1598.97 1056.65 1613.81 1086.34 1627.73 1100.25C1625.88 1107.68 1624.95 1116.03 1624.95 1125.31C1605.46 1099.33 1593.4 1054.79 1588.76 1034.38ZM1630.51 1090.05C1616.6 1074.28 1600.82 1039.95 1591.55 1017.68V1016.75C1605.46 1027.89 1628.66 1049.23 1637.94 1072.42C1636.08 1077.99 1633.3 1083.55 1630.51 1090.05ZM1644.43 1063.14C1632.37 1037.16 1605.46 1015.82 1593.4 1005.62C1593.4 1005.62 1593.4 1005.62 1593.4 1004.69C1607.32 1007.47 1633.3 1017.68 1649.07 1051.08C1648.14 1055.72 1646.29 1059.43 1644.43 1063.14ZM1494.13 1157.78C1523.82 1141.08 1547.94 1117.88 1565.57 1089.12C1576.7 1156.85 1634.23 1164.27 1635.15 1164.27H1636.08C1638.86 1164.27 1640.72 1163.35 1642.58 1161.49C1644.43 1159.63 1645.36 1156.85 1645.36 1153.14C1639.79 1121.59 1644.43 1094.69 1657.42 1076.13C1668.55 1059.43 1672.27 1039.02 1667.63 1019.54C1664.84 1009.33 1659.28 1000.05 1650.93 992.63C1655.57 990.774 1658.35 987.063 1661.13 983.352C1663.92 978.712 1663.92 972.218 1662.06 967.579C1662.06 966.651 1661.13 965.723 1661.13 965.723C1667.63 964.795 1673.19 961.084 1675.98 954.59C1678.76 949.951 1678.76 943.456 1676.9 938.817C1675.05 933.25 1671.34 929.539 1666.7 926.755C1664.84 925.828 1662.06 926.755 1660.2 928.611C1659.28 930.467 1660.2 933.25 1662.06 935.106C1664.84 936.961 1666.7 938.817 1667.63 941.6C1668.55 944.384 1668.55 948.095 1666.7 950.878C1663.92 956.445 1656.49 959.229 1650.93 955.517C1649.07 954.59 1646.29 955.517 1644.43 957.373C1643.5 959.229 1644.43 962.012 1646.29 963.868C1649.07 965.723 1650.93 967.579 1651.85 970.362C1652.78 973.146 1652.78 976.857 1650.93 979.64C1649.07 982.424 1647.22 984.279 1644.43 985.207C1642.58 985.207 1641.65 986.135 1639.79 986.135C1637.01 984.279 1634.23 983.351 1631.44 982.424C1618.45 975.929 1603.61 975.929 1594.33 976.857C1593.4 951.806 1586.91 926.755 1575.77 903.56C1604.54 898.921 1636.08 899.849 1666.7 910.055C1713.09 924.9 1749.27 959.229 1765.97 1005.62C1776.18 1030.67 1794.74 1083.55 1802.16 1132.73C1781.75 1149.43 1681.54 1224.58 1610.1 1214.37C1561.86 1211.59 1523.82 1188.4 1494.13 1157.78ZM1746.49 1286.74C1704.74 1296.02 1658.35 1276.54 1624.95 1255.2C1643.5 1261.69 1664.84 1267.26 1688.97 1267.26C1703.81 1267.26 1719.58 1265.4 1734.43 1259.84C1736.28 1270.04 1740 1278.39 1746.49 1286.74ZM1734.43 1232.93C1733.5 1238.5 1732.57 1244.99 1733.5 1250.56C1687.11 1266.33 1641.65 1253.34 1611.03 1239.43C1642.58 1245.92 1689.89 1247.78 1735.36 1224.58C1735.36 1227.36 1734.43 1230.15 1734.43 1232.93ZM1769.69 1332.21C1702.88 1330.35 1652.78 1296.02 1621.24 1264.48C1649.07 1282.1 1686.18 1298.8 1723.3 1298.8C1733.5 1298.8 1742.78 1297.88 1752.98 1295.09C1765.97 1308.08 1768.76 1322.93 1769.69 1332.21ZM1734.43 1214.37C1701.96 1232 1667.63 1235.71 1639.79 1232.93C1670.41 1229.22 1701.96 1217.16 1729.79 1202.31C1731.65 1206.95 1733.5 1210.66 1734.43 1214.37ZM1821.64 1283.03C1827.21 1302.52 1836.49 1322.93 1851.33 1338.7C1894.94 1383.23 1906.07 1416.64 1912.57 1440.76C1842.98 1393.44 1824.43 1332.21 1821.64 1283.03ZM1928.34 1385.09C1923.7 1362.82 1912.57 1334.06 1881.95 1311.79C1851.33 1289.53 1835.56 1251.49 1828.14 1223.65C1841.13 1244.99 1858.75 1268.19 1886.59 1284.89C1923.7 1309.01 1939.47 1347.98 1944.11 1364.68C1942.26 1367.46 1940.4 1370.25 1938.55 1372.1C1934.83 1376.74 1931.12 1380.45 1928.34 1385.09ZM1826.28 1201.39C1841.13 1222.72 1865.25 1248.7 1902.36 1263.55C1941.33 1279.32 1954.32 1301.59 1958.96 1317.36C1958.03 1330.35 1954.32 1343.34 1949.68 1353.55C1942.26 1333.13 1925.56 1299.73 1891.23 1277.47C1857.83 1256.13 1838.34 1225.51 1826.28 1201.39ZM1958.03 1290.45C1958.03 1292.31 1958.03 1293.24 1958.96 1295.09C1949.68 1281.18 1933.91 1265.4 1906.07 1254.27C1855.97 1234.79 1829.99 1191.18 1820.71 1170.77C1836.49 1189.32 1866.18 1212.52 1922.77 1233.86C1946.9 1250.56 1955.25 1273.75 1958.03 1290.45ZM1928.34 1217.16C1830.92 1180.97 1820.71 1137.37 1820.71 1136.44C1820.71 1135.51 1820.71 1134.58 1820.71 1133.66C1838.34 1153.14 1889.37 1196.75 1992.36 1205.1C1977.51 1214.37 1957.1 1219.94 1928.34 1217.16ZM2001.64 1195.82C1919.99 1191.18 1868.96 1162.42 1842.98 1142.01C1874.53 1154.07 1932.98 1173.55 1990.5 1173.55C1999.78 1173.55 2009.06 1172.62 2018.34 1171.7C2014.63 1180.97 2009.06 1189.32 2001.64 1195.82ZM2043.39 1121.59C1997.93 1154.07 1916.28 1142.01 1872.67 1132.73H1873.6C1901.43 1132.73 1960.81 1129.02 2009.06 1108.61C2035.04 1097.47 2061.02 1093.76 2079.57 1092.83C2066.58 1098.4 2052.67 1107.68 2043.39 1121.59Z" fill="black"/>
<path d="M1671.34 1117.88C1674.13 1119.74 1677.84 1120.67 1680.62 1120.67C1682.48 1120.67 1685.26 1120.67 1687.12 1119.74C1692.68 1117.88 1696.39 1114.17 1699.18 1109.53C1701.96 1104.89 1701.96 1098.4 1700.11 1093.76C1700.11 1092.83 1699.18 1091.91 1699.18 1090.98C1700.11 1090.98 1701.03 1090.98 1701.96 1090.98C1707.53 1089.12 1711.24 1085.41 1714.02 1080.77C1716.81 1076.13 1716.81 1069.64 1714.95 1065C1714.95 1064.07 1714.02 1063.14 1714.02 1062.22C1714.95 1062.22 1715.88 1062.22 1716.81 1062.22C1722.37 1060.36 1726.08 1056.65 1728.87 1052.01C1731.65 1047.37 1731.65 1040.88 1729.8 1036.24C1727.94 1031.6 1724.23 1026.96 1719.59 1024.18C1717.73 1023.25 1714.95 1024.18 1713.1 1026.03C1712.17 1027.89 1713.1 1030.67 1714.95 1032.53C1717.73 1034.38 1719.59 1036.24 1720.52 1039.02C1721.45 1041.8 1721.45 1045.52 1719.59 1048.3C1717.73 1051.08 1715.88 1052.94 1713.1 1053.87C1710.31 1054.79 1706.6 1054.79 1703.82 1052.94C1701.96 1052.01 1699.18 1052.94 1697.32 1054.79C1696.39 1056.65 1697.32 1059.43 1699.18 1061.29C1701.96 1063.14 1703.82 1065 1704.75 1067.78C1705.67 1070.57 1705.67 1074.28 1703.82 1077.06C1701.96 1079.84 1700.11 1081.7 1697.32 1082.63C1694.54 1083.56 1690.83 1083.56 1688.04 1081.7C1686.19 1080.77 1683.41 1081.7 1681.55 1083.56C1680.62 1085.41 1681.55 1088.19 1683.41 1090.05C1686.19 1091.91 1688.04 1093.76 1688.97 1096.54C1689.9 1099.33 1689.9 1103.04 1688.04 1105.82C1686.19 1108.61 1684.33 1110.46 1681.55 1111.39C1678.77 1112.32 1675.06 1112.32 1672.27 1110.46C1670.42 1109.53 1667.63 1110.46 1665.78 1112.32C1668.56 1114.17 1669.49 1116.96 1671.34 1117.88Z" fill="black"/>
<path d="M1735.36 1057.58C1738.15 1059.43 1740 1061.29 1740.93 1064.07C1741.86 1066.86 1741.86 1070.57 1740 1073.35C1737.22 1078.92 1729.8 1081.7 1724.23 1077.99C1722.37 1077.06 1719.59 1077.99 1717.73 1079.84C1716.81 1081.7 1717.73 1084.48 1719.59 1086.34C1722.37 1088.2 1724.23 1090.05 1725.16 1092.83C1726.08 1095.62 1726.08 1099.33 1724.23 1102.11C1722.37 1104.9 1720.52 1106.75 1717.73 1107.68C1714.95 1108.61 1711.24 1108.61 1708.46 1106.75C1706.6 1105.82 1703.82 1106.75 1701.96 1108.61C1701.03 1110.46 1701.96 1113.25 1703.82 1115.1C1706.6 1116.96 1710.31 1117.88 1713.1 1117.88C1714.95 1117.88 1717.73 1117.88 1719.59 1116.96C1725.16 1115.1 1728.87 1111.39 1731.65 1106.75C1734.43 1102.11 1734.43 1095.62 1732.58 1090.98C1732.58 1090.05 1731.65 1089.12 1731.65 1089.12C1738.15 1088.2 1743.71 1084.48 1746.5 1077.99C1749.28 1073.35 1749.28 1066.86 1747.42 1062.22C1745.57 1056.65 1741.86 1052.94 1737.22 1050.16C1735.36 1049.23 1732.58 1050.16 1730.72 1052.01C1731.65 1053.87 1732.58 1056.65 1735.36 1057.58Z" fill="black"/>
<path d="M1504.59 994.478C1510.93 994.478 1516.07 989.337 1516.07 982.996C1516.07 976.655 1510.93 971.514 1504.59 971.514C1498.25 971.514 1493.11 976.655 1493.11 982.996C1493.11 989.337 1498.25 994.478 1504.59 994.478Z" fill="black"/>
<path d="M1507.11 949.37C1528.68 949.37 1546.66 967.355 1546.66 988.918C1546.66 1010.48 1528.68 1028.47 1507.11 1028.47C1485.55 1028.47 1467.57 1010.48 1467.57 988.918C1467.57 967.355 1485.55 949.37 1507.11 949.37ZM1507.11 964.447C1494.35 964.447 1483.57 975.224 1483.57 987.99C1483.57 1000.76 1494.35 1011.53 1507.11 1011.53C1519.88 1011.53 1530.66 1000.76 1530.66 987.99C1530.66 975.224 1519.88 964.447 1507.11 964.447Z" fill="black" stroke="black" stroke-width="2.5515"/>
<circle cx="1451.01" cy="1054.44" r="14.0333" fill="black"/>
<path d="M1519.88 696.272C1517.16 696.319 1514.62 695.099 1512.22 692.579C1509.8 690.043 1507.65 686.858 1505.77 683.006C1503.85 679.123 1502.21 674.781 1500.82 669.963C1499.41 665.097 1498.41 660.517 1497.81 656.238C1496.82 649.026 1496.96 643.131 1498.29 638.582C1499.62 633.986 1502.87 629.628 1508.09 625.491C1509.13 624.794 1511.05 623.272 1513.86 620.927C1516.69 618.565 1520.01 615.807 1523.84 612.622C1527.69 609.42 1531.9 605.934 1536.47 602.162C1541.07 598.358 1545.5 594.617 1549.73 590.941C1554 587.248 1557.97 583.856 1561.61 580.766C1565.27 577.659 1568.09 575.25 1570.03 573.539C1573.81 570.115 1578.29 565.741 1583.52 560.432C1588.8 555.059 1593.84 549.1 1598.68 542.522C1603.57 535.866 1607.76 528.734 1611.22 521.095C1614.75 513.345 1616.48 505.405 1616.42 497.227C1616.39 493.09 1615.85 489.096 1614.79 485.245C1613.73 481.362 1612.34 477.843 1610.63 474.705C1608.91 471.536 1606.95 468.984 1604.75 467.05C1602.54 465.101 1600.39 464.134 1598.29 464.15C1587.14 464.198 1575.95 465.893 1564.72 469.269C1553.56 472.629 1542.6 477.257 1531.93 483.153C1521.35 489.001 1511.14 495.816 1501.31 503.598C1491.6 511.3 1482.38 519.558 1473.67 528.369L1473.62 528.052C1473.01 529.099 1471.88 530.493 1470.29 532.252C1468.71 534.012 1466.87 535.707 1464.82 537.356C1462.76 539.004 1460.66 540.478 1458.49 541.809C1456.34 543.141 1454.35 543.806 1452.52 543.822C1450.82 543.838 1448.72 543.41 1446.19 542.522C1443.66 541.635 1441.12 540.288 1438.56 538.481C1435.99 536.674 1433.64 534.344 1431.49 531.492C1429.31 528.607 1427.85 525.2 1427.11 521.222C1426.35 517.212 1426.87 512.964 1428.64 508.448C1430.45 503.899 1432.99 499.255 1436.33 494.501C1439.69 489.714 1443.57 484.944 1447.98 480.189C1452.42 475.403 1456.93 470.965 1461.48 466.908C1466.07 462.819 1470.41 459.189 1474.52 456.004C1478.65 452.802 1481.94 450.362 1484.39 448.682C1502.3 437.809 1520.18 428.649 1537.95 421.327C1555.9 413.909 1574.54 410.185 1593.7 410.185C1601.65 410.185 1609.72 413.022 1617.83 418.664C1625.86 424.243 1633.04 431.581 1639.36 440.63C1645.57 449.522 1650.51 459.617 1654.14 470.822C1657.7 481.806 1659.28 493.011 1658.9 504.422C1658.62 513.503 1656.82 522.284 1653.54 530.794C1650.32 539.162 1646.24 547.166 1641.29 554.821C1636.42 562.365 1631 569.529 1625.02 576.328C1619.12 583.048 1613.16 589.356 1607.12 595.283C1601.15 601.147 1595.36 606.504 1589.76 611.37C1584.22 616.188 1579.31 620.499 1575.06 624.302C1570.97 627.9 1566.62 631.514 1562.03 635.159C1557.48 638.772 1553.26 642.196 1549.35 645.429C1545.48 648.646 1542.11 651.752 1539.28 654.748C1536.47 657.727 1534.78 660.406 1534.19 662.767C1533.83 665.89 1533.69 668.727 1533.73 671.262C1533.78 673.782 1533.86 676.112 1533.94 678.236C1534 680.201 1534.18 682.23 1534.46 684.306C1534.73 686.382 1534.54 688.316 1533.88 690.091C1533.21 691.866 1531.84 693.324 1529.77 694.449C1527.71 695.59 1524.41 696.193 1519.88 696.272ZM1542.21 756.164C1542.63 760.428 1542.18 764.469 1540.85 768.32C1539.54 772.124 1537.62 775.437 1535.11 778.258C1532.61 781.063 1529.64 783.329 1526.18 785.057C1522.73 786.784 1519.05 787.704 1515.09 787.799C1512.07 787.878 1509.15 787.387 1506.32 786.341C1503.47 785.295 1500.9 783.789 1498.59 781.824C1496.26 779.858 1494.32 777.497 1492.74 774.755C1491.16 771.997 1490.08 769.018 1489.56 765.816C1488.86 761.601 1489.12 757.48 1490.35 753.438C1491.58 749.365 1493.48 745.736 1496.07 742.534C1498.67 739.317 1501.81 736.702 1505.5 734.689C1509.2 732.676 1513.1 731.615 1517.2 731.535C1520.42 731.472 1523.47 732.074 1526.37 733.342C1529.24 734.61 1531.8 736.353 1534.08 738.541C1536.34 740.728 1538.18 743.359 1539.6 746.433C1540.99 749.508 1541.86 752.741 1542.21 756.164Z" fill="black"/>
<path d="M1830 845L1911.93 873.061L1895.27 788.077L1830 845ZM2442 725L2440.56 717.64L1894.8 824.652L1896.24 832.012L1897.68 839.372L2443.44 732.36L2442 725Z" fill="#ED1818"/>
<defs>
<linearGradient id="paint0_linear_2035_913" x1="1392.33" y1="979.169" x2="1486" y2="914.137" gradientUnits="userSpaceOnUse">
<stop stop-color="#FBFF00"/>
<stop offset="1" stop-color="#FFCD00"/>
</linearGradient>
<linearGradient id="paint1_linear_2035_913" x1="1613.88" y1="1053.96" x2="1665.53" y2="1076.08" gradientUnits="userSpaceOnUse">
<stop stop-color="#FFCD00"/>
<stop offset="1" stop-color="#FBFF00"/>
</linearGradient>
<linearGradient id="paint2_linear_2035_913" x1="1933.25" y1="1230.49" x2="2007.24" y2="1337.65" gradientUnits="userSpaceOnUse">
<stop stop-color="#FFCD00"/>
<stop offset="1" stop-color="#FBFF00"/>
</linearGradient>
<linearGradient id="paint3_linear_2035_913" x1="1693.4" y1="1230.49" x2="1767.4" y2="1337.65" gradientUnits="userSpaceOnUse">
<stop stop-color="#FFCD00"/>
<stop offset="1" stop-color="#FBFF00"/>
</linearGradient>
<linearGradient id="paint4_linear_2035_913" x1="1671.71" y1="801.84" x2="1771.22" y2="1004.68" gradientUnits="userSpaceOnUse">
<stop stop-color="#FFCD00"/>
<stop offset="1" stop-color="#FBFF00"/>
</linearGradient>
<linearGradient id="paint5_linear_2035_913" x1="1646.2" y1="900.073" x2="1646.2" y2="1220.29" gradientUnits="userSpaceOnUse">
<stop stop-color="#FFCD00"/>
<stop offset="1" stop-color="#ED1818"/>
</linearGradient>
</defs>
</svg>
