<svg width="2676" height="1800" viewBox="0 0 2676 1800" fill="none" xmlns="http://www.w3.org/2000/svg">
<rect width="2676" height="1800" fill="white"/>
<path d="M1887.21 365H1872.8V283.6H1923.29V297.46H1887.21V315.61H1915.37V329.47H1887.21V365ZM1985.49 339.04C1985.49 354.11 1973.17 366.43 1957.66 366.43C1942.26 366.43 1929.94 354.11 1929.94 339.04C1929.94 323.86 1942.26 311.76 1957.66 311.76C1973.17 311.76 1985.49 323.86 1985.49 339.04ZM1972.18 339.04C1972.18 331.34 1965.69 324.74 1957.66 324.74C1949.74 324.74 1943.25 331.34 1943.25 339.04C1943.25 346.85 1949.74 353.45 1957.66 353.45C1965.69 353.45 1972.18 346.85 1972.18 339.04ZM2011.14 365H1997.61V312.75H2011.14V316.6C2016.2 312.86 2021.15 311.76 2031.27 311.76V324.74C2014 324.74 2011.14 329.58 2011.14 338.6V365ZM2080.14 363.9V361.59C2075.96 365 2071.01 366.43 2065.62 366.43C2050.22 366.43 2037.9 354.11 2037.9 339.04C2037.9 323.86 2050.22 311.76 2065.62 311.76C2070.9 311.76 2075.85 313.19 2080.14 316.6V312.75H2093.67V361.26C2093.67 389.2 2075.85 392.83 2065.62 392.83C2055.61 392.83 2046.92 387.66 2042.08 379.96L2054.51 374.57C2057.15 377.76 2061.22 379.85 2065.62 379.85C2073.65 379.85 2080.14 375.89 2080.14 363.9ZM2080.14 339.04C2080.14 331.34 2073.65 324.74 2065.62 324.74C2057.7 324.74 2051.21 331.34 2051.21 339.04C2051.21 346.85 2057.7 353.45 2065.62 353.45C2073.65 353.45 2080.14 346.85 2080.14 339.04ZM2161.34 339.04C2161.34 354.11 2149.02 366.43 2133.51 366.43C2118.11 366.43 2105.79 354.11 2105.79 339.04C2105.79 323.86 2118.11 311.76 2133.51 311.76C2149.02 311.76 2161.34 323.86 2161.34 339.04ZM2148.03 339.04C2148.03 331.34 2141.54 324.74 2133.51 324.74C2125.59 324.74 2119.1 331.34 2119.1 339.04C2119.1 346.85 2125.59 353.45 2133.51 353.45C2141.54 353.45 2148.03 346.85 2148.03 339.04ZM2200.55 353.12V365.11C2200.55 365.11 2196.59 366.43 2190.1 366.43C2179.87 366.43 2174.59 359.72 2174.59 349.49V325.73H2166.34V312.75H2174.59V295.04H2188.12V312.75H2201.98V325.73H2188.12V346.63C2188.12 350.26 2189.11 353.67 2193.95 353.67C2197.36 353.67 2200.55 353.12 2200.55 353.12ZM2273.49 353.12V365.11C2273.49 365.11 2269.53 366.43 2263.04 366.43C2252.81 366.43 2247.53 359.72 2247.53 349.49V325.73H2239.28V312.75H2247.53V295.04H2261.06V312.75H2274.92V325.73H2261.06V346.63C2261.06 350.26 2262.05 353.67 2266.89 353.67C2270.3 353.67 2273.49 353.12 2273.49 353.12ZM2339.77 339.04C2339.77 354.11 2327.45 366.43 2311.94 366.43C2296.54 366.43 2284.22 354.11 2284.22 339.04C2284.22 323.86 2296.54 311.76 2311.94 311.76C2327.45 311.76 2339.77 323.86 2339.77 339.04ZM2326.46 339.04C2326.46 331.34 2319.97 324.74 2311.94 324.74C2304.02 324.74 2297.53 331.34 2297.53 339.04C2297.53 346.85 2304.02 353.45 2311.94 353.45C2319.97 353.45 2326.46 346.85 2326.46 339.04ZM1943.64 482H1928.02L1921.31 464.62H1886.22L1879.62 482H1864L1896.56 400.6H1911.19L1943.64 482ZM1916.14 450.87L1903.82 418.53L1891.39 450.87H1916.14ZM2000.47 482H1986.94V454.06C1986.94 443.94 1981.55 441.74 1976.16 441.74C1970.77 441.74 1965.38 443.83 1965.38 453.84V482H1951.85V429.75H1965.38V433.6C1968.35 431.4 1971.98 428.76 1979.13 428.76C1990.57 428.76 2000.47 435.47 2000.47 451.86V482ZM2010.59 476.06L2017.74 465.72C2022.58 469.9 2028.41 471.11 2032.15 471.11C2036.99 471.11 2038.53 469.13 2038.53 467.26C2038.53 459.45 2012.02 464.29 2012.02 445.48C2012.02 435.91 2018.84 428.76 2030.5 428.76C2035.12 428.76 2043.59 429.86 2049.53 435.36L2042.38 445.04C2037.76 441.85 2033.47 441.08 2030.61 441.08C2026.1 441.08 2025.22 443.06 2025.22 444.38C2025.22 451.75 2051.4 448.23 2051.4 466.82C2051.4 476.39 2044.47 483.43 2031.27 483.43C2021.59 483.43 2015.32 479.69 2010.59 476.06ZM2126.68 482H2113.26L2101.49 448.67L2090.16 482H2076.08L2057.49 429.75H2072.67L2083.23 464.07L2095.55 429.75H2107.43L2119.53 464.07L2130.2 429.75H2145.49L2126.68 482ZM2203.5 460.33H2163.68C2165.22 466.71 2170.39 471.22 2178.2 471.22C2182.93 471.22 2187.99 469.46 2191.07 465.39L2200.31 472.76C2195.58 479.47 2187.22 483.43 2178.31 483.43C2162.58 483.43 2150.48 471.66 2150.48 456.37C2150.48 441.52 2160.93 428.76 2177.54 428.76C2192.94 428.76 2203.83 441.3 2203.83 456.04C2203.83 457.47 2203.72 459.01 2203.5 460.33ZM2164.12 450.43H2190.19C2189.42 445.15 2183.92 441.08 2177.43 441.08C2171.16 441.08 2166.1 444.82 2164.12 450.43ZM2229.42 482H2215.89V429.75H2229.42V433.6C2234.48 429.86 2239.43 428.76 2249.55 428.76V441.74C2232.28 441.74 2229.42 446.58 2229.42 455.6V482ZM2359.47 482H2343.85L2337.14 464.62H2302.05L2295.45 482H2279.83L2312.39 400.6H2327.02L2359.47 482ZM2331.97 450.87L2319.65 418.53L2307.22 450.87H2331.97ZM2389.02 470.56V482.55C2387.48 482.99 2385.39 483.43 2383.19 483.43C2373.18 483.43 2367.68 477.93 2367.68 468.03V400.6H2381.21V464.95C2381.21 468.47 2382.2 470.67 2386.93 470.67C2387.37 470.67 2388.25 470.67 2389.02 470.56ZM2420.17 470.56V482.55C2418.63 482.99 2416.54 483.43 2414.34 483.43C2404.33 483.43 2398.83 477.93 2398.83 468.03V400.6H2412.36V464.95C2412.36 468.47 2413.35 470.67 2418.08 470.67C2418.52 470.67 2419.4 470.67 2420.17 470.56ZM1907.34 599H1892.93V531.46H1866.75V517.6H1933.41V531.46H1907.34V599ZM1993.06 599H1979.53V571.06C1979.53 560.94 1974.14 558.74 1968.75 558.74C1963.36 558.74 1957.97 560.83 1957.97 570.84V599H1944.44V517.6H1957.97V550.6C1960.94 548.4 1964.57 545.76 1971.72 545.76C1983.16 545.76 1993.06 552.47 1993.06 568.86V599ZM2057.08 577.33H2017.26C2018.8 583.71 2023.97 588.22 2031.78 588.22C2036.51 588.22 2041.57 586.46 2044.65 582.39L2053.89 589.76C2049.16 596.47 2040.8 600.43 2031.89 600.43C2016.16 600.43 2004.06 588.66 2004.06 573.37C2004.06 558.52 2014.51 545.76 2031.12 545.76C2046.52 545.76 2057.41 558.3 2057.41 573.04C2057.41 574.47 2057.3 576.01 2057.08 577.33ZM2017.7 567.43H2043.77C2043 562.15 2037.5 558.08 2031.01 558.08C2024.74 558.08 2019.68 561.82 2017.7 567.43ZM2181.08 599H2135.76C2113.1 599 2094.18 581.62 2094.18 557.86C2094.18 534.65 2112.44 516.17 2136.64 516.17C2160.51 516.17 2179.21 534.1 2179.21 558.08C2179.21 568.42 2175.69 577.88 2166.12 585.14H2181.08V599ZM2164.8 557.97C2164.8 541.8 2152.48 529.37 2136.64 529.37C2120.69 529.37 2108.48 542.13 2108.48 558.08C2108.48 574.36 2121.13 585.8 2136.75 585.8C2152.37 585.8 2164.8 574.25 2164.8 557.97ZM2223.79 573.81V546.75H2237.32V577.44C2237.32 593.83 2227.53 600.43 2212.79 600.43C2198.05 600.43 2188.26 593.83 2188.26 577.44V546.75H2201.79V573.81C2201.79 582.61 2203.55 587.45 2212.79 587.45C2222.03 587.45 2223.79 582.61 2223.79 573.81ZM2301.36 577.33H2261.54C2263.08 583.71 2268.25 588.22 2276.06 588.22C2280.79 588.22 2285.85 586.46 2288.93 582.39L2298.17 589.76C2293.44 596.47 2285.08 600.43 2276.17 600.43C2260.44 600.43 2248.34 588.66 2248.34 573.37C2248.34 558.52 2258.79 545.76 2275.4 545.76C2290.8 545.76 2301.69 558.3 2301.69 573.04C2301.69 574.47 2301.58 576.01 2301.36 577.33ZM2261.98 567.43H2288.05C2287.28 562.15 2281.78 558.08 2275.29 558.08C2269.02 558.08 2263.96 561.82 2261.98 567.43ZM2309.01 593.06L2316.16 582.72C2321 586.9 2326.83 588.11 2330.57 588.11C2335.41 588.11 2336.95 586.13 2336.95 584.26C2336.95 576.45 2310.44 581.29 2310.44 562.48C2310.44 552.91 2317.26 545.76 2328.92 545.76C2333.54 545.76 2342.01 546.86 2347.95 552.36L2340.8 562.04C2336.18 558.85 2331.89 558.08 2329.03 558.08C2324.52 558.08 2323.64 560.06 2323.64 561.38C2323.64 568.75 2349.82 565.23 2349.82 583.82C2349.82 593.39 2342.89 600.43 2329.69 600.43C2320.01 600.43 2313.74 596.69 2309.01 593.06ZM2389.07 587.12V599.11C2389.07 599.11 2385.11 600.43 2378.62 600.43C2368.39 600.43 2363.11 593.72 2363.11 583.49V559.73H2354.86V546.75H2363.11V529.04H2376.64V546.75H2390.5V559.73H2376.64V580.63C2376.64 584.26 2377.63 587.67 2382.47 587.67C2385.88 587.67 2389.07 587.12 2389.07 587.12ZM2417.84 599H2404.31V546.75H2417.84V599ZM2411.13 538.06C2406.29 538.06 2402.55 534.32 2402.55 529.48C2402.55 524.64 2406.29 521.01 2411.13 521.01C2415.97 521.01 2419.6 524.64 2419.6 529.48C2419.6 534.32 2415.97 538.06 2411.13 538.06ZM2485.65 573.04C2485.65 588.11 2473.33 600.43 2457.82 600.43C2442.42 600.43 2430.1 588.11 2430.1 573.04C2430.1 557.86 2442.42 545.76 2457.82 545.76C2473.33 545.76 2485.65 557.86 2485.65 573.04ZM2472.34 573.04C2472.34 565.34 2465.85 558.74 2457.82 558.74C2449.9 558.74 2443.41 565.34 2443.41 573.04C2443.41 580.85 2449.9 587.45 2457.82 587.45C2465.85 587.45 2472.34 580.85 2472.34 573.04ZM2546.39 599H2532.86V571.06C2532.86 560.94 2527.47 558.74 2522.08 558.74C2516.69 558.74 2511.3 560.83 2511.3 570.84V599H2497.77V546.75H2511.3V550.6C2514.27 548.4 2517.9 545.76 2525.05 545.76C2536.49 545.76 2546.39 552.47 2546.39 568.86V599ZM2556.51 593.06L2563.66 582.72C2568.5 586.9 2574.33 588.11 2578.07 588.11C2582.91 588.11 2584.45 586.13 2584.45 584.26C2584.45 576.45 2557.94 581.29 2557.94 562.48C2557.94 552.91 2564.76 545.76 2576.42 545.76C2581.04 545.76 2589.51 546.86 2595.45 552.36L2588.3 562.04C2583.68 558.85 2579.39 558.08 2576.53 558.08C2572.02 558.08 2571.14 560.06 2571.14 561.38C2571.14 568.75 2597.32 565.23 2597.32 583.82C2597.32 593.39 2590.39 600.43 2577.19 600.43C2567.51 600.43 2561.24 596.69 2556.51 593.06Z" fill="#242424"/>
<path d="M799.545 1092.13C606.862 921.72 854.89 538.775 1027.77 343.299C1200.64 147.822 1361.33 163.717 1554.01 334.124C1746.7 504.531 1847.96 1098.77 1675.09 1294.24C1502.21 1489.72 992.229 1262.53 799.545 1092.13Z" fill="#00A7B5"/>
<path d="M1379.1 651.808C1376.55 650.855 1374.63 648.787 1373.32 645.562C1372 642.316 1371.17 638.564 1370.83 634.291C1370.47 629.977 1370.53 625.334 1371 620.342C1371.48 615.299 1372.23 610.672 1373.24 606.47C1374.95 599.396 1377.25 593.962 1380.15 590.217C1383.07 586.427 1387.7 583.565 1394.07 581.628C1395.29 581.362 1397.63 580.647 1401.11 579.496C1404.61 578.336 1408.71 576.987 1413.43 575.425C1418.2 573.86 1423.39 572.157 1429.02 570.321C1434.69 568.468 1440.18 566.61 1445.47 564.742C1450.8 562.87 1455.73 561.169 1460.25 559.626C1464.8 558.079 1468.3 556.869 1470.74 555.989C1475.51 554.189 1481.28 551.758 1488.09 548.736C1494.97 545.672 1501.85 541.975 1508.76 537.629C1515.74 533.225 1522.26 528.125 1528.28 522.286C1534.4 516.367 1538.93 509.616 1541.86 501.984C1543.35 498.124 1544.31 494.211 1544.74 490.239C1545.18 486.238 1545.17 482.454 1544.73 478.909C1544.29 475.328 1543.4 472.236 1542.07 469.631C1540.72 467.006 1539.07 465.319 1537.11 464.563C1526.72 460.523 1515.69 457.999 1504.01 457.026C1492.39 456.062 1480.5 456.353 1468.41 457.928C1456.42 459.494 1444.42 462.092 1432.42 465.729C1420.57 469.338 1408.97 473.643 1397.63 478.65L1397.7 478.338C1396.75 479.085 1395.19 479.971 1393.06 481.023C1390.94 482.081 1388.62 482.986 1386.1 483.767C1383.58 484.547 1381.09 485.148 1378.58 485.593C1376.1 486.044 1374 485.933 1372.29 485.276C1370.71 484.671 1368.91 483.502 1366.88 481.749C1364.85 479.997 1362.97 477.81 1361.25 475.191C1359.53 472.571 1358.19 469.54 1357.24 466.098C1356.27 462.614 1356.16 458.911 1356.93 454.937C1357.69 450.928 1359.73 447.168 1363.04 443.614C1366.38 440.042 1370.45 436.654 1375.3 433.453C1380.18 430.233 1385.54 427.214 1391.38 424.407C1397.27 421.581 1403.09 419.103 1408.81 416.997C1414.58 414.872 1419.95 413.089 1424.94 411.631C1429.96 410.164 1433.91 409.099 1436.81 408.433C1457.46 404.882 1477.45 402.911 1496.67 402.61C1516.08 402.284 1534.79 405.65 1552.62 412.672C1560.02 415.586 1566.48 421.18 1571.96 429.402C1577.39 437.536 1581.38 446.994 1583.95 457.731C1586.47 468.281 1587.36 479.482 1586.64 491.24C1585.92 502.763 1583.29 513.768 1578.75 524.246C1575.16 532.592 1570.27 540.101 1564.1 546.82C1558.04 553.424 1551.31 559.376 1543.9 564.686C1536.6 569.92 1528.93 574.598 1520.88 578.735C1512.93 582.826 1505.07 586.511 1497.28 589.813C1489.57 593.079 1482.22 595.943 1475.23 598.419C1468.31 600.868 1462.17 603.083 1456.81 605.064C1451.69 606.911 1446.32 608.68 1440.71 610.391C1435.15 612.085 1429.97 613.723 1425.15 615.301C1420.37 616.875 1416.1 618.531 1412.37 620.281C1408.66 622.022 1406.1 623.894 1404.69 625.877C1403.21 628.649 1402.04 631.236 1401.15 633.613C1400.27 635.975 1399.49 638.172 1398.79 640.177C1398.13 642.028 1397.55 643.98 1397.05 646.016C1396.54 648.046 1395.65 649.776 1394.39 651.184C1393.12 652.592 1391.3 653.445 1388.96 653.733C1386.63 654.041 1383.34 653.391 1379.1 651.808ZM1377.93 715.715C1376.76 719.838 1374.85 723.43 1372.21 726.527C1369.59 729.585 1366.6 731.966 1363.22 733.67C1359.87 735.364 1356.28 736.384 1352.42 736.722C1348.58 737.067 1344.82 736.572 1341.11 735.212C1338.27 734.179 1335.73 732.65 1333.48 730.64C1331.21 728.624 1329.36 726.279 1327.94 723.604C1326.49 720.924 1325.55 718.014 1325.08 714.884C1324.62 711.739 1324.72 708.572 1325.4 705.402C1326.3 701.225 1328.05 697.484 1330.67 694.175C1333.31 690.837 1336.41 688.156 1340 686.127C1343.59 684.084 1347.47 682.803 1351.64 682.281C1355.82 681.763 1359.84 682.206 1363.68 683.633C1366.7 684.756 1369.32 686.435 1371.55 688.675C1373.76 690.909 1375.51 693.469 1376.82 696.339C1378.13 699.202 1378.87 702.322 1379.06 705.704C1379.23 709.075 1378.86 712.402 1377.93 715.715Z" fill="black"/>
<path d="M1095.63 1132.26L1058.63 1153.95L999.944 1069.75L978.341 983.922L985.145 968.963L1136.45 901.349L1164.52 1002.13L1127.52 1095.54L1095.63 1132.26Z" fill="url(#paint0_linear_2035_1214)"/>
<path d="M1209.26 1105.74L1213 1155.22L1193.95 1148.32L1161.97 1115.67L1150.49 1060.82L1163.33 994.128L1170.13 979.169L1228.31 1008.51L1235.96 1060.82L1209.26 1105.74Z" fill="url(#paint1_linear_2035_1214)"/>
<path d="M1552.35 1305.76L1521.73 1383.58L1508.97 1421.85V1466.51L1436.25 1401.44L1390.33 1305.76L1395.43 1233.04V1128.43L1473.25 1113.12L1588.07 1068.47L1682.47 1081.23L1627.62 1128.43L1588.07 1201.15L1521.73 1233.04L1552.35 1305.76Z" fill="url(#paint2_linear_2035_1214)"/>
<path d="M1339.29 1287.9L1353.33 1342.76L1281.88 1335.1L1212.99 1295.55L1161.96 1227.94L1167.07 1164.15L1192.58 1147.57L1312.5 1182.01L1317.61 1258.56L1339.29 1287.9Z" fill="url(#paint3_linear_2035_1214)"/>
<path d="M1156.86 887.315L1220.65 810.77L1294.64 795.461L1350.77 857.973L1381.39 923.036L1376.29 986.824L1350.77 1003.41L1304.85 934.518L1225.75 892.418L1156.86 887.315Z" fill="url(#paint4_linear_2035_1214)"/>
<path d="M1147.93 900.073H1234.68L1321.43 949.827L1378.84 1087.61L1383.95 1143.74L1242.34 1215.18L1147.93 1220.29L1062.46 1161.6L1147.93 1072.3L1169.62 1132.26L1211.72 1155.22L1219.37 1087.61L1242.34 1039.13L1211.72 994.478L1164.52 986.824L1147.93 900.073Z" fill="url(#paint5_linear_2035_1214)"/>
<circle cx="1084.14" cy="988.099" r="24.2393" fill="white"/>
<path d="M1702.03 1082.63C1605.54 1027.89 1534.1 1066.85 1482.14 1096.54C1471.94 1102.11 1462.66 1107.68 1453.38 1111.39C1435.75 1119.74 1420.91 1121.59 1408.85 1117.88C1397.71 1113.24 1393.08 1104.89 1393.08 1103.97C1393.08 1103.97 1391.22 1100.25 1389.36 1092.83C1381.94 1063.14 1372.66 1035.31 1365.24 1014.9C1395.86 983.351 1401.43 920.261 1358.75 864.592C1351.32 854.387 1345.76 844.181 1342.05 833.975C1331.84 802.43 1301.22 783.874 1269.68 788.513C1186.18 802.43 1151.85 868.304 1143.5 887.788C1141.64 887.788 1138.86 888.715 1137 888.715C1137 888.715 1137 888.715 1136.07 888.715C1068.34 902.632 1010.82 941.6 983.914 962.94C967.213 975.929 961.647 997.268 968.141 1016.75C986.697 1071.49 1039.58 1193.04 1142.57 1225.51C1154.63 1245.92 1223.29 1351.69 1352.25 1351.69C1353.18 1351.69 1354.11 1351.69 1355.04 1351.69C1359.67 1351.69 1363.39 1347.98 1364.31 1343.34C1364.31 1341.48 1368.95 1309.01 1342.97 1281.18C1330.91 1269.11 1326.27 1252.41 1329.98 1236.64C1332.77 1221.8 1330.91 1206.95 1323.49 1193.96C1343.9 1181.9 1361.53 1169.84 1374.52 1160.56C1379.16 1172.62 1385.65 1194.89 1382.87 1225.51V1226.44C1378.23 1277.47 1368.02 1398.08 1509.05 1473.23C1509.98 1474.16 1511.83 1474.16 1513.69 1474.16C1516.47 1474.16 1518.33 1473.23 1520.18 1471.38C1522.97 1468.59 1523.9 1463.95 1521.11 1460.24C1520.18 1458.39 1496.99 1417.56 1529.46 1385.09C1545.24 1365.61 1560.08 1326.64 1553.59 1287.67C1550.8 1267.26 1542.45 1250.56 1529.46 1235.71C1591.63 1232 1610.18 1186.54 1623.17 1155.92C1626.88 1146.64 1630.59 1138.29 1634.3 1132.73C1651.93 1105.82 1698.32 1099.33 1698.32 1099.33C1702.03 1098.4 1705.75 1095.62 1706.67 1091.9C1707.6 1088.19 1705.75 1084.48 1702.03 1082.63ZM1491.42 1112.32C1535.96 1088.19 1588.84 1058.5 1659.36 1083.55C1639.87 1084.48 1612.04 1088.19 1582.35 1100.25C1546.16 1115.1 1502.56 1120.67 1471.94 1122.52C1479.36 1118.81 1484.93 1115.1 1491.42 1112.32ZM1606.47 1149.43C1604.61 1154.07 1602.76 1157.78 1600.9 1162.42C1548.02 1170.77 1488.64 1155.92 1447.82 1142.01C1470.08 1146.64 1502.56 1152.21 1535.03 1152.21C1561.94 1152.21 1588.84 1148.5 1611.11 1137.37C1609.25 1141.08 1608.33 1144.79 1606.47 1149.43ZM1494.21 1419.42C1485.86 1396.22 1471.01 1367.46 1435.75 1332.21C1410.7 1307.15 1402.35 1264.48 1399.57 1239.43C1408.85 1266.33 1424.62 1298.8 1453.38 1319.22C1487.71 1344.27 1496.06 1378.6 1497.92 1399.01C1496.06 1406.43 1494.21 1412.92 1494.21 1419.42ZM1357.82 994.485C1356.89 991.702 1355.04 987.99 1354.11 985.207C1343.9 963.868 1329.06 944.384 1311.43 928.611C1330.91 934.178 1355.04 943.456 1370.81 959.228C1369.88 971.29 1365.24 984.279 1357.82 994.485ZM1370.81 946.239C1346.69 926.755 1311.43 917.477 1292.87 913.766C1285.45 908.199 1277.1 904.488 1268.75 899.849C1294.73 898.921 1331.84 899.849 1365.24 912.838C1368.02 924.9 1370.81 936.033 1370.81 946.239ZM1360.6 902.632C1317 887.788 1269.68 890.571 1248.34 893.354C1239.99 890.571 1232.57 888.715 1225.14 887.788C1252.98 876.654 1301.22 861.809 1342.97 872.015C1343.9 872.943 1344.83 873.871 1345.76 875.726C1350.4 883.149 1355.96 892.427 1360.6 902.632ZM1325.35 839.542C1328.13 846.964 1330.91 853.459 1334.62 859.953C1283.59 851.603 1227.93 873.871 1205.66 884.076C1199.16 883.149 1192.67 883.149 1187.1 883.149C1206.59 864.592 1251.12 834.903 1325.35 839.542ZM1273.39 806.141C1292.87 802.43 1312.36 812.635 1321.63 830.264C1235.35 825.625 1188.96 866.448 1174.11 884.076C1171.33 884.076 1168.55 884.076 1166.69 885.004C1178.75 860.881 1210.3 816.347 1273.39 806.141ZM995.975 976.857C1021.03 957.373 1072.06 922.116 1133.29 908.199C1146.28 933.25 1152.77 960.156 1152.77 987.99V988.918C1152.77 1006.55 1149.99 1025.1 1144.42 1041.8C1130.51 1086.34 1099.89 1122.52 1058.14 1143.86C1020.1 1098.4 996.903 1042.73 985.769 1010.26C982.058 998.196 985.769 984.279 995.975 976.857ZM1203.8 999.124C1214.94 1003.76 1223.29 1013.04 1227 1025.1C1227.93 1028.81 1228.85 1032.52 1228.85 1036.24C1210.3 1007.47 1185.25 998.196 1171.33 995.413C1178.75 994.485 1190.81 994.485 1203.8 999.124ZM1202.88 1142.93C1185.25 1135.51 1155.56 1114.17 1160.2 1052.94C1167.62 1079.84 1181.54 1119.74 1201.95 1140.15C1202.88 1141.08 1202.88 1142.01 1202.88 1142.93ZM1165.76 1034.38C1175.97 1056.65 1190.81 1086.34 1204.73 1100.25C1202.88 1107.68 1201.95 1116.03 1201.95 1125.31C1182.46 1099.33 1170.4 1054.79 1165.76 1034.38ZM1207.51 1090.05C1193.6 1074.28 1177.82 1039.95 1168.55 1017.68V1016.75C1182.46 1027.89 1205.66 1049.23 1214.94 1072.42C1213.08 1077.99 1210.3 1083.55 1207.51 1090.05ZM1221.43 1063.14C1209.37 1037.16 1182.46 1015.82 1170.4 1005.62C1170.4 1005.62 1170.4 1005.62 1170.4 1004.69C1184.32 1007.47 1210.3 1017.68 1226.07 1051.08C1225.14 1055.72 1223.29 1059.43 1221.43 1063.14ZM1071.13 1157.78C1100.82 1141.08 1124.94 1117.88 1142.57 1089.12C1153.7 1156.85 1211.23 1164.27 1212.15 1164.27H1213.08C1215.86 1164.27 1217.72 1163.35 1219.58 1161.49C1221.43 1159.63 1222.36 1156.85 1222.36 1153.14C1216.79 1121.59 1221.43 1094.69 1234.42 1076.13C1245.55 1059.43 1249.27 1039.02 1244.63 1019.54C1241.84 1009.33 1236.28 1000.05 1227.93 992.629C1232.57 990.774 1235.35 987.063 1238.13 983.351C1240.92 978.712 1240.92 972.218 1239.06 967.579C1239.06 966.651 1238.13 965.723 1238.13 965.723C1244.63 964.795 1250.19 961.084 1252.98 954.589C1255.76 949.95 1255.76 943.456 1253.9 938.817C1252.05 933.25 1248.34 929.539 1243.7 926.755C1241.84 925.828 1239.06 926.755 1237.2 928.611C1236.28 930.467 1237.2 933.25 1239.06 935.106C1241.84 936.961 1243.7 938.817 1244.63 941.6C1245.55 944.384 1245.55 948.095 1243.7 950.878C1240.92 956.445 1233.49 959.228 1227.93 955.517C1226.07 954.589 1223.29 955.517 1221.43 957.373C1220.5 959.228 1221.43 962.012 1223.29 963.868C1226.07 965.723 1227.93 967.579 1228.85 970.362C1229.78 973.146 1229.78 976.857 1227.93 979.64C1226.07 982.424 1224.22 984.279 1221.43 985.207C1219.58 985.207 1218.65 986.135 1216.79 986.135C1214.01 984.279 1211.23 983.351 1208.44 982.424C1195.45 975.929 1180.61 975.929 1171.33 976.857C1170.4 951.806 1163.91 926.755 1152.77 903.56C1181.54 898.921 1213.08 899.849 1243.7 910.055C1290.09 924.9 1326.27 959.228 1342.97 1005.62C1353.18 1030.67 1371.74 1083.55 1379.16 1132.73C1358.75 1149.43 1258.54 1224.58 1187.1 1214.37C1138.86 1211.59 1100.82 1188.4 1071.13 1157.78ZM1323.49 1286.74C1281.74 1296.02 1235.35 1276.54 1201.95 1255.2C1220.5 1261.69 1241.84 1267.26 1265.97 1267.26C1280.81 1267.26 1296.58 1265.4 1311.43 1259.84C1313.28 1270.04 1317 1278.39 1323.49 1286.74ZM1311.43 1232.93C1310.5 1238.5 1309.57 1244.99 1310.5 1250.56C1264.11 1266.33 1218.65 1253.34 1188.03 1239.43C1219.58 1245.92 1266.89 1247.78 1312.36 1224.58C1312.36 1227.36 1311.43 1230.15 1311.43 1232.93ZM1346.69 1332.21C1279.88 1330.35 1229.78 1296.02 1198.24 1264.48C1226.07 1282.1 1263.18 1298.8 1300.3 1298.8C1310.5 1298.8 1319.78 1297.88 1329.98 1295.09C1342.97 1308.08 1345.76 1322.93 1346.69 1332.21ZM1311.43 1214.37C1278.96 1232 1244.63 1235.71 1216.79 1232.93C1247.41 1229.22 1278.96 1217.16 1306.79 1202.31C1308.65 1206.95 1310.5 1210.66 1311.43 1214.37ZM1398.64 1283.03C1404.21 1302.52 1413.49 1322.93 1428.33 1338.7C1471.94 1383.23 1483.07 1416.64 1489.57 1440.76C1419.98 1393.44 1401.43 1332.21 1398.64 1283.03ZM1505.34 1385.09C1500.7 1362.82 1489.57 1334.06 1458.95 1311.79C1428.33 1289.53 1412.56 1251.49 1405.14 1223.65C1418.13 1244.99 1435.75 1268.19 1463.59 1284.89C1500.7 1309.01 1516.47 1347.98 1521.11 1364.68C1519.26 1367.46 1517.4 1370.25 1515.55 1372.1C1511.83 1376.74 1508.12 1380.45 1505.34 1385.09ZM1403.28 1201.39C1418.13 1222.72 1442.25 1248.7 1479.36 1263.55C1518.33 1279.32 1531.32 1301.59 1535.96 1317.36C1535.03 1330.35 1531.32 1343.34 1526.68 1353.55C1519.26 1333.13 1502.56 1299.73 1468.23 1277.47C1434.83 1256.13 1415.34 1225.51 1403.28 1201.39ZM1535.03 1290.45C1535.03 1292.31 1535.03 1293.24 1535.96 1295.09C1526.68 1281.18 1510.91 1265.4 1483.07 1254.27C1432.97 1234.79 1406.99 1191.18 1397.71 1170.77C1413.49 1189.32 1443.18 1212.52 1499.77 1233.86C1523.9 1250.56 1532.25 1273.75 1535.03 1290.45ZM1505.34 1217.16C1407.92 1180.97 1397.71 1137.37 1397.71 1136.44C1397.71 1135.51 1397.71 1134.58 1397.71 1133.66C1415.34 1153.14 1466.37 1196.75 1569.36 1205.1C1554.51 1214.37 1534.1 1219.94 1505.34 1217.16ZM1578.64 1195.82C1496.99 1191.18 1445.96 1162.42 1419.98 1142.01C1451.53 1154.07 1509.98 1173.55 1567.5 1173.55C1576.78 1173.55 1586.06 1172.62 1595.34 1171.7C1591.63 1180.97 1586.06 1189.32 1578.64 1195.82ZM1620.39 1121.59C1574.93 1154.07 1493.28 1142.01 1449.67 1132.73H1450.6C1478.43 1132.73 1537.81 1129.02 1586.06 1108.6C1612.04 1097.47 1638.02 1093.76 1656.57 1092.83C1643.58 1098.4 1629.67 1107.68 1620.39 1121.59Z" fill="black"/>
<path d="M1248.34 1117.88C1251.13 1119.74 1254.84 1120.67 1257.62 1120.67C1259.48 1120.67 1262.26 1120.67 1264.12 1119.74C1269.68 1117.88 1273.39 1114.17 1276.18 1109.53C1278.96 1104.89 1278.96 1098.4 1277.11 1093.76C1277.11 1092.83 1276.18 1091.91 1276.18 1090.98C1277.11 1090.98 1278.03 1090.98 1278.96 1090.98C1284.53 1089.12 1288.24 1085.41 1291.02 1080.77C1293.81 1076.13 1293.81 1069.64 1291.95 1065C1291.95 1064.07 1291.02 1063.14 1291.02 1062.22C1291.95 1062.22 1292.88 1062.22 1293.81 1062.22C1299.37 1060.36 1303.08 1056.65 1305.87 1052.01C1308.65 1047.37 1308.65 1040.88 1306.8 1036.24C1304.94 1031.6 1301.23 1026.96 1296.59 1024.18C1294.73 1023.25 1291.95 1024.18 1290.1 1026.03C1289.17 1027.89 1290.1 1030.67 1291.95 1032.53C1294.73 1034.38 1296.59 1036.24 1297.52 1039.02C1298.45 1041.8 1298.45 1045.52 1296.59 1048.3C1294.73 1051.08 1292.88 1052.94 1290.1 1053.87C1287.31 1054.79 1283.6 1054.79 1280.82 1052.94C1278.96 1052.01 1276.18 1052.94 1274.32 1054.79C1273.39 1056.65 1274.32 1059.43 1276.18 1061.29C1278.96 1063.14 1280.82 1065 1281.75 1067.78C1282.67 1070.57 1282.67 1074.28 1280.82 1077.06C1278.96 1079.84 1277.11 1081.7 1274.32 1082.63C1271.54 1083.56 1267.83 1083.56 1265.04 1081.7C1263.19 1080.77 1260.41 1081.7 1258.55 1083.56C1257.62 1085.41 1258.55 1088.19 1260.41 1090.05C1263.19 1091.91 1265.04 1093.76 1265.97 1096.54C1266.9 1099.33 1266.9 1103.04 1265.04 1105.82C1263.19 1108.61 1261.33 1110.46 1258.55 1111.39C1255.77 1112.32 1252.06 1112.32 1249.27 1110.46C1247.42 1109.53 1244.63 1110.46 1242.78 1112.32C1245.56 1114.17 1246.49 1116.96 1248.34 1117.88Z" fill="black"/>
<path d="M1312.36 1057.58C1315.15 1059.43 1317 1061.29 1317.93 1064.07C1318.86 1066.86 1318.86 1070.57 1317 1073.35C1314.22 1078.92 1306.8 1081.7 1301.23 1077.99C1299.37 1077.06 1296.59 1077.99 1294.73 1079.84C1293.81 1081.7 1294.73 1084.48 1296.59 1086.34C1299.37 1088.19 1301.23 1090.05 1302.16 1092.83C1303.08 1095.62 1303.08 1099.33 1301.23 1102.11C1299.37 1104.9 1297.52 1106.75 1294.73 1107.68C1291.95 1108.61 1288.24 1108.61 1285.46 1106.75C1283.6 1105.82 1280.82 1106.75 1278.96 1108.61C1278.03 1110.46 1278.96 1113.25 1280.82 1115.1C1283.6 1116.96 1287.31 1117.88 1290.1 1117.88C1291.95 1117.88 1294.73 1117.88 1296.59 1116.96C1302.16 1115.1 1305.87 1111.39 1308.65 1106.75C1311.43 1102.11 1311.43 1095.62 1309.58 1090.98C1309.58 1090.05 1308.65 1089.12 1308.65 1089.12C1315.15 1088.19 1320.71 1084.48 1323.5 1077.99C1326.28 1073.35 1326.28 1066.86 1324.42 1062.22C1322.57 1056.65 1318.86 1052.94 1314.22 1050.16C1312.36 1049.23 1309.58 1050.15 1307.72 1052.01C1308.65 1053.87 1309.58 1056.65 1312.36 1057.58Z" fill="black"/>
<path d="M1081.59 994.478C1087.93 994.478 1093.07 989.337 1093.07 982.996C1093.07 976.655 1087.93 971.514 1081.59 971.514C1075.25 971.514 1070.11 976.655 1070.11 982.996C1070.11 989.337 1075.25 994.478 1081.59 994.478Z" fill="black"/>
<path d="M1084.11 949.37C1105.68 949.37 1123.66 967.355 1123.66 988.918C1123.66 1010.48 1105.68 1028.47 1084.11 1028.47C1062.55 1028.47 1044.57 1010.48 1044.57 988.918C1044.57 967.355 1062.55 949.37 1084.11 949.37ZM1084.11 964.447C1071.35 964.447 1060.57 975.224 1060.57 987.99C1060.57 1000.76 1071.35 1011.53 1084.11 1011.53C1096.88 1011.53 1107.66 1000.76 1107.66 987.99C1107.66 975.224 1096.88 964.447 1084.11 964.447Z" fill="black" stroke="black" stroke-width="2.5515"/>
<circle cx="1028.01" cy="1054.44" r="14.0333" fill="black"/>
<path d="M1096.88 696.272C1094.16 696.319 1091.62 695.099 1089.22 692.579C1086.8 690.043 1084.65 686.858 1082.77 683.006C1080.85 679.123 1079.21 674.781 1077.82 669.963C1076.41 665.097 1075.41 660.517 1074.81 656.238C1073.82 649.026 1073.96 643.131 1075.29 638.582C1076.62 633.986 1079.87 629.627 1085.09 625.491C1086.13 624.794 1088.05 623.272 1090.86 620.926C1093.69 618.565 1097.01 615.807 1100.84 612.622C1104.69 609.42 1108.9 605.933 1113.47 602.161C1118.07 598.358 1122.5 594.617 1126.73 590.94C1131 587.248 1134.97 583.856 1138.61 580.766C1142.27 577.659 1145.09 575.25 1147.03 573.539C1150.81 570.115 1155.29 565.741 1160.52 560.432C1165.8 555.059 1170.84 549.1 1175.68 542.522C1180.57 535.866 1184.76 528.734 1188.22 521.095C1191.75 513.345 1193.48 505.404 1193.42 497.226C1193.39 493.09 1192.85 489.096 1191.79 485.245C1190.73 481.362 1189.34 477.843 1187.63 474.705C1185.91 471.536 1183.95 468.984 1181.75 467.05C1179.54 465.101 1177.39 464.134 1175.29 464.15C1164.14 464.198 1152.95 465.893 1141.72 469.269C1130.56 472.629 1119.6 477.257 1108.93 483.153C1098.35 489.001 1088.14 495.816 1078.31 503.598C1068.6 511.3 1059.38 519.557 1050.67 528.369L1050.62 528.052C1050.01 529.098 1048.88 530.493 1047.29 532.252C1045.71 534.012 1043.87 535.707 1041.82 537.356C1039.76 539.004 1037.66 540.478 1035.49 541.809C1033.34 543.14 1031.35 543.806 1029.52 543.822C1027.82 543.838 1025.72 543.41 1023.19 542.522C1020.66 541.635 1018.12 540.288 1015.56 538.481C1012.99 536.674 1010.64 534.344 1008.49 531.492C1006.31 528.607 1004.85 525.2 1004.11 521.222C1003.35 517.212 1003.87 512.964 1005.64 508.447C1007.45 503.899 1009.99 499.255 1013.33 494.5C1016.69 489.714 1020.57 484.944 1024.98 480.189C1029.42 475.403 1033.93 470.965 1038.48 466.908C1043.07 462.819 1047.41 459.189 1051.52 456.004C1055.65 452.802 1058.94 450.362 1061.39 448.682C1079.3 437.809 1097.18 428.649 1114.95 421.327C1132.9 413.909 1151.54 410.185 1170.7 410.185C1178.65 410.185 1186.72 413.022 1194.83 418.664C1202.86 424.243 1210.04 431.581 1216.36 440.63C1222.57 449.522 1227.51 459.617 1231.14 470.822C1234.7 481.806 1236.28 493.011 1235.9 504.422C1235.62 513.503 1233.82 522.283 1230.54 530.794C1227.32 539.162 1223.24 547.166 1218.29 554.821C1213.42 562.365 1208 569.529 1202.02 576.328C1196.12 583.048 1190.16 589.356 1184.12 595.283C1178.15 601.147 1172.36 606.504 1166.76 611.37C1161.22 616.188 1156.31 620.499 1152.06 624.302C1147.97 627.9 1143.62 631.513 1139.03 635.159C1134.48 638.772 1130.26 642.196 1126.35 645.429C1122.48 648.646 1119.11 651.752 1116.28 654.748C1113.47 657.727 1111.78 660.406 1111.19 662.767C1110.83 665.89 1110.69 668.726 1110.73 671.262C1110.78 673.782 1110.86 676.112 1110.94 678.236C1111 680.201 1111.18 682.23 1111.46 684.306C1111.73 686.382 1111.54 688.316 1110.88 690.091C1110.21 691.866 1108.84 693.324 1106.77 694.449C1104.71 695.59 1101.41 696.192 1096.88 696.272ZM1119.21 756.164C1119.63 760.428 1119.18 764.469 1117.85 768.32C1116.54 772.124 1114.62 775.437 1112.11 778.258C1109.61 781.063 1106.64 783.329 1103.18 785.057C1099.73 786.784 1096.05 787.703 1092.09 787.799C1089.07 787.878 1086.15 787.386 1083.32 786.34C1080.47 785.294 1077.9 783.789 1075.59 781.824C1073.26 779.858 1071.32 777.497 1069.74 774.755C1068.16 771.997 1067.08 769.018 1066.56 765.816C1065.86 761.6 1066.12 757.48 1067.35 753.438C1068.58 749.365 1070.48 745.736 1073.07 742.534C1075.67 739.317 1078.81 736.702 1082.5 734.689C1086.2 732.676 1090.1 731.615 1094.2 731.535C1097.42 731.472 1100.47 732.074 1103.37 733.342C1106.24 734.61 1108.8 736.353 1111.08 738.54C1113.34 740.728 1115.18 743.358 1116.6 746.433C1117.99 749.508 1118.86 752.741 1119.21 756.164Z" fill="black"/>
<path d="M1409 899L1495.59 897.824L1451.28 823.419L1409 899ZM1864 628L1860.16 621.556L1463.16 858.016L1466.99 864.459L1470.83 870.903L1867.84 634.444L1864 628Z" fill="#ED1818"/>
<defs>
<linearGradient id="paint0_linear_2035_1214" x1="969.326" y1="979.169" x2="1063" y2="914.137" gradientUnits="userSpaceOnUse">
<stop stop-color="#FBFF00"/>
<stop offset="1" stop-color="#FFCD00"/>
</linearGradient>
<linearGradient id="paint1_linear_2035_1214" x1="1190.88" y1="1053.96" x2="1242.53" y2="1076.08" gradientUnits="userSpaceOnUse">
<stop stop-color="#FFCD00"/>
<stop offset="1" stop-color="#FBFF00"/>
</linearGradient>
<linearGradient id="paint2_linear_2035_1214" x1="1510.25" y1="1230.49" x2="1584.24" y2="1337.65" gradientUnits="userSpaceOnUse">
<stop stop-color="#FFCD00"/>
<stop offset="1" stop-color="#FBFF00"/>
</linearGradient>
<linearGradient id="paint3_linear_2035_1214" x1="1270.4" y1="1230.49" x2="1344.4" y2="1337.65" gradientUnits="userSpaceOnUse">
<stop stop-color="#FFCD00"/>
<stop offset="1" stop-color="#FBFF00"/>
</linearGradient>
<linearGradient id="paint4_linear_2035_1214" x1="1248.71" y1="801.84" x2="1348.22" y2="1004.68" gradientUnits="userSpaceOnUse">
<stop stop-color="#FFCD00"/>
<stop offset="1" stop-color="#FBFF00"/>
</linearGradient>
<linearGradient id="paint5_linear_2035_1214" x1="1223.2" y1="900.073" x2="1223.2" y2="1220.29" gradientUnits="userSpaceOnUse">
<stop stop-color="#FFCD00"/>
<stop offset="1" stop-color="#ED1818"/>
</linearGradient>
</defs>
</svg>
